<svg fill="none" height="48" viewBox="0 0 122 48" width="122" xmlns="http://www.w3.org/2000/svg"><path d="m52.0385 26.0491c0 5.752-4.4998 9.9906-10.022 9.9906-5.5223 0-10.0221-4.2386-10.0221-9.9906 0-5.7925 4.4998-9.9905 10.0221-9.9905 5.5222 0 10.022 4.198 10.022 9.9905zm-4.3871 0c0-3.5944-2.608-6.0537-5.6349-6.0537s-5.6349 2.4593-5.6349 6.0537c0 3.5584 2.608 6.0538 5.6349 6.0538s5.6349-2.4999 5.6349-6.0538z" fill="#ea4335"/><path d="m73.6599 26.0491c0 5.752-4.4998 9.9906-10.0221 9.9906s-10.0221-4.2386-10.0221-9.9906c0-5.788 4.4998-9.9905 10.0221-9.9905s10.0221 4.198 10.0221 9.9905zm-4.3872 0c0-3.5944-2.608-6.0537-5.6349-6.0537s-5.6349 2.4593-5.6349 6.0537c0 3.5584 2.608 6.0538 5.6349 6.0538s5.6349-2.4999 5.6349-6.0538z" fill="#fbbc05"/><path d="m94.3799 16.6622v17.9361c0 7.3781-4.3512 10.3915-9.4951 10.3915-4.8421 0-7.7564-3.2386-8.8555-5.8872l3.8197-1.59c.6801 1.6261 2.3467 3.5449 5.0313 3.5449 3.2926 0 5.3331-2.0314 5.3331-5.8556v-1.4369h-.1531c-.982 1.2117-2.8738 2.2702-5.2611 2.2702-4.9953 0-9.5717-4.3512-9.5717-9.95 0-5.6394 4.5764-10.0266 9.5717-10.0266 2.3828 0 4.2746 1.0585 5.2611 2.2341h.1531v-1.626h4.1665zm-3.8557 9.423c0-3.5179-2.3467-6.0898-5.3331-6.0898-3.0269 0-5.5628 2.5719-5.5628 6.0898 0 3.4818 2.5359 6.0177 5.5628 6.0177 2.9864 0 5.3331-2.5359 5.3331-6.0177z" fill="#4285f4"/><path d="m101.25 6.14941v29.27799h-4.2793v-29.27799z" fill="#34a853"/><path d="m117.922 29.3379 3.405 2.2702c-1.099 1.626-3.748 4.4277-8.324 4.4277-5.675 0-9.914-4.3872-9.914-9.9906 0-5.9411 4.275-9.9905 9.423-9.9905 5.185 0 7.721 4.1259 8.549 6.3556l.455 1.1351-13.355 5.5312c1.022 2.0045 2.612 3.0269 4.842 3.0269 2.234 0 3.784-1.099 4.919-2.7656zm-10.482-3.5944 8.928-3.7071c-.491-1.2477-1.969-2.117-3.707-2.117-2.23 0-5.333 1.9684-5.221 5.8241z" fill="#ea4335"/><path d="m15.798 23.4504v-4.2385h14.2832c.1396.7387.2117 1.6125.2117 2.5584 0 3.18-.8694 7.1123-3.671 9.914-2.7252 2.8377-6.207 4.3511-10.8194 4.3511-8.54917 0-15.7380469-6.9636-15.7380469-15.5128s7.1888769-15.51283 15.7380469-15.51283c4.7295 0 8.0988 1.85577 10.6302 4.27458l-2.9909 2.99085c-1.8152-1.7026-4.2746-3.02688-7.6438-3.02688-6.24297 0-11.12564 5.03128-11.12564 11.27428s4.88267 11.2743 11.12564 11.2743c4.0494 0 6.3556-1.6261 7.833-3.1035 1.1981-1.1981 1.9864-2.9098 2.2972-5.2475z" fill="#4285f4"/></svg>