<svg fill="none" height="48" viewBox="0 0 126 48" width="126" xmlns="http://www.w3.org/2000/svg"><path d="m40.9111 21.8124c0-2.2581-2.1664-4.6263-5.9318-4.6263-4.2227 0-8.8589 3.1091-9.5688 9.3147-.7255 6.2663 3.1571 9.0509 7.0707 9.0509s5.9629-1.5313 8.0587-3.5735c-1.8023-2.2722-4.1296-1.2222-4.5755-.9908-.7383.4114-1.5743.6148-2.4191.5886-1.5101 0-3.0512-.6803-3.0512-3.5114 9.676-.9597 10.4155-4.0082 10.4155-6.2522zm-4.7957.3712c-.0621.6958-.3388 1.8869-5.2389 2.5545 1.0303-3.6836 3.0062-3.9602 3.9136-3.9602.184-.0084.3675.0229.5383.0917.1707.0689.3247.1737.4513.3073.1267.1336.2231.2929.2827.4671s.0811.3592.0629.5424zm-16.3883.604-2.2497 7.1018-1.5877-12.3307c-3.5425 0-5.4478 2.5375-6.44134 5.2134l-2.74362 7.1329-.38529-7.0567c-.20888-3.2799-3.20371-5.2755-5.624138-5.2755l2.927088 17.8392c3.71179-.0142 5.71588-2.5376 6.7645-5.2135l2.3202-6.0645c.0212.247 1.6033 11.2794 1.6033 11.2794 3.7287 0 5.7328-2.3668 6.8068-4.951l5.2219-12.8882c-3.6765 0-5.6142 2.522-6.6149 5.2134zm34.8682-5.6453c-2.2962 0-4.0505 1.2533-5.5324 3.0937v-.0142l1.3238-10.7218c-3.0513 0-5.5324 2.6618-6.0094 6.6219l-2.2948 19.1517c1.7571 0 3.6214-.5109 4.6235-1.8107.8947 1.1601 2.2341 2.0888 4.2226 2.0888 5.1457 0 8.6755-6.0024 8.6755-11.635-.0311-5.1372-2.5122-6.7603-4.9933-6.7603zm-.4799 9.2061c-.5363 3.1402-2.2807 5.2756-3.9587 5.2756-1.6781 0-2.4191-.7579-2.4191-.7579.3247-2.7521.5251-4.4401 1.1404-5.8951.6153-1.4551 2.0803-3.7753 3.6059-3.7753 1.496 0 2.1735 1.9956 1.6329 5.1513zm18.3219-8.7883h-3.5904l.0141-.1863c.247-2.3513.8016-3.589 2.6307-3.7908 1.249-.1242 1.8037-.7734 1.942-1.4847l.4474-2.49104c-7.1978-.04657-9.4757 3.07674-10.0557 7.84414l-.0142.1087h-.0776c-1.1714 0-2.4642 1.3309-2.6815 3.0174l-.0776.6182h2.4049l-2.0182 16.7383-.6182 3.0019c.0776 0 .1694.0141.2456.0141 3.3731-.1242 5.5324-2.8001 6.0094-6.684l1.5751-13.0732h1.129c1.1093 0 2.4049-1.1149 2.6307-2.9708zm18.6746-.3105c-4.145 0-8.0586 3.0626-9.2583 7.8752-1.1996 4.8126.6182 10.5045 6.7179 10.5045 6.0998 0 9.5928-5.9276 9.5928-10.8616.0057-4.9043-3.3053-7.5195-7.051-7.5195zm1.6795 8.9422c-.2145 2.1819-1.1714 5.4928-3.7908 5.4928s-2.2652-3.867-2.0112-5.7088c.2781-1.9645 1.3719-4.7646 3.7288-4.7646 2.1198 0 2.3188 2.522 2.0746 4.982zm25.8556-3.4197-2.25 7.1018c-.06-.5575-1.586-12.3307-1.586-12.3307-3.542 0-5.439 2.5375-6.433 5.2134l-2.744 7.1328c-.014-.5109-.385-7.0566-.385-7.0566-.223-3.2799-3.215-5.2755-5.6451-5.2755l2.9111 17.8391c3.712-.0141 5.716-2.5375 6.765-5.2134l2.312-6.0645c.014.247 1.603 11.2793 1.603 11.2793 3.729 0 5.724-2.3668 6.807-4.9509l5.226-12.8882c-3.667 0-5.609 2.522-6.595 5.2134zm-42.8197-13.16766-3.0203 24.45826-.6181 3.0174c.0762 0 .1693.0142.2455.0142 3.2489-.0466 5.5607-2.9074 5.994-6.5133l1.7401-14.0328c.5278-4.2862-2.014-6.94658-4.3412-6.94658z" fill="#4353ff"/></svg>