<svg width="100" height="100" viewBox="0 0 100 100" fill="none" xmlns="http://www.w3.org/2000/svg">
<rect width="100" height="100" rx="30" fill="url(#paint0_linear_25_94)"/>
<g opacity="0.25" filter="url(#filter0_f_25_94)">
<rect x="15.0655" y="50" width="68.1223" height="42.5764" rx="21.2882" fill="url(#paint1_linear_25_94)"/>
</g>
<rect x="13" y="12.9999" width="73.7991" height="73.7991" rx="30" fill="url(#paint2_linear_25_94)"/>
<g filter="url(#filter1_i_25_94)">
<path fill-rule="evenodd" clip-rule="evenodd" d="M58.2025 44.454C60.8777 46.3574 64.0812 47.3743 67.3634 47.362V40.8515C66.7182 40.8533 66.0747 40.7841 65.4445 40.6453V45.832C62.155 45.8379 58.9467 44.8092 56.2728 42.8914V56.2814C56.2647 58.4786 55.6627 60.6327 54.5306 62.5151C53.3985 64.3976 51.7785 65.9384 49.8424 66.974C47.9064 68.0097 45.7263 68.5016 43.5336 68.3977C41.3408 68.2937 39.217 67.5978 37.3873 66.3836C39.0797 68.0975 41.2421 69.2701 43.6008 69.7531C45.9594 70.236 48.4082 70.0076 50.6371 69.0967C52.866 68.1857 54.7746 66.6333 56.1214 64.636C57.4681 62.6386 58.1924 60.2862 58.2025 57.8765V44.454ZM60.5768 37.8132C59.2164 36.3374 58.3817 34.4528 58.2025 32.4529V31.6065H56.3812C56.6064 32.8778 57.0963 34.0874 57.8191 35.1567C58.542 36.2261 59.4815 37.1312 60.5768 37.8132V37.8132ZM41.6046 61.2295C40.9733 60.4032 40.5865 59.4162 40.488 58.3808C40.3896 57.3453 40.5836 56.303 41.0479 55.3725C41.5122 54.4419 42.2281 53.6605 43.1143 53.1172C44.0004 52.5739 45.0212 52.2905 46.0603 52.2992C46.6341 52.299 47.2044 52.3868 47.7516 52.5596V45.832C47.112 45.7473 46.4669 45.711 45.8218 45.7235V50.9537C44.4896 50.5322 43.0476 50.628 41.7827 51.2221C40.5179 51.8163 39.5228 52.8652 38.9954 54.1602C38.468 55.4552 38.4469 56.9015 38.9364 58.2114C39.4259 59.5212 40.3901 60.5987 41.6371 61.2295H41.6046Z" fill="#EE1D52"/>
<path fill-rule="evenodd" clip-rule="evenodd" d="M56.2718 42.848C58.9457 44.7658 62.154 45.7945 65.4436 45.7886V40.6019C63.5693 40.2053 61.8667 39.2299 60.5758 37.8132C59.4806 37.1312 58.541 36.2261 57.8182 35.1567C57.0953 34.0874 56.6054 32.8778 56.3803 31.6065H51.5884V57.8765C51.584 59.0393 51.2158 60.1715 50.5356 61.1142C49.8554 62.0569 48.8974 62.7627 47.7959 63.1326C46.6945 63.5024 45.505 63.5178 44.3944 63.1765C43.2838 62.8351 42.3079 62.1543 41.6036 61.2295C40.4876 60.6658 39.5937 59.7423 39.0664 58.6078C38.5391 57.4734 38.409 56.1942 38.6971 54.9767C38.9853 53.7592 39.6748 52.6743 40.6546 51.8972C41.6343 51.12 42.847 50.6959 44.0971 50.6932C44.6707 50.6951 45.2408 50.7828 45.7883 50.9537V45.7235C43.4223 45.7804 41.1244 46.5274 39.1766 47.873C37.2288 49.2185 35.7159 51.1041 34.8237 53.2981C33.9314 55.4921 33.6987 57.8991 34.1539 60.2236C34.6091 62.5482 35.7326 64.6891 37.3864 66.3836C39.2164 67.6065 41.3435 68.3096 43.5412 68.4181C45.739 68.5266 47.9249 68.0364 49.8663 66.9997C51.8076 65.9631 53.4317 64.4187 54.5654 62.5312C55.6992 60.6437 56.3002 58.4838 56.3044 56.2814L56.2718 42.848Z" fill="white"/>
<path fill-rule="evenodd" clip-rule="evenodd" d="M65.4442 40.6013V39.2016C63.723 39.2089 62.0351 38.7273 60.5765 37.8126C61.8641 39.2334 63.5681 40.2096 65.4442 40.6013V40.6013ZM56.3809 31.6059C56.3809 31.3564 56.305 31.0959 56.2725 30.8464V30H49.6593V56.2809C49.6536 57.7524 49.0647 59.1616 48.0221 60.1991C46.9794 61.2366 45.568 61.8177 44.0977 61.8148C43.232 61.8192 42.3776 61.6184 41.6043 61.2289C42.3085 62.1537 43.2844 62.8346 44.395 63.1759C45.5056 63.5172 46.6951 63.5019 47.7966 63.132C48.898 62.7621 49.856 62.0563 50.5362 61.1136C51.2164 60.171 51.5846 59.0388 51.5891 57.876V31.6059H56.3809ZM45.789 45.7121V44.2255C43.0677 43.8555 40.3014 44.4189 37.941 45.8239C35.5806 47.2289 33.7653 49.3927 32.7908 51.9625C31.8163 54.5324 31.7402 57.3568 32.5749 59.9755C33.4095 62.5942 35.1057 64.8527 37.387 66.3831C35.7458 64.6846 34.6343 62.5445 34.1883 60.2242C33.7424 57.9039 33.9813 55.5038 34.8758 53.3171C35.7704 51.1305 37.2819 49.252 39.2257 47.9111C41.1695 46.5701 43.4615 45.8249 45.8215 45.7664L45.789 45.7121Z" fill="#69C9D0"/>
</g>
<defs>
<filter id="filter0_f_25_94" x="9.60549" y="44.54" width="79.0423" height="53.4964" filterUnits="userSpaceOnUse" color-interpolation-filters="sRGB">
<feFlood flood-opacity="0" result="BackgroundImageFix"/>
<feBlend mode="normal" in="SourceGraphic" in2="BackgroundImageFix" result="shape"/>
<feGaussianBlur stdDeviation="2.73" result="effect1_foregroundBlur_25_94"/>
</filter>
<filter id="filter1_i_25_94" x="27" y="27" width="45" height="45.5" filterUnits="userSpaceOnUse" color-interpolation-filters="sRGB">
<feFlood flood-opacity="0" result="BackgroundImageFix"/>
<feBlend mode="normal" in="SourceGraphic" in2="BackgroundImageFix" result="shape"/>
<feColorMatrix in="SourceAlpha" type="matrix" values="0 0 0 0 0 0 0 0 0 0 0 0 0 0 0 0 0 0 127 0" result="hardAlpha"/>
<feOffset dy="0.5"/>
<feGaussianBlur stdDeviation="1.25"/>
<feComposite in2="hardAlpha" operator="arithmetic" k2="-1" k3="1"/>
<feColorMatrix type="matrix" values="0 0 0 0 0 0 0 0 0 0 0 0 0 0 0 0 0 0 0.1 0"/>
<feBlend mode="normal" in2="shape" result="effect1_innerShadow_25_94"/>
</filter>
<linearGradient id="paint0_linear_25_94" x1="8.40611" y1="6.55022" x2="82.6419" y2="100" gradientUnits="userSpaceOnUse">
<stop stop-color="#FBFBFC"/>
<stop offset="1" stop-color="#DBDDE8"/>
</linearGradient>
<linearGradient id="paint1_linear_25_94" x1="16.4501" y1="50" x2="46.4725" y2="110.139" gradientUnits="userSpaceOnUse">
<stop/>
<stop offset="1" stop-color="#323232"/>
</linearGradient>
<linearGradient id="paint2_linear_25_94" x1="14.5" y1="12.9999" x2="78" y2="92.4999" gradientUnits="userSpaceOnUse">
<stop/>
<stop offset="1" stop-color="#323232"/>
</linearGradient>
</defs>
</svg>
