<svg width="100" height="100" viewBox="0 0 100 100" fill="none" xmlns="http://www.w3.org/2000/svg">
<rect width="100" height="100" rx="30" fill="url(#paint0_linear_25_38)"/>
<g opacity="0.25" filter="url(#filter0_f_25_38)">
<rect x="15.0655" y="50" width="68.1223" height="42.5764" rx="21.2882" fill="url(#paint1_linear_25_38)"/>
</g>
<rect x="13" y="12.9999" width="73.7991" height="73.7991" rx="30" fill="url(#paint2_linear_25_38)"/>
<g filter="url(#filter1_i_25_38)">
<path d="M40.0741 30.8889L32.6667 37.7614V62.5023H41.5556V69.3748L48.963 62.5023H54.8889L68.2222 50.1319V30.8889H40.0741ZM65.2593 48.7574L59.3334 54.2553H53.4074L48.2222 59.0661V54.2553H41.5556V33.6379H65.2593V48.7574Z" fill="white"/>
<path d="M60.8157 38.4487H57.8527V46.6956H60.8157V38.4487Z" fill="white"/>
<path d="M52.6693 38.4487H49.7064V46.6956H52.6693V38.4487Z" fill="white"/>
</g>
<defs>
<filter id="filter0_f_25_38" x="9.60549" y="44.54" width="79.0423" height="53.4964" filterUnits="userSpaceOnUse" color-interpolation-filters="sRGB">
<feFlood flood-opacity="0" result="BackgroundImageFix"/>
<feBlend mode="normal" in="SourceGraphic" in2="BackgroundImageFix" result="shape"/>
<feGaussianBlur stdDeviation="2.73" result="effect1_foregroundBlur_25_38"/>
</filter>
<filter id="filter1_i_25_38" x="30" y="30" width="40" height="40.5" filterUnits="userSpaceOnUse" color-interpolation-filters="sRGB">
<feFlood flood-opacity="0" result="BackgroundImageFix"/>
<feBlend mode="normal" in="SourceGraphic" in2="BackgroundImageFix" result="shape"/>
<feColorMatrix in="SourceAlpha" type="matrix" values="0 0 0 0 0 0 0 0 0 0 0 0 0 0 0 0 0 0 127 0" result="hardAlpha"/>
<feOffset dy="0.5"/>
<feGaussianBlur stdDeviation="1.25"/>
<feComposite in2="hardAlpha" operator="arithmetic" k2="-1" k3="1"/>
<feColorMatrix type="matrix" values="0 0 0 0 0 0 0 0 0 0 0 0 0 0 0 0 0 0 0.1 0"/>
<feBlend mode="normal" in2="shape" result="effect1_innerShadow_25_38"/>
</filter>
<linearGradient id="paint0_linear_25_38" x1="8.40611" y1="6.55022" x2="82.6419" y2="100" gradientUnits="userSpaceOnUse">
<stop stop-color="#FBFBFC"/>
<stop offset="1" stop-color="#DBDDE8"/>
</linearGradient>
<linearGradient id="paint1_linear_25_38" x1="53.8347" y1="93.8462" x2="39.9491" y2="44.9043" gradientUnits="userSpaceOnUse">
<stop stop-color="#732ADF"/>
<stop offset="1" stop-color="#9146FF"/>
</linearGradient>
<linearGradient id="paint2_linear_25_38" x1="55" y1="88.9999" x2="20.5" y2="12.9999" gradientUnits="userSpaceOnUse">
<stop stop-color="#732ADF"/>
<stop offset="1" stop-color="#9146FF"/>
</linearGradient>
</defs>
</svg>
