<svg width="92" height="92" viewBox="0 0 92 92" fill="none" xmlns="http://www.w3.org/2000/svg">
<path d="M43.0077 23.5914L22.1295 32.2304C20.9685 32.7109 20.9805 34.3603 22.1488 34.8234L43.114 43.1373C44.956 43.8679 47.0074 43.8679 48.8495 43.1373L69.815 34.8231C70.983 34.3603 70.9956 32.7112 69.834 32.2307L48.9565 23.5911C47.0517 22.803 44.9121 22.803 43.0073 23.5911" fill="#FCB400"/>
<path d="M47.8398 47.6776V68.4472C47.8398 69.4348 48.836 70.1115 49.7542 69.7475L73.1158 60.6796C73.3764 60.5764 73.5999 60.3972 73.7573 60.1653C73.9148 59.9334 73.999 59.6596 73.9989 59.3793V38.6101C73.9989 37.6222 73.0028 36.9458 72.0846 37.3098L48.723 46.3777C48.4625 46.481 48.239 46.6602 48.0815 46.8921C47.9241 47.1239 47.8399 47.3977 47.8398 47.678" fill="#18BFFF"/>
<path d="M42.3846 48.7484L35.4514 52.096L34.7475 52.4363L20.1119 59.449C19.1844 59.8965 18 59.2204 18 58.1898V38.6962C18 38.3233 18.1912 38.0014 18.4476 37.7593C18.5528 37.6545 18.6721 37.565 18.8021 37.4934C19.1515 37.2835 19.6504 37.2275 20.0745 37.3952L42.2682 46.189C43.3963 46.6366 43.4849 48.2173 42.3846 48.7488" fill="#F82B60"/>
<path d="M42.3824 48.7485L35.4492 52.096L18.4453 37.7589C18.5505 37.6543 18.6698 37.5649 18.7998 37.4934C19.1493 37.2835 19.6481 37.2275 20.0723 37.3952L42.2659 46.189C43.394 46.6366 43.4826 48.2173 42.3824 48.7488" fill="black" fill-opacity="0.25"/>
</svg>
