<svg width="92" height="92" viewBox="0 0 92 92" fill="none" xmlns="http://www.w3.org/2000/svg">
<path d="M62.9516 47.3602C55.744 47.3602 49.9021 53.2021 49.9021 60.4086C49.9021 67.6156 55.744 73.4588 62.9516 73.4588C70.1581 73.4588 76 67.6156 76 60.4086C76 53.2021 70.1581 47.3602 62.9516 47.3602ZM29.049 47.3608C21.8425 47.3614 16 53.2021 16 60.4092C16 67.6156 21.8425 73.4581 29.049 73.4581C36.256 73.4581 42.0986 67.6156 42.0986 60.4092C42.0986 53.2021 36.256 47.3608 29.0484 47.3608H29.049ZM59.049 31.049C59.049 38.2554 53.2071 44.0992 46.0006 44.0992C38.7929 44.0992 32.951 38.2554 32.951 31.049C32.951 23.8425 38.7929 18 46.0006 18C53.2071 18 59.0484 23.8425 59.0484 31.049H59.049Z" fill="url(#paint0_radial_2275_954)"/>
<defs>
<radialGradient id="paint0_radial_2275_954" cx="0" cy="0" r="1" gradientUnits="userSpaceOnUse" gradientTransform="translate(45.9998 48.3088) scale(39.7581 36.7484)">
<stop stop-color="#FFB900"/>
<stop offset="0.6" stop-color="#F95D8F"/>
<stop offset="0.9991" stop-color="#F95353"/>
</radialGradient>
</defs>
</svg>
