<svg width="92" height="92" viewBox="0 0 92 92" fill="none" xmlns="http://www.w3.org/2000/svg">
<path d="M27.5946 59.6943C27.118 58.253 26.7441 56.7798 26.4756 55.2857C26.1714 53.4398 26.011 51.5731 25.9961 49.7023C26.0051 47.085 26.289 44.4758 26.8432 41.9179C27.0159 41.149 27.2125 40.3833 27.3963 39.6177C28.0352 37.5339 28.8634 35.513 29.8708 33.5803C32.7144 28.267 36.6786 24.0567 42.1405 21.4001C47.1149 18.98 52.3179 18.3326 57.7223 19.7137C58.6643 19.9645 59.5756 20.3188 60.4396 20.7703C62.7702 22.0059 64.5061 23.769 65.3037 26.3377C65.8876 28.2325 65.8708 30.2616 65.2558 32.1465C64.1049 35.8421 62.0157 38.6154 57.8773 39.1589C56.8719 39.2916 56.2485 38.7146 56.3939 37.6899C56.4962 36.9738 56.8511 36.3552 57.1932 35.7302C58.4911 33.3166 59.3047 30.791 58.9515 28.0065C58.7916 26.822 58.4192 25.7207 57.5864 24.8224C56.7775 23.9256 55.8121 23.2783 54.6212 23.0161C52.2427 22.4934 49.9857 22.9298 47.791 23.8857C45.5532 24.8623 43.6766 26.3329 42.0366 28.1216C39.935 30.426 38.2957 33.1127 37.2076 36.0355C36.7453 37.1073 36.3659 38.2129 36.0728 39.3427C35.3282 42.0649 34.8928 44.8622 34.7748 47.6819C34.6709 49.7215 34.6725 51.7596 34.9698 53.7864C35.1728 55.1739 35.4366 56.5453 35.9289 57.8625C37.3467 62.0744 39.778 65.3832 44.1673 66.8426C47.0877 67.8144 50.0225 67.5731 52.8789 66.5437C56.7919 65.1322 59.7603 62.5028 62.15 59.1604C63.0768 57.8618 63.8994 56.4919 64.61 55.0636C64.6507 54.9863 64.6961 54.9116 64.7459 54.8398C64.9473 54.5409 65.1679 54.2611 65.585 54.3395C66.0278 54.421 66.2516 54.7231 66.3603 55.1387C66.5393 55.8356 66.3747 56.5038 66.2005 57.1655C65.6714 59.1652 64.6803 60.9459 63.5438 62.653C62.652 63.9467 61.6595 65.168 60.5755 66.3055C59.1369 67.6786 57.6184 68.9478 55.892 69.9516C55.1177 70.4053 54.317 70.8126 53.4943 71.1712C50.363 72.5187 47.1005 72.8816 43.723 72.5683C41.3013 72.3429 39.0315 71.6364 36.8496 70.6181C35.8866 70.0917 34.9582 69.5044 34.0699 68.8598C33.0245 68.1006 32.1438 67.1591 31.3078 66.1808C29.7447 64.3156 28.5234 62.1889 27.7 59.8989C27.6617 59.827 27.6265 59.7614 27.5946 59.6943Z" fill="url(#paint0_linear_2287_132)"/>
<defs>
<linearGradient id="paint0_linear_2287_132" x1="46.2169" y1="18.998" x2="59.5" y2="73.001" gradientUnits="userSpaceOnUse">
<stop stop-color="#02C4CC"/>
<stop offset="1" stop-color="#13A4D5"/>
</linearGradient>
</defs>
</svg>
