<svg fill="none" height="48" viewBox="0 0 214 48" width="214" xmlns="http://www.w3.org/2000/svg"><g fill="#ff3008"><path d="m62.0484 19.0474v10.9237h2.7236c.6951-.0104 1.381-.16 2.0173-.4401.6362-.28 1.2098-.6849 1.6869-1.1905.9791-1.0366 1.5148-2.4145 1.493-3.8403.0208-.7082-.0986-1.4135-.3512-2.0754-.2527-.6619-.6336-1.2673-1.121-1.7815-.479-.5064-1.0566-.9093-1.6973-1.184-.6406-.2747-1.3307-.4153-2.0277-.4132h-2.7222zm2.7236-3.425c5.0764 0 8.9167 3.9334 8.9167 8.8778 0 4.9445-3.8403 8.9-8.9167 8.9h-6.0069c-.0573-.0007-.1139-.0127-.1665-.0353s-.1003-.0553-.1403-.0963-.0715-.0895-.0927-.1427c-.0213-.0532-.0318-.1101-.0311-.1673v-16.8764c0-.2445.1931-.4431.4306-.4431zm22.0014 14.7292c2.3056.007 4.3875-1.4111 5.275-3.593.4347-1.0661.5509-2.2354.3345-3.3662s-.7562-2.1745-1.5539-3.0047c-.7838-.8165-1.7968-1.3761-2.9053-1.6047s-2.2602-.1156-3.3031.3242c-2.1305.9-3.5222 3.0291-3.5264 5.393 0 3.2222 2.5389 5.8361 5.6806 5.8514zm.0014-15.1319c5.343 0 9.4278 4.2111 9.4278 9.2805 0 5.0695-4.0848 9.2806-9.4292 9.2806-5.3431 0-9.3931-4.1903-9.3931-9.2806s4.0848-9.2805 9.3931-9.2805zm22.4072 15.1319c3.143-.0083 5.686-2.625 5.683-5.8472-.004-3.225-2.553-5.8361-5.694-5.8375-3.145 0-5.695 2.6097-5.699 5.8333 0 1.5528.601 3.0417 1.672 4.1389.524.5407 1.152.9709 1.845 1.265.693.2942 1.438.4463 2.191.4475zm-.002-15.1319c5.327 0 9.411 4.1902 9.411 9.2805s-4.101 9.2806-9.411 9.2806c-5.308 0-9.4274-4.1903-9.4274-9.2806s4.0844-9.2805 9.4274-9.2805zm21.87 3.8277h-3.84v4.7014h3.84c.303.0135.606-.0354.89-.1436s.542-.2735.76-.4855c.444-.4306.697-1.0278.703-1.6556.011-.3185-.043-.6359-.157-.9333-.115-.2974-.288-.5686-.51-.7972-.218-.2251-.481-.402-.771-.5195-.29-.1174-.602-.1728-.915-.1625zm-7.556-2.9652c0-.2445.195-.4431.432-.4431h7.231c3.447 0 5.941 2.5903 5.941 5.8431.027 2.2-1.175 4.2208-3.093 5.2055l3.335 6.0459c.046.0694.072.1504.075.2337.003.0834-.017.1659-.058.2385-.04.0714-.1.1298-.173.1682-.072.0384-.154.0552-.236.0484h-2.926c-.081.0012-.161-.0206-.23-.0629-.07-.0423-.126-.1033-.162-.1759l-3.214-5.9834h-3.22v5.7445c.001.0574-.01.1144-.031.1677-.021.0534-.053.102-.093.1432-.04.0411-.087.074-.14.0967s-.11.0347-.167.0354h-2.819c-.058-.0007-.114-.0127-.167-.0354s-.101-.0556-.141-.0967c-.04-.0412-.071-.0898-.092-.1432-.021-.0533-.032-.1103-.031-.1677l-.019-16.8611zm23.288 3.0486v10.925h2.722c.695-.0094 1.381-.1581 2.017-.4372.637-.2791 1.211-.683 1.689-1.1878.979-1.0354 1.516-2.4123 1.495-3.8375.023-.7091-.096-1.4155-.348-2.0786-.252-.6632-.632-1.2699-1.12-1.7853-.48-.5072-1.058-.9106-1.7-1.1854-.642-.2747-1.333-.4149-2.032-.4118zm2.722-3.4292c5.076 0 8.917 3.9375 8.917 8.8917 0 4.9541-3.841 8.8916-8.917 8.8916h-5.989c-.057-.0007-.114-.0127-.167-.0354-.052-.0227-.1-.0555-.14-.0967s-.072-.0898-.093-.1432c-.021-.0533-.031-.1103-.03-.1677v-16.875c0-.2458.193-.4445.43-.4445l5.99-.0208zm20.244 4.3445-2.107 5.8416h4.21zm-3.343 9.143-1.379 3.8889c-.027.0915-.085.1712-.163.2265s-.172.0831-.267.0791h-2.992c-.076.0071-.153-.0065-.222-.0392-.069-.0328-.128-.0835-.171-.147-.044-.0641-.07-.1385-.077-.2159-.006-.0773.007-.1551.039-.2257l6.464-16.8597c.03-.089.089-.1656.167-.2182.077-.0527.17-.0785.264-.0735h3.347c.094-.0053.187.0204.265.073.078.0527.137.1295.167.2187l6.464 16.8597c.032.0707.045.1485.038.2259-.006.0774-.033.1517-.077.2157-.043.0632-.102.1137-.171.1462s-.146.0458-.222.0386h-2.99c-.096.0041-.19-.0238-.268-.0791s-.135-.135-.163-.2265l-1.379-3.8889h-6.674zm15.374-8.7639c0-2.7916 2.353-5.2055 6.068-5.2055 2.001-.0447 3.938.7037 5.389 2.0819.044.0418.079.0922.103.1481s.037.1161.037.1769c0 .0609-.013.1211-.037.1769-.024.0559-.059.1063-.103.1481l-1.657 1.6875c-.04.041-.087.0736-.14.0959-.052.0222-.109.0337-.166.0337s-.113-.0115-.166-.0337c-.052-.0223-.1-.0549-.139-.0959-.781-.7315-1.806-1.1459-2.875-1.1625-1.486 0-2.585.8847-2.585 1.9056 0 3.3 8.782 1.3958 8.782 7.7458-.004 3.2181-2.375 5.6528-6.567 5.6528-1.164.0119-2.318-.2104-3.394-.6537-1.077-.4434-2.053-1.0986-2.871-1.9269-.044-.0418-.079-.0922-.103-.148-.024-.0559-.037-.1161-.037-.177 0-.0608.013-.121.037-.1769s.059-.1063.103-.1481l1.603-1.6444c.04-.043.088-.0773.142-.1008.054-.0234.112-.0355.17-.0355.059 0 .117.0121.171.0355.054.0235.102.0578.142.1008 1.009.9999 2.367 1.5677 3.787 1.5833 1.857 0 3.081-1.0167 3.081-2.2903 0-3.3014-8.778-1.3958-8.778-7.7472zm28.436-4.3653v6.6723h-7.433v-6.6723c0-.0572-.01-.1141-.031-.1673-.022-.0532-.053-.1017-.093-.1427s-.088-.0737-.14-.0963c-.053-.0226-.11-.0346-.167-.0353h-2.819c-.058.0007-.114.0127-.167.0353-.052.0226-.1.0553-.14.0963s-.072.0895-.093.1427-.032.1101-.031.1673v16.857c0 .2444.195.443.431.443h2.819c.236 0 .431-.1986.431-.443v-6.7778h7.428v6.7778c0 .2444.194.443.43.443h2.82c.237 0 .43-.1986.43-.443v-16.857c.001-.0572-.01-.1141-.031-.1673s-.053-.1017-.093-.1427-.087-.0737-.14-.0963-.109-.0346-.166-.0353h-2.82c-.115.0029-.224.0509-.303.1336-.08.0826-.123.1933-.122.308z"/><path d="m42.5081 17.8681c-1.9555-3.625-5.7819-5.8819-9.943-5.868h-31.48335c-.212618.0008-.420279.0642-.597111.1823-.176832.118-.315016.2855-.3973357.4816-.08111602.1947-.1022422.4093-.0606727.6161.0415695.2069.1439424.3966.2940064.545l6.858333 6.8055c.60556.6028 1.43055.9403 2.28889.9403h22.19444c1.5819-.0167 2.875 1.2361 2.8917 2.7958.0166 1.5598-1.2514 2.8375-2.8334 2.8528h-15.3014c-.2127.0001-.4208.0628-.5981.1804-.1774.1176-.3161.2848-.3991.4807-.0819.195-.1035.4101-.0622.6175s.1438.3977.2942.5464l6.8625 6.8111c.6093.6025 1.432.9399 2.2889.9389h6.9208c9.0042 0 15.8125-9.5 10.7819-18.9305"/></g></svg>