<svg width="164" height="48" viewBox="0 0 164 48" fill="none" xmlns="http://www.w3.org/2000/svg">
<g id="Company logo" clip-path="url(#clip0_202_13571)">
<g id="Vector">
<path d="M45.8503 14.0131H53.4725C58.3318 14.0131 62.346 16.8247 62.346 23.2442V24.5931C62.346 31.0613 58.5918 33.9704 53.6187 33.9704H45.8503V14.0131ZM50.1083 17.6373V30.33H53.375C56.1378 30.33 57.9905 28.526 57.9905 24.5118V23.4555C57.9905 19.4412 56.0403 17.6373 53.2287 17.6373H50.1083ZM64.605 17.8323H68.0179L68.5705 21.5865C69.2206 19.0349 70.8783 17.6698 73.8849 17.6698H74.9413V21.9765H73.186C69.7244 21.9765 68.8793 23.1792 68.8793 26.5921V34.0192H64.67V17.8323H64.605ZM75.7864 26.2508V25.7957C75.7864 20.3838 79.248 17.426 83.9611 17.426C88.7716 17.426 92.1358 20.3838 92.1358 25.7957V26.2508C92.1358 31.5652 88.8691 34.4255 83.9611 34.4255C78.7442 34.3767 75.7864 31.5814 75.7864 26.2508ZM87.829 26.202V25.7957C87.829 22.7891 86.3176 20.9852 83.9123 20.9852C81.5558 20.9852 79.9956 22.6429 79.9956 25.7957V26.202C79.9956 29.1111 81.507 30.7688 83.9123 30.7688C86.3176 30.7201 87.829 29.1111 87.829 26.202ZM94.346 17.8323H97.8564L98.2627 20.8877C99.1078 18.8399 100.912 17.426 103.577 17.426C107.689 17.426 110.403 20.3838 110.403 25.8607V26.3158C110.403 31.6302 107.396 34.4417 103.577 34.4417C101.026 34.4417 99.2703 33.2879 98.409 31.4351V39.6098H94.2973L94.346 17.8323ZM106.129 26.202V25.8445C106.129 22.6266 104.471 21.0339 102.261 21.0339C99.9042 21.0339 98.344 22.8379 98.344 25.8445V26.1533C98.344 29.0136 99.8554 30.8176 102.212 30.8176C104.633 30.7688 106.129 29.2249 106.129 26.202ZM116.627 31.0288L116.27 33.9867H112.662V12.4204H116.774V20.6926C117.684 18.5799 119.488 17.426 122.039 17.426C125.907 17.4748 128.768 20.1401 128.768 25.5032V26.007C128.768 31.3701 126.053 34.4417 121.942 34.4417C119.228 34.3767 117.472 33.1253 116.627 31.0288ZM124.445 26.007V25.6007C124.445 22.6429 122.836 20.9852 120.577 20.9852C118.269 20.9852 116.66 22.8379 116.66 25.6495V26.007C116.66 29.0136 118.22 30.7688 120.528 30.7688C122.998 30.7688 124.445 29.2249 124.445 26.007ZM130.572 26.2508V25.7957C130.572 20.3838 134.033 17.426 138.746 17.426C143.557 17.426 146.921 20.3838 146.921 25.7957V26.2508C146.921 31.5652 143.606 34.4255 138.746 34.4255C133.529 34.3767 130.572 31.5814 130.572 26.2508ZM142.647 26.202V25.7957C142.647 22.7891 141.135 20.9852 138.73 20.9852C136.373 20.9852 134.813 22.6429 134.813 25.7957V26.202C134.813 29.1111 136.325 30.7688 138.73 30.7688C141.152 30.7201 142.647 29.1111 142.647 26.202ZM152.43 25.6007L146.758 17.8323H151.618L154.884 22.6916L158.2 17.8323H163.01L157.257 25.5519L163.319 33.9867H158.557L154.852 28.6236L151.244 33.9867H146.271L152.43 25.6007Z" fill="black"/>
</g>
<path id="Vector_2" d="M19.6523 14.0132L10.2262 20.0264L19.6523 26.0396L10.2262 32.0528L0.800049 26.0071L10.2262 19.9939L0.800049 14.0132L10.2262 8L19.6523 14.0132ZM10.1774 33.9868L19.6035 27.9736L29.0296 33.9868L19.6035 40L10.1774 33.9868ZM19.6523 26.0071L29.0784 19.9939L19.6523 14.0132L29.0296 8L38.4557 14.0132L29.0296 20.0264L38.4557 26.0396L29.0296 32.0528L19.6523 26.0071Z" fill="#0061FF"/>
</g>
<defs>
<clipPath id="clip0_202_13571">
<rect width="163" height="48" fill="white" transform="translate(0.800049)"/>
</clipPath>
</defs>
</svg>
