<svg width="32" height="32" viewBox="0 0 32 32" fill="none" xmlns="http://www.w3.org/2000/svg">
<path d="M16 2C8.27812 2 2 8.27812 2 16C2 23.7219 8.27812 30 16 30C23.7219 30 30 23.7219 30 16C30 8.27812 23.7219 2 16 2Z" fill="#81B441"/>
<path d="M21.0378 7.96765C14.25 8.41669 12.2005 14.7493 12.0269 17.9891C12.0269 18.5221 10.3152 17.4432 11.3333 12.7917C11.4206 12.3929 11.3333 11.9167 11.3333 11.9167C7.79849 15.0259 8.10246 20.9046 12.448 23.2946C15.8165 25.1473 20.1956 23.9683 22.1326 20.5155C24.4063 16.5575 22.3852 8.72558 21.0378 7.96765Z" fill="white"/>
</svg>
