<svg fill="none" height="20" viewBox="0 0 71 20" width="71" xmlns="http://www.w3.org/2000/svg"><path d="m5.33403 6.04434c.00002-.49577.17179-.97623.48612-1.35966.31435-.38344.75184-.64618 1.23807-.74355l4.50348-.89966c.3111-.06207.6321-.05438.9399.02252.3077.07689.5946.22108.8399.42218.2453.20109.4429.45408.5786.74073.1357.28666.2062.59983.2062.91698v.02573c-.0008.49501-.173.97448-.4873 1.357-.3143.3825-.7513.64445-1.2369.74139l-2.67233.53464v1.7575c-.00002.49576-.17179.97626-.48612 1.35966-.31436.3834-.75185.6462-1.23808.7436l-5.34388 1.0684c-.48623.0971-.9238.3596-1.23817.743-.31438.3833-.486133.8637-.48602 1.3595v.0217c.000026.3172.07046.6305.20621.9172.13576.2867.33347.5397.57886.7408.2454.2011.53237.3453.84023.4221.30786.0769.62893.0845.94008.0223l.10616-.0209c.48639-.0973.92405-.3599 1.23856-.7434.3145-.3834.48639-.864.48643-1.3598z" stroke="#fff" stroke-miterlimit="10" stroke-width="1.44743"/><g fill="#fff"><path d="m18.5229 14.3906v-8.78269h5.5489v1.62323h-3.8392v2.17075h3.4194v1.57261h-3.4073v3.4161z"/><path d="m24.7908 14.3906v-8.78269h1.6478v8.78269z"/><path d="m33.5379 11.3426c0 1.8709-1.3752 3.2336-3.1967 3.2336-1.8214 0-3.1967-1.3627-3.1967-3.2336 0-1.87086 1.3753-3.23199 3.1967-3.23199 1.8215 0 3.1967 1.34989 3.1967 3.23199zm-1.6477 0c0-1.1513-.744-1.73336-1.549-1.73336s-1.5488.58206-1.5488 1.73336.7438 1.7342 1.5488 1.7342 1.549-.5821 1.549-1.7342z"/><path d="m39.274 8.29619 1.3101 3.92581 1.1259-3.92581h1.6349l-1.9074 6.09421h-1.6431l-1.425-4.1622-1.4001 4.1622h-1.6727l-1.9454-6.09421h1.7346l1.126 3.91381 1.3276-3.91381z"/><path d="m43.7824 14.3906v-8.78269h1.6268v3.35661c.2727-.43333.9417-.8297 1.8497-.8297 1.7837 0 2.8146 1.37562 2.8146 3.18378 0 1.8491-1.1395 3.2199-2.8741 3.2199-.8429 0-1.487-.3714-1.8087-.8916v.7437zm3.1219-4.78127c-.83 0-1.5231.60697-1.5231 1.72127 0 1.1023.6931 1.7342 1.5231 1.7342.8427 0 1.5119-.619 1.5119-1.7342 0-1.1151-.6692-1.72127-1.5119-1.72127z"/><path d="m55.0068 13.5601c-.2597.5821-.892 1.0034-1.7098 1.0034-1.7966 0-2.9852-1.3997-2.9852-3.2449 0-1.784 1.1645-3.19578 2.9363-3.19578 1.0904 0 1.5978.58208 1.7465.9286v-.75494h1.5981v4.99272c0 .5451.0377.9648.0498 1.1031h-1.5731c-.0403-.25-.0612-.5026-.0626-.7558zm-1.5112-.4204c.855 0 1.499-.7067 1.499-1.8211 0-1.1143-.632-1.7687-1.499-1.7687-.8798 0-1.5238.656-1.5238 1.7687 0 1.1023.6321 1.8211 1.5238 1.8211z"/><path d="m58.6489 12.3838c.037.4823.3965.9286 1.1154.9286.5453 0 .8042-.2846.8042-.607 0-.2726-.1857-.4953-.6562-.5942l-.8041-.1857c-1.1767-.2605-1.7098-.9648-1.7098-1.821 0-1.09022.9651-1.99389 2.2799-1.99389 1.7346 0 2.3169 1.10226 2.3909 1.75831l-1.3753.30958c-.0489-.35862-.3095-.81689-1.0035-.81689-.4335 0-.7802.25968-.7802.60699 0 .2967.2228.4824.5575.5443l.8676.1857c1.2015.2485 1.8087.9793 1.8087 1.8709 0 .9905-.768 2.0099-2.3668 2.0099-1.8335 0-2.4656-1.189-2.5396-1.8829z"/><path d="m68.3129 12.6459c-.3103 1.0532-1.2762 1.9295-2.7752 1.9295-1.6728 0-3.1477-1.2019-3.1477-3.2577 0-1.94482 1.4372-3.20786 2.9988-3.20786 1.8826 0 3.0102 1.20114 3.0102 3.15806 0 .2355-.0241.4824-.0241.5081h-4.3612c.037.804.7181 1.3868 1.536 1.3868.768 0 1.1895-.3834 1.3872-.9285zm-1.5368-1.9939c-.025-.607-.4214-1.20595-1.3672-1.20595-.8548 0-1.3252.64315-1.3623 1.20595z"/><path d="m68.9553 4.81857v.7887h-.2645v-.7887h-.2919v-.23556h.8451v.23556zm1.3841.7887v-.62309l-.2501.62309h-.1907l-.2525-.61424v.61424h-.2557v-1.02426h.3595l.25.60057.2413-.60057h.3538v1.02426z"/></g></svg>