<svg fill="none" height="48" viewBox="0 0 175 48" width="175" xmlns="http://www.w3.org/2000/svg"><g clip-rule="evenodd" fill="#231f20" fill-rule="evenodd"><path d="m79.9288 30.0566c-1.2205.2815-1.8518-.094-1.8518-.9024 0-1.1076 1.1452-1.551 2.7813-1.551.7196 0 1.3985.0621 1.3985.0621 0 .4742-1.0303 2.0921-2.328 2.3913zm1.2418-11.0893c-3.9067 0-6.7116 1.4366-6.7116 1.4366v4.2232s3.0968-1.7803 5.6092-1.7803c2.0043 0 2.2508 1.0815 2.1599 1.9787 0 0-.5786-.153-2.3427-.153-4.1584 0-6.2567 1.8899-6.2567 4.9198 0 2.8743 2.3584 4.0754 4.3459 4.0754 2.8994 0 4.1746-1.9489 4.5658-2.8732.2721-.6413.3222-1.0737.5655-1.0737.2794 0 .1854.3102.1713.9483-.0229 1.1181.0303 1.9631.2074 2.6754h3.845v-6.9163c0-4.3182-1.528-7.4609-6.159-7.4609z"/><path d="m106.478 26.3248c0-1.2632 1.174-2.4137 3.33-2.4137 2.348 0 4.238 1.1311 4.662 1.3881v-4.889s-1.493-1.4372-5.161-1.4372c-3.867 0-7.088 2.2628-7.088 7.1335 0 4.8702 2.923 7.5712 7.077 7.5712 3.246 0 5.18-1.7834 5.18-1.7834v-4.6431c-.612.3421-2.317 1.5259-4.646 1.5259-2.467 0-3.354-1.1347-3.354-2.4518zm-51.3917-7.0317c.0005.0032.2454 1.0539-.0773 2.4278-.1645.6988-.4669 1.293-.1019 1.293.2517 0 .2523-.2089.5797-.9577.4789-1.0946 1.4883-3.0869 3.8472-3.0869 2.2424 0 3.2989 1.3625 3.6487 2.6383.2664.9692.0335 1.4063.3583 1.4063.2308 0 .3107-.5029.5948-1.1389.5102-1.1395 1.6199-2.9057 3.8644-2.9057 3.3866 0 4.6796 2.4456 4.6796 6.1142v8.2662h-5.031v-7.6207c0-1.2706-.2053-2.503-1.3636-2.503-1.0731 0-1.5734 1.9019-1.5734 3.1296v6.9972h-5.1235v-7.6233c0-1.6257-.2293-2.503-1.3719-2.503-.9891 0-1.5661 1.7499-1.5661 3.1296v6.9941h-5.1031v-14.0571zm33.9181.0193c.0021.0011.8706.5019 2.5563.5019 1.6888 0 2.5463-.5019 2.5463-.5019v14.041h-5.1026zm42.1266 0c.002.0011.871.5019 2.557.5019 1.688 0 2.546-.5019 2.546-.5019v14.041h-5.103zm-30.27-4.2748v18.3158h-5.1027v-18.3158zm19.673 0c.001.0015.212.5279.212 2.0935 0 2.3119-.503 4.1935-.741 4.9105-.125.3796-.35.9655-.028.976.186.0057.298-.2742.526-.7598.226-.4862 1.35-3.2853 4.304-3.2853 4.068 0 4.667 3.3317 4.667 6.9398v7.4405h-5.103v-7.746c0-1.5886-.333-2.3777-1.398-2.3777-1.286 0-1.74 1.9907-1.74 3.1302v6.9935h-5.103v-18.3158h4.405zm21.163 4.2555c.001.0032.246 1.0539-.077 2.4278-.164.6988-.467 1.293-.102 1.293.252 0 .253-.2089.58-.9577.478-1.0946 1.488-3.0869 3.847-3.0869 2.345 0 3.275 1.3688 3.649 2.6383.251.8507.033 1.4063.358 1.4063.231 0 .311-.5029.595-1.1389.509-1.1395 1.62-2.9057 3.864-2.9057 3.387 0 4.68 2.4456 4.68 6.1142v8.2662h-5.031v-7.6207c0-1.2706-.205-2.503-1.364-2.503-1.073 0-1.574 1.9019-1.574 3.1296v6.9972h-5.123v-7.6233c0-1.6257-.228-2.503-1.371-2.503-.99 0-1.567 1.7499-1.567 3.1296v6.9941h-5.103v-14.0571zm-50.1567-4.3976c-1.7244 0-3.1234.9129-3.1234 2.0388s1.3985 2.0387 3.1234 2.0387c1.7254 0 3.1239-.9128 3.1239-2.0387s-1.398-2.0388-3.1239-2.0388zm42.1277 0c-1.725 0-3.124.9129-3.124 2.0388s1.398 2.0387 3.124 2.0387c1.725 0 3.124-.9128 3.124-2.0387s-1.399-2.0388-3.124-2.0388z"/><path d="m167.783 30.3245c-1.169 0-2.03-1.4836-2.03-3.5511 0-2.0079.884-3.5501 1.99-3.5501 1.419 0 2.025 1.3019 2.025 3.5501 0 2.339-.559 3.5511-1.985 3.5511zm1.4-11.3599c-2.622 0-3.824 1.9662-4.347 3.0864-.345.74-.326.9577-.579.9577-.364 0-.062-.5943.102-1.293.324-1.376.078-2.4273.078-2.4273h-3.737v17.9346h5.101v-5.6859c.603 1.0241 1.721 2.1181 3.445 2.1181 3.69 0 5.546-3.1213 5.546-7.3382 0-4.7794-2.222-7.3524-5.608-7.3524"/><path d="m33.3113 23.2091c.3431-.0407.6716-.0428.974 0 .1749-.401.2047-1.0919.0475-1.8445-.2334-1.1186-.5499-1.7953-1.2037-1.6899-.6539.1055-.6779.916-.4439 2.0341.1316.6293.3655 1.1672.6261 1.5003z"/><path d="m27.7001 24.0943c.4674.2052.7551.3415.8674.2224.0726-.0741.0506-.2156-.0611-.3979-.2308-.3765-.7055-.7588-1.2095-.9734-1.0298-.4434-2.2586-.2961-3.2064.3849-.3128.2292-.6094.5467-.5671.7394.0135.0622.0605.1092.1702.1248.258.0293 1.1593-.4261 2.198-.4898.7327-.0449 1.34.1843 1.8079.3896"/><path d="m26.7595 24.6311c-.6094.0961-.9452.2972-1.1608.4836-.1839.1608-.2977.3389-.2967.4637.0006.0596.0261.094.0465.1113.0277.0245.0606.0381.1003.0381.1373 0 .446-.1238.446-.1238.8475-.3034 1.4068-.2663 1.9609-.2036.306.0344.4512.0532.518-.0517.0199-.0303.0439-.0956-.0172-.1948-.1426-.2314-.7577-.6225-1.5964-.5228"/><path d="m31.4167 26.6015c.4136.2031.869.1232 1.0173-.1781s-.0669-.7108-.4805-.9139-.8689-.1232-1.0172.1781c-.1484.3018.0668.7107.4804.9139z"/><path d="m34.0753 24.2781c-.3358-.0057-.6146.363-.6225.8241-.0078.4611.2585.8387.5943.8444s.6147-.3629.6225-.8241c.0078-.4606-.2585-.8386-.5943-.8444z"/><path d="m11.5086 32.5861c-.0835-.105-.2208-.0731-.354-.0418-.093.022-.1979.046-.3133.0444-.2471-.0047-.4565-.1102-.574-.2909-.153-.235-.1441-.5854.0246-.9864l.0788-.1797c.2695-.6047.7202-1.6163.2141-2.5803-.3812-.7259-1.00262-1.1776-1.74991-1.2726-.71753-.0909-1.45595.1749-1.92699.6945-.74312.8199-.85958 1.9359-.71597 2.3302.05275.1441.13526.1843.19479.1927.12638.0167.31333-.0752.43031-.3901l.03342-.1024c.05222-.1666.14936-.4768.30863-.7253.19218-.2998.49089-.5061.84182-.5818.3572-.0768.72276-.0084 1.02878.1922.52065.3405.72118.9786.49872 1.587-.11489.3149-.30185.917-.26059 1.4116.08355 1.0011.69924 1.4032 1.25229 1.446.5379.0204.9139-.282 1.0089-.5024.0559-.1305.0089-.2099-.0219-.2439"/><path d="m16.6222 14.1987c1.7547-2.0272 3.9141-3.7897 5.8489-4.7793.0668-.03447.1378.03812.1018.10392-.1535.27834-.4496.87418-.5431 1.32588-.0146.0705.0622.1233.1217.0831 1.2037-.8204 3.2973-1.69986 5.1339-1.81266.0789-.0047.117.09609.0543.14466-.2794.21411-.5848.51073-.8078.8105-.0382.0512-.0021.1243.0616.1248 1.2893.0094 3.1072.4606 4.2921 1.1254.0799.0449.023.2-.0668.1796-1.7928-.411-4.7272-.7227-7.7759.0209-2.7213.6638-4.7987 1.6889-6.3136 2.7907-.0768.0559-.1687-.0454-.1066-.1169zm8.7378 19.6418.0005.001.0011.0021zm7.2348.8538c.0523-.0219.0878-.081.082-.14-.0073-.0725-.0721-.1253-.1446-.118 0 0-3.7438.5541-7.2808-.7405.3854-1.2523 1.4094-.8 2.9578-.6752 2.7908.1666 5.2922-.2413 7.1409-.7719 1.6016-.4595 3.7056-1.3661 5.3397-2.656.5509 1.2105.7457 2.5432.7457 2.5432s.4266-.0762.7833.1431c.3368.2074.5839.6382.4152 1.7526-.3436 2.0816-1.2283 3.7715-2.7156 5.3261-.9055.9745-2.0042 1.8215-3.2617 2.4377-.668.351-1.3787.6544-2.1302.8993-5.6065 1.8314-11.3457-.1817-13.1954-4.5047-.1478-.3248-.2726-.6653-.3708-1.0209-.788-2.8487-.1191-6.2666 1.9729-8.4182v-.001c.129-.1368.2606-.2982.2606-.5014 0-.1697-.1081-.3488-.2015-.4762-.7322-1.0617-3.2676-2.8707-2.7584-6.3716.3656-2.515 2.5651-4.2864 4.6159-4.1814l.5196.0297c.8888.0528 1.6638.1666 2.3954.1974 1.2246.0533 2.3255-.1248 3.63-1.2115.4397-.3666.7927-.6846 1.3896-.7854.0627-.011.2188-.0669.5306-.0523.3185.0173.6214.1045.8935.2857 1.0455.6956 1.1938 2.3808 1.2481 3.6132.0308.7035.1159 2.4059.1452 2.8947.0663 1.1175.3603 1.2747.9546 1.4706.3342.1102.6444.1921 1.1019.3206 1.3839.3885 2.2043.7828 2.7218 1.2894.3086.3164.4522.6527.4966.9734.1629 1.1906-.9243 2.6612-3.8033 3.9976-3.1469 1.4606-6.9649 1.8304-9.6026 1.5363l-.9243-.1044c-2.1098-.2841-3.3135 2.4424-2.0471 4.3109.8162 1.2043 3.0393 1.9876 5.2634 1.9881 5.0995.0005 9.0193-2.1771 10.4773-4.0576l.1165-.1661c.072-.1081.0125-.1676-.0768-.1065-1.1912.8152-6.4823 4.0513-12.1421 3.0774 0 0-.6878-.1133-1.3155-.3572-.4987-.1943-1.5431-.6747-1.67-1.7458 4.5673 1.4126 7.4431.0773 7.4431.0773zm-25.08687-10.8543c-1.58859.3086-2.98866 1.2089-3.84458 2.4528-.51178-.4266-1.46483-1.2528-1.63351-1.575-1.366645-2.5954 1.49146-7.6411 3.48843-10.4909 4.93493-7.04208 12.66383-12.37238 16.24153-11.40523.5818.1645 2.5082 2.39803 2.5082 2.39803s-3.5766 1.98444-6.8933 4.75063c-4.4691 3.44087-7.84422 8.44217-9.86677 13.86967zm2.66907 11.9092c-.24023.0412-.48567.0574-.7332.0512-2.3902-.0643-4.97153-2.2158-5.22794-4.7674-.28357-2.8205 1.15776-4.9908 3.70932-5.5057.30498-.0617.67366-.0972 1.07107-.0763 1.42985.0783 3.53645 1.176 4.01745 4.2906.4261 2.7583-.2507 5.5663-2.8367 6.0071zm32.3755-4.9945c-.0204-.0726-.154-.5598-.3373-1.1473-.1833-.5881-.3729-1.0011-.3729-1.0011.7353-1.1004.7483-2.0847.6502-2.642-.1045-.6908-.3922-1.2794-.9719-1.8883-.5797-.6084-1.7656-1.2319-3.432-1.6998l-.8742-.2429c-.0042-.036-.046-2.0612-.0836-2.9306-.0277-.6288-.0814-1.61-.3859-2.5762-.3629-1.3081-.9948-2.4528-1.7839-3.185 2.1777-2.257 3.537-4.74381 3.5333-6.87656-.0062-4.10203-5.0441-5.34334-11.2527-2.77246l-1.3155.55826c-.0058-.00575-2.3782-2.33328-2.4137-2.36461-7.0787-6.1742-29.21036 18.42597-22.13481 24.40067l1.5463 1.3103c-.40107 1.0392-.55878 2.2299-.42979 3.5098.16502 1.6445 1.01311 3.2205 2.38811 4.4384 1.30503 1.1562 3.02103 1.8883 4.68587 1.8867 2.75362 6.3455 9.04532 10.2381 16.42222 10.4575 7.9132.235 14.5558-3.478 17.3393-10.1478.1822-.4679.9546-2.5771.9546-4.4394 0-1.8711-1.058-2.6466-1.7317-2.6466"/></g></svg>