<svg width="92" height="92" viewBox="0 0 92 92" fill="none" xmlns="http://www.w3.org/2000/svg">
<path d="M65.3535 32.0898C65.3021 32.4188 65.2432 32.7551 65.1771 33.1006C62.9039 44.7716 55.1269 48.8034 45.1943 48.8034H40.137C38.9223 48.8034 37.8988 49.6855 37.7095 50.8837L35.1202 67.305L34.387 71.9599C34.3578 72.1445 34.3689 72.3333 34.4197 72.5132C34.4704 72.6931 34.5595 72.8599 34.6809 73.0021C34.8023 73.1442 34.9531 73.2584 35.1228 73.3367C35.2925 73.415 35.4772 73.4556 35.6642 73.4557H44.6338C45.696 73.4557 46.5983 72.6839 46.7655 71.6364L46.8537 71.1807L48.5425 60.4634L48.651 59.8754C48.8163 58.8242 49.7205 58.0524 50.7826 58.0524H52.1241C60.8145 58.0524 67.6175 54.5241 69.6059 44.314C70.4365 40.0488 70.0065 36.4874 67.8086 33.9826C67.112 33.2078 66.2801 32.5664 65.3535 32.0898Z" fill="#179BD7"/>
<path d="M62.977 31.1418C62.2512 30.9318 61.5128 30.7679 60.7663 30.6511C59.2912 30.4244 57.8005 30.3157 56.3081 30.3259H42.7976C42.2834 30.3255 41.7861 30.509 41.3955 30.8434C41.0048 31.1777 40.7467 31.6407 40.6677 32.1488L37.7936 50.3527L37.7109 50.8838C37.8005 50.3043 38.0945 49.776 38.5397 49.3944C38.985 49.0129 39.5521 48.8033 40.1385 48.8036H45.1958C55.1283 48.8036 62.9053 44.7699 65.1785 33.1007C65.2465 32.7552 65.3035 32.419 65.355 32.09C64.7551 31.7755 64.13 31.5117 63.486 31.3017C63.3172 31.2456 63.1475 31.1923 62.977 31.1418Z" fill="#222D65"/>
<path d="M40.6672 32.1482C40.7455 31.64 41.0034 31.1767 41.3943 30.8425C41.7851 30.5084 42.2828 30.3255 42.797 30.3271H56.3075C57.9081 30.3271 59.4022 30.4318 60.7657 30.6523C61.6884 30.7973 62.5984 31.0142 63.4873 31.301C64.1581 31.5234 64.781 31.7862 65.3562 32.0894C66.0325 27.7764 65.3507 24.8398 63.0187 22.1807C60.4478 19.2533 55.8077 18 49.8702 18H32.6329C31.42 18 30.3854 18.8821 30.198 20.0821L23.0182 65.5919C22.9848 65.8032 22.9975 66.0192 23.0555 66.2251C23.1135 66.431 23.2154 66.6219 23.3543 66.7847C23.4931 66.9474 23.6655 67.0782 23.8597 67.1679C24.0539 67.2577 24.2652 67.3043 24.4792 67.3046H35.1211L37.793 50.3521L40.6672 32.1482Z" fill="#253B80"/>
</svg>
