<svg width="92" height="92" viewBox="0 0 92 92" fill="none" xmlns="http://www.w3.org/2000/svg">
<path fill-rule="evenodd" clip-rule="evenodd" d="M30.9988 22.6246L46.4976 21.001L61.9975 22.6246L73.9974 38.5865L46.4987 70.3184L19 38.5865L30.9988 22.6246Z" fill="#FDB300"/>
<path fill-rule="evenodd" clip-rule="evenodd" d="M30.1387 38.7793L46.4987 70.3192L19 38.7793H30.1387Z" fill="#EA6C00"/>
<path fill-rule="evenodd" clip-rule="evenodd" d="M62.8623 38.7793L46.5013 70.3192L74 38.7793H62.8623Z" fill="#EA6C00"/>
<path fill-rule="evenodd" clip-rule="evenodd" d="M29.8867 38.7793H62.5416L46.2141 70.3192L29.8867 38.7793Z" fill="#FDAD00"/>
<path fill-rule="evenodd" clip-rule="evenodd" d="M45.9278 21.001L30.7305 22.642L29.8867 38.7785L45.9278 21.001Z" fill="#FDD231"/>
<path fill-rule="evenodd" clip-rule="evenodd" d="M46.4941 21.001L61.6913 22.642L62.5352 38.7785L46.4941 21.001Z" fill="#FDD231"/>
<path fill-rule="evenodd" clip-rule="evenodd" d="M74 38.779L61.9686 22.7217L62.832 38.779H74Z" fill="#FDAD00"/>
<path fill-rule="evenodd" clip-rule="evenodd" d="M19 38.7781L31.0303 22.7207L30.1669 38.7781H19Z" fill="#FDAD00"/>
<path fill-rule="evenodd" clip-rule="evenodd" d="M46.2259 21.001L29.8984 38.7785H62.5533L46.2259 21.001Z" fill="#FEEEB7"/>
</svg>
