<svg width="122" height="48" viewBox="0 0 122 48" fill="none" xmlns="http://www.w3.org/2000/svg">
<g id="Company logo" clip-path="url(#clip0_202_13570)">
<path id="Vector" d="M38.125 32.4263L39.5931 28.9949C41.2006 30.1853 43.2973 30.8154 45.3944 30.8154C46.9322 30.8154 47.9106 30.2204 47.9106 29.3101C47.8755 26.7889 38.6493 28.7498 38.5791 22.4112C38.544 19.1897 41.4101 16.7036 45.4646 16.7036C47.8755 16.7036 50.2875 17.2991 51.9997 18.6649L50.6278 22.1696C49.0524 21.1566 47.1066 20.4503 45.2546 20.4503C43.9965 20.4503 43.1574 21.0453 43.1574 21.8162C43.1925 24.3023 52.4894 22.9364 52.5942 28.9949C52.5942 32.2865 49.7978 34.5977 45.8135 34.5977C42.8782 34.5977 40.1871 33.8975 38.1245 32.4263H38.125ZM96.583 27.7523C96.2125 28.4108 95.6734 28.9588 95.0212 29.3402C94.3689 29.7216 93.627 29.9226 92.8714 29.9227C90.5166 29.9227 88.6079 28.0099 88.6079 25.6506C88.6079 23.2913 90.5166 21.3786 92.8714 21.3786C93.627 21.3787 94.3689 21.5797 95.0212 21.9611C95.6734 22.3425 96.2125 22.8905 96.583 23.549L100.665 21.2834C99.1358 18.5511 96.2197 16.7036 92.8714 16.7036C87.9398 16.7036 83.9419 20.709 83.9419 25.6506C83.9419 30.5918 87.9398 34.5977 92.8714 34.5977C96.2197 34.5977 99.1358 32.7501 100.665 30.0179L96.583 27.7523ZM55.2427 34.2473H60.3453V9.25574H55.2432L55.2427 34.2473ZM103.241 9.25574V34.2473H108.344V26.7599L114.39 34.2473H120.912L113.224 25.3524L120.353 17.0524H114.111L108.344 23.953V9.25574H103.241ZM76.0655 17.0535V19.085C75.2269 17.684 73.1648 16.7036 70.998 16.7036C66.5245 16.7036 62.9948 20.6608 62.9948 25.6331C62.9948 30.6053 66.5245 34.5977 70.998 34.5977C73.1648 34.5977 75.2269 33.6173 76.0655 32.2163V34.2473H81.1681V17.0535H76.0655ZM76.0655 27.7869C75.3317 29.0124 73.7939 29.9222 72.0817 29.9222C69.7264 29.9222 67.8177 28.0099 67.8177 25.6506C67.8177 23.2913 69.7264 21.3786 72.0817 21.3786C73.7939 21.3786 75.3317 22.3239 76.0655 23.584V27.7869Z" fill="black"/>
<path id="Vector_2" d="M11.1782 8.70361C9.52467 8.70361 8.18437 10.0469 8.18437 11.7035C8.18397 12.0971 8.2611 12.4868 8.41134 12.8506C8.56158 13.2143 8.782 13.5449 9.06001 13.8235C9.33801 14.1021 9.66817 14.3231 10.0316 14.4741C10.3951 14.6251 10.7847 14.703 11.1782 14.7034H14.1726V11.7035C14.1733 10.9086 13.8582 10.1461 13.2967 9.58348C12.7351 9.0209 11.9731 8.70441 11.1782 8.70361ZM11.1782 16.7033H3.19407C1.5405 16.7033 0.200195 18.0466 0.200195 19.7037C0.200195 21.3603 1.5405 22.7036 3.19407 22.7036H11.1787C12.8318 22.7036 14.1726 21.3603 14.1726 19.7037C14.1726 18.0466 12.8318 16.7033 11.1782 16.7033Z" fill="#36C5F0"/>
<path id="Vector_3" d="M30.141 19.7037C30.141 18.0466 28.8002 16.7033 27.1466 16.7033C25.4931 16.7033 24.1528 18.0466 24.1528 19.7037V22.7036H27.1466C27.9415 22.7028 28.7035 22.3863 29.265 21.8237C29.8266 21.2612 30.1417 20.4986 30.141 19.7037ZM22.1568 19.7037V11.7035C22.1575 10.9086 21.8424 10.1461 21.2809 9.58348C20.7193 9.0209 19.9573 8.70441 19.1625 8.70361C17.5089 8.70361 16.1686 10.0469 16.1686 11.7035V19.7032C16.1686 21.3608 17.5089 22.7041 19.1625 22.7041C19.9573 22.7033 20.7193 22.3868 21.2809 21.8242C21.8424 21.2617 22.1575 20.4991 22.1568 19.7042" fill="#2EB67D"/>
<path id="Vector_4" d="M19.1626 38.7036C19.9574 38.7028 20.7195 38.3863 21.281 37.8237C21.8425 37.2612 22.1576 36.4986 22.157 35.7037C22.1576 34.9088 21.8425 34.1463 21.281 33.5837C20.7195 33.0211 19.9574 32.7046 19.1626 32.7038H16.1687V35.7037C16.1687 37.3603 17.509 38.7036 19.1626 38.7036ZM19.1626 30.7039H27.1473C28.8003 30.7039 30.1411 29.3606 30.1411 27.7035C30.1418 26.9086 29.8267 26.1461 29.2652 25.5835C28.7036 25.0209 27.9416 24.7044 27.1468 24.7036H19.1626C17.509 24.7036 16.1687 26.0469 16.1687 27.7035C16.1683 28.0971 16.2454 28.4868 16.3957 28.8506C16.5459 29.2143 16.7663 29.5449 17.0443 29.8235C17.3224 30.1021 17.6525 30.3231 18.016 30.4741C18.3794 30.6251 18.769 30.703 19.1626 30.7034" fill="#ECB22E"/>
<path id="Vector_5" d="M0.199953 27.7035C0.199558 28.0971 0.276683 28.4868 0.426926 28.8506C0.577168 29.2143 0.797585 29.5449 1.07559 29.8235C1.3536 30.1021 1.68375 30.3231 2.0472 30.4741C2.41065 30.6251 2.80027 30.703 3.19383 30.7034C3.9887 30.7026 4.7507 30.3861 5.31224 29.8235C5.87378 29.261 6.18887 28.4984 6.18821 27.7035V24.7036H3.19383C1.54026 24.7036 0.199953 26.0469 0.199953 27.7035ZM8.18412 27.7035V35.7032C8.18412 37.3603 9.52443 38.7036 11.178 38.7036C11.9729 38.7028 12.7349 38.3863 13.2964 37.8237C13.858 37.2612 14.173 36.4986 14.1724 35.7037V27.7035C14.1728 27.3099 14.0956 26.9201 13.9454 26.5563C13.7951 26.1925 13.5746 25.8619 13.2966 25.5833C13.0185 25.3048 12.6883 25.0837 12.3248 24.9327C11.9613 24.7818 11.5716 24.7039 11.178 24.7036C9.52443 24.7036 8.18412 26.0469 8.18412 27.7035Z" fill="#E01E5A"/>
</g>
<defs>
<clipPath id="clip0_202_13570">
<rect width="121" height="48" fill="white" transform="translate(0.199951)"/>
</clipPath>
</defs>
</svg>
