<svg fill="none" height="48" viewBox="0 0 148 48" width="148" xmlns="http://www.w3.org/2000/svg"><g fill="#1ed760"><path d="m22.1466 1.92969c-12.18892 0-22.0704281 9.88121-22.0704281 22.07011 0 12.1894 9.8815081 22.0699 22.0704281 22.0699 12.1902 0 22.0706-9.8805 22.0706-22.0699 0-12.1881-9.8804-22.06906-22.0709-22.06906zm10.1213 31.83151c-.0942.1543-.2179.2885-.364.395-.1461.1064-.3118.183-.4876.2254-.1757.0423-.3581.0496-.5367.0214s-.3498-.0914-.504-.1859c-5.1819-3.1652-11.7052-3.8821-19.3877-2.1268-.3557.0808-.729.0172-1.03785-.177-.30882-.1942-.52789-.5031-.60907-.8588-.04043-.1761-.04573-.3585-.01559-.5366.03014-.1782.09513-.3486.19124-.5016s.22146-.2856.36887-.3901c.1474-.1045.314-.1789.4902-.2189 8.4072-1.9207 15.6187-1.0937 21.4363 2.4616.6483.3979.8539 1.2439.4559 1.8923zm2.7014-6.0095c-.4981.8096-1.5576 1.0653-2.3667.5672-5.9325-3.6465-14.9756-4.7025-21.9926-2.5725-.91007.2748-1.87123-.238-2.14743-1.1465-.13179-.4367-.085-.9079.13011-1.3102s.58098-.7029 1.01738-.8359c8.01534-2.432 17.97984-1.2539 24.79264 2.9326.8091.4981 1.0647 1.5573.5666 2.3653zm.2319-6.2577c-7.1132-4.225-18.849-4.6134-25.64042-2.5522-1.09057.3307-2.24386-.2849-2.57435-1.3755-.15891-.5239-.10323-1.0895.1548-1.5725.25804-.4829.6973-.8435 1.22119-1.0026 7.79608-2.3667 20.75608-1.9094 28.94558 2.9523.2334.138.4373.3208.6.5378.1626.217.2809.4639.348.7267.067.2627.0816.5361.0429.8046-.0388.2684-.1301.5265-.2687.7595-.5799.981-1.8502 1.3043-2.8279.7219z"/><path d="m60.1227 22.3035c-3.8109-.9087-4.4883-1.5465-4.4883-2.8867 0-1.2661 1.1913-2.1181 2.965-2.1181 1.7183 0 3.4208.647 5.2077 1.979.0527.0403.1212.0564.1871.0458.0332-.0047.065-.0162.0935-.0337.0286-.0175.0533-.0406.0726-.068l1.8606-2.6228c.0368-.052.0523-.1161.0435-.1791-.0088-.0631-.0413-.1204-.0909-.1604-2.1269-1.7059-4.5199-2.5353-7.3188-2.5353-4.114 0-6.9893 2.4692-6.9893 6.002 0 3.7886 2.48 5.13 6.7653 6.1655 3.6449.8399 4.2616 1.5436 4.2616 2.8013 0 1.3942-1.244 2.2612-3.2469 2.2612-2.2244 0-4.0402-.7511-6.0696-2.5063-.0506-.0428-.1157-.0645-.1818-.0606-.0685.0052-.1292.0369-.1713.0869l-2.0873 2.4827c-.087.1054-.0765.2582.0237.3478 2.3614 2.1084 5.2657 3.2206 8.4019 3.2206 4.4329 0 7.2977-2.422 7.2977-6.1723.0079-3.1644-1.887-4.917-6.5281-6.0461zm16.5667-3.7582c-1.9213 0-3.4973.7569-4.7992 2.3079v-1.7458c.0002-.066-.0257-.1294-.0721-.1763-.0465-.0469-.1097-.0734-.1757-.0738h-3.4129c-.1371 0-.2478.1123-.2478.2501v19.3975c0 .1371.1107.2504.2478.2504h3.4129c.1371 0 .2478-.1133.2478-.2504v-6.1222c1.3019 1.4574 2.8779 2.1716 4.7992 2.1716 3.5711 0 7.187-2.7488 7.187-8.0037.0052-5.256-3.6106-8.0056-7.1844-8.0056zm3.2179 8.0053c0 2.6747-1.6472 4.5433-4.0086 4.5433-2.3324 0-4.0929-1.9529-4.0929-4.5433 0-2.5907 1.7605-4.5431 4.0929-4.5431 2.3219-.0002 4.0086 1.9102 4.0086 4.5431zm13.2328-8.0053c-4.5989 0-8.2016 3.541-8.2016 8.0625 0 4.4729 3.579 7.9755 8.1463 7.9755 4.6147 0 8.2282-3.5289 8.2282-8.0327 0-4.4885-3.5898-8.0053-8.1729-8.0053zm0 12.575c-2.4457 0-4.2906-1.9661-4.2906-4.571 0-2.6168 1.7816-4.5157 4.2353-4.5157 2.4615 0 4.3169 1.9653 4.3169 4.5729 0 2.6162-1.7921 4.5138-4.2616 4.5138zm17.9929-12.263h-3.756v-3.8388c0-.0327-.006-.0651-.018-.0953-.013-.0303-.031-.0578-.054-.081s-.05-.0416-.081-.0542c-.03-.0127-.062-.0192-.095-.0194h-3.413c-.137 0-.25.1123-.25.2499v3.8388h-1.639c-.137 0-.248.1123-.248.2501v2.9325c0 .1376.111.2501.248.2501h1.639v7.5889c0 3.0651 1.526 4.6201 4.538 4.6201 1.223 0 2.238-.253 3.195-.796.079-.0421.126-.1265.126-.2161v-2.7936c0-.0843-.045-.166-.119-.2108-.035-.023-.077-.036-.119-.0379-.043-.0018-.085.0076-.123.0273-.656.3295-1.291.4823-2.003.4823-1.094 0-1.584-.4981-1.584-1.6103v-7.0525h3.756c.137 0 .247-.1123.247-.2501v-2.9323c.001-.0327-.004-.0653-.016-.0958s-.03-.0583-.053-.0817-.05-.0419-.08-.0544c-.031-.0124-.063-.0186-.096-.0182zm13.082.015v-.4714c0-1.3871.533-2.0057 1.724-2.0057.711 0 1.283.1413 1.924.3548.079.0248.161.0124.224-.0348.032-.0232.058-.0537.076-.089s.027-.0744.027-.1139v-2.8754c0-.0537-.017-.1061-.049-.1493-.031-.0433-.077-.0749-.128-.0902-.675-.2011-1.539-.4075-2.836-.4075-3.149 0-4.818 1.7748-4.818 5.1305v.7222h-1.639c-.137 0-.25.1122-.25.2498v2.9475c0 .1376.113.2501.25.2501h1.639v11.703c0 .1396.114.2503.251.2503h3.41c.14 0 .251-.1107.251-.2503v-11.7022h3.186l4.881 11.7022c-.554 1.2281-1.099 1.4732-1.842 1.4732-.601 0-1.236-.1792-1.882-.535-.061-.0309-.132-.0375-.198-.0185-.066.0238-.121.0712-.147.1344l-1.157 2.538c-.056.1213-.008.2609.108.3242 1.207.6536 2.295.933 3.642.933 2.519 0 3.914-1.1755 5.139-4.3328l5.919-15.2956c.016-.0378.021-.0789.017-.1195-.005-.0405-.019-.0793-.043-.1127-.022-.0334-.052-.0608-.088-.0798-.035-.0189-.075-.0288-.115-.0288h-3.552c-.109 0-.203.0678-.238.1677l-3.639 10.3927-3.985-10.3996c-.018-.0471-.05-.0877-.091-.1164-.042-.0288-.091-.0442-.141-.0444zm-7.585-.015h-3.413c-.137 0-.25.1123-.25.2501v14.8856c0 .1396.113.2503.25.2503h3.413c.137 0 .251-.1107.251-.2503v-14.8845c0-.0329-.007-.0655-.019-.0959-.013-.0304-.031-.058-.055-.0812-.023-.0233-.05-.0417-.081-.0542-.03-.0125-.063-.0189-.096-.0188zm-1.686-6.7782c-1.352 0-2.449 1.0943-2.449 2.446 0 .3215.064.6399.187.9369s.303.5669.53.7943c.228.2273.498.4076.795.5306s.615.1863.937.1863c1.352 0 2.445-1.0956 2.445-2.4481 0-1.3515-1.096-2.446-2.445-2.446zm29.891 11.5645c-1.349 0-2.401-1.0845-2.401-2.4014 0-1.317 1.065-2.4139 2.414-2.4139 1.35 0 2.401 1.0843 2.401 2.4002 0 1.3169-1.064 2.4151-2.414 2.4151zm.013-4.5765c-1.23 0-2.161.9778-2.161 2.1751 0 1.1968.925 2.1613 2.148 2.1613 1.231 0 2.161-.9769 2.161-2.175 0-1.1968-.925-2.1614-2.148-2.1614zm.533 2.4083.68.9509h-.575l-.611-.8723h-.525v.8723h-.479v-2.5206h1.122c.588 0 .973.2997.973.8041.003.4133-.237.6657-.583.7656zm-.406-1.1372h-.625v.7972h.625c.311 0 .498-.1526.498-.399 0-.2593-.187-.3982-.498-.3982z"/></g></svg>