<svg width="92" height="92" viewBox="0 0 92 92" fill="none" xmlns="http://www.w3.org/2000/svg">
<path d="M41.5333 34.642C41.5333 32.2415 43.5355 31.3158 46.7433 31.3158C51.4151 31.3158 57.3464 32.7474 62.0182 35.2664V20.8096C56.9266 18.775 51.8457 18 46.7541 18C34.2995 18 26 24.5018 26 35.374C26 52.3712 49.3376 49.6155 49.3376 56.9462C49.3376 59.788 46.8725 60.703 43.4494 60.703C38.3685 60.703 31.8021 58.6039 26.6459 55.8051V69.6376C31.9494 71.9256 37.6626 73.1122 43.4386 73.1253C56.2054 73.1253 65 67.6354 65 56.5909C65 38.2697 41.5333 41.5529 41.5333 34.642Z" fill="#6772E5"/>
</svg>
