<svg width="92" height="92" viewBox="0 0 92 92" fill="none" xmlns="http://www.w3.org/2000/svg">
<path d="M44.36 38.471C44.36 41.701 41.7 44.361 38.47 44.361C35.24 44.361 32.58 41.701 32.58 38.471C32.58 35.241 35.24 32.581 38.47 32.581C41.7 32.581 44.36 35.241 44.36 38.471ZM38.47 46.641C35.24 46.641 32.58 49.301 32.58 52.531C32.58 55.761 35.24 58.421 38.47 58.421C41.7 58.421 44.36 55.761 44.36 52.531C44.36 49.301 41.7 46.641 38.47 46.641ZM74 45.501C74 61.271 61.27 74.001 45.5 74.001C29.73 74.001 17 61.271 17 45.501C17 29.731 29.73 17.001 45.5 17.001C61.27 17.001 74 29.731 74 45.501ZM66.4 45.501C66.4 33.911 57.09 24.601 45.5 24.601C33.91 24.601 24.6 33.911 24.6 45.501C24.6 57.091 33.91 66.401 45.5 66.401C57.09 66.401 66.4 57.091 66.4 45.501ZM52.53 46.641C49.3 46.641 46.64 49.301 46.64 52.531C46.64 55.761 49.3 58.421 52.53 58.421C55.76 58.421 58.42 55.761 58.42 52.531C58.42 49.301 55.76 46.641 52.53 46.641ZM52.53 32.581C49.3 32.581 46.64 35.241 46.64 38.471C46.64 41.701 49.3 44.361 52.53 44.361C55.76 44.361 58.42 41.701 58.42 38.471C58.42 35.241 55.76 32.581 52.53 32.581Z" fill="#F22F46"/>
</svg>
