<svg width="92" height="92" viewBox="0 0 92 92" fill="none" xmlns="http://www.w3.org/2000/svg">
<path d="M62.9487 36.8668L57.396 54.3673C57.396 53.027 53.5666 24 53.5666 24C44.7589 24 40.087 30.2419 37.6362 36.8668L30.8581 54.4056C30.8581 53.1419 29.9008 37.02 29.9008 37.02C29.5738 33.53 27.9783 30.281 25.4165 27.8885C22.8546 25.496 19.5042 24.1261 16 24.0383L23.1993 68C32.3899 68 37.3681 61.758 39.9339 55.1332L45.678 40.1984C45.678 40.8111 49.5074 68 49.5074 68C53.2656 67.9952 56.9245 66.7937 59.954 64.5698C62.9835 62.3459 65.2261 59.215 66.3568 55.631L79.3769 24C70.1863 24 65.3612 30.2419 62.9104 36.8668H62.9487Z" fill="#4353FF"/>
</svg>
