<svg width="92" height="92" viewBox="0 0 92 92" fill="none" xmlns="http://www.w3.org/2000/svg">
<path d="M66.2016 27.9351C64.4645 29.3715 64.0303 31.8435 64.0303 31.8435L58.4182 53.3565L53.8083 35.7519C53.374 33.8812 52.5055 31.5763 51.2026 29.9728C49.5992 27.9351 46.2587 27.8015 45.8578 27.8015C45.5572 27.8015 42.25 27.9351 40.513 29.9728C39.2102 31.5763 38.3416 33.8812 37.9074 35.7519L33.5647 53.3565L27.9526 31.8435C27.9526 31.8435 27.5183 29.5385 25.7813 27.9351C23.042 25.4631 19 26.0644 19 26.0644L29.6897 66.3177C29.6897 66.3177 33.1638 66.6184 34.9009 65.7498C37.2059 64.5806 38.375 63.7455 39.6778 58.2336C40.9806 53.3231 44.4548 39.0256 44.722 38.0235C44.8557 37.5892 45.1563 36.2864 46.0248 36.2864C46.8934 36.2864 47.194 37.4556 47.3276 38.0235C47.6283 39.0256 51.069 53.3231 52.3718 58.2336C53.8083 63.7121 54.8104 64.5806 57.1488 65.7498C58.8859 66.6184 62.36 66.3177 62.36 66.3177L72.9829 26.0644C72.9829 26.0644 68.9408 25.4965 66.2016 27.9351Z" fill="black"/>
</svg>
