<svg width="40" height="40" viewBox="0 0 40 40" fill="none" xmlns="http://www.w3.org/2000/svg">
<path opacity="0.3" d="M8.20409 15.6C8.20409 18.089 9.40215 20.2976 11.2532 21.6837C9.39343 22.1647 8.11229 23.0053 7.27974 24.2084C6.60437 25.1843 6.29521 26.3061 6.14621 27.4449C5.99997 28.5626 5.99998 29.7747 6 30.9616L6 31C6 31.5523 6.44772 32 7 32H24.6327C25.185 32 25.6327 31.5523 25.6327 31V30.9603C25.6327 29.7747 25.6327 28.5736 25.4862 27.47C25.3367 26.3434 25.0262 25.2384 24.3489 24.2743C23.5063 23.0751 22.2047 22.2347 20.3064 21.7377C22.1989 20.3554 23.4286 18.1216 23.4286 15.6C23.4286 11.4009 20.0187 8 15.8163 8C11.614 8 8.20409 11.4009 8.20409 15.6Z" fill="black"/>
<path fill-rule="evenodd" clip-rule="evenodd" d="M25.9686 15.6957C25.9686 15.1434 26.4163 14.6957 26.9686 14.6957C30.2286 14.6957 32.3674 17.272 32.3674 20.287C32.3674 21.7054 32.0161 23.0914 31.1965 24.1469C31.14 24.2196 31.0816 24.2903 31.0213 24.359C32.2004 24.7365 33.0074 25.3499 33.4853 26.2538C33.8834 27.0068 33.9778 27.8419 33.9963 28.6118C34.0057 29.0027 33.9955 29.407 33.984 29.8009C33.9827 29.8442 33.9815 29.8875 33.9802 29.9307C33.9696 30.2874 33.9592 30.6392 33.9592 31C33.9592 31.5523 33.5115 32 32.9592 32C32.4069 32 31.9592 31.5523 31.9592 31C31.9592 30.6076 31.9706 30.2253 31.981 29.8717C31.9823 29.8282 31.9836 29.7852 31.9848 29.7426C31.9964 29.3463 32.0049 28.9911 31.9969 28.6599C31.9807 27.9859 31.8961 27.5268 31.7172 27.1886C31.4206 26.6276 30.5911 25.9438 27.4469 25.8781C26.8989 25.8666 26.4622 25.416 26.4679 24.8678C26.4736 24.3197 26.9196 23.8783 27.4678 23.8783C28.4956 23.8783 29.1717 23.4933 29.6168 22.9202C30.0876 22.3139 30.3674 21.4043 30.3674 20.287C30.3674 18.2306 28.9835 16.6957 26.9686 16.6957C26.4163 16.6957 25.9686 16.248 25.9686 15.6957Z" fill="black"/>
</svg>
