<svg width="40" height="40" viewBox="0 0 40 40" fill="none" xmlns="http://www.w3.org/2000/svg">
<path opacity="0.3" d="M20 33C16.2754 33 14.4131 33 12.9218 32.4572C10.4219 31.5473 8.45265 29.5781 7.54277 27.0782C7 25.5869 7 23.7246 7 20C7 16.2754 7 14.4131 7.54277 12.9218C8.45265 10.4219 10.4219 8.45265 12.9218 7.54277C14.4131 7 16.2754 7 20 7C23.7246 7 25.5869 7 27.0782 7.54277C29.5781 8.45265 31.5473 10.4219 32.4572 12.9218C33 14.4131 33 16.2754 33 20C33 23.7246 33 25.5869 32.4572 27.0782C31.5473 29.5781 29.5781 31.5473 27.0782 32.4572C25.5869 33 23.7246 33 20 33Z" fill="black"/>
<path d="M19.9995 23.1515C21.0191 23.1515 21.8457 22.2832 21.8457 21.2121C21.8457 20.141 21.0191 19.2727 19.9995 19.2727C18.9799 19.2727 18.1534 20.141 18.1534 21.2121C18.1534 22.2832 18.9799 23.1515 19.9995 23.1515Z" fill="black"/>
<path d="M15.0062 13.5541C16.4858 12.5402 18.2236 12 20 12C21.7764 12 23.5142 12.5402 24.9938 13.5541C26.4735 14.5682 27.6294 16.0113 28.3126 17.7031C28.996 19.3951 29.175 21.2579 28.8264 23.0553C28.4779 24.8525 27.6179 26.501 26.3581 27.7931C26.0845 28.0737 25.6462 28.0682 25.3791 27.7808C25.112 27.4934 25.1172 27.0329 25.3908 26.7523C26.4546 25.6613 27.1771 24.2733 27.4697 22.7649C27.7622 21.2566 27.6122 19.6931 27.038 18.2712C26.4637 16.8491 25.4899 15.6308 24.2372 14.7724C22.9844 13.9138 21.5098 13.4545 20 13.4545C18.4902 13.4545 17.0156 13.9138 15.7628 14.7724C14.5101 15.6308 13.5364 16.8491 12.962 18.2712C12.3878 19.6931 12.2378 21.2566 12.5303 22.7649C12.8229 24.2733 13.5454 25.6613 14.6092 26.7523C14.8828 27.0329 14.888 27.4934 14.6209 27.7808C14.3538 28.0682 13.9155 28.0737 13.6419 27.7931C12.3821 26.501 11.5221 24.8525 11.1736 23.0553C10.825 21.2579 11.004 19.3951 11.6874 17.7031C12.3706 16.0113 13.5265 14.5682 15.0062 13.5541Z" fill="black"/>
<path d="M17.0576 16.7028C17.9299 16.105 18.9539 15.7869 20 15.7869C21.0461 15.7869 22.0701 16.105 22.9424 16.7028C23.815 17.3008 24.4976 18.1525 24.9014 19.1523C25.3052 20.1523 25.4112 21.2537 25.2051 22.3165C24.999 23.3791 24.4907 24.3528 23.7472 25.1154C23.4736 25.396 23.0353 25.3904 22.7682 25.103C22.5011 24.8156 22.5064 24.3552 22.7799 24.0746C23.3274 23.5131 23.6983 22.7999 23.8483 22.0261C23.9984 21.2524 23.9215 20.4503 23.6267 19.7204C23.3319 18.9903 22.8314 18.3634 22.1859 17.9211C21.5403 17.4786 20.7796 17.2414 20 17.2414C19.2204 17.2414 18.4597 17.4786 17.8141 17.9211C17.1686 18.3634 16.6681 18.9903 16.3733 19.7204C16.0785 20.4503 16.0016 21.2524 16.1517 22.0261C16.3017 22.7999 16.6726 23.5131 17.2201 24.0746C17.4936 24.3552 17.4989 24.8156 17.2318 25.103C16.9647 25.3904 16.5264 25.396 16.2528 25.1154C15.5093 24.3528 15.001 23.3791 14.7949 22.3165C14.5888 21.2537 14.6948 20.1523 15.0986 19.1523C15.5024 18.1525 16.185 17.3008 17.0576 16.7028Z" fill="black"/>
</svg>
