<svg width="40" height="40" viewBox="0 0 40 40" fill="none" xmlns="http://www.w3.org/2000/svg">
<path opacity="0.3" fill-rule="evenodd" clip-rule="evenodd" d="M20 7C12.8203 7 7 12.8203 7 20C7 24.375 9.16213 28.245 12.4717 30.5995C14.5962 32.111 17.1958 33 20 33C22.8037 33 25.4029 32.1113 27.5272 30.6003C30.8374 28.2458 33 24.3755 33 20C33 12.8203 27.1797 7 20 7Z" fill="black"/>
<path d="M25.1315 19.225C25.1315 22.1424 22.8039 24.45 20.0038 24.45C17.2036 24.45 14.876 22.1424 14.876 19.225C14.876 16.3076 17.2036 14 20.0038 14C22.8039 14 25.1315 16.3076 25.1315 19.225Z" fill="black"/>
<path d="M25.8536 28.2806C26.4199 28.7649 26.7668 29.3915 26.9716 30.2228C27.0827 30.6735 26.8595 31.1344 26.4478 31.3599C24.5402 32.4049 22.3438 33 20.0038 33C17.6608 33 15.4618 32.4034 13.5526 31.356C13.1429 31.1313 12.9207 30.6734 13.026 30.2236C13.23 29.353 13.5795 28.6978 14.1537 28.2007C15.0351 27.4375 16.6993 26.8267 19.9903 26.825C23.2841 26.8991 24.9615 27.5177 25.8536 28.2806Z" fill="black"/>
</svg>
