<svg width="24" height="24" viewBox="0 0 24 24" fill="none" xmlns="http://www.w3.org/2000/svg">
<path fill-rule="evenodd" clip-rule="evenodd" d="M3 7C3 4.79086 4.79086 3 7 3H17C19.2091 3 21 4.79086 21 7V17C21 19.2091 19.2091 21 17 21H7C4.79086 21 3 19.2091 3 17V7ZM7 5C5.89543 5 5 5.89543 5 7V17C5 18.1046 5.89543 19 7 19H17C18.1046 19 19 18.1046 19 17V7C19 5.89543 18.1046 5 17 5H7Z" fill="black" fill-opacity="0.4"/>
<path fill-rule="evenodd" clip-rule="evenodd" d="M14 7C13.6212 7 13.275 7.214 13.1056 7.55279L9.38197 15H8C7.44772 15 7 15.4477 7 16C7 16.5523 7.44772 17 8 17H10C10.3788 17 10.725 16.786 10.8944 16.4472L14.618 9H16C16.5523 9 17 8.55228 17 8C17 7.44772 16.5523 7 16 7H14ZM14 15C13.4477 15 13 15.4477 13 16C13 16.5523 13.4477 17 14 17H16C16.5523 17 17 16.5523 17 16C17 15.4477 16.5523 15 16 15H14Z" fill="black"/>
</svg>
