<svg width="24" height="24" viewBox="0 0 24 24" fill="none" xmlns="http://www.w3.org/2000/svg">
<path fill-rule="evenodd" clip-rule="evenodd" d="M20 9.89999C19.6769 9.96558 19.3425 10 19 10C16.2386 10 14 7.76141 14 5C14 4.65753 14.0344 4.32312 14.1 4H7C4.79086 4 3 5.79086 3 8V17C3 19.2091 4.79086 21 7 21H16C18.2091 21 20 19.2091 20 17V9.89999Z" fill="black" fill-opacity="0.4"/>
<path d="M22 5C22 6.65685 20.6569 8 19 8C17.3431 8 16 6.65685 16 5C16 3.34315 17.3431 2 19 2C20.6569 2 22 3.34315 22 5Z" fill="black"/>
</svg>
