<svg width="24" height="24" viewBox="0 0 24 24" fill="none" xmlns="http://www.w3.org/2000/svg">
<path fill-rule="evenodd" clip-rule="evenodd" d="M18 4C16.8954 4 16 4.89543 16 6C16 7.10457 16.8954 8 18 8C19.1046 8 20 7.10457 20 6C20 4.89543 19.1046 4 18 4ZM14 6C14 3.79086 15.7909 2 18 2C20.2091 2 22 3.79086 22 6C22 8.20914 20.2091 10 18 10C15.7909 10 14 8.20914 14 6Z" fill="black"/>
<path fill-rule="evenodd" clip-rule="evenodd" d="M7.00022 6C5.89556 6 5 6.89553 5 8V17C5 18.1046 5.89543 19 7 19H16C17.1045 19 18 18.1045 18 16.9998V13C18 12.4477 18.4477 12 19 12C19.5523 12 20 12.4477 20 13V16.9998C20 19.2089 18.2092 21 16 21H7C4.79086 21 3 19.2091 3 17V8C3 5.79076 4.79118 4 7.00022 4H11C11.5523 4 12 4.44772 12 5C12 5.55228 11.5523 6 11 6H7.00022Z" fill="black" fill-opacity="0.4"/>
</svg>
