<svg width="40" height="40" viewBox="0 0 40 40" fill="none" xmlns="http://www.w3.org/2000/svg">
<path d="M14.8859 7.81935C14.3805 7.78453 13.7611 7.78454 13.0037 7.78455H12.9334C12.1759 7.78454 11.5566 7.78453 11.0511 7.81935C10.5289 7.85533 10.0543 7.93188 9.60131 8.12202C8.5934 8.54511 7.78455 9.33489 7.34839 10.3333C7.15152 10.784 7.07261 11.2558 7.03566 11.7712C6.99998 12.2688 6.99999 12.8777 7 13.6187V13.6912C6.99999 14.4322 6.99998 15.0411 7.03566 15.5386C7.07261 16.0541 7.15152 16.5259 7.34839 16.9766C7.78455 17.975 8.5934 18.7648 9.60131 19.1879C10.0543 19.378 10.5289 19.4546 11.0511 19.4905C11.5566 19.5254 12.1759 19.5254 12.9334 19.5253H13.0037C13.7611 19.5254 14.3805 19.5254 14.8859 19.4905C15.4082 19.4546 15.8828 19.378 16.3357 19.1879C17.3437 18.7648 18.1525 17.975 18.5887 16.9766C18.7855 16.5259 18.8644 16.0541 18.9014 15.5386C18.9371 15.0411 18.9371 14.4322 18.937 13.6912V13.6187C18.9371 12.8777 18.9371 12.2688 18.9014 11.7712C18.8644 11.2558 18.7855 10.784 18.5887 10.3333C18.1525 9.33489 17.3437 8.54511 16.3357 8.12202C15.8828 7.93188 15.4082 7.85533 14.8859 7.81935Z" fill="black"/>
<path d="M28.9489 21.2941C28.4434 21.2592 27.8241 21.2592 27.0666 21.2593H26.9963C26.2389 21.2592 25.6195 21.2592 25.1141 21.2941C24.5918 21.33 24.1172 21.4066 23.6643 21.5967C22.6563 22.0198 21.8475 22.8096 21.4113 23.808C21.2145 24.2587 21.1356 24.7305 21.0986 25.246C21.0629 25.7435 21.0629 26.3524 21.063 27.0934V27.1659C21.0629 27.9069 21.0629 28.5158 21.0986 29.0134C21.1356 29.5288 21.2145 30.0006 21.4113 30.4513C21.8475 31.4497 22.6564 32.2395 23.6643 32.6626C24.1172 32.8527 24.5918 32.9293 25.1141 32.9652C25.6195 33.0001 26.2389 33.0001 26.9963 33.0001H27.0667C27.8241 33.0001 28.4434 33.0001 28.9489 32.9652C29.4711 32.9293 29.9457 32.8527 30.3987 32.6626C31.4066 32.2395 32.2154 31.4497 32.6516 30.4513C32.8485 30.0006 32.9274 29.5288 32.9643 29.0134C33 28.5158 33 27.9068 33 27.1659V27.0934C33 26.3525 33 25.7436 32.9643 25.246C32.9274 24.7305 32.8485 24.2587 32.6516 23.808C32.2154 22.8096 31.4066 22.0198 30.3987 21.5967C29.9457 21.4066 29.4711 21.33 28.9489 21.2941Z" fill="black"/>
<g opacity="0.3">
<path d="M28.2581 7.28222C27.303 6.90734 26.2383 6.9057 25.2828 7.27866C24.8492 7.44788 24.4803 7.70708 24.1116 8.02004C23.7566 8.32147 23.3511 8.71787 22.8602 9.1979L22.8096 9.24736C22.3188 9.7272 21.9133 10.1236 21.6048 10.4709C21.2851 10.8309 21.0172 11.1944 20.8415 11.6247C20.4544 12.5726 20.4561 13.6313 20.8452 14.5788C21.0217 15.0086 21.29 15.3721 21.6103 15.7326C21.9196 16.0805 22.3259 16.4778 22.8182 16.959L22.8686 17.0083C23.361 17.4897 23.7673 17.887 24.1229 18.1891C24.492 18.5027 24.861 18.7624 25.2941 18.9323C26.2493 19.3072 27.314 19.3089 28.2695 18.9359C28.703 18.7667 29.072 18.5075 29.4407 18.1945C29.7957 17.8931 30.2011 17.4967 30.692 17.0167L30.7427 16.9672C31.2335 16.4874 31.639 16.0909 31.9475 15.7437C32.2672 15.3837 32.5351 15.0201 32.7108 14.5899C33.0979 13.6419 33.0962 12.5832 32.7071 11.6357C32.5306 11.2059 32.2623 10.8424 31.9419 10.482C31.6327 10.1341 31.2263 9.73678 30.7341 9.25553L30.6837 9.2063C30.1913 8.72487 29.785 8.32759 29.4293 8.02543C29.0602 7.71183 28.6912 7.45221 28.2581 7.28222Z" fill="black"/>
<path d="M14.8859 21.294C14.3805 21.2592 13.7611 21.2592 13.0037 21.2592H12.9334C12.1759 21.2592 11.5566 21.2592 11.0511 21.294C10.5289 21.33 10.0543 21.4065 9.60131 21.5967C8.5934 22.0198 7.78455 22.8095 7.34839 23.808C7.15152 24.2586 7.07261 24.7304 7.03566 25.2459C6.99998 25.7435 6.99999 26.3524 7 27.0933V27.1659C6.99999 27.9068 6.99998 28.5157 7.03566 29.0133C7.07261 29.5288 7.15152 30.0006 7.34839 30.4512C7.78455 31.4497 8.5934 32.2394 9.60131 32.6625C10.0543 32.8527 10.5289 32.9292 11.0511 32.9652C11.5566 33 12.1759 33 12.9333 33H13.0037C13.7611 33 14.3805 33 14.8859 32.9652C15.4082 32.9292 15.8828 32.8527 16.3357 32.6625C17.3436 32.2394 18.1525 31.4497 18.5887 30.4512C18.7855 30.0006 18.8644 29.5288 18.9014 29.0133C18.9371 28.5157 18.9371 27.9068 18.937 27.1659V27.0933C18.9371 26.3524 18.9371 25.7435 18.9014 25.2459C18.8644 24.7304 18.7855 24.2586 18.5887 23.808C18.1525 22.8095 17.3437 22.0198 16.3357 21.5967C15.8828 21.4065 15.4082 21.33 14.8859 21.294Z" fill="black"/>
</g>
</svg>
