<svg width="40" height="40" viewBox="0 0 40 40" fill="none" xmlns="http://www.w3.org/2000/svg">
<path d="M14.9606 7.03601C14.4493 6.99998 13.8229 6.99999 13.0577 7H12.9859C12.2206 6.99999 11.5943 6.99998 11.083 7.03601C10.5543 7.07326 10.0736 7.15259 9.61515 7.34942C8.59558 7.78717 7.78398 8.60131 7.34797 9.62217C7.15203 10.0809 7.07302 10.562 7.0359 11.0916C6.99998 11.604 6.99999 12.2318 7 12.9992V13.0707C6.99999 13.8382 6.99998 14.466 7.0359 14.9783C7.07302 15.5079 7.15203 15.989 7.34797 16.4478C7.78398 17.4686 8.59558 18.2828 9.61515 18.7205C10.0736 18.9174 10.5543 18.9967 11.083 19.0339C11.5943 19.07 12.2206 19.07 12.9859 19.07H13.0577C13.823 19.07 14.4493 19.07 14.9606 19.0339C15.4893 18.9967 15.97 18.9174 16.4284 18.7205C17.448 18.2828 18.2596 17.4686 18.6956 16.4478C18.8916 15.989 18.9706 15.5079 19.0077 14.9783C19.0436 14.4659 19.0436 13.8382 19.0436 13.0707V12.9993C19.0436 12.2318 19.0436 11.604 19.0077 11.0916C18.9706 10.562 18.8916 10.0809 18.6956 9.62217C18.2596 8.60131 17.448 7.78717 16.4284 7.34942C15.97 7.15259 15.4893 7.07326 14.9606 7.03601Z" fill="black"/>
<path d="M28.917 20.966C28.4057 20.93 27.7794 20.93 27.0141 20.93H26.9423C26.177 20.93 25.5507 20.93 25.0394 20.966C24.5107 21.0033 24.03 21.0826 23.5716 21.2795C22.552 21.7172 21.7404 22.5314 21.3044 23.5522C21.1084 24.011 21.0294 24.4921 20.9923 25.0217C20.9564 25.5341 20.9564 26.1618 20.9564 26.9293V27.0007C20.9564 27.7682 20.9564 28.396 20.9923 28.9084C21.0294 29.438 21.1084 29.9191 21.3044 30.3778C21.7404 31.3987 22.552 32.2128 23.5716 32.6506C24.03 32.8474 24.5107 32.9267 25.0394 32.964C25.5507 33 26.177 33 26.9423 33H27.0141C27.7794 33 28.4057 33 28.917 32.964C29.4457 32.9267 29.9264 32.8474 30.3848 32.6506C31.4044 32.2128 32.216 31.3987 32.652 30.3778C32.848 29.9191 32.927 29.438 32.9641 28.9084C33 28.396 33 27.7682 33 27.0007V26.9294C33 26.1618 33 25.5341 32.9641 25.0217C32.927 24.4921 32.848 24.011 32.652 23.5522C32.216 22.5314 31.4044 21.7172 30.3848 21.2795C29.9264 21.0826 29.4457 21.0033 28.917 20.966Z" fill="black"/>
<g opacity="0.3">
<path d="M14.9606 20.966C14.4493 20.93 13.823 20.93 13.0577 20.93H12.9859C12.2206 20.93 11.5943 20.93 11.083 20.966C10.5543 21.0033 10.0736 21.0826 9.61515 21.2795C8.59558 21.7172 7.78398 22.5314 7.34797 23.5522C7.15203 24.011 7.07302 24.4921 7.0359 25.0217C6.99998 25.534 6.99999 26.1618 7 26.9293V27.0008C6.99999 27.7682 6.99998 28.396 7.0359 28.9084C7.07302 29.438 7.15203 29.9191 7.34797 30.3778C7.78398 31.3987 8.59559 32.2128 9.61515 32.6506C10.0736 32.8474 10.5543 32.9267 11.083 32.964C11.5943 33 12.2206 33 12.9859 33H13.0577C13.823 33 14.4493 33 14.9606 32.964C15.4893 32.9267 15.97 32.8474 16.4284 32.6506C17.448 32.2128 18.2596 31.3987 18.6956 30.3778C18.8916 29.9191 18.9706 29.438 19.0077 28.9084C19.0436 28.396 19.0436 27.7682 19.0436 27.0007V26.9293C19.0436 26.1618 19.0436 25.5341 19.0077 25.0217C18.9706 24.4921 18.8916 24.011 18.6956 23.5522C18.2596 22.5314 17.448 21.7172 16.4284 21.2795C15.97 21.0826 15.4893 21.0033 14.9606 20.966Z" fill="black"/>
<path d="M28.917 7.03601C28.4057 6.99998 27.7794 6.99999 27.0141 7H26.9423C26.1771 6.99999 25.5507 6.99998 25.0394 7.03601C24.5107 7.07326 24.03 7.15259 23.5716 7.34942C22.552 7.78717 21.7404 8.60131 21.3044 9.62217C21.1084 10.0809 21.0294 10.562 20.9923 11.0916C20.9564 11.604 20.9564 12.2318 20.9564 12.9993V13.0707C20.9564 13.8382 20.9564 14.4659 20.9923 14.9783C21.0294 15.5079 21.1084 15.989 21.3044 16.4478C21.7404 17.4686 22.552 18.2828 23.5716 18.7205C24.03 18.9174 24.5107 18.9967 25.0394 19.0339C25.5507 19.07 26.177 19.07 26.9423 19.07H27.0141C27.7794 19.07 28.4057 19.07 28.917 19.0339C29.4457 18.9967 29.9264 18.9174 30.3848 18.7205C31.4044 18.2828 32.216 17.4686 32.652 16.4478C32.848 15.989 32.927 15.5079 32.9641 14.9783C33 14.4659 33 13.8382 33 13.0706V12.9993C33 12.2318 33 11.604 32.9641 11.0916C32.927 10.562 32.848 10.0809 32.652 9.62217C32.216 8.60131 31.4044 7.78717 30.3848 7.34942C29.9264 7.15259 29.4457 7.07326 28.917 7.03601Z" fill="black"/>
</g>
</svg>
