<svg width="24" height="24" viewBox="0 0 24 24" fill="none" xmlns="http://www.w3.org/2000/svg">
<path fill-rule="evenodd" clip-rule="evenodd" d="M6 7.41421L9.29289 10.7071C9.68342 11.0976 10.3166 11.0976 10.7071 10.7071C11.0976 10.3166 11.0976 9.68342 10.7071 9.29289L7.41421 6H6V7.41421ZM16.5858 6H17.9999V7.41427L14.7071 10.7071C14.3166 11.0976 13.6834 11.0976 13.2929 10.7071C12.9024 10.3166 12.9024 9.68342 13.2929 9.29289L16.5858 6ZM16.5858 18L13.2929 14.7071C12.9024 14.3166 12.9024 13.6834 13.2929 13.2929C13.6834 12.9024 14.3166 12.9024 14.7071 13.2929L17.9999 16.5857V18H16.5858ZM6 16.5858L9.29289 13.2929C9.68342 12.9024 10.3166 12.9024 10.7071 13.2929C11.0976 13.6834 11.0976 14.3166 10.7071 14.7071L7.41421 18H6V16.5858Z" fill="black" fill-opacity="0.4"/>
<path fill-rule="evenodd" clip-rule="evenodd" d="M5 4H9.99997V6H6V10H4V5C4 4.44772 4.44772 4 5 4ZM18.9999 4H14V6H17.9999V10H19.9999V5C19.9999 4.44772 19.5522 4 18.9999 4ZM14 20H18.9999C19.5522 20 19.9999 19.5523 19.9999 19V14H17.9999V18H14V20ZM5 20H9.99997V18H6V14H4V19C4 19.5523 4.44772 20 5 20Z" fill="black"/>
</svg>
