<svg width="24" height="24" viewBox="0 0 24 24" fill="none" xmlns="http://www.w3.org/2000/svg">
<path fill-rule="evenodd" clip-rule="evenodd" d="M21 17C21 19.2091 19.2091 21 17 21H7C4.79086 21 3 19.2091 3 17V7C3 4.79086 4.79086 3 7 3H17C19.2091 3 21 4.79086 21 7V17ZM17 19C18.1046 19 19 18.1046 19 17V7C19 5.89543 18.1046 5 17 5H7C5.89543 5 5 5.89543 5 7V17C5 18.1046 5.89543 19 7 19H17Z" fill="black" fill-opacity="0.4"/>
<path fill-rule="evenodd" clip-rule="evenodd" d="M8.29289 14.2929C7.90237 14.6834 7.90237 15.3166 8.29289 15.7071C8.68342 16.0976 9.31658 16.0976 9.70711 15.7071L14 11.4142V16H16V9C16 8.44772 15.5523 8 15 8H8V10H12.5858L8.29289 14.2929Z" fill="black"/>
</svg>
