<svg width="24" height="24" viewBox="0 0 24 24" fill="none" xmlns="http://www.w3.org/2000/svg">
<path fill-rule="evenodd" clip-rule="evenodd" d="M12 4C16.4183 4 20 7.58172 20 12C20 16.4183 16.4183 20 12 20C7.58172 20 4 16.4183 4 12C4 7.58172 7.58172 4 12 4ZM22 12C22 6.47715 17.5228 2 12 2C6.47715 2 2 6.47715 2 12C2 17.5228 6.47715 22 12 22C17.5228 22 22 17.5228 22 12Z" fill="black" fill-opacity="0.4"/>
<path fill-rule="evenodd" clip-rule="evenodd" d="M8.29289 9.70711C7.90237 9.31658 7.90237 8.68342 8.29289 8.29289C8.68342 7.90237 9.31658 7.90237 9.70711 8.29289L14 12.5858V8H16V15C16 15.5523 15.5523 16 15 16H8V14H12.5858L8.29289 9.70711Z" fill="black"/>
</svg>
