<svg width="24" height="24" viewBox="0 0 24 24" fill="none" xmlns="http://www.w3.org/2000/svg">
<path fill-rule="evenodd" clip-rule="evenodd" d="M4 12C4 11.4477 4.44772 11 5 11H19C19.5523 11 20 11.4477 20 12C20 12.5523 19.5523 13 19 13H5C4.44772 13 4 12.5523 4 12Z" fill="black" fill-opacity="0.4"/>
<path fill-rule="evenodd" clip-rule="evenodd" d="M11 9.00002C11 9.5523 11.4477 10 12 10C12.5523 10 13 9.5523 13 9.00002V6.00002H16L12 2L8 6.00002H11V9.00002ZM8 18L12 22L16 18H13V15C13 14.4477 12.5523 14 12 14C11.4477 14 11 14.4477 11 15V18H8Z" fill="black"/>
</svg>
