<svg width="24" height="24" viewBox="0 0 24 24" fill="none" xmlns="http://www.w3.org/2000/svg">
<path fill-rule="evenodd" clip-rule="evenodd" d="M16.793 5.79291L13.293 9.29291C12.9024 9.68343 12.9024 10.3166 13.293 10.7071C13.6835 11.0976 14.3167 11.0976 14.7072 10.7071L18.2072 7.20712L16.793 5.79291ZM7.20718 18.2071L10.7072 14.7071C11.0977 14.3166 11.0977 13.6834 10.7072 13.2929C10.3167 12.9024 9.68349 12.9024 9.29297 13.2929L5.79297 16.7929L7.20718 18.2071Z" fill="black" fill-opacity="0.4"/>
<path fill-rule="evenodd" clip-rule="evenodd" d="M21 3H20.0002H14C18.9986 7.99861 16.5283 5.52833 21 10V3ZM3 21H3.99983H10C5.52833 16.5283 7.99861 18.9986 3 14V21Z" fill="black"/>
</svg>
