<svg width="24" height="24" viewBox="0 0 24 24" fill="none" xmlns="http://www.w3.org/2000/svg">
<path fill-rule="evenodd" clip-rule="evenodd" d="M12 4C7.58172 4 4 7.58172 4 12C4 16.4183 7.58172 20 12 20C16.4183 20 20 16.4183 20 12C20 7.58172 16.4183 4 12 4ZM2 12C2 6.47715 6.47715 2 12 2C17.5228 2 22 6.47715 22 12C22 17.5228 17.5228 22 12 22C6.47715 22 2 17.5228 2 12Z" fill="black" fill-opacity="0.4"/>
<path fill-rule="evenodd" clip-rule="evenodd" d="M13 8C13 7.44772 12.5523 7 12 7C11.4477 7 11 7.44772 11 8V13.5859L7.99991 10.5858L6.58569 12L11.2928 16.7071C11.4081 16.8224 11.5446 16.9037 11.6897 16.9509C11.761 16.9742 11.8358 16.9896 11.9132 16.9963C11.9637 17.0007 12.0145 17.0012 12.065 16.9979C12.1812 16.9905 12.292 16.9632 12.394 16.9194C12.4818 16.8818 12.5653 16.831 12.6415 16.7671C12.6667 16.746 12.6908 16.7237 12.7138 16.7003L17.4141 12L15.9999 10.5858L13 13.5857V8Z" fill="black"/>
</svg>
