<svg width="24" height="24" viewBox="0 0 24 24" fill="none" xmlns="http://www.w3.org/2000/svg">
<path fill-rule="evenodd" clip-rule="evenodd" d="M9.00004 2L4 7L9.00004 12C9.00004 11 9.00004 4 9.00004 2ZM16 12L21 17L16 22C16 11.1907 16 21.5724 16 12Z" fill="black"/>
<path fill-rule="evenodd" clip-rule="evenodd" d="M21 7C21 6.44771 20.5523 6 20 6H9.00004V8H20C20.5523 8 21 7.55229 21 7ZM16 16H4.00007C3.44779 16 3.00007 16.4477 3.00007 17C3.00007 17.5523 3.44779 18 4.00007 18H16V16Z" fill="black" fill-opacity="0.4"/>
</svg>
