<svg width="24" height="24" viewBox="0 0 24 24" fill="none" xmlns="http://www.w3.org/2000/svg">
<path fill-rule="evenodd" clip-rule="evenodd" d="M10.7072 9.29289L7.70717 6.29291L6.29297 7.70713L9.29294 10.7071C9.68347 11.0976 10.3166 11.0976 10.7072 10.7071C11.0977 10.3166 11.0977 9.68342 10.7072 9.29289ZM13.2929 9.29289L16.2929 6.29291L17.7071 7.70713L14.7072 10.7071C14.3166 11.0976 13.6835 11.0976 13.2929 10.7071C12.9024 10.3166 12.9024 9.68342 13.2929 9.29289ZM16.2929 17.7071L13.2929 14.7071C12.9024 14.3166 12.9024 13.6834 13.2929 13.2929C13.6835 12.9024 14.3166 12.9024 14.7072 13.2929L17.7071 16.2929L16.2929 17.7071ZM10.7072 14.7071L7.70717 17.7071L6.29297 16.2929L9.29294 13.2929C9.68347 12.9024 10.3166 12.9024 10.7072 13.2929C11.0977 13.6834 11.0977 14.3166 10.7072 14.7071Z" fill="black" fill-opacity="0.4"/>
<path fill-rule="evenodd" clip-rule="evenodd" d="M9.99992 4H4V10L9.99992 4ZM13.9999 4H19.9998V10L13.9999 4ZM19.9998 20H13.9999L19.9998 14V20ZM9.99992 20H4V14L9.99992 20Z" fill="black"/>
</svg>
