<svg width="24" height="24" viewBox="0 0 24 24" fill="none" xmlns="http://www.w3.org/2000/svg">
<path fill-rule="evenodd" clip-rule="evenodd" d="M20.7071 3.29289C21.0976 3.68342 21.0976 4.31658 20.7071 4.70711L16.4142 9H15V7.58579L19.2929 3.29289C19.6834 2.90237 20.3166 2.90237 20.7071 3.29289ZM3.29289 20.7071C2.90237 20.3166 2.90237 19.6834 3.29289 19.2929L7.58579 15H9V16.4142L4.70711 20.7071C4.31658 21.0976 3.68342 21.0976 3.29289 20.7071Z" fill="black" fill-opacity="0.4"/>
<path fill-rule="evenodd" clip-rule="evenodd" d="M15 9V3H13V10C13 10.5523 13.4477 11 14 11H21V9H15ZM9 15V21H11V14C11 13.4477 10.5523 13 10 13H3V15H9Z" fill="black"/>
</svg>
