<svg width="24" height="24" viewBox="0 0 24 24" fill="none" xmlns="http://www.w3.org/2000/svg">
<path fill-rule="evenodd" clip-rule="evenodd" d="M12 20C7.58172 20 4 16.4183 4 12C4 7.58172 7.58172 4 12 4C16.4183 4 20 7.58172 20 12C20 16.4183 16.4183 20 12 20ZM2 12C2 17.5228 6.47715 22 12 22C17.5228 22 22 17.5228 22 12C22 6.47715 17.5228 2 12 2C6.47715 2 2 6.47715 2 12Z" fill="black" fill-opacity="0.4"/>
<path fill-rule="evenodd" clip-rule="evenodd" d="M15.7071 14.2929C16.0976 14.6834 16.0976 15.3166 15.7071 15.7071C15.3166 16.0976 14.6834 16.0976 14.2929 15.7071L10 11.4142V16H8V9C8 8.44772 8.44772 8 9 8H16V10H11.4142L15.7071 14.2929Z" fill="black"/>
</svg>
