<svg width="24" height="24" viewBox="0 0 24 24" fill="none" xmlns="http://www.w3.org/2000/svg">
<path fill-rule="evenodd" clip-rule="evenodd" d="M19 12C19 8.13401 15.866 5 12 5C10.0555 5 8.29776 5.79153 7.02818 7.07242C6.90622 7.19547 6.60107 7.52664 6.56539 7.56539L5.14969 6.14969C5.19369 6.1022 5.48283 5.79048 5.6077 5.6645C7.23745 4.02023 9.50051 3 12 3C16.9706 3 21 7.02944 21 12C21 16.9706 16.9706 21 12 21C8.66747 21 5.75928 19.1882 4.20465 16.5007C3.92811 16.0227 4.09147 15.4109 4.56953 15.1344C5.04759 14.8579 5.65932 15.0212 5.93586 15.4993C7.14771 17.5942 9.41027 19 12 19C15.866 19 19 15.866 19 12Z" fill="black" fill-opacity="0.4"/>
<path d="M2 11H10L2 3V11Z" fill="black"/>
</svg>
