<svg width="24" height="24" viewBox="0 0 24 24" fill="none" xmlns="http://www.w3.org/2000/svg">
<path fill-rule="evenodd" clip-rule="evenodd" d="M5.00828 12C5.00828 8.13401 8.15526 5 12.0373 5C13.9898 5 15.7548 5.79153 17.0297 7.07242C17.1521 7.19547 17.4585 7.52664 17.4944 7.56539L18.9159 6.14969C18.8718 6.1022 18.5814 5.79048 18.456 5.6645C16.8195 4.02023 14.5471 3 12.0373 3C7.04612 3 3 7.02944 3 12C3 16.9706 7.04612 21 12.0373 21C15.3836 21 18.3038 19.1882 19.8649 16.5007C20.1426 16.0227 19.9785 15.4109 19.4985 15.1344C19.0185 14.8579 18.4042 15.0212 18.1265 15.4993C16.9096 17.5942 14.6377 19 12.0373 19C8.15526 19 5.00828 15.866 5.00828 12Z" fill="black" fill-opacity="0.4"/>
<path d="M22 11H14L22 3V11Z" fill="black"/>
</svg>
