<svg width="24" height="24" viewBox="0 0 24 24" fill="none" xmlns="http://www.w3.org/2000/svg">
<path fill-rule="evenodd" clip-rule="evenodd" d="M17 3C19.2091 3 21 4.79086 21 7V17C21 19.2091 19.2091 21 17 21H7C4.79086 21 3 19.2091 3 17V7C3 4.79086 4.79086 3 7 3L17 3ZM19 7C19 5.89543 18.1046 5 17 5L7 5C5.89543 5 5 5.89543 5 7V17C5 18.1046 5.89543 19 7 19H17C18.1046 19 19 18.1046 19 17V7Z" fill="black" fill-opacity="0.4"/>
<path fill-rule="evenodd" clip-rule="evenodd" d="M16 13C16.5523 13 17 12.5523 17 12C17 11.4477 16.5523 11 16 11H10.4141L13.4142 7.99991L12 6.58569L7.29286 11.2928C7.17755 11.4081 7.09629 11.5446 7.04908 11.6897C7.02582 11.761 7.01037 11.8358 7.00371 11.9132C6.99935 11.9637 6.9988 12.0145 7.00208 12.065C7.00954 12.1812 7.03683 12.292 7.0806 12.394C7.1182 12.4818 7.16896 12.5653 7.23288 12.6415C7.25396 12.6667 7.27625 12.6908 7.29967 12.7138L12 17.4141L13.4142 15.9999L10.4143 13H16Z" fill="black"/>
</svg>
