<svg width="24" height="24" viewBox="0 0 24 24" fill="none" xmlns="http://www.w3.org/2000/svg">
<path fill-rule="evenodd" clip-rule="evenodd" d="M11.0001 5.41439L12.0003 4.41422L13.0001 5.41405V9C13.0001 9.55229 12.5524 10 12.0001 10C11.4478 10 11.0001 9.55229 11.0001 9V5.41439ZM11.0001 18.5856L12.0003 19.5858L13.0001 18.586V15C13.0001 14.4477 12.5524 14 12.0001 14C11.4478 14 11.0001 14.4477 11.0001 15V18.5856ZM18.5859 11L19.5859 11.9999L18.5858 13H15.0001C14.4478 13 14.0001 12.5523 14.0001 12C14.0001 11.4477 14.4478 11 15.0001 11H18.5859ZM5.41436 13L4.41431 11.9999L5.41426 11H9.00009C9.55238 11 10.0001 11.4477 10.0001 12C10.0001 12.5523 9.55238 13 9.00009 13H5.41436Z" fill="black" fill-opacity="0.4"/>
<path fill-rule="evenodd" clip-rule="evenodd" d="M12.7073 2.2929C12.5198 2.10536 12.2654 2 12.0002 2C11.735 2 11.4806 2.10535 11.2931 2.29289L7.58594 5.99999L9.00014 7.41421L12.0002 4.41421L15.0001 7.41421L16.4144 6.00001L12.7073 2.2929ZM12.7073 21.7071C12.5198 21.8946 12.2654 22 12.0002 22C11.735 22 11.4806 21.8946 11.2931 21.7071L7.58594 18L9.00014 16.5858L12.0002 19.5858L15.0001 16.5858L16.4144 18L12.7073 21.7071ZM22 11.9999C22 11.7347 21.8946 11.4803 21.7071 11.2928L18 7.58576L16.5858 8.99998L19.5858 11.9999L16.5858 15L18 16.4142L21.7071 12.707C21.8946 12.5195 22 12.2651 22 11.9999ZM2.2929 11.2928C2.10536 11.4803 2 11.7347 2 11.9999C2 12.2651 2.10535 12.5195 2.29289 12.707L5.99999 16.4142L7.41421 15L4.41421 11.9999L7.41421 8.99998L6.00001 7.58576L2.2929 11.2928Z" fill="black"/>
</svg>
