<svg width="24" height="24" viewBox="0 0 24 24" fill="none" xmlns="http://www.w3.org/2000/svg">
<path fill-rule="evenodd" clip-rule="evenodd" d="M12 4C7.58172 4 4 7.58172 4 12C4 16.4183 7.58172 20 12 20C16.4183 20 20 16.4183 20 12C20 7.58172 16.4183 4 12 4ZM2 12C2 6.47715 6.47715 2 12 2C17.5228 2 22 6.47715 22 12C22 17.5228 17.5228 22 12 22C6.47715 22 2 17.5228 2 12Z" fill="black" fill-opacity="0.4"/>
<path fill-rule="evenodd" clip-rule="evenodd" d="M16 13C16.5523 13 17 12.5523 17 12C17 11.4477 16.5523 11 16 11H10.4141L13.4142 7.99991L12 6.58569L7.29286 11.2928C7.17755 11.4081 7.09629 11.5446 7.04908 11.6897C7.02582 11.761 7.01037 11.8358 7.00371 11.9132C6.99935 11.9637 6.9988 12.0145 7.00208 12.065C7.00954 12.1812 7.03683 12.292 7.0806 12.394C7.1182 12.4818 7.16896 12.5653 7.23288 12.6415C7.25396 12.6667 7.27625 12.6908 7.29967 12.7138L12 17.4141L13.4142 15.9999L10.4143 13H16Z" fill="black"/>
</svg>
