<svg width="24" height="24" viewBox="0 0 24 24" fill="none" xmlns="http://www.w3.org/2000/svg">
<path fill-rule="evenodd" clip-rule="evenodd" d="M12 4C7.58172 4 4 7.58172 4 12C4 16.4183 7.58172 20 12 20C16.4183 20 20 16.4183 20 12C20 7.58172 16.4183 4 12 4ZM2 12C2 6.47715 6.47715 2 12 2C17.5228 2 22 6.47715 22 12C22 17.5228 17.5228 22 12 22C6.47715 22 2 17.5228 2 12Z" fill="black" fill-opacity="0.4"/>
<path fill-rule="evenodd" clip-rule="evenodd" d="M15.7071 9.70711C16.0976 9.31658 16.0976 8.68342 15.7071 8.29289C15.3166 7.90237 14.6834 7.90237 14.2929 8.29289L10 12.5858V8H8V15C8 15.5523 8.44772 16 9 16H16V14H11.4142L15.7071 9.70711Z" fill="black"/>
</svg>
