<svg width="40" height="40" viewBox="0 0 40 40" fill="none" xmlns="http://www.w3.org/2000/svg">
<path opacity="0.3" d="M24.3686 28.9332C24.7497 28.7901 24.9999 28.441 24.9999 28.0526V21.0493C24.9999 20.8284 24.8208 20.6493 24.5999 20.6493H16.233C15.8772 20.6493 15.6985 21.0788 15.9492 21.3312L23.2717 28.7019C23.5527 28.9847 23.9875 29.0764 24.3686 28.9332Z" fill="black"/>
<path d="M24.9999 11.9474C24.9999 11.559 24.7497 11.2099 24.3686 11.0668C23.9875 10.9236 23.5527 11.0153 23.2717 11.2981L15.9492 18.6688C15.6985 18.9212 15.8772 19.3507 16.233 19.3507H24.5999C24.8208 19.3507 24.9999 19.1716 24.9999 18.9507V11.9474Z" fill="black"/>
</svg>
