<svg width="24" height="24" viewBox="0 0 24 24" fill="none" xmlns="http://www.w3.org/2000/svg">
<path fill-rule="evenodd" clip-rule="evenodd" d="M3 17C3 19.2091 4.79086 21 7 21H17C19.2091 21 21 19.2091 21 17V7C21 4.79086 19.2091 3 17 3H7C4.79086 3 3 4.79086 3 7V17ZM7 19C5.89543 19 5 18.1046 5 17V7C5 5.89543 5.89543 5 7 5H17C18.1046 5 19 5.89543 19 7V17C19 18.1046 18.1046 19 17 19H7Z" fill="black" fill-opacity="0.4"/>
<path fill-rule="evenodd" clip-rule="evenodd" d="M13.0002 16C13.0002 16.5523 12.5525 17 12.0002 17C11.448 17 11.0002 16.5523 11.0002 16V10.4141L8.00015 13.4142L6.58594 12L11.293 7.29286C11.4084 7.17755 11.5448 7.09629 11.6899 7.04908C11.7613 7.02582 11.8361 7.01037 11.9134 7.00371C11.9639 6.99935 12.0147 6.9988 12.0653 7.00208C12.1814 7.00954 12.2922 7.03683 12.3942 7.0806C12.482 7.1182 12.5655 7.16896 12.6418 7.23288C12.667 7.25396 12.6911 7.27625 12.7141 7.29967L17.4144 12L16.0002 13.4142L13.0002 10.4143V16Z" fill="black"/>
</svg>
