<svg width="24" height="24" viewBox="0 0 24 24" fill="none" xmlns="http://www.w3.org/2000/svg">
<path fill-rule="evenodd" clip-rule="evenodd" d="M4 12C4 11.4477 4.44772 11 5 11H19C19.5523 11 20 11.4477 20 12C20 12.5523 19.5523 13 19 13H5C4.44772 13 4 12.5523 4 12Z" fill="black" fill-opacity="0.4"/>
<path fill-rule="evenodd" clip-rule="evenodd" d="M13.0002 3C13.0002 2.44772 12.5525 2 12.0002 2C11.448 2 11.0002 2.44772 11.0002 3V6.58591L9.00015 4.58582L7.58594 6.00003L11.293 9.70714C11.6836 10.0977 12.3167 10.0977 12.7073 9.70714L16.4144 6.00003L15.0002 4.58582L13.0002 6.58572V3ZM15.0004 19.4142L13.0003 17.4141V21C13.0003 21.5523 12.5526 22 12.0003 22C11.448 22 11.0003 21.5523 11.0003 21V17.4143L9.0004 19.4142L7.58618 18L11.2933 14.2929C11.6838 13.9024 12.317 13.9024 12.7075 14.2929L16.4146 18L15.0004 19.4142Z" fill="black"/>
</svg>
