<svg width="24" height="24" viewBox="0 0 24 24" fill="none" xmlns="http://www.w3.org/2000/svg">
<path fill-rule="evenodd" clip-rule="evenodd" d="M18 4C18 3.44772 17.5523 3 17 3C16.4477 3 16 3.44772 16 4V16.5859L16.9999 17.5858L18 16.5857V4ZM8 7.41431L6.99991 6.41421L6 7.41412V20C6 20.5523 6.44772 21 7 21C7.55228 21 8 20.5523 8 20V7.41431Z" fill="black" fill-opacity="0.4"/>
<path fill-rule="evenodd" clip-rule="evenodd" d="M7.70701 4.29289C7.31649 3.90237 6.68332 3.90237 6.2928 4.29289L1.58569 9L2.99991 10.4142L6.99991 6.41421L10.9999 10.4142L12.4141 9L7.70701 4.29289ZM17.707 19.7071C17.3165 20.0976 16.6833 20.0976 16.2928 19.7071L11.5857 15L12.9999 13.5858L16.9999 17.5858L20.9999 13.5858L22.4141 15L17.707 19.7071Z" fill="black"/>
</svg>
