<svg width="24" height="24" viewBox="0 0 24 24" fill="none" xmlns="http://www.w3.org/2000/svg">
<path fill-rule="evenodd" clip-rule="evenodd" d="M19 6.41421V5H17.5858L13.2929 9.29289C12.9024 9.68342 12.9024 10.3166 13.2929 10.7071C13.6834 11.0976 14.3166 11.0976 14.7071 10.7071L19 6.41421ZM6.41421 19H5V17.5858L9.29289 13.2929C9.68342 12.9024 10.3166 12.9024 10.7071 13.2929C11.0976 13.6834 11.0976 14.3166 10.7071 14.7071L6.41421 19Z" fill="black" fill-opacity="0.4"/>
<path fill-rule="evenodd" clip-rule="evenodd" d="M19 5V11H21V4C21 3.44772 20.5523 3 20 3H13V5H19ZM5 19V13H3V20C3 20.5523 3.44772 21 4 21H11V19H5Z" fill="black"/>
</svg>
