<svg width="24" height="24" viewBox="0 0 24 24" fill="none" xmlns="http://www.w3.org/2000/svg">
<path fill-rule="evenodd" clip-rule="evenodd" d="M11 6H13V9C13 9.55229 12.5523 10 12 10C11.4477 10 11 9.55229 11 9V6ZM6 11V13H9C9.55229 13 10 12.5523 10 12C10 11.4477 9.55229 11 9 11H6ZM15 11H18V13H15C14.4477 13 14 12.5523 14 12C14 11.4477 14.4477 11 15 11ZM13 15V18H11V15C11 14.4477 11.4477 14 12 14C12.5523 14 13 14.4477 13 15Z" fill="black" fill-opacity="0.4"/>
<path fill-rule="evenodd" clip-rule="evenodd" d="M8 6L12 2L16 6H8ZM2 12L6 16V8L2 12ZM22 12L18 16V8L22 12ZM12 22L8 18H16L12 22Z" fill="black"/>
</svg>
