<svg width="24" height="24" viewBox="0 0 24 24" fill="none" xmlns="http://www.w3.org/2000/svg">
<path fill-rule="evenodd" clip-rule="evenodd" d="M4 18C3.44772 18 3 17.5523 3 17C3 16.4477 3.44772 16 4 16H16.5859L17.5858 16.9999L16.5857 18H4ZM7.41431 8L6.41421 6.99991L7.41412 6L20 6C20.5523 6 21 6.44772 21 7C21 7.55228 20.5523 8 20 8H7.41431Z" fill="black" fill-opacity="0.4"/>
<path fill-rule="evenodd" clip-rule="evenodd" d="M4.29289 7.70701C3.90237 7.31649 3.90237 6.68332 4.29289 6.2928L9 1.58569L10.4142 2.99991L6.41421 6.99991L10.4142 10.9999L9 12.4141L4.29289 7.70701ZM19.7071 17.707C20.0976 17.3165 20.0976 16.6833 19.7071 16.2928L15 11.5857L13.5858 12.9999L17.5858 16.9999L13.5858 20.9999L15 22.4141L19.7071 17.707Z" fill="black"/>
</svg>
