<svg width="24" height="24" viewBox="0 0 24 24" fill="none" xmlns="http://www.w3.org/2000/svg">
<path fill-rule="evenodd" clip-rule="evenodd" d="M13 11.0001H20C19 10 14 5 13 4.00012V11.0001ZM11 13.0001H4C8.99861 17.9987 6.52833 15.5285 11 20.0001V13.0001Z" fill="black"/>
<path fill-rule="evenodd" clip-rule="evenodd" d="M17.2071 8.20711L20.7071 4.70711C21.0976 4.31658 21.0976 3.68342 20.7071 3.29289C20.3166 2.90237 19.6834 2.90237 19.2929 3.29289L15.7929 6.79289L17.2071 8.20711ZM6.79289 15.7929L3.29289 19.2929C2.90237 19.6834 2.90237 20.3166 3.29289 20.7071C3.68342 21.0976 4.31658 21.0976 4.70711 20.7071L8.20711 17.2071L6.79289 15.7929Z" fill="black" fill-opacity="0.4"/>
</svg>
