<svg width="24" height="24" viewBox="0 0 24 24" fill="none" xmlns="http://www.w3.org/2000/svg">
<path fill-rule="evenodd" clip-rule="evenodd" d="M4 12C4 11.4477 4.44772 11 5 11H19C19.5523 11 20 11.4477 20 12C20 12.5523 19.5523 13 19 13H5C4.44772 13 4 12.5523 4 12Z" fill="black" fill-opacity="0.4"/>
<path fill-rule="evenodd" clip-rule="evenodd" d="M10.9998 9.00003C10.9998 9.55231 11.4475 10 11.9998 10C12.5521 10 12.9998 9.55231 12.9998 9.00003V5.41412L14.9999 7.41421L16.4141 6L12.707 2.29289C12.3165 1.90237 11.6833 1.90237 11.2928 2.29289L7.58569 6L8.99991 7.41421L10.9998 5.41431V9.00003ZM9.00015 16.5858L11.0002 18.5859V15C11.0002 14.4477 11.448 14 12.0002 14C12.5525 14 13.0002 14.4477 13.0002 15V18.5857L15.0002 16.5858L16.4144 18L12.7073 21.7071C12.3167 22.0977 11.6836 22.0977 11.293 21.7071L7.58594 18L9.00015 16.5858Z" fill="black"/>
</svg>
