<svg width="24" height="24" viewBox="0 0 24 24" fill="none" xmlns="http://www.w3.org/2000/svg">
<path fill-rule="evenodd" clip-rule="evenodd" d="M3 20C3 20.5523 3.44772 21 4 21H20C20.5523 21 21 20.5523 21 20C21 19.4477 20.5523 19 20 19H4C3.44772 19 3 19.4477 3 20Z" fill="black" fill-opacity="0.4"/>
<path fill-rule="evenodd" clip-rule="evenodd" d="M13 16C13 16.5523 12.5523 17 12 17C11.4477 17 11 16.5523 11 16V6.41434L7.00015 10.4142L5.58594 8.99997L11.2836 3.30228C11.3198 3.26519 11.3588 3.23089 11.4002 3.19975C11.454 3.15935 11.5109 3.12507 11.57 3.09693C11.6826 3.04319 11.8069 3.00991 11.938 3.00189C11.9916 2.99857 12.0455 2.99955 12.099 3.00484C12.163 3.01113 12.2253 3.02347 12.2852 3.04127C12.4397 3.08706 12.5853 3.17092 12.7073 3.29286L18.4144 8.99997L17.0002 10.4142L13 6.41403V16Z" fill="black"/>
</svg>
