<svg width="24" height="24" viewBox="0 0 24 24" fill="none" xmlns="http://www.w3.org/2000/svg">
<path fill-rule="evenodd" clip-rule="evenodd" d="M12 20C7.58172 20 4 16.4183 4 12C4 7.58172 7.58172 4 12 4C16.4183 4 20 7.58172 20 12C20 16.4183 16.4183 20 12 20ZM2 12C2 17.5228 6.47715 22 12 22C17.5228 22 22 17.5228 22 12C22 6.47715 17.5228 2 12 2C6.47715 2 2 6.47715 2 12Z" fill="black" fill-opacity="0.4"/>
<path fill-rule="evenodd" clip-rule="evenodd" d="M13.0002 16C13.0002 16.5523 12.5525 17 12.0002 17C11.448 17 11.0002 16.5523 11.0002 16V10.4141L8.00015 13.4142L6.58594 12L11.293 7.29286C11.4084 7.17755 11.5448 7.09629 11.6899 7.04908C11.7613 7.02582 11.8361 7.01037 11.9134 7.00371C11.9639 6.99935 12.0147 6.9988 12.0653 7.00208C12.1814 7.00954 12.2922 7.03683 12.3942 7.0806C12.482 7.1182 12.5655 7.16896 12.6418 7.23288C12.667 7.25396 12.6911 7.27625 12.7141 7.29967L17.4144 12L16.0002 13.4142L13.0002 10.4143V16Z" fill="black"/>
</svg>
