<svg width="24" height="24" viewBox="0 0 24 24" fill="none" xmlns="http://www.w3.org/2000/svg">
<path fill-rule="evenodd" clip-rule="evenodd" d="M3 7C3 4.79086 4.79086 3 7 3H17C19.2091 3 21 4.79086 21 7V17C21 19.2091 19.2091 21 17 21H7C4.79086 21 3 19.2091 3 17V7ZM7 5C5.89543 5 5 5.89543 5 7V17C5 18.1046 5.89543 19 7 19H17C18.1046 19 19 18.1046 19 17V7C19 5.89543 18.1046 5 17 5H7Z" fill="black" fill-opacity="0.4"/>
<path fill-rule="evenodd" clip-rule="evenodd" d="M13 8C13 7.44772 12.5523 7 12 7C11.4477 7 11 7.44772 11 8V13.5859L7.99991 10.5858L6.58569 12L11.2928 16.7071C11.4081 16.8224 11.5446 16.9037 11.6897 16.9509C11.761 16.9742 11.8358 16.9896 11.9132 16.9963C11.9637 17.0007 12.0145 17.0012 12.065 16.9979C12.1812 16.9905 12.292 16.9632 12.394 16.9194C12.4818 16.8818 12.5653 16.831 12.6415 16.7671C12.6667 16.746 12.6908 16.7237 12.7138 16.7003L17.4141 12L15.9999 10.5858L13 13.5857V8Z" fill="black"/>
</svg>
