<svg width="24" height="24" viewBox="0 0 24 24" fill="none" xmlns="http://www.w3.org/2000/svg">
<path d="M11.9922 1.9989C11.4402 1.9989 10.9922 2.4469 10.9922 2.9989V8.9989C10.9922 9.5509 11.4402 9.9989 11.9922 9.9989C12.5442 9.9989 12.9922 9.5509 12.9922 8.9989V2.9989C12.9922 2.4469 12.5442 1.9989 11.9922 1.9989ZM3.92974 6.52991C3.68254 6.59591 3.47404 6.7599 3.33604 6.9989C3.05984 7.4769 3.23264 8.0979 3.71104 8.3739L8.89843 11.3739C9.37673 11.6499 9.99723 11.4769 10.2732 10.9989C10.5492 10.5209 10.3772 9.8999 9.89843 9.6239L4.71104 6.6239C4.47184 6.4859 4.17694 6.46391 3.92974 6.52991ZM20.0542 6.52991C19.8072 6.46391 19.5122 6.4859 19.2732 6.6239L14.0862 9.6239C13.6072 9.8999 13.4352 10.5209 13.7112 10.9989C13.9872 11.4769 14.6072 11.6499 15.0862 11.3739L20.2732 8.3739C20.7522 8.0979 20.9242 7.4769 20.6482 6.9989C20.5102 6.7599 20.3022 6.59591 20.0542 6.52991ZM9.64843 12.5299C9.40123 12.4639 9.13763 12.4859 8.89843 12.6239L3.71104 15.6239C3.23274 15.8999 3.05984 16.5209 3.33604 16.9989C3.61214 17.4769 4.23274 17.6499 4.71104 17.3739L9.89843 14.3739C10.3772 14.0979 10.5182 13.4769 10.2422 12.9989C10.1042 12.7599 9.89573 12.5959 9.64843 12.5299ZM14.3362 12.5299C14.0892 12.5959 13.8802 12.7599 13.7422 12.9989C13.4662 13.4769 13.6392 14.0979 14.1172 14.3739L19.2732 17.3739C19.7522 17.6499 20.3722 17.4769 20.6482 16.9989C20.9242 16.5209 20.7522 15.8999 20.2732 15.6239L15.1172 12.6549C14.8782 12.5169 14.5832 12.4639 14.3362 12.5299ZM11.9922 13.9989C11.4402 13.9989 10.9922 14.4469 10.9922 14.9989V20.9989C10.9922 21.5509 11.4402 21.9989 11.9922 21.9989C12.5442 21.9989 12.9922 21.5509 12.9922 20.9989V14.9989C12.9922 14.4469 12.5442 13.9989 11.9922 13.9989Z" fill="black"/>
</svg>
