<svg width="24" height="24" viewBox="0 0 24 24" fill="none" xmlns="http://www.w3.org/2000/svg">
<path d="M11.9923 1.9989C11.4403 1.9989 10.9923 2.4469 10.9923 2.9989V10.2489L4.71133 6.6239C4.47233 6.4859 4.17734 6.46391 3.93034 6.52991C3.68234 6.59591 3.47433 6.7599 3.33633 6.9989C3.06033 7.4769 3.23233 8.0979 3.71133 8.3739L9.96133 11.9989L3.71133 15.6239C3.23233 15.8999 3.06033 16.5209 3.33633 16.9989C3.61233 17.4769 4.23233 17.6499 4.71133 17.3739L10.9923 13.7489V20.9989C10.9923 21.5509 11.4403 21.9989 11.9923 21.9989C12.5443 21.9989 12.9923 21.5509 12.9923 20.9989V13.7489L19.2733 17.3739C19.7523 17.6499 20.3723 17.4769 20.6483 16.9989C20.9243 16.5209 20.7523 15.8999 20.2733 15.6239L14.0233 11.9989L20.2733 8.3739C20.7523 8.0979 20.9243 7.4769 20.6483 6.9989C20.5103 6.7599 20.3023 6.59591 20.0543 6.52991C19.8073 6.46391 19.5123 6.4859 19.2733 6.6239L12.9923 10.2489V2.9989C12.9923 2.4469 12.5443 1.9989 11.9923 1.9989Z" fill="black"/>
</svg>
