<svg width="24" height="24" viewBox="0 0 24 24" fill="none" xmlns="http://www.w3.org/2000/svg">
<path fill-rule="evenodd" clip-rule="evenodd" d="M4 12C4 7.58172 7.58172 4 12 4C16.4183 4 20 7.58172 20 12V13.5C20 14.0228 19.8301 14.3807 19.6054 14.6054C19.3807 14.8301 19.0228 15 18.5 15C17.5836 15 17 14.3603 17 13.5V12C17 13.3551 16.4609 14.5844 15.5854 15.4849C16.1876 16.3942 17.2174 17 18.5 17C19.4772 17 20.3693 16.6699 21.0196 16.0196C21.6699 15.3693 22 14.4772 22 13.5V12C22 6.47715 17.5228 2 12 2C6.47715 2 2 6.47715 2 12C2 17.5228 6.47715 22 12 22C13.6511 22 15.2116 21.599 16.5864 20.8883C17.077 20.6347 17.2691 20.0314 17.0155 19.5408C16.7619 19.0502 16.1586 18.8581 15.668 19.1117C14.5704 19.6791 13.3241 20 12 20C7.58172 20 4 16.4183 4 12Z" fill="black" fill-opacity="0.4"/>
<path fill-rule="evenodd" clip-rule="evenodd" d="M12 9C10.3431 9 9 10.3431 9 12C9 13.6569 10.3431 15 12 15C13.6569 15 15 13.6569 15 12C15 11.4477 15.4477 11 16 11C16.5523 11 17 11.4477 17 12C17 14.7614 14.7614 17 12 17C9.23858 17 7 14.7614 7 12C7 9.23858 9.23858 7 12 7C12.9091 7 13.7643 7.24351 14.5007 7.66952C14.9788 7.94607 15.1421 8.55779 14.8656 9.03585C14.5891 9.51392 13.9773 9.67728 13.4993 9.40073C13.059 9.14607 12.5481 9 12 9Z" fill="black"/>
</svg>
