<svg width="40" height="40" viewBox="0 0 40 40" fill="none" xmlns="http://www.w3.org/2000/svg">
<path opacity="0.3" fill-rule="evenodd" clip-rule="evenodd" d="M11.8333 10.5638C11.8333 9.30065 12.665 8.16271 13.9037 7.84171C16.4241 7.18856 19.0124 6.91553 21.5896 7.02263C18.2785 8.65242 16 12.0601 16 16C16 21.3608 20.6893 25.7363 26.0153 25.9885C24.7617 27.0584 23.2095 27.7723 21.5 27.9744V31H23.375C23.9273 31 24.375 31.4477 24.375 32C24.375 32.5523 23.9273 33 23.375 33H17.625C17.0727 33 16.625 32.5523 16.625 32C16.625 31.4477 17.0727 31 17.625 31H19.5V27.9744C15.789 27.5357 12.8195 24.6851 12.0362 21.0174C11.8289 21.058 11.6148 21.0794 11.3958 21.0794C9.48681 21.0794 8 19.4856 8 17.5959V14.6157C8 12.726 9.48681 11.1323 11.3958 11.1323C11.5441 11.1323 11.6901 11.1421 11.8333 11.161V10.5638ZM11.8333 13.2064C11.6954 13.1581 11.5484 13.1323 11.3958 13.1323C10.6585 13.1323 10 13.7623 10 14.6157V17.5959C10 18.4494 10.6585 19.0794 11.3958 19.0794C11.5484 19.0794 11.6953 19.0536 11.8333 19.0052V13.2064Z" fill="black"/>
<path fill-rule="evenodd" clip-rule="evenodd" d="M28.9638 21.0173C29.1711 21.058 29.3852 21.0793 29.6042 21.0793C31.5132 21.0793 33 19.4856 33 17.5958V14.6157C33 12.726 31.5132 11.1322 29.6042 11.1322C29.4559 11.1322 29.3099 11.142 29.1667 11.1609V10.5637C29.1667 9.3006 28.335 8.16267 27.0963 7.84167C25.286 7.37253 23.4407 7.09951 21.5896 7.02258C18.2785 8.65237 16 12.0601 16 16C16 21.3607 20.6893 25.7363 26.0153 25.9885C27.4829 24.7359 28.5413 22.9955 28.9638 21.0173ZM29.6042 19.0793C29.4516 19.0793 29.3047 19.0535 29.1667 19.0052V13.2064C29.3046 13.158 29.4516 13.1322 29.6042 13.1322C30.3415 13.1322 31 13.7622 31 14.6157V17.5958C31 18.4493 30.3415 19.0793 29.6042 19.0793Z" fill="black"/>
</svg>
