<svg width="24" height="24" viewBox="0 0 24 24" fill="none" xmlns="http://www.w3.org/2000/svg">
<path fill-rule="evenodd" clip-rule="evenodd" d="M14.8791 3.06801C13.2036 1.644 10.7964 1.644 9.12094 3.06801L8.96577 3.08036C6.88229 3.24617 5.22272 4.96162 5.04932 7.12867C3.65023 8.76602 3.65023 11.234 5.04932 12.8713C5.22272 15.0384 6.88229 16.7538 8.96577 16.9196L9.12094 16.932C10.7964 18.356 13.2036 18.356 14.8791 16.932L15.0342 16.9196C17.1177 16.7538 18.7773 15.0384 18.9507 12.8713C20.3498 11.234 20.3498 8.76602 18.9507 7.12867C18.7773 4.96162 17.1177 3.24617 15.0342 3.08036L14.8791 3.06801ZM12 16C15.3137 16 18 13.3137 18 10C18 6.68629 15.3137 4 12 4C8.68629 4 6 6.68629 6 10C6 13.3137 8.68629 16 12 16Z" fill="black"/>
<path fill-rule="evenodd" clip-rule="evenodd" d="M15 16.9224L15.0342 16.9196C15.7548 16.8623 16.4248 16.6196 17 16.2369V21C17 21.5523 16.5523 22 16 22H15C14.8925 22 14.7857 21.9827 14.6838 21.9487L12 21.0541L9.31623 21.9487C9.21426 21.9827 9.10748 22 9 22H8C7.44772 22 7 21.5523 7 21V16.2369C7.57524 16.6196 8.24515 16.8623 8.96577 16.9196L9 16.9224V19.9459L11.6838 19.0513C11.889 18.9829 12.111 18.9829 12.3162 19.0513L15 19.9459V16.9224ZM12 8C10.8954 8 10 8.89543 10 10C10 11.1046 10.8954 12 12 12C13.1046 12 14 11.1046 14 10C14 8.89543 13.1046 8 12 8ZM8 10C8 7.79086 9.79086 6 12 6C14.2091 6 16 7.79086 16 10C16 12.2091 14.2091 14 12 14C9.79086 14 8 12.2091 8 10Z" fill="black" fill-opacity="0.4"/>
</svg>
