<svg width="24" height="24" viewBox="0 0 24 24" fill="none" xmlns="http://www.w3.org/2000/svg">
<path d="M10.0273 3.99804C9.19601 3.98904 8.45578 4.23305 7.80758 4.65405C7.42546 4.90205 7.12835 5.17704 6.9643 5.37304C6.86026 5.48604 2.99008 9.75103 2.83703 9.93603C1.63566 11.388 1.80971 12.8221 2.83703 14.1541C3.09611 14.4891 3.79132 15.2231 4.80664 16.3101C4.84265 16.3481 6.80426 18.4261 6.9323 18.5601C7.04134 18.7051 7.34442 19.0061 7.74555 19.2791C8.40675 19.7311 9.15999 19.991 10.0273 19.998H17.9987C20.2054 19.998 22 18.207 22 15.998C22 14.998 22 8.99804 22 7.99804C22 5.78904 20.2064 3.99804 17.9987 3.99804H10.0273ZM10.0273 5.99804H17.9987C19.1031 5.99804 19.9994 6.89404 19.9994 7.99804C19.9994 8.99804 19.9994 14.998 19.9994 15.998C19.9994 17.102 19.1031 17.998 17.9987 17.998H10.0273C9.59613 17.994 9.22601 17.865 8.8709 17.623C8.65383 17.475 8.48579 17.315 8.43277 17.248C8.24472 17.045 6.3111 15.004 6.27609 14.967C5.3188 13.941 4.63359 13.197 4.43152 12.936C3.91936 12.271 3.88135 11.844 4.40051 11.217C4.52355 11.069 5.27278 10.214 6.40113 8.96704C6.40814 8.95904 8.36574 6.82803 8.49578 6.68603C8.5678 6.60103 8.70285 6.47104 8.90191 6.34204C9.24002 6.12204 9.61114 5.99404 10.0273 5.99804Z" fill="black" fill-opacity="0.4"/>
<path fill-rule="evenodd" clip-rule="evenodd" d="M11.7071 9.29289C11.3166 8.90237 10.6834 8.90237 10.2929 9.29289C9.90237 9.68342 9.90237 10.3166 10.2929 10.7071L11.5858 12L10.2929 13.2929C9.90237 13.6834 9.90237 14.3166 10.2929 14.7071C10.6834 15.0976 11.3166 15.0976 11.7071 14.7071L13 13.4142L14.2929 14.7071C14.6834 15.0976 15.3166 15.0976 15.7071 14.7071C16.0976 14.3166 16.0976 13.6834 15.7071 13.2929L14.4142 12L15.7071 10.7071C16.0977 10.3166 16.0977 9.68342 15.7072 9.2929C15.3166 8.90237 14.6835 8.90237 14.2929 9.29289L13 10.5858L11.7071 9.29289Z" fill="black"/>
</svg>
