<svg width="24" height="24" viewBox="0 0 24 24" fill="none" xmlns="http://www.w3.org/2000/svg">
<path d="M13.9727 20.002C14.804 20.011 15.5442 19.767 16.1924 19.346C16.5745 19.098 16.8717 18.823 17.0357 18.627C17.1397 18.514 21.0099 14.249 21.163 14.064C22.3643 12.612 22.1903 11.1779 21.163 9.84595C20.9039 9.51095 20.2087 8.77694 19.1934 7.68994C19.1573 7.65194 17.1957 5.57394 17.0677 5.43994C16.9587 5.29494 16.6556 4.99395 16.2545 4.72095C15.5932 4.26895 14.84 4.00895 13.9727 4.00195L6.00125 4.00195C3.79456 4.00195 2 5.79295 2 8.00195C2 9.00195 2 15.002 2 16.002C2 18.211 3.79356 20.002 6.00125 20.002L13.9727 20.002ZM13.9727 18.002H6.00125C4.89691 18.002 4.00062 17.106 4.00062 16.002C4.00062 15.002 4.00062 9.00195 4.00062 8.00195C4.00062 6.89795 4.89691 6.00195 6.00125 6.00195H13.9727C14.4039 6.00595 14.774 6.13495 15.1291 6.37695C15.3462 6.52495 15.5142 6.68495 15.5672 6.75195C15.7553 6.95495 17.6889 8.99596 17.7239 9.03296C18.6812 10.059 19.3664 10.803 19.5685 11.064C20.0806 11.729 20.1187 12.156 19.5995 12.783C19.4765 12.931 18.7272 13.786 17.5989 15.033C17.5919 15.041 15.6343 17.172 15.5042 17.314C15.4322 17.399 15.2971 17.529 15.0981 17.658C14.76 17.878 14.3889 18.006 13.9727 18.002Z" fill="black" fill-opacity="0.4"/>
<path fill-rule="evenodd" clip-rule="evenodd" d="M12.2929 14.7071C12.6834 15.0976 13.3166 15.0976 13.7071 14.7071C14.0976 14.3166 14.0976 13.6834 13.7071 13.2929L12.4142 12L13.7071 10.7071C14.0976 10.3166 14.0976 9.68342 13.7071 9.2929C13.3166 8.90237 12.6834 8.90237 12.2929 9.29289L11 10.5858L9.70711 9.29289C9.31658 8.90237 8.68342 8.90237 8.29289 9.29289C7.90237 9.68342 7.90237 10.3166 8.29289 10.7071L9.58577 12L8.29285 13.2929C7.90232 13.6834 7.90232 14.3166 8.29284 14.7071C8.68336 15.0976 9.31653 15.0976 9.70706 14.7071L11 13.4142L12.2929 14.7071Z" fill="black"/>
</svg>
