<svg width="24" height="24" viewBox="0 0 24 24" fill="none" xmlns="http://www.w3.org/2000/svg">
<path fill-rule="evenodd" clip-rule="evenodd" d="M7 17C7 19.2091 8.79086 21 11 21H17C19.2091 21 21 19.2091 21 17V11C21 8.79086 19.2091 7 17 7V13C17 15.2091 15.2091 17 13 17H7Z" fill="black" fill-opacity="0.4"/>
<path fill-rule="evenodd" clip-rule="evenodd" d="M3 7C3 4.79086 4.79086 3 7 3H13C15.2091 3 17 4.79086 17 7V13C17 15.2091 15.2091 17 13 17H7C4.79086 17 3 15.2091 3 13V7ZM7 5C5.89543 5 5 5.89543 5 7V13C5 14.1046 5.89543 15 7 15H13C14.1046 15 15 14.1046 15 13V7C15 5.89543 14.1046 5 13 5H7Z" fill="black"/>
</svg>
