<svg width="24" height="24" viewBox="0 0 24 24" fill="none" xmlns="http://www.w3.org/2000/svg">
<path d="M9.99611 3.99804C9.16484 3.98904 8.45563 4.23305 7.80742 4.65405C7.42629 4.90205 7.12818 5.17704 6.96413 5.37304C6.86009 5.48604 2.98984 9.75103 2.83779 9.93603C1.6354 11.388 1.80946 12.8221 2.83779 14.1541C3.09587 14.4891 3.79112 15.2231 4.80644 16.3101C4.84246 16.3481 6.80407 18.4261 6.93311 18.5601C7.04115 18.7051 7.34426 19.0061 7.74538 19.2791C8.4076 19.7311 9.12883 19.991 9.99611 19.998H17.9987C20.2054 19.998 22 18.207 22 15.998C22 14.998 22 8.99804 22 7.99804C22 5.78904 20.2064 3.99804 17.9987 3.99804H9.99611Z" fill="black" fill-opacity="0.4"/>
<path fill-rule="evenodd" clip-rule="evenodd" d="M11.7071 9.29289C11.3166 8.90237 10.6834 8.90237 10.2929 9.29289C9.90237 9.68342 9.90237 10.3166 10.2929 10.7071L11.5858 12L10.2929 13.2929C9.90237 13.6834 9.90237 14.3166 10.2929 14.7071C10.6834 15.0976 11.3166 15.0976 11.7071 14.7071L13 13.4142L14.2929 14.7071C14.6834 15.0976 15.3166 15.0976 15.7071 14.7071C16.0976 14.3166 16.0976 13.6834 15.7071 13.2929L14.4142 12L15.7071 10.7071C16.0977 10.3166 16.0977 9.68342 15.7072 9.2929C15.3166 8.90237 14.6835 8.90237 14.2929 9.29289L13 10.5858L11.7071 9.29289Z" fill="black"/>
</svg>
