<svg width="24" height="24" viewBox="0 0 24 24" fill="none" xmlns="http://www.w3.org/2000/svg">
<path d="M14.0039 20.002C14.8352 20.011 15.5444 19.767 16.1926 19.346C16.5737 19.098 16.8718 18.823 17.0359 18.627C17.1399 18.514 21.0102 14.249 21.1622 14.064C22.3646 12.612 22.1905 11.1779 21.1622 9.84595C20.9041 9.51095 20.2089 8.77694 19.1936 7.68994C19.1575 7.65194 17.1959 5.57394 17.0669 5.43994C16.9589 5.29494 16.6557 4.99395 16.2546 4.72095C15.5924 4.26895 14.8712 4.00895 14.0039 4.00195L6.0013 4.00195C3.79458 4.00195 2 5.79295 2 8.00195C2 9.00195 2 15.002 2 16.002C2 18.211 3.79358 20.002 6.0013 20.002L14.0039 20.002Z" fill="black" fill-opacity="0.4"/>
<path fill-rule="evenodd" clip-rule="evenodd" d="M12.2929 14.7071C12.6834 15.0976 13.3166 15.0976 13.7071 14.7071C14.0976 14.3166 14.0976 13.6834 13.7071 13.2929L12.4142 12L13.7071 10.7071C14.0976 10.3166 14.0976 9.68342 13.7071 9.2929C13.3166 8.90237 12.6834 8.90237 12.2929 9.29289L11 10.5858L9.70711 9.29289C9.31658 8.90237 8.68342 8.90237 8.29289 9.29289C7.90237 9.68342 7.90237 10.3166 8.29289 10.7071L9.58577 12L8.29285 13.2929C7.90232 13.6834 7.90232 14.3166 8.29284 14.7071C8.68336 15.0976 9.31653 15.0976 9.70706 14.7071L11 13.4142L12.2929 14.7071Z" fill="black"/>
</svg>
