<svg width="40" height="40" viewBox="0 0 40 40" fill="none" xmlns="http://www.w3.org/2000/svg">
<path opacity="0.3" d="M22.1722 8C23.3877 7.99999 24.3552 7.99999 25.1438 8.05869C25.9531 8.11894 26.645 8.24462 27.2981 8.53226C28.3639 9.00166 29.2765 9.75852 29.9308 10.718C30.3324 11.3069 30.5788 11.9621 30.78 12.7421C30.9757 13.5013 31.144 14.4448 31.3551 15.628L31.3551 15.6281L32.3402 21.1503C32.631 22.7805 32.8608 24.0691 32.9538 25.1111C33.0485 26.1726 33.0137 27.0865 32.7003 27.9387C32.1977 29.3052 31.2255 30.4502 29.9571 31.1747C29.1676 31.6256 28.2688 31.8176 27.1981 31.9096C26.1461 32 24.8246 32 23.1501 32H23.15H16.8501H16.8501C15.1755 32 13.854 32 12.802 31.9096C11.7313 31.8176 10.8325 31.6256 10.043 31.1747C8.77464 30.4502 7.80241 29.3052 7.29983 27.9387C6.98638 27.0865 6.95159 26.1726 7.0463 25.1111C7.13928 24.0691 7.36915 22.7805 7.65996 21.1503L8.64501 15.6281C8.85607 14.4449 9.02439 13.5013 9.22015 12.7421C9.4213 11.9621 9.66766 11.3069 10.0693 10.718C10.7236 9.75852 11.6362 9.00166 12.702 8.53226C13.3551 8.24462 14.047 8.11894 14.8563 8.05869C15.6449 7.99999 16.6124 7.99999 17.8279 8H17.8279H22.1722H22.1722Z" fill="black"/>
<path d="M14.9324 13.224C15.414 12.9538 16.0236 13.1252 16.2937 13.6069C17.0147 14.8923 18.4024 15.7646 20 15.7646C21.5977 15.7646 22.9853 14.8923 23.7063 13.6069C23.9765 13.1252 24.586 12.9538 25.0677 13.224C25.5494 13.4941 25.7208 14.1036 25.4507 14.5853C24.3864 16.4827 22.3425 17.7646 20 17.7646C17.6575 17.7646 15.6137 16.4827 14.5494 14.5853C14.2792 14.1036 14.4507 13.4941 14.9324 13.224Z" fill="black"/>
</svg>
