<svg width="40" height="40" viewBox="0 0 40 40" fill="none" xmlns="http://www.w3.org/2000/svg">
<g opacity="0.3">
<path d="M20.0672 11.707C20.4576 11.3165 20.4588 10.6823 20.0652 10.295C19.5724 9.81 19.0514 9.31213 18.8033 9.13184C16.7261 7.62272 13.9135 7.62272 11.8364 9.13184C11.458 9.40673 11.0826 9.78226 10.5027 10.3623L10.4325 10.4325L10.3623 10.5027C9.78226 11.0826 9.40673 11.458 9.13184 11.8364C7.62272 13.9135 7.62272 16.7261 9.13184 18.8033C9.31213 19.0514 9.8098 19.5726 10.2946 20.0655C10.6819 20.4592 11.3161 20.4581 11.7066 20.0676L20.0672 11.707Z" fill="black"/>
<path d="M18.9328 27.293C18.5424 27.6835 18.5412 28.3177 18.9348 28.705C19.4276 29.19 19.9486 29.6879 20.1967 29.8682C22.2739 31.3773 25.0865 31.3773 27.1637 29.8682C27.542 29.5933 27.9174 29.2177 28.4974 28.6377L28.5675 28.5675L28.6377 28.4974C29.2177 27.9174 29.5933 27.542 29.8682 27.1637C31.3773 25.0865 31.3773 22.2739 29.8682 20.1967C29.6879 19.9486 29.1902 19.4274 28.7053 18.9345C28.3181 18.5407 27.6839 18.5419 27.2934 18.9324L18.9328 27.293Z" fill="black"/>
</g>
<path fill-rule="evenodd" clip-rule="evenodd" d="M20.9038 12.5434C21.2943 12.1529 21.9275 12.1529 22.318 12.5434L26.4565 16.6819C26.8471 17.0725 26.8471 17.7056 26.4566 18.0962L18.0962 26.4566C17.7056 26.8471 17.0725 26.8471 16.6819 26.4565L12.5434 22.318C12.1529 21.9275 12.1529 21.2943 12.5434 20.9038L20.9038 12.5434ZM17.3431 20.2425C17.7336 19.852 17.7336 19.2188 17.3431 18.8283C16.9525 18.4378 16.3194 18.4378 15.9288 18.8283C15.5383 19.2188 15.5383 19.852 15.9288 20.2425C16.3194 20.6331 16.9525 20.6331 17.3431 20.2425ZM20.1715 23.071C20.562 22.6804 20.562 22.0473 20.1715 21.6567C19.781 21.2662 19.1478 21.2662 18.7573 21.6567C18.3667 22.0473 18.3667 22.6804 18.7573 23.071C19.1478 23.4615 19.781 23.4615 20.1715 23.071ZM22.9999 20.2425C23.3904 19.852 23.3904 19.2188 22.9999 18.8283C22.6094 18.4378 21.9762 18.4378 21.5857 18.8283C21.1952 19.2188 21.1952 19.852 21.5857 20.2425C21.9762 20.6331 22.6094 20.6331 22.9999 20.2425ZM20.1715 17.4141C20.562 17.0236 20.562 16.3904 20.1715 15.9999C19.781 15.6094 19.1478 15.6094 18.7573 15.9999C18.3667 16.3904 18.3667 17.0236 18.7573 17.4141C19.1478 17.8046 19.781 17.8046 20.1715 17.4141Z" fill="black"/>
</svg>
