<svg width="40" height="40" viewBox="0 0 40 40" fill="none" xmlns="http://www.w3.org/2000/svg">
<path d="M30.08 18C30.08 17.4477 30.5098 17 31.04 17C31.5701 17 32 17.4477 32 18V22C32 22.5523 31.5701 23 31.04 23C30.5098 23 30.08 22.5523 30.08 22V18Z" fill="black" fill-opacity="0.3"/>
<path d="M24.5664 13.0404C23.9981 13 23.2998 13 22.4341 13H14.6859C13.8202 13 13.1219 13 12.5536 13.0404C11.9692 13.0819 11.4524 13.1695 10.9631 13.3806C9.78699 13.8881 8.85255 14.8614 8.36538 16.0866C8.1627 16.5963 8.07864 17.1346 8.03876 17.7433C7.99999 18.3353 7.99999 19.0627 8 19.9645V20.0355C7.99999 20.9373 7.99999 21.6647 8.03876 22.2567C8.07864 22.8654 8.1627 23.4037 8.36538 23.9134C8.85255 25.1386 9.78699 26.1119 10.9631 26.6194C11.4524 26.8305 11.9692 26.9181 12.5536 26.9596C13.1219 27 13.8202 27 14.6859 27H22.4341C23.2998 27 23.9981 27 24.5664 26.9596C25.1508 26.9181 25.6676 26.8305 26.1569 26.6194C27.333 26.1119 28.2674 25.1386 28.7546 23.9134C28.9573 23.4037 29.0414 22.8654 29.0812 22.2567C29.12 21.6647 29.12 20.9373 29.12 20.0355V19.9645C29.12 19.0627 29.12 18.3353 29.0812 17.7433C29.0414 17.1346 28.9573 16.5963 28.7546 16.0866C28.2674 14.8614 27.333 13.8881 26.1569 13.3806C25.6676 13.1695 25.1508 13.0819 24.5664 13.0404Z" fill="black"/>
</svg>
