<svg width="24" height="24" viewBox="0 0 24 24" fill="none" xmlns="http://www.w3.org/2000/svg">
<path fill-rule="evenodd" clip-rule="evenodd" d="M4 6C4 3.79086 5.79086 2 8 2H16C18.2091 2 20 3.79086 20 6V21C20 21.3361 19.8311 21.6498 19.5505 21.8348C19.2699 22.0199 18.915 22.0516 18.6061 21.9191L12 19.088L5.39392 21.9191C5.08496 22.0516 4.73014 22.0199 4.44951 21.8348C4.16888 21.6498 4 21.3361 4 21V6Z" fill="black" fill-opacity="0.4"/>
<path d="M10 8C8.895 8 8 8.88291 8 9.97183C8 12.8201 12 15 12 15C12 15 16 12.8201 16 9.97183C16 8.88291 15.105 8 14 8C13.326 8 12.68 8.3806 12.312 8.88732C12.214 9.0226 12 9.31459 12 9.31459C12 9.31459 11.815 9.02533 11.719 8.88732C11.367 8.38428 10.721 8 10 8Z" fill="black"/>
</svg>
