<svg width="24" height="24" viewBox="0 0 24 24" fill="none" xmlns="http://www.w3.org/2000/svg">
<path fill-rule="evenodd" clip-rule="evenodd" d="M11 2C8.79086 2 7 3.79086 7 6H9C9 4.89543 9.89543 4 11 4H17C18.1046 4 19 4.89543 19 6V15.382L17 14.382V16.618L19.5528 17.8944C19.8628 18.0494 20.2309 18.0329 20.5257 17.8507C20.8205 17.6684 21 17.3466 21 17V6C21 3.79086 19.2091 2 17 2H11Z" fill="black" fill-opacity="0.4"/>
<path fill-rule="evenodd" clip-rule="evenodd" d="M3 10C3 7.79086 4.79086 6 7 6H13C15.2091 6 17 7.79086 17 10V21C17 21.3466 16.8205 21.6684 16.5257 21.8507C16.2309 22.0329 15.8628 22.0494 15.5528 21.8944L10 19.118L4.44721 21.8944C4.13723 22.0494 3.76909 22.0329 3.47427 21.8507C3.17945 21.6684 3 21.3466 3 21V10ZM7 8C5.89543 8 5 8.89543 5 10V19.382L10 16.882L15 19.382V10C15 8.89543 14.1046 8 13 8H7Z" fill="black"/>
</svg>
