<svg width="24" height="24" viewBox="0 0 24 24" fill="none" xmlns="http://www.w3.org/2000/svg">
<path fill-rule="evenodd" clip-rule="evenodd" d="M4 6C4 3.79086 5.79086 2 8 2H16C18.2091 2 20 3.79086 20 6V21C20 21.3361 19.8311 21.6498 19.5505 21.8348C19.2699 22.0199 18.915 22.0516 18.6061 21.9191L12 19.088L5.39392 21.9191C5.08496 22.0516 4.73014 22.0199 4.44951 21.8348C4.16888 21.6498 4 21.3361 4 21V6Z" fill="black" fill-opacity="0.4"/>
<path d="M11.7345 7.22219L10.672 9.37839L8.29705 9.72219C7.97065 9.76759 7.90515 9.99179 8.14085 10.2222L9.85955 11.9097L9.45335 14.2534C9.39725 14.5782 9.59935 14.7197 9.89085 14.5659L12.0158 13.4409L14.1095 14.5659C14.4011 14.7196 14.6043 14.578 14.547 14.2534L14.1408 11.9097L15.8595 10.2222C16.0963 9.99279 16.0296 9.76849 15.7033 9.72219L13.3283 9.37839L12.2658 7.22219C12.1214 6.92589 11.8792 6.92599 11.7345 7.22219Z" fill="black"/>
</svg>
