<svg width="24" height="24" viewBox="0 0 24 24" fill="none" xmlns="http://www.w3.org/2000/svg">
<path fill-rule="evenodd" clip-rule="evenodd" d="M4 6C4 3.79086 5.79086 2 8 2H16C18.2091 2 20 3.79086 20 6V21C20 21.3361 19.8311 21.6498 19.5505 21.8348C19.2699 22.0199 18.915 22.0516 18.6061 21.9191L12 19.088L5.39392 21.9191C5.08496 22.0516 4.73014 22.0199 4.44951 21.8348C4.16888 21.6498 4 21.3361 4 21V6Z" fill="black" fill-opacity="0.4"/>
<path fill-rule="evenodd" clip-rule="evenodd" d="M13 8C13 7.44772 12.5523 7 12 7C11.4477 7 11 7.44772 11 8V10H9C8.44772 10 8 10.4477 8 11C8 11.5523 8.44772 12 9 12H11V14C11 14.5523 11.4477 15 12 15C12.5523 15 13 14.5523 13 14V12H15C15.5523 12 16 11.5523 16 11C16 10.4477 15.5523 10 15 10H13V8Z" fill="black"/>
</svg>
