<svg width="24" height="24" viewBox="0 0 24 24" fill="none" xmlns="http://www.w3.org/2000/svg">
<path fill-rule="evenodd" clip-rule="evenodd" d="M4 6C4 3.79086 5.79086 2 8 2H16C18.2091 2 20 3.79086 20 6V21C20 21.3361 19.8311 21.6498 19.5505 21.8348C19.2699 22.0199 18.915 22.0516 18.6061 21.9191L12 19.088L5.39392 21.9191C5.08496 22.0516 4.73014 22.0199 4.44951 21.8348C4.16888 21.6498 4 21.3361 4 21V6Z" fill="black" fill-opacity="0.4"/>
<path fill-rule="evenodd" clip-rule="evenodd" d="M14.7071 9.70711C15.0976 9.31658 15.0976 8.68342 14.7071 8.29289C14.3166 7.90237 13.6834 7.90237 13.2929 8.29289L12 9.58579L10.7071 8.2929C10.3166 7.90237 9.68342 7.90237 9.2929 8.29289C8.90237 8.68341 8.90237 9.31658 9.29289 9.7071L10.5858 11L9.29289 12.2929C8.90237 12.6834 8.90237 13.3166 9.29289 13.7071C9.68342 14.0976 10.3166 14.0976 10.7071 13.7071L12 12.4142L13.2929 13.7071C13.6834 14.0976 14.3165 14.0976 14.7071 13.7071C15.0976 13.3166 15.0976 12.6834 14.7071 12.2929L13.4142 11L14.7071 9.70711Z" fill="black"/>
</svg>
