<svg width="24" height="24" viewBox="0 0 24 24" fill="none" xmlns="http://www.w3.org/2000/svg">
<path d="M3 8V14.938C3.0001 16.147 3.8195 17.46 4.9062 18L11 21V11.906C10.723 11.868 10.215 11.716 9.9062 11.562L3.5625 8.40601C3.1923 8.22201 3 8 3 8ZM21 8C21 8 20.808 8.22201 20.438 8.40601L14.094 11.562C13.785 11.716 13.277 11.868 13 11.906V21L19.094 18C20.18 17.46 21 16.147 21 14.938V8Z" fill="black" fill-opacity="0.4"/>
<path d="M11.9749 3.00038C11.2599 3.00833 10.5679 3.15139 10.0369 3.40373C9.11726 3.84185 4 6.48635 4 6.48635C5.7274 7.34471 10.2459 9.48377 10.8179 9.7679C11.4409 10.0769 12.5709 10.0779 13.1939 9.7679L20 6.48635C20 6.48635 15.4739 4.10115 14.0369 3.40373C13.4289 3.10867 12.6889 2.99243 11.9749 3.00038Z" fill="black"/>
</svg>
