<svg width="24" height="24" viewBox="0 0 24 24" fill="none" xmlns="http://www.w3.org/2000/svg">
<path fill-rule="evenodd" clip-rule="evenodd" d="M3 7C3 4.79086 4.79086 3 7 3H17C19.2091 3 21 4.79086 21 7V15C21 17.2091 19.2091 19 17 19C16.4477 19 16 18.5523 16 18C16 17.4477 16.4477 17 17 17C18.1046 17 19 16.1046 19 15V7C19 5.89543 18.1046 5 17 5H7C5.89543 5 5 5.89543 5 7V15C5 16.1046 5.89543 17 7 17C7.55228 17 8 17.4477 8 18C8 18.5523 7.55228 19 7 19C4.79086 19 3 17.2091 3 15V7Z" fill="black" fill-opacity="0.4"/>
<path fill-rule="evenodd" clip-rule="evenodd" d="M13 20.9091C13 21.5116 12.5523 22 12 22C11.4477 22 11 21.5116 11 20.9091V11.3982L9.00892 13.4142L7.58594 12.0088L11.2515 8.2973C11.4379 8.10859 11.6916 8.00166 11.9569 8.00002C12.2221 7.99838 12.4771 8.10217 12.6658 8.28856L16.4143 11.9913L15.0088 13.4142L13 11.4299V20.9091Z" fill="black"/>
</svg>
