<svg width="24" height="24" viewBox="0 0 24 24" fill="none" xmlns="http://www.w3.org/2000/svg">
<path d="M5 7C5 4.79086 6.79086 3 9 3H17C19.2091 3 21 4.79086 21 7V15C21 17.2091 19.2091 19 17 19H14.6569C13.596 19 12.5786 18.5786 11.8284 17.8284L6.17157 12.1716C5.42143 11.4214 5 10.404 5 9.34315V7Z" fill="black" fill-opacity="0.4"/>
<path fill-rule="evenodd" clip-rule="evenodd" d="M13.7071 11.7071C14.0976 11.3166 14.0976 10.6834 13.7071 10.2929C13.3166 9.90237 12.6834 9.90237 12.2929 10.2929L6.2929 16.2929L3 13V21H11L7.70711 17.7071L13.7071 11.7071Z" fill="black"/>
</svg>
