<svg width="24" height="24" viewBox="0 0 24 24" fill="none" xmlns="http://www.w3.org/2000/svg">
<path fill-rule="evenodd" clip-rule="evenodd" d="M19 17C19 19.2091 17.2091 21 15 21H7C4.79086 21 3 19.2091 3 17V9C3 6.79086 4.79086 5 7 5H10C10.5523 5 11 5.44771 11 6C11 6.55229 10.5523 7 10 7H7C5.89543 7 5 7.89543 5 9V17C5 18.1046 5.89543 19 7 19H15C16.1046 19 17 18.1046 17 17V14C17 13.4477 17.4477 13 18 13C18.5523 13 19 13.4477 19 14V17Z" fill="black" fill-opacity="0.4"/>
<path fill-rule="evenodd" clip-rule="evenodd" d="M10.2929 12.2929C9.90237 12.6834 9.90237 13.3166 10.2929 13.7071C10.6834 14.0976 11.3166 14.0976 11.7071 13.7071L19 6.41421V10H21V4C21 3.44772 20.5523 3 20 3H14V5H17.5858L10.2929 12.2929Z" fill="black"/>
</svg>
