<svg width="24" height="24" viewBox="0 0 24 24" fill="none" xmlns="http://www.w3.org/2000/svg">
<path d="M5 17C5 19.2091 6.79086 21 9 21H17C19.2091 21 21 19.2091 21 17V9C21 6.79086 19.2091 5 17 5H14.6569C13.596 5 12.5786 5.42143 11.8284 6.17157L6.17157 11.8284C5.42143 12.5786 5 13.596 5 14.6569V17Z" fill="black" fill-opacity="0.4"/>
<path fill-rule="evenodd" clip-rule="evenodd" d="M13.7071 12.2929C14.0976 12.6834 14.0976 13.3166 13.7071 13.7071C13.3166 14.0976 12.6834 14.0976 12.2929 13.7071L6.2929 7.70711L3 11V3.00002H11L7.70711 6.2929L13.7071 12.2929Z" fill="black"/>
</svg>
