<svg width="24" height="24" viewBox="0 0 24 24" fill="none" xmlns="http://www.w3.org/2000/svg">
<path fill-rule="evenodd" clip-rule="evenodd" d="M3 8.00007C3.00002 8.37883 3.21402 8.72507 3.55279 8.89446L5 9.61806V15.146C5 15.9035 5.428 16.596 6.10557 16.9348L10.6584 19.2112C10.7699 19.267 10.884 19.3154 11 19.3564V12.4269C11.6597 12.5616 12.3403 12.5616 13 12.4269V19.3564C13.116 19.3154 13.2301 19.267 13.3416 19.2112L17.8944 16.9348C18.572 16.596 19 15.9035 19 15.146V9.61806L20.4472 8.89446C20.786 8.72507 21 8.3788 21 8.00003V15.146C21 16.6611 20.144 18.0461 18.7889 18.7237L14.2361 21.0001C12.8284 21.7039 11.1716 21.7039 9.76393 21.0001L5.21115 18.7237C3.85601 18.0461 3 16.6611 3 15.146V8.00007Z" fill="black" fill-opacity="0.4"/>
<path fill-rule="evenodd" clip-rule="evenodd" d="M10.6584 5.78889C11.5029 5.3666 12.4971 5.3666 13.3416 5.78889L13.7639 6L7.99993 8.88196L6.23607 8.00003L10.6584 5.78889ZM7.5466 10.8914C7.55023 10.8932 7.55386 10.895 7.55751 10.8968L9.76393 12C11.1716 12.7039 12.8284 12.7039 14.2361 12L20.4472 8.89446C20.786 8.72507 21 8.3788 21 8.00003C21 7.62126 20.786 7.275 20.4472 7.1056L16.4605 5.11223C16.4521 5.10791 16.4437 5.10371 16.4353 5.09963L14.2361 4.00003C12.8284 3.29621 11.1716 3.29621 9.76393 4.00003L3.55279 7.1056C3.214 7.275 3 7.62126 3 8.00003C3 8.3788 3.214 8.72507 3.55279 8.89446L7.5466 10.8914ZM15.9999 7.11803L17.7639 8.00003L13.3416 10.2112C12.4971 10.6335 11.5029 10.6335 10.6584 10.2112L10.236 10L15.9999 7.11803Z" fill="black"/>
</svg>
