<svg width="24" height="24" viewBox="0 0 24 24" fill="none" xmlns="http://www.w3.org/2000/svg">
<path fill-rule="evenodd" clip-rule="evenodd" d="M13.7071 11.7071C14.0976 11.3166 14.0976 10.6834 13.7071 10.2929C13.3166 9.90237 12.6834 9.90237 12.2929 10.2929L5 17.5858V14H3V20C3 20.5523 3.44772 21 4 21H10V19H6.41421L13.7071 11.7071Z" fill="black"/>
<path fill-rule="evenodd" clip-rule="evenodd" d="M5 7C5 4.79086 6.79086 3 9 3H17C19.2091 3 21 4.79086 21 7V15C21 17.2091 19.2091 19 17 19H14C13.4477 19 13 18.5523 13 18C13 17.4477 13.4477 17 14 17H17C18.1046 17 19 16.1046 19 15V7C19 5.89543 18.1046 5 17 5H9C7.89543 5 7 5.89543 7 7V10C7 10.5523 6.55228 11 6 11C5.44772 11 5 10.5523 5 10V7Z" fill="black" fill-opacity="0.4"/>
</svg>
