<svg width="24" height="24" viewBox="0 0 24 24" fill="none" xmlns="http://www.w3.org/2000/svg">
<path d="M3 8V14.938C3 16.147 3.8195 17.46 4.9062 18L11 21V11.906C10.723 11.868 10.2149 11.716 9.9062 11.562L3.5625 8.40601C3.1923 8.22201 3 8 3 8ZM21 8C21 8 20.8077 8.22201 20.4375 8.40601L14.0938 11.562C13.7851 11.716 13.277 11.868 13 11.906V21L19.0938 18C20.1805 17.46 20.9999 16.147 21 14.938V8Z" fill="black"/>
<path d="M11.9844 3.00038C11.2685 3.00833 10.5752 3.15138 10.043 3.40371C9.12139 3.84181 4 6.35316 4 6.35316C4.75587 6.72768 5.7436 7.22041 7.00586 7.84328L14.9902 3.86962C14.6428 3.69875 14.2744 3.51199 14.0508 3.40371C13.4416 3.10867 12.7002 2.99243 11.9844 3.00038ZM17.1506 4.92561L9.13501 8.89927C9.61335 9.13471 10.6922 9.70198 10.8258 9.76754C11.4491 10.0775 12.5821 10.0775 13.2055 9.76754L20 6.35316C20 6.35316 18.3875 5.53755 17.1506 4.92561Z" fill="black" fill-opacity="0.4"/>
</svg>
