<svg width="24" height="24" viewBox="0 0 24 24" fill="none" xmlns="http://www.w3.org/2000/svg">
<path fill-rule="evenodd" clip-rule="evenodd" d="M4.29289 18.2929C3.90237 18.6834 3.90237 19.3166 4.29289 19.7071C4.68342 20.0976 5.31658 20.0976 5.70711 19.7071L14 11.4142V15H16V9C16 8.44772 15.5523 8 15 8H9V10H12.5858L4.29289 18.2929Z" fill="black"/>
<path fill-rule="evenodd" clip-rule="evenodd" d="M3 7C3 4.79086 4.79086 3 7 3H17C19.2091 3 21 4.79086 21 7V17C21 19.2091 19.2091 21 17 21H13C12.4477 21 12 20.5523 12 20C12 19.4477 12.4477 19 13 19H17C18.1046 19 19 18.1046 19 17V7C19 5.89543 18.1046 5 17 5H7C5.89543 5 5 5.89543 5 7V11C5 11.5523 4.55228 12 4 12C3.44772 12 3 11.5523 3 11V7Z" fill="black" fill-opacity="0.4"/>
</svg>
