<svg width="24" height="24" viewBox="0 0 24 24" fill="none" xmlns="http://www.w3.org/2000/svg">
<path fill-rule="evenodd" clip-rule="evenodd" d="M19 7C19 4.79086 17.2091 3 15 3H7C4.79086 3 3 4.79086 3 7V15C3 17.2091 4.79086 19 7 19H10C10.5523 19 11 18.5523 11 18C11 17.4477 10.5523 17 10 17H7C5.89543 17 5 16.1046 5 15V7C5 5.89543 5.89543 5 7 5H15C16.1046 5 17 5.89543 17 7V10C17 10.5523 17.4477 11 18 11C18.5523 11 19 10.5523 19 10V7Z" fill="black" fill-opacity="0.4"/>
<path fill-rule="evenodd" clip-rule="evenodd" d="M10.2929 11.7071C9.90237 11.3166 9.90237 10.6834 10.2929 10.2929C10.6834 9.90237 11.3166 9.90237 11.7071 10.2929L19 17.5858V14H21V20C21 20.5523 20.5523 21 20 21H14V19H17.5858L10.2929 11.7071Z" fill="black"/>
</svg>
