<svg width="24" height="24" viewBox="0 0 24 24" fill="none" xmlns="http://www.w3.org/2000/svg">
<path fill-rule="evenodd" clip-rule="evenodd" d="M4.29289 5.70711C3.90237 5.31658 3.90237 4.68342 4.29289 4.29289C4.68342 3.90237 5.31658 3.90237 5.70711 4.29289L14 12.5858V9H16V15C16 15.5523 15.5523 16 15 16H9V14H12.5858L4.29289 5.70711Z" fill="black"/>
<path fill-rule="evenodd" clip-rule="evenodd" d="M3 17C3 19.2091 4.79086 21 7 21H17C19.2091 21 21 19.2091 21 17V7C21 4.79086 19.2091 3 17 3H13C12.4477 3 12 3.44772 12 4C12 4.55229 12.4477 5 13 5H17C18.1046 5 19 5.89543 19 7V17C19 18.1046 18.1046 19 17 19H7C5.89543 19 5 18.1046 5 17V13C5 12.4477 4.55228 12 4 12C3.44772 12 3 12.4477 3 13V17Z" fill="black" fill-opacity="0.4"/>
</svg>
