<svg width="24" height="24" viewBox="0 0 24 24" fill="none" xmlns="http://www.w3.org/2000/svg">
<path fill-rule="evenodd" clip-rule="evenodd" d="M5 17C5 19.2091 6.79086 21 9 21H17C19.2091 21 21 19.2091 21 17V9C21 6.79086 19.2091 5 17 5H14C13.4477 5 13 5.44771 13 6C13 6.55229 13.4477 7 14 7H17C18.1046 7 19 7.89543 19 9V17C19 18.1046 18.1046 19 17 19H9C7.89543 19 7 18.1046 7 17V14C7 13.4477 6.55228 13 6 13C5.44772 13 5 13.4477 5 14V17Z" fill="black" fill-opacity="0.4"/>
<path fill-rule="evenodd" clip-rule="evenodd" d="M13.7071 12.2929C14.0976 12.6834 14.0976 13.3166 13.7071 13.7071C13.3166 14.0976 12.6834 14.0976 12.2929 13.7071L5 6.41421V10H3V4C3 3.44772 3.44772 3 4 3H10V5H6.41421L13.7071 12.2929Z" fill="black"/>
</svg>
