<svg width="24" height="24" viewBox="0 0 24 24" fill="none" xmlns="http://www.w3.org/2000/svg">
<path d="M3 17C3 19.2091 4.79086 21 7 21H17C19.2091 21 21 19.2091 21 17V7C21 4.79086 19.2091 3 17 3H13.6569C12.596 3 11.5786 3.42143 10.8284 4.17157L4.17157 10.8284C3.42143 11.5786 3 12.596 3 13.6569V17Z" fill="black" fill-opacity="0.4"/>
<path fill-rule="evenodd" clip-rule="evenodd" d="M4.29289 5.70711C3.90237 5.31658 3.90237 4.68342 4.29289 4.29289C4.68342 3.90237 5.31658 3.90237 5.70711 4.29289L12.7071 11.2929L16 8V16H8L11.2929 12.7071L4.29289 5.70711Z" fill="black"/>
</svg>
