<svg width="24" height="24" viewBox="0 0 24 24" fill="none" xmlns="http://www.w3.org/2000/svg">
<path fill-rule="evenodd" clip-rule="evenodd" d="M3 7C3 4.79086 4.79086 3 7 3H17C19.2091 3 21 4.79086 21 7V11C21 13.2091 19.2091 15 17 15C16.4477 15 16 14.5523 16 14C16 13.4477 16.4477 13 17 13C18.1046 13 19 12.1046 19 11V7C19 5.89543 18.1046 5 17 5H7C5.89543 5 5 5.89543 5 7V11C5 12.1046 5.89543 13 7 13C7.55228 13 8 13.4477 8 14C8 14.5523 7.55228 15 7 15C4.79086 15 3 13.2091 3 11V7Z" fill="black" fill-opacity="0.4"/>
<path fill-rule="evenodd" clip-rule="evenodd" d="M13 10C13 9.44772 12.5523 9 12 9C11.4477 9 11 9.44772 11 10V18.6018L9.00892 16.5858L7.58594 17.9912L11.2515 21.7027C11.4379 21.8914 11.6916 21.9983 11.9569 22C12.2221 22.0016 12.4771 21.8978 12.6658 21.7114L16.4143 18.0087L15.0088 16.5858L13 18.5701V10Z" fill="black"/>
</svg>
