<svg width="24" height="24" viewBox="0 0 24 24" fill="none" xmlns="http://www.w3.org/2000/svg">
<path d="M21 7C21 4.79086 19.2091 3 17 3H7C4.79086 3 3 4.79086 3 7V17C3 19.2091 4.79086 21 7 21H10.3431C11.404 21 12.4214 20.5786 13.1716 19.8284L19.8284 13.1716C20.5786 12.4214 21 11.404 21 10.3431V7Z" fill="black" fill-opacity="0.4"/>
<path fill-rule="evenodd" clip-rule="evenodd" d="M19.7071 18.2929C20.0976 18.6834 20.0976 19.3166 19.7071 19.7071C19.3166 20.0976 18.6834 20.0976 18.2929 19.7071L11.2929 12.7071L8 16V8H16L12.7071 11.2929L19.7071 18.2929Z" fill="black"/>
</svg>
