<svg width="24" height="24" viewBox="0 0 24 24" fill="none" xmlns="http://www.w3.org/2000/svg">
<path d="M19 17C19 19.2091 17.2091 21 15 21H7C4.79086 21 3 19.2091 3 17V9C3 6.79086 4.79086 5 7 5H10.3431C11.404 5 12.4214 5.42143 13.1716 6.17157L17.8284 10.8284C18.5786 11.5786 19 12.596 19 13.6569V17Z" fill="black" fill-opacity="0.4"/>
<path fill-rule="evenodd" clip-rule="evenodd" d="M10.2929 12.2929C9.90237 12.6834 9.90237 13.3166 10.2929 13.7071C10.6834 14.0976 11.3166 14.0976 11.7071 13.7071L17.7071 7.70711L21 11V3.00002H13L16.2929 6.2929L10.2929 12.2929Z" fill="black"/>
</svg>
