<svg width="24" height="24" viewBox="0 0 24 24" fill="none" xmlns="http://www.w3.org/2000/svg">
<path d="M3 7C3 4.79086 4.79086 3 7 3H17C19.2091 3 21 4.79086 21 7V17C21 19.2091 19.2091 21 17 21H13.6569C12.596 21 11.5786 20.5786 10.8284 19.8284L4.17157 13.1716C3.42143 12.4214 3 11.404 3 10.3431V7Z" fill="black" fill-opacity="0.4"/>
<path fill-rule="evenodd" clip-rule="evenodd" d="M4.29289 18.2929C3.90237 18.6834 3.90237 19.3166 4.29289 19.7071C4.68342 20.0976 5.31658 20.0976 5.70711 19.7071L12.7071 12.7071L16 16V8H8L11.2929 11.2929L4.29289 18.2929Z" fill="black"/>
</svg>
