<svg width="24" height="24" viewBox="0 0 24 24" fill="none" xmlns="http://www.w3.org/2000/svg">
<path d="M19 7C19 4.79086 17.2091 3 15 3H7C4.79086 3 3 4.79086 3 7V15C3 17.2091 4.79086 19 7 19H10.3431C11.404 19 12.4214 18.5786 13.1716 17.8284L17.8284 13.1716C18.5786 12.4214 19 11.404 19 10.3431V7Z" fill="black" fill-opacity="0.4"/>
<path fill-rule="evenodd" clip-rule="evenodd" d="M10.2929 11.7071C9.90237 11.3166 9.90237 10.6834 10.2929 10.2929C10.6834 9.90237 11.3166 9.90237 11.7071 10.2929L17.7071 16.2929L21 13V21H13L16.2929 17.7071L10.2929 11.7071Z" fill="black"/>
</svg>
