<svg width="24" height="24" viewBox="0 0 24 24" fill="none" xmlns="http://www.w3.org/2000/svg">
<path d="M21 17C21 19.2091 19.2091 21 17 21H7C4.79086 21 3 19.2091 3 17V7C3 4.79086 4.79086 3 7 3H10.3431C11.404 3 12.4214 3.42143 13.1716 4.17157L19.8284 10.8284C20.5786 11.5786 21 12.596 21 13.6569V17Z" fill="black" fill-opacity="0.4"/>
<path fill-rule="evenodd" clip-rule="evenodd" d="M19.7071 5.70711C20.0976 5.31658 20.0976 4.68342 19.7071 4.29289C19.3166 3.90237 18.6834 3.90237 18.2929 4.29289L11.2929 11.2929L8 8V16H16L12.7071 12.7071L19.7071 5.70711Z" fill="black"/>
</svg>
