<svg width="24" height="24" viewBox="0 0 24 24" fill="none" xmlns="http://www.w3.org/2000/svg">
<path fill-rule="evenodd" clip-rule="evenodd" d="M3 17C3 19.2091 4.79086 21 7 21H17C19.2091 21 21 19.2091 21 17V9C21 6.79086 19.2091 5 17 5C16.4477 5 16 5.44771 16 6C16 6.55229 16.4477 7 17 7C18.1046 7 19 7.89543 19 9V17C19 18.1046 18.1046 19 17 19H7C5.89543 19 5 18.1046 5 17V9C5 7.89543 5.89543 7 7 7C7.55228 7 8 6.55229 8 6C8 5.44771 7.55228 5 7 5C4.79086 5 3 6.79086 3 9V17Z" fill="black" fill-opacity="0.4"/>
<path fill-rule="evenodd" clip-rule="evenodd" d="M13 3.09091C13 2.48842 12.5523 2 12 2C11.4477 2 11 2.48842 11 3.09091V12.6018L9.00892 10.5858L7.58594 11.9912L11.2515 15.7027C11.4379 15.8914 11.6916 15.9983 11.9569 16C12.2221 16.0016 12.4771 15.8978 12.6658 15.7114L16.4143 12.0087L15.0088 10.5858L13 12.5701V3.09091Z" fill="black"/>
</svg>
