<svg width="24" height="24" viewBox="0 0 24 24" fill="none" xmlns="http://www.w3.org/2000/svg">
<path fill-rule="evenodd" clip-rule="evenodd" d="M7 21C4.79086 21 3 19.2091 3 17L3 7C3 4.79086 4.79086 3 7 3H15C17.2091 3 19 4.79086 19 7C19 7.55229 18.5523 8 18 8C17.4477 8 17 7.55229 17 7C17 5.89543 16.1046 5 15 5H7C5.89543 5 5 5.89543 5 7L5 17C5 18.1046 5.89543 19 7 19H15C16.1046 19 17 18.1046 17 17C17 16.4477 17.4477 16 18 16C18.5523 16 19 16.4477 19 17C19 19.2091 17.2091 21 15 21H7Z" fill="black" fill-opacity="0.4"/>
<path fill-rule="evenodd" clip-rule="evenodd" d="M20.9091 11C21.5116 11 22 11.4477 22 12C22 12.5523 21.5116 13 20.9091 13H11.3982L13.4142 14.9911L12.0088 16.4141L8.2973 12.7485C8.10859 12.5621 8.00166 12.3084 8.00002 12.0431C7.99838 11.7779 8.10217 11.5229 8.28856 11.3342L11.9913 7.58569L13.4142 8.99119L11.4299 11H20.9091Z" fill="black"/>
</svg>
