<svg width="24" height="24" viewBox="0 0 24 24" fill="none" xmlns="http://www.w3.org/2000/svg">
<path fill-rule="evenodd" clip-rule="evenodd" d="M17 21C19.2091 21 21 19.2091 21 17V7C21 4.79086 19.2091 3 17 3H9C6.79086 3 5 4.79086 5 7C5 7.55229 5.44771 8 6 8C6.55229 8 7 7.55229 7 7C7 5.89543 7.89543 5 9 5H17C18.1046 5 19 5.89543 19 7V17C19 18.1046 18.1046 19 17 19H9C7.89543 19 7 18.1046 7 17C7 16.4477 6.55229 16 6 16C5.44771 16 5 16.4477 5 17C5 19.2091 6.79086 21 9 21H17Z" fill="black" fill-opacity="0.4"/>
<path fill-rule="evenodd" clip-rule="evenodd" d="M3.09091 11C2.48842 11 2 11.4477 2 12C2 12.5523 2.48842 13 3.09091 13H12.6018L10.5858 14.9911L11.9912 16.4141L15.7027 12.7485C15.8914 12.5621 15.9983 12.3084 16 12.0431C16.0016 11.7779 15.8978 11.5229 15.7114 11.3342L12.0087 7.58569L10.5858 8.99119L12.5701 11H3.09091Z" fill="black"/>
</svg>
