<svg width="24" height="24" viewBox="0 0 24 24" fill="none" xmlns="http://www.w3.org/2000/svg">
<path fill-rule="evenodd" clip-rule="evenodd" d="M9.99993 3C10.5522 3 10.9999 3.44772 10.9999 4C10.9999 4.55228 10.5523 5 10 5C8.89543 5 8 5.89543 8 7V8.98234C7.99058 8.4382 7.54654 8 7.00015 8C6.44787 8 6.00015 8.44772 6.00015 9L6 7C6 4.79086 7.79079 3 9.99993 3ZM6.00015 15L6 17C6 19.2091 7.79079 21 9.99993 21C10.5522 21 10.9999 20.5523 10.9999 20C10.9999 19.4477 10.5523 19 10 19C8.89543 19 8 18.1046 8 17V15.0177C7.99058 15.5618 7.54654 16 7.00015 16C6.44787 16 6.00015 15.5523 6.00015 15ZM12.9999 4C12.9999 3.44772 13.4476 3 13.9999 3C16.2091 3 17.9999 4.79086 17.9999 7V8.9756C17.9869 8.43459 17.5443 8 17.0002 8C16.4479 8 16.0002 8.44772 16.0002 9L15.9999 7C15.9999 5.89543 15.1044 5 13.9999 5C13.4476 5 12.9999 4.55228 12.9999 4ZM15.9999 15V17C15.9999 18.1046 15.1044 19 13.9999 19C13.4476 19 12.9999 19.4477 12.9999 20C12.9999 20.5523 13.4476 21 13.9999 21C16.2091 21 17.9999 19.2091 17.9999 17V15.0244C17.9869 15.5654 17.5443 16 17.0002 16C16.4479 16 15.9999 15.5523 15.9999 15Z" fill="black" fill-opacity="0.4"/>
<path fill-rule="evenodd" clip-rule="evenodd" d="M6.00015 9C6.00015 8.44772 6.44787 8 7.00015 8C7.55244 8 8.00015 8.44772 8.00015 9C8.00015 10.2852 7.63329 11.3139 7.23346 12C7.63329 12.6861 8.00015 13.7148 8.00015 15C8.00015 15.5523 7.55244 16 7.00015 16C6.44787 16 6.00015 15.5523 6.00015 15C6.00015 13.6598 5.43504 12.8491 5.29305 12.7071L4.58594 12L5.29305 11.2929C5.43504 11.1509 6.00015 10.3402 6.00015 9ZM18.0002 9C18.0002 8.44772 17.5524 8 17.0002 8C16.4479 8 16.0002 8.44772 16.0002 9C16.0002 10.2852 16.367 11.3139 16.7668 12C16.367 12.6861 16.0002 13.7148 16.0002 15C16.0002 15.5523 16.4479 16 17.0002 16C17.5524 16 18.0002 15.5523 18.0002 15C18.0002 13.6598 18.5653 12.8491 18.7073 12.7071L19.4144 12L18.7073 11.2929C18.5653 11.1509 18.0002 10.3402 18.0002 9Z" fill="black"/>
</svg>
