<svg width="24" height="24" viewBox="0 0 24 24" fill="none" xmlns="http://www.w3.org/2000/svg">
<path d="M3 7C3 4.79086 4.79086 3 7 3H17C19.2091 3 21 4.79086 21 7V17C21 19.2091 19.2091 21 17 21H7C4.79086 21 3 19.2091 3 17V7Z" fill="black" fill-opacity="0.4"/>
<path fill-rule="evenodd" clip-rule="evenodd" d="M9.99991 5H10.9999V7H9.99991C9.44768 7 8.99991 7.44774 8.99991 8.00008V9.5C8.99991 10.4738 8.6759 11.2701 8.36815 11.8086C8.32969 11.876 8.29117 11.9398 8.25317 12C8.29117 12.0602 8.32969 12.124 8.36815 12.1914C8.6759 12.7299 8.99991 13.5262 8.99991 14.5V16C8.99991 16.5523 9.44762 17 9.99991 17H10.9999V19H9.99991C8.34306 19 6.99991 17.6569 6.99991 16V14.5C6.99991 13.9738 6.82391 13.5201 6.63166 13.1836C6.53673 13.0175 6.44256 12.8885 6.37529 12.8044C6.3419 12.7626 6.31589 12.7329 6.30077 12.7162L6.28798 12.7023L5.58569 12L6.28798 11.2977L6.30077 11.2838C6.31589 11.2671 6.3419 11.2374 6.37529 11.1956C6.44256 11.1115 6.53673 10.9825 6.63166 10.8164C6.82391 10.4799 6.99991 10.0262 6.99991 9.5V8.00008C6.99991 6.34328 8.343 5 9.99991 5ZM13.9999 5H12.9999V7H13.9999C14.5521 7 14.9999 7.44774 14.9999 8.00008V9.5C14.9999 10.4738 15.3239 11.2701 15.6317 11.8086C15.6701 11.876 15.7086 11.9398 15.7466 12C15.7086 12.0602 15.6701 12.124 15.6317 12.1914C15.3239 12.7299 14.9999 13.5262 14.9999 14.5V16C14.9999 16.5523 14.5522 17 13.9999 17H12.9999V19H13.9999C15.6567 19 16.9999 17.6569 16.9999 16V14.5C16.9999 13.9738 17.1759 13.5201 17.3681 13.1836C17.4631 13.0175 17.5572 12.8885 17.6245 12.8044C17.6579 12.7626 17.6839 12.7329 17.699 12.7162L17.7118 12.7023L18.4141 12L17.7118 11.2977L17.699 11.2838C17.6839 11.2671 17.6579 11.2374 17.6245 11.1956C17.5572 11.1115 17.4631 10.9825 17.3681 10.8164C17.1759 10.4799 16.9999 10.0262 16.9999 9.5V8.00008C16.9999 6.34328 15.6568 5 13.9999 5Z" fill="black"/>
</svg>
