<svg width="24" height="24" viewBox="0 0 24 24" fill="none" xmlns="http://www.w3.org/2000/svg">
<path d="M11.999 2C11.447 2 10.999 2.448 10.999 3V5C10.999 5.552 11.447 6 11.999 6C12.551 6 12.999 5.552 12.999 5V3C12.999 2.448 12.551 2 11.999 2ZM5.59302 4.59399C5.33702 4.59399 5.06902 4.68 4.87402 4.875C4.48302 5.266 4.48302 5.89101 4.87402 6.28101L6.28003 7.71899C6.67103 8.10899 7.32702 8.10899 7.71802 7.71899C8.10802 7.32799 8.10802 6.67201 7.71802 6.28101L6.28003 4.875C6.08503 4.68 5.84902 4.59399 5.59302 4.59399ZM18.405 4.59399C18.149 4.59399 17.913 4.68 17.718 4.875L16.28 6.28101C15.89 6.67201 15.89 7.32799 16.28 7.71899C16.671 8.10899 17.327 8.10899 17.718 7.71899L19.124 6.28101C19.515 5.89101 19.515 5.266 19.124 4.875C18.929 4.68 18.661 4.59399 18.405 4.59399ZM2.99902 11C2.44702 11 1.99902 11.448 1.99902 12C1.99902 12.552 2.44702 13 2.99902 13H4.99902C5.55102 13 5.99902 12.552 5.99902 12C5.99902 11.448 5.55102 11 4.99902 11H2.99902ZM18.999 11C18.447 11 17.999 11.448 17.999 12C17.999 12.552 18.447 13 18.999 13H20.999C21.551 13 21.999 12.552 21.999 12C21.999 11.448 21.551 11 20.999 11H18.999ZM6.99902 16C6.74302 16 6.47603 16.086 6.28003 16.281L4.87402 17.719C4.48302 18.109 4.48302 18.735 4.87402 19.125C5.26502 19.516 5.89003 19.516 6.28003 19.125L7.71802 17.719C8.10802 17.328 8.10802 16.672 7.71802 16.281C7.52202 16.086 7.25502 16 6.99902 16ZM16.999 16C16.743 16 16.476 16.086 16.28 16.281C15.89 16.672 15.89 17.328 16.28 17.719L17.718 19.125C18.108 19.516 18.733 19.516 19.124 19.125C19.515 18.734 19.515 18.109 19.124 17.719L17.718 16.281C17.522 16.086 17.255 16 16.999 16ZM11.999 18C11.447 18 10.999 18.448 10.999 19V21C10.999 21.552 11.447 22 11.999 22C12.551 22 12.999 21.552 12.999 21V19C12.999 18.448 12.551 18 11.999 18Z" fill="black" fill-opacity="0.4"/>
<path d="M12 7C9.239 7 7 9.239 7 12C7 14.761 9.239 17 12 17C14.761 17 17 14.761 17 12C17 9.239 14.761 7 12 7Z" fill="black"/>
</svg>
