<svg width="24" height="24" viewBox="0 0 24 24" fill="none" xmlns="http://www.w3.org/2000/svg">
<path d="M11.999 9C9.23762 9 6.99902 11.239 6.99902 14C6.99902 14.552 7.44672 15 7.99902 15C12.499 15 12.499 15 15.999 15C16.5513 15 16.999 14.552 16.999 14C16.999 11.239 14.7604 9 11.999 9Z" fill="black"/>
<path d="M12 4C11.4477 4 11 4.448 11 5V7C11 7.552 11.4477 8 12 8C12.5523 8 13 7.552 13 7V5C13 4.448 12.5523 4 12 4ZM5.5938 6.59399C5.3378 6.59399 5.0703 6.68 4.875 6.875C4.4845 7.266 4.4845 7.89101 4.875 8.28101L6.2812 9.71899C6.6718 10.109 7.3282 10.109 7.7188 9.71899C8.1093 9.32799 8.1093 8.67201 7.7188 8.28101L6.2812 6.875C6.086 6.68 5.8497 6.59399 5.5938 6.59399ZM18.4062 6.59399C18.1503 6.59399 17.914 6.68 17.7188 6.875L16.2812 8.28101C15.8907 8.67201 15.8907 9.32799 16.2812 9.71899C16.6718 10.109 17.3282 10.109 17.7188 9.71899L19.125 8.28101C19.5155 7.89101 19.5155 7.266 19.125 6.875C18.9297 6.68 18.6622 6.59399 18.4062 6.59399ZM3 13C2.4477 13 2 13.448 2 14C2 14.552 2.4477 15 3 15H5C5.5523 15 6 14.552 6 14C6 13.448 5.5523 13 5 13H3ZM19 13C18.4477 13 18 13.448 18 14C18 14.552 18.4477 15 19 15H21C21.5523 15 22 14.552 22 14C22 13.448 21.5523 13 21 13H19Z" fill="black" fill-opacity="0.4"/>
</svg>
