<svg width="24" height="24" viewBox="0 0 24 24" fill="none" xmlns="http://www.w3.org/2000/svg">
<path d="M12 3C11.448 3 11 3.448 11 4C11 4.552 11.448 5 12 5C12.552 5 13 4.552 13 4C13 3.448 12.552 3 12 3ZM6 5C5.448 5 5 5.448 5 6C5 6.552 5.448 7 6 7C6.552 7 7 6.552 7 6C7 5.448 6.552 5 6 5ZM18 5C17.448 5 17 5.448 17 6C17 6.552 17.448 7 18 7C18.552 7 19 6.552 19 6C19 5.448 18.552 5 18 5ZM4 11C3.448 11 3 11.448 3 12C3 12.552 3.448 13 4 13C4.552 13 5 12.552 5 12C5 11.448 4.552 11 4 11ZM20 11C19.448 11 19 11.448 19 12C19 12.552 19.448 13 20 13C20.552 13 21 12.552 21 12C21 11.448 20.552 11 20 11ZM6 17C5.448 17 5 17.448 5 18C5 18.552 5.448 19 6 19C6.552 19 7 18.552 7 18C7 17.448 6.552 17 6 17ZM18 17C17.448 17 17 17.448 17 18C17 18.552 17.448 19 18 19C18.552 19 19 18.552 19 18C19 17.448 18.552 17 18 17ZM12 19C11.448 19 11 19.448 11 20C11 20.552 11.448 21 12 21C12.552 21 13 20.552 13 20C13 19.448 12.552 19 12 19Z" fill="black" fill-opacity="0.4"/>
<path d="M12 6C8.686 6 6 8.686 6 12C6 15.314 8.686 18 12 18C15.314 18 18 15.314 18 12C18 8.686 15.314 6 12 6ZM12 8C14.209 8 16 9.791 16 12C16 14.209 14.209 16 12 16C9.791 16 8 14.209 8 12C8 9.791 9.791 8 12 8Z" fill="black"/>
</svg>
