<svg width="40" height="40" viewBox="0 0 40 40" fill="none" xmlns="http://www.w3.org/2000/svg">
<path opacity="0.3" fill-rule="evenodd" clip-rule="evenodd" d="M11.6191 6.99996L11.5331 6.99992C11.132 6.99963 10.7937 6.99938 10.4922 7.05913C9.26617 7.30203 8.30457 8.25751 8.05965 9.48394C7.99943 9.78548 7.99968 10.1236 7.99998 10.5226L8.00002 10.6087L7.99998 10.6947C7.99968 11.0937 7.99943 11.4318 8.05965 11.7334C8.30457 12.9598 9.26617 13.9153 10.4922 14.1582C10.7937 14.2179 11.132 14.2177 11.533 14.2174L11.6191 14.2174H24.1905L24.2765 14.2174C24.6776 14.2177 25.0158 14.2179 25.3174 14.1582C26.5434 13.9153 27.505 12.9598 27.7499 11.7334C27.7581 11.6925 27.7651 11.6509 27.7712 11.6087V9.60866C27.7651 9.56637 27.7581 9.52482 27.7499 9.48394C27.505 8.25751 26.5434 7.30203 25.3174 7.05913C25.0158 6.99938 24.6776 6.99963 24.2765 6.99992L24.1905 6.99996H11.6191ZM16.381 22.667C15.205 22.7991 14.2857 23.7939 14.2857 25.0087V30.6434C14.2857 31.9486 15.3469 33 16.6476 33H18.1143C19.415 33 20.4762 31.9486 20.4762 30.6434V25.0087C20.4762 23.7939 19.557 22.7991 18.381 22.667H16.381Z" fill="black"/>
<path d="M28.9048 9.60864H27.7712V11.6086H28.9048C29.5134 11.6086 30 12.099 30 12.6956V17.2098C30 17.8064 29.5134 18.2967 28.9048 18.2967H19.4762C17.7705 18.2967 16.381 19.6751 16.381 21.3837V22.667H18.381V21.3837C18.381 20.7871 18.8676 20.2967 19.4762 20.2967H28.9048C30.6105 20.2967 32 18.9184 32 17.2098V12.6956C32 10.987 30.6105 9.60864 28.9048 9.60864Z" fill="black"/>
</svg>
