<svg width="40" height="40" viewBox="0 0 40 40" fill="none" xmlns="http://www.w3.org/2000/svg">
<path opacity="0.3" d="M24.6 26.1997C24.6 25.6474 24.6 25.3712 24.7034 25.1618C24.7969 24.9725 24.935 24.8285 25.1203 24.7273C25.3252 24.6153 25.6166 24.6031 26.1996 24.5789C26.7565 24.5558 27.2142 24.5075 27.6341 24.4066C29.2024 24.0301 30.5601 23.134 31.5178 21.9076C31.795 21.5525 31.9337 21.375 31.9548 21.0697C31.9758 20.7655 31.7695 20.3426 31.5168 20.172C31.2632 20.0007 30.9708 20.0007 30.3861 20.0007H9.61383C9.02912 20.0007 8.73677 20.0007 8.48315 20.172C8.23047 20.3426 8.02415 20.7655 8.04518 21.0697C8.06629 21.375 8.20492 21.5525 8.48218 21.9076C9.43988 23.134 10.7975 24.0301 12.3659 24.4066C12.7858 24.5075 13.2435 24.5558 13.8004 24.5789C14.3833 24.6031 14.6748 24.6153 14.8797 24.7273C15.0649 24.8285 15.2031 24.9725 15.2966 25.1618C15.4 25.3712 15.4 25.6474 15.4 26.1997V28.4001C15.4 30.9406 17.4595 33.0001 20 33.0001C22.5405 33.0001 24.6 30.9406 24.6 28.4001V26.1997Z" fill="black"/>
<path d="M32.8066 12.3659C32.1921 9.80634 30.1937 7.8079 27.6341 7.19341C27.3774 7.13178 27.1066 7.08976 26.8076 7.06113C26.2967 7.01219 26.0413 6.98773 25.8066 7.08817C25.6117 7.17157 25.424 7.34216 25.3224 7.52818C25.2 7.75223 25.2 8.03832 25.2 8.61051V11.6C25.2 12.1523 24.7523 12.6 24.2 12.6C23.6477 12.6 23.2 12.1523 23.2 11.6V8.1C23.2 8.00714 23.2 7.96071 23.1969 7.92154C23.1584 7.43116 22.7689 7.04168 22.2785 7.00308C22.2393 7 22.1929 7 22.1 7C22.0072 7 21.9607 7 21.9216 7.00308C21.4312 7.04168 21.0417 7.43116 21.0031 7.92154C21 7.96071 21 8.00714 21 8.1V14.6C21 15.1523 20.5523 15.6 20 15.6C19.4477 15.6 19 15.1523 19 14.6V8.1C19 8.00714 19 7.96071 18.9969 7.92154C18.9584 7.43116 18.5689 7.04168 18.0785 7.00308C18.0393 7 17.9929 7 17.9 7C17.8072 7 17.7607 7 17.7216 7.00308C17.2312 7.04168 16.8417 7.43116 16.8031 7.92154C16.8 7.96071 16.8 8.00714 16.8 8.1V12.8C16.8 13.3523 16.3523 13.8 15.8 13.8C15.2477 13.8 14.8 13.3523 14.8 12.8V8.61051C14.8 8.03832 14.8 7.75223 14.6777 7.52818C14.5761 7.34216 14.3884 7.17157 14.1935 7.08817C13.9588 6.98773 13.7033 7.01219 13.1924 7.06113C12.8934 7.08976 12.6226 7.13178 12.3659 7.19341C9.80637 7.8079 7.80793 9.80634 7.19344 12.3659C6.99966 13.173 6.9998 14.1197 7.00001 15.6425L7.00003 15.8L7.00001 15.9575C6.99999 16.1426 6.99996 17.3191 7.00029 17.488C7.00125 17.9909 7.00173 18.2424 7.11088 18.4559C7.20354 18.6371 7.36636 18.7996 7.54779 18.8919C7.7615 19.0007 8.02238 19.0007 8.54416 19.0007H31.4559C31.9777 19.0007 32.2386 19.0007 32.4523 18.8919C32.6337 18.7996 32.7965 18.6371 32.8892 18.4559C32.9983 18.2424 32.9988 17.9909 32.9998 17.488C33.0001 17.3191 33.0001 16.1426 33 15.9575L33 15.8L33 15.6425C33.0003 14.1197 33.0004 13.173 32.8066 12.3659Z" fill="black"/>
</svg>
