<svg width="24" height="24" viewBox="0 0 24 24" fill="none" xmlns="http://www.w3.org/2000/svg">
<path fill-rule="evenodd" clip-rule="evenodd" d="M4 6C4 4.89543 4.89543 4 6 4C7.10457 4 8 4.89543 8 6C8 7.10457 7.10457 8 6 8C4.89543 8 4 7.10457 4 6ZM12 8H6C4.98555 8 4.05931 8.37764 3.35418 9C2.52376 8.26706 2 7.19469 2 6C2 3.79086 3.79086 2 6 2C7.19469 2 8.26706 2.52376 9 3.35418C9.73295 2.52376 10.8053 2 12 2C14.2091 2 16 3.79086 16 6C16 6.97964 15.6478 7.87702 15.0632 8.57246C14.4608 8.20907 13.7548 8 13 8H12ZM12 8C13.1046 8 14 7.10457 14 6C14 4.89543 13.1046 4 12 4C10.8954 4 10 4.89543 10 6C10 7.10457 10.8954 8 12 8ZM16.9807 16.395C16.9935 16.265 17 16.1333 17 16V12C17 11.8667 16.9935 11.735 16.9808 11.6051L20.2929 8.29292C20.5789 8.00692 21.009 7.92137 21.3827 8.07615C21.7564 8.23093 22 8.59557 22 9.00003V19C22 19.4045 21.7564 19.7691 21.3827 19.9239C21.009 20.0787 20.5789 19.9931 20.2929 19.7071L16.9823 16.3966L16.9807 16.395Z" fill="black" fill-opacity="0.4"/>
<rect x="2" y="8" width="15" height="12" rx="4" fill="black"/>
</svg>
