<svg width="24" height="24" viewBox="0 0 24 24" fill="none" xmlns="http://www.w3.org/2000/svg">
<path d="M16.156 8.0079C15.903 7.97202 15.627 8.06073 15.406 8.22619C14.964 8.55614 14.887 9.15621 15.219 9.5968C15.734 10.2816 16 11.1209 16 11.9951C16 12.8554 15.75 13.6837 15.25 14.3625C14.923 14.8061 14.992 15.4072 15.438 15.7331C15.883 16.0591 16.517 15.9903 16.844 15.5467C17.593 14.529 18 13.284 18 11.9951C18 10.6853 17.585 9.43932 16.812 8.41261C16.647 8.19232 16.41 8.04379 16.156 8.0079ZM7.8438 8.03881C7.5905 8.07569 7.3526 8.19232 7.1875 8.41261C6.4211 9.43732 6 10.6903 6 11.9951C6 13.3199 6.4298 14.5758 7.2188 15.6085C7.5533 16.0461 8.1856 16.1288 8.625 15.7959C9.0644 15.462 9.1471 14.832 8.8125 14.3934C8.2865 13.7046 8 12.8803 8 11.9951C8 11.1239 8.3015 10.3105 8.8125 9.6277C9.1427 9.18612 9.0365 8.55514 8.5938 8.22619C8.3724 8.06172 8.097 8.00193 7.8438 8.03881ZM12 10.0015C11.448 10.0015 10.956 10.2328 10.594 10.5936C10.232 10.9544 10 11.4449 10 11.9951C10 13.0966 10.895 13.9887 12 13.9887C13.105 13.9887 14 13.0966 14 11.9951C14 10.8936 13.105 10.0015 12 10.0015Z" fill="black"/>
<path fill-rule="evenodd" clip-rule="evenodd" d="M1.99902 6.00001C1.99902 3.79101 3.78992 2 5.99902 2C7.38222 2 8.63422 2.87 9.40522 4.00001H17.999C19.656 4.00001 21.079 5.002 21.687 6.438C21.889 6.916 21.999 7.44802 21.999 8.00002V16C21.999 16.552 21.889 17.084 21.687 17.563C21.079 18.998 19.656 20.0001 17.999 20.0001H5.99902C3.78982 20.0001 1.99902 18.2091 1.99902 16V6.00001ZM6 6.98584C6.55228 6.98584 7 6.53812 7 5.98584C7 5.43356 6.55228 4.98584 6 4.98584C5.44772 4.98584 5 5.43356 5 5.98584C5 6.53812 5.44772 6.98584 6 6.98584Z" fill="black" fill-opacity="0.4"/>
</svg>
