<svg width="24" height="24" viewBox="0 0 24 24" fill="none" xmlns="http://www.w3.org/2000/svg">
<path d="M5.99878 2C3.78978 2 1.99878 3.79099 1.99878 5.99999V16C1.99878 18.2089 3.78978 19.9999 5.99878 19.9999H17.9988C20.2078 19.9999 21.9988 18.2089 21.9988 16V7.99998C21.9988 5.79099 20.2078 3.99999 17.9988 3.99999H9.40479C8.63379 2.87 7.38178 2 5.99878 2ZM5.99878 4.99999C6.55078 4.99999 6.99878 5.44799 6.99878 5.99999C6.99878 6.55198 6.55078 6.99998 5.99878 6.99998C5.44678 6.99998 4.99878 6.55198 4.99878 5.99999C4.99878 5.44799 5.44678 4.99999 5.99878 4.99999ZM11.9988 6.99998C14.7598 6.99998 16.9988 9.23798 16.9988 12C16.9988 14.761 14.7598 16.9999 11.9988 16.9999C9.23778 16.9999 6.99878 14.762 6.99878 12C6.99878 9.23898 9.23778 6.99998 11.9988 6.99998Z" fill="black" fill-opacity="0.4"/>
<circle cx="12" cy="12" r="3" fill="black"/>
</svg>
