<svg width="40" height="40" viewBox="0 0 40 40" fill="none" xmlns="http://www.w3.org/2000/svg">
<path opacity="0.3" d="M26.4222 10.0851C25.3809 9.99999 24.087 9.99999 22.4444 10H17.5556C15.913 9.99999 14.6191 9.99999 13.5778 10.0851C12.5154 10.1719 11.6283 10.3522 10.8221 10.763C9.50493 11.4341 8.43407 12.5049 7.76296 13.8221C7.35217 14.6283 7.17186 15.5154 7.08507 16.5778C6.99999 17.6191 6.99999 18.913 7 20.5556V22.4444C6.99999 24.087 6.99999 25.3809 7.08507 26.4222C7.17186 27.4846 7.35217 28.3717 7.76296 29.1779C8.43407 30.4951 9.50493 31.5659 10.8221 32.237C11.6283 32.6478 12.5154 32.8281 13.5778 32.9149C14.6191 33 15.913 33 17.5556 33H22.4444C24.087 33 25.3809 33 26.4222 32.9149C27.4846 32.8281 28.3717 32.6478 29.1779 32.237C30.4951 31.5659 31.5659 30.4951 32.2371 29.1779C32.6478 28.3717 32.8281 27.4846 32.9149 26.4222C33 25.3809 33 24.087 33 22.4444V20.5556C33 18.913 33 17.6191 32.9149 16.5778C32.8281 15.5154 32.6478 14.6283 32.2371 13.8221C31.5659 12.5049 30.4951 11.4341 29.1779 10.763C28.3717 10.3522 27.4846 10.1719 26.4222 10.0851Z" fill="black"/>
<path fill-rule="evenodd" clip-rule="evenodd" d="M14.9998 7C14.4475 7 13.9998 7.44772 13.9998 8C13.9998 8.55228 14.4475 9 14.9998 9H24.9998C25.552 9 25.9998 8.55228 25.9998 8C25.9998 7.44772 25.552 7 24.9998 7H14.9998Z" fill="black"/>
<path d="M12.7306 14.4231C12.1783 14.4231 11.7306 14.8708 11.7306 15.4231C11.7306 15.9754 12.1783 16.4231 12.7306 16.4231H13.6537C14.206 16.4231 14.6537 15.9754 14.6537 15.4231C14.6537 14.8708 14.206 14.4231 13.6537 14.4231H12.7306Z" fill="black"/>
<path fill-rule="evenodd" clip-rule="evenodd" d="M20.1152 16.2692C17.0139 16.2692 14.4998 18.7833 14.4998 21.8846C14.4998 24.9859 17.0139 27.5 20.1152 27.5C23.2165 27.5 25.7306 24.9859 25.7306 21.8846C25.7306 18.7833 23.2165 16.2692 20.1152 16.2692ZM20.1152 18.2692C18.1185 18.2692 16.4998 19.8879 16.4998 21.8846C16.4998 23.8813 18.1185 25.5 20.1152 25.5C22.1119 25.5 23.7306 23.8813 23.7306 21.8846C23.7306 19.8879 22.1119 18.2692 20.1152 18.2692Z" fill="black"/>
</svg>
