<svg width="40" height="40" viewBox="0 0 40 40" fill="none" xmlns="http://www.w3.org/2000/svg">
<path opacity="0.3" d="M15.0332 7C15.4709 6.99999 15.8506 6.99998 16.1654 7.02238C16.4979 7.04606 16.8322 7.09831 17.1622 7.24093C17.9037 7.56145 18.4798 8.17006 18.7773 8.91936C18.9082 9.24919 18.9567 9.58387 18.9789 9.9233C18.9888 10.0742 18.994 10.2401 18.9968 10.4206L23.2963 8.92514C24.6771 8.44486 25.7799 8.06125 26.6778 7.83982C27.5913 7.61454 28.423 7.52111 29.2277 7.73193C30.4763 8.0591 31.5458 8.86915 32.2257 9.98147C32.6594 10.691 32.8346 11.5218 32.9179 12.4886C33.0001 13.4421 33.0001 14.6507 33.0001 16.1741V25.3632C33.0001 26.4969 33.0001 27.406 32.9425 28.1412C32.8834 28.8958 32.7591 29.5527 32.4627 30.1598C31.9891 31.1296 31.2294 31.9261 30.2855 32.428C29.6895 32.7449 29.0445 32.8771 28.3122 32.9395C27.6026 33 26.7269 33 25.6445 33H25.6445H14.3556C13.2732 33 12.3976 33 11.6879 32.9395C10.9556 32.8771 10.3106 32.7449 9.71465 32.428C8.77067 31.9261 8.01102 31.1296 7.53744 30.1598C7.24101 29.5527 7.11669 28.8958 7.05761 28.1412C7.00004 27.406 7.00005 26.4968 7.00006 25.3632L7.00006 19.704L7.00003 19.5516C6.99967 18.3666 6.99943 17.5683 7.20398 16.85C7.52077 15.7375 8.19169 14.761 9.11698 14.0854C9.61268 13.7234 10.2045 13.4851 11.0001 13.203L11.0001 11.0993V11.0992C11 10.6396 11 10.2472 11.0212 9.9233C11.0434 9.58387 11.0919 9.24919 11.2229 8.91936C11.5203 8.17006 12.0964 7.56145 12.8379 7.24093C13.1679 7.09831 13.5022 7.04606 13.8347 7.02238C14.1495 6.99998 14.5293 6.99999 14.967 7H14.967H15.0331H15.0332Z" fill="black"/>
<path fill-rule="evenodd" clip-rule="evenodd" d="M17.0554 17.0472C16.6732 16.6485 16.0402 16.635 15.6415 17.0171C15.2427 17.3993 15.2293 18.0323 15.6114 18.431L16 18.8366V24.9895L15.6114 25.3951C15.2293 25.7938 15.2427 26.4268 15.6415 26.809C16.0402 27.1911 16.6732 27.1776 17.0554 26.7789L17.4268 26.3913H23.24L23.6114 26.7789C23.9935 27.1776 24.6265 27.1911 25.0253 26.809C25.424 26.4268 25.4375 25.7938 25.0554 25.3951L24.6667 24.9895V18.8366L25.0554 18.431C25.4375 18.0323 25.424 17.3993 25.0253 17.0171C24.6265 16.635 23.9935 16.6485 23.6114 17.0472L23.24 17.4348H17.4268L17.0554 17.0472ZM18 20.4348V23.3913C18 23.9436 18.4478 24.3913 19 24.3913H21.6667C22.219 24.3913 22.6667 23.9436 22.6667 23.3913V20.4348C22.6667 19.8825 22.219 19.4348 21.6667 19.4348H19C18.4478 19.4348 18 19.8825 18 20.4348Z" fill="black"/>
</svg>
