<svg width="40" height="40" viewBox="0 0 40 40" fill="none" xmlns="http://www.w3.org/2000/svg">
<path opacity="0.3" d="M31 23.5V19C32.1046 19 33 18.1046 33 17C33 16.4477 32.5523 16 32 16H30.2308L28.9581 13.0304C28.1702 11.192 26.3626 10 24.3624 10H15.6376C13.6374 10 11.8298 11.192 11.0419 13.0304L9.76918 16H8C7.44772 16 7 16.4477 7 17C7 18.1046 7.91013 19 9.0147 19L9.08086 23.5L9 28C9 28.5523 9.44772 29 10 29H12C12.5523 29 13 28.5523 13 28V27H27V28C27 28.5523 27.4477 29 28 29H30C30.5523 29 31 28.5523 31 28V23.5Z" fill="black"/>
<path d="M12.0298 21.2575C12.1638 20.7217 12.7067 20.3959 13.2425 20.5298L15.2425 21.0298C15.7783 21.1638 16.1041 21.7067 15.9701 22.2425C15.8362 22.7783 15.2933 23.1041 14.7575 22.9701L12.7575 22.4701C12.2217 22.3362 11.8959 21.7933 12.0298 21.2575Z" fill="black"/>
<path d="M27.9701 21.2575C28.1041 21.7933 27.7783 22.3362 27.2425 22.4701L25.2425 22.9701C24.7067 23.1041 24.1638 22.7783 24.0299 22.2425C23.8959 21.7067 24.2217 21.1638 24.7575 21.0298L26.7575 20.5298C27.2933 20.3959 27.8362 20.7217 27.9701 21.2575Z" fill="black"/>
</svg>
