<svg width="24" height="24" viewBox="0 0 24 24" fill="none" xmlns="http://www.w3.org/2000/svg">
<path d="M5.99903 4C3.79003 4 1.99902 5.791 1.99902 8V16C1.99902 18.209 3.79003 20 5.99903 20H17.999C20.2081 20 21.9991 18.209 21.9991 16V8C21.9991 5.791 20.2081 4 17.999 4H5.99903ZM5.99903 6H17.999C19.104 6 19.9991 6.895 19.9991 8V16C19.9991 17.105 19.104 18 17.999 18H5.99903C4.89403 18 3.99903 17.105 3.99903 16V8C3.99903 6.895 4.89403 6 5.99903 6Z" fill="black" fill-opacity="0.4"/>
<path d="M7 9C6.448 9 6 9.448 6 10C6 10.552 6.448 11 7 11C7.552 11 8 10.552 8 10C8 9.448 7.552 9 7 9ZM11 9C10.448 9 10 9.448 10 10C10 10.552 10.448 11 11 11H17C17.552 11 18 10.552 18 10C18 9.448 17.552 9 17 9H11ZM7 13C6.448 13 6 13.448 6 14C6 14.552 6.448 15 7 15C7.552 15 8 14.552 8 14C8 13.448 7.552 13 7 13ZM11 13C10.448 13 10 13.448 10 14C10 14.552 10.448 15 11 15H17C17.552 15 18 14.552 18 14C18 13.448 17.552 13 17 13H11Z" fill="black"/>
</svg>
