<svg width="24" height="24" viewBox="0 0 24 24" fill="none" xmlns="http://www.w3.org/2000/svg">
<path fill-rule="evenodd" clip-rule="evenodd" d="M6 4C3.79086 4 2 5.79086 2 8V15.9999C2 15.9999 2.86929 14.696 4 13.3039V8C4 6.89543 4.89543 6 6 6H18C19.1046 6 20 6.89543 20 8V14.172C21.0265 15.0136 22 15.9999 22 15.9999V8C22 5.79086 20.2091 4 18 4H6Z" fill="black" fill-opacity="0.4"/>
<path fill-rule="evenodd" clip-rule="evenodd" d="M16.5 11C17.3284 11 18 10.3284 18 9.5C18 8.67157 17.3284 8 16.5 8C15.6716 8 15 8.67157 15 9.5C15 10.3284 15.6716 11 16.5 11ZM14 15C14 15 10 10 8 10C6 10 2 15.9999 2 15.9999C2 18.2691 3.75839 19.9999 6 19.9999H18C20.3279 19.9999 22 18.2327 22 15.9999C22 15.9999 19.039 12.9999 18 13C16.961 13.0001 14 15 14 15Z" fill="black"/>
</svg>
