<svg width="24" height="24" viewBox="0 0 24 24" fill="none" xmlns="http://www.w3.org/2000/svg">
<path d="M6 4C3.791 4 2 5.791 2 8V16C2 18.209 3.791 20 6 20H18C20.21 20 22 18.209 22 16V8C22 5.791 20.21 4 18 4H6ZM11 9H17C17.553 9 18 9.448 18 10C18 10.552 17.553 11 17 11H11C10.448 11 10 10.552 10 10C10 9.448 10.448 9 11 9ZM11 13H17C17.553 13 18 13.448 18 14C18 14.552 17.553 15 17 15H11C10.448 15 10 14.552 10 14C10 13.448 10.448 13 11 13Z" fill="black" fill-opacity="0.4"/>
<path fill-rule="evenodd" clip-rule="evenodd" d="M7 11C7.55228 11 8 10.5523 8 10C8 9.44772 7.55228 9 7 9C6.44772 9 6 9.44772 6 10C6 10.5523 6.44772 11 7 11ZM7 15C7.55228 15 8 14.5523 8 14C8 13.4477 7.55228 13 7 13C6.44772 13 6 13.4477 6 14C6 14.5523 6.44772 15 7 15Z" fill="black"/>
</svg>
