<svg width="24" height="24" viewBox="0 0 24 24" fill="none" xmlns="http://www.w3.org/2000/svg">
<path d="M5.99902 4C3.78992 4 1.99902 5.791 1.99902 8V16C1.99902 18.209 3.78992 20 5.99902 20H17.999C20.2081 20 21.999 18.209 21.999 16V8C21.999 5.791 20.2081 4 17.999 4H5.99902ZM5.99902 6H17.999C19.1036 6 19.999 6.895 19.999 8V16C19.999 17.105 19.1036 18 17.999 18H5.99902C4.89442 18 3.99902 17.105 3.99902 16V8C3.99902 6.895 4.89442 6 5.99902 6Z" fill="black" fill-opacity="0.4"/>
<path d="M7 9C6.4477 9 6 9.448 6 10C6 10.552 6.4477 11 7 11H17C17.5523 11 18 10.552 18 10C18 9.448 17.5523 9 17 9H7ZM7 13C6.4477 13 6 13.448 6 14C6 14.552 6.4477 15 7 15H13C13.5523 15 14 14.552 14 14C14 13.448 13.5523 13 13 13H7Z" fill="black"/>
</svg>
