<svg width="24" height="24" viewBox="0 0 24 24" fill="none" xmlns="http://www.w3.org/2000/svg">
<path fill-rule="evenodd" clip-rule="evenodd" d="M6 4C3.79086 4 2 5.79086 2 8V15.7638L2.10557 15.5527C2.66439 14.4351 3.30209 13.3597 4 12.4358V8C4 6.89543 4.89543 6 6 6H18C19.1046 6 20 6.89543 20 8V13.5743C20.5993 14.014 21.2075 14.6099 21.8 15.3999L22 15.6665V8C22 5.79086 20.2091 4 18 4H6ZM22 15.9999C22 16.001 22 16.0021 22 16.0032C22 16.0021 22 16.0011 22 16V15.9999Z" fill="black" fill-opacity="0.4"/>
<path fill-rule="evenodd" clip-rule="evenodd" d="M17 10C17.5523 10 18 9.55228 18 9C18 8.44772 17.5523 8 17 8C16.4477 8 16 8.44772 16 9C16 9.55228 16.4477 10 17 10ZM6 17.9999C4.92795 17.9999 4.11076 17.2609 4.01039 16.2183C4.70743 14.861 5.4893 13.6651 6.29203 12.8089C7.16384 11.879 7.91599 11.5 8.5 11.5C8.75241 11.5 9.08203 11.5969 9.4992 11.8485C9.91232 12.0976 10.35 12.4614 10.8007 12.9023C11.4289 13.5168 11.9928 14.1852 12.5188 14.8088C12.7711 15.1079 13.0148 15.3967 13.2526 15.6643C13.5981 16.053 14.1839 16.1119 14.6 15.7999C14.9371 15.5471 15.3922 15.207 15.8747 14.9286C16.3914 14.6305 16.7795 14.4999 17.0001 14.4999C17.599 14.4998 18.7229 14.7747 19.9791 16.317C19.8453 17.3081 19.0822 17.9999 18 17.9999H6ZM8.5 9.5C7.08401 9.5 5.83616 10.371 4.83297 11.441C3.80552 12.5369 2.87982 14.0042 2.10557 15.5527L2 15.7638V15.9999C2 18.2691 3.75839 19.9999 6 19.9999H18C20.3279 19.9999 22 18.2327 22 15.9999V15.6665L21.8 15.3999C20.1443 13.1924 18.3661 12.4997 16.9999 12.4999C16.2205 12.5 15.4419 12.8693 14.8753 13.1962C14.6229 13.3419 14.3803 13.4987 14.1594 13.6499L14.1326 13.6181C13.5797 12.9636 12.896 12.1541 12.1993 11.4726C11.6917 10.9761 11.1293 10.4961 10.5321 10.1358C9.93881 9.77807 9.24759 9.5 8.5 9.5Z" fill="black"/>
</svg>
