<svg width="24" height="24" viewBox="0 0 24 24" fill="none" xmlns="http://www.w3.org/2000/svg">
<path d="M17 21C19.209 21 21 19.209 21 17V7C21 4.791 19.209 3 17 3H7C4.791 3 3 4.791 3 7V17C3 19.209 4.791 21 7 21H17ZM17 19H7C5.895 19 5 18.105 5 17L5 7C5 5.895 5.895 5 7 5H17C18.105 5 19 5.895 19 7V17C19 18.105 18.105 19 17 19Z" fill="black" fill-opacity="0.4"/>
<path d="M15.9978 15C16.8368 15 17.3028 14.03 16.7788 13.375C16.2788 12.75 13.2788 9 12.7788 8.375C12.3788 7.875 11.6168 7.875 11.2168 8.375L7.21684 13.375C6.69284 14.03 7.15884 15 7.99784 15L15.9978 15Z" fill="black"/>
</svg>
