<svg width="24" height="24" viewBox="0 0 24 24" fill="none" xmlns="http://www.w3.org/2000/svg">
<path d="M18.0133 16C18.8373 16 19.289 15.0644 18.7945 14.405C18.0445 13.4044 13.5446 7.40063 12.7945 6.4C12.3945 5.86667 11.6008 5.86667 11.2008 6.4L5.20078 14.405C4.70638 15.0644 5.18918 16 6.01328 16L18.0133 16Z" fill="black" fill-opacity="0.4"/>
<path fill-rule="evenodd" clip-rule="evenodd" d="M18.5999 15.7999C18.1581 16.1313 17.5313 16.0418 17.1999 15.5999L11.9999 8.66661L6.79994 15.5999C6.46857 16.0418 5.84177 16.1313 5.39994 15.7999C4.95811 15.4686 4.86857 14.8418 5.19994 14.3999L11.1999 6.39994C11.3888 6.14814 11.6852 5.99994 11.9999 5.99994C12.3147 5.99994 12.6111 6.14814 12.7999 6.39994L18.7999 14.3999C19.1313 14.8418 19.0418 15.4686 18.5999 15.7999Z" fill="black"/>
</svg>
