<svg width="24" height="24" viewBox="0 0 24 24" fill="none" xmlns="http://www.w3.org/2000/svg">
<path d="M7 3C4.791 3 3 4.791 3 7V17C3 19.209 4.791 21 7 21H17C19.209 21 21 19.209 21 17V7C21 4.791 19.209 3 17 3H7ZM7 5H17C18.105 5 19 5.895 19 7V17C19 18.105 18.105 19 17 19H7C5.895 19 5 18.105 5 17V7C5 5.895 5.895 5 7 5Z" fill="black" fill-opacity="0.4"/>
<path d="M8.00216 9C7.16316 9 6.69715 9.97 7.22115 10.625C7.72115 11.25 10.7212 15 11.2212 15.625C11.6212 16.125 12.3832 16.125 12.7832 15.625L16.7832 10.625C17.3072 9.97 16.8412 9 16.0022 9H8.00216Z" fill="black"/>
</svg>
