<svg width="24" height="24" viewBox="0 0 24 24" fill="none" xmlns="http://www.w3.org/2000/svg">
<path d="M8 5.98672C8 5.16272 8.93558 4.71102 9.59499 5.20552C10.5956 5.95552 16.5994 10.4554 17.6 11.2055C18.1333 11.6055 18.1333 12.3992 17.6 12.7992L9.59499 18.7992C8.93558 19.2936 8 18.8108 8 17.9867L8 5.98672Z" fill="black" fill-opacity="0.4"/>
<path fill-rule="evenodd" clip-rule="evenodd" d="M8.20006 5.40006C7.86869 5.84189 7.95823 6.46869 8.40006 6.80006L15.3334 12.0001L8.40006 17.2001C7.95823 17.5314 7.86869 18.1582 8.20006 18.6001C8.53143 19.0419 9.15823 19.1314 9.60006 18.8001L17.6001 12.8001C17.8519 12.6112 18.0001 12.3148 18.0001 12.0001C18.0001 11.6853 17.8519 11.3889 17.6001 11.2001L9.60006 5.20006C9.15823 4.86869 8.53143 4.95823 8.20006 5.40006Z" fill="black"/>
</svg>
