<svg width="24" height="24" viewBox="0 0 24 24" fill="none" xmlns="http://www.w3.org/2000/svg">
<path fill-rule="evenodd" clip-rule="evenodd" d="M5 15C5 15.5523 5.44772 16 6 16H18C18.5523 16 19 15.5523 19 15C19 14.4477 18.5523 14 18 14L6 14C5.44772 14 5 14.4477 5 15Z" fill="black" fill-opacity="0.4"/>
<path fill-rule="evenodd" clip-rule="evenodd" d="M5.40006 15.7999C5.84189 16.1313 6.46869 16.0418 6.80006 15.5999L12.0001 8.66661L17.2001 15.5999C17.5314 16.0418 18.1582 16.1313 18.6001 15.7999C19.0419 15.4686 19.1314 14.8418 18.8001 14.3999L12.8001 6.39994C12.6112 6.14814 12.3148 5.99994 12.0001 5.99994C11.6853 5.99994 11.3889 6.14814 11.2001 6.39994L5.20006 14.3999C4.86869 14.8418 4.95823 15.4686 5.40006 15.7999Z" fill="black"/>
</svg>
