<svg width="24" height="24" viewBox="0 0 24 24" fill="none" xmlns="http://www.w3.org/2000/svg">
<path d="M5.98672 8C5.16272 8 4.71102 8.93558 5.20552 9.59499C5.95552 10.5956 10.4554 16.5994 11.2055 17.6C11.6055 18.1333 12.3992 18.1333 12.7992 17.6L18.7992 9.59499C19.2936 8.93558 18.8108 8 17.9867 8H5.98672Z" fill="black" fill-opacity="0.4"/>
<path fill-rule="evenodd" clip-rule="evenodd" d="M5.40006 8.20006C5.84189 7.86869 6.46869 7.95823 6.80006 8.40006L12.0001 15.3334L17.2001 8.40006C17.5314 7.95823 18.1582 7.86869 18.6001 8.20006C19.0419 8.53143 19.1314 9.15823 18.8001 9.60006L12.8001 17.6001C12.6112 17.8519 12.3148 18.0001 12.0001 18.0001C11.6853 18.0001 11.3889 17.8519 11.2001 17.6001L5.20006 9.60006C4.86869 9.15823 4.95823 8.53143 5.40006 8.20006Z" fill="black"/>
</svg>
