<svg width="24" height="24" viewBox="0 0 24 24" fill="none" xmlns="http://www.w3.org/2000/svg">
<path d="M16 5.98672C16 5.16272 15.0644 4.71102 14.405 5.20552C13.4044 5.95552 7.40063 10.4554 6.4 11.2055C5.86667 11.6055 5.86667 12.3992 6.4 12.7992L14.405 18.7992C15.0644 19.2936 16 18.8108 16 17.9867V5.98672Z" fill="black" fill-opacity="0.4"/>
<path fill-rule="evenodd" clip-rule="evenodd" d="M15.7999 5.40006C16.1313 5.84189 16.0418 6.46869 15.5999 6.80006L8.66661 12.0001L15.5999 17.2001C16.0418 17.5314 16.1313 18.1582 15.7999 18.6001C15.4686 19.0419 14.8418 19.1314 14.3999 18.8001L6.39994 12.8001C6.14814 12.6112 5.99994 12.3148 5.99994 12.0001C5.99994 11.6853 6.14814 11.3889 6.39994 11.2001L14.3999 5.20006C14.8418 4.86869 15.4686 4.95823 15.7999 5.40006Z" fill="black"/>
</svg>
