<svg width="24" height="24" viewBox="0 0 24 24" fill="none" xmlns="http://www.w3.org/2000/svg">
<path fill-rule="evenodd" clip-rule="evenodd" d="M15 19C15.5523 19 16 18.5523 16 18V6C16 5.44771 15.5523 5 15 5C14.4477 5 14 5.44771 14 6V18C14 18.5523 14.4477 19 15 19Z" fill="black" fill-opacity="0.4"/>
<path fill-rule="evenodd" clip-rule="evenodd" d="M15.7999 18.5999C16.1313 18.1581 16.0418 17.5313 15.5999 17.1999L8.66661 11.9999L15.5999 6.79994C16.0418 6.46857 16.1313 5.84177 15.7999 5.39994C15.4686 4.95811 14.8418 4.86857 14.3999 5.19994L6.39994 11.1999C6.14814 11.3888 5.99994 11.6852 5.99994 11.9999C5.99994 12.3147 6.14814 12.6111 6.39994 12.7999L14.3999 18.7999C14.8418 19.1313 15.4686 19.0418 15.7999 18.5999Z" fill="black"/>
</svg>
