<svg width="40" height="40" viewBox="0 0 40 40" fill="none" xmlns="http://www.w3.org/2000/svg">
<path opacity="0.3" fill-rule="evenodd" clip-rule="evenodd" d="M8.18188 20.743C8.18188 19.6809 8.18188 19.1499 8.36181 18.731C8.6017 18.1725 9.06184 17.7288 9.641 17.4975C10.0754 17.324 10.626 17.324 11.7273 17.324H28.2728C29.3741 17.324 29.9248 17.324 30.3591 17.4975C30.9383 17.7288 31.3984 18.1725 31.6383 18.731C31.8183 19.1499 31.8183 19.6809 31.8183 20.743C31.8183 23.9291 31.8182 25.5221 31.2785 26.7788C30.5588 28.4543 29.1784 29.7854 27.4409 30.4795C26.1378 31 24.4858 31 21.1819 31H18.8182C15.5143 31 13.8623 31 12.5592 30.4795C10.8217 29.7854 9.44133 28.4543 8.72165 26.7788C8.18188 25.5221 8.18188 23.9291 8.18188 20.743ZM18.8182 21.8826V26.4413C18.8182 27.0707 18.2891 27.581 17.6364 27.581C16.9837 27.581 16.4546 27.0707 16.4546 26.4413V21.8826C16.4546 21.2532 16.9837 20.743 17.6364 20.743C18.2891 20.743 18.8182 21.2532 18.8182 21.8826ZM23.5455 26.4413V21.8826C23.5455 21.2532 23.0164 20.743 22.3637 20.743C21.711 20.743 21.1819 21.2532 21.1819 21.8826V26.4413C21.1819 27.0707 21.711 27.581 22.3637 27.581C23.0164 27.581 23.5455 27.0707 23.5455 26.4413Z" fill="black"/>
<path d="M31.8182 16.3088H8.18182C7.52912 16.3088 7 15.7985 7 15.1691C7 14.5397 7.52912 14.0295 8.18182 14.0295H12.9091L16.7414 10.3338C17.2029 9.88874 17.9512 9.88874 18.4128 10.3338C18.8743 10.7789 18.8743 11.5005 18.4128 11.9455L16.2518 14.0295H23.7485L21.5875 11.9455C21.126 11.5005 21.126 10.7789 21.5875 10.3338C22.049 9.88873 22.7973 9.88873 23.2588 10.3338L27.0912 14.0295H31.8182C32.4709 14.0295 33 14.5397 33 15.1691C33 15.7985 32.4709 16.3088 31.8182 16.3088Z" fill="black"/>
</svg>
