<svg width="24" height="24" viewBox="0 0 24 24" fill="none" xmlns="http://www.w3.org/2000/svg">
<path d="M4 7C3.448 7 3 7.4477 3 8V9C3 9.552 3.448 10 4 10C4.552 10 5 9.552 5 9H6C6.552 9 7 8.5523 7 8C7 7.4477 6.552 7 6 7H4ZM18 7C17.448 7 17 7.4477 17 8C17 8.5523 17.448 9 18 9H19C19 9.552 19.448 10 20 10C20.552 10 21 9.552 21 9V8C21 7.4477 20.552 7 20 7H18ZM12 9C10.343 9 9 10.343 9 12C9 13.657 10.343 15 12 15C13.657 15 15 13.657 15 12C15 10.343 13.657 9 12 9ZM12 11C12.552 11 13 11.448 13 12C13 12.552 12.552 13 12 13C11.448 13 11 12.552 11 12C11 11.448 11.448 11 12 11ZM4 14C3.448 14 3 14.448 3 15V16C3 16.552 3.448 17 4 17H6C6.552 17 7 16.552 7 16C7 15.448 6.552 15 6 15H5C5 14.448 4.552 14 4 14ZM20 14C19.448 14 19 14.448 19 15H18C17.448 15 17 15.448 17 16C17 16.552 17.448 17 18 17H20C20.552 17 21 16.552 21 16V15C21 14.448 20.552 14 20 14Z" fill="black"/>
<path fill-rule="evenodd" clip-rule="evenodd" d="M1 7.99731C1 6.34041 2.343 4.99731 4 4.99731H20C21.657 4.99731 23 6.34041 23 7.99731V15.9973C23 17.6543 21.657 18.9973 20 18.9973H4C2.343 18.9973 1 17.6543 1 15.9973V7.99731ZM12.0234 15C13.6803 15 15.0234 13.6569 15.0234 12C15.0234 10.3431 13.6803 9 12.0234 9C10.3666 9 9.02344 10.3431 9.02344 12C9.02344 13.6569 10.3666 15 12.0234 15Z" fill="black" fill-opacity="0.4"/>
</svg>
