<svg width="40" height="40" viewBox="0 0 40 40" fill="none" xmlns="http://www.w3.org/2000/svg">
<path opacity="0.3" fill-rule="evenodd" clip-rule="evenodd" d="M20.8948 13.1896V23.5783V25.5792C20.7258 25.5738 20.4981 25.5731 20.1559 25.5731H19.1053V30.7622C19.1053 32.0171 18.0728 33 16.8421 33H16.2106C13.9334 33 12.0527 31.1858 12.0527 28.9054V25.4901C11.9925 25.4809 11.9336 25.4708 11.8756 25.4594C9.48421 24.9933 7.59822 23.1569 7.1171 20.7866C6.99971 20.2083 6.99983 19.5393 7.00001 18.5098L7.00003 18.3839L7.00001 18.2581C6.99983 17.2286 6.99971 16.5596 7.1171 15.9812C7.59822 13.611 9.48421 11.7746 11.8756 11.3084C12.4599 11.1946 13.1368 11.1947 14.1924 11.1948L14.3158 11.1948H20.1559C20.4981 11.1948 20.7258 11.194 20.8948 11.1887V13.1896Z" fill="black"/>
<path d="M22.8948 24.0464V12.7215V10.4097L25.3362 8.91443C26.309 8.31859 27.0978 7.83545 27.7474 7.51441C28.4003 7.19173 29.0619 6.95322 29.7547 7.0078C30.761 7.08708 31.6896 7.58847 32.2988 8.39227C32.7209 8.94912 32.8664 9.63672 32.9334 10.3529C33.0001 11.0651 33.0001 11.9784 33 13.1008V23.6671C33.0001 24.7895 33.0001 25.7028 32.9334 26.4149C32.8664 27.1312 32.7209 27.8188 32.2988 28.3756C31.6896 29.1794 30.761 29.6808 29.7547 29.7601C29.0619 29.8147 28.4003 29.5761 27.7474 29.2535C27.0978 28.9324 26.309 28.4493 25.3361 27.8534L22.8948 26.3582V24.0464Z" fill="black"/>
</svg>
