<svg width="40" height="40" viewBox="0 0 40 40" fill="none" xmlns="http://www.w3.org/2000/svg">
<path fill-rule="evenodd" clip-rule="evenodd" d="M13.1327 14.7032C11.6469 13.2186 10.904 12.4762 9.84133 12.7031C8.77863 12.9301 8.46941 13.7393 7.85098 15.3578C7.30116 16.7968 7 18.3585 7 19.9904C7 27.1649 12.8203 32.9809 20 32.9809H28.6176C29.2464 32.9809 29.5562 33.0239 30 32.9809C30.5638 32.9262 30.7241 32.2817 30.3234 31.8813L13.1327 14.7032Z" fill="black"/>
<path opacity="0.3" d="M33 19.9904C33 12.816 27.1797 7 20 7C17.8486 7 15.8193 7.5222 14.0321 8.44668C12.6015 9.18667 11.8862 9.55666 11.7307 10.5601C11.5751 11.5635 12.2649 12.2528 13.6445 13.6314L31.6535 31.6272C31.914 31.8875 32.3441 31.8898 32.5402 31.578C32.8103 31.1484 32.9114 30.6851 32.957 30.2154C33 29.772 33 29.2301 33 28.6017V19.9904Z" fill="black"/>
</svg>
