<svg width="24" height="24" viewBox="0 0 24 24" fill="none" xmlns="http://www.w3.org/2000/svg">
<path d="M12 3C6.5017 3 2 6.99333 2 11.9827C2 13.5517 2.4419 15.0768 3.2812 16.4112C3.7322 17.1289 3.7742 18.1499 3.0938 19.5303C2.7849 20.1571 3.2096 20.8996 3.9062 20.9655C5.2631 21.0942 6.4092 20.8667 7.9688 20.2169C9.2112 20.7 10.6155 20.9655 12 20.9655C17.4983 20.9655 22 16.9712 22 11.9827C22 6.99333 17.4983 3 12 3Z" fill="black" fill-opacity="0.4"/>
<path d="M8 9C7.448 9 7 9.448 7 10C7 10.552 7.448 11 8 11H16C16.552 11 17 10.552 17 10C17 9.448 16.552 9 16 9H8ZM8 13C7.448 13 7 13.448 7 14C7 14.552 7.448 15 8 15H13C13.552 15 14 14.552 14 14C14 13.448 13.552 13 13 13H8Z" fill="black"/>
</svg>
