<svg width="24" height="24" viewBox="0 0 24 24" fill="none" xmlns="http://www.w3.org/2000/svg">
<path d="M12 1.9989C6.477 1.9989 2 6.4759 2 11.9989C2 13.1109 2.24099 14.4289 2.59399 15.4679L2.28101 16.7489C1.43801 20.1209 3.807 22.5629 7.188 21.7179L8.562 21.3739C9.637 21.7489 10.885 21.9989 12 21.9989C17.523 21.9989 22 17.5219 22 11.9989C22 6.4759 17.523 1.9989 12 1.9989Z" fill="black" fill-opacity="0.4"/>
<path fill-rule="evenodd" clip-rule="evenodd" d="M9 12C9 12.5523 8.55228 13 8 13C7.44772 13 7 12.5523 7 12C7 11.4477 7.44772 11 8 11C8.55228 11 9 11.4477 9 12ZM13 12C13 12.5523 12.5523 13 12 13C11.4477 13 11 12.5523 11 12C11 11.4477 11.4477 11 12 11C12.5523 11 13 11.4477 13 12ZM16 13C16.5523 13 17 12.5523 17 12C17 11.4477 16.5523 11 16 11C15.4477 11 15 11.4477 15 12C15 12.5523 15.4477 13 16 13Z" fill="black"/>
</svg>
