<svg width="40" height="40" viewBox="0 0 40 40" fill="none" xmlns="http://www.w3.org/2000/svg">
<path opacity="0.3" d="M7 14.2466C7 10.2833 10.0959 7 14 7H26C29.9041 7 33 10.2833 33 14.2466V20.4104C33 24.3737 29.9041 27.657 26 27.657H20.4806L16.665 32.4243C15.7168 33.609 14 32.8043 14 31.4666V27.6986C14 27.6767 13.9931 27.6636 13.9878 27.657C10.0895 27.6501 7 24.3696 7 20.4104V14.2466Z" fill="black"/>
<path d="M13 14.9962C13 14.4442 13.4477 13.9967 14 13.9967H26C26.5523 13.9967 27 14.4442 27 14.9962C27 15.5483 26.5523 15.9958 26 15.9958H14C13.4477 15.9958 13 15.5483 13 14.9962Z" fill="black"/>
<path d="M13 18.9944C13 18.4423 13.4477 17.9948 14 17.9948H22C22.5523 17.9948 23 18.4423 23 18.9944C23 19.5464 22.5523 19.9939 22 19.9939H14C13.4477 19.9939 13 19.5464 13 18.9944Z" fill="black"/>
</svg>
