<svg width="24" height="24" viewBox="0 0 24 24" fill="none" xmlns="http://www.w3.org/2000/svg">
<path d="M12 2.99841C6.50204 2.99841 2.00003 6.99941 2.00003 11.9984C2.00003 13.6214 2.48403 15.1934 3.37503 16.5604C3.51703 16.7794 3.64105 17.2744 3.56205 17.7484C3.48205 18.2384 3.22603 18.7174 2.71903 18.9984C2.56103 19.0864 2.00503 19.3304 2.00003 19.9984C1.99503 20.6664 2.57103 20.9954 3.00003 20.9984C4.01504 21.0064 10.253 20.9984 12 20.9984C17.4981 20.9984 22.0001 16.9974 22.0001 11.9984C22.0001 6.99941 17.4981 2.99841 12 2.99841Z" fill="black" fill-opacity="0.4"/>
<path d="M8 9C7.4477 9 7 9.448 7 10C7 10.552 7.4477 11 8 11H16C16.552 11 17 10.552 17 10C17 9.448 16.552 9 16 9H8ZM8 13C7.4477 13 7 13.448 7 14C7 14.552 7.4477 15 8 15H13C13.552 15 14 14.552 14 14C14 13.448 13.552 13 13 13H8Z" fill="black"/>
</svg>
