<svg width="24" height="24" viewBox="0 0 24 24" fill="none" xmlns="http://www.w3.org/2000/svg">
<path d="M6 3.9978C3.7909 3.9978 2 5.78755 2 7.99501V13.9908C2 16.1983 3.7909 17.988 6 17.988H8.5625L11.281 20.7051C11.671 21.0959 12.296 21.0949 12.688 20.7051L15.438 17.988H18C20.209 17.988 22 16.1983 22 13.9908V7.99501C22 5.78755 20.209 3.9978 18 3.9978H6Z" fill="black" fill-opacity="0.4"/>
<path d="M7 8C6.448 8 6 8.448 6 9C6 9.552 6.448 10 7 10H17C17.552 10 18 9.552 18 9C18 8.448 17.552 8 17 8H7ZM7 12C6.448 12 6 12.448 6 13C6 13.552 6.448 14 7 14H14C14.552 14 15 13.552 15 13C15 12.448 14.552 12 14 12H7Z" fill="black"/>
</svg>
