<svg width="40" height="40" viewBox="0 0 40 40" fill="none" xmlns="http://www.w3.org/2000/svg">
<path opacity="0.3" d="M20 7C12.8203 7 7 12.8203 7 20C7 27.1797 12.8203 33 20 33H28.6176C29.2464 33 29.7888 33 30.2325 32.957C30.7025 32.9114 31.1662 32.8103 31.5961 32.5402C31.9777 32.3004 32.3004 31.9777 32.5402 31.5961C32.8103 31.1662 32.9114 30.7025 32.957 30.2325C33 29.7888 33 29.2464 33 28.6176V20C33 12.8203 27.1797 7 20 7Z" fill="black"/>
<path d="M13 18C13 17.4477 13.4477 17 14 17H21C21.5523 17 22 17.4477 22 18C22 18.5523 21.5523 19 21 19H14C13.4477 19 13 18.5523 13 18Z" fill="black"/>
<path d="M13 22C13 21.4477 13.4477 21 14 21H26C26.5523 21 27 21.4477 27 22C27 22.5523 26.5523 23 26 23H14C13.4477 23 13 22.5523 13 22Z" fill="black"/>
</svg>
