<svg width="24" height="24" viewBox="0 0 24 24" fill="none" xmlns="http://www.w3.org/2000/svg">
<path d="M12 2.99829C6.502 2.99829 2 6.99306 2 11.9843C2 13.5538 2.44201 15.0794 3.28101 16.4154C3.73201 17.1322 3.77399 18.1536 3.09399 19.5345C2.78499 20.1615 3.21001 20.9043 3.90601 20.9702C5.26301 21.099 6.50301 20.7785 8.06201 20.1276C9.30501 20.6108 10.616 20.9702 12 20.9702C17.498 20.9702 22 16.9755 22 11.9843C22 6.99306 17.498 2.99829 12 2.99829Z" fill="black" fill-opacity="0.4"/>
<path fill-rule="evenodd" clip-rule="evenodd" d="M9 12C9 12.5523 8.55228 13 8 13C7.44772 13 7 12.5523 7 12C7 11.4477 7.44772 11 8 11C8.55228 11 9 11.4477 9 12ZM13 12C13 12.5523 12.5523 13 12 13C11.4477 13 11 12.5523 11 12C11 11.4477 11.4477 11 12 11C12.5523 11 13 11.4477 13 12ZM16 13C16.5523 13 17 12.5523 17 12C17 11.4477 16.5523 11 16 11C15.4477 11 15 11.4477 15 12C15 12.5523 15.4477 13 16 13Z" fill="black"/>
</svg>
