<svg width="40" height="40" viewBox="0 0 40 40" fill="none" xmlns="http://www.w3.org/2000/svg">
<path opacity="0.3" d="M14 7C10.0959 7 7 10.2833 7 14.2466V20.4104C7 24.3696 10.0895 27.6501 13.9878 27.657C13.9931 27.6636 14 27.6767 14 27.6986V31.4666C14 32.8043 15.7168 33.609 16.665 32.4243L20.4806 27.657H26C29.9041 27.657 33 24.3737 33 20.4104V14.2466C33 10.2833 29.9041 7 26 7H14Z" fill="black"/>
<path d="M25 17.495C25 18.3231 24.3284 18.9943 23.5 18.9943C22.6716 18.9943 22 18.3231 22 17.495C22 16.667 22.6716 15.9957 23.5 15.9957C24.3284 15.9957 25 16.667 25 17.495Z" fill="black"/>
<path d="M18 17.495C18 18.3231 17.3284 18.9943 16.5 18.9943C15.6716 18.9943 15 18.3231 15 17.495C15 16.667 15.6716 15.9957 16.5 15.9957C17.3284 15.9957 18 16.667 18 17.495Z" fill="black"/>
</svg>
