<svg width="24" height="24" viewBox="0 0 24 24" fill="none" xmlns="http://www.w3.org/2000/svg">
<path d="M6 3.9978C3.7909 3.9978 2 5.78755 2 7.99501V13.9908C2 16.1983 3.7909 17.988 6 17.988H8.5625L11.281 20.7051C11.671 21.0959 12.296 21.0949 12.688 20.7051L15.438 17.988H18C20.209 17.988 22 16.1983 22 13.9908V7.99501C22 5.78755 20.209 3.9978 18 3.9978H6Z" fill="black" fill-opacity="0.4"/>
<path fill-rule="evenodd" clip-rule="evenodd" d="M9 11C9 11.5523 8.55228 12 8 12C7.44772 12 7 11.5523 7 11C7 10.4477 7.44772 10 8 10C8.55228 10 9 10.4477 9 11ZM13 11C13 11.5523 12.5523 12 12 12C11.4477 12 11 11.5523 11 11C11 10.4477 11.4477 10 12 10C12.5523 10 13 10.4477 13 11ZM16 12C16.5523 12 17 11.5523 17 11C17 10.4477 16.5523 10 16 10C15.4477 10 15 10.4477 15 11C15 11.5523 15.4477 12 16 12Z" fill="black"/>
</svg>
