<svg width="40" height="40" viewBox="0 0 40 40" fill="none" xmlns="http://www.w3.org/2000/svg">
<path opacity="0.3" d="M24.4453 7.07844C23.2956 6.99999 21.8695 7 20.0375 7H19.9625C18.1305 7 16.7044 6.99999 15.5547 7.07844C14.3881 7.15803 13.4331 7.32172 12.5558 7.68508C10.3506 8.59853 8.59853 10.3506 7.68508 12.5558C7.32172 13.4331 7.15803 14.3881 7.07844 15.5547C6.99999 16.7044 7 18.1305 7 19.9625V20.0375C7 21.8695 6.99999 23.2956 7.07844 24.4453C7.15803 25.6119 7.32172 26.5669 7.68508 27.4442C8.59853 29.6494 10.3506 31.4015 12.5558 32.3149C13.4331 32.6783 14.3881 32.842 15.5547 32.9216C16.7044 33 18.1304 33 19.9624 33H20.0376C21.8696 33 23.2956 33 24.4453 32.9216C25.6119 32.842 26.5669 32.6783 27.4442 32.3149C29.6494 31.4015 31.4015 29.6494 32.3149 27.4442C32.6783 26.5669 32.842 25.6119 32.9216 24.4453C33 23.2956 33 21.8696 33 20.0376V19.9624C33 18.1304 33 16.7044 32.9216 15.5547C32.842 14.3881 32.6783 13.4331 32.3149 12.5558C31.4015 10.3506 29.6494 8.59853 27.4442 7.68508C26.5669 7.32172 25.6119 7.15803 24.4453 7.07844Z" fill="black"/>
<path d="M26.6807 15.2675C27.0853 15.6434 27.1085 16.2762 26.7325 16.6807L18.3689 25.6807C18.1797 25.8843 17.9143 26 17.6364 26C17.3584 26 17.093 25.8843 16.9038 25.6807L13.2675 21.7677C12.8915 21.3631 12.9147 20.7304 13.3193 20.3544C13.7238 19.9785 14.3566 20.0017 14.7325 20.4062L17.6364 23.531L25.2675 15.3193C25.6434 14.9147 26.2762 14.8915 26.6807 15.2675Z" fill="black"/>
</svg>
