<svg width="24" height="24" viewBox="0 0 24 24" fill="none" xmlns="http://www.w3.org/2000/svg">
<path d="M12.958 8.0033C12.7026 8.0033 12.4362 8.0893 12.2406 8.2843L7.53201 13.0343C7.27558 13.2923 7.01713 13.2443 6.81558 12.9413L5.81778 11.4413C5.51145 10.9813 4.87286 10.8533 4.41487 11.1593C3.95588 11.4663 3.82818 12.1063 4.13351 12.5653L5.13131 14.0653C6.03232 15.4193 7.78743 15.5913 8.93589 14.4413L13.6754 9.72229C14.0646 9.33129 14.0646 8.6753 13.6754 8.2843C13.4799 8.0893 13.2135 8.0033 12.958 8.0033Z" fill="black"/>
<path d="M19.0107 8C18.7547 8 18.4878 8.08601 18.2918 8.28101L13.5728 13.031C13.3158 13.289 13.0567 13.241 12.8547 12.938L12.4167 12.281L10.9487 13.75L11.1667 14.062C12.0697 15.416 13.8287 15.588 14.9797 14.438L19.7297 9.719C20.1197 9.328 20.1197 8.67201 19.7297 8.28101C19.5337 8.08601 19.2668 8 19.0107 8Z" fill="black" fill-opacity="0.4"/>
</svg>
