<svg width="24" height="24" viewBox="0 0 24 24" fill="none" xmlns="http://www.w3.org/2000/svg">
<path d="M20.9895 6C20.7338 6 20.4661 6.08447 20.2713 6.27598C20.2713 6.27598 9.93659 16.4105 9.81372 16.4969C10.7607 17.1815 12.0503 17.154 12.9673 16.2514L21.7077 7.68826C22.0973 7.30425 22.0973 6.65999 21.7077 6.27598C21.5129 6.08447 21.2452 6 20.9895 6Z" fill="black" fill-opacity="0.4"/>
<path d="M15.3707 6C15.115 6 14.8793 6.11492 14.6845 6.30643L5.94402 14.8696C5.68631 15.123 5.42758 15.1062 5.2258 14.8087L3.82033 12.7521C3.51467 12.3013 2.90534 12.1746 2.44784 12.4761C1.98934 12.7766 1.86048 13.3748 2.16615 13.8265L3.57061 15.8821C4.47162 17.2119 6.23171 17.3808 7.37946 16.2514L16.0889 7.68826C16.4785 7.30425 16.4785 6.69044 16.0889 6.30643C15.8942 6.11492 15.6265 6 15.3707 6Z" fill="black"/>
</svg>
