<svg width="40" height="40" viewBox="0 0 40 40" fill="none" xmlns="http://www.w3.org/2000/svg">
<path opacity="0.3" d="M20 7C12.8203 7 7 12.8203 7 20C7 27.1797 12.8203 33 20 33C27.1797 33 33 27.1797 33 20C33 12.8203 27.1797 7 20 7Z" fill="black"/>
<path d="M26.6807 15.2675C27.0853 15.6434 27.1085 16.2762 26.7325 16.6807L18.3689 25.6807C18.1797 25.8843 17.9143 26 17.6364 26C17.3584 26 17.093 25.8843 16.9038 25.6807L13.2675 21.7677C12.8915 21.3631 12.9147 20.7304 13.3193 20.3544C13.7238 19.9785 14.3566 20.0017 14.7325 20.4062L17.6364 23.531L25.2675 15.3193C25.6434 14.9147 26.2762 14.8915 26.6807 15.2675Z" fill="black"/>
</svg>
