<svg width="24" height="24" viewBox="0 0 24 24" fill="none" xmlns="http://www.w3.org/2000/svg">
<path fill-rule="evenodd" clip-rule="evenodd" d="M8 15.9291C7.29385 15.8281 6.62171 15.6217 6 15.3264V18C6 20.2091 7.79086 22 10 22H18C20.2091 22 22 20.2091 22 18V10C22 7.79086 20.2091 6 18 6H15.3264C15.6217 6.62171 15.8281 7.29385 15.9291 8H18C19.1046 8 20 8.89543 20 10V18C20 19.1046 19.1046 20 18 20H10C8.89543 20 8 19.1046 8 18V15.9291Z" fill="black" fill-opacity="0.4"/>
<circle cx="9" cy="9" r="7" fill="black"/>
</svg>
