<svg width="40" height="40" viewBox="0 0 40 40" fill="none" xmlns="http://www.w3.org/2000/svg">
<path d="M31.7071 10.7071C32.0976 10.3166 32.0976 9.68342 31.7071 9.29289C31.3165 8.90237 30.6834 8.90237 30.2929 9.29289L27.4558 12.13C26.4614 11.4264 25.2667 11.0415 24.0324 11.0417C23.1193 11.0419 22.2281 11.2527 21.4235 11.6472C21.1736 11.7698 21.0486 11.831 20.9727 11.9563C20.9119 12.0566 20.8868 12.2078 20.9118 12.3223C20.9431 12.4654 21.0552 12.5775 21.2795 12.8018L28.1982 19.7205C28.4224 19.9447 28.5345 20.0568 28.6777 20.0881C28.7922 20.1132 28.9434 20.088 29.0436 20.0273C29.1689 19.9514 29.2302 19.8264 29.3527 19.5765C29.7473 18.7719 29.9581 17.8806 29.9582 16.9676C29.9584 15.7332 29.5735 14.5385 28.87 13.5442L31.7071 10.7071Z" fill="black"/>
<path opacity="0.3" d="M22.0122 31.8775C23.2111 32.2342 24.5045 31.7958 25.2396 30.7839C26.678 28.8037 28.0167 26.3083 28.5952 23.8414C28.6936 23.4216 28.7428 23.2117 28.72 22.9054C28.7024 22.6695 28.6083 22.3391 28.4989 22.1293C28.3569 21.857 28.1632 21.6633 27.7759 21.276L19.9157 13.4158C19.5262 13.0263 19.3315 12.8316 19.066 12.6909C18.857 12.5802 18.5442 12.4874 18.3086 12.4663C18.0094 12.4394 17.7887 12.4861 17.3472 12.5796C14.8323 13.1121 12.1993 14.3198 10.2162 15.7604C9.20426 16.4955 8.7658 17.789 9.12253 18.9878L9.17807 19.1744C10.9877 25.2558 15.7442 30.0124 21.8256 31.822L22.0122 31.8775Z" fill="black"/>
</svg>
