<svg width="40" height="40" viewBox="0 0 40 40" fill="none" xmlns="http://www.w3.org/2000/svg">
<path opacity="0.3" d="M20 33C16.2754 33 14.4131 33 12.9218 32.4572C10.4219 31.5473 8.45265 29.5781 7.54277 27.0782C7 25.5869 7 23.7246 7 20C7 16.2754 7 14.4131 7.54277 12.9218C8.45265 10.4219 10.4219 8.45265 12.9218 7.54277C14.4131 7 16.2754 7 20 7C23.7246 7 25.5869 7 27.0782 7.54277C29.5781 8.45265 31.5473 10.4219 32.4572 12.9218C33 14.4131 33 16.2754 33 20C33 23.7246 33 25.5869 32.4572 27.0782C31.5473 29.5781 29.5781 31.5473 27.0782 32.4572C25.5869 33 23.7246 33 20 33Z" fill="black"/>
<path d="M26.4518 12.4045C24.5744 10.5906 21.5595 10.5106 19.7083 12.2992L13.9834 17.8304C11.3389 20.3855 11.3389 24.5369 13.9834 27.092C16.6164 29.636 20.8771 29.636 23.5101 27.092L27.7889 22.9579C28.0646 22.6916 28.0711 22.2533 27.8035 21.979C27.5358 21.7046 27.0954 21.6982 26.8198 21.9645L22.541 26.0986C20.4478 28.121 17.0458 28.121 14.9526 26.0986C12.8709 24.0873 12.8709 20.8351 14.9526 18.8239L20.6774 13.2926C21.9551 12.0581 24.1108 12.0724 25.4827 13.3979C26.8446 14.7138 26.8562 16.7617 25.5916 17.9835L19.8668 23.5148C19.2505 24.1102 18.243 24.1102 17.6268 23.5148C17.0221 22.9305 17.0221 21.9919 17.6268 21.4076L21.9056 17.2736C22.1812 17.0073 22.1877 16.569 21.9201 16.2946C21.6525 16.0203 21.2121 16.0138 20.9364 16.2801L16.6576 20.4142C15.49 21.5423 15.49 23.3801 16.6576 24.5082C17.8137 25.6252 19.6798 25.6252 20.8359 24.5082L26.5608 18.977C28.4251 17.1757 28.3391 14.228 26.4518 12.4045Z" fill="black"/>
</svg>
