<svg width="24" height="24" viewBox="0 0 24 24" fill="none" xmlns="http://www.w3.org/2000/svg">
<path d="M12.028 1.9989C6.49002 1.9989 2 6.47489 2 11.9969C2 17.5189 6.49002 21.9959 12.028 21.9959C14.731 21.9959 17.273 20.9299 19.142 19.0589C19.533 18.6669 19.535 18.0419 19.142 17.6529C18.75 17.2629 18.123 17.2609 17.732 17.6529C16.236 19.1509 14.192 19.9959 12.028 19.9959C7.59802 19.9959 4.00601 16.4149 4.00601 11.9969C4.00601 7.57989 7.59802 3.9989 12.028 3.9989C12.582 3.9989 13.031 3.5509 13.031 2.9989C13.031 2.4469 12.582 1.9989 12.028 1.9989ZM15.695 2.90491C15.452 2.98491 15.253 3.15691 15.131 3.40491C14.887 3.90091 15.073 4.5049 15.57 4.7489C15.837 4.8789 16.072 5.02591 16.322 5.18591C16.788 5.48291 17.434 5.3389 17.732 4.8739C18.03 4.4079 17.885 3.7959 17.419 3.4989C17.105 3.2989 16.781 3.1309 16.447 2.9679C16.199 2.8459 15.939 2.82591 15.695 2.90491ZM19.236 5.37292C18.982 5.34292 18.702 5.42192 18.484 5.59192C18.049 5.93292 17.985 6.56392 18.328 6.99792C18.511 7.23092 18.703 7.46492 18.86 7.71692C19.152 8.18592 19.769 8.31993 20.239 8.02893C20.71 7.73793 20.844 7.15491 20.553 6.68591C20.357 6.37091 20.124 6.03992 19.894 5.74792C19.723 5.53092 19.491 5.40392 19.236 5.37292ZM20.615 9.02893C20.074 9.14793 19.743 9.67688 19.863 10.2159C19.927 10.5049 19.989 10.7959 20.02 11.0909C20.078 11.6399 20.566 12.0239 21.117 11.9659C21.667 11.9079 22.053 11.4219 21.994 10.8729C21.955 10.5029 21.918 10.1399 21.837 9.77893C21.718 9.23993 21.156 8.90993 20.615 9.02893ZM21.054 13.0909C20.516 12.9609 19.962 13.3039 19.832 13.8409C19.762 14.1299 19.651 14.4069 19.55 14.6839C19.36 15.2029 19.656 15.7449 20.177 15.9339C20.697 16.1229 21.241 15.8909 21.43 15.3719C21.557 15.0239 21.687 14.6709 21.775 14.3089C21.905 13.7729 21.592 13.2209 21.054 13.0909Z" fill="black" fill-opacity="0.4"/>
<path fill-rule="evenodd" clip-rule="evenodd" d="M12 6C12.5523 6 13 6.44772 13 7V11.5858L15.7071 14.2929C16.0976 14.6834 16.0976 15.3166 15.7071 15.7071C15.3166 16.0976 14.6834 16.0976 14.2929 15.7071L11.2929 12.7071C11.1054 12.5196 11 12.2652 11 12V7C11 6.44772 11.4477 6 12 6Z" fill="black"/>
</svg>
