<svg width="40" height="40" viewBox="0 0 40 40" fill="none" xmlns="http://www.w3.org/2000/svg">
<path opacity="0.3" d="M24.4453 7.07844C23.2956 6.99999 21.8695 7 20.0375 7H19.9625C18.1305 7 16.7044 6.99999 15.5547 7.07844C14.3881 7.15803 13.4331 7.32172 12.5558 7.68508C10.3506 8.59853 8.59853 10.3506 7.68508 12.5558C7.32172 13.4331 7.15803 14.3881 7.07844 15.5547C6.99999 16.7044 7 18.1305 7 19.9625V20.0375C7 21.8695 6.99999 23.2956 7.07844 24.4453C7.15803 25.6119 7.32172 26.5669 7.68508 27.4442C8.59853 29.6494 10.3506 31.4015 12.5558 32.3149C13.4331 32.6783 14.3881 32.842 15.5547 32.9216C16.7044 33 18.1304 33 19.9624 33H20.0376C21.8696 33 23.2956 33 24.4453 32.9216C25.6119 32.842 26.5669 32.6783 27.4442 32.3149C29.6494 31.4015 31.4015 29.6494 32.3149 27.4442C32.6783 26.5669 32.842 25.6119 32.9216 24.4453C33 23.2956 33 21.8696 33 20.0376V19.9624C33 18.1304 33 16.7044 32.9216 15.5547C32.842 14.3881 32.6783 13.4331 32.3149 12.5558C31.4015 10.3506 29.6494 8.59853 27.4442 7.68508C26.5669 7.32172 25.6119 7.15803 24.4453 7.07844Z" fill="black"/>
<path d="M20 11.6924C20.5523 11.6924 21 12.1401 21 12.6924V19.1128C21 19.3698 21.1168 19.6129 21.3176 19.7735L25.2401 22.9115C25.6713 23.2565 25.7413 23.8858 25.3963 24.3171C25.0512 24.7483 24.422 24.8183 23.9907 24.4733L20.0682 21.3352C19.393 20.7951 19 19.9774 19 19.1128V12.6924C19 12.1401 19.4477 11.6924 20 11.6924Z" fill="black"/>
</svg>
