<svg width="40" height="40" viewBox="0 0 40 40" fill="none" xmlns="http://www.w3.org/2000/svg">
<path opacity="0.3" d="M7 20C7 12.8203 12.8203 7 20 7C27.1797 7 33 12.8203 33 20C33 27.1797 27.1797 33 20 33C12.8203 33 7 27.1797 7 20Z" fill="black"/>
<path d="M21 12.6923C21 12.14 20.5523 11.6923 20 11.6923C19.4477 11.6923 19 12.14 19 12.6923V19.1126C19 19.9773 19.393 20.795 20.0682 21.3351L23.9907 24.4731C24.422 24.8181 25.0512 24.7482 25.3963 24.317C25.7413 23.8857 25.6713 23.2564 25.2401 22.9114L21.3176 19.7734C21.1168 19.6128 21 19.3697 21 19.1126V12.6923Z" fill="black"/>
</svg>
