<svg width="40" height="40" viewBox="0 0 40 40" fill="none" xmlns="http://www.w3.org/2000/svg">
<path opacity="0.3" fill-rule="evenodd" clip-rule="evenodd" d="M20 11C15.9677 11 12.6337 13.9823 12.0805 17.8618C12.0668 17.9577 11.9672 18.0865 11.8087 18.1185C9.0658 18.6715 7 21.0934 7 24C7 27.3137 9.68629 30 13 30H27C30.3137 30 33 27.3137 33 24C33 21.0934 30.9342 18.6715 28.1913 18.1185C28.0328 18.0865 27.9332 17.9577 27.9195 17.8618C27.3663 13.9823 24.0323 11 20 11Z" fill="black"/>
<path d="M18.7071 19.2929C18.3166 18.9024 17.6834 18.9024 17.2929 19.2929C16.9024 19.6834 16.9024 20.3166 17.2929 20.7071L18.5858 22L17.2929 23.2929C16.9024 23.6834 16.9024 24.3166 17.2929 24.7071C17.6834 25.0976 18.3166 25.0976 18.7071 24.7071L20 23.4142L21.2929 24.7071C21.6834 25.0976 22.3166 25.0976 22.7071 24.7071C23.0976 24.3166 23.0976 23.6834 22.7071 23.2929L21.4142 22L22.7071 20.7071C23.0976 20.3166 23.0976 19.6834 22.7071 19.2929C22.3166 18.9024 21.6834 18.9024 21.2929 19.2929L20 20.5858L18.7071 19.2929Z" fill="black"/>
</svg>
