<svg width="24" height="24" viewBox="0 0 24 24" fill="none" xmlns="http://www.w3.org/2000/svg">
<path d="M12 3.99801C8.8337 4.02301 5.9166 6.17702 5.1562 9.56002C3.2153 10.377 2 12.192 2 14.373C2 17.383 4.3756 19.998 7.3125 19.998H17C19.734 19.998 22 18.015 22 15.498C22 13.683 20.749 12.086 19 11.373C19.002 11.194 19 11.024 19 10.998C19.03 7.16201 15.791 3.96801 12 3.99801ZM12 5.99801C14.681 5.97701 17.021 8.28501 17 10.998C17 11.058 17 11.861 17 12.092C17 12.557 17.296 12.956 17.75 13.06C19.066 13.365 20 14.397 20 15.498C20 16.847 18.684 17.998 17 17.998H7.3125C5.5253 17.998 4 16.319 4 14.373C4 12.88 4.9335 11.639 6.3438 11.217C6.7174 11.105 6.9762 10.79 7.0312 10.404C7.4172 7.69801 9.5923 6.01701 12 5.99801Z" fill="black" fill-opacity="0.4"/>
<path fill-rule="evenodd" clip-rule="evenodd" d="M13 11C13 10.4477 12.5523 10 12 10C11.4477 10 11 10.4477 11 11V12H10C9.44772 12 9 12.4477 9 13C9 13.5523 9.44772 14 10 14H11V15C11 15.5523 11.4477 16 12 16C12.5523 16 13 15.5523 13 15V14H14C14.5523 14 15 13.5523 15 13C15 12.4477 14.5523 12 14 12H13V11Z" fill="black"/>
</svg>
