<svg width="24" height="24" viewBox="0 0 24 24" fill="none" xmlns="http://www.w3.org/2000/svg">
<path fill-rule="evenodd" clip-rule="evenodd" d="M20 15.5C20 16.6944 18.7756 18 17 18H7.5C6.42849 18 5.56512 17.5097 4.94936 16.8019C4.31621 16.0741 4 15.1767 4 14.5C4 15.0523 3.55228 15.5 3 15.5C2.44772 15.5 2 15.0523 2 14.5C2 15.7119 2.52697 17.0645 3.44041 18.1146C4.37124 19.1846 5.75787 20 7.5 20H17C19.6538 20 22 18.0125 22 15.5C22 16.0523 21.5523 16.5 21 16.5C20.4477 16.5 20 16.0523 20 15.5Z" fill="black" fill-opacity="0.4"/>
<path fill-rule="evenodd" clip-rule="evenodd" d="M12 6C9.29827 6 7.419 8.04164 6.98438 10.4719C6.91741 10.8464 6.64371 11.1505 6.27827 11.2564C4.8767 11.6624 4 12.9844 4 14.5C4 15.0523 3.55228 15.5 3 15.5C2.44772 15.5 2 15.0523 2 14.5C2 12.4286 3.11915 10.3995 5.1417 9.54134C5.89732 6.60676 8.35773 4 12 4C15.841 4 19 7.13372 19 11V11.3681C20.7657 12.0576 22 13.6505 22 15.5C22 16.0523 21.5523 16.5 21 16.5C20.4477 16.5 20 16.0523 20 15.5C20 14.4641 19.1842 13.3917 17.785 13.0836C17.3265 12.9827 17 12.5764 17 12.107V11C17 8.2428 14.7409 6 12 6Z" fill="black"/>
</svg>
