<svg width="24" height="24" viewBox="0 0 24 24" fill="none" xmlns="http://www.w3.org/2000/svg">
<path d="M12 3.99801C8.834 4.02301 5.91701 6.17802 5.15601 9.56002C3.21501 10.377 2 12.192 2 14.373C2 17.383 4.37601 19.998 7.31201 19.998H17C19.734 19.998 22 18.015 22 15.498C22 13.683 20.749 12.086 19 11.373C19.002 11.194 19 11.024 19 10.998C19.03 7.16201 15.791 3.96801 12 3.99801ZM12 5.99801C14.681 5.97701 17.021 8.28501 17 10.998C17 11.058 17 11.861 17 12.092C17 12.557 17.296 12.956 17.75 13.06C19.066 13.365 20 14.397 20 15.498C20 16.847 18.684 17.998 17 17.998H7.31201C5.52501 17.998 4 16.319 4 14.373C4 12.88 4.93399 11.639 6.34399 11.217C6.71699 11.105 6.97601 10.79 7.03101 10.404C7.41701 7.69801 9.592 6.01701 12 5.99801Z" fill="black" fill-opacity="0.4"/>
<path d="M13.9918 11C13.7367 11 13.4705 11.0858 13.2752 11.2804L11.0016 13.5561L9.72482 12.2781C9.3351 11.889 8.68126 11.889 8.29154 12.2781C7.90282 12.6682 7.90282 13.3227 8.29154 13.7128L10.285 15.7082C10.6747 16.0973 11.3286 16.0973 11.7183 15.7082L14.7085 12.7151C15.0972 12.3249 15.0972 11.6705 14.7085 11.2804C14.5131 11.0858 14.247 11 13.9918 11Z" fill="black"/>
</svg>
