<svg width="24" height="24" viewBox="0 0 24 24" fill="none" xmlns="http://www.w3.org/2000/svg">
<path d="M12 2.99801C8.834 3.02301 5.933 5.15102 5.173 8.53401C3.232 9.35001 2 11.192 2 13.373C2 16.383 4.37601 18.998 7.31201 18.998C10.5413 18.998 13.7707 18.998 17 18.998C19.734 18.998 22 17.015 22 14.498C22 12.683 20.785 11.077 18.987 10.383C18.989 10.205 19 10.024 19 9.998C19.03 6.16201 15.791 2.96801 12 2.99801Z" fill="black" fill-opacity="0.4"/>
<path d="M12 9L9 12.013L11.004 12V20C11.004 20.552 11.4502 21 12 21C12.5498 21 12.996 20.552 12.996 20V12L15 12.009L12 9Z" fill="black"/>
</svg>
