<svg width="24" height="24" viewBox="0 0 24 24" fill="none" xmlns="http://www.w3.org/2000/svg">
<path fill-rule="evenodd" clip-rule="evenodd" d="M13.9999 4C11.5076 4 9.41989 5.5061 8.50287 7.59861C8.48689 7.63506 8.47326 7.67196 8.46191 7.70911C9.21147 7.25929 10.0819 7 11.0001 7C11.1148 7 11.2287 7.00411 11.3418 7.01218C12.0442 6.38453 12.9713 6 13.9999 6C16.2489 6 17.9999 7.7745 17.9999 10V11.0394C17.9999 11.5295 18.3552 11.9474 18.8389 12.0264C19.2283 12.0899 19.5026 12.2602 19.6831 12.4806C19.8655 12.7032 19.9999 13.0361 19.9999 13.5C19.9999 14.0228 19.83 14.3807 19.6053 14.6054C19.4109 14.7999 19.1167 14.9533 18.7022 14.991C18.9002 15.4509 19.0001 15.9626 19.0001 16.5C19.0001 16.6603 18.9912 16.8183 18.9735 16.9734C19.7634 16.883 20.476 16.5632 21.0195 16.0196C21.6698 15.3693 21.9999 14.4772 21.9999 13.5C21.9999 12.6375 21.7434 11.8395 21.2303 11.2132C20.8982 10.8078 20.4784 10.4981 19.9999 10.2935V10C19.9999 6.67826 17.3618 4 13.9999 4Z" fill="black" fill-opacity="0.4"/>
<path fill-rule="evenodd" clip-rule="evenodd" d="M6.09979 11.0162C6.56804 8.73567 8.6246 7 11 7C13.7132 7 16 9.29857 16 12V13.0297C16.7794 13.1241 17.4821 13.4429 18.0196 13.9804C18.6699 14.6307 19 15.5228 19 16.5C19 17.4772 18.6699 18.3693 18.0196 19.0196C17.3693 19.6699 16.4772 20 15.5 20H6.5C3.94772 20 2 18.0523 2 15.5C2 13.0829 3.74688 11.208 6.09979 11.0162Z" fill="black"/>
</svg>
