<svg width="40" height="40" viewBox="0 0 40 40" fill="none" xmlns="http://www.w3.org/2000/svg">
<path opacity="0.3" fill-rule="evenodd" clip-rule="evenodd" d="M20 11C15.9677 11 12.6337 13.9823 12.0805 17.8618C12.0668 17.9577 11.9672 18.0865 11.8087 18.1185C9.0658 18.6715 7 21.0934 7 24C7 27.3137 9.68629 30 13 30H27C30.3137 30 33 27.3137 33 24C33 21.0934 30.9342 18.6715 28.1913 18.1185C28.0328 18.0865 27.9332 17.9577 27.9195 17.8618C27.3663 13.9823 24.0323 11 20 11Z" fill="black"/>
<path d="M23.7071 20.7071C24.0976 20.3166 24.0976 19.6834 23.7071 19.2929C23.3166 18.9024 22.6834 18.9024 22.2929 19.2929L18 23.5858L16.7071 22.2929C16.3166 21.9024 15.6834 21.9024 15.2929 22.2929C14.9024 22.6834 14.9024 23.3166 15.2929 23.7071L17.2929 25.7071C17.6834 26.0976 18.3166 26.0976 18.7071 25.7071L23.7071 20.7071Z" fill="black"/>
</svg>
