<svg width="24" height="24" viewBox="0 0 24 24" fill="none" xmlns="http://www.w3.org/2000/svg">
<path d="M7 2.99841C4.7909 2.99841 3 4.78941 3 6.99841V16.9984C3 19.2074 4.7909 20.9984 7 20.9984H17C19.209 20.9984 21 19.2074 21 16.9984V6.99841C21 4.78941 19.209 2.99841 17 2.99841H7ZM7 4.99841H17C18.105 4.99841 19 5.89341 19 6.99841V16.9984C19 18.1034 18.105 18.9984 17 18.9984H7C5.8954 18.9984 5 18.1034 5 16.9984V6.99841C5 5.89341 5.8954 4.99841 7 4.99841Z" fill="black" fill-opacity="0.4"/>
<path d="M9.77771 8.02395C9.52818 8.07386 9.27736 8.20063 9.1251 8.43024L7.16705 11.3932C6.94437 11.7287 6.94437 12.1809 7.16705 12.5163L9.18715 15.5741C9.49188 16.0324 10.1288 16.1292 10.5853 15.8237C11.0428 15.5172 11.1701 14.9093 10.8657 14.4511L9.18715 11.9553L10.7722 9.55236C11.0766 9.09414 10.9811 8.45522 10.5236 8.14873C10.2949 7.99599 10.0273 7.97403 9.77771 8.02395ZM14.2223 8.02395C13.9727 7.97403 13.7051 7.99599 13.4764 8.14873C13.0189 8.45522 12.8916 9.09414 13.1969 9.55236L14.7812 11.9553L13.1651 14.4201C12.8608 14.8783 12.9881 15.4863 13.4456 15.7918C13.9021 16.0983 14.5077 15.9705 14.8121 15.5113L16.833 12.5163C17.0557 12.1809 17.0557 11.7287 16.833 11.3932L14.8439 8.43024C14.6917 8.20063 14.4719 8.07386 14.2223 8.02395Z" fill="black"/>
</svg>
