<svg width="24" height="24" viewBox="0 0 24 24" fill="none" xmlns="http://www.w3.org/2000/svg">
<path d="M6.81859 5.02771C6.56788 5.07766 6.31608 5.20452 6.16306 5.43431L2.16776 11.4287C1.96899 11.7265 1.94512 12.1071 2.10543 12.4278L5.10191 18.4222C5.34852 18.9148 5.95061 19.1366 6.44403 18.8898C6.93745 18.643 7.15889 18.0406 6.91218 17.5471L4.16541 12.0841L7.84868 6.55729C8.15462 6.09871 8.02667 5.4593 7.56771 5.15259C7.33818 4.99973 7.0693 4.97775 6.81859 5.02771ZM18.3051 5.05868C18.0626 4.97876 17.8027 4.96675 17.556 5.09064C17.0626 5.33741 16.8411 5.93984 17.0878 6.43338L19.8346 11.8963L16.1513 17.4231C15.8454 17.8817 15.9733 18.5211 16.4323 18.8278C16.8913 19.1336 17.5309 19.0057 17.8369 18.5461L21.8322 12.5517C22.031 12.254 22.0549 11.8733 21.8946 11.5526L18.8981 5.55822C18.7748 5.31245 18.5476 5.14061 18.3051 5.05868Z" fill="black"/>
<path fill-rule="evenodd" clip-rule="evenodd" d="M14.2747 4.03849C14.8058 4.19021 15.1133 4.7437 14.9615 5.27473L10.9615 19.2747C10.8098 19.8058 10.2563 20.1133 9.72529 19.9615C9.19426 19.8098 8.88677 19.2563 9.03849 18.7253L13.0385 4.72529C13.1902 4.19426 13.7437 3.88677 14.2747 4.03849Z" fill="black" fill-opacity="0.4"/>
</svg>
