<svg width="24" height="24" viewBox="0 0 24 24" fill="none" xmlns="http://www.w3.org/2000/svg">
<path fill-rule="evenodd" clip-rule="evenodd" d="M9.56209 18.8334C9.79146 18.6805 9.91766 18.4286 9.96774 18.1787C10.0178 17.9278 9.99578 17.6589 9.84254 17.4299L6.22579 12.0029L9.84254 6.57493C10.149 6.1161 10.0208 5.47735 9.56209 5.17146C9.10336 4.86557 8.46434 4.99351 8.15886 5.45235L4.16752 11.4412C3.94416 11.776 3.94416 12.2289 4.16752 12.5637L8.15886 18.5525C8.46434 19.0114 9.10336 19.1393 9.56209 18.8334ZM14.4379 18.8285C14.2085 18.6756 14.0823 18.4237 14.0323 18.1738C13.9822 17.9229 14.0042 17.654 14.1575 17.4251L17.7742 11.9981L14.1575 6.57005C13.851 6.11122 13.9792 5.47246 14.4379 5.16658C14.8966 4.86069 15.5357 4.98863 15.8411 5.44746L19.8325 11.4363C20.0558 11.7712 20.0558 12.224 19.8325 12.5589L15.8411 18.5477C15.5357 19.0065 14.8966 19.1344 14.4379 18.8285Z" fill="black" fill-opacity="0.4"/>
<path fill-rule="evenodd" clip-rule="evenodd" d="M4.16795 11.4502L6.16795 8.45017L6.16795 15.5596L4.16795 12.5596C3.94402 12.2237 3.94402 11.7861 4.16795 11.4502ZM19.832 11.4453L17.832 8.44528V15.5547L19.832 12.5547C20.0559 12.2188 20.0559 11.7812 19.832 11.4453Z" fill="black"/>
</svg>
