<svg width="40" height="40" viewBox="0 0 40 40" fill="none" xmlns="http://www.w3.org/2000/svg">
<path opacity="0.3" fill-rule="evenodd" clip-rule="evenodd" d="M27.3654 8.07144C26.4908 7.99999 25.4068 7.99999 24.0438 8H15.9562L15.7039 8.00002C14.4585 8.00027 13.4545 8.00445 12.6346 8.07144C11.739 8.14462 10.9753 8.29768 10.2761 8.65396C9.14708 9.2292 8.2292 10.1471 7.65396 11.2761C7.29768 11.9753 7.14462 12.739 7.07144 13.6346C6.99999 14.5092 6.99999 15.5932 7 16.9562V17.0438L7.00002 17.2961C7.00027 18.5415 7.00445 19.5455 7.07144 20.3654C7.14462 21.261 7.29768 22.0247 7.65396 22.7239C8.2292 23.8529 9.14709 24.7708 10.2761 25.346C10.9753 25.7023 11.739 25.8554 12.6346 25.9286C13.5092 26 14.5932 26 15.9562 26H16.5H16.8195H18.8471H21.1529H23.1805H24.0438C25.4068 26 26.4908 26 27.3654 25.9286C28.261 25.8554 29.0247 25.7023 29.7239 25.346C30.8529 24.7708 31.7708 23.8529 32.346 22.7239C32.7023 22.0247 32.8554 21.261 32.9286 20.3654C33 19.4908 33 18.4068 33 17.0438V16.9562C33 15.5932 33 14.5092 32.9286 13.6346C32.8554 12.739 32.7023 11.9753 32.346 11.2761C31.7708 10.1471 30.8529 9.2292 29.7239 8.65396C29.0247 8.29768 28.261 8.14462 27.3654 8.07144ZM23.8471 30H21.8195H18.1805H16.1529H14C13.4477 30 13 30.4477 13 31C13 31.5523 13.4477 32 14 32H26C26.5523 32 27 31.5523 27 31C27 30.4477 26.5523 30 26 30H23.8471Z" fill="black"/>
<path d="M23.8471 30L23.1805 26H21.1529L21.8196 30H23.8471Z" fill="black"/>
<path d="M16.8196 26L16.1529 30H18.1805L18.8471 26H16.8196Z" fill="black"/>
</svg>
