<svg width="24" height="24" viewBox="0 0 24 24" fill="none" xmlns="http://www.w3.org/2000/svg">
<path fill-rule="evenodd" clip-rule="evenodd" d="M12 2C6.477 2 2 6.477 2 12C2 17.523 6.477 22 12 22C17.523 22 22 17.523 22 12C22 6.477 17.523 2 12 2ZM15.7021 7.06094L9.70209 9.06094C9.40309 9.16094 9.17608 9.38792 9.07608 9.68692L7.07608 15.6869C6.81608 16.4679 7.54508 17.1969 8.32608 16.9369C8.89803 16.7458 11.6438 15.8308 13.2519 15.2949L13.2543 15.2941L14.3261 14.9369C14.6251 14.8369 14.8521 14.6099 14.9521 14.3109L16.9521 8.31094C17.2121 7.52994 16.4831 6.80094 15.7021 7.06094Z" fill="black" fill-opacity="0.4"/>
<path fill-rule="evenodd" clip-rule="evenodd" d="M9.68412 9.05707L15.6942 7.05371C16.4765 6.79327 17.2067 7.5235 16.9463 8.30581L14.9429 14.3159C14.8428 14.6154 14.6154 14.8428 14.3159 14.9429C14.1371 15.0025 13.7454 15.133 13.2423 15.3007C11.6319 15.8373 8.879 16.7547 8.30581 16.9463C7.5235 17.2067 6.79327 16.4765 7.05371 15.6942L9.05707 9.6841C9.15723 9.3846 9.38462 9.15724 9.68412 9.05707ZM11.9859 13.0028C12.5391 13.0028 12.9876 12.5543 12.9876 12.0011C12.9876 11.4479 12.5391 10.9994 11.9859 10.9994C11.4327 10.9994 10.9842 11.4479 10.9842 12.0011C10.9842 12.5543 11.4327 13.0028 11.9859 13.0028Z" fill="black"/>
</svg>
