<svg width="24" height="24" viewBox="0 0 24 24" fill="none" xmlns="http://www.w3.org/2000/svg">
<path d="M12 2C6.477 2 2 6.477 2 12C2 17.523 6.477 22 12 22C17.523 22 22 17.523 22 12C22 6.477 17.523 2 12 2ZM12 4C16.418 4 20 7.582 20 12C20 16.418 16.418 20 12 20C7.582 20 4 16.418 4 12C4 7.582 7.582 4 12 4Z" fill="black" fill-opacity="0.4"/>
<path d="M15.6942 7.05371L9.68412 9.05707C9.38462 9.15724 9.15723 9.3846 9.05707 9.6841L7.05371 15.6942C6.79327 16.4765 7.5235 17.2067 8.30581 16.9463C9.05807 16.6949 13.5646 15.1933 14.3159 14.9429C14.6154 14.8428 14.8428 14.6154 14.9429 14.3159L16.9463 8.30581C17.2067 7.5235 16.4765 6.79327 15.6942 7.05371ZM14.4421 9.55791L13.221 13.221C12.4337 13.4835 10.9993 13.9613 9.55791 14.4421L10.779 10.779L14.4421 9.55791Z" fill="black"/>
</svg>
