<svg width="24" height="24" viewBox="0 0 24 24" fill="none" xmlns="http://www.w3.org/2000/svg">
<path d="M8.188 3.9978C4.778 3.9978 2 6.77579 2 10.1858V15.9978C2 18.2068 3.791 19.9978 6 19.9978C6.784 19.9978 7.456 19.7968 8.25 19.3728C8.385 19.3008 9.034 18.9248 9.125 18.8728C10.206 18.2548 10.933 17.9978 12 17.9978C13.067 17.9978 13.794 18.2548 14.875 18.8728C14.966 18.9248 15.615 19.3008 15.75 19.3728C16.544 19.7958 17.216 19.9978 18 19.9978C20.209 19.9978 22 18.2068 22 15.9978V10.1858C22 6.77579 19.222 3.9978 15.812 3.9978H8.188Z" fill="black" fill-opacity="0.4"/>
<path d="M8 9C7.448 9 7 9.448 7 10V11H6C5.448 11 5 11.448 5 12C5 12.552 5.448 13 6 13H7V14C7 14.552 7.448 15 8 15C8.552 15 9 14.552 9 14V13H10C10.552 13 11 12.552 11 12C11 11.448 10.552 11 10 11H9V10C9 9.448 8.552 9 8 9ZM16 9C15.448 9 15 9.448 15 10C15 10.552 15.448 11 16 11C16.552 11 17 10.552 17 10C17 9.448 16.552 9 16 9ZM14 11C13.448 11 13 11.448 13 12C13 12.552 13.448 13 14 13C14.552 13 15 12.552 15 12C15 11.448 14.552 11 14 11ZM18 11C17.448 11 17 11.448 17 12C17 12.552 17.448 13 18 13C18.552 13 19 12.552 19 12C19 11.448 18.552 11 18 11ZM16 13C15.448 13 15 13.448 15 14C15 14.552 15.448 15 16 15C16.552 15 17 14.552 17 14C17 13.448 16.552 13 16 13Z" fill="black"/>
</svg>
