<svg width="40" height="40" viewBox="0 0 40 40" fill="none" xmlns="http://www.w3.org/2000/svg">
<path opacity="0.3" d="M7 20C7 12.8203 12.8203 7 20 7C27.1797 7 33 12.8203 33 20C33 27.1797 27.1797 33 20 33C12.8203 33 7 27.1797 7 20Z" fill="black"/>
<path d="M15.293 15.2928C15.6835 14.9022 16.3167 14.9022 16.7072 15.2928L20.0001 18.5857L23.293 15.2928C23.6835 14.9022 24.3167 14.9022 24.7072 15.2928C25.0978 15.6833 25.0978 16.3165 24.7072 16.707L21.4143 19.9999L24.7072 23.2928C25.0978 23.6833 25.0978 24.3165 24.7072 24.707C24.3167 25.0975 23.6835 25.0975 23.293 24.707L20.0001 21.4141L16.7072 24.707C16.3167 25.0975 15.6835 25.0975 15.293 24.707C14.9025 24.3165 14.9025 23.6833 15.293 23.2928L18.5859 19.9999L15.293 16.707C14.9025 16.3165 14.9025 15.6833 15.293 15.2928Z" fill="black"/>
</svg>
