<svg width="40" height="40" viewBox="0 0 40 40" fill="none" xmlns="http://www.w3.org/2000/svg">
<g opacity="0.3">
<path fill-rule="evenodd" clip-rule="evenodd" d="M17.5 7C18.0523 7 18.5 7.44772 18.5 8V10.3607C18.5 10.9129 18.0523 11.3607 17.5 11.3607C16.9477 11.3607 16.5 10.9129 16.5 10.3607V8C16.5 7.44772 16.9477 7 17.5 7Z" fill="black"/>
<path d="M13.2 12.1148C10.8961 12.1148 9 13.9562 9 16.2623V26.4918C9 30.1017 11.9706 33 15.6 33H20.4C24.0294 33 27 30.1017 27 26.4918V25.9181V23.9181V17.2623L26.8775 15.2623C26.4231 13.446 24.759 12.1148 22.8 12.1148H13.2Z" fill="black"/>
</g>
<path d="M13.5 7C14.0523 7 14.5 7.44772 14.5 8V10.3607C14.5 10.9129 14.0523 11.3607 13.5 11.3607C12.9477 11.3607 12.5 10.9129 12.5 10.3607V8C12.5 7.44772 12.9477 7 13.5 7Z" fill="black"/>
<path d="M21.5 7C22.0523 7 22.5 7.44772 22.5 8V10.3607C22.5 10.9129 22.0523 11.3607 21.5 11.3607C20.9477 11.3607 20.5 10.9129 20.5 10.3607V8C20.5 7.44772 20.9477 7 21.5 7Z" fill="black"/>
<path d="M27.6 15.2623C29.4621 15.2623 31 16.7514 31 18.623V22.5574C31 24.429 29.4621 25.9181 27.6 25.9181H27V23.9181H27.6C28.3888 23.9181 29 23.2934 29 22.5574V18.623C29 17.887 28.3888 17.2623 27.6 17.2623H27L26.8707 15.2623H27.6Z" fill="black"/>
</svg>
