<svg width="40" height="40" viewBox="0 0 40 40" fill="none" xmlns="http://www.w3.org/2000/svg">
<path opacity="0.3" fill-rule="evenodd" clip-rule="evenodd" d="M25.2548 10.4444C25.2015 10.2483 25.1293 10.0563 25.0305 9.86875C24.6879 9.21814 24.1446 8.69525 23.4839 8.36951C23.0521 8.15667 22.5976 8.07441 22.117 8.03641C21.6561 7.99998 21.0922 7.99999 20.4181 8L13.6499 8C12.7962 7.99999 12.1065 7.99999 11.5449 8.03706C10.9675 8.07518 10.4545 8.15562 9.96728 8.35089C8.79916 8.81906 7.86082 9.72143 7.36915 10.87C7.16272 11.3522 7.07833 11.8591 7.03853 12.4234C6.99999 12.9701 6.99999 13.6403 7 14.4638V14.5362C6.99999 15.3597 6.99999 16.0299 7.03853 16.5766C7.07833 17.1409 7.16272 17.6478 7.36915 18.13C7.86082 19.2786 8.79916 20.1809 9.96728 20.6491C10.4545 20.8444 10.9675 20.9248 11.5449 20.9629C11.9297 20.9883 12.3747 20.9963 12.8914 20.9989L9.63747 30H16.8168L20.0703 21H20.4181C21.0922 21 21.6561 21 22.117 20.9636C22.5976 20.9256 23.0521 20.8433 23.4839 20.6305C24.1446 20.3048 24.6879 19.7819 25.0305 19.1312C25.1293 18.9437 25.2015 18.7517 25.2548 18.5556V10.4444ZM29.1885 13.5V15.5H32C32.5523 15.5 33 15.0523 33 14.5C33 13.9477 32.5523 13.5 32 13.5H29.1885Z" fill="black"/>
<path d="M9.63749 30H9.07617C8.52389 30 8.07617 30.4477 8.07617 31C8.07617 31.5523 8.52389 32 9.07617 32H21.5915C22.1438 32 22.5915 31.5523 22.5915 31C22.5915 30.4477 22.1438 30 21.5915 30H16.8168H9.63749Z" fill="black"/>
<path d="M25.2548 18.5556H25.6842C27.4699 18.5556 28.9897 17.2432 29.1885 15.5V13.5C28.9897 11.7569 27.4699 10.4445 25.6842 10.4445H25.2548V18.5556Z" fill="black"/>
</svg>
