<svg width="24" height="24" viewBox="0 0 24 24" fill="none" xmlns="http://www.w3.org/2000/svg">
<path d="M12.1609 2.01239C11.8299 1.95622 11.4689 2.09274 11.2239 2.38716C6.41488 8.15348 5.00488 11.1227 5.00488 15.0043C5.00488 18.8679 8.13888 22 12.0049 22C15.8709 22 19.0049 18.8679 19.0049 15.0043C19.0049 13.5792 18.6859 12.4889 17.9739 11.3506C17.6679 10.8619 16.1439 8.85765 15.7239 8.22734C14.6909 6.6785 13.8009 4.95716 12.9429 2.66818C12.8079 2.3094 12.4919 2.06855 12.1609 2.01239Z" fill="black" fill-opacity="0.4"/>
<path d="M9.66532 10.0391C9.41448 10.1152 9.18627 10.2873 9.0557 10.5296C8.19626 12.1276 7.90224 13.7197 8.02766 15.1002C8.077 15.6441 8.55503 16.0436 9.12046 15.9962C9.68588 15.9487 10.1331 15.4592 10.0838 14.9153C9.99123 13.8967 10.2122 12.7101 10.8866 11.4561C11.1478 10.9716 10.9411 10.3792 10.4374 10.1281C10.1855 10.0027 9.91514 9.96203 9.66532 10.0391Z" fill="black"/>
</svg>
