<svg width="24" height="24" viewBox="0 0 24 24" fill="none" xmlns="http://www.w3.org/2000/svg">
<path d="M12.1609 2.01237C11.8299 1.95627 11.4689 2.09267 11.2239 2.38717C6.41488 8.15347 5.00488 11.1234 5.00488 15.0044C5.00488 18.8684 8.13888 22.0004 12.0049 22.0004C15.8709 22.0004 19.0049 18.8684 19.0049 15.0044C19.0049 13.5794 18.6859 12.4894 17.9739 11.3504C17.6679 10.8614 16.1439 8.85757 15.7239 8.22727C14.6909 6.67847 13.8009 4.95707 12.9429 2.66817C12.8079 2.30937 12.4919 2.06847 12.1609 2.01237ZM11.7229 4.92977C12.3849 6.50177 13.2459 8.11977 14.0669 9.35157C14.5359 10.0534 16.0049 12.0124 16.2549 12.4124C16.7749 13.2434 17.0049 13.9664 17.0049 15.0044C17.0049 17.7644 14.7659 20.0014 12.0049 20.0014C9.24388 20.0014 7.01888 17.7644 7.00488 15.0044C6.98888 11.8284 8.22889 9.33187 11.7229 4.92977Z" fill="black" fill-opacity="0.4"/>
<path d="M10.6653 10.0391C10.4145 10.1152 10.1863 10.2873 10.0557 10.5296C9.19626 12.1276 8.90224 13.7197 9.02766 15.1002C9.077 15.6441 9.55503 16.0436 10.1205 15.9962C10.6859 15.9487 11.1331 15.4592 11.0838 14.9153C10.9912 13.8967 11.2122 12.7101 11.8866 11.4561C12.1478 10.9716 11.9411 10.3792 11.4374 10.1281C11.1855 10.0027 10.9151 9.96203 10.6653 10.0391Z" fill="black"/>
</svg>
