<svg width="24" height="24" viewBox="0 0 24 24" fill="none" xmlns="http://www.w3.org/2000/svg">
<path fill-rule="evenodd" clip-rule="evenodd" d="M11.2229 2.38597C11.4689 2.09157 11.8289 1.95517 12.1599 2.01127C12.4909 2.06737 12.8069 2.30827 12.9419 2.66707C13.7999 4.95597 14.6889 6.67728 15.7219 8.22618C15.9202 8.52308 16.3632 9.12485 16.8083 9.72942C17.3081 10.4083 17.8105 11.0907 17.9719 11.3489C18.2499 11.7939 18.4649 12.2169 18.6279 12.6609C18.8879 13.3659 19.0029 14.1319 19.0029 15.0029C19.0029 18.8669 15.8699 21.9989 12.0039 21.9989C8.13888 21.9989 5.00488 18.8669 5.00488 15.0029C5.00488 11.1219 6.41489 8.15238 11.2229 2.38597ZM14.0659 9.35048C13.2449 8.11868 12.4189 6.53047 11.7229 4.94137C9.01589 8.35188 7.68689 10.4689 7.17389 12.9699C7.8943 12.5961 8.63167 12.3825 9.31737 12.3219C9.03427 13.297 8.94948 14.2397 9.02766 15.1002C9.077 15.6441 9.55503 16.0436 10.1205 15.9962C10.6859 15.9487 11.1331 15.4592 11.0838 14.9153C11.0199 14.2128 11.1053 13.4304 11.3856 12.6011C12.1047 12.834 12.8704 13.1714 13.6909 13.6599C14.3355 14.0437 14.5328 14.1365 14.7281 14.2284C14.7852 14.2552 14.842 14.282 14.9099 14.3159C15.7139 14.7179 16.2939 14.8409 16.9839 14.4729C16.9469 14.1209 16.8649 13.6829 16.7539 13.3789C16.6409 13.0739 16.4629 12.7449 16.2539 12.4109C16.1304 12.2138 15.7096 11.6363 15.2588 11.0175C14.7968 10.3834 14.3033 9.70599 14.0659 9.35048Z" fill="black" fill-opacity="0.4"/>
<path d="M10.6653 10.0391C10.4145 10.1152 10.1863 10.2873 10.0557 10.5296C9.19626 12.1276 8.90224 13.7197 9.02766 15.1002C9.077 15.6441 9.55503 16.0436 10.1205 15.9962C10.6859 15.9487 11.1331 15.4592 11.0838 14.9153C10.9912 13.8967 11.2122 12.7101 11.8866 11.4561C12.1478 10.9716 11.9411 10.3792 11.4374 10.1281C11.1855 10.0027 10.9151 9.96203 10.6653 10.0391Z" fill="black"/>
</svg>
