<svg width="24" height="24" viewBox="0 0 24 24" fill="none" xmlns="http://www.w3.org/2000/svg">
<path fill-rule="evenodd" clip-rule="evenodd" d="M9 8C9 6.34315 7.65685 5 6 5H5.5C4.67157 5 4 5.67157 4 6.5V10C4 10.5523 4.44772 11 5 11H6C6.55228 11 7 11.4477 7 12V16C7 16.5523 7.44772 17 8 17C8.55228 17 9 16.5523 9 16V8ZM6 3C8.76142 3 11 5.23858 11 8V16C11 17.6569 9.65685 19 8 19C6.34315 19 5 17.6569 5 16V13C3.34315 13 2 11.6569 2 10V6.5C2 4.567 3.567 3 5.5 3H6ZM15 8C15 6.34315 16.3431 5 18 5H18.5C19.3284 5 20 5.67157 20 6.5V10C20 10.5523 19.5523 11 19 11H18C17.4477 11 17 11.4477 17 12V16C17 16.5523 16.5523 17 16 17C15.4477 17 15 16.5523 15 16V8ZM18 3C15.2386 3 13 5.23858 13 8V16C13 17.6569 14.3431 19 16 19C17.6569 19 19 17.6569 19 16V13C20.6569 13 22 11.6569 22 10V6.5C22 4.567 20.433 3 18.5 3H18Z" fill="black"/>
<path fill-rule="evenodd" clip-rule="evenodd" d="M4.08412 6.00354C4.59704 6.04626 5 6.4761 5 7.00005V9.00005C5 9.55234 4.55228 10.0001 4 10.0001V6.50005C4 6.32604 4.02963 6.15894 4.08412 6.00354ZM9 18.8293V21.0001C9 21.5523 8.55228 22.0001 8 22.0001C7.44772 22.0001 7 21.5523 7 21.0001V18.8293C7.31278 18.9399 7.64936 19.0001 8 19.0001C8.35064 19.0001 8.68722 18.9399 9 18.8293ZM19.9159 6.00354C19.403 6.04626 19 6.4761 19 7.00005V9.00005C19 9.55234 19.4477 10.0001 20 10.0001V6.50005C20 6.32604 19.9704 6.15894 19.9159 6.00354ZM15 18.8293V21.0001C15 21.5523 15.4477 22.0001 16 22.0001C16.5523 22.0001 17 21.5523 17 21.0001V18.8293C16.6872 18.9399 16.3506 19.0001 16 19.0001C15.6494 19.0001 15.3128 18.9399 15 18.8293Z" fill="black" fill-opacity="0.4"/>
</svg>
