<svg width="40" height="40" viewBox="0 0 40 40" fill="none" xmlns="http://www.w3.org/2000/svg">
<path d="M21.3239 9.24417C20.4715 8.91861 19.5285 8.91861 18.6761 9.24417L9.37812 12.7954C7.79254 13.4009 7.00321 14.8294 7.00001 16.2309L7.00001 16.2467V21.9237C7.00001 22.476 7.44772 22.9237 8.00001 22.9237C8.55229 22.9237 9.00001 22.476 9.00001 21.9237V19.5266C9.19004 19.6223 9.39343 19.7045 9.6101 19.7712L9.90421 19.8617L10.8942 20.1665L12.8942 20.7823L18.9081 22.6338C19.6195 22.8528 20.3805 22.8528 21.0919 22.6338L27.1058 20.7823L29.1058 20.1665L30.1607 19.8418L30.3899 19.7712C33.7498 18.7368 33.9073 14.0502 30.6219 12.7954L21.3239 9.24417Z" fill="black"/>
<path opacity="0.3" d="M22.702 31.0001C26.2353 31.0001 29.1059 28.1451 29.1059 24.6158V21.8175C29.1059 21.4774 28.7736 21.2365 28.4503 21.3423L27.1059 21.7823L21.092 23.6338C20.3807 23.8528 19.6196 23.8528 18.9083 23.6338L12.8944 21.7823L11.542 21.3641C11.2203 21.2646 10.8943 21.5051 10.8943 21.8418V24.6158C10.8943 28.1451 13.7648 31.0001 17.2981 31.0001H22.702Z" fill="black"/>
</svg>
