<svg width="24" height="24" viewBox="0 0 24 24" fill="none" xmlns="http://www.w3.org/2000/svg">
<path d="M12 2C6.47701 2 2 6.477 2 12C2 17.523 6.47701 22 12 22C17.523 22 22 17.523 22 12C22 6.477 17.523 2 12 2ZM12 4C16.418 4 20 7.582 20 12C20 16.418 16.418 20 12 20C7.58201 20 4 16.418 4 12C4 7.582 7.58201 4 12 4Z" fill="black" fill-opacity="0.4"/>
<path d="M9 9C8.4477 9 8 9.448 8 10V11C8 11.552 8.4477 12 9 12C9.5523 12 10 11.552 10 11V10C10 9.448 9.5523 9 9 9ZM15 9C14.4477 9 14 9.448 14 10V11C14 11.552 14.4477 12 15 12C15.5523 12 16 11.552 16 11V10C16 9.448 15.5523 9 15 9ZM9.1875 13.844C8.9316 13.844 8.6639 13.93 8.4688 14.125C8.0784 14.516 8.078 15.141 8.4688 15.531C9.3996 16.461 10.6576 17 12 17C13.3378 17 14.6012 16.456 15.5312 15.531C15.923 15.142 15.9206 14.517 15.5312 14.125C15.1419 13.733 14.5167 13.736 14.125 14.125C13.5659 14.681 12.8041 15 12 15C11.1931 15 10.4345 14.684 9.875 14.125C9.6796 13.93 9.4434 13.844 9.1875 13.844Z" fill="black"/>
</svg>
