<svg width="24" height="24" viewBox="0 0 24 24" fill="none" xmlns="http://www.w3.org/2000/svg">
<path d="M12 2C6.47701 2 2 6.477 2 12C2 17.523 6.47701 22 12 22C17.523 22 22 17.523 22 12C22 6.477 17.523 2 12 2Z" fill="black" fill-opacity="0.4"/>
<path d="M8.00917 8C7.75376 8 7.48738 8.08601 7.29183 8.28101C6.90272 8.67201 6.90272 9.32799 7.29183 9.71899L7.57219 10L7.29183 10.281C6.90272 10.672 6.90272 11.328 7.29183 11.719C7.68193 12.109 8.33642 12.109 8.72652 11.719L9.00688 11.438L9.28724 11.719C9.67735 12.109 10.3318 12.109 10.7219 11.719C11.111 11.328 11.111 10.672 10.7219 10.281L10.4416 10L10.7219 9.71899C11.111 9.32799 11.111 8.67201 10.7219 8.28101C10.5264 8.08601 10.26 8 10.0046 8C9.74917 8 9.48279 8.08601 9.28724 8.28101L9.00688 8.562L8.72652 8.28101C8.53097 8.08601 8.26459 8 8.00917 8ZM13.9954 8C13.74 8 13.4736 8.08601 13.2781 8.28101C12.889 8.67201 12.889 9.32799 13.2781 9.71899L13.5584 10L13.2781 10.281C12.889 10.672 12.889 11.328 13.2781 11.719C13.6682 12.109 14.3227 12.109 14.7128 11.719L14.9931 11.438L15.2735 11.719C15.6636 12.109 16.3181 12.109 16.7082 11.719C17.0973 11.328 17.0973 10.672 16.7082 10.281L16.4278 10L16.7082 9.71899C17.0973 9.32799 17.0973 8.67201 16.7082 8.28101C16.5126 8.08601 16.2462 8 15.9908 8C15.7354 8 15.469 8.08601 15.2735 8.28101L14.9931 8.562L14.7128 8.28101C14.5172 8.08601 14.2508 8 13.9954 8ZM12 14C10.8975 14 10.0046 14.895 10.0046 16C10.0046 17.105 10.8975 18 12 18C13.1025 18 13.9954 17.105 13.9954 16C13.9954 14.895 13.1025 14 12 14Z" fill="black"/>
</svg>
