<svg width="24" height="24" viewBox="0 0 24 24" fill="none" xmlns="http://www.w3.org/2000/svg">
<path d="M12 22C6.47701 22 2 17.523 2 12C2 6.47701 6.47701 2.00002 12 2.00002C17.523 2.00002 22 6.47701 22 12C22 17.523 17.523 22 12 22Z" fill="black" fill-opacity="0.4"/>
<path d="M9 15C8.4477 15 8 14.552 8 14V13C8 12.448 8.4477 12 9 12C9.5523 12 10 12.448 10 13V14C10 14.552 9.5523 15 9 15ZM15 15C14.4477 15 14 14.552 14 14V13C14 12.448 14.4477 12 15 12C15.5523 12 16 12.448 16 13V14C16 14.552 15.5523 15 15 15ZM9.1875 10.156C8.9316 10.156 8.6639 10.07 8.4688 9.875C8.0784 9.484 8.078 8.85899 8.4688 8.46899C9.3996 7.53899 10.6576 7 12 7C13.3378 7 14.6012 7.54399 15.5312 8.46899C15.923 8.85799 15.9206 9.483 15.5312 9.875C15.1419 10.267 14.5167 10.264 14.125 9.875C13.5659 9.319 12.8041 9 12 9C11.1931 9 10.4345 9.316 9.875 9.875C9.6796 10.07 9.4434 10.156 9.1875 10.156Z" fill="black"/>
</svg>
