<svg width="24" height="24" viewBox="0 0 24 24" fill="none" xmlns="http://www.w3.org/2000/svg">
<path d="M12 2C6.47701 2 2 6.477 2 12C2 17.523 6.47701 22 12 22C17.523 22 22 17.523 22 12C22 6.477 17.523 2 12 2ZM7.094 12.031C9.03 12.004 15.032 12.003 16.906 12.031C17.535 12.041 18.004 12.604 17.875 13.219C17.298 15.978 14.854 18 12 18C9.14501 18 6.70101 15.98 6.12501 13.219C5.99701 12.603 6.465 12.04 7.094 12.031Z" fill="black" fill-opacity="0.4"/>
<path d="M9.01412 7.5929C8.01411 7.5929 7.01411 8.0559 7.01411 8.9989C7.01411 9.5509 7.46211 9.9989 8.01411 9.9989C8.32511 9.9989 8.58111 9.8469 8.76411 9.6239C8.83412 9.6099 8.90612 9.5929 9.01412 9.5929C9.12212 9.5929 9.19412 9.6099 9.26412 9.6239C9.44712 9.8469 9.70312 9.9989 10.0141 9.9989C10.5661 9.9989 11.0141 9.5509 11.0141 8.9989C11.0141 8.0559 10.0141 7.5929 9.01412 7.5929ZM15.0141 7.5929C13.9281 7.5929 13.0141 7.9209 13.0141 8.9989C13.0141 9.5509 13.4621 9.9989 14.0141 9.9989C14.3251 9.9989 14.5811 9.8469 14.7641 9.6239C14.8341 9.6099 14.9061 9.5929 15.0141 9.5929C15.1221 9.5929 15.1941 9.6099 15.2641 9.6239C15.4471 9.8469 15.7031 9.9989 16.0141 9.9989C16.5661 9.9989 17.0141 9.5509 17.0141 8.9989C17.0141 7.9209 16.1001 7.5929 15.0141 7.5929ZM7.10811 12.0299C6.47911 12.0389 6.01111 12.6019 6.13911 13.2179C6.71511 15.9789 9.15912 17.9989 12.0141 17.9989C14.8681 17.9989 17.3121 15.9769 17.8891 13.2179C18.0181 12.6029 17.5491 12.0399 16.9201 12.0299C15.0461 12.0019 9.04411 12.0029 7.10811 12.0299ZM8.5511 14.0139C10.5561 14.0029 13.4821 13.9909 15.4611 14.0029C14.7361 15.2929 13.4051 15.9989 12.0141 15.9989C10.6221 15.9989 9.1841 15.1999 8.5511 14.0139Z" fill="black"/>
</svg>
