<svg width="24" height="24" viewBox="0 0 24 24" fill="none" xmlns="http://www.w3.org/2000/svg">
<path d="M12 2C6.47701 2 2 6.477 2 12C2 17.523 6.47701 22 12 22C17.523 22 22 17.523 22 12C22 6.477 17.523 2 12 2Z" fill="black" fill-opacity="0.4"/>
<path d="M8 8.9989C7.4477 8.9989 7 9.4469 7 9.9989C7 10.5509 7.4477 10.9989 8 10.9989H10C10.5523 10.9989 11 10.5509 11 9.9989C11 9.4469 10.5523 8.9989 10 8.9989H8ZM14 8.9989C13.4477 8.9989 13 9.4469 13 9.9989C13 10.5509 13.4477 10.9989 14 10.9989H16C16.5523 10.9989 17 10.5509 17 9.9989C17 9.4469 16.5523 8.9989 16 8.9989H14ZM9 13.9989C8.4477 13.9989 8 14.4469 8 14.9989C8 15.5509 8.4477 15.9989 9 15.9989H15C15.5523 15.9989 16 15.5509 16 14.9989C16 14.4469 15.5523 13.9989 15 13.9989H9Z" fill="black"/>
</svg>
