<svg width="24" height="24" viewBox="0 0 24 24" fill="none" xmlns="http://www.w3.org/2000/svg">
<path d="M12 2C6.47701 2 2 6.477 2 12C2 17.523 6.47701 22 12 22C17.523 22 22 17.523 22 12C22 6.477 17.523 2 12 2ZM12 4C16.418 4 20 7.582 20 12C20 16.418 16.418 20 12 20C7.58201 20 4 16.418 4 12C4 7.582 7.58201 4 12 4Z" fill="black" fill-opacity="0.4"/>
<path d="M7.69446 8.06086C7.45183 8.14177 7.22418 8.31457 7.10136 8.5603C6.85473 9.05374 7.07642 9.65607 7.56868 9.90279L8.00601 10.1215V10.9955C8.00601 11.5469 8.45333 11.9944 9.00451 11.9944C9.55568 11.9944 10.003 11.5469 10.003 10.9955C10.3695 10.9886 10.7329 10.7828 10.9076 10.4342C11.1543 9.94074 10.9326 9.33841 10.4403 9.09169L8.44334 8.09282C8.19671 7.96896 7.9361 7.98095 7.69446 8.06086ZM16.3055 8.06086C16.0639 7.98095 15.8043 7.96896 15.5567 8.09282L13.5597 9.09169C13.0674 9.33841 12.8457 9.94074 13.0924 10.4342C13.2671 10.7828 13.6305 10.9886 13.997 10.9955C13.997 11.5469 14.4443 11.9944 14.9955 11.9944C15.5467 11.9944 15.994 11.5469 15.994 10.9955V10.1215L16.4313 9.90279C16.9236 9.65607 17.1453 9.05374 16.8986 8.5603C16.7758 8.31457 16.5482 8.14177 16.3055 8.06086ZM12 13.8363C10.66 13.8363 9.4039 14.3428 8.4743 15.2717C8.08388 15.6623 8.08388 16.3175 8.4743 16.7081C8.86371 17.0976 9.48778 17.0976 9.87819 16.7081C10.4374 16.1497 11.1942 15.8341 12 15.8341C12.8028 15.8341 13.5636 16.1217 14.1218 16.6771C14.5132 17.0657 15.1373 17.0677 15.5257 16.6771C15.9151 16.2856 15.9171 15.6613 15.5257 15.2717C14.5971 14.3488 13.336 13.8363 12 13.8363Z" fill="black"/>
</svg>
