<svg width="24" height="24" viewBox="0 0 24 24" fill="none" xmlns="http://www.w3.org/2000/svg">
<path d="M12 2C6.47701 2 2 6.477 2 12C2 17.523 6.47701 22 12 22C17.523 22 22 17.523 22 12C22 6.477 17.523 2 12 2Z" fill="black" fill-opacity="0.4"/>
<path d="M8.01186 8.9989C7.75645 8.9989 7.49007 9.08491 7.29451 9.27991C6.90541 9.67091 6.90541 10.3269 7.29451 10.7179L8.29222 11.7179C8.48777 11.9129 8.74817 11.9989 9.00957 11.9989C9.27097 11.9989 9.53136 11.9129 9.72691 11.7179L10.7246 10.7179C11.1137 10.3269 11.1137 9.67091 10.7246 9.27991C10.5291 9.08491 10.2627 8.9989 10.0073 8.9989C9.75186 8.9989 9.48548 9.08491 9.28993 9.27991L9.00957 9.5609L8.7292 9.27991C8.53365 9.08491 8.26727 8.9989 8.01186 8.9989ZM13.9981 8.9989C13.7427 8.9989 13.4763 9.08491 13.2808 9.27991C12.8916 9.67091 12.8916 10.3269 13.2808 10.7179L14.2785 11.7179C14.474 11.9129 14.7344 11.9989 14.9958 11.9989C15.2572 11.9989 15.5176 11.9129 15.7131 11.7179L16.7109 10.7179C17.1 10.3269 17.1 9.67091 16.7109 9.27991C16.5153 9.08491 16.2489 8.9989 15.9935 8.9989C15.7381 8.9989 15.4717 9.08491 15.2762 9.27991L14.9958 9.5609L14.7154 9.27991C14.5199 9.08491 14.2535 8.9989 13.9981 8.9989ZM9.19714 13.8429C8.94173 13.8429 8.67433 13.9289 8.47978 14.1239C8.08968 14.5149 8.08968 15.1399 8.47978 15.5299C9.40864 16.4599 10.6638 16.9989 12.0027 16.9989C13.3376 16.9989 14.5977 16.4549 15.5256 15.5299C15.9167 15.1409 15.9147 14.5159 15.5256 14.1239C15.1375 13.7319 14.5139 13.7349 14.1228 14.1239C13.5651 14.6799 12.8048 14.9989 12.0027 14.9989C11.1975 14.9989 10.4403 14.6829 9.88256 14.1239C9.68801 13.9289 9.45155 13.8429 9.19714 13.8429Z" fill="black"/>
</svg>
