<svg width="24" height="24" viewBox="0 0 24 24" fill="none" xmlns="http://www.w3.org/2000/svg">
<path d="M12 2C6.477 2 2 6.477 2 12C2 16.245 4.66699 19.985 8.59399 21.406C9.67599 21.798 10.826 22 12 22C17.523 22 22 17.523 22 12C22 6.477 17.523 2 12 2Z" fill="black" fill-opacity="0.4"/>
<path d="M6.2597 8.0011C6.62009 8.0011 8.76946 8.0011 9.12985 8.0011C9.92151 8.0011 10.5375 8.4271 11.0017 9.0011H12.9983C13.4625 8.4271 14.0775 8.0011 14.8701 8.0011H17.7403C19.2647 8.0011 20.294 9.3011 19.9246 10.7821L19.5183 12.3131C19.2807 13.2681 18.3483 14.0011 17.3659 14.0011H15.6818C14.5387 14.0011 13.3328 13.1871 12.9045 12.1261L12.4373 11.0011H11.5627L11.0955 12.1261C10.6672 13.1871 9.46129 14.0011 8.31822 14.0011H6.63407C5.65173 14.0011 4.7193 13.2681 4.4817 12.3131L4.07539 10.7821C3.70601 9.3011 4.73528 8.0011 6.2597 8.0011ZM9.00506 15.8451C9.26063 15.8451 9.52717 15.9311 9.72284 16.1261C10.2809 16.6851 11.0077 17.0011 11.8123 17.0011C12.616 17.0011 13.3757 16.6821 13.9347 16.1261C14.3251 15.7371 14.949 15.7341 15.3384 16.1261C15.7267 16.5181 15.7287 17.1431 15.3384 17.5321C14.4099 18.4571 13.1481 19.0011 11.8123 19.0011C10.4726 19.0011 9.21671 18.4621 8.28728 17.5321C7.89794 17.1421 7.89794 16.5171 8.28728 16.1261C8.48195 15.9311 8.74949 15.8451 9.00506 15.8451Z" fill="black"/>
</svg>
