<svg width="24" height="24" viewBox="0 0 24 24" fill="none" xmlns="http://www.w3.org/2000/svg">
<path fill-rule="evenodd" clip-rule="evenodd" d="M12 4C7.58172 4 4 7.58172 4 12C4 16.4183 7.58172 20 12 20C16.4183 20 20 16.4183 20 12C20 7.58172 16.4183 4 12 4ZM2 12C2 6.47715 6.47715 2 12 2C17.5228 2 22 6.47715 22 12C22 17.5228 17.5228 22 12 22C6.47715 22 2 17.5228 2 12Z" fill="black" fill-opacity="0.4"/>
<path d="M6.2597 7.0011C6.62009 7.0011 8.76946 7.0011 9.12985 7.0011C9.92151 7.0011 10.5375 7.4271 11.0017 8.0011H12.9983C13.4625 7.4271 14.0775 7.0011 14.8701 7.0011H17.7403C19.2647 7.0011 20.294 8.3011 19.9246 9.7821L19.5183 11.3131C19.2807 12.2681 18.3483 13.0011 17.3659 13.0011H15.6818C14.5387 13.0011 13.3328 12.1871 12.9045 11.1261L12.4373 10.0011H11.5627L11.0955 11.1261C10.6672 12.1871 9.46129 13.0011 8.31822 13.0011H6.63407C5.65173 13.0011 4.7193 12.2681 4.4817 11.3131L4.07539 9.7821C3.70601 8.3011 4.73528 7.0011 6.2597 7.0011ZM9.00506 14.8451C9.26063 14.8451 9.52717 14.9311 9.72284 15.1261C10.2809 15.6851 11.0077 16.0011 11.8123 16.0011C12.616 16.0011 13.3757 15.6821 13.9347 15.1261C14.3251 14.7371 14.949 14.7341 15.3384 15.1261C15.7267 15.5181 15.7287 16.1431 15.3384 16.5321C14.4099 17.4571 13.1481 18.0011 11.8123 18.0011C10.4726 18.0011 9.21671 17.4621 8.28728 16.5321C7.89794 16.1421 7.89794 15.5171 8.28728 15.1261C8.48195 14.9311 8.74949 14.8451 9.00506 14.8451Z" fill="black"/>
</svg>
