<svg width="24" height="24" viewBox="0 0 24 24" fill="none" xmlns="http://www.w3.org/2000/svg">
<path d="M12 2C6.47701 2 2 6.477 2 12C2 17.523 6.47701 22 12 22C17.523 22 22 17.523 22 12C22 6.477 17.523 2 12 2Z" fill="black" fill-opacity="0.4"/>
<path d="M9 7.9989C8.4477 7.9989 8 8.44626 8 8.99747V9.99603C8 10.5472 8.4477 10.9946 9 10.9946C9.5523 10.9946 10 10.5472 10 9.99603V8.99747C10 8.44626 9.5523 7.9989 9 7.9989ZM15 7.9989C14.448 7.9989 14 8.44626 14 8.99747V9.99603C14 10.5472 14.448 10.9946 15 10.9946C15.552 10.9946 16 10.5472 16 9.99603V8.99747C16 8.44626 15.552 7.9989 15 7.9989ZM12 12.8359C10.658 12.8359 9.3996 13.3422 8.4688 14.2709C8.078 14.6613 8.0784 15.3164 8.4688 15.7068C8.8591 16.0963 9.4843 16.0963 9.875 15.7068C10.435 15.1486 11.193 14.8331 12 14.8331C12.804 14.8331 13.566 15.1207 14.125 15.6759C14.517 16.0643 15.142 16.0663 15.531 15.6759C15.921 15.2844 15.923 14.6603 15.531 14.2709C14.601 13.3482 13.338 12.8359 12 12.8359Z" fill="black"/>
</svg>
