<svg width="24" height="24" viewBox="0 0 24 24" fill="none" xmlns="http://www.w3.org/2000/svg">
<path d="M12 2C6.47701 2 2 6.477 2 12C2 17.523 6.47701 22 12 22C17.523 22 22 17.523 22 12C22 6.477 17.523 2 12 2Z" fill="black" fill-opacity="0.4"/>
<path d="M9 8.9989C8.448 8.9989 8 9.4469 8 9.9989V10.9989C8 11.5509 8.448 11.9989 9 11.9989C9.552 11.9989 10 11.5509 10 10.9989V9.9989C10 9.4469 9.552 8.9989 9 8.9989ZM15 9.5929C13.914 9.5929 13 9.9209 13 10.9989C13 11.5509 13.448 11.9989 14 11.9989C14.311 11.9989 14.567 11.8469 14.75 11.6239C14.82 11.6099 14.892 11.5929 15 11.5929C15.108 11.5929 15.18 11.6099 15.25 11.6239C15.433 11.8469 15.689 11.9989 16 11.9989C16.552 11.9989 17 11.5509 17 10.9989C17 9.9209 16.086 9.5929 15 9.5929ZM9.18799 13.8429C8.93199 13.8429 8.66399 13.9289 8.46899 14.1239C8.07799 14.5149 8.07799 15.1399 8.46899 15.5299C9.4 16.4599 10.658 16.9989 12 16.9989C13.338 16.9989 14.601 16.4549 15.531 15.5299C15.923 15.1409 15.921 14.5159 15.531 14.1239C15.142 13.7319 14.517 13.7349 14.125 14.1239C13.566 14.6799 12.804 14.9989 12 14.9989C11.193 14.9989 10.435 14.6829 9.875 14.1239C9.68 13.9289 9.44299 13.8429 9.18799 13.8429Z" fill="black"/>
</svg>
