<svg width="24" height="24" viewBox="0 0 24 24" fill="none" xmlns="http://www.w3.org/2000/svg">
<path d="M12 2C6.47701 2 2 6.477 2 12C2 17.523 6.47701 22 12 22C17.523 22 22 17.523 22 12C22 6.477 17.523 2 12 2Z" fill="black" fill-opacity="0.4"/>
<path d="M9 8.9989C8.448 8.9989 8 9.4469 8 9.9989V10.9989C8 11.5509 8.448 11.9989 9 11.9989C9.552 11.9989 10 11.5509 10 10.9989V9.9989C10 9.4469 9.552 8.9989 9 8.9989ZM15 8.9989C14.448 8.9989 14 9.4469 14 9.9989V10.9989C14 11.5509 14.448 11.9989 15 11.9989C15.552 11.9989 16 11.5509 16 10.9989V9.9989C16 9.4469 15.552 8.9989 15 8.9989ZM9 13.9989C8.448 13.9989 8 14.4469 8 14.9989C8 15.5509 8.448 15.9989 9 15.9989H15C15.552 15.9989 16 15.5509 16 14.9989C16 14.4469 15.552 13.9989 15 13.9989H9Z" fill="black"/>
</svg>
