<svg width="24" height="24" viewBox="0 0 24 24" fill="none" xmlns="http://www.w3.org/2000/svg">
<path d="M2.01416 10.1538V15.9978C2.01416 18.2068 3.80516 19.9978 6.01417 19.9978H18.0142C20.2232 19.9978 22.0142 18.2068 22.0142 15.9978V10.1538C21.1942 10.9328 20.2782 11.7368 18.9832 12.6538C16.1472 14.6618 13.6002 15.9978 12.0142 15.9978C10.4282 15.9978 7.88118 14.6618 5.04517 12.6538C3.74917 11.7368 2.83416 10.9328 2.01416 10.1538Z" fill="black" fill-opacity="0.4"/>
<path d="M5.93205 4C3.89605 4 2.30251 4.51399 2.02124 6.46899C1.93115 7.09499 2.12933 7.711 2.58478 8.156C2.811 8.377 3.05024 8.64 3.36655 8.906C4.16032 9.575 5.17231 10.327 6.11924 11C8.72479 12.85 10.7818 14 12 14C13.2182 14 15.2752 12.85 17.8808 11C18.8287 10.327 19.8407 9.574 20.6335 8.906C20.9498 8.64 21.189 8.378 21.4152 8.156C21.8707 7.711 22.0689 7.09499 21.9788 6.46899C21.6975 4.51399 20.1039 4 18.068 4H5.93205Z" fill="black"/>
</svg>
