<svg width="24" height="24" viewBox="0 0 24 24" fill="none" xmlns="http://www.w3.org/2000/svg">
<path fill-rule="evenodd" clip-rule="evenodd" d="M3.53688 8.15634C3.22895 7.96039 2.83874 7.94776 2.51879 8.12339C2.19885 8.29903 2 8.63502 2 9V16V17C2 19.2091 3.79086 21 6 21H18C20.2091 21 22 19.2091 22 17V16V9C22 8.63502 21.8012 8.29903 21.4812 8.12339C21.1613 7.94776 20.771 7.96039 20.4631 8.15634L14.9631 11.6563C14.9371 11.6729 14.912 11.6905 14.888 11.709C13.923 11.309 12.9031 11 12 11C11.0969 11 10.077 11.309 9.11197 11.709C9.08798 11.6905 9.06294 11.6729 9.03688 11.6563L3.53688 8.15634ZM7.00556 12.7343L4 10.8217V14.5762C4.53474 14.2175 5.17232 13.8054 5.8605 13.3925C6.22796 13.172 6.61243 12.9498 7.00556 12.7343ZM20 10.8217V14.5762C19.4653 14.2175 18.8277 13.8054 18.1395 13.3925C17.772 13.172 17.3876 12.9498 16.9944 12.7343L20 10.8217ZM6 19C4.89833 19 4.0047 18.1093 4.00002 17.0087C4.14918 16.9019 4.33597 16.7697 4.55359 16.6191C5.15091 16.2055 5.97582 15.6557 6.8895 15.1075C7.80628 14.5574 8.79487 14.0196 9.72204 13.6223C10.6741 13.2142 11.4587 13 12 13C12.5413 13 13.3259 13.2142 14.278 13.6223C15.2051 14.0196 16.1937 14.5574 17.1105 15.1075C18.0242 15.6557 18.8491 16.2055 19.4464 16.6191C19.664 16.7697 19.8508 16.9019 20 17.0087C19.9953 18.1093 19.1017 19 18 19H6Z" fill="black"/>
<path fill-rule="evenodd" clip-rule="evenodd" d="M21.6322 8.22526C21.543 8.15169 21.4533 8.07857 21.3632 8.00604C21.1883 7.86535 20.9364 7.66548 20.6253 7.42613C20.004 6.94819 19.1413 6.30903 18.1796 5.66795C17.2214 5.02913 16.1461 4.37568 15.1018 3.87839C14.0861 3.39472 12.9814 3 11.9999 3C11.0185 3 9.91384 3.39472 8.89814 3.87839C7.85383 4.37568 6.77847 5.02913 5.82025 5.66795C4.85862 6.30903 3.99593 6.94819 3.37461 7.42613C3.06345 7.66548 2.8116 7.86535 2.63674 8.00604C2.54678 8.07842 2.45729 8.15138 2.36816 8.2248C2.41469 8.18689 2.46499 8.15288 2.51871 8.12339C2.83866 7.94776 3.22888 7.96039 3.5368 8.15634L4.72396 8.9118C5.3084 8.46554 6.08077 7.89797 6.92965 7.33205C7.84642 6.72087 8.83356 6.12432 9.75801 5.68411C10.7111 5.23028 11.4814 5 11.9999 5C12.5185 5 13.2888 5.23028 14.2419 5.68411C15.1663 6.12432 16.1535 6.72087 17.0702 7.33205C17.9191 7.89796 18.6915 8.46553 19.2759 8.91179L20.463 8.15634C20.771 7.96039 21.1612 7.94776 21.4811 8.12339C21.5351 8.153 21.5856 8.18717 21.6322 8.22526Z" fill="black" fill-opacity="0.4"/>
</svg>
