<svg width="24" height="24" viewBox="0 0 24 24" fill="none" xmlns="http://www.w3.org/2000/svg">
<path d="M12.0001 1.9989C10.3395 1.9999 9.0897 2.8669 8.0939 4.6239L3.1251 13.7179C2.3561 15.0589 1.993 16.0019 2.0001 16.9989C2.0161 19.2309 3.8105 20.9909 6.0001 20.9989H18.0001C20.1924 20.9989 21.9918 19.2649 22.0001 16.9989C22.0037 16.0049 21.6125 15.0019 20.8439 13.7179L15.9376 4.68689C15.0168 2.92789 13.6834 1.9979 12.0001 1.9989ZM12.0001 3.9989C12.8823 3.9989 13.5523 4.4699 14.1563 5.6239L19.1251 14.7179C19.7428 15.7509 20.0021 16.4549 20.0001 16.9989C19.9959 18.1459 19.1071 18.9989 18.0001 18.9989H6.0001C4.9025 18.9949 4.0082 18.1269 4.0001 16.9989C3.9961 16.4429 4.2581 15.7629 4.8751 14.6869L9.8126 5.6239C10.4789 4.4479 11.1286 3.9989 12.0001 3.9989Z" fill="black" fill-opacity="0.4"/>
<path d="M12 8C11.4477 8 11 8.448 11 9V13C11 13.552 11.4477 14 12 14C12.5523 14 13 13.552 13 13V9C13 8.448 12.5523 8 12 8ZM12 15C11.4477 15 11 15.448 11 16C11 16.552 11.4477 17 12 17C12.5523 17 13 16.552 13 16C13 15.448 12.5523 15 12 15Z" fill="black"/>
</svg>
