<svg width="24" height="24" viewBox="0 0 24 24" fill="none" xmlns="http://www.w3.org/2000/svg">
<path fill-rule="evenodd" clip-rule="evenodd" d="M7 9.1338C7.10402 7.96988 8.06944 7.04344 9.25015 7H17V14.6544C17 15.9434 15.944 16.9984 14.6538 16.9984H7V9.1338Z" fill="black" fill-opacity="0.4"/>
<path d="M5.344 3C4.05499 3 3 4.05499 3 5.34399V14.656C3 15.945 4.05499 17 5.344 17H7V9.34398C7 8.05499 8.055 6.99999 9.344 6.99999H17V5.34399C17 4.05499 15.945 3 14.656 3H5.344ZM17 6.99999V14.656C17 15.945 15.945 17 14.656 17H7V18.656C7 19.945 8.055 21 9.344 21H18.656C19.945 21 21 19.945 21 18.656V9.34398C21 8.05499 19.945 6.99999 18.656 6.99999H17Z" fill="black"/>
</svg>
