<svg width="24" height="24" viewBox="0 0 24 24" fill="none" xmlns="http://www.w3.org/2000/svg">
<path d="M9.5 2.99829C8.8 2.99729 7.93299 3.34829 7.43799 3.84229L3.875 7.4043C3.379 7.8983 3.001 8.76729 3 9.46729V14.4983C2.999 15.1983 3.35 16.0653 3.844 16.5613L7.40601 20.1233C7.90001 20.6193 8.76899 20.9973 9.46899 20.9983H14.5C15.2 20.9993 16.067 20.6483 16.563 20.1543L20.125 16.5923C20.621 16.0983 20.999 15.2293 21 14.5293V9.49829C21.001 8.79829 20.65 7.93128 20.156 7.43628L16.594 3.87329C16.1 3.37729 15.231 2.99929 14.531 2.99829H9.5ZM9.5 4.99829H14.531C14.7 4.99829 15.068 5.1593 15.188 5.2793L18.75 8.84229C18.869 8.96229 19 9.32929 19 9.49829V14.5293C19 14.6983 18.839 15.0663 18.719 15.1863L15.156 18.7483C15.036 18.8673 14.669 18.9983 14.5 18.9983H9.46899C9.29999 18.9983 8.93199 18.8373 8.81299 18.7173L5.25 15.1543C5.131 15.0343 5 14.6673 5 14.4983V9.46729C5 9.29829 5.16101 8.93028 5.28101 8.81128L8.84399 5.24829C8.96399 5.12929 9.331 4.99829 9.5 4.99829Z" fill="black" fill-opacity="0.4"/>
<path d="M12 7C11.448 7 11 7.448 11 8V13C11 13.552 11.448 14 12 14C12.552 14 13 13.552 13 13V8C13 7.448 12.552 7 12 7ZM12 15C11.448 15 11 15.448 11 16C11 16.552 11.448 17 12 17C12.552 17 13 16.552 13 16C13 15.448 12.552 15 12 15Z" fill="black"/>
</svg>
