<svg width="24" height="24" viewBox="0 0 24 24" fill="none" xmlns="http://www.w3.org/2000/svg">
<path d="M12 1.9989C10.9447 1.9989 9.89542 2.41315 9.09043 3.21864L3.20823 9.09724C1.59726 10.7062 1.59726 13.3038 3.20823 14.9128L9.09043 20.7914C10.7004 22.4014 13.2996 22.4014 14.9096 20.7914L20.7918 14.9128C22.4027 13.3038 22.4027 10.7062 20.7918 9.09724L14.9096 3.21864C14.1046 2.41315 13.0553 1.9989 12 1.9989ZM12 4.00013C12.5427 4.00013 13.0873 4.21126 13.5018 4.62551L19.384 10.5041C20.2121 11.3316 20.2121 12.6774 19.384 13.5059L13.5018 19.3845C12.6738 20.2121 11.3272 20.2121 10.4982 19.3845L4.61596 13.5059C3.78794 12.6784 3.78794 11.3326 4.61596 10.5041L10.4982 4.62551C10.9127 4.21126 11.4573 4.00013 12 4.00013Z" fill="black" fill-opacity="0.4"/>
<path fill-rule="evenodd" clip-rule="evenodd" d="M13 8C13 7.44772 12.5523 7 12 7C11.4477 7 11 7.44772 11 8V13C11 13.5523 11.4477 14 12 14C12.5523 14 13 13.5523 13 13V8ZM12 17C12.5523 17 13 16.5523 13 16C13 15.4477 12.5523 15 12 15C11.4477 15 11 15.4477 11 16C11 16.5523 11.4477 17 12 17Z" fill="black"/>
</svg>
