<svg width="24" height="24" viewBox="0 0 24 24" fill="none" xmlns="http://www.w3.org/2000/svg">
<path fill-rule="evenodd" clip-rule="evenodd" d="M8.87622 19.3728C10.1842 18.0598 19.9392 8.3418 19.9392 8.3418C19.9392 8.3418 20.4182 9.01981 20.5952 9.27881C21.2532 10.2448 21.6802 11.0718 21.9072 11.5918C22.0182 11.8448 22.0162 12.1498 21.9072 12.4038C21.7992 12.6558 21.6152 13.0638 21.3132 13.5918C20.8152 14.4638 20.2022 15.3368 19.5012 16.1538C17.4532 18.5438 14.9602 19.9978 12.0012 19.9978C11.7942 19.9978 10.3162 19.9438 8.87622 19.3728ZM9.87868 9.87868C10.8023 8.95504 12.1784 8.75957 13.2935 9.29229L9.29229 13.2935C8.75957 12.1784 8.95504 10.8023 9.87868 9.87868Z" fill="black" fill-opacity="0.4"/>
<path fill-rule="evenodd" clip-rule="evenodd" d="M4.48896 7.84179C6.53858 5.45179 9.03354 3.9978 11.9949 3.9978C13.8462 3.9978 15.5153 4.56611 17.0073 5.57614L18.2915 4.29289C18.6824 3.90237 19.316 3.90237 19.7069 4.29289C20.0977 4.68342 20.0977 5.31658 19.7069 5.70711L5.69585 19.7071C5.30502 20.0976 4.67136 20.0976 4.28053 19.7071C3.8897 19.3166 3.8897 18.6834 4.28053 18.2929L5.42539 17.1489C5.10351 16.8387 4.79139 16.5064 4.48896 16.1538C3.78741 15.3368 3.17393 14.4638 2.67554 13.5918C2.3733 13.0638 2.18915 12.6558 2.08106 12.4038C1.97298 12.1528 1.97298 11.8428 2.08106 11.5918C2.18915 11.3398 2.3733 10.9318 2.67554 10.4038C3.17393 9.5318 3.78741 8.65879 4.48896 7.84179ZM7.81881 14.7574L14.7533 7.8284C13.9622 7.30488 13.0136 7 11.9937 7C9.2301 7 6.98976 9.23858 6.98976 12C6.98976 13.0191 7.29488 13.967 7.81881 14.7574Z" fill="black"/>
</svg>
