<svg width="40" height="40" viewBox="0 0 40 40" fill="none" xmlns="http://www.w3.org/2000/svg">
<path opacity="0.3" d="M20 33C16.2754 33 14.4131 33 12.9218 32.4572C10.4219 31.5473 8.45265 29.5781 7.54277 27.0782C7 25.5869 7 23.7246 7 20C7 16.2754 7 14.4131 7.54277 12.9218C8.45265 10.4219 10.4219 8.45265 12.9218 7.54277C14.4131 7 16.2754 7 20 7C23.7246 7 25.5869 7 27.0782 7.54277C29.5781 8.45265 31.5473 10.4219 32.4572 12.9218C33 14.4131 33 16.2754 33 20C33 23.7246 33 25.5869 32.4572 27.0782C31.5473 29.5781 29.5781 31.5473 27.0782 32.4572C25.5869 33 23.7246 33 20 33Z" fill="black"/>
<path d="M15.3846 11.5385C13.2604 11.5385 11.5385 13.2604 11.5385 15.3846V16.9231C11.5385 17.3479 11.1941 17.6923 10.7692 17.6923C10.3444 17.6923 10 17.3479 10 16.9231V15.3846C10 12.4108 12.4108 10 15.3846 10H17.6923C18.1171 10 18.4615 10.3444 18.4615 10.7692C18.4615 11.1941 18.1171 11.5385 17.6923 11.5385H15.3846Z" fill="black"/>
<path d="M22.3077 10.7692C22.3077 10.3444 22.6521 10 23.0769 10H24.6154C27.5892 10 30 12.4108 30 15.3846V16.9231C30 17.3479 29.6556 17.6923 29.2308 17.6923C28.8059 17.6923 28.4615 17.3479 28.4615 16.9231V15.3846C28.4615 13.2604 26.7396 11.5385 24.6154 11.5385H23.0769C22.6521 11.5385 22.3077 11.1941 22.3077 10.7692Z" fill="black"/>
<path d="M16.6135 22.3173C16.8877 21.9928 17.373 21.9521 17.6975 22.2263C18.33 22.7608 19.1303 23.0769 20 23.0769C20.8696 23.0769 21.67 22.7608 22.3025 22.2263C22.627 21.9521 23.1123 21.9928 23.3865 22.3173C23.6608 22.6418 23.62 23.1271 23.2955 23.4013C22.4005 24.1577 21.2525 24.6154 20 24.6154C18.7475 24.6154 17.5995 24.1577 16.7045 23.4013C16.38 23.1271 16.3392 22.6418 16.6135 22.3173Z" fill="black"/>
<path d="M10.7692 22.3077C11.1941 22.3077 11.5385 22.6521 11.5385 23.0769V24.6154C11.5385 26.7396 13.2604 28.4615 15.3846 28.4615H16.9231C17.3479 28.4615 17.6923 28.8059 17.6923 29.2308C17.6923 29.6556 17.3479 30 16.9231 30H15.3846C12.4108 30 10 27.5892 10 24.6154V23.0769C10 22.6521 10.3444 22.3077 10.7692 22.3077Z" fill="black"/>
<path d="M29.2308 22.3077C29.6556 22.3077 30 22.6521 30 23.0769V24.6154C30 27.5892 27.5892 30 24.6154 30H23.0769C22.6521 30 22.3077 29.6556 22.3077 29.2308C22.3077 28.8059 22.6521 28.4615 23.0769 28.4615H24.6154C26.7396 28.4615 28.4615 26.7396 28.4615 24.6154V23.0769C28.4615 22.6521 28.8059 22.3077 29.2308 22.3077Z" fill="black"/>
<path d="M23.2658 18.426C23.8933 18.426 24.4019 17.9174 24.4019 17.2899C24.4019 16.6625 23.8933 16.1538 23.2658 16.1538C22.6384 16.1538 22.1297 16.6625 22.1297 17.2899C22.1297 17.9174 22.6384 18.426 23.2658 18.426Z" fill="black"/>
<path d="M16.8753 18.426C17.5027 18.426 18.0114 17.9174 18.0114 17.2899C18.0114 16.6625 17.5027 16.1538 16.8753 16.1538C16.2478 16.1538 15.7392 16.6625 15.7392 17.2899C15.7392 17.9174 16.2478 18.426 16.8753 18.426Z" fill="black"/>
</svg>
