<svg width="24" height="24" viewBox="0 0 24 24" fill="none" xmlns="http://www.w3.org/2000/svg">
<path fill-rule="evenodd" clip-rule="evenodd" d="M12 4C7.58172 4 4 7.58172 4 12C4 16.4183 7.58172 20 12 20C16.4183 20 20 16.4183 20 12C20 7.58172 16.4183 4 12 4ZM2 12C2 6.47715 6.47715 2 12 2C17.5228 2 22 6.47715 22 12C22 17.5228 17.5228 22 12 22C6.47715 22 2 17.5228 2 12Z" fill="black" fill-opacity="0.4"/>
<path fill-rule="evenodd" clip-rule="evenodd" d="M13 19.9363V14.999H15V11.999H13V10.999C13 10.429 13.481 9.99796 14 9.99896H15V6.99896H13C11.301 7.01796 10.011 8.36496 10 9.99896V11.999H8V14.999H10V19.7516C10.635 19.9138 11.3003 20 11.9858 20C12.3294 20 12.6679 19.9783 13 19.9363Z" fill="black"/>
</svg>
