<svg width="40" height="40" viewBox="0 0 40 40" fill="none" xmlns="http://www.w3.org/2000/svg">
<path opacity="0.3" d="M20 7C12.8203 7 7 12.8203 7 20C7 27.1797 12.8203 33 20 33C27.1797 33 33 27.1797 33 20C33 12.8203 27.1797 7 20 7Z" fill="black"/>
<path d="M24.7071 15.2929C24.9626 15.5484 25.0604 15.9218 24.963 16.2697L23.213 22.5197C23.1188 22.856 22.856 23.1188 22.5197 23.213L16.2697 24.963C15.9218 25.0604 15.5484 24.9626 15.2929 24.7071C15.0375 24.4517 14.9396 24.0783 15.0371 23.7304L16.7871 17.4804C16.8812 17.1441 17.1441 16.8812 17.4804 16.7871L23.7304 15.0371C24.0783 14.9396 24.4517 15.0375 24.7071 15.2929Z" fill="black"/>
</svg>
