<svg width="40" height="40" viewBox="0 0 40 40" fill="none" xmlns="http://www.w3.org/2000/svg">
<path d="M16.6154 12L16.4673 12C15.0353 11.9998 14.1447 11.9996 13.3901 12.2253C11.3461 12.8366 9.74954 14.6186 9.20185 16.9C8.99964 17.7424 8.99979 18.7364 9.00002 20.3347L9.00003 20.5L9.00002 20.6653C8.99979 22.2636 8.99964 23.2576 9.20185 24.1C9.74954 26.3814 11.3461 28.1634 13.3901 28.7747C14.1447 29.0004 15.0353 29.0002 16.4673 29L16.6154 29H23.3846L23.5327 29C24.9647 29.0002 25.8553 29.0004 26.6099 28.7747C28.6539 28.1634 30.2505 26.3814 30.7981 24.1C31.0004 23.2576 31.0002 22.2636 31 20.6653L31 20.5L31 20.3347C31.0002 18.7364 31.0004 17.7424 30.7981 16.9C30.2505 14.6186 28.6539 12.8366 26.6099 12.2253C25.8553 11.9996 24.9647 11.9998 23.5327 12L23.3846 12H16.6154Z" fill="black"/>
<g opacity="0.3">
<path d="M16.615 30.8028L16.4669 30.8028C15.0347 30.8026 14.144 30.8024 13.3893 31.0176C11.345 31.6003 9.74826 33.2988 9.2005 35.4735C9.02912 36.1539 9.00535 36.9162 9 38H31C30.9947 36.9162 30.9709 36.1539 30.7995 35.4735C30.2517 33.2988 28.655 31.6003 26.6107 31.0176C25.856 30.8024 24.9653 30.8026 23.5331 30.8028L23.385 30.8028H16.615Z" fill="black"/>
<path d="M9 2C9.00535 3.08383 9.02912 3.84609 9.2005 4.5265C9.74826 6.70115 11.345 8.39974 13.3893 8.98244C14.144 9.19757 15.0347 9.19742 16.4668 9.19718L16.615 9.19716H23.385L23.5332 9.19718C24.9653 9.19742 25.856 9.19757 26.6107 8.98244C28.655 8.39974 30.2517 6.70115 30.7995 4.5265C30.9709 3.84609 30.9947 3.08383 31 2L9 2Z" fill="black"/>
</g>
</svg>
