<svg width="24" height="24" viewBox="0 0 24 24" fill="none" xmlns="http://www.w3.org/2000/svg">
<path fill-rule="evenodd" clip-rule="evenodd" d="M6 6C6 4.89543 6.89543 4 8 4H16C17.1046 4 18 4.89543 18 6V12.3806C18.2348 12.765 18.4507 13.1653 18.6444 13.5528C18.7111 13.6862 18.7866 13.8329 18.867 13.989C19.3466 14.9209 20 16.1904 20 17V6C20 3.79086 18.2091 2 16 2H8C5.79086 2 4 3.79086 4 6V17C4 17.1124 4.01856 17.2206 4.05278 17.3214C4.09411 17.0811 4.16182 16.8465 4.26321 16.588C4.40367 16.2299 4.61635 15.7436 4.90206 15.2495C5.17473 14.7779 5.5372 14.2582 6 13.8381V6Z" fill="black" fill-opacity="0.4"/>
<path fill-rule="evenodd" clip-rule="evenodd" d="M9 9C9.55228 9 10 8.55228 10 8C10 7.44772 9.55228 7 9 7C8.44772 7 8 7.44772 8 8C8 8.55228 8.44772 9 9 9ZM4 18C4 20.2091 5.79086 22 8 22H16C18.2091 22 20 20.2091 20 18V17C20 16.1904 19.3466 14.9209 18.867 13.989C18.7866 13.8329 18.7111 13.6862 18.6444 13.5528C18.2558 12.7755 17.7779 11.9465 17.237 11.2973C16.7416 10.7029 15.9815 10 15 10C14.0185 10 13.2584 10.7029 12.763 11.2973C12.2221 11.9465 11.7442 12.7755 11.3556 13.5528C11.1728 13.9183 11.0049 14.2824 10.8548 14.6257C10.2782 13.8664 9.33756 13 8 13C7.19352 13 6.53655 13.3651 6.04677 13.7962C5.56155 14.2233 5.18385 14.7621 4.90206 15.2495C4.61635 15.7436 4.40367 16.2299 4.26321 16.588C4.07125 17.0774 4 17.4813 4 18ZM12.0316 17.0785C12.0875 16.9218 12.1702 16.6963 12.2758 16.4249C12.4877 15.8799 12.7878 15.1604 13.1444 14.4472C13.5058 13.7245 13.9029 13.0535 14.2995 12.5776C14.7416 12.047 14.9815 11.9999 15 11.9999C15.0185 11.9999 15.2584 12.047 15.7005 12.5776C16.0971 13.0535 16.4942 13.7245 16.8556 14.4472C17.2122 15.1604 17.5123 15.8799 17.7242 16.4249C17.9433 16.9882 18 17.3968 18 17.9999C18 19.1045 17.1046 19.9999 16 19.9999H8C6.89543 19.9999 6 19.1045 6 17.9999C6 17.3791 6.33061 16.7743 6.63347 16.2505C6.8576 15.8629 7.10787 15.5266 7.36821 15.2974C7.62398 15.0723 7.83017 14.9999 8 14.9999C8.46913 14.9999 8.95822 15.365 9.41795 16.0546C9.62753 16.369 9.78898 16.6905 9.89869 16.9373C9.95403 17.0619 10.0064 17.1881 10.0515 17.3167C10.0592 17.3397 10.0675 17.3621 10.0765 17.384C10.1039 17.4487 10.1556 17.5515 10.2415 17.6548C10.4355 17.8812 10.7178 17.9999 11 18C11.2769 18.0001 11.5538 17.886 11.7473 17.6679C11.8424 17.5573 11.898 17.4453 11.9258 17.3784C11.9339 17.3582 11.9416 17.3375 11.9486 17.3164C11.9486 17.3164 12.0023 17.1606 12.0316 17.0785Z" fill="black"/>
</svg>
