<svg width="24" height="24" viewBox="0 0 24 24" fill="none" xmlns="http://www.w3.org/2000/svg">
<path fill-rule="evenodd" clip-rule="evenodd" d="M8 4C6.89543 4 6 4.89543 6 6V18C6 19.1046 6.89543 20 8 20H16C17.1046 20 18 19.1046 18 18V10H20V18C20 20.2091 18.2091 22 16 22H8C5.79086 22 4 20.2091 4 18V6C4 3.79086 5.79086 2 8 2H12V4H8Z" fill="black" fill-opacity="0.4"/>
<path fill-rule="evenodd" clip-rule="evenodd" d="M14 6V4.10002C15.9591 4.4977 17.5023 6.04087 17.9 8H16C14.8954 8 14 7.10457 14 6ZM20 9V10H16C13.7909 10 12 8.20914 12 6V2H13C16.866 2 20 5.13401 20 9ZM11.4061 12.406C11.5121 12.141 11.7591 12 12.0001 12C12.2411 12 12.4881 12.141 12.5941 12.406L13.6881 15.156L14.7811 12.406C14.9111 12.082 15.3011 11.933 15.6251 12.062C15.9491 12.192 16.0981 12.551 15.9691 12.875L14.2811 17.094C14.0691 17.624 13.3061 17.624 13.0941 17.094L12.0001 14.312L10.9061 17.094C10.6941 17.624 9.93112 17.624 9.71912 17.094L8.03114 12.875C7.90214 12.551 8.05113 12.192 8.37513 12.062C8.69913 11.933 9.08912 12.082 9.21912 12.406L10.3121 15.156L11.4061 12.406Z" fill="black"/>
</svg>
