<svg width="24" height="24" viewBox="0 0 24 24" fill="none" xmlns="http://www.w3.org/2000/svg">
<path fill-rule="evenodd" clip-rule="evenodd" d="M8 4C6.89543 4 6 4.89543 6 6V18C6 19.1046 6.89543 20 8 20H16C17.1046 20 18 19.1046 18 18V10H20V18C20 20.2091 18.2091 22 16 22H8C5.79086 22 4 20.2091 4 18V6C4 3.79086 5.79086 2 8 2H12V4H8Z" fill="black" fill-opacity="0.4"/>
<path fill-rule="evenodd" clip-rule="evenodd" d="M13.9858 6V4.10002C15.9496 4.4977 17.4964 6.04087 17.895 8H15.9905C14.8834 8 13.9858 7.10457 13.9858 6ZM20 9V10H15.9905C13.7762 10 11.9811 8.20914 11.9811 6V2H12.9834C16.8586 2 20 5.13401 20 9ZM8 15.3429C8 13.9449 8.73775 12.9989 10.0358 12.9989C11.3419 12.9989 12.0405 13.9379 12.0405 15.3429V15.6549C12.0405 16.9859 11.3569 17.9989 10.0047 17.9989C8.69865 17.9989 8 17.0529 8 15.6549V15.3429ZM12.667 13.8429C12.8645 13.7119 13.7155 13.1919 13.92 13.0929H15.0166V17.9049H13.92V14.0299H13.8578C13.7185 14.1009 12.8484 14.6329 12.667 14.7489V13.8429ZM10.945 15.3429C10.944 14.3409 10.5851 13.8429 10.0358 13.8429C9.48752 13.8429 9.12766 14.3369 9.12766 15.3429V15.6549C9.12766 16.6609 9.48752 17.1549 10.0358 17.1549C10.5851 17.1549 10.945 16.6569 10.945 15.6549V15.3429Z" fill="black"/>
</svg>
