<svg width="24" height="24" viewBox="0 0 24 24" fill="none" xmlns="http://www.w3.org/2000/svg">
<path fill-rule="evenodd" clip-rule="evenodd" d="M4 6C4 3.79086 5.79086 2 8 2H16C18.2091 2 20 3.79086 20 6V18C20 20.2091 18.2091 22 16 22H8C5.79086 22 4 20.2091 4 18V6Z" fill="black" fill-opacity="0.4"/>
<path fill-rule="evenodd" clip-rule="evenodd" d="M9.48051 8C10.308 8 10.9788 7.32843 10.9788 6.5C10.9788 5.67157 10.308 5 9.48051 5C8.65305 5 7.98226 5.67157 7.98226 6.5C7.98226 7.32843 8.65305 8 9.48051 8ZM11.7871 10.9989C12.4173 9.76085 13.0386 8.99885 14.0035 8.99885C14.9923 8.99885 15.6366 9.76886 16.2818 11.0609C16.4616 11.4199 16.6035 11.7769 16.7503 12.1549C16.8234 12.3445 16.8792 12.5113 16.9172 12.6247C16.9249 12.6477 16.9318 12.6685 16.9381 12.6868C17.1528 13.3339 16.6834 13.9989 16.0012 13.9989H8.01045C7.26831 13.9989 6.77288 13.2269 7.1055 12.5609C7.25432 12.2629 7.50006 11.8369 7.82268 11.4049C8.46793 10.5449 9.18708 10.0079 10.0081 9.99885C10.8282 9.98985 11.2557 10.4159 11.7871 10.9989ZM7.01161 16.9989C7.01161 16.4469 7.45909 15.9989 8.01045 15.9989H16.0012C16.5525 15.9989 17 16.4469 17 16.9989C17 17.5509 16.5525 17.9989 16.0012 17.9989H8.01045C7.45909 17.9989 7.01161 17.5509 7.01161 16.9989Z" fill="black"/>
</svg>
