<svg width="24" height="24" viewBox="0 0 24 24" fill="none" xmlns="http://www.w3.org/2000/svg">
<path fill-rule="evenodd" clip-rule="evenodd" d="M8 4C6.89543 4 6 4.89543 6 6V18C6 19.1046 6.89543 20 8 20H16C17.1046 20 18 19.1046 18 18V10H20V18C20 20.2091 18.2091 22 16 22H8C5.79086 22 4 20.2091 4 18V6C4 3.79086 5.79086 2 8 2H12V4H8Z" fill="black" fill-opacity="0.4"/>
<path fill-rule="evenodd" clip-rule="evenodd" d="M14 6V4.10002C15.9591 4.4977 17.5023 6.04087 17.9 8H16C14.8954 8 14 7.10457 14 6ZM20 9V10H16C13.7909 10 12 8.20914 12 6V2H13C16.866 2 20 5.13401 20 9ZM8.01045 7C8.01045 6.448 8.45793 6 9.00929 6C9.56065 6 10.0081 6.448 10.0081 7C10.0081 7.552 9.56065 7.99999 9.00929 7.99999C8.45793 7.99999 8.01045 7.552 8.01045 7ZM7.82268 11.406C8.46793 10.546 9.15412 9.99999 10.0081 9.99999C10.8621 9.99999 11.5823 10.57 12.2725 11.555C12.8278 11.225 13.3083 10.993 14.0035 11C14.6987 11.007 15.297 11.253 15.9143 11.665C16.2569 11.894 16.5266 12.122 16.6944 12.29C17.3236 12.92 16.8911 14 16.0012 14H8.01045C7.26831 14 6.77288 13.227 7.1055 12.562C7.25432 12.264 7.50006 11.838 7.82268 11.406ZM7.01161 17C7.01161 16.448 7.45909 16 8.01045 16H16.0012C16.5525 16 17 16.448 17 17C17 17.552 16.5525 18 16.0012 18H8.01045C7.45909 18 7.01161 17.552 7.01161 17Z" fill="black"/>
</svg>
