<svg width="24" height="24" viewBox="0 0 24 24" fill="none" xmlns="http://www.w3.org/2000/svg">
<path d="M8 1.9989C5.791 1.9989 4 3.7899 4 5.9989V17.9989C4 20.2079 5.791 21.9989 8 21.9989H16C18.209 21.9989 20 20.2079 20 17.9989V5.9989C20 3.7899 18.209 1.9989 16 1.9989H8ZM8 3.9989H16C17.105 3.9989 18 4.8939 18 5.9989V17.9989C18 19.1039 17.105 19.9989 16 19.9989H8C6.895 19.9989 6 19.1039 6 17.9989V5.9989C6 4.8939 6.895 3.9989 8 3.9989Z" fill="black" fill-opacity="0.4"/>
<path d="M10.0076 9C9.75261 9 9.48664 9.08584 9.29138 9.28047C8.90287 9.67072 8.90287 10.3255 9.29138 10.7157L10.5675 11.9943L9.29138 13.2728C8.90287 13.6631 8.90287 14.3178 9.29138 14.7081C9.68089 15.0973 10.3344 15.0973 10.7239 14.7081L12 13.4295L13.2761 14.7081C13.6656 15.0973 14.3191 15.0973 14.7086 14.7081C15.0971 14.3178 15.0971 13.6631 14.7086 13.2728L13.4325 11.9943L14.7086 10.7157C15.0971 10.3255 15.0971 9.67072 14.7086 9.28047C14.5134 9.08584 14.2474 9 13.9924 9C13.7373 9 13.4714 9.08584 13.2761 9.28047L12 10.559L10.7239 9.28047C10.5286 9.08584 10.2627 9 10.0076 9Z" fill="black"/>
</svg>
