<svg width="24" height="24" viewBox="0 0 24 24" fill="none" xmlns="http://www.w3.org/2000/svg">
<path d="M8 1.9989C5.7909 1.9989 4 3.7899 4 5.9989V17.9989C4 20.2079 5.7909 21.9989 8 21.9989H16C18.2091 21.9989 20 20.2079 20 17.9989V5.9989C20 3.7899 18.2091 1.9989 16 1.9989H8ZM8 3.9989H16C17.1046 3.9989 18 4.8939 18 5.9989V17.9989C18 19.1039 17.1046 19.9989 16 19.9989H8C6.8954 19.9989 6 19.1039 6 17.9989V5.9989C6 4.8939 6.8954 3.9989 8 3.9989Z" fill="black"/>
<path d="M8 4H16C17.1046 4 18 4.895 18 6V18C18 19.105 17.1046 20 16 20H8C6.8954 20 6 19.105 6 18V6C6 4.895 6.8954 4 8 4Z" fill="black" fill-opacity="0.4"/>
</svg>
