<svg width="24" height="24" viewBox="0 0 24 24" fill="none" xmlns="http://www.w3.org/2000/svg">
<path fill-rule="evenodd" clip-rule="evenodd" d="M4 5.344C4 3.48 5.61101 2 7.56201 2H12.9996C13.3393 2 13.6733 2.02419 14.0001 2.07095C14 3.05519 14 4.03943 14 5.02366C14.0001 5.51579 14.0001 6.00791 14.0001 6.50003C14.0001 7.32846 14.6716 8.00003 15.5001 8.00003C15.9922 8.00003 16.4843 8.00002 16.9764 8.00001C17.9607 7.99998 18.9449 7.99996 19.9291 8.00003C19.9758 8.32657 20 8.66038 20 8.99984V18.656C20 20.52 18.389 22 16.438 22H7.56201C5.61101 22 4 20.52 4 18.656V5.344Z" fill="black" fill-opacity="0.4"/>
<path fill-rule="evenodd" clip-rule="evenodd" d="M19.9292 8.00003C19.4907 4.93434 17.0658 2.50944 14.0001 2.07092C14 3.05517 14 4.03942 14 5.02366C14.0001 5.51579 14.0001 6.00791 14.0001 6.50003C14.0001 7.32846 14.6716 8.00003 15.5001 8.00003C15.9922 8.00003 16.4843 8.00002 16.9764 8.00001C17.9607 7.99998 18.9449 7.99996 19.9292 8.00003ZM9 7C9 6.448 9.448 6 10 6C10.552 6 11 6.448 11 7C11.552 7 12 7.448 12 8C12 8.552 11.552 9 11 9C11 9.552 10.552 10 10 10C9.448 10 9 9.552 9 9C8.448 9 8 8.552 8 8C8 7.448 8.448 7 9 7ZM8 13C8 12.448 8.448 12 9 12H15C15.552 12 16 12.448 16 13C16 13.552 15.552 14 15 14H9C8.448 14 8 13.552 8 13ZM8 17C8 16.448 8.448 16 9 16H15C15.552 16 16 16.448 16 17C16 17.552 15.552 18 15 18H9C8.448 18 8 17.552 8 17Z" fill="black"/>
</svg>
