<svg width="24" height="24" viewBox="0 0 24 24" fill="none" xmlns="http://www.w3.org/2000/svg">
<path fill-rule="evenodd" clip-rule="evenodd" d="M4 6C4 3.79086 5.79086 2 8 2H16C18.2091 2 20 3.79086 20 6V18C20 20.2091 18.2091 22 16 22H8C5.79086 22 4 20.2091 4 18V6ZM8 4C6.89543 4 6 4.89543 6 6V18C6 19.1046 6.89543 20 8 20H16C17.1046 20 18 19.1046 18 18V6C18 4.89543 17.1046 4 16 4H8Z" fill="black" fill-opacity="0.4"/>
<path d="M9 6.9989C8.4477 6.9989 8 7.4469 8 7.9989C8 8.4989 8 12.4989 8 12.9989C8 13.5509 8.4477 13.9989 9 13.9989H11V15.9989H10C9.4477 15.9989 9 16.4469 9 16.9989C9 17.5509 9.4477 17.9989 10 17.9989H14C14.5523 17.9989 15 17.5509 15 16.9989C15 16.4469 14.5523 15.9989 14 15.9989H13V13.9989H15C15.5523 13.9989 16 13.5509 16 12.9989V7.9989C16 7.4469 15.5523 6.9989 15 6.9989H9ZM11.2188 8.77991C11.3545 8.70791 11.5429 8.7359 11.75 8.8739L13.25 9.8739C13.6642 10.1499 13.6642 10.5979 13.25 10.8739L11.75 11.8739C11.3358 12.1499 11 11.9659 11 11.4679V9.27991C11 9.03091 11.083 8.85291 11.2188 8.77991Z" fill="black"/>
</svg>
