<svg width="24" height="24" viewBox="0 0 24 24" fill="none" xmlns="http://www.w3.org/2000/svg">
<path fill-rule="evenodd" clip-rule="evenodd" d="M9 6V4.10002C7.04087 4.4977 5.4977 6.04087 5.10002 8H7C8.10457 8 9 7.10457 9 6ZM3 9V10V14C3 16.2091 4.79086 18 7 18H13C15.2091 18 17 16.2091 17 14V6C17 3.79086 15.2091 2 13 2H11H10C6.13401 2 3 5.13401 3 9ZM11 4V6C11 8.20914 9.20914 10 7 10H5V14C5 15.1046 5.89543 16 7 16H13C14.1046 16 15 15.1046 15 14V6C15 4.89543 14.1046 4 13 4H11Z" fill="black"/>
<path fill-rule="evenodd" clip-rule="evenodd" d="M17 6C19.2091 6 21 7.79086 21 10V18C21 20.2091 19.2091 22 17 22H11C8.79086 22 7 20.2091 7 18H9C9 19.1046 9.89543 20 11 20H17C18.1046 20 19 19.1046 19 18V10C19 8.89543 18.1046 8 17 8V6Z" fill="black" fill-opacity="0.4"/>
</svg>
