<svg width="24" height="24" viewBox="0 0 24 24" fill="none" xmlns="http://www.w3.org/2000/svg">
<path fill-rule="evenodd" clip-rule="evenodd" d="M13.438 2C15.389 2 17 3.48 17 5.344V6C19.2091 6 21 7.79086 21 10V18C21 20.2091 19.2091 22 17 22H11C8.79087 22 7.00002 20.2092 7 18H6.56201C4.61101 18 3 16.52 3 14.656V8.99984C3 8.66038 3.02417 8.32657 3.07087 8.00003L6.02356 8.00001L7.49993 8.00003C8.32835 8.00003 8.99993 7.32846 8.99993 6.50003L8.99996 5.02366L8.99993 2.07095C9.32668 2.02419 9.66071 2 10.0004 2H13.438ZM9 18C9.00002 19.1046 9.89544 20 11 20H17C18.1046 20 19 19.1046 19 18V10C19 8.89543 18.1046 8 17 8V14.656C17 16.52 15.389 18 13.438 18H9Z" fill="black" fill-opacity="0.4"/>
<path d="M8.99993 2.07092C5.93424 2.50944 3.50933 4.93434 3.07082 8.00003C4.54719 7.99992 6.02356 8.00003 7.49993 8.00003C8.32835 8.00003 8.99993 7.32846 8.99993 6.50003C8.99993 5.02366 9.00009 3.54729 8.99993 2.07092Z" fill="black"/>
</svg>
