<svg width="24" height="24" viewBox="0 0 24 24" fill="none" xmlns="http://www.w3.org/2000/svg">
<path d="M7.9978 2C5.7887 2 3.9978 3.7909 3.9978 6V18C3.9978 20.2091 5.7887 22 7.9978 22H15.9978C18.2068 22 19.9978 20.2091 19.9978 18V6C19.9978 3.7909 18.2068 2 15.9978 2H7.9978Z" fill="black" fill-opacity="0.4"/>
<path d="M12 6.9989C11.448 6.9989 11 7.4469 11 7.9989V8.9989H10C9.448 8.9989 9 9.44691 9 9.99891C9 10.5509 9.448 10.9989 10 10.9989H11V11.9989C11 12.5509 11.448 12.9989 12 12.9989C12.552 12.9989 13 12.5509 13 11.9989V10.9989H14C14.552 10.9989 15 10.5509 15 9.99891C15 9.44691 14.552 8.9989 14 8.9989H13V7.9989C13 7.4469 12.552 6.9989 12 6.9989ZM10 14.9989C9.448 14.9989 9 15.4469 9 15.9989C9 16.5509 9.448 16.9989 10 16.9989H14C14.552 16.9989 15 16.5509 15 15.9989C15 15.4469 14.552 14.9989 14 14.9989H10Z" fill="black"/>
</svg>
