<svg width="24" height="24" viewBox="0 0 24 24" fill="none" xmlns="http://www.w3.org/2000/svg">
<path fill-rule="evenodd" clip-rule="evenodd" d="M4 5.34399C4 3.47999 5.611 2 7.562 2H13C16.561 2 20 5.40599 20 8.96899V18.656C20 20.52 18.389 22 16.437 22H7.562C5.611 22 4 20.52 4 18.656V5.34399ZM12 9C11.4477 9 11 9.44772 11 10V12H13V10C13 9.44772 12.5523 9 12 9Z" fill="black" fill-opacity="0.4"/>
<path d="M12 7C10.343 7 9 8.343 9 10C9 10 9 11.973 9.009 12.084C8.421 12.287 8 12.843 8 13.5V16.5C8 17.328 8.672 18 9.5 18H14.5C15.328 18 16 17.328 16 16.5V13.5C16 12.843 15.591 12.298 15.003 12.095C14.982 11.973 15 10 15 10C15 8.343 13.657 7 12 7ZM12 9C12.552 9 13 9.448 13 10V12H11V10C11 9.448 11.448 9 12 9ZM10 14H14V16H10V14Z" fill="black"/>
</svg>
