<svg width="24" height="24" viewBox="0 0 24 24" fill="none" xmlns="http://www.w3.org/2000/svg">
<path fill-rule="evenodd" clip-rule="evenodd" d="M4 5.344C4 3.48 5.61101 2 7.56201 2H12.9996C13.3393 2 13.6733 2.02419 14.0001 2.07095C14 3.05519 14 4.03943 14 5.02366C14.0001 5.51579 14.0001 6.00791 14.0001 6.50003C14.0001 7.32846 14.6716 8.00003 15.5001 8.00003C15.9922 8.00003 16.4843 8.00002 16.9764 8.00001C17.9607 7.99998 18.9449 7.99996 19.9291 8.00003C19.9758 8.32657 20 8.66038 20 8.99984V18.656C20 20.52 18.389 22 16.438 22H7.56201C5.61101 22 4 20.52 4 18.656V5.344Z" fill="black" fill-opacity="0.4"/>
<path fill-rule="evenodd" clip-rule="evenodd" d="M19.9292 8.00003C19.4907 4.93434 17.0658 2.50944 14.0001 2.07092C14 3.05517 14 4.03942 14 5.02366C14.0001 5.51579 14.0001 6.00791 14.0001 6.50003C14.0001 7.32846 14.6716 8.00003 15.5001 8.00003C15.9922 8.00003 16.4843 8.00002 16.9764 8.00001C17.9607 7.99998 18.9449 7.99996 19.9292 8.00003ZM11.4213 12.406C11.5273 12.141 11.7743 12 12.0153 12C12.2563 12 12.5033 12.141 12.6093 12.406L13.7033 15.156L14.7963 12.406C14.9263 12.082 15.3163 11.933 15.6403 12.062C15.9643 12.192 16.1133 12.551 15.9843 12.875L14.2963 17.094C14.0843 17.624 13.3213 17.624 13.1093 17.094L12.0153 14.312L10.9213 17.094C10.7093 17.624 9.94626 17.624 9.73426 17.094L8.04627 12.875C7.91727 12.551 8.06627 12.192 8.39027 12.062C8.71427 11.933 9.10426 12.082 9.23426 12.406L10.3273 15.156L11.4213 12.406Z" fill="black"/>
</svg>
