<svg width="24" height="24" viewBox="0 0 24 24" fill="none" xmlns="http://www.w3.org/2000/svg">
<path d="M5 17C4.4477 17 4 17.448 4 18C4 20.209 5.7909 22 8 22H16C18.2091 22 20 20.209 20 18C20 17.448 19.5523 17 19 17C18.4477 17 18 17.448 18 18C18 19.105 17.1046 20 16 20H8C6.8954 20 6 19.105 6 18C6 17.448 5.5523 17 5 17Z" fill="black" fill-opacity="0.4"/>
<path d="M8 1.9989C5.7909 1.9989 4 3.7899 4 5.99891V12.9989H3C2.4477 12.9989 2 13.4469 2 13.9989C2 14.5509 2.4477 14.9989 3 14.9989H21C21.5523 14.9989 22 14.5509 22 13.9989C22 13.4469 21.5523 12.9989 21 12.9989H20V5.99891C20 3.7899 18.2091 1.9989 16 1.9989H8ZM8 3.9989H16C17.1046 3.9989 18 4.89391 18 5.99891V12.9989H6V5.99891C6 4.89391 6.8954 3.9989 8 3.9989Z" fill="black"/>
</svg>
