<svg width="24" height="24" viewBox="0 0 24 24" fill="none" xmlns="http://www.w3.org/2000/svg">
<path fill-rule="evenodd" clip-rule="evenodd" d="M8 2C5.79086 2 4 3.79086 4 6V18C4 20.2091 5.79086 22 8 22H16C18.2091 22 20 20.2091 20 18V6C20 3.79086 18.2091 2 16 2H8ZM11.75 8.875C11.5429 8.737 11.3545 8.70901 11.2188 8.78101C11.083 8.85401 11 9.03201 11 9.28101V11.469C11 11.967 11.3358 12.151 11.75 11.875L13.25 10.875C13.6642 10.599 13.6642 10.151 13.25 9.875L11.75 8.875Z" fill="black" fill-opacity="0.4"/>
<path d="M9 6.9989C8.4477 6.9989 8 7.4469 8 7.9989C8 8.4989 8 12.4989 8 12.9989C8 13.5509 8.4477 13.9989 9 13.9989H11V15.9989H10C9.4477 15.9989 9 16.4469 9 16.9989C9 17.5509 9.4477 17.9989 10 17.9989H14C14.5523 17.9989 15 17.5509 15 16.9989C15 16.4469 14.5523 15.9989 14 15.9989H13V13.9989H15C15.5523 13.9989 16 13.5509 16 12.9989V7.9989C16 7.4469 15.5523 6.9989 15 6.9989H9ZM11.2188 8.77991C11.3545 8.70791 11.5429 8.7359 11.75 8.8739L13.25 9.8739C13.6642 10.1499 13.6642 10.5979 13.25 10.8739L11.75 11.8739C11.3358 12.1499 11 11.9659 11 11.4679V9.27991C11 9.03091 11.083 8.85291 11.2188 8.77991Z" fill="black"/>
</svg>
