<svg width="24" height="24" viewBox="0 0 24 24" fill="none" xmlns="http://www.w3.org/2000/svg">
<path fill-rule="evenodd" clip-rule="evenodd" d="M4 5.344C4 3.48 5.61101 2 7.56201 2H12.9996C13.3393 2 13.6733 2.02419 14.0001 2.07095C14 3.05519 14 4.03943 14 5.02366C14.0001 5.51579 14.0001 6.00791 14.0001 6.50003C14.0001 7.32846 14.6716 8.00003 15.5001 8.00003C15.9922 8.00003 16.4843 8.00002 16.9764 8.00001C17.9607 7.99998 18.9449 7.99996 19.9291 8.00003C19.9758 8.32657 20 8.66038 20 8.99984V18.656C20 20.52 18.389 22 16.438 22H7.56201C5.61101 22 4 20.52 4 18.656V5.344Z" fill="black" fill-opacity="0.4"/>
<path fill-rule="evenodd" clip-rule="evenodd" d="M19.9292 8.00003C19.4907 4.93434 17.0658 2.50944 14.0001 2.07092C14 3.05517 14 4.03942 14 5.02366C14.0001 5.51579 14.0001 6.00791 14.0001 6.50003C14.0001 7.32846 14.6716 8.00003 15.5001 8.00003C15.9922 8.00003 16.4843 8.00002 16.9764 8.00001C17.9607 7.99998 18.9449 7.99996 19.9292 8.00003ZM8.01045 8C8.01045 7.448 8.45793 7 9.00929 7C9.56065 7 10.0081 7.448 10.0081 8C10.0081 8.552 9.56065 8.99999 9.00929 8.99999C8.45793 8.99999 8.01045 8.552 8.01045 8ZM7.82268 12.406C8.46793 11.546 9.15412 11 10.0081 11C10.8621 11 11.5823 11.57 12.2725 12.555C12.8278 12.225 13.3083 11.993 14.0035 12C14.6987 12.007 15.297 12.253 15.9143 12.665C16.2569 12.894 16.5266 13.122 16.6944 13.29C17.3236 13.92 16.8911 15 16.0012 15H8.01045C7.26831 15 6.77288 14.227 7.1055 13.562C7.25432 13.264 7.50006 12.838 7.82268 12.406ZM7.01161 18C7.01161 17.448 7.45909 17 8.01045 17H16.0012C16.5525 17 17 17.448 17 18C17 18.552 16.5525 19 16.0012 19H8.01045C7.45909 19 7.01161 18.552 7.01161 18Z" fill="black"/>
</svg>
