<svg width="24" height="24" viewBox="0 0 24 24" fill="none" xmlns="http://www.w3.org/2000/svg">
<path d="M5 16.9989C4.448 16.9989 4 17.4469 4 17.9989V18.6549C4 20.5189 5.61101 21.9989 7.56202 21.9989H16.438C18.389 21.9989 20 20.5189 20 18.6549V17.9989C20 17.4469 19.552 16.9989 19 16.9989C18.448 16.9989 18 17.4469 18 17.9989V18.6549C18 19.3689 17.326 19.9989 16.438 19.9989H7.56202C6.67402 19.9989 6 19.3689 6 18.6549V17.9989C6 17.4469 5.552 16.9989 5 16.9989Z" fill="black" fill-opacity="0.4"/>
<path fill-rule="evenodd" clip-rule="evenodd" d="M6 6C6 4.89543 6.89543 4 8 4H12V6C12 8.20914 13.7909 10 16 10H18V13H6V6ZM12 2H8C5.79086 2 4 3.79086 4 6V13H3C2.44772 13 2 13.4477 2 14C2 14.5523 2.44772 15 3 15H21C21.5523 15 22 14.5523 22 14C22 13.4477 21.5523 13 21 13H20V10V9C20 5.13401 16.866 2 13 2H12ZM14 6V4.10002C15.9591 4.4977 17.5023 6.04087 17.9 8H16C14.8954 8 14 7.10457 14 6Z" fill="black"/>
</svg>
