<svg width="24" height="24" viewBox="0 0 24 24" fill="none" xmlns="http://www.w3.org/2000/svg">
<path fill-rule="evenodd" clip-rule="evenodd" d="M8 4C6.89543 4 6 4.89543 6 6V18C6 19.1046 6.89543 20 8 20H16C17.1046 20 18 19.1046 18 18V10H20V18C20 20.2091 18.2091 22 16 22H8C5.79086 22 4 20.2091 4 18V6C4 3.79086 5.79086 2 8 2H12V4H8Z" fill="black" fill-opacity="0.4"/>
<path fill-rule="evenodd" clip-rule="evenodd" d="M13.9908 6V4.10002C15.9529 4.4977 17.4985 6.04087 17.8968 8H15.9939C14.8876 8 13.9908 7.10457 13.9908 6ZM20 9V10H15.9939C13.7813 10 11.9877 8.20914 11.9877 6V2H12.9893C16.8612 2 20 5.13401 20 9ZM9.29183 12.2794C9.48638 12.0847 9.75376 11.9989 10.0092 11.9989C10.2646 11.9989 10.531 12.0847 10.7265 12.2794L12.0046 13.5579L13.2827 12.2794C13.4782 12.0847 13.7446 11.9989 14 11.9989C14.2554 11.9989 14.5218 12.0847 14.7174 12.2794C15.1065 12.6696 15.1065 13.3244 14.7174 13.7146L13.4393 14.9932L14.7174 16.2717C15.1065 16.662 15.1065 17.3167 14.7174 17.707C14.3273 18.0962 13.6728 18.0962 13.2827 17.707L12.0046 16.4284L10.7265 17.707C10.3364 18.0962 9.68194 18.0962 9.29183 17.707C8.90272 17.3167 8.90272 16.662 9.29183 16.2717L10.5699 14.9932L9.29183 13.7146C8.90272 13.3244 8.90272 12.6696 9.29183 12.2794Z" fill="black"/>
</svg>
