<svg width="24" height="24" viewBox="0 0 24 24" fill="none" xmlns="http://www.w3.org/2000/svg">
<path fill-rule="evenodd" clip-rule="evenodd" d="M4 5.9989C4 3.7899 5.7909 1.9989 8 1.9989H16C18.2091 1.9989 20 3.7899 20 5.9989V17.9989C20 20.2079 18.2091 21.9989 16 21.9989H8C5.7909 21.9989 4 20.2079 4 17.9989V5.9989ZM12.4717 12C13.3001 12 13.9717 11.3284 13.9717 10.5C13.9717 9.67157 13.3001 9 12.4717 9C11.6433 9 10.9717 9.67157 10.9717 10.5C10.9717 11.3284 11.6433 12 12.4717 12Z" fill="black" fill-opacity="0.4"/>
<path d="M10 6.99878C9.448 6.99878 9 7.44678 9 7.99878V16.9988C9 17.5508 9.448 17.9988 10 17.9988C10.552 17.9988 11 17.5508 11 16.9988V13.6238C11.457 13.8428 11.96 13.9988 12.5 13.9988C14.433 13.9988 16 12.4318 16 10.4988C16 8.56578 14.433 6.99878 12.5 6.99878C11.878 6.99878 11.319 7.21378 10.812 7.49878C10.637 7.21178 10.361 6.99878 10 6.99878ZM12.5 8.99879C13.328 8.99879 14 9.67079 14 10.4988C14 11.3268 13.328 11.9988 12.5 11.9988C11.672 11.9988 11 11.3268 11 10.4988C11 9.67079 11.672 8.99879 12.5 8.99879Z" fill="black"/>
</svg>
