<svg width="24" height="24" viewBox="0 0 24 24" fill="none" xmlns="http://www.w3.org/2000/svg">
<path fill-rule="evenodd" clip-rule="evenodd" d="M3 7C3 4.79086 4.79086 3 7 3H13C15.2091 3 17 4.79086 17 7V17C17 19.2091 15.2091 21 13 21H7C4.79086 21 3 19.2091 3 17V7ZM7 5C5.89543 5 5 5.89543 5 7V17C5 18.1046 5.89543 19 7 19H13C14.1046 19 15 18.1046 15 17V7C15 5.89543 14.1046 5 13 5H7Z" fill="black"/>
<path fill-rule="evenodd" clip-rule="evenodd" d="M21 17C21 19.2091 19.2091 21 17 21H13C14.4806 21 15.7733 20.1956 16.4649 19H17C18.1046 19 19 18.1046 19 17V7C19 5.89543 18.1046 5 17 5H16.4649C15.7733 3.8044 14.4806 3 13 3H17C19.2091 3 21 4.79086 21 7V17ZM5 7C5 5.89543 5.89543 5 7 5H13C14.1046 5 15 5.89543 15 7V17C15 18.1046 14.1046 19 13 19H7C5.89543 19 5 18.1046 5 17V7Z" fill="black" fill-opacity="0.4"/>
</svg>
