<svg width="24" height="24" viewBox="0 0 24 24" fill="none" xmlns="http://www.w3.org/2000/svg">
<path fill-rule="evenodd" clip-rule="evenodd" d="M8 4C6.89543 4 6 4.89543 6 6V18C6 19.1046 6.89543 20 8 20H16C17.1046 20 18 19.1046 18 18V10H20V18C20 20.2091 18.2091 22 16 22H8C5.79086 22 4 20.2091 4 18V6C4 3.79086 5.79086 2 8 2H12V4H8Z" fill="black" fill-opacity="0.4"/>
<path fill-rule="evenodd" clip-rule="evenodd" d="M14 4.10002V6C14 7.10457 14.8954 8 16 8H17.9C17.5023 6.04087 15.9591 4.4977 14 4.10002ZM20 10V9C20 5.13401 16.866 2 13 2H12V6C12 8.20914 13.7909 10 16 10H20Z" fill="black"/>
</svg>
