<svg width="24" height="24" viewBox="0 0 24 24" fill="none" xmlns="http://www.w3.org/2000/svg">
<path fill-rule="evenodd" clip-rule="evenodd" d="M8 4C6.89543 4 6 4.89543 6 6V18C6 19.1046 6.89543 20 8 20H16C17.1046 20 18 19.1046 18 18V10H20V18C20 20.2091 18.2091 22 16 22H8C5.79086 22 4 20.2091 4 18V6C4 3.79086 5.79086 2 8 2H12V4H8Z" fill="black" fill-opacity="0.4"/>
<path fill-rule="evenodd" clip-rule="evenodd" d="M13.9845 6V4.10002C15.9487 4.4977 17.4959 6.04087 17.8946 8H15.9897C14.8823 8 13.9845 7.10457 13.9845 6ZM20 9V10H15.9897C13.7748 10 11.9794 8.20914 11.9794 6V2H12.9819C16.8579 2 20 5.13401 20 9ZM9 12.7489C9 12.3349 9.33687 11.9989 9.75194 11.9989H14.2636C14.6786 11.9989 15.0155 12.3349 15.0155 12.7489C15.0155 13.1629 14.6786 13.4989 14.2636 13.4989H12.7597V17.2489C12.7597 17.6629 12.4228 17.9989 12.0077 17.9989C11.5927 17.9989 11.2558 17.6629 11.2558 17.2489V13.4989H9.75194C9.33687 13.4989 9 13.1629 9 12.7489Z" fill="black"/>
</svg>
