<svg width="24" height="24" viewBox="0 0 24 24" fill="none" xmlns="http://www.w3.org/2000/svg">
<path fill-rule="evenodd" clip-rule="evenodd" d="M16 4C17.1046 4 18 4.89543 18 6V18C18 19.1046 17.1046 20 16 20H8C6.89543 20 6 19.1046 6 18V10H4V18C4 20.2091 5.79086 22 8 22H16C18.2091 22 20 20.2091 20 18V6C20 3.79086 18.2091 2 16 2H12V4H16Z" fill="black" fill-opacity="0.4"/>
<path fill-rule="evenodd" clip-rule="evenodd" d="M10 6V4.10002C8.04087 4.4977 6.4977 6.04087 6.10002 8H8C9.10457 8 10 7.10457 10 6ZM4 9V10H8C10.2091 10 12 8.20914 12 6V2H11C7.13401 2 4 5.13401 4 9ZM12.0283 10.9989C12.0283 9.9989 13.0283 8.9989 14.0283 8.9989H16.0283V10.9989H14.0283V14.9989C14.0283 15.2809 14.0073 15.5209 13.9343 15.7799C13.5793 17.0409 12.4023 17.9989 11.0283 17.9989C9.37132 17.9989 8.02832 16.6559 8.02832 14.9989C8.02832 13.3419 9.37132 11.9989 11.0283 11.9989C11.4173 11.9989 11.7043 12.0489 12.0283 12.1549V10.9989ZM12.0283 14.9989C12.0283 14.4469 11.5803 13.9989 11.0283 13.9989C10.4763 13.9989 10.0283 14.4469 10.0283 14.9989C10.0283 15.5509 10.4763 15.9989 11.0283 15.9989C11.5803 15.9989 12.0283 15.5509 12.0283 14.9989Z" fill="black"/>
</svg>
