<svg width="24" height="24" viewBox="0 0 24 24" fill="none" xmlns="http://www.w3.org/2000/svg">
<path d="M8 1.9989C5.791 1.9989 4 3.7899 4 5.9989V17.9989C4 20.2079 5.791 21.9989 8 21.9989H16C18.209 21.9989 20 20.2079 20 17.9989V5.9989C20 3.7899 18.209 1.9989 16 1.9989H8Z" fill="black" fill-opacity="0.4"/>
<path d="M8.69626 8.01422C8.26235 8.0861 7.93817 8.51639 8.00999 8.95067L9.06935 15.3143C9.20601 16.1339 10.3661 16.2587 10.6284 15.471L12 11.3837L13.3716 15.471C13.6339 16.2587 14.794 16.1339 14.9306 15.3143L15.99 8.95067C16.0618 8.51639 15.7377 8.0871 15.3037 8.01422C14.8708 7.94234 14.4728 8.2668 14.4 8.70108L13.8703 11.8519L12.7481 8.54436C12.5067 7.81855 11.4933 7.81855 11.2519 8.54436L10.1297 11.8519L9.60001 8.70108C9.52719 8.2668 9.12918 7.94234 8.69626 8.01422Z" fill="black"/>
</svg>
