<svg width="24" height="24" viewBox="0 0 24 24" fill="none" xmlns="http://www.w3.org/2000/svg">
<path fill-rule="evenodd" clip-rule="evenodd" d="M8 4C6.89543 4 6 4.89543 6 6V18C6 19.1046 6.89543 20 8 20H16C17.1046 20 18 19.1046 18 18V10H20V18C20 20.2091 18.2091 22 16 22H8C5.79086 22 4 20.2091 4 18V6C4 3.79086 5.79086 2 8 2H12V4H8Z" fill="black" fill-opacity="0.4"/>
<path fill-rule="evenodd" clip-rule="evenodd" d="M14 6V4.10002C15.9591 4.4977 17.5023 6.04087 17.9 8H16C14.8954 8 14 7.10457 14 6ZM20 9V10H16C13.7909 10 12 8.20914 12 6V2H13C16.866 2 20 5.13401 20 9ZM9 9C9 8.448 9.448 8 10 8C10.552 8 11 8.448 11 9C11.552 9 12 9.448 12 10C12 10.552 11.552 11 11 11C11 11.552 10.552 12 10 12C9.448 12 9 11.552 9 11C8.448 11 8 10.552 8 10C8 9.448 8.448 9 9 9ZM8 14C8 13.448 8.448 13 9 13H15C15.552 13 16 13.448 16 14C16 14.552 15.552 15 15 15H9C8.448 15 8 14.552 8 14ZM8 17C8 16.448 8.448 16 9 16H15C15.552 16 16 16.448 16 17C16 17.552 15.552 18 15 18H9C8.448 18 8 17.552 8 17Z" fill="black"/>
</svg>
