<svg width="24" height="24" viewBox="0 0 24 24" fill="none" xmlns="http://www.w3.org/2000/svg">
<path fill-rule="evenodd" clip-rule="evenodd" d="M8 4C6.89543 4 6 4.89543 6 6V18C6 19.1046 6.89543 20 8 20H16C17.1046 20 18 19.1046 18 18V10H20V18C20 20.2091 18.2091 22 16 22H8C5.79086 22 4 20.2091 4 18V6C4 3.79086 5.79086 2 8 2H12V4H8Z" fill="black" fill-opacity="0.4"/>
<path fill-rule="evenodd" clip-rule="evenodd" d="M13.9923 6V4.10002C15.954 4.4977 17.4991 6.04087 17.8973 8H15.9949C14.8889 8 13.9923 7.10457 13.9923 6ZM20 9V10H15.9949C13.7829 10 11.9898 8.20914 11.9898 6V2H12.991C16.862 2 20 5.13401 20 9ZM9.29046 12.2794C9.48555 12.0847 9.75287 11.9989 10.0085 11.9989C10.2641 11.9989 10.5314 12.0847 10.7265 12.2794C11.1166 12.6696 11.1166 13.3244 10.7265 13.7146L9.44659 14.9932L10.7265 16.2717C11.1166 16.662 11.1166 17.3167 10.7265 17.707C10.3364 18.0962 9.68065 18.0962 9.29046 17.707L7.29257 15.7108C6.90248 15.3205 6.90248 14.6658 7.29257 14.2755L9.29046 12.2794ZM13.2862 12.2794C13.4813 12.0847 13.7487 11.9989 14.0043 11.9989C14.2599 11.9989 14.5272 12.0847 14.7223 12.2794L16.7202 14.2755C17.1103 14.6658 17.1103 15.3205 16.7202 15.7108L14.7223 17.707C14.3321 18.0962 13.6764 18.0962 13.2862 17.707C12.8962 17.3167 12.8962 16.662 13.2862 16.2717L14.5662 14.9932L13.2862 13.7146C12.8962 13.3244 12.8962 12.6696 13.2862 12.2794Z" fill="black"/>
</svg>
