<svg width="24" height="24" viewBox="0 0 24 24" fill="none" xmlns="http://www.w3.org/2000/svg">
<path fill-rule="evenodd" clip-rule="evenodd" d="M4 5.344C4 3.48 5.61101 2 7.56201 2H12.9996C13.3393 2 13.6733 2.02419 14.0001 2.07095C14 3.05519 14 4.03943 14 5.02366C14.0001 5.51579 14.0001 6.00791 14.0001 6.50003C14.0001 7.32846 14.6716 8.00003 15.5001 8.00003C15.9922 8.00003 16.4843 8.00002 16.9764 8.00001C17.9607 7.99998 18.9449 7.99996 19.9291 8.00003C19.9758 8.32657 20 8.66038 20 8.99984V18.656C20 20.52 18.389 22 16.438 22H7.56201C5.61101 22 4 20.52 4 18.656V5.344Z" fill="black" fill-opacity="0.4"/>
<path fill-rule="evenodd" clip-rule="evenodd" d="M19.9292 8.00003C19.4907 4.93434 17.0658 2.50944 14.0001 2.07092C14 3.05517 14 4.03942 14 5.02366C14.0001 5.51579 14.0001 6.00791 14.0001 6.50003C14.0001 7.32846 14.6716 8.00003 15.5001 8.00003C15.9922 8.00003 16.4843 8.00002 16.9764 8.00001C17.9607 7.99998 18.9449 7.99996 19.9292 8.00003ZM9.28753 12.2805C9.48238 12.0858 9.74935 12 10.0047 12C10.26 12 10.5269 12.0858 10.7218 12.2805C11.1114 12.6707 11.1114 13.3255 10.7218 13.7157L9.44347 14.9943L10.7218 16.2728C11.1114 16.6631 11.1114 17.3178 10.7218 17.7081C10.3321 18.0973 9.67722 18.0973 9.28753 17.7081L7.29219 15.7119C6.9026 15.3216 6.9026 14.6669 7.29219 14.2766L9.28753 12.2805ZM13.2782 12.2805C13.4731 12.0858 13.74 12 13.9953 12C14.2506 12 14.5176 12.0858 14.7125 12.2805L16.7078 14.2766C17.0974 14.6669 17.0974 15.3216 16.7078 15.7119L14.7125 17.7081C14.3228 18.0973 13.6679 18.0973 13.2782 17.7081C12.8886 17.3178 12.8886 16.6631 13.2782 16.2728L14.5565 14.9943L13.2782 13.7157C12.8886 13.3255 12.8886 12.6707 13.2782 12.2805Z" fill="black"/>
</svg>
