<svg width="24" height="24" viewBox="0 0 24 24" fill="none" xmlns="http://www.w3.org/2000/svg">
<path fill-rule="evenodd" clip-rule="evenodd" d="M4 5.344C4 3.48 5.61101 2 7.56201 2H12.9996C13.3393 2 13.6733 2.02419 14.0001 2.07095C14 3.05519 14 4.03943 14 5.02366C14.0001 5.51579 14.0001 6.00791 14.0001 6.50003C14.0001 7.32846 14.6716 8.00003 15.5001 8.00003C15.9922 8.00003 16.4843 8.00002 16.9764 8.00001C17.9607 7.99998 18.9449 7.99996 19.9291 8.00003C19.9758 8.32657 20 8.66038 20 8.99984V18.656C20 20.52 18.389 22 16.438 22H7.56201C5.61101 22 4 20.52 4 18.656V5.344Z" fill="black" fill-opacity="0.4"/>
<path fill-rule="evenodd" clip-rule="evenodd" d="M14.0001 2.07092C17.0658 2.50944 19.4907 4.93434 19.9292 8.00003L16.9764 8.00001L15.5001 8.00003C14.6716 8.00003 14.0001 7.32846 14.0001 6.50003L14 5.02366L14.0001 2.07092ZM15 12C15 13.6569 13.6569 15 12 15C10.3431 15 9 13.6569 9 12C9 10.3431 10.3431 9 12 9C13.6569 9 15 10.3431 15 12ZM16.4379 22C16.9912 22 17.5172 21.881 17.9869 21.6679C17.7818 19.0613 15.1797 17 11.9999 17C8.82012 17 6.21806 19.0613 6.01294 21.6679C6.48259 21.881 7.00858 22 7.56193 22H16.4379Z" fill="black"/>
</svg>
