<svg width="24" height="24" viewBox="0 0 24 24" fill="none" xmlns="http://www.w3.org/2000/svg">
<path d="M8 1.9989C5.7909 1.9989 4 3.7899 4 5.9989V17.9989C4 20.2079 5.7909 21.9989 8 21.9989H16C18.2091 21.9989 20 20.2079 20 17.9989V5.9989C20 3.7899 18.2091 1.9989 16 1.9989H8ZM8 3.9989H16C17.1046 3.9989 18 4.8939 18 5.9989V17.9989C18 19.1039 17.1046 19.9989 16 19.9989H8C6.8954 19.9989 6 19.1039 6 17.9989V5.9989C6 4.8939 6.8954 3.9989 8 3.9989Z" fill="black" fill-opacity="0.4"/>
<path fill-rule="evenodd" clip-rule="evenodd" d="M9 6C8.4477 6 8 6.448 8 7C8 7.552 8.4477 8 9 8H15C15.552 8 16 7.552 16 7C16 6.448 15.552 6 15 6H9ZM9 10C8.4477 10 8 10.448 8 11C8 11.552 8.4477 12 9 12H15C15.552 12 16 11.552 16 11C16 10.448 15.552 10 15 10H9ZM8 15C8 14.448 8.4477 14 9 14H12C12.552 14 13 14.448 13 15C13 15.552 12.552 16 12 16H9C8.4477 16 8 15.552 8 15Z" fill="black"/>
</svg>
