<svg width="24" height="24" viewBox="0 0 24 24" fill="none" xmlns="http://www.w3.org/2000/svg">
<path d="M8 1.9989C5.7909 1.9989 4 3.7899 4 5.9989V17.9989C4 20.2079 5.7909 21.9989 8 21.9989H16C18.2091 21.9989 20 20.2079 20 17.9989V5.9989C20 3.7899 18.2091 1.9989 16 1.9989H8Z" fill="black" fill-opacity="0.4"/>
<path d="M9 7C8.4477 7 8 7.448 8 8C8 8.552 8.4477 9 9 9H11V16C11 16.552 11.448 17 12 17C12.552 17 13 16.552 13 16V9H15C15.552 9 16 8.552 16 8C16 7.448 15.552 7 15 7H9Z" fill="black"/>
</svg>
