<svg width="24" height="24" viewBox="0 0 24 24" fill="none" xmlns="http://www.w3.org/2000/svg">
<path fill-rule="evenodd" clip-rule="evenodd" d="M8 4C6.89543 4 6 4.89543 6 6V18C6 19.1046 6.89543 20 8 20H16C17.1046 20 18 19.1046 18 18V10H20V18C20 20.2091 18.2091 22 16 22H8C5.79086 22 4 20.2091 4 18V6C4 3.79086 5.79086 2 8 2H12V4H8Z" fill="black" fill-opacity="0.4"/>
<path fill-rule="evenodd" clip-rule="evenodd" d="M14 6V4.10002C15.9591 4.4977 17.5023 6.04087 17.9 8H16C14.8954 8 14 7.10457 14 6ZM20 9V10H16C13.7909 10 12 8.20914 12 6V2H13C16.866 2 20 5.13401 20 9ZM8 6C8 5.448 8.448 5 9 5H10C10.552 5 11 5.448 11 6C11 6.552 10.552 7.00001 10 7.00001H9C8.448 7.00001 8 6.552 8 6ZM8 9.00001C8 8.44801 8.448 8.00001 9 8.00001H10C10.552 8.00001 11 8.44801 11 9.00001C11 9.55201 10.552 10 10 10H9C8.448 10 8 9.55201 8 9.00001ZM8 12C8 11.448 8.448 11 9 11H10C10.552 11 11 11.448 11 12C11 12.552 10.552 13 10 13H9C8.448 13 8 12.552 8 12ZM8 15C8 14.448 8.448 14 9 14H10C10.552 14 11 14.448 11 15V17C11 17.552 10.552 18 10 18H9C8.448 18 8 17.552 8 17V15Z" fill="black"/>
</svg>
