<svg width="24" height="24" viewBox="0 0 24 24" fill="none" xmlns="http://www.w3.org/2000/svg">
<path d="M8.02832 1.9989C5.81922 1.9989 4.02832 3.7899 4.02832 5.9989V17.9989C4.02832 20.2079 5.81922 21.9989 8.02832 21.9989H16.0283C18.2374 21.9989 20.0283 20.2079 20.0283 17.9989V5.9989C20.0283 3.7899 18.2374 1.9989 16.0283 1.9989H8.02832ZM15 9V14H9V9H15Z" fill="black" fill-opacity="0.4"/>
<path d="M11.996 6C11.5822 6 11.2467 6.33577 11.2467 6.74948V7.99862H9.84195C8.82777 7.99862 8 8.82205 8 9.84135V13.1511C8 13.7816 8.32967 14.3492 8.81168 14.682L8.06244 16.9614C7.93157 17.3542 8.10689 17.7989 8.4995 17.9298C8.8921 18.0597 9.33646 17.8848 9.46732 17.4921L10.3102 14.9938H11.2467V15.9931C11.2467 16.4068 11.5822 16.7426 11.996 16.7426C12.4098 16.7426 12.7452 16.4068 12.7452 15.9931V14.9938H13.6818L14.5246 17.4921C14.6555 17.8848 15.0999 18.0917 15.4925 17.9608C15.8851 17.8299 16.0916 17.3852 15.9608 16.9924L15.1803 14.682C15.6623 14.3492 15.992 13.7816 15.992 13.1511V9.84135C15.992 8.82305 15.1642 7.99862 14.15 7.99862H12.7452V6.74948C12.7452 6.33577 12.4098 6 11.996 6ZM9.84195 9.49759H14.15C14.3314 9.49759 14.4935 9.64548 14.4935 9.84135V13.1511C14.4935 13.3469 14.3314 13.4948 14.15 13.4948H9.84195C9.66053 13.4948 9.49849 13.3469 9.49849 13.1511V9.84135C9.49849 9.64548 9.66053 9.49759 9.84195 9.49759Z" fill="black"/>
</svg>
