<svg width="24" height="24" viewBox="0 0 24 24" fill="none" xmlns="http://www.w3.org/2000/svg">
<path d="M8 1.9989C5.7909 1.9989 4 3.7899 4 5.9989V17.9989C4 20.2079 5.7909 21.9989 8 21.9989H16C18.2091 21.9989 20 20.2079 20 17.9989V5.9989C20 3.7899 18.2091 1.9989 16 1.9989H8ZM8 3.9989H16C17.1046 3.9989 18 4.8939 18 5.9989V17.9989C18 19.1039 17.1046 19.9989 16 19.9989H8C6.8954 19.9989 6 19.1039 6 17.9989V5.9989C6 4.8939 6.8954 3.9989 8 3.9989Z" fill="black" fill-opacity="0.4"/>
<path d="M12 6.99878V11.1548C11.635 11.0418 11.389 10.9988 11 10.9988C9.343 10.9988 8 12.3418 8 13.9988C8 15.6558 9.343 16.9988 11 16.9988C12.374 16.9988 13.52 16.1038 13.875 14.8428C13.948 14.5838 14 14.2818 14 13.9988V8.99878H16V6.99878H12ZM11 12.9988C11.552 12.9988 12 13.4468 12 13.9988C12 14.5508 11.552 14.9988 11 14.9988C10.448 14.9988 10 14.5508 10 13.9988C10 13.4468 10.448 12.9988 11 12.9988Z" fill="black"/>
</svg>
