<svg width="24" height="24" viewBox="0 0 24 24" fill="none" xmlns="http://www.w3.org/2000/svg">
<path fill-rule="evenodd" clip-rule="evenodd" d="M7.56201 2C5.61101 2 4 3.48 4 5.344V18.656C4 20.52 5.61101 22 7.56201 22H16.438C18.389 22 20 20.52 20 18.656V8.99984C20 8.66038 19.9758 8.32657 19.9291 8.00003L16.9764 8.00001L15.5001 8.00003C14.6716 8.00003 14.0001 7.32846 14.0001 6.50003L14 5.02366L14.0001 2.07095C13.6733 2.02419 13.3393 2 12.9996 2H7.56201ZM15 12H9V15H15V12Z" fill="black" fill-opacity="0.4"/>
<path fill-rule="evenodd" clip-rule="evenodd" d="M19.9292 8.00003C19.4907 4.93434 17.0658 2.50944 14.0001 2.07092C14 3.05517 14 4.03942 14 5.02366C14.0001 5.51579 14.0001 6.00791 14.0001 6.50003C14.0001 7.32846 14.6716 8.00003 15.5001 8.00003C15.9922 8.00003 16.4843 8.00002 16.9764 8.00001C17.9607 7.99998 18.9449 7.99996 19.9292 8.00003ZM11.25 10.7471C11.25 10.3347 11.586 10 12 10C12.414 10 12.75 10.3347 12.75 10.7471L12.781 10.9961H15.25C15.664 10.9961 16 11.3308 16 11.7432V15.2297C16 15.6421 15.664 15.9768 15.25 15.9768H15.188L15.656 16.9112C15.842 17.2798 15.714 17.7221 15.344 17.9073C14.973 18.0916 14.529 17.9641 14.344 17.5956L13.531 15.9768H12.75V17.2529C12.75 17.6653 12.414 18 12 18C11.586 18 11.25 17.6653 11.25 17.2529V15.9768H10.469L9.65601 17.5956C9.47101 17.9651 9.02701 18.0916 8.65601 17.9073C8.28601 17.7221 8.15899 17.2798 8.34399 16.9112L8.812 15.9768H8.75C8.336 15.9768 8 15.6421 8 15.2297V11.7432C8 11.3308 8.336 10.9961 8.75 10.9961H11.25V10.7471ZM14.5 14.4826V12.4903H9.5V14.4826H14.5Z" fill="black"/>
</svg>
