<svg width="24" height="24" viewBox="0 0 24 24" fill="none" xmlns="http://www.w3.org/2000/svg">
<path fill-rule="evenodd" clip-rule="evenodd" d="M8 4C6.89543 4 6 4.89543 6 6V18C6 19.1046 6.89543 20 8 20H16C17.1046 20 18 19.1046 18 18V10H20V18C20 20.2091 18.2091 22 16 22H8C5.79086 22 4 20.2091 4 18V6C4 3.79086 5.79086 2 8 2H12V4H8Z" fill="black" fill-opacity="0.4"/>
<path fill-rule="evenodd" clip-rule="evenodd" d="M14 6V4.10002C15.9591 4.4977 17.5023 6.04087 17.9 8H16C14.8954 8 14 7.10457 14 6ZM20 9V10H16C13.7909 10 12 8.20914 12 6V2H13C16.866 2 20 5.13401 20 9ZM11.25 10.7471C11.25 10.3347 11.586 10 12 10C12.414 10 12.75 10.3347 12.75 10.7471L12.781 10.9961H15.25C15.664 10.9961 16 11.3308 16 11.7432V15.2297C16 15.6421 15.664 15.9768 15.25 15.9768H15.188L15.656 16.9112C15.842 17.2798 15.714 17.7221 15.344 17.9073C14.973 18.0916 14.529 17.9641 14.344 17.5956L13.531 15.9768H12.75V17.2529C12.75 17.6653 12.414 18 12 18C11.586 18 11.25 17.6653 11.25 17.2529V15.9768H10.469L9.65601 17.5956C9.47101 17.9651 9.02701 18.0916 8.65601 17.9073C8.28601 17.7221 8.15899 17.2798 8.34399 16.9112L8.812 15.9768H8.75C8.336 15.9768 8 15.6421 8 15.2297V11.7432C8 11.3308 8.336 10.9961 8.75 10.9961H11.25V10.7471ZM14.5 14.4826V12.4903H9.5V14.4826H14.5Z" fill="black"/>
</svg>
