<svg width="24" height="24" viewBox="0 0 24 24" fill="none" xmlns="http://www.w3.org/2000/svg">
<path d="M8 1.9989C5.7909 1.9989 4 3.7899 4 5.9989V17.9989C4 20.2079 5.7909 21.9989 8 21.9989H16C18.2091 21.9989 20 20.2079 20 17.9989V5.9989C20 3.7899 18.2091 1.9989 16 1.9989H8ZM8 3.9989H16C17.1046 3.9989 18 4.8939 18 5.9989V17.9989C18 19.1039 17.1046 19.9989 16 19.9989H8C6.8954 19.9989 6 19.1039 6 17.9989V5.9989C6 4.8939 6.8954 3.9989 8 3.9989Z" fill="black" fill-opacity="0.4"/>
<path fill-rule="evenodd" clip-rule="evenodd" d="M9 10C9 8.34301 10.343 7 12 7C13.657 7 15 8.34301 15 10V12.094C15.541 12.29 16 12.843 16 13.5V16.5001C16 17.3281 15.328 18.0001 14.5 18.0001H9.5C8.672 18.0001 8 17.3281 8 16.5001V13.5C8 12.843 8.464 12.297 9 12.094V10ZM13 10C13 9.44801 12.552 9.00001 12 9.00001C11.448 9.00001 11 9.44801 11 10V12H13V10Z" fill="black"/>
</svg>
