<svg width="40" height="40" viewBox="0 0 40 40" fill="none" xmlns="http://www.w3.org/2000/svg">
<path opacity="0.3" fill-rule="evenodd" clip-rule="evenodd" d="M16 7C12.134 7 9 10.134 9 14V26C9 29.866 12.134 33 16 33H24C27.866 33 31 29.866 31 26V14.2426C31 13.1818 30.5786 12.1644 29.8284 11.4142L26.5858 8.17157C25.8356 7.42143 24.8182 7 23.7574 7H16Z" fill="black"/>
<path d="M24 12V9.01477C24.441 9.06866 24.8541 9.26837 25.1716 9.58579L28.4142 12.8284C28.7316 13.1459 28.9313 13.559 28.9852 14H26C24.8954 14 24 13.1046 24 12Z" fill="black"/>
</svg>
