<svg width="24" height="24" viewBox="0 0 24 24" fill="none" xmlns="http://www.w3.org/2000/svg">
<path fill-rule="evenodd" clip-rule="evenodd" d="M4 6C4 3.79086 5.79086 2 8 2H16C18.2091 2 20 3.79086 20 6V18C20 20.2091 18.2091 22 16 22H8C5.79086 22 4 20.2091 4 18V6ZM8 4C6.89543 4 6 4.89543 6 6V18C6 19.1046 6.89543 20 8 20H16C17.1046 20 18 19.1046 18 18V6C18 4.89543 17.1046 4 16 4H8Z" fill="black" fill-opacity="0.4"/>
<path d="M12 7.99878C11.4477 7.99878 11 8.44678 11 8.99878V10.9988H9C8.4477 10.9988 8 11.4468 8 11.9988C8 12.5508 8.4477 12.9988 9 12.9988H11V14.9988C11 15.5508 11.4477 15.9988 12 15.9988C12.5523 15.9988 13 15.5508 13 14.9988V12.9988H15C15.5523 12.9988 16 12.5508 16 11.9988C16 11.4468 15.5523 10.9988 15 10.9988H13V8.99878C13 8.44678 12.5523 7.99878 12 7.99878Z" fill="black"/>
</svg>
