<svg width="24" height="24" viewBox="0 0 24 24" fill="none" xmlns="http://www.w3.org/2000/svg">
<path fill-rule="evenodd" clip-rule="evenodd" d="M16.438 2C18.389 2 20 3.48 20 5.344V18.656C20 20.52 18.389 22 16.438 22H7.56201C5.61101 22 4 20.52 4 18.656V8.99984C4 8.66038 4.02417 8.32657 4.07087 8.00003L7.02356 8.00001L8.49993 8.00003C9.32835 8.00003 9.99993 7.32846 9.99993 6.50003L9.99996 5.02366L9.99993 2.07095C10.3267 2.02419 10.6607 2 11.0004 2H16.438ZM11 16C11.5523 16 12 15.5523 12 15C12 14.4477 11.5523 14 11 14C10.4477 14 10 14.4477 10 15C10 15.5523 10.4477 16 11 16Z" fill="black" fill-opacity="0.4"/>
<path fill-rule="evenodd" clip-rule="evenodd" d="M4.0708 8.00003C4.50931 4.93434 6.93422 2.50944 9.99991 2.07092C10 3.05517 9.99999 4.03942 9.99995 5.02366C9.99993 5.51579 9.99991 6.00791 9.99991 6.50003C9.99991 7.32846 9.32834 8.00003 8.49991 8.00003C8.00779 8.00003 7.51567 8.00002 7.02354 8.00001C6.03929 7.99998 5.05505 7.99996 4.0708 8.00003ZM12 12.156V9H16V11H14V15C14 15.282 13.979 15.522 13.906 15.781C13.551 17.042 12.374 18 11 18C9.34299 18 7.99999 16.657 7.99999 15C7.99999 13.343 9.34299 12 11 12C11.389 12 11.676 12.05 12 12.156ZM12 15C12 14.448 11.552 14 11 14C10.448 14 9.99999 14.448 9.99999 15C9.99999 15.552 10.448 16 11 16C11.552 16 12 15.552 12 15Z" fill="black"/>
</svg>
