<svg width="24" height="24" viewBox="0 0 24 24" fill="none" xmlns="http://www.w3.org/2000/svg">
<path fill-rule="evenodd" clip-rule="evenodd" d="M8 4C6.89543 4 6 4.89543 6 6V18C6 19.1046 6.89543 20 8 20H16C17.1046 20 18 19.1046 18 18V10H20V18C20 20.2091 18.2091 22 16 22H8C5.79086 22 4 20.2091 4 18V6C4 3.79086 5.79086 2 8 2H12V4H8Z" fill="black" fill-opacity="0.4"/>
<path fill-rule="evenodd" clip-rule="evenodd" d="M14 6V4.10002C15.9591 4.4977 17.5023 6.04087 17.9 8H16C14.8954 8 14 7.10457 14 6ZM20 9V10H16C13.7909 10 12 8.20914 12 6V2H13C16.866 2 20 5.13401 20 9ZM14 13C14 14.1046 13.1046 15 12 15C10.8954 15 10 14.1046 10 13C10 11.8954 10.8954 11 12 11C13.1046 11 14 11.8954 14 13ZM16.7863 19.8395C16.1646 18.1963 14.2569 17 11.9999 17C9.743 17 7.83532 18.1963 7.21362 19.8395C7.45499 19.9428 7.72079 20 7.99995 20H15.9999C16.2791 20 16.5449 19.9428 16.7863 19.8395Z" fill="black"/>
</svg>
