<svg width="24" height="24" viewBox="0 0 24 24" fill="none" xmlns="http://www.w3.org/2000/svg">
<path fill-rule="evenodd" clip-rule="evenodd" d="M8 4C6.89543 4 6 4.89543 6 6V18C6 19.1046 6.89543 20 8 20H16C17.1046 20 18 19.1046 18 18V10H20V18C20 20.2091 18.2091 22 16 22H8C5.79086 22 4 20.2091 4 18V6C4 3.79086 5.79086 2 8 2H12V4H8Z" fill="black" fill-opacity="0.4"/>
<path fill-rule="evenodd" clip-rule="evenodd" d="M13.9717 6V4.10002C15.9308 4.4977 17.474 6.04087 17.8717 8H15.9717C14.8671 8 13.9717 7.10457 13.9717 6ZM20 9V10H15.9717C13.7625 10 11.9717 8.20914 11.9717 6L12 2H13C16.866 2 20 5.13401 20 9ZM11 10.9989C11 10.4469 11.448 9.9989 12 9.9989C12.552 9.9989 13 10.4469 13 10.9989V14.9989H15L12 17.9989L9 14.9989H11V10.9989Z" fill="black"/>
</svg>
