<svg width="24" height="24" viewBox="0 0 24 24" fill="none" xmlns="http://www.w3.org/2000/svg">
<path fill-rule="evenodd" clip-rule="evenodd" d="M8 4C6.89543 4 6 4.89543 6 6V15.5712C5.05504 16.4416 4.03348 18 4.03348 18H4V6C4 3.79086 5.79086 2 8 2H14V4H8ZM20 18V8H18V14.6329C19.1224 16.2447 20 18 20 18Z" fill="black" fill-opacity="0.4"/>
<path fill-rule="evenodd" clip-rule="evenodd" d="M14.0001 2C17.1024 2.44375 19.5562 4.89762 20 7.99993L17.012 7.9999L15.518 7.99993C14.6797 7.99993 14.0001 7.32033 14.0001 6.48201L14 4.98801L14.0001 2ZM11 8.5C11 9.32843 10.3284 10 9.5 10C8.67157 10 8 9.32843 8 8.5C8 7.67157 8.67157 7 9.5 7C10.3284 7 11 7.67157 11 8.5ZM15 12C13 12 10 17 10 17C10 17 8 15 7 15C6 15 4.03348 18 4.03348 18C4.03348 18 3.92875 18.1303 4.08975 18.8623C4.48481 20.6584 6.08391 22 7.99594 22H16.0004C18.2068 22 20 20.2117 20 18C20 18 17 12 15 12Z" fill="black"/>
</svg>
