<svg width="24" height="24" viewBox="0 0 24 24" fill="none" xmlns="http://www.w3.org/2000/svg">
<path fill-rule="evenodd" clip-rule="evenodd" d="M8 4C6.89543 4 6 4.89543 6 6V18C6 19.1046 6.89543 20 8 20H16C17.1046 20 18 19.1046 18 18V10H20V18C20 20.2091 18.2091 22 16 22H8C5.79086 22 4 20.2091 4 18V6C4 3.79086 5.79086 2 8 2H12V4H8Z" fill="black" fill-opacity="0.4"/>
<path fill-rule="evenodd" clip-rule="evenodd" d="M13.983 6.00134V4.10072C15.9477 4.49853 17.4952 6.04222 17.894 8.002H15.9886C14.8809 8.002 13.983 7.10627 13.983 6.00134ZM20 9.00234V10.0027H15.9886C13.7732 10.0027 11.9773 8.21121 11.9773 6.00134V2H12.9801C16.8571 2 20 5.13505 20 9.00234ZM10 11.9996C10 11.6015 10.2259 11.2902 10.5319 11.1266C10.838 10.963 11.2318 10.937 11.5645 11.1575L14.5684 13.153C15.1628 13.5481 15.1628 14.4421 14.5684 14.8372L11.5645 16.8327C10.8991 17.2748 10 16.7879 10 15.9906V11.9996Z" fill="black"/>
</svg>
