<svg width="24" height="24" viewBox="0 0 24 24" fill="none" xmlns="http://www.w3.org/2000/svg">
<path d="M7.9978 2C5.7887 2 3.9978 3.7909 3.9978 6V18C3.9978 20.2091 5.7887 22 7.9978 22H15.9978C18.2069 22 19.9978 20.2091 19.9978 18V6C19.9978 3.7909 18.2069 2 15.9978 2H7.9978Z" fill="black" fill-opacity="0.4"/>
<path d="M9 5C8.4477 5 8 5.4477 8 6C8 6.5523 8.4477 7 9 7H10C10.5523 7 11 6.5523 11 6C11 5.4477 10.5523 5 10 5H9ZM9 8C8.4477 8 8 8.4477 8 9C8 9.5523 8.4477 10 9 10H10C10.5523 10 11 9.5523 11 9C11 8.4477 10.5523 8 10 8H9ZM9 11C8.4477 11 8 11.4477 8 12C8 12.5523 8.4477 13 9 13H10C10.5523 13 11 12.5523 11 12C11 11.4477 10.5523 11 10 11H9ZM9 14C8.4477 14 8 14.4477 8 15V17C8 17.5523 8.4477 18 9 18H10C10.5523 18 11 17.5523 11 17V15C11 14.4477 10.5523 14 10 14H9Z" fill="black"/>
</svg>
