<svg width="24" height="24" viewBox="0 0 24 24" fill="none" xmlns="http://www.w3.org/2000/svg">
<path fill-rule="evenodd" clip-rule="evenodd" d="M7.56201 2C5.61101 2 4 3.48 4 5.344V13H20V8.99984C20 8.66038 19.9758 8.32657 19.9291 8.00003L16.9764 8.00001L15.5001 8.00003C14.6716 8.00003 14.0001 7.32846 14.0001 6.50003L14 5.02366L14.0001 2.07095C13.6733 2.02419 13.3393 2 12.9996 2H7.56201ZM20 17H4V19C4 20.6569 5.34315 22 7 22H17C18.6569 22 20 20.6569 20 19V17Z" fill="black" fill-opacity="0.4"/>
<path fill-rule="evenodd" clip-rule="evenodd" d="M19.9292 8.00003C19.4907 4.93434 17.0658 2.50944 14.0001 2.07092C14 3.05517 14 4.03942 14 5.02366C14.0001 5.51579 14.0001 6.00791 14.0001 6.50003C14.0001 7.32846 14.6716 8.00003 15.5001 8.00003C15.9922 8.00003 16.4843 8.00002 16.9764 8.00001C17.9607 7.99998 18.9449 7.99996 19.9292 8.00003ZM3 13C2.44772 13 2 13.4477 2 14C2 14.5523 2.44772 15 3 15H21C21.5523 15 22 14.5523 22 14C22 13.4477 21.5523 13 21 13H3Z" fill="black"/>
</svg>
