<svg width="24" height="24" viewBox="0 0 24 24" fill="none" xmlns="http://www.w3.org/2000/svg">
<path fill-rule="evenodd" clip-rule="evenodd" d="M8 4C6.89543 4 6 4.89543 6 6V18C6 19.1046 6.89543 20 8 20H16C17.1046 20 18 19.1046 18 18V10H20V18C20 20.2091 18.2091 22 16 22H8C5.79086 22 4 20.2091 4 18V6C4 3.79086 5.79086 2 8 2H12V4H8Z" fill="black" fill-opacity="0.4"/>
<path fill-rule="evenodd" clip-rule="evenodd" d="M17.8943 7.99876C15.7593 7.94637 14.0383 6.22975 13.9857 4.10027C15.9489 4.49826 17.4953 6.04063 17.8943 7.99876ZM20 9V10H17.9948C14.6726 10 11.9794 7.31371 11.9794 4V2H12.9819C16.8579 2 20 5.13401 20 9ZM11.0052 9.9989C11.0052 9.4469 11.4543 8.9989 12.0077 8.9989C12.5612 8.9989 13.0103 9.4469 13.0103 9.9989V10.9989H14.0129C14.5663 10.9989 15.0155 11.4469 15.0155 11.9989C15.0155 12.5509 14.5663 12.9989 14.0129 12.9989H13.0103V13.9989C13.0103 14.5509 12.5612 14.9989 12.0077 14.9989C11.4543 14.9989 11.0052 14.5509 11.0052 13.9989V12.9989H10.0026C9.44886 12.9989 9 12.5509 9 11.9989C9 11.4469 9.44886 10.9989 10.0026 10.9989H11.0052V9.9989ZM9 16.9989C9 16.4469 9.44886 15.9989 10.0026 15.9989H14.0129C14.5663 15.9989 15.0155 16.4469 15.0155 16.9989C15.0155 17.5509 14.5663 17.9989 14.0129 17.9989H10.0026C9.44886 17.9989 9 17.5509 9 16.9989Z" fill="black"/>
</svg>
