<svg width="24" height="24" viewBox="0 0 24 24" fill="none" xmlns="http://www.w3.org/2000/svg">
<path fill-rule="evenodd" clip-rule="evenodd" d="M8 4C6.89543 4 6 4.89543 6 6V18C6 19.1046 6.89543 20 8 20H16C17.1046 20 18 19.1046 18 18V10H20V18C20 20.2091 18.2091 22 16 22H8C5.79086 22 4 20.2091 4 18V6C4 3.79086 5.79086 2 8 2H12V4H8Z" fill="black" fill-opacity="0.4"/>
<path fill-rule="evenodd" clip-rule="evenodd" d="M14 6V4.10002C15.9591 4.4977 17.5023 6.04087 17.9 8H16C14.8954 8 14 7.10457 14 6ZM20 9V10H16C13.7909 10 12 8.20914 12 6V2H13C16.866 2 20 5.13401 20 9ZM9 11C9 10.448 9.448 10 10 10C10.361 10 10.543 10.132 10.688 10.281C11.08 10.093 11.536 10 12 10C13.657 10 15 11.343 15 13C15 14.657 13.657 16 12 16C11.611 16 11.273 15.946 11 15.844V18C11 18.552 10.552 19 10 19C9.448 19 9 18.552 9 18V11ZM13 13C13 12.448 12.552 12 12 12C11.448 12 11 12.448 11 13C11 13.552 11.448 14 12 14C12.552 14 13 13.552 13 13Z" fill="black"/>
</svg>
