<svg width="24" height="24" viewBox="0 0 24 24" fill="none" xmlns="http://www.w3.org/2000/svg">
<path fill-rule="evenodd" clip-rule="evenodd" d="M7.56201 2C5.61101 2 4 3.48 4 5.344V18.656C4 20.52 5.61101 22 7.56201 22H16.438C18.389 22 20 20.52 20 18.656V8.99984C20 8.66038 19.9758 8.32657 19.9291 8.00003L16.9764 8.00001L15.5001 8.00003C14.6716 8.00003 14.0001 7.32846 14.0001 6.50003L14 5.02366L14.0001 2.07095C13.6733 2.02419 13.3393 2 12.9996 2H7.56201ZM12 14C12.5523 14 13 13.5523 13 13C13 12.4477 12.5523 12 12 12C11.4477 12 11 12.4477 11 13C11 13.5523 11.4477 14 12 14Z" fill="black" fill-opacity="0.4"/>
<path fill-rule="evenodd" clip-rule="evenodd" d="M19.9292 8.00003C19.4907 4.93434 17.0658 2.50944 14.0001 2.07092C14 3.05517 14 4.03942 14 5.02366C14.0001 5.51579 14.0001 6.00791 14.0001 6.50003C14.0001 7.32846 14.6716 8.00003 15.5001 8.00003C15.9922 8.00003 16.4843 8.00002 16.9764 8.00001C17.9607 7.99998 18.9449 7.99996 19.9292 8.00003ZM9 11C9 10.448 9.448 10 10 10C10.361 10 10.543 10.132 10.688 10.281C11.08 10.093 11.536 10 12 10C13.657 10 15 11.343 15 13C15 14.657 13.657 16 12 16C11.611 16 11.273 15.946 11 15.844V18C11 18.552 10.552 19 10 19C9.448 19 9 18.552 9 18V11ZM13 13C13 12.448 12.552 12 12 12C11.448 12 11 12.448 11 13C11 13.552 11.448 14 12 14C12.552 14 13 13.552 13 13Z" fill="black"/>
</svg>
