<svg width="24" height="24" viewBox="0 0 24 24" fill="none" xmlns="http://www.w3.org/2000/svg">
<path fill-rule="evenodd" clip-rule="evenodd" d="M4 6C4 3.79086 5.79086 2 8 2H16C18.2091 2 20 3.79086 20 6V18C20 20.2091 18.2091 22 16 22H8C5.79086 22 4 20.2091 4 18V6Z" fill="black" fill-opacity="0.4"/>
<path fill-rule="evenodd" clip-rule="evenodd" d="M12 6C9.79086 6 8 7.79086 8 10C8 12.2091 9.79086 14 12 14C14.2091 14 16 12.2091 16 10C16 7.79086 14.2091 6 12 6ZM10 16C8.56216 16 7.33042 16.6286 6.4694 17.4169C5.64639 18.1704 5 19.2269 5 20.2361V20.6831L5.33309 20.9812C6.0401 21.614 6.97617 22 8 22H16C17.0238 22 17.9599 21.614 18.6669 20.9812L19 20.6831V20.2361C19 19.2183 18.332 18.1611 17.5091 17.4141C16.6469 16.6314 15.4168 16 14 16H10Z" fill="black"/>
</svg>
