<svg width="24" height="24" viewBox="0 0 24 24" fill="none" xmlns="http://www.w3.org/2000/svg">
<path d="M7.562 2C5.611 2 4 3.47999 4 5.34399V18.656C4 20.52 5.611 22 7.562 22H16.437C18.389 22 20 20.52 20 18.656C20 18.003 20 10.798 20 8.96899C20 5.40599 16.561 2 13 2C8.786 2 8.776 2 7.562 2ZM7.562 4C8.776 4 8.786 4 13 4C15.459 4 18 6.51299 18 8.96899C18 10.798 18 18.003 18 18.656C18 19.37 17.326 20 16.437 20H7.562C6.674 20 6 19.37 6 18.656V5.34399C6 4.62999 6.674 4 7.562 4Z" fill="black" fill-opacity="0.4"/>
<path d="M12 7C10.343 7 9 8.343 9 10C9 10 9 11.973 9.009 12.084C8.421 12.287 8 12.843 8 13.5V16.5C8 17.328 8.672 18 9.5 18H14.5C15.328 18 16 17.328 16 16.5V13.5C16 12.843 15.591 12.298 15.003 12.095C14.982 11.973 15 10 15 10C15 8.343 13.657 7 12 7ZM12 9C12.552 9 13 9.448 13 10V12H11V10C11 9.448 11.448 9 12 9ZM10 14H14V16H10V14Z" fill="black"/>
</svg>
