<svg width="24" height="24" viewBox="0 0 24 24" fill="none" xmlns="http://www.w3.org/2000/svg">
<path fill-rule="evenodd" clip-rule="evenodd" d="M4 5.344C4 3.48 5.61101 2 7.56201 2H12.9996C13.3393 2 13.6733 2.02419 14.0001 2.07095C14 3.05519 14 4.03943 14 5.02366C14.0001 5.51579 14.0001 6.00791 14.0001 6.50003C14.0001 7.32846 14.6716 8.00003 15.5001 8.00003C15.9922 8.00003 16.4843 8.00002 16.9764 8.00001C17.9607 7.99998 18.9449 7.99996 19.9291 8.00003C19.9758 8.32657 20 8.66038 20 8.99984V18.656C20 20.52 18.389 22 16.438 22H7.56201C5.61101 22 4 20.52 4 18.656V5.344Z" fill="black" fill-opacity="0.4"/>
<path fill-rule="evenodd" clip-rule="evenodd" d="M19.9292 8.00003C19.4907 4.93434 17.0658 2.50944 14.0001 2.07092C14 3.05517 14 4.03942 14 5.02366C14.0001 5.51579 14.0001 6.00791 14.0001 6.50003C14.0001 7.32846 14.6716 8.00003 15.5001 8.00003C15.9922 8.00003 16.4843 8.00002 16.9764 8.00001C17.9607 7.99998 18.9449 7.99996 19.9292 8.00003ZM7 6C7 5.448 7.448 5 8 5H9C9.552 5 10 5.448 10 6C10 6.552 9.552 7.00001 9 7.00001H8C7.448 7.00001 7 6.552 7 6ZM7 9.00001C7 8.44801 7.448 8.00001 8 8.00001H9C9.552 8.00001 10 8.44801 10 9.00001C10 9.55201 9.552 10 9 10H8C7.448 10 7 9.55201 7 9.00001ZM7 12C7 11.448 7.448 11 8 11H9C9.552 11 10 11.448 10 12C10 12.552 9.552 13 9 13H8C7.448 13 7 12.552 7 12ZM7 15C7 14.448 7.448 14 8 14H9C9.552 14 10 14.448 10 15V17C10 17.552 9.552 18 9 18H8C7.448 18 7 17.552 7 17V15Z" fill="black"/>
</svg>
