<svg width="24" height="24" viewBox="0 0 24 24" fill="none" xmlns="http://www.w3.org/2000/svg">
<path fill-rule="evenodd" clip-rule="evenodd" d="M4 6C4 3.79086 5.79086 2 8 2H16C18.2091 2 20 3.79086 20 6V18C20 20.2091 18.2091 22 16 22H8C5.79086 22 4 20.2091 4 18V6Z" fill="black" fill-opacity="0.4"/>
<path fill-rule="evenodd" clip-rule="evenodd" d="M14 12H10H8H4V14H8V17H4V18C4 18.3453 4.04375 18.6804 4.12602 19H8V22H10V19H14V22H16V19H19.874C19.9562 18.6804 20 18.3453 20 18V17H16V14H20V12H16H14ZM14 14H10V17H14V14Z" fill="black"/>
</svg>
