<svg width="24" height="24" viewBox="0 0 24 24" fill="none" xmlns="http://www.w3.org/2000/svg">
<path fill-rule="evenodd" clip-rule="evenodd" d="M6 6C6 4.89543 6.89543 4 8 4H12V2H8C5.79086 2 4 3.79086 4 6V18C4 20.2091 5.79086 22 8 22H16C18.2091 22 20 20.2091 20 18V10H18V18C18 19.1046 17.1046 20 16 20H8C6.89543 20 6 19.1046 6 18V6ZM8 13C8 12.448 8.4477 12 9 12H15C15.552 12 16 12.448 16 13V17C16 17.552 15.552 18 15 18H9C8.4477 18 8 17.552 8 17V13Z" fill="black" fill-opacity="0.4"/>
<path fill-rule="evenodd" clip-rule="evenodd" d="M14 6V4.10002C15.9591 4.4977 17.5023 6.04087 17.9 8H16C14.8954 8 14 7.10457 14 6ZM20 9V10H16C13.7909 10 12 8.20914 12 6V2H13C16.866 2 20 5.13401 20 9ZM11.75 13.5C11.543 13.362 11.354 13.334 11.219 13.406C11.083 13.479 11 13.657 11 13.906V16.094C11 16.592 11.336 16.776 11.75 16.5L13.25 15.5C13.664 15.224 13.664 14.776 13.25 14.5L11.75 13.5Z" fill="black"/>
</svg>
