<svg width="40" height="40" viewBox="0 0 40 40" fill="none" xmlns="http://www.w3.org/2000/svg">
<path opacity="0.3" fill-rule="evenodd" clip-rule="evenodd" d="M9 14C9 10.134 12.134 7 16 7H23.7574C24.8182 7 25.8356 7.42143 26.5858 8.17157L29.8284 11.4142C30.5786 12.1644 31 13.1818 31 14.2426V26C31 29.866 27.866 33 24 33H16C12.134 33 9 29.866 9 26V14Z" fill="black"/>
<path d="M14 21C13.4477 21 13 21.4477 13 22C13 22.5523 13.4477 23 14 23H25.5C26.0523 23 26.5 22.5523 26.5 22C26.5 21.4477 26.0523 21 25.5 21H14Z" fill="black"/>
<path d="M14 17C13.4477 17 13 17.4477 13 18C13 18.5523 13.4477 19 14 19H20C20.5523 19 21 18.5523 21 18C21 17.4477 20.5523 17 20 17H14Z" fill="black"/>
<path d="M24 12V9.01477C24.441 9.06866 24.8541 9.26837 25.1716 9.58579L28.4142 12.8284C28.7316 13.1459 28.9313 13.559 28.9852 14H26C24.8954 14 24 13.1046 24 12Z" fill="black"/>
</svg>
