<svg width="24" height="24" viewBox="0 0 24 24" fill="none" xmlns="http://www.w3.org/2000/svg">
<path d="M8 1.9989C5.7909 1.9989 4 3.7899 4 5.9989V17.9989C4 20.2079 5.7909 21.9989 8 21.9989H16C18.2091 21.9989 20 20.2079 20 17.9989V5.9989C20 3.7899 18.2091 1.9989 16 1.9989H8ZM8 3.9989H16C17.1046 3.9989 18 4.8939 18 5.9989V17.9989C18 19.1039 17.1046 19.9989 16 19.9989H8C6.8954 19.9989 6 19.1039 6 17.9989V5.9989C6 4.8939 6.8954 3.9989 8 3.9989Z" fill="black" fill-opacity="0.4"/>
<path d="M9 11C8.4477 11 8 11.448 8 12C8 12.552 8.4477 13 9 13C10 13 14.448 13 15 13C15.552 13 16 12.552 16 12C16 11.448 15.552 11 15 11H9Z" fill="black"/>
</svg>
