<svg width="24" height="24" viewBox="0 0 24 24" fill="none" xmlns="http://www.w3.org/2000/svg">
<path fill-rule="evenodd" clip-rule="evenodd" d="M8 4C6.89543 4 6 4.89543 6 6V18C6 19.1046 6.89543 20 8 20H16C17.1046 20 18 19.1046 18 18V10H20V18C20 20.2091 18.2091 22 16 22H8C5.79086 22 4 20.2091 4 18V6C4 3.79086 5.79086 2 8 2H12V4H8Z" fill="black" fill-opacity="0.4"/>
<path fill-rule="evenodd" clip-rule="evenodd" d="M13.9845 6V4.10002C15.9487 4.4977 17.4959 6.04087 17.8946 8H15.9897C14.8823 8 13.9845 7.10457 13.9845 6ZM20 9V10H15.9897C13.7748 10 11.9794 8.20914 11.9794 6V2H12.9819C16.8579 2 20 5.13401 20 9ZM11.0052 16.9989C11.0052 17.5509 11.4543 17.9989 12.0077 17.9989C12.5612 17.9989 13.0103 17.5509 13.0103 16.9989V12.9989H15.0155L12.0077 9.99889L9 12.9989H11.0052V16.9989Z" fill="black"/>
</svg>
