<svg width="24" height="24" viewBox="0 0 24 24" fill="none" xmlns="http://www.w3.org/2000/svg">
<path fill-rule="evenodd" clip-rule="evenodd" d="M4 5.9989C4 3.7899 5.7909 1.9989 8 1.9989H16C18.2091 1.9989 20 3.7899 20 5.9989V17.9989C20 20.2079 18.2091 21.9989 16 21.9989H8C5.7909 21.9989 4 20.2079 4 17.9989V5.9989ZM10.9717 15C11.524 15 11.9717 14.5523 11.9717 14C11.9717 13.4477 11.524 13 10.9717 13C10.4194 13 9.97168 13.4477 9.97168 14C9.97168 14.5523 10.4194 15 10.9717 15Z" fill="black" fill-opacity="0.4"/>
<path d="M12 6.99878V11.1548C11.635 11.0418 11.389 10.9988 11 10.9988C9.343 10.9988 8 12.3418 8 13.9988C8 15.6558 9.343 16.9988 11 16.9988C12.374 16.9988 13.52 16.1038 13.875 14.8428C13.948 14.5838 14 14.2818 14 13.9988V8.99878H16V6.99878H12ZM11 12.9988C11.552 12.9988 12 13.4468 12 13.9988C12 14.5508 11.552 14.9988 11 14.9988C10.448 14.9988 10 14.5508 10 13.9988C10 13.4468 10.448 12.9988 11 12.9988Z" fill="black"/>
</svg>
