<svg width="24" height="24" viewBox="0 0 24 24" fill="none" xmlns="http://www.w3.org/2000/svg">
<path fill-rule="evenodd" clip-rule="evenodd" d="M2 14C2 13.4477 2.44772 13 3 13H21C21.5523 13 22 13.4477 22 14C22 14.5523 21.5523 15 21 15H3C2.44772 15 2 14.5523 2 14Z" fill="black"/>
<path fill-rule="evenodd" clip-rule="evenodd" d="M4.01415 5.99891C4.01415 3.7899 5.80356 1.9989 8.01061 1.9989H16.0035C18.2106 1.9989 20 3.7899 20 5.99891V12.9989H4.01415V5.99891ZM4 18V17H19.9859V18C19.9859 20.209 18.1964 22 15.9894 22H7.99646C5.78942 22 4 20.209 4 18Z" fill="black" fill-opacity="0.4"/>
</svg>
