<svg width="24" height="24" viewBox="0 0 24 24" fill="none" xmlns="http://www.w3.org/2000/svg">
<path fill-rule="evenodd" clip-rule="evenodd" d="M8 2C5.79086 2 4 3.79086 4 6V18C4 19.0144 4.37764 19.9407 5 20.6458V20.2361C5 19.429 5.41343 18.5917 6 17.9032V6C6 4.89543 6.89543 4 8 4H16C17.1046 4 18 4.89543 18 6V17.9198C18.582 18.6012 19 19.431 19 20.2361V20.6458C19.6224 19.9407 20 19.0144 20 18V6C20 3.79086 18.2091 2 16 2H8Z" fill="black" fill-opacity="0.4"/>
<path fill-rule="evenodd" clip-rule="evenodd" d="M10 10C10 8.89543 10.8954 8 12 8C13.1046 8 14 8.89543 14 10C14 11.1046 13.1046 12 12 12C10.8954 12 10 11.1046 10 10ZM12 6C9.79086 6 8 7.79086 8 10C8 12.2091 9.79086 14 12 14C14.2091 14 16 12.2091 16 10C16 7.79086 14.2091 6 12 6ZM8 20C7.68595 20 7.38959 19.9281 7.12561 19.7995C7.24782 19.5395 7.46748 19.2148 7.81995 18.8921C8.38872 18.3713 9.15698 18 10 18H14C14.8151 18 15.585 18.3686 16.1648 18.8949C16.5223 19.2195 16.7454 19.5436 16.8701 19.8016C16.6072 19.9289 16.3124 20 16 20H8ZM10 16C8.56216 16 7.33042 16.6286 6.4694 17.4169C5.64639 18.1704 5 19.2269 5 20.2361V20.6831L5.33309 20.9812C6.0401 21.614 6.97617 22 8 22H16C17.0238 22 17.9599 21.614 18.6669 20.9812L19 20.6831V20.2361C19 19.2183 18.332 18.1611 17.5091 17.4141C16.6469 16.6314 15.4168 16 14 16H10Z" fill="black"/>
</svg>
