<svg width="24" height="24" viewBox="0 0 24 24" fill="none" xmlns="http://www.w3.org/2000/svg">
<path d="M8 1.9989C5.7909 1.9989 4 3.7899 4 5.9989V17.9989C4 20.2079 5.7909 21.9989 8 21.9989H16C18.2091 21.9989 20 20.2079 20 17.9989V5.9989C20 3.7899 18.2091 1.9989 16 1.9989H8Z" fill="black" fill-opacity="0.4"/>
<path d="M12 6C11.4477 6 11 6.448 11 7C10.4477 7 10 7.448 10 8C10 8.552 10.4477 9 11 9C11 9.552 11.4477 10 12 10C12.5523 10 13 9.552 13 9C13.5523 9 14 8.552 14 8C14 7.448 13.5523 7 13 7C13 6.448 12.5523 6 12 6ZM9 12C8.4477 12 8 12.448 8 13C8 13.552 8.4477 14 9 14H15C15.5523 14 16 13.552 16 13C16 12.448 15.5523 12 15 12H9ZM9 16C8.4477 16 8 16.448 8 17C8 17.552 8.4477 18 9 18H15C15.5523 18 16 17.552 16 17C16 16.448 15.5523 16 15 16H9Z" fill="black"/>
</svg>
