<svg width="24" height="24" viewBox="0 0 24 24" fill="none" xmlns="http://www.w3.org/2000/svg">
<path fill-rule="evenodd" clip-rule="evenodd" d="M4 5.344C4 3.48 5.61101 2 7.56201 2H12.9996C13.3393 2 13.6733 2.02419 14.0001 2.07095C14 3.05519 14 4.03943 14 5.02366C14.0001 5.51579 14.0001 6.00791 14.0001 6.50003C14.0001 7.32846 14.6716 8.00003 15.5001 8.00003C15.9922 8.00003 16.4843 8.00002 16.9764 8.00001C17.9607 7.99998 18.9449 7.99996 19.9291 8.00003C19.9758 8.32657 20 8.66038 20 8.99984V18.656C20 20.52 18.389 22 16.438 22H7.56201C5.61101 22 4 20.52 4 18.656V5.344Z" fill="black" fill-opacity="0.4"/>
<path fill-rule="evenodd" clip-rule="evenodd" d="M19.9292 8.00003C19.4907 4.93434 17.0658 2.50944 14.0001 2.07092C14 3.05517 14 4.03942 14 5.02366C14.0001 5.51579 14.0001 6.00791 14.0001 6.50003C14.0001 7.32846 14.6716 8.00003 15.5001 8.00003C15.9922 8.00003 16.4843 8.00002 16.9764 8.00001C17.9607 7.99998 18.9449 7.99996 19.9292 8.00003ZM8 15.344C8 13.946 8.73601 13 10.031 13C11.334 13 12.031 13.939 12.031 15.344V15.656C12.031 16.987 11.349 18 10 18C8.697 18 8 17.054 8 15.656V15.344ZM12.656 13.844C12.853 13.713 13.702 13.193 13.906 13.094H15V17.906H13.906V14.031H13.844C13.705 14.102 12.837 14.634 12.656 14.75V13.844ZM10.938 15.344C10.937 14.342 10.579 13.844 10.031 13.844C9.48401 13.844 9.125 14.338 9.125 15.344V15.656C9.125 16.662 9.48401 17.156 10.031 17.156C10.579 17.156 10.938 16.658 10.938 15.656V15.344Z" fill="black"/>
</svg>
