<svg width="24" height="24" viewBox="0 0 24 24" fill="none" xmlns="http://www.w3.org/2000/svg">
<path fill-rule="evenodd" clip-rule="evenodd" d="M8 4C6.89543 4 6 4.89543 6 6V14.8567C5.86397 14.9756 5.73989 15.0973 5.6284 15.2151C5.08169 15.7925 4.65617 16.4674 4.39446 16.9291C4.19372 17.2832 4.03313 17.7176 4.00453 18.1921C4.00152 18.1285 4 18.0644 4 18V6C4 3.79086 5.79086 2 8 2H12H13C16.866 2 20 5.13401 20 9V10V16.9818C19.9959 16.8389 19.9451 16.661 19.8855 16.5317C19.4056 15.5049 18.7881 14.4624 18 13.6095V10H16C13.7909 10 12 8.20914 12 6V4H8ZM14 4.10002V6C14 7.10457 14.8954 8 16 8H17.9C17.5023 6.04087 15.9591 4.4977 14 4.10002Z" fill="black" fill-opacity="0.4"/>
<path fill-rule="evenodd" clip-rule="evenodd" d="M9 10C9.55228 10 10 9.55228 10 9C10 8.44772 9.55228 8 9 8C8.44772 8 8 8.44772 8 9C8 9.55228 8.44772 10 9 10ZM14.0442 14.4129C13.0891 15.1593 12.2689 16.569 11.891 17.4099C11.7474 17.7295 11.4469 17.9506 11.0991 17.9928C10.7515 18.0348 10.4074 17.8921 10.1916 17.6166C9.73031 17.0327 8.67705 15.9988 8.00301 15.9995C7.32897 16.0002 5.87189 17.8073 6.00953 18.4318C6.20691 19.3273 7.00982 20 7.97085 20H15.9922C17.1038 20 18.0003 19.1021 18.0003 18V17.2264C17.4876 16.1895 16.8572 15.1337 15.9349 14.4129C15.5519 14.1136 15.2372 14 14.9896 14C14.742 14 14.4272 14.1136 14.0442 14.4129ZM12.8126 12.8371C11.9633 13.5008 11.3053 14.3925 10.7516 15.3097C9.98642 14.6185 9.0133 13.9659 7.9387 14.0005C6.93861 14.0327 6.1472 14.6672 5.6284 15.2151C5.08169 15.7925 4.65617 16.4674 4.39446 16.9291C4.10223 17.4446 3.89507 18.1303 4.05641 18.8623C4.4523 20.6584 6.05478 22 7.97085 22H15.9922C18.2033 22 20.0003 20.2117 20.0003 18V17C20.0003 16.8542 19.9476 16.6666 19.8855 16.5317C19.2478 15.1674 18.3673 13.7755 17.1665 12.8371C16.5898 12.3864 15.8495 12 14.9896 12C14.1297 12 13.3893 12.3864 12.8126 12.8371Z" fill="black"/>
</svg>
