<svg width="24" height="24" viewBox="0 0 24 24" fill="none" xmlns="http://www.w3.org/2000/svg">
<path fill-rule="evenodd" clip-rule="evenodd" d="M8 4C6.89543 4 6 4.89543 6 6V18C6 19.1046 6.89543 20 8 20H16C17.1046 20 18 19.1046 18 18V10H20V18C20 20.2091 18.2091 22 16 22H8C5.79086 22 4 20.2091 4 18V6C4 3.79086 5.79086 2 8 2H12V4H8Z" fill="black" fill-opacity="0.4"/>
<path fill-rule="evenodd" clip-rule="evenodd" d="M13.9916 6V4.10002C15.9535 4.4977 17.4988 6.04087 17.897 8H15.9944C14.8883 8 13.9916 7.10457 13.9916 6ZM20 9V10H15.9944C13.7821 10 11.9888 8.20914 11.9888 6V2H12.9902C16.8616 2 20 5.13401 20 9ZM14.2833 12.2794C14.479 12.0848 14.7456 11.9989 15.0012 11.9989C15.2569 11.9989 15.5235 12.0848 15.7192 12.2794C16.1086 12.6697 16.1086 13.3244 15.7192 13.7146L11.725 17.707C11.3346 18.0962 10.6796 18.0962 10.2891 17.707L8.29207 15.7108C7.90264 15.3206 7.90264 14.6658 8.29207 14.2756C8.6825 13.8863 9.33753 13.8863 9.72796 14.2756L11.0071 15.5541L14.2833 12.2794Z" fill="black"/>
</svg>
