<svg width="24" height="24" viewBox="0 0 24 24" fill="none" xmlns="http://www.w3.org/2000/svg">
<path fill-rule="evenodd" clip-rule="evenodd" d="M4 5.344C4 3.48 5.61101 2 7.56201 2H12.9996C13.3393 2 13.6733 2.02419 14.0001 2.07095C14 3.05519 14 4.03943 14 5.02366C14.0001 5.51579 14.0001 6.00791 14.0001 6.50003C14.0001 7.32846 14.6716 8.00003 15.5001 8.00003C15.9922 8.00003 16.4843 8.00002 16.9764 8.00001C17.9607 7.99998 18.9449 7.99996 19.9291 8.00003C19.9758 8.32657 20 8.66038 20 8.99984V18.656C20 20.52 18.389 22 16.438 22H7.56201C5.61101 22 4 20.52 4 18.656V5.344Z" fill="black" fill-opacity="0.4"/>
<path fill-rule="evenodd" clip-rule="evenodd" d="M19.9292 8.00003C19.4907 4.93434 17.0658 2.50944 14.0001 2.07092C14 3.05517 14 4.03942 14 5.02366C14.0001 5.51579 14.0001 6.00791 14.0001 6.50003C14.0001 7.32846 14.6716 8.00003 15.5001 8.00003C15.9922 8.00003 16.4843 8.00002 16.9764 8.00001C17.9607 7.99998 18.9449 7.99996 19.9292 8.00003ZM15.7071 13.7071C16.0976 13.3166 16.0976 12.6834 15.7071 12.2929C15.3166 11.9024 14.6834 11.9024 14.2929 12.2929L11 15.5858L9.70711 14.2929C9.31658 13.9024 8.68342 13.9024 8.29289 14.2929C7.90237 14.6834 7.90237 15.3166 8.29289 15.7071L10.2929 17.7071C10.6834 18.0976 11.3166 18.0976 11.7071 17.7071L15.7071 13.7071Z" fill="black"/>
</svg>
