<svg width="24" height="24" viewBox="0 0 24 24" fill="none" xmlns="http://www.w3.org/2000/svg">
<path fill-rule="evenodd" clip-rule="evenodd" d="M4 6C4 3.79086 5.79086 2 8 2H16C18.2091 2 20 3.79086 20 6V18C20 20.2091 18.2091 22 16 22H8C5.79086 22 4 20.2091 4 18V6Z" fill="black" fill-opacity="0.4"/>
<path d="M9.50106 8.12399C9.20543 8.29126 9 8.61076 9 9.00037V15.0098C9 15.788 9.83476 16.2557 10.5032 15.8551L15.5137 12.8504C16.1621 12.4608 16.1621 11.5494 15.5137 11.1598C14.8874 10.7842 11.1295 8.53064 10.5032 8.15505C10.1695 7.95473 9.79668 7.95673 9.50106 8.12399Z" fill="black"/>
</svg>
