<svg width="24" height="24" viewBox="0 0 24 24" fill="none" xmlns="http://www.w3.org/2000/svg">
<path d="M8 1.9989C5.7909 1.9989 4 3.7899 4 5.9989V17.9989C4 20.2079 5.7909 21.9989 8 21.9989H16C18.2091 21.9989 20 20.2079 20 17.9989V5.9989C20 3.7899 18.2091 1.9989 16 1.9989H8Z" fill="black" fill-opacity="0.4"/>
<path fill-rule="evenodd" clip-rule="evenodd" d="M8 7C8 6.448 8.4477 6 9 6H13C13.552 6 14 6.448 14 7C14 7.552 13.552 8 13 8H9C8.4477 8 8 7.552 8 7ZM9.5 10H14.5C15.3284 10 16 10.6716 16 11.5V16.5C16 17.3284 15.3284 18 14.5 18H9.5C8.67157 18 8 17.3284 8 16.5V11.5C8 10.6716 8.67157 10 9.5 10Z" fill="black"/>
</svg>
