<svg width="24" height="24" viewBox="0 0 24 24" fill="none" xmlns="http://www.w3.org/2000/svg">
<path fill-rule="evenodd" clip-rule="evenodd" d="M8 4C6.89543 4 6 4.89543 6 6V18C6 19.1046 6.89543 20 8 20H16C17.1046 20 18 19.1046 18 18V10H20V18C20 20.2091 18.2091 22 16 22H8C5.79086 22 4 20.2091 4 18V6C4 3.79086 5.79086 2 8 2H12V4H8Z" fill="black" fill-opacity="0.4"/>
<path fill-rule="evenodd" clip-rule="evenodd" d="M13.9858 6V4.10002C15.9496 4.4977 17.4964 6.04087 17.895 8H15.9905C14.8834 8 13.9858 7.10457 13.9858 6ZM20 9V10H15.9905C13.7762 10 11.9811 8.20914 11.9811 6V2H12.9834C16.8586 2 20 5.13401 20 9ZM8 10.9989C8 10.4469 8.44876 9.9989 9.00237 9.9989C9.55597 9.9989 10.0047 10.4469 10.0047 10.9989V16.9989C10.0047 17.5509 9.55597 17.9989 9.00237 17.9989C8.44876 17.9989 8 17.5509 8 16.9989V10.9989ZM11.0071 12.9989C11.0071 12.4469 11.4562 11.9989 12.0095 11.9989C12.5628 11.9989 13.0118 12.4469 13.0118 12.9989V16.9989C13.0118 17.5509 12.5628 17.9989 12.0095 17.9989C11.4562 17.9989 11.0071 17.5509 11.0071 16.9989V12.9989ZM14.0142 14.9989C14.0142 14.4469 14.4633 13.9989 15.0166 13.9989C15.5699 13.9989 16.0189 14.4469 16.0189 14.9989V16.9989C16.0189 17.5509 15.5699 17.9989 15.0166 17.9989C14.4633 17.9989 14.0142 17.5509 14.0142 16.9989V14.9989Z" fill="black"/>
</svg>
