<svg width="24" height="24" viewBox="0 0 24 24" fill="none" xmlns="http://www.w3.org/2000/svg">
<path d="M4 5C4 3.34315 5.34315 2 7 2H13V4C13 6.76142 15.2386 9 18 9H20V19C20 20.6569 18.6569 22 17 22H7C5.34315 22 4 20.6569 4 19V5Z" fill="black" fill-opacity="0.4"/>
<path fill-rule="evenodd" clip-rule="evenodd" d="M20 9C20 5.13401 16.866 2 13 2V4C13 6.76142 15.2386 9 18 9H20ZM11 9.9989C11 9.4469 11.448 8.9989 12 8.9989C12.552 8.9989 13 9.4469 13 9.9989V10.9989H14C14.552 10.9989 15 11.4469 15 11.9989C15 12.5509 14.552 12.9989 14 12.9989H13V13.9989C13 14.5509 12.552 14.9989 12 14.9989C11.448 14.9989 11 14.5509 11 13.9989V12.9989H10C9.4477 12.9989 9 12.5509 9 11.9989C9 11.4469 9.4477 10.9989 10 10.9989H11V9.9989ZM9 17.9989C9 17.4469 9.4477 16.9989 10 16.9989H14C14.552 16.9989 15 17.4469 15 17.9989C15 18.5509 14.552 18.9989 14 18.9989H10C9.4477 18.9989 9 18.5509 9 17.9989Z" fill="black"/>
</svg>
