<svg width="24" height="24" viewBox="0 0 24 24" fill="none" xmlns="http://www.w3.org/2000/svg">
<path fill-rule="evenodd" clip-rule="evenodd" d="M6 7C6 5.89543 6.89543 5 8 5H16C17.1046 5 18 5.89543 18 7V13.5107C19.1223 15.6597 20 18 20 18V7C20 4.79086 18.2091 3 16 3H8C5.79086 3 4 4.79086 4 7V18C4.37581 17.0419 5.19092 15.451 6 14.3212V7Z" fill="black" fill-opacity="0.4"/>
<path fill-rule="evenodd" clip-rule="evenodd" d="M9 9C9.55228 9 10 8.55228 10 8C10 7.44772 9.55228 7 9 7C8.44772 7 8 7.44772 8 8C8 8.55228 8.44772 9 9 9ZM8 22C5.79086 22 4 20.2091 4 18C4.63088 16.3916 6.49978 13 7.49989 13C8.5 13 10.5 16 10.5 16C10.5 16 13.0001 9.99999 15 9.99999C16.9999 9.99999 20 18 20 18C20 20.2091 18.2091 22 16 22H8Z" fill="black"/>
</svg>
