<svg width="24" height="24" viewBox="0 0 24 24" fill="none" xmlns="http://www.w3.org/2000/svg">
<path fill-rule="evenodd" clip-rule="evenodd" d="M7.56201 2C5.61101 2 4 3.48 4 5.344V18.656C4 20.52 5.61101 22 7.56201 22H16.438C18.389 22 20 20.52 20 18.656V8.99984C20 8.66038 19.9758 8.32657 19.9291 8.00003L16.9764 8.00001L15.5001 8.00003C14.6716 8.00003 14.0001 7.32846 14.0001 6.50003L14 5.02366L14.0001 2.07095C13.6733 2.02419 13.3393 2 12.9996 2H7.56201ZM8 13C8 12.448 8.4477 12 9 12H15C15.552 12 16 12.448 16 13V17C16 17.552 15.552 18 15 18H9C8.4477 18 8 17.552 8 17V13Z" fill="black" fill-opacity="0.4"/>
<path fill-rule="evenodd" clip-rule="evenodd" d="M19.9292 8.00003C19.4907 4.93434 17.0658 2.50944 14.0001 2.07092C14 3.05517 14 4.03942 14 5.02366C14.0001 5.51579 14.0001 6.00791 14.0001 6.50003C14.0001 7.32846 14.6716 8.00003 15.5001 8.00003C15.9922 8.00003 16.4843 8.00002 16.9764 8.00001C17.9607 7.99998 18.9449 7.99996 19.9292 8.00003ZM11.75 13.5C11.543 13.362 11.354 13.334 11.219 13.406C11.083 13.479 11 13.657 11 13.906V16.094C11 16.592 11.336 16.776 11.75 16.5L13.25 15.5C13.664 15.224 13.664 14.776 13.25 14.5L11.75 13.5Z" fill="black"/>
</svg>
