<svg width="24" height="24" viewBox="0 0 24 24" fill="none" xmlns="http://www.w3.org/2000/svg">
<path fill-rule="evenodd" clip-rule="evenodd" d="M4 5.344C4 3.48 5.61101 2 7.56201 2H12.9996C13.3393 2 13.6733 2.02419 14.0001 2.07095C14 3.05519 14 4.03943 14 5.02366C14.0001 5.51579 14.0001 6.00791 14.0001 6.50003C14.0001 7.32846 14.6716 8.00003 15.5001 8.00003C15.9922 8.00003 16.4843 8.00002 16.9764 8.00001C17.9607 7.99998 18.9449 7.99996 19.9291 8.00003C19.9758 8.32657 20 8.66038 20 8.99984V18.656C20 20.52 18.389 22 16.438 22H7.56201C5.61101 22 4 20.52 4 18.656V5.344Z" fill="black" fill-opacity="0.4"/>
<path fill-rule="evenodd" clip-rule="evenodd" d="M19.9292 8.00003C19.4907 4.93434 17.0658 2.50944 14.0001 2.07092C14 3.05517 14 4.03942 14 5.02366C14.0001 5.51579 14.0001 6.00791 14.0001 6.50003C14.0001 7.32846 14.6716 8.00003 15.5001 8.00003C15.9922 8.00003 16.4843 8.00002 16.9764 8.00001C17.9607 7.99998 18.9449 7.99996 19.9292 8.00003ZM9.29138 12.2805C9.48564 12.0858 9.75261 12 10.0076 12C10.2627 12 10.5286 12.0858 10.7239 12.2805L12 13.559L13.2761 12.2805C13.4714 12.0858 13.7373 12 13.9924 12C14.2474 12 14.5134 12.0858 14.7086 12.2805C15.0971 12.6707 15.0971 13.3255 14.7086 13.7157L13.4325 14.9943L14.7086 16.2728C15.0971 16.6631 15.0971 17.3178 14.7086 17.7081C14.3191 18.0973 13.6656 18.0973 13.2761 17.7081L12 16.4295L10.7239 17.7081C10.3344 18.0973 9.68089 18.0973 9.29138 17.7081C8.90287 17.3178 8.90287 16.6631 9.29138 16.2728L10.5675 14.9943L9.29138 13.7157C8.90287 13.3255 8.90287 12.6707 9.29138 12.2805Z" fill="black"/>
</svg>
