<svg width="24" height="24" viewBox="0 0 24 24" fill="none" xmlns="http://www.w3.org/2000/svg">
<path fill-rule="evenodd" clip-rule="evenodd" d="M4 5.34399C4 3.47999 5.61101 2 7.56201 2H13C16.561 2 20 5.40599 20 8.96899V18.656C20 20.52 18.389 22 16.438 22H7.56201C5.61101 22 4 20.52 4 18.656V5.34399ZM11 16C11.5523 16 12 15.5523 12 15C12 14.4477 11.5523 14 11 14C10.4477 14 10 14.4477 10 15C10 15.5523 10.4477 16 11 16Z" fill="black" fill-opacity="0.4"/>
<path d="M12 8V12.156C11.676 12.05 11.389 12 11 12C9.343 12 8 13.343 8 15C8 16.657 9.343 18 11 18C12.374 18 13.551 17.042 13.906 15.781C13.979 15.522 14 15.282 14 15V10H16V8H12ZM11 14C11.552 14 12 14.448 12 15C12 15.552 11.552 16 11 16C10.448 16 10 15.552 10 15C10 14.448 10.448 14 11 14Z" fill="black"/>
</svg>
