<svg width="24" height="24" viewBox="0 0 24 24" fill="none" xmlns="http://www.w3.org/2000/svg">
<path fill-rule="evenodd" clip-rule="evenodd" d="M4 6C4 3.79086 5.79086 2 8 2H16C18.2091 2 20 3.79086 20 6V18C20 20.2091 18.2091 22 16 22H8C5.79086 22 4 20.2091 4 18V6ZM8 4C6.89543 4 6 4.89543 6 6V18C6 19.1046 6.89543 20 8 20H16C17.1046 20 18 19.1046 18 18V6C18 4.89543 17.1046 4 16 4H8Z" fill="black" fill-opacity="0.4"/>
<path d="M9.00929 5.99878C8.45793 5.99878 8.01045 6.44678 8.01045 6.99878C8.01045 7.55078 8.45793 7.99879 9.00929 7.99879C9.56065 7.99879 10.0081 7.55078 10.0081 6.99878C10.0081 6.44678 9.56065 5.99878 9.00929 5.99878ZM14.0035 8.99879C13.0386 8.99879 12.4173 9.76079 11.7871 10.9988C11.2557 10.4158 10.8282 9.98979 10.0081 9.99879C9.18708 10.0078 8.46793 10.5448 7.82268 11.4048C7.50006 11.8368 7.25432 12.2628 7.1055 12.5608C6.77288 13.2268 7.26831 13.9988 8.01045 13.9988H16.0012C16.6834 13.9988 17.1528 13.3338 16.9381 12.6868C16.9011 12.5778 16.8382 12.3828 16.7503 12.1548C16.6035 11.7768 16.4616 11.4198 16.2818 11.0608C15.6366 9.7688 14.9923 8.99879 14.0035 8.99879ZM8.01045 15.9988C7.45909 15.9988 7.01161 16.4468 7.01161 16.9988C7.01161 17.5508 7.45909 17.9988 8.01045 17.9988H16.0012C16.5525 17.9988 17 17.5508 17 16.9988C17 16.4468 16.5525 15.9988 16.0012 15.9988H8.01045Z" fill="black"/>
</svg>
