<svg width="24" height="24" viewBox="0 0 24 24" fill="none" xmlns="http://www.w3.org/2000/svg">
<path d="M7.56201 2C5.61101 2 4 3.47999 4 5.34399V18.656C4 20.52 5.61101 22 7.56201 22H16.438C18.389 22 20 20.52 20 18.656C20 18.003 20 10.798 20 8.96899C20 5.40599 16.561 2 13 2C8.786 2 8.77601 2 7.56201 2ZM7.56201 4C8.77601 4 8.786 4 13 4C15.459 4 18 6.51299 18 8.96899C18 10.798 18 18.003 18 18.656C18 19.37 17.326 20 16.438 20H7.56201C6.67401 20 6 19.37 6 18.656V5.34399C6 4.62999 6.67401 4 7.56201 4Z" fill="black" fill-opacity="0.4"/>
<path d="M12 8V12.156C11.676 12.05 11.389 12 11 12C9.343 12 8 13.343 8 15C8 16.657 9.343 18 11 18C12.374 18 13.551 17.042 13.906 15.781C13.979 15.522 14 15.282 14 15V10H16V8H12ZM11 14C11.552 14 12 14.448 12 15C12 15.552 11.552 16 11 16C10.448 16 10 15.552 10 15C10 14.448 10.448 14 11 14Z" fill="black"/>
</svg>
