<svg width="24" height="24" viewBox="0 0 24 24" fill="none" xmlns="http://www.w3.org/2000/svg">
<path fill-rule="evenodd" clip-rule="evenodd" d="M7 3H9H15H17V21H15H9H7V3ZM15 19V13H9V19H15ZM15 11V5H9V11H15Z" fill="black"/>
<path fill-rule="evenodd" clip-rule="evenodd" d="M6 3H7V5H6C5.44772 5 5 5.44772 5 6V7H7V9H5V11H7V13H5V15H7V17H5V18C5 18.5523 5.44772 19 6 19H7V21H6C4.34315 21 3 19.6569 3 18V6C3 4.34315 4.34315 3 6 3ZM17 3H18C19.6569 3 21 4.34315 21 6V18C21 19.6569 19.6569 21 18 21H17V19H18C18.5523 19 19 18.5523 19 18V17H17V15H19V13H17V11H19V9H17V7H19V6C19 5.44772 18.5523 5 18 5H17V3Z" fill="black" fill-opacity="0.4"/>
</svg>
