<svg width="24" height="24" viewBox="0 0 24 24" fill="none" xmlns="http://www.w3.org/2000/svg">
<path fill-rule="evenodd" clip-rule="evenodd" d="M20 16C20 15.4477 19.5523 15 19 15H13C12.4477 15 12 15.4477 12 16C12 16.5523 12.4477 17 13 17H19C19.5523 17 20 16.5523 20 16Z" fill="black" fill-opacity="0.4"/>
<path d="M19.0022 7C19.5542 7 20.0022 7.4477 20.0022 8C20.0022 8.5523 19.5542 9 19.0022 9H5.0022C4.4502 9 4.0022 8.5523 4.0022 8C4.0022 7.4477 4.4502 7 5.0022 7H19.0022ZM19.0022 11C19.5542 11 20.0022 11.4477 20.0022 12C20.0022 12.5523 19.5542 13 19.0022 13H9.0022C8.4502 13 8.0022 12.5523 8.0022 12C8.0022 11.4477 8.4502 11 9.0022 11H19.0022Z" fill="black"/>
</svg>
