<svg width="24" height="24" viewBox="0 0 24 24" fill="none" xmlns="http://www.w3.org/2000/svg">
<path fill-rule="evenodd" clip-rule="evenodd" d="M4 16C4 15.4477 4.44772 15 5 15H11C11.5523 15 12 15.4477 12 16C12 16.5523 11.5523 17 11 17H5C4.44772 17 4 16.5523 4 16Z" fill="black" fill-opacity="0.4"/>
<path d="M4.9978 7C4.4458 7 3.9978 7.4477 3.9978 8C3.9978 8.5523 4.4458 9 4.9978 9H18.9978C19.5498 9 19.9978 8.5523 19.9978 8C19.9978 7.4477 19.5498 7 18.9978 7H4.9978ZM4.9978 11C4.4458 11 3.9978 11.4477 3.9978 12C3.9978 12.5523 4.4458 13 4.9978 13H14.9978C15.5498 13 15.9978 12.5523 15.9978 12C15.9978 11.4477 15.5498 11 14.9978 11H4.9978Z" fill="black"/>
</svg>
