<svg width="40" height="40" viewBox="0 0 40 40" fill="none" xmlns="http://www.w3.org/2000/svg">
<path opacity="0.3" fill-rule="evenodd" clip-rule="evenodd" d="M7 11.0998C7 9.38782 8.39481 8 10.1154 8H17.0119C15.7427 9.84908 15 12.0878 15 14.5C15 20.2228 19.1802 24.9693 24.6538 25.8526V28.8978C24.6538 31.0136 22.5706 32.5076 20.5533 31.8386L18.4764 31.1497C17.2042 30.7278 16.3462 29.5432 16.3462 28.209V23.4123C16.3462 23.1118 16.2146 22.8261 15.9859 22.6298L8.08073 15.8463C7.39453 15.2575 7 14.4005 7 13.4989V11.0998Z" fill="black"/>
<path d="M34 11.0998C34 9.38782 32.6052 8 30.8846 8H17.0119C15.7427 9.84908 15 12.0878 15 14.5C15 20.2228 19.1802 24.9693 24.6538 25.8526V23.4123C24.6538 23.1118 24.7854 22.8261 25.0141 22.6298L32.9193 15.8463C33.6055 15.2575 34 14.4005 34 13.4989V11.0998Z" fill="black"/>
</svg>
