<svg width="24" height="24" viewBox="0 0 24 24" fill="none" xmlns="http://www.w3.org/2000/svg">
<path d="M12 2C6.4772 2 2 6.4772 2 12C2 17.5228 6.4772 22 12 22C12.8465 22 13.6938 21.8938 14.5 21.6875C18.8897 20.564 22 16.5944 22 12C22 6.4772 17.5228 2 12 2Z" fill="black" fill-opacity="0.4"/>
<path d="M7.99902 8C7.44672 8 6.99902 8.4477 6.99902 9C6.99902 9.5523 7.44672 10 7.99902 10H15.999C16.5513 10 16.999 9.5523 16.999 9C16.999 8.4477 16.5513 8 15.999 8H7.99902ZM8.99902 12C8.44672 12 7.99902 12.4477 7.99902 13C7.99902 13.5523 8.44672 14 8.99902 14H14.999C15.5513 14 15.999 13.5523 15.999 13C15.999 12.4477 15.5513 12 14.999 12H8.99902ZM10.999 16C10.4467 16 9.99902 16.4477 9.99902 17C9.99902 17.5523 10.4467 18 10.999 18H12.999C13.5513 18 13.999 17.5523 13.999 17C13.999 16.4477 13.5513 16 12.999 16H10.999Z" fill="black"/>
</svg>
