<svg width="24" height="24" viewBox="0 0 24 24" fill="none" xmlns="http://www.w3.org/2000/svg">
<path fill-rule="evenodd" clip-rule="evenodd" d="M8 16C8 15.4477 8.44772 15 9 15H15C15.5523 15 16 15.4477 16 16C16 16.5523 15.5523 17 15 17H9C8.44772 17 8 16.5523 8 16Z" fill="black" fill-opacity="0.4"/>
<path d="M4.9978 7C4.4458 7 3.9978 7.4477 3.9978 8C3.9978 8.5523 4.4458 9 4.9978 9H18.9978C19.5498 9 19.9978 8.5523 19.9978 8C19.9978 7.4477 19.5498 7 18.9978 7H4.9978ZM6.9978 11C6.4458 11 5.9978 11.4477 5.9978 12C5.9978 12.5523 6.4458 13 6.9978 13H16.9978C17.5498 13 17.9978 12.5523 17.9978 12C17.9978 11.4477 17.5498 11 16.9978 11H6.9978Z" fill="black"/>
</svg>
