<svg width="24" height="24" viewBox="0 0 24 24" fill="none" xmlns="http://www.w3.org/2000/svg">
<path d="M7 3C4.791 3 3 4.7909 3 7V17C3 19.2091 4.791 21 7 21H17C19.209 21 21 19.2091 21 17V7C21 4.7909 19.209 3 17 3H7Z" fill="black" fill-opacity="0.4"/>
<path d="M7.99829 7C7.44629 7 6.99829 7.4477 6.99829 8C6.99829 8.5523 7.44629 9 7.99829 9H15.9983C16.5503 9 16.9983 8.5523 16.9983 8C16.9983 7.4477 16.5503 7 15.9983 7H7.99829ZM8.99829 11C8.44629 11 7.99829 11.4477 7.99829 12C7.99829 12.5523 8.44629 13 8.99829 13H14.9983C15.5503 13 15.9983 12.5523 15.9983 12C15.9983 11.4477 15.5503 11 14.9983 11H8.99829ZM9.99829 15C9.44629 15 8.99829 15.4477 8.99829 16C8.99829 16.5523 9.44629 17 9.99829 17H13.9983C14.5503 17 14.9983 16.5523 14.9983 16C14.9983 15.4477 14.5503 15 13.9983 15H9.99829Z" fill="black"/>
</svg>
