<svg width="40" height="40" viewBox="0 0 40 40" fill="none" xmlns="http://www.w3.org/2000/svg">
<path opacity="0.3" d="M20 7C12.8203 7 7 12.8203 7 20C7 24.8131 9.61617 29.014 13.4993 31.2602C14.8155 32.0216 16.2782 32.5592 17.8345 32.8203C18.5394 32.9386 19.2629 33 20 33C20.7371 33 21.4606 32.9386 22.1655 32.8203C23.7218 32.5592 25.1845 32.0216 26.5007 31.2602C30.3838 29.014 33 24.8131 33 20C33 12.8203 27.1797 7 20 7Z" fill="black"/>
<path d="M13.0987 28.5664C13.2602 28.2312 13.6031 28 14 28C14.5523 28 15 28.4477 15 29V29.8006C15.0765 29.8397 15.1535 29.8779 15.231 29.9153C15.2766 29.9372 15.3224 29.9589 15.3683 29.9802C15.4337 30.0106 15.4994 30.0404 15.5654 30.0695C15.6031 30.0861 15.6408 30.1026 15.6787 30.1188C16.1059 30.3014 16.547 30.4578 17 30.586V20C17 18.3431 18.3431 17 20 17C21.6569 17 23 18.3431 23 20C23 20.5523 22.5523 21 22 21C21.4477 21 21 20.5523 21 20C21 19.4477 20.5523 19 20 19C19.4477 19 19 19.4477 19 20V30.9552C19.0968 30.9639 19.1939 30.9714 19.2914 30.9776C19.3295 30.98 19.3677 30.9822 19.4059 30.9843C19.4778 30.9881 19.5499 30.9912 19.6222 30.9936C19.7476 30.9979 19.8735 31 20 31C20.1449 31 20.2891 30.9972 20.4326 30.9917C20.623 30.9843 20.8122 30.9721 21 30.9552V25C21 24.4477 21.4477 24 22 24C22.5523 24 23 24.4477 23 25V30.5862C23.6972 30.389 24.3663 30.1248 25 29.8008V20C25 17.2386 22.7614 15 20 15C17.2386 15 15 17.2386 15 20V24C15 24.5523 14.5523 25 14 25C13.4477 25 13 24.5523 13 24V20C13 16.134 16.134 13 20 13C23.866 13 27 16.134 27 20V28.4858C26.3858 28.9931 25.7156 29.435 25 29.8008C24.3663 30.1248 23.6972 30.389 23 30.5862C22.3554 30.7685 21.6868 30.8933 21 30.9552C20.8122 30.9721 20.623 30.9843 20.4326 30.9917C20.2891 30.9972 20.1449 31 20 31C19.8735 31 19.7476 30.9979 19.6222 30.9936C19.5499 30.9912 19.4778 30.9881 19.4059 30.9843C19.3677 30.9822 19.3295 30.98 19.2914 30.9776C19.1939 30.9714 19.0968 30.9639 19 30.9552C18.3132 30.8933 17.6446 30.7685 17 30.5862C16.547 30.4581 16.1059 30.3015 15.6787 30.1188C15.6408 30.1026 15.6031 30.0861 15.5654 30.0695C15.4994 30.0404 15.4337 30.0106 15.3683 29.9802C15.3224 29.9589 15.2766 29.9372 15.231 29.9153C15.1535 29.8779 15.0765 29.8399 15 29.8008C14.9112 29.7554 14.823 29.7086 14.7356 29.6609C14.1564 29.3446 13.6088 28.9778 13.0987 28.5664Z" fill="black"/>
</svg>
