<svg width="40" height="40" viewBox="0 0 40 40" fill="none" xmlns="http://www.w3.org/2000/svg">
<path opacity="0.3" d="M20 33C16.2754 33 14.4131 33 12.9218 32.4572C10.4219 31.5473 8.45265 29.5781 7.54277 27.0782C7 25.5869 7 23.7246 7 20C7 16.2754 7 14.4131 7.54277 12.9218C8.45265 10.4219 10.4219 8.45265 12.9218 7.54277C14.4131 7 16.2754 7 20 7C23.7246 7 25.5869 7 27.0782 7.54277C29.5781 8.45265 31.5473 10.4219 32.4572 12.9218C33 14.4131 33 16.2754 33 20C33 23.7246 33 25.5869 32.4572 27.0782C31.5473 29.5781 29.5781 31.5473 27.0782 32.4572C25.5869 33 23.7246 33 20 33Z" fill="black"/>
<path d="M20 13.9231C17.1884 13.9231 14.9091 16.2133 14.9091 19.0385V21.9615C14.9091 22.3651 15.2347 22.6923 15.6364 22.6923C16.038 22.6923 16.3636 22.3651 16.3636 21.9615V19.0385C16.3636 17.0205 17.9917 15.3846 20 15.3846C22.0083 15.3846 23.6364 17.0205 23.6364 19.0385V27.0769C23.6364 27.4805 23.962 27.8077 24.3636 27.8077C24.7653 27.8077 25.0909 27.4805 25.0909 27.0769V19.0385C25.0909 16.2133 22.8116 13.9231 20 13.9231Z" fill="black"/>
<path d="M22.1818 22.6923C22.1818 22.2887 21.8562 21.9615 21.4545 21.9615C21.0529 21.9615 20.7273 22.2887 20.7273 22.6923V28.5385C20.7273 28.9421 21.0529 29.2692 21.4545 29.2692C21.8562 29.2692 22.1818 28.9421 22.1818 28.5385V22.6923Z" fill="black"/>
<path d="M20 16.8462C18.795 16.8462 17.8182 17.8277 17.8182 19.0385V29.2692C17.8182 29.6728 18.1438 30 18.5455 30C18.9471 30 19.2727 29.6728 19.2727 29.2692V19.0385C19.2727 18.6349 19.5983 18.3077 20 18.3077C20.4017 18.3077 20.7273 18.6349 20.7273 19.0385C20.7273 19.4421 21.0529 19.7692 21.4545 19.7692C21.8562 19.7692 22.1818 19.4421 22.1818 19.0385C22.1818 17.8277 21.205 16.8462 20 16.8462Z" fill="black"/>
<path d="M16.3636 24.8846C16.3636 24.481 16.038 24.1538 15.6364 24.1538C15.2347 24.1538 14.9091 24.481 14.9091 24.8846V27.8077C14.9091 28.2113 15.2347 28.5385 15.6364 28.5385C16.038 28.5385 16.3636 28.2113 16.3636 27.8077V24.8846Z" fill="black"/>
<path d="M13.4545 19.0385C13.4545 18.6349 13.1289 18.3077 12.7273 18.3077C12.3256 18.3077 12 18.6349 12 19.0385V26.3462C12 26.7497 12.3256 27.0769 12.7273 27.0769C13.1289 27.0769 13.4545 26.7497 13.4545 26.3462V19.0385Z" fill="black"/>
<path d="M20 11C17.8941 11 15.9769 11.8186 14.5489 13.1549C14.2549 13.43 14.2386 13.8924 14.5123 14.1877C14.7861 14.4831 15.2463 14.4995 15.5402 14.2245C16.7097 13.13 18.2763 12.4615 20 12.4615C23.0489 12.4615 25.6126 14.5569 26.3393 17.3937C26.4394 17.7845 26.8359 18.0198 27.2249 17.9192C27.6139 17.8186 27.848 17.4202 27.7479 17.0294C26.8599 13.5625 23.7287 11 20 11Z" fill="black"/>
<path d="M28 21.2308C28 20.8272 27.6744 20.5 27.2727 20.5C26.8711 20.5 26.5455 20.8272 26.5455 21.2308V24.8846C26.5455 25.2882 26.8711 25.6154 27.2727 25.6154C27.6744 25.6154 28 25.2882 28 24.8846V21.2308Z" fill="black"/>
</svg>
