<svg width="40" height="40" viewBox="0 0 40 40" fill="none" xmlns="http://www.w3.org/2000/svg">
<path opacity="0.3" d="M12.9218 32.4572C14.4131 33 16.2754 33 20 33C23.7246 33 25.5869 33 27.0782 32.4572C29.5781 31.5473 31.5473 29.5781 32.4572 27.0782C33 25.5869 33 23.7246 33 20C33 16.2754 33 14.4131 32.4572 12.9218C31.5473 10.4219 29.5781 8.45265 27.0782 7.54277C25.5869 7 23.7246 7 20 7C16.2754 7 14.4131 7 12.9218 7.54277C10.4219 8.45265 8.45265 10.4219 7.54277 12.9218C7 14.4131 7 16.2754 7 20C7 23.7246 7 25.5869 7.54277 27.0782C8.45265 29.5781 10.4219 31.5473 12.9218 32.4572Z" fill="black"/>
<path d="M15.3846 11.5385C13.2604 11.5385 11.5385 13.2604 11.5385 15.3846V16.9231C11.5385 17.3479 11.1941 17.6923 10.7692 17.6923C10.3444 17.6923 10 17.3479 10 16.9231V15.3846C10 12.4108 12.4108 10 15.3846 10H17.6923C18.1171 10 18.4615 10.3444 18.4615 10.7692C18.4615 11.1941 18.1171 11.5385 17.6923 11.5385H15.3846Z" fill="black"/>
<path d="M22.3077 10.7692C22.3077 10.3444 22.6521 10 23.0769 10H24.6154C27.5892 10 30 12.4108 30 15.3846V16.9231C30 17.3479 29.6556 17.6923 29.2308 17.6923C28.8059 17.6923 28.4615 17.3479 28.4615 16.9231V15.3846C28.4615 13.2604 26.7396 11.5385 24.6154 11.5385H23.0769C22.6521 11.5385 22.3077 11.1941 22.3077 10.7692Z" fill="black"/>
<path d="M14.6154 18.4615C14.6154 15.4877 17.0262 13.0769 20 13.0769C22.9738 13.0769 25.3846 15.4877 25.3846 18.4615V24.6154C25.3846 25.0402 25.0402 25.3846 24.6154 25.3846C24.1905 25.3846 23.8462 25.0402 23.8462 24.6154V18.4615C23.8462 16.3374 22.1242 14.6154 20 14.6154C17.8758 14.6154 16.1538 16.3374 16.1538 18.4615V20.7692C16.1538 21.1941 15.8094 21.5385 15.3846 21.5385C14.9598 21.5385 14.6154 21.1941 14.6154 20.7692V18.4615Z" fill="black"/>
<path d="M17.6923 18.4615C17.6923 17.187 18.7255 16.1538 20 16.1538C21.2745 16.1538 22.3077 17.187 22.3077 18.4615C22.3077 18.8864 21.9633 19.2308 21.5385 19.2308C21.1136 19.2308 20.7692 18.8864 20.7692 18.4615C20.7692 18.0367 20.4248 17.6923 20 17.6923C19.5752 17.6923 19.2308 18.0367 19.2308 18.4615V26.9231C19.2308 27.3479 18.8864 27.6923 18.4615 27.6923C18.0367 27.6923 17.6923 27.3479 17.6923 26.9231V18.4615Z" fill="black"/>
<path d="M21.5385 21.5385C21.9633 21.5385 22.3077 21.8829 22.3077 22.3077V26.9231C22.3077 27.3479 21.9633 27.6923 21.5385 27.6923C21.1136 27.6923 20.7692 27.3479 20.7692 26.9231V22.3077C20.7692 21.8829 21.1136 21.5385 21.5385 21.5385Z" fill="black"/>
<path d="M10.7692 22.3077C11.1941 22.3077 11.5385 22.6521 11.5385 23.0769V24.6154C11.5385 26.7396 13.2604 28.4615 15.3846 28.4615H16.9231C17.3479 28.4615 17.6923 28.8059 17.6923 29.2308C17.6923 29.6556 17.3479 30 16.9231 30H15.3846C12.4108 30 10 27.5892 10 24.6154V23.0769C10 22.6521 10.3444 22.3077 10.7692 22.3077Z" fill="black"/>
<path d="M29.2308 22.3077C29.6556 22.3077 30 22.6521 30 23.0769V24.6154C30 27.5892 27.5892 30 24.6154 30H23.0769C22.6521 30 22.3077 29.6556 22.3077 29.2308C22.3077 28.8059 22.6521 28.4615 23.0769 28.4615H24.6154C26.7396 28.4615 28.4615 26.7396 28.4615 24.6154V23.0769C28.4615 22.6521 28.8059 22.3077 29.2308 22.3077Z" fill="black"/>
<path d="M15.3846 23.0769C15.8094 23.0769 16.1538 23.4213 16.1538 23.8462V25.3846C16.1538 25.8094 15.8094 26.1538 15.3846 26.1538C14.9598 26.1538 14.6154 25.8094 14.6154 25.3846V23.8462C14.6154 23.4213 14.9598 23.0769 15.3846 23.0769Z" fill="black"/>
</svg>
