<svg width="24" height="24" viewBox="0 0 24 24" fill="none" xmlns="http://www.w3.org/2000/svg">
<path d="M5.99798 2.71875C5.73123 2.86574 5.48189 3.03309 5.25 3.21872C4.798 3.58042 4.28299 4.17442 4.09399 4.56242C4.02599 4.70192 4 4.84462 4 4.99992C4 6.37492 4 14.6249 4 15.9999V20.9999C4 21.5522 4.448 21.9999 5 21.9999C5.552 21.9999 6 21.5522 6 20.9999C6 18 6 4.56246 5.99798 2.71875Z" fill="black" fill-opacity="0.4"/>
<path fill-rule="evenodd" clip-rule="evenodd" d="M11.1135 2.56701C10.467 2.30885 9.69364 2.00002 8.50022 2C7.51732 1.99998 6.66276 2.35975 6 2.77473V2.79178V2.79367C6.00002 3.0938 6.00013 5.0086 6.00299 5.36322C6.14896 5.20397 6.36159 4.99151 6.6249 4.78086C7.17198 4.34319 7.82823 3.99999 8.50018 4C9.3001 4.00002 9.77914 4.18775 10.3826 4.42873L10.3979 4.43482C11.0422 4.69214 11.8132 5.00002 13.0002 5.00001C14.1777 5 15.0634 4.69999 15.7428 4.42871C15.8788 4.3744 15.9941 4.32663 16.098 4.28364L16.098 4.28363C16.2719 4.21164 16.4134 4.15303 16.5654 4.09952C16.7861 4.02185 16.9137 4.00001 17.0002 4.00001C17.175 4.00001 17.4334 4.09747 17.6681 4.33212C17.9027 4.56677 18.0002 4.82524 18.0002 5.00001V10.5C18.0002 12.3792 16.519 14 14.0002 14C12.9149 14 12.2871 13.7911 11.6507 13.56L11.5239 13.5138C10.8731 13.2757 10.1195 13 9.0002 13C7.8702 13 6.79328 13.3839 6.00001 13.7597V16.034C6.18447 15.9197 6.42243 15.7819 6.69741 15.6444C7.39081 15.2977 8.22678 15 9.0002 15C9.75989 15 10.2245 15.1692 10.8678 15.4035L10.9682 15.44C11.7089 15.7089 12.5855 16 14.0002 16C17.4814 16 20.0002 13.6208 20.0002 10.5V5.00001C20.0002 4.17478 19.5977 3.43325 19.0823 2.9179C18.567 2.40255 17.8254 2.00001 17.0002 2.00001C16.5867 2.00001 16.2133 2.10318 15.9013 2.213C15.7011 2.28348 15.4731 2.37758 15.2648 2.46356L15.2647 2.46359C15.1715 2.50207 15.0822 2.53893 15.0011 2.57131C14.4283 2.80002 13.814 3.00001 13.0002 3.00001C12.2053 3.00002 11.729 2.8128 11.1243 2.57133L11.1135 2.56701Z" fill="black"/>
</svg>
