<svg width="40" height="40" viewBox="0 0 40 40" fill="none" xmlns="http://www.w3.org/2000/svg">
<path opacity="0.3" fill-rule="evenodd" clip-rule="evenodd" d="M7 14C7 11.2386 9.23858 9 12 9H15.3014C16.7065 9 18.0085 9.7372 18.7314 10.942L19.9836 13.029C20.345 13.6314 20.996 14 21.6986 14H28C30.7614 14 33 16.2386 33 19V22.0221C31.3193 18.4627 27.6973 16 23.5 16C17.701 16 13 20.701 13 26.5C13 28.1104 13.3625 29.6361 14.0104 31H12C9.23858 31 7 28.7614 7 26V14Z" fill="black"/>
<path d="M28 31C30.7614 31 33 28.7614 33 26V22.0221C31.3193 18.4627 27.6973 16 23.5 16C17.701 16 13 20.701 13 26.5C13 28.1104 13.3625 29.6361 14.0104 31H28Z" fill="black"/>
</svg>
