<svg width="24" height="24" viewBox="0 0 24 24" fill="none" xmlns="http://www.w3.org/2000/svg">
<path fill-rule="evenodd" clip-rule="evenodd" d="M17.0041 9C17.2317 9 17.4513 9.052 17.6603 9.125C18.182 9.306 18.7601 9.022 18.9416 8.5C19.1231 7.978 18.8382 7.39999 18.3166 7.21899C17.897 7.07299 17.4562 7 17.0041 7V9ZM7.5979 17C7.2455 17.229 7.01621 17.604 7.1291 18.031C7.244 18.466 7.44111 18.88 7.6916 19.25C8.0011 19.707 8.6092 19.81 9.06661 19.5C9.52401 19.191 9.65731 18.582 9.3479 18.125C9.22271 17.94 9.1237 17.716 9.06661 17.5C9.00651 17.273 8.83461 17.125 8.66031 17H7.5979ZM18.9729 10.594C18.8574 10.054 19.1828 9.52201 19.7229 9.40601C20.263 9.29101 20.795 9.61601 20.9103 10.156C20.9651 10.413 21.0004 10.691 21.0041 10.969V11.406C21.0044 11.958 20.5564 12.406 20.0041 12.406C19.4518 12.407 19.0044 11.959 19.0041 11.406V10.969C19.0023 10.835 19.0002 10.722 18.9729 10.594ZM19.0041 14.406C19.0041 13.854 19.4518 13.406 20.0041 13.406C20.5564 13.406 21.0041 13.854 21.0041 14.406V15.406C21.0041 15.959 20.5564 16.406 20.0041 16.406C19.4518 16.406 19.0041 15.959 19.0041 15.406V14.406ZM18.7853 17.906C18.9115 17.661 19.1355 17.485 19.3791 17.406C19.6227 17.328 19.8835 17.343 20.1291 17.469C20.6204 17.721 20.8189 18.321 20.5666 18.812C20.3622 19.21 20.0772 19.598 19.7541 19.906C19.3547 20.288 18.7293 20.274 18.3479 19.875C17.9664 19.476 17.9797 18.819 18.3791 18.438C18.5413 18.283 18.6832 18.105 18.7853 17.906ZM10.1916 20C10.1916 19.448 10.6393 19 11.1916 19H12.1916C12.7439 19 13.1916 19.448 13.1916 20C13.1916 20.552 12.7439 21 12.1916 21H11.1916C10.6393 21 10.1916 20.552 10.1916 20ZM14.1916 20C14.1916 19.448 14.6393 19 15.1916 19H16.1916C16.7439 19 17.1916 19.448 17.1916 20C17.1916 20.552 16.7439 21 16.1916 21H15.1916C14.6393 21 14.1916 20.552 14.1916 20Z" fill="black" fill-opacity="0.4"/>
<path d="M7 3C4.7909 3 3 4.791 3 7V13C3 15.209 4.7909 17 7 17C8.0546 17 10.8164 17 13 17C15.2091 17 17 15.209 17 13C17 12 17 7 17 7C17 4.791 15.2091 3 13 3H7ZM7 5H13C14.1046 5 15 5.895 15 7V13C15 14.105 14.1046 15 13 15H7C5.8954 15 5 14.105 5 13V7C5 5.895 5.8954 5 7 5Z" fill="black"/>
</svg>
