<svg width="24" height="24" viewBox="0 0 24 24" fill="none" xmlns="http://www.w3.org/2000/svg">
<path d="M6.99829 3C4.78929 3 2.99829 4.791 2.99829 7V10C2.99829 10.552 3.44629 11 3.99829 11C4.55029 11 4.99829 10.552 4.99829 10V7C4.99829 5.895 5.89329 5 6.99829 5H9.99829C10.5503 5 10.9983 4.552 10.9983 4C10.9983 3.448 10.5503 3 9.99829 3H6.99829ZM13.9983 3C13.4463 3 12.9983 3.448 12.9983 4C12.9983 4.552 13.4463 5 13.9983 5H16.9983C18.1033 5 18.9983 5.895 18.9983 7V10C18.9983 10.552 19.4463 11 19.9983 11C20.5503 11 20.9983 10.552 20.9983 10V7C20.9983 4.791 19.2073 3 16.9983 3H13.9983ZM3.99829 13C3.44629 13 2.99829 13.448 2.99829 14V17C2.99829 19.209 4.78929 21 6.99829 21H9.99829C10.5503 21 10.9983 20.552 10.9983 20C10.9983 19.448 10.5503 19 9.99829 19H6.99829C5.89329 19 4.99829 18.105 4.99829 17V14C4.99829 13.448 4.55029 13 3.99829 13ZM19.9983 13C19.4463 13 18.9983 13.448 18.9983 14V17C18.9983 18.105 18.1033 19 16.9983 19H13.9983C13.4463 19 12.9983 19.448 12.9983 20C12.9983 20.552 13.4463 21 13.9983 21H16.9983C19.2073 21 20.9983 19.209 20.9983 17V14C20.9983 13.448 20.5503 13 19.9983 13Z" fill="black"/>
</svg>
