<svg width="24" height="24" viewBox="0 0 24 24" fill="none" xmlns="http://www.w3.org/2000/svg">
<path d="M9.99903 2C9.44673 2 8.99903 2.448 8.99903 3V7.062C8.99903 8.14399 8.12733 9 6.99903 9H2.99902C2.44672 9 1.99902 9.448 1.99902 10C1.99902 10.552 2.44672 11 2.99902 11H6.99903C9.21563 11 10.999 9.26499 10.999 7.062V3C10.999 2.448 10.551 2 9.99903 2ZM13.999 2C13.447 2 12.999 2.448 12.999 3V7.062C12.999 9.26499 14.782 11 16.999 11H20.999C21.551 11 21.999 10.552 21.999 10C21.999 9.448 21.551 9 20.999 9H16.999C15.871 9 14.999 8.14399 14.999 7.062V3C14.999 2.448 14.551 2 13.999 2ZM2.99902 13C2.44672 13 1.99902 13.448 1.99902 14C1.99902 14.552 2.44672 15 2.99902 15H6.99903C8.12483 15 8.99903 15.854 8.99903 16.938V21C8.99903 21.552 9.44673 22 9.99903 22C10.551 22 10.999 21.552 10.999 21V16.938C10.999 14.734 9.21483 13 6.99903 13H2.99902ZM16.999 13C14.782 13 12.999 14.735 12.999 16.938V21C13.001 21.552 13.447 22.002 13.999 22C14.551 21.998 15.001 21.552 14.999 21V16.938C14.999 15.859 15.871 15 16.999 15H20.999C21.551 15 21.999 14.552 21.999 14C21.999 13.448 21.551 13 20.999 13H16.999Z" fill="black"/>
</svg>
