<svg width="24" height="24" viewBox="0 0 24 24" fill="none" xmlns="http://www.w3.org/2000/svg">
<path d="M6.52881 2C5.12581 2 3.9978 3.128 3.9978 4.53V4.561C3.9978 6.083 4.7488 7.27899 6.62281 9.15199C6.50381 9.03299 7.01981 9.51199 7.15381 9.65199C7.36881 9.87399 7.5388 10.112 7.7168 10.339C8.5318 11.381 8.99781 12.54 8.99781 13.993C8.99781 14.912 8.99781 19.709 8.99781 20.989C8.99781 21.812 9.9318 22.295 10.5918 21.801C11.0918 21.426 14.0918 19.177 14.5918 18.802C14.8438 18.614 14.9978 18.305 14.9978 17.99C14.9978 17.866 14.9978 15.992 14.9978 13.993C14.9978 12.541 15.4648 11.381 16.2788 10.339C16.4568 10.111 16.6268 9.87499 16.8418 9.65199C16.9758 9.51199 17.4928 9.03199 17.3728 9.15199C19.2478 7.27799 19.9978 6.084 19.9978 4.561V4.53C19.9978 3.128 18.8698 2 17.4668 2H6.52881ZM6.52881 3.99899H17.4668C17.7648 3.99899 17.9978 4.232 17.9978 4.53V4.561C17.9978 5.397 17.4928 6.22099 15.9668 7.74699C16.1048 7.60899 15.5588 8.117 15.4038 8.278C15.1448 8.547 14.9088 8.80299 14.6858 9.08999C13.6118 10.463 12.9978 12.061 12.9978 13.993C12.9978 15.742 12.9978 17.021 12.9978 17.491C12.5178 17.851 11.8468 18.354 10.9978 18.99C10.9978 17.071 10.9978 14.65 10.9978 13.993C10.9978 12.06 10.3838 10.463 9.3098 9.08999C9.0868 8.80399 8.8508 8.547 8.5918 8.278C8.4368 8.117 7.89181 7.60999 8.02881 7.74699C6.50281 6.22199 5.9978 5.396 5.9978 4.561V4.53C5.9978 4.232 6.23081 3.99899 6.52881 3.99899Z" fill="black"/>
<path fill-rule="evenodd" clip-rule="evenodd" d="M17.4958 6C17.1761 6.48133 16.6843 7.04364 15.9668 7.76115C16.0503 7.67768 15.8835 7.83054 15.7044 8.00001L12 8.00004C11.4477 8.00004 11 7.55233 11 7.00005C11 6.44776 11.4477 6.00004 12 6.00004L17.4958 6Z" fill="black" fill-opacity="0.4"/>
</svg>
