<svg width="24" height="24" viewBox="0 0 24 24" fill="none" xmlns="http://www.w3.org/2000/svg">
<path d="M6.52881 2C5.12581 2 3.9978 3.12866 3.9978 4.53148V4.5625C3.9978 6.08539 4.7488 7.28208 6.6228 9.15617C6.5038 9.0371 7.01981 9.51638 7.15381 9.65646C7.36881 9.87859 7.53879 10.1167 7.71679 10.3439C8.53179 11.3865 8.9978 12.5462 8.9978 14C10 13.9928 14 14 14.9978 14C14.9978 12.5472 15.4648 11.3865 16.2788 10.3439C16.4568 10.1157 16.6268 9.87959 16.8418 9.65646C16.9758 9.51638 17.4928 9.0361 17.3728 9.15617C19.2478 7.28108 19.9978 6.08639 19.9978 4.5625V4.53148C19.9978 3.12866 18.8698 2 17.4668 2H6.52881Z" fill="black"/>
<path d="M15 14H9V21C9 21.824 9.94076 22.2944 10.6 21.8L14.6 18.8C14.8518 18.6111 15 18.3148 15 18V14Z" fill="black" fill-opacity="0.4"/>
</svg>
