<svg width="40" height="40" viewBox="0 0 40 40" fill="none" xmlns="http://www.w3.org/2000/svg">
<path opacity="0.3" fill-rule="evenodd" clip-rule="evenodd" d="M26.4222 9.08507C25.3809 8.99999 24.087 8.99999 22.4444 9H17.5556C15.913 8.99999 14.6191 8.99999 13.5778 9.08507C12.5154 9.17186 11.6283 9.35217 10.8221 9.76295C9.50493 10.4341 8.43407 11.5049 7.76295 12.8221C7.35217 13.6283 7.17186 14.5154 7.08507 15.5778C6.99999 16.6191 6.99999 17.913 7 19.5556V20.4444C6.99999 22.087 6.99999 23.3809 7.08507 24.4222C7.17186 25.4846 7.35217 26.3717 7.76295 27.1779C8.43407 28.4951 9.50493 29.5659 10.8221 30.237C11.6283 30.6478 12.5154 30.8281 13.5778 30.9149C14.6191 31 15.913 31 17.5556 31H22.4444C24.087 31 25.3809 31 26.4222 30.9149C27.4846 30.8281 28.3717 30.6478 29.1779 30.237C30.4951 29.5659 31.5659 28.4951 32.237 27.1779C32.6478 26.3717 32.8281 25.4846 32.9149 24.4222C33 23.3809 33 22.087 33 20.4444V19.5556C33 17.913 33 16.6191 32.9149 15.5778C32.8281 14.5154 32.6478 13.6283 32.237 12.8221C31.5659 11.5049 30.4951 10.4341 29.1779 9.76295C28.3717 9.35217 27.4846 9.17186 26.4222 9.08507Z" fill="black"/>
<path d="M15.1 15L15.0681 15C14.8157 15 14.5699 14.9999 14.3618 15.017C14.1332 15.0356 13.8634 15.0797 13.592 15.218C13.2157 15.4097 12.9097 15.7157 12.718 16.092C12.5797 16.3635 12.5356 16.6332 12.517 16.8618C12.4999 17.0699 12.5 17.3157 12.5 17.5681L12.5 17.6V24C12.5 24.5523 12.9477 25 13.5 25C14.0523 25 14.5 24.5523 14.5 24V21H16.5C17.0523 21 17.5 20.5523 17.5 20C17.5 19.4477 17.0523 19 16.5 19H14.5V17.6C14.5 17.3035 14.5008 17.1412 14.5103 17.0246L14.5115 17.0115L14.5246 17.0103C14.6412 17.0008 14.8035 17 15.1 17H18.5C19.0523 17 19.5 16.5523 19.5 16C19.5 15.4477 19.0523 15 18.5 15H15.1Z" fill="black"/>
<path d="M22.348 15.47C22.0553 15.0017 21.4383 14.8593 20.97 15.152C20.5017 15.4447 20.3593 16.0617 20.652 16.53L22.8208 20L20.652 23.47C20.3593 23.9383 20.5017 24.5553 20.97 24.848C21.4383 25.1407 22.0553 24.9983 22.348 24.53L24 21.8868L25.652 24.53C25.9447 24.9983 26.5617 25.1407 27.03 24.848C27.4983 24.5553 27.6407 23.9383 27.348 23.47L25.1793 20L27.348 16.53C27.6407 16.0617 27.4983 15.4447 27.03 15.152C26.5617 14.8593 25.9447 15.0017 25.652 15.47L24 18.1132L22.348 15.47Z" fill="black"/>
</svg>
