<svg width="40" height="40" viewBox="0 0 40 40" fill="none" xmlns="http://www.w3.org/2000/svg">
<path opacity="0.3" d="M20.0375 7C21.8695 7 23.2956 6.99999 24.4453 7.07844C25.6119 7.15803 26.5669 7.32172 27.4442 7.68508C29.6494 8.59853 31.4015 10.3506 32.3149 12.5558C32.6783 13.4331 32.842 14.3881 32.9216 15.5547C33 16.7044 33 18.1304 33 19.9624V20.0092C33 21.0827 33 22.0139 32.985 22.8268C33.0076 22.9559 33.0047 23.0886 32.9763 23.2168C32.9302 24.9837 32.7929 26.2903 32.3149 27.4442C31.4015 29.6494 29.6494 31.4015 27.4442 32.3149C26.5669 32.6783 25.6119 32.842 24.4453 32.9216C23.2956 33 21.8696 33 20.0376 33H19.9624C18.1304 33 16.7044 33 15.5547 32.9216C14.3881 32.842 13.4331 32.6783 12.5558 32.3149C10.3506 31.4015 8.59853 29.6494 7.68508 27.4442C7.37843 26.7038 7.21447 25.9098 7.1227 24.9804C6.99998 23.7377 6.99999 22.1643 7 20.0591V19.9625V19.9624C7 18.1304 6.99999 16.7044 7.07844 15.5547C7.15803 14.3881 7.32172 13.4331 7.68508 12.5558C8.59853 10.3506 10.3506 8.59853 12.5558 7.68508C13.4331 7.32172 14.3881 7.15803 15.5547 7.07844C16.7044 6.99999 18.1305 7 19.9625 7H20.0375Z" fill="black"/>
<path d="M26.6915 14.6316C27.6808 14.6316 28.4829 13.8186 28.4829 12.8158C28.4829 11.813 27.6808 11 26.6915 11C25.7021 11 24.9 11.813 24.9 12.8158C24.9 13.8186 25.7021 14.6316 26.6915 14.6316Z" fill="black"/>
<path fill-rule="evenodd" clip-rule="evenodd" d="M19.6687 33L19.866 33L19.1822 32.9998L19.6687 33ZM28.4829 12.8158C28.4829 13.8186 27.6808 14.6316 26.6915 14.6316C25.7021 14.6316 24.9 13.8186 24.9 12.8158C24.9 11.813 25.7021 11 26.6915 11C27.6808 11 28.4829 11.813 28.4829 12.8158Z" fill="black"/>
<path fill-rule="evenodd" clip-rule="evenodd" d="M32.3149 27.4442C32.7482 26.398 32.9016 25.2265 32.9608 23.7002L29.9881 20.6871C29.0553 19.7416 27.543 19.7416 26.6102 20.687L22.9986 24.3234L22.3 25.0147L21.4794 24.1679L16.851 19.4765C15.9182 18.531 14.4058 18.531 13.473 19.4765L7.19987 25.6115C7.299 26.2784 7.45018 26.877 7.68508 27.4442C8.59853 29.6494 10.3506 31.4015 12.5558 32.3149C13.4331 32.6783 14.3881 32.842 15.5547 32.9216C16.7044 33 18.1304 33 19.9624 33H20.0376C21.8696 33 23.2956 33 24.4453 32.9216C25.6119 32.842 26.5669 32.6783 27.4442 32.3149C29.6494 31.4015 31.4015 29.6494 32.3149 27.4442ZM28.4829 12.8158C28.4829 13.8186 27.6808 14.6316 26.6915 14.6316C25.7021 14.6316 24.9 13.8186 24.9 12.8158C24.9 11.813 25.7021 11 26.6915 11C27.6808 11 28.4829 11.813 28.4829 12.8158Z" fill="black"/>
</svg>
