<svg width="40" height="40" viewBox="0 0 40 40" fill="none" xmlns="http://www.w3.org/2000/svg">
<path opacity="0.3" d="M28.3086 11.0578C27.6007 11 26.7266 11 25.6428 11H14.3572C13.2734 11 12.3993 11 11.6914 11.0578C10.9625 11.1174 10.3223 11.2432 9.73005 11.545C8.78924 12.0243 8.02433 12.7892 7.54497 13.73C7.24318 14.3223 7.11737 14.9625 7.05782 15.6914C6.99998 16.3993 6.99999 17.2734 7 18.3572V21.6428C6.99999 22.7266 6.99998 23.6007 7.05782 24.3086C7.11737 25.0375 7.24866 25.6831 7.55045 26.2754C8.02982 27.2162 8.78924 27.9757 9.73005 28.455C10.3223 28.7568 10.9625 28.8826 11.6914 28.9422C12.0761 28.9736 12.51 28.988 13 28.9945C13.3925 28.9998 13.8211 29 14.2892 29H14.3572H24.2336H25.6428H25.6443C25.9449 29 26.2294 29 26.4987 28.9988C26.7031 28.9978 26.8987 28.9962 27.086 28.9933C27.5409 28.9862 27.9465 28.9718 28.3086 28.9422C29.0375 28.8826 29.6777 28.7568 30.27 28.455C31.0891 28.0377 31.7748 27.4039 32.2549 26.626C32.3262 26.5104 32.393 26.3917 32.455 26.27C32.7568 25.6777 32.8826 25.0375 32.9422 24.3086C33 23.6008 33 22.7266 33 21.6428V18.3572C33 17.2734 33 16.3993 32.9422 15.6914C32.8826 14.9625 32.7568 14.3223 32.455 13.73C31.9757 12.7892 31.2108 12.0243 30.27 11.545C29.6777 11.2432 29.0375 11.1174 28.3086 11.0578Z" fill="black"/>
<path fill-rule="evenodd" clip-rule="evenodd" d="M13 10C13 8.89543 13.8954 8 15 8H25C26.1045 8 27 8.89543 27 10H13Z" fill="black"/>
<path d="M29.3221 17.3333C29.9588 17.3333 30.4749 16.811 30.4749 16.1667C30.4749 15.5223 29.9588 15 29.3221 15C28.6855 15 28.1694 15.5223 28.1694 16.1667C28.1694 16.811 28.6855 17.3333 29.3221 17.3333Z" fill="black"/>
<path fill-rule="evenodd" clip-rule="evenodd" d="M30.4749 16.1667C30.4749 16.811 29.9588 17.3333 29.3221 17.3333C28.6855 17.3333 28.1694 16.811 28.1694 16.1667C28.1694 15.5223 28.6855 15 29.3221 15C29.9588 15 30.4749 15.5223 30.4749 16.1667Z" fill="black"/>
<path d="M28.3086 28.9422C29.0374 28.8826 29.6776 28.7568 30.2699 28.455C31.089 28.0377 31.7748 27.4039 32.2549 26.626L26.3402 20.8333C25.89 20.3777 25.1601 20.3777 24.7099 20.8333L21.1538 23.75L19.9559 24.6708L15.1512 19.8082C14.701 19.3526 13.9711 19.3526 13.5209 19.8082L7.49997 25.9017L7.42346 25.9782L7.55042 26.2754C8.02979 27.2162 8.78921 27.9757 9.73002 28.455C10.3223 28.7568 10.9625 28.8826 11.6913 28.9422C12.0761 28.9736 12.51 28.988 13 28.9945C13.3925 28.9998 13.821 29 14.2891 29H25.6443C25.9449 29 26.2294 29 26.4987 28.9988C26.7031 28.9978 26.8987 28.9962 27.0859 28.9933C27.5409 28.9862 27.9465 28.9718 28.3086 28.9422Z" fill="black"/>
</svg>
