<svg width="24" height="24" viewBox="0 0 24 24" fill="none" xmlns="http://www.w3.org/2000/svg">
<path fill-rule="evenodd" clip-rule="evenodd" d="M11 3C11 2.448 11.448 2 12 2C12.552 2 13 2.448 13 3L12.995 3.06799C13.894 3.17299 14.805 3.409 15.603 3.759L15.625 3.719C15.763 3.48 16.003 3.316 16.25 3.25C16.497 3.184 16.761 3.20599 17 3.344C17.478 3.62 17.639 4.22001 17.362 4.69901L17.332 4.746C18.034 5.269 18.738 5.979 19.261 6.681L19.331 6.63501C19.57 6.49601 19.815 6.46501 20.062 6.53101C20.31 6.59701 20.518 6.761 20.656 7C20.932 7.478 20.76 8.099 20.281 8.375L20.243 8.413C20.593 9.211 20.843 10.1 20.947 10.999L21 11C21.552 11 22 11.448 22 12C22 12.552 21.552 13 21 13L20.947 13.001C20.843 13.9 20.6 14.804 20.251 15.603L20.281 15.625C20.76 15.901 20.932 16.522 20.656 17C20.38 17.478 19.76 17.651 19.281 17.375L19.248 17.341C18.724 18.044 18.046 18.73 17.344 19.254L17.377 19.324C17.654 19.802 17.478 20.38 17 20.656C16.522 20.932 15.901 20.76 15.625 20.281L15.603 20.24C14.804 20.59 13.894 20.836 12.995 20.941L13 21C13 21.552 12.552 22 12 22C11.448 22 11 21.552 11 21L11.005 20.938C10.106 20.833 9.1912 20.604 8.393 20.254L8.375 20.281C8.0988 20.76 7.4783 20.932 7 20.656C6.5217 20.38 6.365 19.792 6.6412 19.313L6.6753 19.249C5.9732 18.726 5.2672 18.035 4.744 17.333L4.6905 17.369C4.2122 17.645 3.6199 17.478 3.3438 17C3.0676 16.522 3.2405 15.901 3.7188 15.625L3.7634 15.621C3.4137 14.823 3.1608 13.895 3.056 12.996L3 13C2.4477 13 2 12.552 2 12C2 11.448 2.4477 11 3 11L3.0451 11.012C3.1498 10.113 3.391 9.20102 3.7407 8.40302L3.7188 8.375C3.2404 8.099 3.0676 7.478 3.3438 7C3.4818 6.761 3.6903 6.59701 3.9375 6.53101C4.1847 6.46501 4.4517 6.48801 4.6909 6.62601L4.7514 6.66501C5.27461 5.96301 5.9682 5.25401 6.67031 4.731L6.6407 4.689C6.3646 4.211 6.5217 3.62 7 3.344C7.2391 3.20599 7.5028 3.184 7.75 3.25C7.9972 3.316 8.2369 3.48 8.375 3.719L8.4078 3.761C9.206 3.411 10.104 3.15799 11.003 3.05299L11 3ZM12 19C15.866 19 19 15.866 19 12C19 8.13401 15.866 5 12 5C8.13401 5 5 8.13401 5 12C5 15.866 8.13401 19 12 19Z" fill="black" fill-opacity="0.4"/>
<path fill-rule="evenodd" clip-rule="evenodd" d="M5.48682 14.5701L9.04757 12.5354C9.01628 12.3617 8.99994 12.1827 8.99994 12C8.99994 10.6938 9.83475 9.58254 10.9999 9.17071V5.07089C11.3265 5.02417 11.6604 5 11.9999 5C12.3395 5 12.6733 5.02417 12.9999 5.07089V9.17071C14.1651 9.58254 14.9999 10.6938 14.9999 12C14.9999 12.1827 14.9836 12.3616 14.9523 12.5353L18.5131 14.5701C18.265 15.1982 17.9287 15.7819 17.5194 16.3058L13.9596 14.2716C13.4339 14.7255 12.749 15 11.9999 15C11.2509 15 10.566 14.7255 10.0403 14.2716L6.48048 16.3058C6.0712 15.7819 5.73489 15.1982 5.48682 14.5701ZM10.9999 12C10.9999 11.4477 11.4477 11 11.9999 11C12.5522 11 12.9999 11.4477 12.9999 12C12.9999 12.5523 12.5522 13 11.9999 13C11.4477 13 10.9999 12.5523 10.9999 12Z" fill="black"/>
</svg>
