<svg width="24" height="24" viewBox="0 0 24 24" fill="none" xmlns="http://www.w3.org/2000/svg">
<path fill-rule="evenodd" clip-rule="evenodd" d="M13.8922 2.18124C13.5882 2.12824 13.2623 2.22024 13.0172 2.46324C12.957 2.52224 12.8173 2.63025 12.6422 2.74425C12.3913 2.90725 12.1755 3.02524 12.0172 3.02524L12.0025 3.0254C11.9866 3.02564 11.9646 3.02596 11.9547 3.02524C11.7827 3.01224 11.5572 2.90025 11.2984 2.74425C11.104 2.62725 10.9643 2.52724 10.8922 2.46324C10.3808 2.00824 9.56552 2.17624 9.29842 2.80624C9.24862 2.92424 9.11692 3.13124 8.95472 3.33824C8.80802 3.52524 8.66582 3.66424 8.54842 3.71324C8.48452 3.74024 8.41292 3.76824 8.29842 3.77524C8.08892 3.78824 7.83122 3.74024 7.57972 3.68124C7.52655 3.66913 7.47548 3.65876 7.4312 3.64978L7.43119 3.64978C7.36947 3.63725 7.32095 3.6274 7.29842 3.61925C6.64822 3.38525 5.98832 3.86624 5.98592 4.55624C5.98532 4.72524 5.93042 5.02624 5.82972 5.30625C5.77262 5.46525 5.71062 5.58124 5.64222 5.65024C5.56732 5.72624 5.41912 5.80025 5.23592 5.86925C4.93692 5.98125 4.63702 6.04623 4.45472 6.05623C3.76862 6.09623 3.31862 6.79623 3.57972 7.43123C3.58724 7.44989 3.59532 7.48533 3.60613 7.53268C3.61559 7.57414 3.62714 7.62475 3.64222 7.68123C3.70712 7.92623 3.75182 8.17225 3.73592 8.36925L3.73435 8.38895C3.72845 8.46364 3.725 8.50738 3.70472 8.55623C3.65332 8.68223 3.49952 8.85826 3.29842 9.02526C3.08212 9.20526 2.86182 9.33926 2.73592 9.40026C2.11902 9.70126 1.97032 10.5083 2.45472 10.9943C2.51462 11.0543 2.65272 11.1943 2.76722 11.3693C2.93082 11.6193 3.01652 11.8683 3.01722 12.0253L3.01746 12.0362C3.01767 12.0423 3.01787 12.0478 3.01722 12.0562C3.00412 12.2282 2.89232 12.4543 2.73592 12.7133L2.68208 12.8024C2.58812 12.9584 2.50912 13.0895 2.45472 13.1503C1.99762 13.6613 2.16682 14.4773 2.79842 14.7443C2.91372 14.7933 3.12522 14.8962 3.32972 15.0562C3.51372 15.2012 3.65522 15.3453 3.70472 15.4633C3.72569 15.5134 3.72853 15.5815 3.73194 15.6631L3.73194 15.6631C3.73301 15.6888 3.73414 15.7159 3.73592 15.7443C3.74922 15.9573 3.73072 16.2093 3.67342 16.4633C3.64482 16.5893 3.62432 16.6743 3.61092 16.7133C3.38472 17.3633 3.86022 18.0572 4.54842 18.0562C4.54842 18.0562 5.01892 18.0822 5.29842 18.1812C5.45652 18.2382 5.57372 18.3013 5.64222 18.3693C5.65035 18.3772 5.65405 18.3887 5.65776 18.4002C5.66148 18.4117 5.6652 18.4232 5.67342 18.4312C5.73702 18.5132 5.80252 18.6193 5.86092 18.7753C5.97282 19.0753 6.03822 19.4053 6.04842 19.5883C6.08702 20.2773 6.78642 20.6993 7.42342 20.4313C7.44143 20.424 7.47464 20.4166 7.51934 20.4065L7.5194 20.4065L7.51946 20.4065C7.56161 20.397 7.61396 20.3853 7.67342 20.3693C7.91592 20.3033 8.16602 20.2613 8.36092 20.2753C8.42681 20.2806 8.47048 20.3016 8.51088 20.321C8.52352 20.3271 8.53584 20.333 8.54842 20.3383C8.67252 20.3883 8.85042 20.5103 9.01722 20.7133C9.19632 20.9313 9.33112 21.1483 9.39222 21.2753C9.69052 21.8963 10.4984 22.0433 10.9859 21.5563C11.0463 21.4963 11.1855 21.3903 11.3609 21.2753C11.6116 21.1113 11.8603 21.0263 12.0172 21.0253H12.0484C12.2189 21.0383 12.4462 21.1183 12.7047 21.2753C12.8988 21.3933 13.0701 21.5233 13.1422 21.5883C13.6547 22.0483 14.4709 21.8483 14.7359 21.2133C14.7837 21.0983 14.8891 20.8853 15.0484 20.6813C15.1916 20.4993 15.3377 20.3873 15.4547 20.3383C15.5212 20.3103 15.6157 20.2823 15.7359 20.2753C15.9492 20.2623 16.2004 20.2813 16.4547 20.3383C16.5452 20.3581 16.6133 20.39 16.6593 20.4115C16.6782 20.4204 16.6933 20.4275 16.7047 20.4313C17.3521 20.6553 18.0449 20.1793 18.0484 19.4943C18.0493 19.3233 18.0729 18.9973 18.1734 18.7133C18.2066 18.6193 18.2517 18.5627 18.293 18.5108C18.3058 18.4948 18.3182 18.4793 18.3297 18.4633C18.3709 18.4223 18.4141 18.3793 18.4547 18.3383C18.4686 18.3283 18.4827 18.3178 18.4972 18.3071L18.4972 18.3071C18.5684 18.2542 18.6491 18.1943 18.7672 18.1503C19.0633 18.0413 19.3681 18.0023 19.5484 17.9943C20.2388 17.9643 20.7148 17.2593 20.4547 16.6193C20.4518 16.612 20.4474 16.6021 20.442 16.59L20.442 16.59C20.4214 16.5439 20.3862 16.4651 20.3609 16.3693C20.2965 16.1243 20.2826 15.8802 20.2984 15.6812L20.3016 15.6384C20.3067 15.5686 20.311 15.5083 20.3297 15.4633C20.381 15.3373 20.5047 15.1603 20.7047 14.9943C20.9201 14.8153 21.142 14.6803 21.2672 14.6193C21.8835 14.3203 22.0301 13.5133 21.5484 13.0253C21.4899 12.9663 21.3796 12.8243 21.2672 12.6503C21.1058 12.4013 21.0178 12.1853 21.0172 12.0253V11.9633C21.0318 11.7883 21.145 11.5652 21.2984 11.3062C21.4147 11.1112 21.5158 10.9423 21.5797 10.8693C22.0295 10.3563 21.834 9.57124 21.2047 9.30624C21.0881 9.25823 20.8794 9.12425 20.6734 8.96325C20.4877 8.81825 20.3787 8.67323 20.3297 8.55623C20.3025 8.49223 20.2741 8.42323 20.2672 8.30623C20.2547 8.09623 20.2713 7.84025 20.3297 7.58825C20.3526 7.48886 20.3881 7.39791 20.4093 7.34349L20.4093 7.34347C20.4154 7.32781 20.4203 7.31517 20.4234 7.30623C20.6546 6.65723 20.1754 5.99725 19.4859 5.99425C19.3176 5.99325 18.9852 5.93824 18.7047 5.83824C18.5568 5.78524 18.4624 5.71324 18.3922 5.65024C18.3891 5.64724 18.3828 5.64874 18.3766 5.65024C18.3703 5.65174 18.364 5.65324 18.3609 5.65024C18.2856 5.57624 18.2107 5.42725 18.1422 5.24425C18.0301 4.94525 17.9961 4.64524 17.9859 4.46324C17.9476 3.77624 17.2471 3.32624 16.6109 3.58824C16.5936 3.59546 16.5566 3.60244 16.5091 3.61142C16.4578 3.6211 16.3942 3.63311 16.3297 3.65024C16.0858 3.71524 15.8706 3.75825 15.6734 3.74425L15.6509 3.74279C15.5703 3.73761 15.5046 3.73339 15.4547 3.71324C15.3318 3.66224 15.1494 3.50724 14.9859 3.30624C14.8097 3.09124 14.7012 2.86925 14.6422 2.74425C14.4949 2.43225 14.1961 2.23524 13.8922 2.18124ZM12 13C12.5523 13 13 12.5523 13 12C13 11.4477 12.5523 11 12 11C11.4477 11 11 11.4477 11 12C11 12.5523 11.4477 13 12 13Z" fill="black" fill-opacity="0.4"/>
<path fill-rule="evenodd" clip-rule="evenodd" d="M11 6C11 5.44772 11.4477 5 12 5C12.5523 5 13 5.44772 13 6V9.17133C13.1706 9.23182 13.3381 9.30867 13.5005 9.40242C14.6317 10.0555 15.1767 11.3341 14.9508 12.5491L17.6967 14.1344C18.175 14.4106 18.3389 15.0222 18.0627 15.5004C17.7866 15.9787 17.175 16.1426 16.6967 15.8665L13.9508 14.2811C13.5459 14.6273 13.0593 14.8554 12.5459 14.9506C12.1805 15.0186 11.8092 15.017 11.451 14.9506C10.9377 14.8554 10.451 14.6274 10.0461 14.2812L7.30022 15.8666C6.82192 16.1427 6.21033 15.9788 5.93419 15.5006C5.65805 15.0223 5.82192 14.4107 6.30022 14.1345L9.04611 12.5492C8.82014 11.3342 9.3651 10.0555 10.4963 9.40242C10.6597 9.30809 10.8283 9.23087 11 9.17021V6ZM11.9984 11.0003C11.6539 11.0014 11.3192 11.1806 11.1345 11.5005C10.8583 11.9788 11.0222 12.5904 11.5005 12.8665C11.6576 12.9572 11.8291 13.0005 11.9984 13.0007C12.1677 13.0005 12.3392 12.9572 12.4963 12.8665C12.9746 12.5904 13.1385 11.9788 12.8624 11.5005C12.6777 11.1806 12.343 11.0014 11.9984 11.0003Z" fill="black"/>
</svg>
