<svg width="24" height="24" viewBox="0 0 24 24" fill="none" xmlns="http://www.w3.org/2000/svg">
<path fill-rule="evenodd" clip-rule="evenodd" d="M9.90711 2.75324C10.5217 2.24133 11.1021 2.00099 11.999 2C12.911 1.999 13.493 2.25601 14.124 2.78101C13.924 2.61401 14.62 3.19701 14.78 3.31301C14.981 3.45801 15.204 3.57801 15.468 3.68801C15.909 3.87001 16.17 3.89801 16.78 3.93801C17.188 3.96401 17.382 3.98901 17.655 4.06301C18.166 4.20001 18.611 4.48601 19.061 4.93801C19.502 5.37901 19.793 5.81201 19.936 6.31301C20.0107 6.57064 20.0265 6.78435 20.0529 7.14049C20.0555 7.17556 20.0581 7.212 20.061 7.25C20.109 7.877 20.159 8.11901 20.343 8.56301C20.448 8.817 20.581 9.027 20.718 9.219C20.789 9.31999 20.866 9.41301 20.968 9.53101C20.983 9.54901 21.184 9.797 21.249 9.875C21.768 10.496 22.003 11.091 21.999 12C21.9951 12.886 21.7521 13.4717 21.2522 14.0835C21.2262 14.1142 20.7845 14.6454 20.686 14.781C20.542 14.982 20.421 15.174 20.311 15.438C20.128 15.88 20.101 16.167 20.061 16.781C20.034 17.199 19.982 17.408 19.905 17.688C19.767 18.19 19.504 18.62 19.061 19.063C18.619 19.504 18.189 19.768 17.686 19.906C17.407 19.983 17.199 20.035 16.78 20.063C16.165 20.102 15.879 20.129 15.436 20.313C15.172 20.422 14.981 20.542 14.78 20.688C14.622 20.802 13.908 21.401 14.124 21.219C13.495 21.748 12.913 22.001 11.999 22C11.086 21.999 10.504 21.748 9.87403 21.219C10.078 21.39 9.375 20.802 9.21802 20.688C9.01602 20.54 8.79602 20.423 8.53003 20.313C8.08802 20.129 7.83002 20.101 7.21802 20.063C6.80103 20.036 6.59003 19.982 6.31104 19.906C5.80805 19.769 5.37903 19.506 4.93604 19.063C4.49604 18.621 4.23102 18.189 4.09302 17.688C4.01502 17.407 3.96405 17.202 3.93604 16.781C3.89603 16.165 3.87003 15.88 3.68604 15.438C3.57703 15.173 3.45804 14.982 3.31104 14.781C3.22766 14.6665 2.89572 14.2655 2.78495 14.1317C2.74292 14.0809 2.73273 14.0686 2.78003 14.125C2.25205 13.497 1.99802 12.91 1.99903 12C2 11.1038 2.23957 10.5204 2.75263 9.90746C2.66254 10.0156 3.20426 9.39515 3.31104 9.25C3.45905 9.04901 3.57605 8.82901 3.68604 8.56301C3.86905 8.12101 3.93003 7.86701 3.96802 7.25C3.99301 6.82501 4.01602 6.59601 4.09302 6.31301C4.23001 5.80901 4.49604 5.37901 4.93604 4.93801C5.37705 4.49601 5.81003 4.232 6.31104 4.094C6.59503 4.016 6.82404 3.96401 7.24903 3.93801C7.86402 3.90001 8.12003 3.87001 8.56104 3.68801C8.82703 3.57801 9.04901 3.45901 9.24903 3.31301C9.39594 3.20539 10.0158 2.6634 9.90711 2.75324ZM12 12.9858C12.5523 12.9858 13 12.5381 13 11.9858C13 11.4336 12.5523 10.9858 12 10.9858C11.4477 10.9858 11 11.4336 11 11.9858C11 12.5381 11.4477 12.9858 12 12.9858Z" fill="black" fill-opacity="0.4"/>
<path fill-rule="evenodd" clip-rule="evenodd" d="M11 6C11 5.44772 11.4477 5 12 5C12.5523 5 13 5.44772 13 6V9.17133C13.1706 9.23182 13.3381 9.30867 13.5005 9.40242C14.6317 10.0555 15.1767 11.3341 14.9508 12.5491L17.6967 14.1344C18.175 14.4106 18.3389 15.0222 18.0627 15.5004C17.7866 15.9787 17.175 16.1426 16.6967 15.8665L13.9508 14.2811C13.5459 14.6273 13.0593 14.8554 12.5459 14.9506C12.1805 15.0186 11.8092 15.017 11.451 14.9506C10.9377 14.8554 10.451 14.6274 10.0461 14.2812L7.30022 15.8666C6.82192 16.1427 6.21033 15.9788 5.93419 15.5006C5.65805 15.0223 5.82192 14.4107 6.30022 14.1345L9.04611 12.5492C8.82014 11.3342 9.3651 10.0555 10.4963 9.40242C10.6597 9.30809 10.8283 9.23087 11 9.17021V6ZM11.9984 11.0003C11.6539 11.0014 11.3192 11.1806 11.1345 11.5005C10.8583 11.9788 11.0222 12.5904 11.5005 12.8665C11.6576 12.9572 11.8291 13.0005 11.9984 13.0007C12.1677 13.0005 12.3392 12.9572 12.4963 12.8665C12.9746 12.5904 13.1385 11.9788 12.8624 11.5005C12.6777 11.1806 12.343 11.0014 11.9984 11.0003Z" fill="black"/>
</svg>
