<svg width="24" height="24" viewBox="0 0 24 24" fill="none" xmlns="http://www.w3.org/2000/svg">
<path fill-rule="evenodd" clip-rule="evenodd" d="M10.999 3.01416C10.999 2.46216 11.447 2.01416 11.999 2.01416C12.551 2.01416 12.999 2.46216 12.999 3.01416V3.23316C13.898 3.33716 14.795 3.44617 15.593 3.79517L15.624 3.73316C15.762 3.49316 16.002 3.33016 16.249 3.26416C16.496 3.19816 16.76 3.22016 16.999 3.35816C17.477 3.63416 17.65 4.25416 17.374 4.73316L17.28 4.92017C17.982 5.44317 18.57 6.03116 19.093 6.73316L19.28 6.63916C19.519 6.50116 19.814 6.47917 20.061 6.54517C20.309 6.61117 20.517 6.77516 20.655 7.01416C20.931 7.49216 20.759 8.11316 20.28 8.38916L20.218 8.42017C20.567 9.21817 20.676 10.1152 20.78 11.0142H20.999C21.551 11.0142 21.999 11.4622 21.999 12.0142C21.999 12.5662 21.551 13.0142 20.999 13.0142H20.78C20.675 13.9132 20.567 14.8102 20.218 15.6082L20.28 15.6392C20.758 15.9152 20.931 16.5362 20.655 17.0142C20.379 17.4922 19.759 17.6652 19.28 17.3892L19.093 17.2952C18.569 17.9972 17.982 18.5852 17.28 19.1082L17.374 19.2952C17.65 19.7732 17.477 20.3942 16.999 20.6702C16.521 20.9462 15.9 20.7742 15.624 20.2952L15.593 20.2332C14.795 20.5822 13.898 20.6912 12.999 20.7952V21.0142C12.999 21.5662 12.551 22.0142 11.999 22.0142C11.447 22.0142 10.999 21.5662 10.999 21.0142V20.7952C10.1 20.6912 9.20303 20.5822 8.40503 20.2332L8.37402 20.2952C8.09802 20.7742 7.47702 20.9462 6.99902 20.6702C6.52102 20.3942 6.34802 19.7742 6.62402 19.2952L6.71802 19.1082C6.01602 18.5852 5.42803 17.9972 4.90503 17.2952L4.71802 17.3892C4.24002 17.6652 3.61902 17.4922 3.34302 17.0142C3.06702 16.5362 3.23902 15.9152 3.71802 15.6392L3.78003 15.6082C3.43103 14.8102 3.32202 13.9132 3.21802 13.0142H2.99902C2.44702 13.0142 1.99902 12.5662 1.99902 12.0142C1.99902 11.4622 2.44702 11.0142 2.99902 11.0142H3.21802C3.32302 10.1152 3.43103 9.21817 3.78003 8.42017L3.71802 8.38916C3.24002 8.11316 3.06702 7.49216 3.34302 7.01416C3.48102 6.77516 3.68903 6.61117 3.93703 6.54517C4.18403 6.47917 4.47902 6.50116 4.71802 6.63916L4.90503 6.73316C5.42903 6.03116 6.01602 5.44317 6.71802 4.92017L6.62402 4.73316C6.34802 4.25416 6.52102 3.63416 6.99902 3.35816C7.23802 3.22016 7.50202 3.19816 7.74902 3.26416C7.99602 3.33016 8.23602 3.49416 8.37402 3.73316L8.40503 3.79517C9.20303 3.44617 10.1 3.33716 10.999 3.23316V3.01416ZM8.71802 6.88916C8.53302 6.68416 8.28603 6.55917 8.03003 6.54517C7.77503 6.53217 7.51702 6.64218 7.31102 6.82618C6.13902 7.88318 5.35302 9.28716 5.09302 10.8582C5.00202 11.4032 5.36003 11.9242 5.90503 12.0142C6.45003 12.1042 6.97102 11.7462 7.06102 11.2022C7.24702 10.0822 7.81703 9.05117 8.65503 8.29517C9.06603 7.92617 9.08702 7.29916 8.71802 6.88916ZM16.655 6.79517C16.449 6.61117 16.192 6.53117 15.937 6.54517C15.681 6.55917 15.433 6.68316 15.249 6.88916C14.881 7.30116 14.931 7.92717 15.343 8.29517C16.189 9.05317 16.751 10.0742 16.937 11.2022C17.026 11.7462 17.548 12.1042 18.093 12.0142C18.638 11.9242 18.995 11.4032 18.905 10.8582C18.644 9.27716 17.839 7.85417 16.655 6.79517ZM11.999 17.0142C11.425 17.0142 10.871 16.9192 10.343 16.7332C9.82202 16.5492 9.24502 16.8372 9.06102 17.3582C8.87802 17.8792 9.13403 18.4242 9.65503 18.6082C10.397 18.8692 11.198 19.0142 11.999 19.0142C12.806 19.0142 13.597 18.8732 14.343 18.6082C14.863 18.4232 15.121 17.8472 14.937 17.3262C14.752 16.8062 14.176 16.5482 13.655 16.7332C13.123 16.9222 12.577 17.0142 11.999 17.0142ZM12 13C12.5523 13 13 12.5523 13 12C13 11.4477 12.5523 11 12 11C11.4477 11 11 11.4477 11 12C11 12.5523 11.4477 13 12 13Z" fill="black" fill-opacity="0.4"/>
<path fill-rule="evenodd" clip-rule="evenodd" d="M11 6C11 5.44772 11.4477 5 12 5C12.5523 5 13 5.44772 13 6V9.17133C13.1706 9.23182 13.3381 9.30867 13.5005 9.40242C14.6317 10.0555 15.1767 11.3341 14.9508 12.5491L17.6967 14.1344C18.175 14.4106 18.3389 15.0222 18.0627 15.5004C17.7866 15.9787 17.175 16.1426 16.6967 15.8665L13.9508 14.2811C13.5459 14.6273 13.0593 14.8554 12.5459 14.9506C12.1805 15.0186 11.8092 15.017 11.451 14.9506C10.9377 14.8554 10.451 14.6274 10.0461 14.2812L7.30022 15.8666C6.82192 16.1427 6.21033 15.9788 5.93419 15.5006C5.65805 15.0223 5.82192 14.4107 6.30022 14.1345L9.04611 12.5492C8.82014 11.3342 9.3651 10.0555 10.4963 9.40242C10.6597 9.30809 10.8283 9.23087 11 9.17021V6ZM11.9984 11.0003C11.6539 11.0014 11.3192 11.1806 11.1345 11.5005C10.8583 11.9788 11.0222 12.5904 11.5005 12.8665C11.6576 12.9572 11.8291 13.0005 11.9984 13.0007C12.1677 13.0005 12.3392 12.9572 12.4963 12.8665C12.9746 12.5904 13.1385 11.9788 12.8624 11.5005C12.6777 11.1806 12.343 11.0014 11.9984 11.0003Z" fill="black"/>
</svg>
