<svg width="24" height="24" viewBox="0 0 24 24" fill="none" xmlns="http://www.w3.org/2000/svg">
<path fill-rule="evenodd" clip-rule="evenodd" d="M5.24902 4.64254C6.32702 3.63954 7.55002 2.90453 8.96802 2.45553C9.40002 2.31753 9.88102 2.50954 10.124 2.89254C11.073 4.38854 12.877 4.36154 13.843 2.86154C14.085 2.48554 14.54 2.32553 14.968 2.45553C16.361 2.87953 17.69 3.65254 18.78 4.64254C19.126 4.95654 19.198 5.45454 18.968 5.86154C18.141 7.32154 19.089 8.98353 20.78 8.98653C21.248 8.98753 21.647 9.31154 21.749 9.76754C21.91 10.4895 21.999 11.2325 21.999 11.9865C21.999 12.8635 21.953 13.4885 21.78 14.2055C21.673 14.6475 21.267 14.9475 20.811 14.9555C19.093 14.9845 18.136 16.5265 18.968 18.2055C19.166 18.6055 19.079 19.0925 18.749 19.3925C17.678 20.3695 16.386 21.1125 14.999 21.5485C14.579 21.6815 14.123 21.5065 13.874 21.1425C12.818 19.5985 11.205 19.6045 10.093 21.1425C9.84102 21.4915 9.37802 21.6465 8.96802 21.5175C7.53102 21.0675 6.31102 20.3755 5.24902 19.3925C4.93202 19.0995 4.85003 18.6295 5.03003 18.2365C5.84203 16.4675 4.94202 15.0815 3.12402 14.9245C2.68402 14.8855 2.30802 14.5745 2.21802 14.1425C2.07302 13.4505 1.99902 12.6735 1.99902 11.9865C1.99902 11.1675 2.07002 10.5435 2.24902 9.79853C2.35302 9.36753 2.74401 9.04054 3.18701 9.01754C4.99301 8.92654 5.83103 7.34254 5.03003 5.86154C4.81403 5.46054 4.91602 4.95354 5.24902 4.64254ZM12 18C15.3137 18 18 15.3137 18 12C18 8.68629 15.3137 6 12 6C8.68629 6 6 8.68629 6 12C6 15.3137 8.68629 18 12 18Z" fill="black"/>
<path fill-rule="evenodd" clip-rule="evenodd" d="M12 8C9.79086 8 8 9.79086 8 12C8 14.2091 9.79086 16 12 16C14.2091 16 16 14.2091 16 12C16 9.79086 14.2091 8 12 8ZM6 12C6 8.68629 8.68629 6 12 6C15.3137 6 18 8.68629 18 12C18 15.3137 15.3137 18 12 18C8.68629 18 6 15.3137 6 12Z" fill="black" fill-opacity="0.4"/>
</svg>
