<svg width="24" height="24" viewBox="0 0 24 24" fill="none" xmlns="http://www.w3.org/2000/svg">
<path fill-rule="evenodd" clip-rule="evenodd" d="M4 10C4 5.582 7.58199 2 12 2C16.418 2 20 5.582 20 10C20 13.518 17.629 17.809 14.719 20.719C13.761 21.677 12.749 22 12.031 22H12C11.311 22.01 10.421 21.738 9.562 20.969C9.459 20.875 9.379 20.793 9.281 20.688C6.248 17.412 4 13.467 4 10ZM12.0022 5.98584C9.79306 5.98584 8.0022 7.7767 8.0022 9.98584C8.0022 12.195 9.79306 13.9858 12.0022 13.9858C14.2113 13.9858 16.0022 12.195 16.0022 9.98584C16.0022 7.7767 14.2113 5.98584 12.0022 5.98584Z" fill="black" fill-opacity="0.4"/>
<path fill-rule="evenodd" clip-rule="evenodd" d="M12.0022 8C10.8976 8 10.0022 8.89543 10.0022 10C10.0022 11.1046 10.8976 12 12.0022 12C13.1068 12 14.0022 11.1046 14.0022 10C14.0022 8.89543 13.1068 8 12.0022 8ZM8.0022 10C8.0022 7.79086 9.79306 6 12.0022 6C14.2113 6 16.0022 7.79086 16.0022 10C16.0022 12.2091 14.2113 14 12.0022 14C9.79306 14 8.0022 12.2091 8.0022 10Z" fill="black"/>
</svg>
