<svg width="24" height="24" viewBox="0 0 24 24" fill="none" xmlns="http://www.w3.org/2000/svg">
<path d="M11.9968 2C9.23583 2 6.99683 4.239 6.99683 7C6.99683 9.404 8.74183 11.416 11.0038 11.895L10.9968 17C10.9968 17.552 11.4448 18 11.9968 18C12.5488 18 12.9968 17.552 12.9968 17L13.0008 11.895C15.2618 11.416 16.9968 9.404 16.9968 7C16.9968 4.239 14.7578 2 11.9968 2ZM11.9968 6C12.5488 6 12.9968 6.448 12.9968 7C12.9968 7.552 12.5488 8 11.9968 8C11.4448 8 10.9968 7.552 10.9968 7C10.9968 6.448 11.4448 6 11.9968 6Z" fill="black"/>
<path d="M15.875 15.188C15.62 15.216 15.391 15.347 15.219 15.562C14.874 15.994 14.944 16.624 15.375 16.969C15.798 17.307 16 17.674 16 18C16 18.969 14.281 20 12 20C9.719 20 8 18.969 8 18C8 17.675 8.206 17.337 8.625 17C9.055 16.654 9.12801 16.024 8.78101 15.594C8.60801 15.379 8.34799 15.246 8.09399 15.219C7.83899 15.191 7.59 15.264 7.375 15.438C6.516 16.128 6 17.015 6 18C6 20.345 8.758 22 12 22C15.242 22 18 20.345 18 18C18 17.011 17.49 16.098 16.625 15.406C16.409 15.234 16.13 15.159 15.875 15.188Z" fill="black" fill-opacity="0.4"/>
</svg>
