<svg width="24" height="24" viewBox="0 0 24 24" fill="none" xmlns="http://www.w3.org/2000/svg">
<path d="M11.9978 2C7.5795 2 3.9978 5.582 3.9978 9.99999C3.9978 13.467 6.2456 17.412 9.279 20.688C9.377 20.793 9.4563 20.875 9.5603 20.969C10.4183 21.738 11.3084 22.01 11.9978 22C12.0065 22 12.022 22 12.029 22C12.7465 22 13.7583 21.677 14.7166 20.719C17.6266 17.809 19.9978 13.518 19.9978 9.99999C19.9978 5.582 16.4161 2 11.9978 2ZM11.9978 4C15.3115 4 17.9978 6.686 17.9978 9.99999C17.9978 12.886 15.8501 16.71 13.279 19.281C12.7373 19.823 12.2528 20 11.9978 20C11.9766 20 11.9615 20 11.9666 20C11.7392 20.003 11.3423 19.893 10.904 19.5C10.846 19.448 10.7726 19.373 10.7166 19.312C7.9958 16.375 5.9978 12.833 5.9978 9.99999C5.9978 6.686 8.6841 4 11.9978 4Z" fill="black" fill-opacity="0.4"/>
<path fill-rule="evenodd" clip-rule="evenodd" d="M12 9C11.4477 9 11 9.44772 11 10C11 10.5523 11.4477 11 12 11C12.5523 11 13 10.5523 13 10C13 9.44772 12.5523 9 12 9ZM9 10C9 8.34315 10.3431 7 12 7C13.6569 7 15 8.34315 15 10C15 11.6569 13.6569 13 12 13C10.3431 13 9 11.6569 9 10Z" fill="black"/>
</svg>
