<svg width="40" height="40" viewBox="0 0 40 40" fill="none" xmlns="http://www.w3.org/2000/svg">
<path opacity="0.3" d="M20.5 7C14.1584 7 9 12.0915 9 18.3936V27.7318C9 30.1161 11.4728 31.6692 13.6321 30.7193C14.5067 30.3345 15.5288 30.4923 16.2396 31.1177L16.6645 31.4915C18.8617 33.4248 22.1431 33.5088 24.4379 31.6915L24.9287 31.3028C25.8595 30.5658 27.1412 30.4306 28.2097 30.9594C29.9376 31.8146 32 30.579 32 28.6276V18.3936C32 12.0915 26.8416 7 20.5 7Z" fill="black"/>
<path d="M16.4955 22.1366C16.9723 21.858 17.5848 22.0186 17.8634 22.4955C18.3884 23.3939 19.3709 24 20.5 24C21.6291 24 22.6116 23.3939 23.1366 22.4955C23.4152 22.0186 24.0277 21.858 24.5045 22.1366C24.9814 22.4152 25.142 23.0277 24.8634 23.5045C23.9911 24.9973 22.362 26 20.5 26C18.638 26 17.0089 24.9973 16.1366 23.5045C15.858 23.0277 16.0186 22.4152 16.4955 22.1366Z" fill="black"/>
<path d="M16.5 18C17.3284 18 18 17.3284 18 16.5C18 15.6716 17.3284 15 16.5 15C15.6716 15 15 15.6716 15 16.5C15 17.3284 15.6716 18 16.5 18Z" fill="black"/>
<path d="M24.5 18C25.3284 18 26 17.3284 26 16.5C26 15.6716 25.3284 15 24.5 15C23.6716 15 23 15.6716 23 16.5C23 17.3284 23.6716 18 24.5 18Z" fill="black"/>
</svg>
