<svg width="40" height="40" viewBox="0 0 40 40" fill="none" xmlns="http://www.w3.org/2000/svg">
<path opacity="0.3" d="M24.4453 7.07844C23.2956 6.99999 21.8695 7 20.0375 7H19.9625C18.1305 7 16.7044 6.99999 15.5547 7.07844C14.3881 7.15803 13.4331 7.32172 12.5558 7.68508C10.3506 8.59853 8.59853 10.3506 7.68508 12.5558C7.32172 13.4331 7.15803 14.3881 7.07844 15.5547C6.99999 16.7044 7 18.1305 7 19.9625V20.0375C7 21.8695 6.99999 23.2956 7.07844 24.4453C7.15803 25.6119 7.32172 26.5669 7.68508 27.4442C8.59853 29.6494 10.3506 31.4015 12.5558 32.3149C13.4331 32.6783 14.3881 32.842 15.5547 32.9216C16.7044 33 18.1304 33 19.9624 33H20.0376C21.8696 33 23.2956 33 24.4453 32.9216C25.6119 32.842 26.5669 32.6783 27.4442 32.3149C29.6494 31.4015 31.4015 29.6494 32.3149 27.4442C32.6783 26.5669 32.842 25.6119 32.9216 24.4453C33 23.2956 33 21.8696 33 20.0376V19.9624C33 18.1304 33 16.7044 32.9216 15.5547C32.842 14.3881 32.6783 13.4331 32.3149 12.5558C31.4015 10.3506 29.6494 8.59853 27.4442 7.68508C26.5669 7.32172 25.6119 7.15803 24.4453 7.07844Z" fill="black"/>
<path d="M29 15C29.5523 15 30 15.4477 30 16C30 16.5523 29.5523 17 29 17H25.6C25.3035 17 25.1412 17.0008 25.0246 17.0103L25.0115 17.0115L25.0103 17.0246C25.0008 17.1412 25 17.3035 25 17.6V19H27C27.5523 19 28 19.4477 28 20C28 20.5523 27.5523 21 27 21H25V24C25 24.5523 24.5523 25 24 25C23.4477 25 23 24.5523 23 24L23 17.5681C23 17.3157 22.9999 17.0699 23.0169 16.8618C23.0356 16.6332 23.0797 16.3634 23.218 16.092C23.4097 15.7157 23.7157 15.4097 24.092 15.218C24.3634 15.0797 24.6332 15.0356 24.8618 15.017C25.0699 14.9999 25.3157 15 25.5681 15L29 15Z" fill="black"/>
<path d="M10 20C10 17.2386 12.2386 15 15 15H17C17.5523 15 18 15.4477 18 16C18 16.5523 17.5523 17 17 17H15C13.3431 17 12 18.3432 12 20C12 21.6569 13.3431 23 15 23H15.9281C16.2042 23 16.4281 22.7761 16.4281 22.5V21.5C16.4281 21.2239 16.2042 21 15.9281 21H15C14.4477 21 14 20.5523 14 20C14 19.4477 14.4477 19 15 19H16.5C17.6084 19 18.4879 19.8948 18.5145 20.9759L18.5179 21.1091L18.5202 21.2002C18.5315 21.6549 18.5404 22.0962 18.5135 22.4785C18.4823 22.9229 18.3968 23.4311 18.1062 23.8792C17.7923 24.3633 17.3275 24.6469 16.7964 24.8036C16.2945 24.9516 15.6905 25 15 25C12.2386 25 10 22.7614 10 20Z" fill="black"/>
<path d="M20.5 15.0294C21.0523 15.0294 21.5 15.4771 21.5 16.0294V16.5C21.5 17.0523 21.0523 17.5 20.5 17.5C19.9477 17.5 19.5 17.0523 19.5 16.5V16.0294C19.5 15.4771 19.9477 15.0294 20.5 15.0294Z" fill="black"/>
<path d="M20.5 18.3235C21.0523 18.3235 21.5 18.7712 21.5 19.3235V24.0294C21.5 24.5817 21.0523 25.0294 20.5 25.0294C19.9477 25.0294 19.5 24.5817 19.5 24.0294V19.3235C19.5 18.7712 19.9477 18.3235 20.5 18.3235Z" fill="black"/>
</svg>
