<svg width="24" height="24" viewBox="0 0 24 24" fill="none" xmlns="http://www.w3.org/2000/svg">
<path fill-rule="evenodd" clip-rule="evenodd" d="M10 12C10 9.59229 10.3268 7.45402 10.8274 5.95227C11.0794 5.19616 11.3575 4.65642 11.6177 4.32624C11.7455 4.16408 11.8494 4.07752 11.9186 4.03507C11.9515 4.01483 11.9736 4.00645 11.9847 4.00305C11.9948 3.99998 11.999 4 11.9999 4L12 4L12.0001 4C12.001 4 12.0052 3.99998 12.0153 4.00305C12.0264 4.00645 12.0485 4.01483 12.0814 4.03507C12.1506 4.07752 12.2545 4.16408 12.3823 4.32624C12.6425 4.65642 12.9206 5.19616 13.1726 5.95227C13.3667 6.53459 13.5347 7.21263 13.6676 7.96496C13.1255 7.98804 12.5685 8.0001 11.9999 8.0001C11.4313 8.0001 10.8744 7.98805 10.3324 7.96497C10.2233 8.58245 10.1378 9.24997 10.0809 9.95572C10.7062 9.98497 11.3474 10.0001 11.9999 10.0001C12.6525 10.0001 13.2937 9.98496 13.9192 9.95571C13.9718 10.6076 14 11.2922 14 12C14 12.7079 13.9718 13.3924 13.9192 14.0444C13.2938 14.0151 12.6525 14 12 14C11.3476 14 10.7063 14.0151 10.0809 14.0444C10.1378 14.7501 10.2233 15.4177 10.3324 16.0351C10.8744 16.0121 11.4313 16 12 16C12.5686 16 13.1255 16.0121 13.6676 16.0351C13.5347 16.7874 13.3667 17.4654 13.1726 18.0477C12.9206 18.8038 12.6425 19.3436 12.3823 19.6738C12.2545 19.8359 12.1506 19.9225 12.0814 19.9649C12.0485 19.9852 12.0264 19.9935 12.0153 19.9969C12.0049 20.0001 12.0007 20 12 20H11.9999C11.999 20 11.9948 20 11.9847 19.9969C11.9736 19.9935 11.9515 19.9852 11.9186 19.9649C11.8494 19.9225 11.7455 19.8359 11.6177 19.6738C11.3575 19.3436 11.0794 18.8038 10.8274 18.0477C10.3268 16.546 10 14.4077 10 12ZM12 2C11.1481 2 10.4956 2.51889 10.0469 3.08829C9.58923 3.66896 9.22085 4.44724 8.93 5.31981C8.68409 6.05754 8.48063 6.9023 8.32737 7.82403C7.27787 7.71957 6.31222 7.57215 5.45999 7.39138C5.06346 7.95304 4.73746 8.56806 4.49487 9.22353C5.55063 9.47736 6.7652 9.67673 8.08612 9.80988C8.02958 10.5159 8 11.2493 8 12C8 12.7507 8.02959 13.4842 8.08613 14.1902C6.76577 14.3233 5.5512 14.5226 4.495 14.7766C4.73758 15.432 5.06358 16.047 5.46011 16.6087C6.31197 16.428 7.27756 16.2806 8.32738 16.1761C8.48064 17.0978 8.6841 17.9425 8.93 18.6802C9.22085 19.5528 9.58923 20.331 10.0469 20.9117C10.4956 21.4811 11.1481 22 12 22C12.8519 22 13.5044 21.4811 13.9531 20.9117C14.4108 20.331 14.7791 19.5528 15.07 18.6802C15.6552 16.9246 16 14.5629 16 12C16 9.43715 15.6552 7.07541 15.07 5.31981C14.7791 4.44724 14.4108 3.66896 13.9531 3.08829C13.5044 2.51889 12.8519 2 12 2ZM18.5398 7.39136C17.6877 7.57212 16.7221 7.71954 15.6727 7.82401C15.7773 8.45326 15.8585 9.1184 15.9139 9.80985C17.2348 9.67669 18.4493 9.47732 19.505 9.22351C19.2624 8.56803 18.9364 7.95302 18.5398 7.39136ZM19.505 14.7766C18.4493 14.5228 17.2348 14.3234 15.9139 14.1902C15.8585 14.8817 15.7773 15.5468 15.6726 16.1761C16.7221 16.2806 17.6877 16.428 18.5399 16.6087C18.9364 16.0471 19.2625 15.4321 19.505 14.7766Z" fill="black" fill-opacity="0.4"/>
<path fill-rule="evenodd" clip-rule="evenodd" d="M12 4C7.58172 4 4 7.58172 4 12C4 16.4183 7.58172 20 12 20C16.4183 20 20 16.4183 20 12C20 7.58172 16.4183 4 12 4ZM2 12C2 6.47715 6.47715 2 12 2C17.5228 2 22 6.47715 22 12C22 17.5228 17.5228 22 12 22C6.47715 22 2 17.5228 2 12Z" fill="black"/>
</svg>
