<svg width="24" height="24" viewBox="0 0 24 24" fill="none" xmlns="http://www.w3.org/2000/svg">
<path d="M24.0001 12.2878C24.0001 11.4773 23.9201 10.6407 23.7867 9.85645H12.2363V14.4838H18.8518C18.585 15.974 17.7048 17.2812 16.3977 18.1178L20.3456 21.1243C22.6664 19.0067 24.0001 15.9217 24.0001 12.2878Z" fill="black" fill-opacity="0.4"/>
<path d="M12.2377 24.0002C15.5454 24.0002 18.3196 22.9283 20.3469 21.0983L16.399 18.118C15.3053 18.85 13.8915 19.2683 12.2377 19.2683C9.03662 19.2683 6.34241 17.1506 5.35543 14.3271L1.30078 17.3859C3.38145 21.4382 7.59615 24.0002 12.2377 24.0002Z" fill="black"/>
<path d="M5.35507 14.3004C4.84824 12.8103 4.84824 11.1894 5.35507 9.69919L1.30042 6.61426C-0.433474 10.0129 -0.433474 14.0129 1.30042 17.3854L5.35507 14.3004Z" fill="black" fill-opacity="0.4"/>
<path d="M12.2377 4.75857C13.9715 4.73242 15.6788 5.38601 16.9325 6.56247L20.427 3.11153C18.2129 1.07234 15.2786 -0.0256872 12.2377 0.000456279C7.59615 0.000456279 3.38145 2.56252 1.30078 6.61475L5.35543 9.69968C6.34241 6.85004 9.03662 4.75857 12.2377 4.75857Z" fill="black"/>
</svg>