<svg width="24" height="24" viewBox="0 0 24 24" fill="none" xmlns="http://www.w3.org/2000/svg">
<path fill-rule="evenodd" clip-rule="evenodd" d="M2 9C2 6.79086 3.79086 5 6 5H18C20.2091 5 22 6.79086 22 9V15C22 17.2091 20.2091 19 18 19H6C3.79086 19 2 17.2091 2 15V9ZM6 7C4.89543 7 4 7.89543 4 9V15C4 16.1046 4.89543 17 6 17H18C19.1046 17 20 16.1046 20 15V9C20 7.89543 19.1046 7 18 7H6Z" fill="black" fill-opacity="0.4"/>
<path fill-rule="evenodd" clip-rule="evenodd" d="M8 7H10V11H14V7H16V11H20V13H16V17H14V13H10V17H8V13H4V11H8V7Z" fill="black"/>
</svg>
