<svg width="24" height="24" viewBox="0 0 24 24" fill="none" xmlns="http://www.w3.org/2000/svg">
<path d="M2.99902 5.00488C2.44702 5.00488 1.99902 5.45288 1.99902 6.00488C1.99902 6.55688 2.44702 7.00488 2.99902 7.00488H4.99902V9.00488H2.99902C2.44702 9.00488 1.99902 9.45288 1.99902 10.0049C1.99902 10.5569 2.44702 11.0049 2.99902 11.0049H5.99902C6.55102 11.0049 6.99902 10.5569 6.99902 10.0049V6.00488C6.99902 5.45288 6.55102 5.00488 5.99902 5.00488H2.99902ZM9.99902 5.00488C9.44702 5.00488 8.99902 5.45288 8.99902 6.00488C8.99902 6.50488 8.99902 9.50488 8.99902 10.0049C8.99902 10.5569 9.44702 11.0049 9.99902 11.0049H13.999C14.551 11.0049 14.999 10.5569 14.999 10.0049V6.00488C14.999 5.45288 14.551 5.00488 13.999 5.00488H9.99902ZM17.999 5.00488C17.447 5.00488 16.999 5.45288 16.999 6.00488V10.0049C16.999 10.5569 17.447 11.0049 17.999 11.0049H20.999C21.551 11.0049 21.999 10.5569 21.999 10.0049C21.999 9.45288 21.551 9.00488 20.999 9.00488H18.999V7.00488H20.999C21.551 7.00488 21.999 6.55688 21.999 6.00488C21.999 5.45288 21.551 5.00488 20.999 5.00488H17.999ZM10.999 7.00488H12.999V9.00488H10.999C10.999 8.28588 10.999 7.72388 10.999 7.00488Z" fill="black"/>
<path d="M3 13C2.448 13 2 13.448 2 14C2 14.552 2.448 15 3 15H5V17H3C2.448 17 2 17.448 2 18C2 18.552 2.448 19 3 19H6C6.552 19 7 18.552 7 18V14C7 13.448 6.552 13 6 13H3ZM10 13C9.448 13 9 13.448 9 14C9 14.5 9 17.5 9 18C9 18.552 9.448 19 10 19H14C14.552 19 15 18.552 15 18V14C15 13.448 14.552 13 14 13H10ZM18 13C17.448 13 17 13.448 17 14V18C17 18.552 17.448 19 18 19H21C21.552 19 22 18.552 22 18C22 17.448 21.552 17 21 17H19V15H21C21.552 15 22 14.552 22 14C22 13.448 21.552 13 21 13H18ZM11 15H13V17H11C11 16.281 11 15.719 11 15Z" fill="black" fill-opacity="0.4"/>
</svg>
