<svg width="24" height="24" viewBox="0 0 24 24" fill="none" xmlns="http://www.w3.org/2000/svg">
<path d="M14.9983 3C13.8933 3 12.9983 3.895 12.9983 5V9C12.9983 10.105 13.8933 11 14.9983 11H18.9983C20.1033 11 20.9983 10.105 20.9983 9V5C20.9983 3.895 20.1033 3 18.9983 3H14.9983ZM14.9983 5H18.9983V9H14.9983V5ZM14.9983 13C13.8933 13 12.9983 13.895 12.9983 15V19C12.9983 20.105 13.8933 21 14.9983 21H18.9983C20.1033 21 20.9983 20.105 20.9983 19V15C20.9983 13.895 20.1033 13 18.9983 13H14.9983ZM14.9983 15H18.9983V19H14.9983V15Z" fill="black" fill-opacity="0.4"/>
<path d="M5 3C3.895 3 3 3.895 3 5V19C3 20.105 3.895 21 5 21H9C10.105 21 11 20.105 11 19V5C11 3.895 10.105 3 9 3H5ZM5 5H9V19H5V5Z" fill="black"/>
</svg>
