<svg width="24" height="24" viewBox="0 0 24 24" fill="none" xmlns="http://www.w3.org/2000/svg">
<path fill-rule="evenodd" clip-rule="evenodd" d="M15 3C13.895 3 13 3.895 13 5V9C13 10.105 13.895 11 15 11H19C20.105 11 21 10.105 21 9V5C21 3.895 20.105 3 19 3H15ZM15 5H19V9H15V5ZM5 13C3.895 13 3 13.895 3 15V19C3 20.105 3.895 21 5 21H9C10.105 21 11 20.105 11 19V15C11 13.895 10.105 13 9 13H5ZM5 15H9V19H5V15ZM13 15C13 13.895 13.895 13 15 13H19C20.105 13 21 13.895 21 15V19C21 20.105 20.105 21 19 21H15C13.895 21 13 20.105 13 19V15ZM19 15H15V19H19V15Z" fill="black" fill-opacity="0.4"/>
<path d="M4.99829 3C3.89369 3 2.99829 3.895 2.99829 5V9C2.99829 10.105 3.89369 11 4.99829 11H8.99829C10.1033 11 10.9983 10.105 10.9983 9V5C10.9983 3.895 10.1033 3 8.99829 3H4.99829ZM4.99829 5H8.99829V9H4.99829V5Z" fill="black"/>
</svg>
