<svg width="24" height="24" viewBox="0 0 24 24" fill="none" xmlns="http://www.w3.org/2000/svg">
<path d="M7 3C6.4477 3 6 3.448 6 4V6H4C3.4477 6 3 6.448 3 7C3 7.552 3.4477 8 4 8H7C7.5523 8 8 7.552 8 7V4C8 3.448 7.5523 3 7 3ZM10 3C9.4477 3 9 3.448 9 4V7C9 7.552 9.4477 8 10 8H14C14.5523 8 15 7.552 15 7V4C15 3.448 14.5523 3 14 3C13.4477 3 13 3.448 13 4V6H11V4C11 3.448 10.5523 3 10 3ZM17 3C16.4477 3 16 3.448 16 4V7C16 7.552 16.4477 8 17 8H20C20.5523 8 21 7.552 21 7C21 6.448 20.5523 6 20 6H18V4C18 3.448 17.5523 3 17 3ZM4 16C3.4477 16 3 16.448 3 17C3 17.552 3.4477 18 4 18H6V20C6 20.552 6.4477 21 7 21C7.5523 21 8 20.552 8 20V17C8 16.448 7.5523 16 7 16H4ZM10 16C9.4477 16 9 16.448 9 17V20C9 20.552 9.4477 21 10 21C10.5523 21 11 20.552 11 20V18H13V20C13 20.552 13.4477 21 14 21C14.5523 21 15 20.552 15 20V17C15 16.448 14.5523 16 14 16H10ZM17 16C16.4477 16 16 16.448 16 17V20C16 20.552 16.4477 21 17 21C17.5523 21 18 20.552 18 20V18H20C20.5523 18 21 17.552 21 17C21 16.448 20.5523 16 20 16H17Z" fill="black" fill-opacity="0.4"/>
<path d="M3.99829 9C3.44599 9 2.99829 9.448 2.99829 10C2.99829 10.552 3.44599 11 3.99829 11H5.99829V13H3.99829C3.44599 13 2.99829 13.448 2.99829 14C2.99829 14.552 3.44599 15 3.99829 15H6.99829C7.55059 15 7.99829 14.552 7.99829 14V10C7.99829 9.448 7.55059 9 6.99829 9H3.99829ZM9.99829 9C9.44599 9 8.99829 9.448 8.99829 10C8.99829 10.5 8.99829 13.5 8.99829 14C8.99829 14.552 9.44599 15 9.99829 15H13.9983C14.5506 15 14.9983 14.552 14.9983 14V10C14.9983 9.448 14.5506 9 13.9983 9H9.99829ZM16.9983 9C16.446 9 15.9983 9.448 15.9983 10V14C15.9983 14.552 16.446 15 16.9983 15H19.9983C20.5506 15 20.9983 14.552 20.9983 14C20.9983 13.448 20.5506 13 19.9983 13H17.9983V11H19.9983C20.5506 11 20.9983 10.552 20.9983 10C20.9983 9.448 20.5506 9 19.9983 9H16.9983ZM10.9983 11H12.9983V13H10.9983C10.9983 12.281 10.9983 11.719 10.9983 11Z" fill="black"/>
</svg>
