<svg width="24" height="24" viewBox="0 0 24 24" fill="none" xmlns="http://www.w3.org/2000/svg">
<path d="M5 4C4.448 4 4 4.448 4 5C4 5.25 4 6.75 4 7C4 7.552 4.448 8 5 8H6.99999C7.55199 8 7.99999 7.552 7.99999 7V5C7.99999 4.448 7.55199 4 6.99999 4H5ZM11 4C10.448 4 9.99999 4.448 9.99999 5C9.99999 5.25 9.99999 6.75 9.99999 7C9.99999 7.552 10.448 8 11 8H13C13.552 8 14 7.552 14 7V5C14 4.448 13.552 4 13 4H11ZM17 4C16.448 4 16 4.448 16 5C16 5.25 16 6.75 16 7C16 7.552 16.448 8 17 8H19C19.552 8 20 7.552 20 7V5C20 4.448 19.552 4 19 4H17ZM5 16C4.448 16 4 16.448 4 17C4 17.25 4 18.75 4 19C4 19.552 4.448 20 5 20H6.99999C7.55199 20 7.99999 19.552 7.99999 19V17C7.99999 16.448 7.55199 16 6.99999 16H5ZM11 16C10.448 16 9.99999 16.448 9.99999 17C9.99999 17.25 9.99999 18.75 9.99999 19C9.99999 19.552 10.448 20 11 20H13C13.552 20 14 19.552 14 19V17C14 16.448 13.552 16 13 16H11ZM17 16C16.448 16 16 16.448 16 17C16 17.25 16 18.75 16 19C16 19.552 16.448 20 17 20H19C19.552 20 20 19.552 20 19V17C20 16.448 19.552 16 19 16H17Z" fill="black" fill-opacity="0.4"/>
<path d="M4.9978 9.9978C4.4458 9.9978 3.9978 10.4458 3.9978 10.9978C3.9978 11.2478 3.9978 12.7478 3.9978 12.9978C3.9978 13.5498 4.4458 13.9978 4.9978 13.9978H6.9978C7.5498 13.9978 7.9978 13.5498 7.9978 12.9978V10.9978C7.9978 10.4458 7.5498 9.9978 6.9978 9.9978H4.9978ZM10.9978 9.9978C10.4458 9.9978 9.99779 10.4458 9.99779 10.9978C9.99779 11.2478 9.99779 12.7478 9.99779 12.9978C9.99779 13.5498 10.4458 13.9978 10.9978 13.9978H12.9978C13.5498 13.9978 13.9978 13.5498 13.9978 12.9978V10.9978C13.9978 10.4458 13.5498 9.9978 12.9978 9.9978H10.9978ZM16.9978 9.9978C16.4458 9.9978 15.9978 10.4458 15.9978 10.9978C15.9978 11.2478 15.9978 12.7478 15.9978 12.9978C15.9978 13.5498 16.4458 13.9978 16.9978 13.9978H18.9978C19.5498 13.9978 19.9978 13.5498 19.9978 12.9978V10.9978C19.9978 10.4458 19.5498 9.9978 18.9978 9.9978H16.9978Z" fill="black"/>
</svg>
