<svg width="24" height="24" viewBox="0 0 24 24" fill="none" xmlns="http://www.w3.org/2000/svg">
<path d="M15 3C13.895 3 13 3.895 13 5V9C13 10.105 13.895 11 15 11H19C20.105 11 21 10.105 21 9V5C21 3.895 20.105 3 19 3H15ZM15 13C13.895 13 13 13.895 13 15V19C13 20.105 13.895 21 15 21H19C20.105 21 21 20.105 21 19V15C21 13.895 20.105 13 19 13H15Z" fill="black" fill-opacity="0.4"/>
<path d="M4.99829 3C3.89329 3 2.99829 3.895 2.99829 5V19C2.99829 20.105 3.89329 21 4.99829 21H8.99829C10.1033 21 10.9983 20.105 10.9983 19V5C10.9983 3.895 10.1033 3 8.99829 3H4.99829Z" fill="black"/>
</svg>
