<svg width="24" height="24" viewBox="0 0 24 24" fill="none" xmlns="http://www.w3.org/2000/svg">
<path d="M4.5 13C3.672 13 3 13.672 3 14.5C3 15.328 3.672 16 4.5 16C5.328 16 6 15.328 6 14.5C6 13.672 5.328 13 4.5 13ZM9.5 13C8.672 13 8 13.672 8 14.5C8 15.328 8.672 16 9.5 16C10.328 16 11 15.328 11 14.5C11 13.672 10.328 13 9.5 13ZM14.5 13C13.672 13 13 13.672 13 14.5C13 15.328 13.672 16 14.5 16C15.328 16 16 15.328 16 14.5C16 13.672 15.328 13 14.5 13ZM19.5 13C18.672 13 18 13.672 18 14.5C18 15.328 18.672 16 19.5 16C20.328 16 21 15.328 21 14.5C21 13.672 20.328 13 19.5 13Z" fill="black" fill-opacity="0.4"/>
<path d="M4.49829 7.99561C3.67029 7.99561 2.99829 8.66761 2.99829 9.49561C2.99829 10.3236 3.67029 10.9956 4.49829 10.9956C5.32629 10.9956 5.99829 10.3236 5.99829 9.49561C5.99829 8.66761 5.32629 7.99561 4.49829 7.99561ZM9.49829 7.99561C8.67029 7.99561 7.99829 8.66761 7.99829 9.49561C7.99829 10.3236 8.67029 10.9956 9.49829 10.9956C10.3263 10.9956 10.9983 10.3236 10.9983 9.49561C10.9983 8.66761 10.3263 7.99561 9.49829 7.99561ZM14.4983 7.99561C13.6703 7.99561 12.9983 8.66761 12.9983 9.49561C12.9983 10.3236 13.6703 10.9956 14.4983 10.9956C15.3263 10.9956 15.9983 10.3236 15.9983 9.49561C15.9983 8.66761 15.3263 7.99561 14.4983 7.99561ZM19.4983 7.99561C18.6703 7.99561 17.9983 8.66761 17.9983 9.49561C17.9983 10.3236 18.6703 10.9956 19.4983 10.9956C20.3263 10.9956 20.9983 10.3236 20.9983 9.49561C20.9983 8.66761 20.3263 7.99561 19.4983 7.99561Z" fill="black"/>
</svg>
