<svg width="24" height="24" viewBox="0 0 24 24" fill="none" xmlns="http://www.w3.org/2000/svg">
<path d="M13 19.5C13 20.328 13.672 21 14.5 21C15.328 21 16 20.328 16 19.5C16 18.672 15.328 18 14.5 18C13.672 18 13 18.672 13 19.5ZM13 14.5C13 15.328 13.672 16 14.5 16C15.328 16 16 15.328 16 14.5C16 13.672 15.328 13 14.5 13C13.672 13 13 13.672 13 14.5ZM13 9.5C13 10.328 13.672 11 14.5 11C15.328 11 16 10.328 16 9.5C16 8.672 15.328 8 14.5 8C13.672 8 13 8.672 13 9.5ZM13 4.5C13 5.328 13.672 6 14.5 6C15.328 6 16 5.328 16 4.5C16 3.672 15.328 3 14.5 3C13.672 3 13 3.672 13 4.5Z" fill="black" fill-opacity="0.4"/>
<path d="M7.99561 19.5017C7.99561 20.3297 8.66761 21.0017 9.49561 21.0017C10.3236 21.0017 10.9956 20.3297 10.9956 19.5017C10.9956 18.6737 10.3236 18.0017 9.49561 18.0017C8.66761 18.0017 7.99561 18.6737 7.99561 19.5017ZM7.99561 14.5017C7.99561 15.3297 8.66761 16.0017 9.49561 16.0017C10.3236 16.0017 10.9956 15.3297 10.9956 14.5017C10.9956 13.6737 10.3236 13.0017 9.49561 13.0017C8.66761 13.0017 7.99561 13.6737 7.99561 14.5017ZM7.99561 9.50171C7.99561 10.3297 8.66761 11.0017 9.49561 11.0017C10.3236 11.0017 10.9956 10.3297 10.9956 9.50171C10.9956 8.67371 10.3236 8.00171 9.49561 8.00171C8.66761 8.00171 7.99561 8.67371 7.99561 9.50171ZM7.99561 4.50171C7.99561 5.32971 8.66761 6.00171 9.49561 6.00171C10.3236 6.00171 10.9956 5.32971 10.9956 4.50171C10.9956 3.67371 10.3236 3.00171 9.49561 3.00171C8.66761 3.00171 7.99561 3.67371 7.99561 4.50171Z" fill="black"/>
</svg>
