<svg width="40" height="40" viewBox="0 0 40 40" fill="none" xmlns="http://www.w3.org/2000/svg">
<path opacity="0.3" fill-rule="evenodd" clip-rule="evenodd" d="M28.0776 16.0522C28.5676 16.2438 29.6598 16.8392 30.6608 17.6558C31.2035 18.0986 31.76 18.6384 32.1931 19.2568C32.6247 19.873 32.9713 20.6217 32.9995 21.4637C32.9999 21.4776 33.0001 21.4914 33 21.5053L32.9997 21.5428C32.9966 21.9182 32.9945 22.1888 32.9637 22.4307C32.7444 24.1548 31.4286 25.5684 29.7068 25.8075C29.4724 25.8401 29.21 25.8422 28.8718 25.845L28.1221 25.8518C27.4477 25.8578 26.9102 25.8625 26.4714 25.7895C26.1246 25.7319 25.8414 25.5881 25.6503 25.4792C25.2182 25.2331 24.8832 24.8655 24.6244 24.5214C24.3607 24.1707 24.1259 23.7752 23.9196 23.4131C23.8522 23.2948 23.7886 23.1816 23.7273 23.0724C23.5903 22.8284 23.4647 22.6047 23.3329 22.3895C23.1428 22.079 22.9889 21.8707 22.8609 21.7452C22.678 21.5659 22.583 21.3041 22.6518 21.0574C22.8787 20.2438 23 19.3861 23 18.5C23 17.8137 22.9272 17.1443 22.789 16.4992C22.6376 15.7929 23.1582 15.0665 23.8776 15.1322C24.8852 15.2243 25.6834 15.3544 26.3045 15.4896C26.9159 15.6227 27.3567 15.761 27.6573 15.8732C27.8076 15.9293 27.9229 15.9789 28.0068 16.0181C28.0336 16.0306 28.0571 16.042 28.0776 16.0522Z" fill="black"/>
<path d="M14.0874 15.5891C15.445 15.3068 17.4952 15.0261 20.336 15.0017C20.4293 15.0009 20.5217 15.0004 20.613 15.0001C21.0015 14.9992 21.357 15.2277 21.4898 15.5927C21.8199 16.4998 22 17.4788 22 18.5C22 19.097 21.9384 19.6797 21.8213 20.242C21.7163 20.7461 21.2046 21.029 20.6912 20.9898C20.4868 20.9742 20.2639 20.9658 20.023 20.9678C18.8084 20.9783 17.9433 21.2499 17.6323 21.3644C17.5977 21.3771 17.5466 21.4019 17.4656 21.4532C17.389 21.5017 17.3166 21.5541 17.2486 21.6102C17.1222 21.7147 16.963 21.9046 16.7655 22.2096C16.5874 22.4847 16.4137 22.7959 16.2194 23.1442L16.1658 23.2401C15.9586 23.6112 15.7261 24.0229 15.4721 24.3908C15.2225 24.7524 14.9068 25.1405 14.5051 25.4213C14.2157 25.6236 13.7968 25.8697 13.2764 25.9345C12.8856 25.9831 12.4034 25.9873 11.8043 25.9924L11.103 25.9984C10.7592 26.0014 10.4946 26.0038 10.2581 25.975C8.52462 25.7636 7.21547 24.3543 7.02288 22.6213C6.99636 22.3826 6.9986 22.1143 7.00164 21.7497L7.0021 21.6952C7.00221 21.6814 7.00261 21.6675 7.0033 21.6537C7.08143 20.0824 8.06767 18.8377 9.06001 17.9769C10.0647 17.1053 11.2325 16.4877 12.0266 16.1734L12.0548 16.1616C12.0818 16.1506 12.1183 16.1361 12.1645 16.1185C12.257 16.0835 12.3883 16.0365 12.5601 15.9816C12.9037 15.8718 13.4087 15.7303 14.0874 15.5891Z" fill="black"/>
</svg>
