<svg width="24" height="24" viewBox="0 0 24 24" fill="none" xmlns="http://www.w3.org/2000/svg">
<path d="M7.25046 3.9978C5.17246 3.9978 3.27148 5.7088 2.93848 7.8418L2.00046 14.8728C2 15 2.00046 15.9708 2.00046 16.4978C2.00046 18.4308 3.56746 19.9978 5.50046 19.9978H18.5005C20.4335 19.9978 22.0005 18.4308 22.0005 16.4978C22.0005 15.9733 21.9999 15 22.0005 14.8728L21.0005 7.8728C20.6655 5.7238 18.7975 3.9978 16.7195 3.9978H7.25046ZM5.50046 13.9978H18.5005C19.3295 13.9978 20.0005 14.6698 20.0005 15.4978V16.4978C20.0005 17.3258 19.3295 17.9978 18.5005 17.9978H5.50046C4.67246 17.9978 4.00046 17.3258 4.00046 16.4978V15.4978C4.00046 14.6698 4.67246 13.9978 5.50046 13.9978Z" fill="black" fill-opacity="0.4"/>
<path fill-rule="evenodd" clip-rule="evenodd" d="M6 17C6.55228 17 7 16.5523 7 16C7 15.4477 6.55228 15 6 15C5.44772 15 5 15.4477 5 16C5 16.5523 5.44772 17 6 17ZM9 17C9.55228 17 10 16.5523 10 16C10 15.4477 9.55228 15 9 15C8.44772 15 8 15.4477 8 16C8 16.5523 8.44772 17 9 17Z" fill="black"/>
</svg>
