<svg width="24" height="24" viewBox="0 0 24 24" fill="none" xmlns="http://www.w3.org/2000/svg">
<path d="M5.99829 3C4.34129 3 2.99829 4.343 2.99829 6V8C2.99829 9.657 4.34129 11 5.99829 11H17.9983C19.6553 11 20.9983 9.657 20.9983 8V6C20.9983 4.343 19.6553 3 17.9983 3H5.99829ZM6.99829 6C7.55029 6 7.99829 6.448 7.99829 7C7.99829 7.552 7.55029 8 6.99829 8C6.44629 8 5.99829 7.552 5.99829 7C5.99829 6.448 6.44629 6 6.99829 6ZM10.9983 6C11.5503 6 11.9983 6.448 11.9983 7C11.9983 7.552 11.5503 8 10.9983 8C10.4463 8 9.99829 7.552 9.99829 7C9.99829 6.448 10.4463 6 10.9983 6Z" fill="black"/>
<path d="M6 13C4.343 13 3 14.343 3 16V18C3 19.657 4.343 21 6 21H18C19.657 21 21 19.657 21 18V16C21 14.343 19.657 13 18 13H6ZM7 16C7.552 16 8 16.448 8 17C8 17.552 7.552 18 7 18C6.448 18 6 17.552 6 17C6 16.448 6.448 16 7 16ZM11 16C11.552 16 12 16.448 12 17C12 17.552 11.552 18 11 18C10.448 18 10 17.552 10 17C10 16.448 10.448 16 11 16Z" fill="black" fill-opacity="0.4"/>
</svg>
