<svg width="24" height="24" viewBox="0 0 24 24" fill="none" xmlns="http://www.w3.org/2000/svg">
<path fill-rule="evenodd" clip-rule="evenodd" d="M7 11H9V13H7V11ZM6.50098 13.0022C4.56798 13.0022 3.00098 14.5692 3.00098 16.5022V17.5022C3.00098 19.4352 4.56798 21.0022 6.50098 21.0022H17.501C19.434 21.0022 21.001 19.4352 21.001 17.5022V16.5022C21.001 14.5692 19.434 13.0022 17.501 13.0022H6.50098ZM6.50098 15.0022H17.501C18.3294 15.0022 19.001 15.6742 19.001 16.5022V17.5022C19.001 18.3302 18.3294 19.0022 17.501 19.0022H6.50098C5.67258 19.0022 5.00098 18.3302 5.00098 17.5022V16.5022C5.00098 15.6742 5.67258 15.0022 6.50098 15.0022ZM7.00098 16.0022C6.44868 16.0022 6.00098 16.4502 6.00098 17.0022C6.00098 17.5542 6.44868 18.0022 7.00098 18.0022C7.55328 18.0022 8.00098 17.5542 8.00098 17.0022C8.00098 16.4502 7.55328 16.0022 7.00098 16.0022ZM10.001 16.0022C9.44868 16.0022 9.00098 16.4502 9.00098 17.0022C9.00098 17.5542 9.44868 18.0022 10.001 18.0022C10.5533 18.0022 11.001 17.5542 11.001 17.0022C11.001 16.4502 10.5533 16.0022 10.001 16.0022ZM17 11H15V13H17V11Z" fill="black" fill-opacity="0.4"/>
<path d="M6.5 3C4.567 3 3 4.56699 3 6.49999V7.49998C3 9.43298 4.567 11 6.5 11C13.1497 11 10.4473 11 17.5 11C19.433 11 21 9.43298 21 7.49998V6.49999C21 4.56699 19.433 3 17.5 3H6.5ZM6.5 4.99999H17.5C18.3284 4.99999 19 5.67199 19 6.49999V7.49998C19 8.32798 18.3284 8.99998 17.5 8.99998H6.5C5.6716 8.99998 5 8.32798 5 7.49998V6.49999C5 5.67199 5.6716 4.99999 6.5 4.99999ZM7 5.99999C6.4477 5.99999 6 6.44799 6 6.99998C6 7.55198 6.4477 7.99998 7 7.99998C7.5523 7.99998 8 7.55198 8 6.99998C8 6.44799 7.5523 5.99999 7 5.99999ZM10 5.99999C9.4477 5.99999 9 6.44799 9 6.99998C9 7.55198 9.4477 7.99998 10 7.99998C10.5523 7.99998 11 7.55198 11 6.99998C11 6.44799 10.5523 5.99999 10 5.99999Z" fill="black"/>
</svg>
