<svg width="24" height="24" viewBox="0 0 24 24" fill="none" xmlns="http://www.w3.org/2000/svg">
<path fill-rule="evenodd" clip-rule="evenodd" d="M7 11H9V13H15V11H17V13H17.5C19.433 13 21 14.567 21 16.5V17.5C21 19.433 19.433 21 17.5 21H6.5C4.567 21 3 19.433 3 17.5V16.5C3 14.567 4.567 13 6.5 13H7V11ZM8.00098 17.0022C8.00098 17.5545 7.55326 18.0022 7.00098 18.0022C6.44869 18.0022 6.00098 17.5545 6.00098 17.0022C6.00098 16.4499 6.44869 16.0022 7.00098 16.0022C7.55326 16.0022 8.00098 16.4499 8.00098 17.0022ZM10.001 18.0022C10.5533 18.0022 11.001 17.5545 11.001 17.0022C11.001 16.4499 10.5533 16.0022 10.001 16.0022C9.44869 16.0022 9.00098 16.4499 9.00098 17.0022C9.00098 17.5545 9.44869 18.0022 10.001 18.0022Z" fill="black" fill-opacity="0.4"/>
<path fill-rule="evenodd" clip-rule="evenodd" d="M6.5 3C4.567 3 3 4.56699 3 6.49999V7.49998C3 9.43298 4.567 11 6.5 11H17.5C19.433 11 21 9.43298 21 7.49998V6.49999C21 4.56699 19.433 3 17.5 3H6.5ZM8.00098 7.0022C8.00098 7.55448 7.55326 8.0022 7.00098 8.0022C6.44869 8.0022 6.00098 7.55448 6.00098 7.0022C6.00098 6.44991 6.44869 6.0022 7.00098 6.0022C7.55326 6.0022 8.00098 6.44991 8.00098 7.0022ZM10.001 8.0022C10.5533 8.0022 11.001 7.55448 11.001 7.0022C11.001 6.44991 10.5533 6.0022 10.001 6.0022C9.44869 6.0022 9.00098 6.44991 9.00098 7.0022C9.00098 7.55448 9.44869 8.0022 10.001 8.0022Z" fill="black"/>
</svg>
