<svg width="24" height="24" viewBox="0 0 24 24" fill="none" xmlns="http://www.w3.org/2000/svg">
<path fill-rule="evenodd" clip-rule="evenodd" d="M4.63491 8.70149C4.78827 7.16788 6.07877 6 7.62003 6H16.3801C17.9214 6 19.2119 7.16788 19.3652 8.70149L19.7168 12.2173C20.9527 12.6756 21.8593 13.8118 21.985 15.1742C22.0006 15.0859 22.0045 14.9941 21.9951 14.9005L21.3553 8.50248C21.0997 5.94647 18.9489 4 16.3801 4H7.62003C5.05127 4 2.90044 5.94647 2.64484 8.50248L2.00504 14.9005C1.9957 14.9939 1.99953 15.0856 2.01501 15.1737C2.14097 13.8114 3.04759 12.6754 4.28334 12.2173L4.63491 8.70149Z" fill="black" fill-opacity="0.4"/>
<path fill-rule="evenodd" clip-rule="evenodd" d="M2 15.5C2 13.567 3.567 12 5.5 12H18.5C20.433 12 22 13.567 22 15.5V16.5C22 18.433 20.433 20 18.5 20H5.5C3.567 20 2 18.433 2 16.5V15.5ZM5.5 14C4.67157 14 4 14.6716 4 15.5V16.5C4 17.3284 4.67157 18 5.5 18H18.5C19.3284 18 20 17.3284 20 16.5V15.5C20 14.6716 19.3284 14 18.5 14H5.5ZM7 16C7 16.5523 6.55228 17 6 17C5.44772 17 5 16.5523 5 16C5 15.4477 5.44772 15 6 15C6.55228 15 7 15.4477 7 16ZM9 17C9.55228 17 10 16.5523 10 16C10 15.4477 9.55228 15 9 15C8.44772 15 8 15.4477 8 16C8 16.5523 8.44772 17 9 17Z" fill="black"/>
</svg>
