<svg width="40" height="40" viewBox="0 0 40 40" fill="none" xmlns="http://www.w3.org/2000/svg">
<path opacity="0.3" d="M20 8C13.9249 8 9 12.9249 9 19V28L11 21.5351V19C11 14.0294 15.0294 10 20 10C24.9706 10 29 14.0294 29 19V21.5L31 28V19C31 12.9249 26.0751 8 20 8Z" fill="black"/>
<path d="M9 25C9 22.7909 10.7909 21 13 21C15.2091 21 17 22.7909 17 25V28C17 30.2091 15.2091 32 13 32C10.7909 32 9 30.2091 9 28V25Z" fill="black"/>
<path d="M23 25C23 22.7909 24.7909 21 27 21C29.2091 21 31 22.7909 31 25V28C31 30.2091 29.2091 32 27 32C24.7909 32 23 30.2091 23 28V25Z" fill="black"/>
</svg>
