<svg width="40" height="40" viewBox="0 0 40 40" fill="none" xmlns="http://www.w3.org/2000/svg">
<path d="M19.0475 10.3738C16.2816 7.20874 11.7286 7.20874 8.96265 10.3738C6.66809 12.9994 6.2687 17.1124 8.38752 20.0304C9.31888 21.313 10.4491 22.768 11.75 24.2566C13.733 26.5257 15.6504 28.3439 17.073 29.5959C17.7848 30.2223 18.374 30.7081 18.7873 31.0388C18.994 31.2041 19.1568 31.3308 19.2691 31.417C19.3253 31.4601 19.3688 31.4931 19.3989 31.5157L19.4338 31.5419L19.4435 31.5491L19.4477 31.5522L20.0538 32L20.6547 31.5446L20.6584 31.5418L20.6678 31.5346L20.7018 31.5085C20.7311 31.4859 20.7735 31.453 20.8282 31.4099C20.9378 31.3239 21.0967 31.1973 21.2988 31.0321C21.7029 30.7017 22.2798 30.2163 22.9793 29.5904C24.3774 28.3394 26.2694 26.523 28.25 24.2566C29.5509 22.768 30.6811 21.313 31.6125 20.0304C33.7313 17.1124 33.3319 12.9994 31.0374 10.3738C28.2714 7.20875 23.7184 7.20874 20.9525 10.3738L20 11.4637L19.0475 10.3738Z" fill="black" fill-opacity="0.3"/>
<path d="M20.9525 10.3738L20 11.4637L20.0538 32L20.6547 31.5446L20.6584 31.5418L20.6678 31.5346L20.7018 31.5085C20.7311 31.4859 20.7735 31.453 20.8282 31.4099C20.9378 31.3239 21.0967 31.1973 21.2988 31.0321C21.7029 30.7017 22.2798 30.2163 22.9793 29.5904C24.3774 28.3394 26.2694 26.523 28.25 24.2566C29.5509 22.768 30.6811 21.313 31.6125 20.0304C33.7313 17.1124 33.3319 12.9994 31.0374 10.3738C28.2714 7.20875 23.7184 7.20874 20.9525 10.3738Z" fill="black"/>
</svg>
