<svg width="40" height="40" viewBox="0 0 40 40" fill="none" xmlns="http://www.w3.org/2000/svg">
<path opacity="0.3" d="M29.8436 32.347C29.1633 32.7039 28.421 32.8564 27.5564 32.9292C26.8553 32.9881 26.0151 32.998 25 32.9997L15 33C13.9849 32.9983 13.1447 32.9881 12.4436 32.9292C11.579 32.8564 10.8367 32.7039 10.1564 32.347C9.06281 31.7734 8.17908 30.8611 7.62697 29.7456C7.28527 29.0552 7.13869 28.302 7.06856 27.4185C7.00002 26.5548 7.00003 25.4841 7.00003 24.1365L7.00003 21.9325L7.00002 21.8035C6.99978 20.6306 6.99963 19.8664 7.18065 19.1408C7.34078 18.499 7.60474 17.8884 7.9623 17.3346C8.36719 16.7074 8.92251 16.1931 9.76807 15.4101L9.76808 15.41L9.86274 15.3224L14.2131 11.2918C15.0953 10.4744 15.8002 9.82132 16.4133 9.33646C17.0428 8.83869 17.6376 8.4667 18.3163 8.2558C19.4141 7.91473 20.5859 7.91473 21.6837 8.2558C22.3624 8.4667 22.9572 8.83869 23.5867 9.33646C24.1998 9.82131 24.9047 10.4744 25.7868 11.2917L25.7869 11.2918L30.1373 15.3224L30.2319 15.41C31.0775 16.1931 31.6328 16.7074 32.0377 17.3346C32.3953 17.8884 32.6592 18.499 32.8193 19.1408C33.0004 19.8664 33.0002 20.6306 33 21.8035V21.8035L33 21.9325V24.1365C33 25.4841 33 26.5548 32.9314 27.4185C32.8613 28.302 32.7147 29.0552 32.373 29.7456C31.8209 30.8611 30.9372 31.7734 29.8436 32.347Z" fill="black"/>
<path d="M15 27.0003V30.9995V33C15.2046 33.0003 15.4162 33 15.6353 33H15.68H24.3212H24.3648C24.5838 33 24.7955 33 25 32.9996V30.9995V27.0003L25.0001 26.8628C25.0005 26.0674 25.0008 25.4767 24.8637 24.9651C24.4938 23.5847 23.4157 22.5065 22.0353 22.1366C21.5236 21.9995 20.933 21.9999 20.1376 22.0003L20 22.0003L19.8624 22.0003C19.0671 21.9999 18.4764 21.9995 17.9648 22.1366C16.5844 22.5065 15.5062 23.5847 15.1363 24.9651C14.9992 25.4767 14.9996 26.0674 15 26.8628L15 27.0003Z" fill="black"/>
</svg>
