<svg width="24" height="24" viewBox="0 0 24 24" fill="none" xmlns="http://www.w3.org/2000/svg">
<path d="M8.02913 22C5.71833 22 4.00702 20.446 3.99782 18C3.99036 16.0142 6 14.0142 7 13.0142V11.0142C6 10.0142 3.99782 8.01416 3.99782 6C4.00702 3.554 5.71833 2 8.02913 2H16.0288C18.3368 2 20.0068 3.549 19.9978 6C19.9904 8.01416 18 10.0142 17 11.0142V13.0142C18 14.0142 19.9905 16.0142 19.9978 18C20.0068 20.451 18.3368 22 16.0288 22H8.02913Z" fill="black" fill-opacity="0.4"/>
<path d="M12 9C11 9 9 7 8 5H16C15 7 13 9 12 9Z" fill="black"/>
</svg>
