<svg width="24" height="24" viewBox="0 0 24 24" fill="none" xmlns="http://www.w3.org/2000/svg">
<path d="M8.00795 22C5.81172 22 4.03231 20.224 4.0313 18.031L4.00024 17.031C3.96918 16 6.97495 12 6.97495 12C6.97495 12 3.96919 8.00001 4.0313 7.03101V5.96899C4.0313 3.77599 5.81172 2 8.00795 2H16.0234C18.2206 2 20 3.77599 20 5.96899V6.96899C20 7.99999 16.9942 12 16.9942 12C16.9942 12 20 16 20 17V18.031C20 20.224 18.2206 22 16.0234 22H8.00795Z" fill="black" fill-opacity="0.4"/>
<path fill-rule="evenodd" clip-rule="evenodd" d="M8 6C8 6.55228 8.44772 7 9 7H15C15.5523 7 16 6.55228 16 6C16 5.44772 15.5523 5 15 5H9C8.44772 5 8 5.44772 8 6Z" fill="black"/>
</svg>
