<svg width="24" height="24" viewBox="0 0 24 24" fill="none" xmlns="http://www.w3.org/2000/svg">
<path d="M8.00795 2C5.81172 2 4.03231 3.77599 4.0313 5.96899L4.00024 6.96899C3.96918 7.99999 6.97495 12 6.97495 12C6.97495 12 3.96919 16 4.0313 16.969V18.031C4.0313 20.224 5.81172 22 8.00795 22H16.0234C18.2206 22 20 20.224 20 18.031V17.031C20 16 16.9942 12 16.9942 12C16.9942 12 20 8 20 7V5.96899C20 3.77599 18.2206 2 16.0234 2H8.00795Z" fill="black" fill-opacity="0.4"/>
<path fill-rule="evenodd" clip-rule="evenodd" d="M8 18C8 17.4477 8.44772 17 9 17H15C15.5523 17 16 17.4477 16 18C16 18.5523 15.5523 19 15 19H9C8.44772 19 8 18.5523 8 18Z" fill="black"/>
</svg>
