<svg width="24" height="24" viewBox="0 0 24 24" fill="none" xmlns="http://www.w3.org/2000/svg">
<path d="M8.02913 2C5.71833 2 4.00702 3.554 3.99782 6C3.99036 7.98584 6 9.98584 7 10.9858V12.9858C6 13.9858 3.99782 15.9858 3.99782 18C4.00702 20.446 5.71833 22 8.02913 22H16.0288C18.3368 22 20.0068 20.451 19.9978 18C19.9904 15.9858 18 13.9858 17 12.9858V10.9858C18 9.98584 19.9905 7.98584 19.9978 6C20.0068 3.549 18.3368 2 16.0288 2H8.02913Z" fill="black" fill-opacity="0.4"/>
<path d="M12 15C11 15 9 17 8 19H16C15 17 13 15 12 15Z" fill="black"/>
</svg>
