<svg width="24" height="24" viewBox="0 0 24 24" fill="none" xmlns="http://www.w3.org/2000/svg">
<path d="M8.02913 2C5.71833 2 4.00702 3.554 3.99782 6C3.99036 7.98584 6 9.98584 7 10.9858V12.9858C6 13.9858 3.99782 15.9858 3.99782 18C4.00702 20.446 5.71833 22 8.02913 22H16.0288C18.3368 22 20.0068 20.451 19.9978 18C19.9904 15.9858 18 13.9858 17 12.9858V10.9858C18 9.98584 19.9905 7.98584 19.9978 6C20.0068 3.549 18.3368 2 16.0288 2H8.02913Z" fill="black" fill-opacity="0.4"/>
<path d="M9.09399 8.01274C10.026 9.17127 11 9.60771 11 11.0089C11 13.0064 11 12.4061 11 13.0064C11 15.0038 9 15.0038 8 18H16C15 15.0038 13 15.0038 13 13.0064C13 12.6289 13 12.0076 13 11.0089C13 9.60671 13.973 9.17326 14.906 8.01274C13.988 7.99677 10.01 7.99477 9.09399 8.01274Z" fill="black"/>
</svg>
