<svg width="24" height="24" viewBox="0 0 24 24" fill="none" xmlns="http://www.w3.org/2000/svg">
<path d="M8.03133 2C5.72053 2 4.00922 3.554 4.00002 6C3.99255 7.98584 6.0022 9.98584 7.0022 10.9858V12.9858C6.0022 13.9858 4.00002 15.9858 4.00002 18C4.00922 20.446 5.72053 22 8.03133 22H16.031C18.339 22 20.009 20.451 20 18C19.9926 15.9858 18.0022 13.9858 17.0022 12.9858V10.9858C18.0022 9.98584 19.9927 7.98584 20 6C20.009 3.549 18.339 2 16.031 2H8.03133Z" fill="black" fill-opacity="0.4"/>
<path fill-rule="evenodd" clip-rule="evenodd" d="M10 5C9.44772 5 9 5.44772 9 6C9 6.55228 9.44772 7 10 7H14C14.5523 7 15 6.55228 15 6C15 5.44772 14.5523 5 14 5H10ZM10 17C9.44772 17 9 17.4477 9 18C9 18.5523 9.44772 19 10 19H14C14.5523 19 15 18.5523 15 18C15 17.4477 14.5523 17 14 17H10ZM13 10C13 10.5523 12.5523 11 12 11C11.4477 11 11 10.5523 11 10C11 9.44772 11.4477 9 12 9C12.5523 9 13 9.44772 13 10ZM12 15C12.5523 15 13 14.5523 13 14C13 13.4477 12.5523 13 12 13C11.4477 13 11 13.4477 11 14C11 14.5523 11.4477 15 12 15Z" fill="black"/>
</svg>
