<svg width="24" height="24" viewBox="0 0 24 24" fill="none" xmlns="http://www.w3.org/2000/svg">
<path d="M8.00795 22C5.81172 22 4.03231 20.224 4.0313 18.031L4.00024 17.031C3.96918 16 6.97495 12 6.97495 12C6.97495 12 3.96919 8.00001 4.0313 7.03101V5.96899C4.0313 3.77599 5.81172 2 8.00795 2H16.0234C18.2206 2 20 3.77599 20 5.96899V6.96899C20 7.99999 16.9942 12 16.9942 12C16.9942 12 20 16 20 17V18.031C20 20.224 18.2206 22 16.0234 22H8.00795Z" fill="black" fill-opacity="0.4"/>
<path fill-rule="evenodd" clip-rule="evenodd" d="M11 11C10.4477 11 10 10.5523 10 10C10 9.44772 10.4477 9 11 9H13C13.5523 9 14 9.44772 14 10C14 10.5523 13.5523 11 13 11H11ZM9 7C8.44772 7 8 6.55228 8 6C8 5.44772 8.44772 5 9 5H15C15.5523 5 16 5.44772 16 6C16 6.55228 15.5523 7 15 7H9Z" fill="black"/>
</svg>
