<svg width="24" height="24" viewBox="0 0 24 24" fill="none" xmlns="http://www.w3.org/2000/svg">
<path fill-rule="evenodd" clip-rule="evenodd" d="M10.9409 4.44103C11.5263 3.85299 12.4737 3.85299 13.0591 4.44103L20.2913 11.7055C20.681 12.0969 21.3141 12.0983 21.7055 11.7087C22.0969 11.319 22.0983 10.6859 21.7087 10.2945L14.4764 3.02997C13.1093 1.65668 10.8907 1.65668 9.52356 3.02997L2.29132 10.2945C1.90167 10.6859 1.90308 11.319 2.29447 11.7087C2.68586 12.0983 3.31902 12.0969 3.70868 11.7055L10.9409 4.44103ZM12 13C10.3431 13 9 14.3431 9 16V21H15V16C15 14.3431 13.6569 13 12 13Z" fill="black"/>
<path fill-rule="evenodd" clip-rule="evenodd" d="M10.9409 4.44103C11.5263 3.85299 12.4737 3.85299 13.0591 4.44103L20.2913 11.7055C20.4867 11.9018 20.7433 12 21 12V17C21 19.2091 19.2091 21 17 21H7C4.79086 21 3 19.2091 3 17V12C3.25666 12 3.51329 11.9018 3.70868 11.7055L10.9409 4.44103Z" fill="black" fill-opacity="0.4"/>
</svg>
