<svg width="24" height="24" viewBox="0 0 24 24" fill="none" xmlns="http://www.w3.org/2000/svg">
<path d="M7.99829 2C5.78929 2 3.99829 3.791 3.99829 6V8C3.99829 8.552 4.44629 9 4.99829 9C5.55029 9 5.99829 8.552 5.99829 8V6C5.99829 4.895 6.89329 4 7.99829 4H15.9983C17.1033 4 17.9983 4.895 17.9983 6V8C17.9983 8.552 18.4463 9 18.9983 9C19.5503 9 19.9983 8.552 19.9983 8V6C19.9983 3.791 18.2073 2 15.9983 2H7.99829ZM4.99829 15C4.44629 15 3.99829 15.448 3.99829 16V18C3.99829 20.209 5.78929 22 7.99829 22H15.9983C18.2073 22 19.9983 20.209 19.9983 18V16C19.9983 15.448 19.5503 15 18.9983 15C18.4463 15 17.9983 15.448 17.9983 16V18C17.9983 19.105 17.1033 20 15.9983 20H7.99829C6.89329 20 5.99829 19.105 5.99829 18V16C5.99829 15.448 5.55029 15 4.99829 15Z" fill="black" fill-opacity="0.4"/>
<path d="M4 11C3.448 11 3 11.448 3 12C3 12.552 3.448 13 4 13H20C20.552 13 21 12.552 21 12C21 11.448 20.552 11 20 11H4Z" fill="black"/>
</svg>
