<svg width="24" height="24" viewBox="0 0 24 24" fill="none" xmlns="http://www.w3.org/2000/svg">
<path d="M5.99829 7C4.34139 7 2.99829 8.343 2.99829 10V18C2.99829 19.657 4.34139 21 5.99829 21H13.9983C15.6552 21 16.9983 19.657 16.9983 18C16.9983 16.0132 16.9983 12.5178 16.9983 9.99975C16.9983 8.3429 15.6567 7.00002 13.9998 7.00002C11.5424 7.00001 8.13335 7 5.99829 7ZM5.99829 9H13.9983C14.5506 9 14.9983 9.448 14.9983 10V14.531C14.5469 14.239 14.0692 14.045 13.5608 14.031C13.5306 14.031 13.5287 14.031 13.4983 14.031C12.602 14.031 11.8158 14.51 11.0608 15.312C11.0488 15.325 11.0414 15.331 11.0295 15.344C10.9012 15.178 10.7931 15.003 10.6545 14.844C9.66049 13.704 8.63489 13.001 7.49829 13C6.60219 13.001 5.79469 13.538 4.99829 14.281V10C4.99829 9.448 5.44599 9 5.99829 9ZM11.9983 11C11.446 11 10.9983 11.448 10.9983 12C10.9983 12.552 11.446 13 11.9983 13C12.5506 13 12.9983 12.552 12.9983 12C12.9983 11.448 12.5506 11 11.9983 11ZM7.49829 15C7.89189 15 8.50899 15.416 9.15449 16.156C9.41269 16.452 9.65529 16.772 9.87329 17.094C10.003 17.285 10.0796 17.425 10.1233 17.5C10.5017 18.151 11.443 18.17 11.8421 17.531C11.8687 17.489 11.9429 17.4 12.0295 17.281C12.1763 17.08 12.3252 16.872 12.4983 16.688C12.9082 16.252 13.3009 16.031 13.4983 16.031C13.7028 16.037 14.0876 16.256 14.4983 16.688C14.674 16.872 14.8177 17.08 14.9671 17.281C14.9794 17.298 14.987 17.297 14.9983 17.312V18C14.9983 18.552 14.5506 19 13.9983 19H5.99829C5.44599 19 4.99829 18.552 4.99829 18V17.312C5.04379 17.241 5.05479 17.195 5.12329 17.094C5.34139 16.771 5.58369 16.453 5.84209 16.156C6.48769 15.414 7.10479 15 7.49829 15Z" fill="black"/>
<path fill-rule="evenodd" clip-rule="evenodd" d="M9.9999 5C9.44768 5 9 5.44765 9 6V7H7V6C7 4.34321 8.34299 3 9.9999 3H17.9999C19.6568 3 20.9999 4.34315 20.9999 6V14C20.9999 15.6569 19.6568 17 17.9999 17H17V15H17.9999C18.5522 15 18.9999 14.5523 18.9999 14V6C18.9999 5.44772 18.5522 5 17.9999 5H9.9999Z" fill="black" fill-opacity="0.4"/>
</svg>
