<svg width="24" height="24" viewBox="0 0 24 24" fill="none" xmlns="http://www.w3.org/2000/svg">
<path d="M7.9983 7.9978C6.0073 7.9978 3.99829 12.9978 2.99829 15.9978C2.99829 16.9978 2.99829 16.9978 2.99829 16.9978C2.99829 18.9978 4.99829 20.9978 6.9983 20.9978H16.9983C18.9983 20.9978 20.9983 18.9978 20.9983 16.9978C20.9983 16.9978 20.9983 16.9978 20.9983 15.9978C19.9983 13.9978 17.9983 10.9978 16.4983 10.9978C14.9983 10.9978 13.9163 13.4238 13.8733 13.4978C13.4413 14.2428 12.3333 14.1268 12.0603 13.3098C12.0043 13.1408 9.9983 7.9978 7.9983 7.9978Z" fill="black"/>
<circle cx="18" cy="6" r="2" fill="black" fill-opacity="0.4"/>
</svg>
