<svg width="40" height="40" viewBox="0 0 40 40" fill="none" xmlns="http://www.w3.org/2000/svg">
<path d="M23.8714 32.9619C28.7059 32.539 32.5389 28.706 32.9618 23.8716C33.0037 23.3931 32.6047 23 32.1245 23H26.9999C26.7584 23 26.5024 23.1001 26.2158 23.3517C25.9222 23.6095 25.648 23.9844 25.4089 24.4117C24.3567 26.2928 22.1683 27 19.9999 27C17.8314 27 15.6431 26.2928 14.5908 24.4117C14.3518 23.9844 14.0776 23.6095 13.784 23.3517C13.4974 23.1001 13.2413 23 12.9999 23H7.8753C7.39505 23 6.99608 23.3931 7.03793 23.8716C7.46089 28.706 11.2939 32.539 16.1283 32.9619C16.5637 33 17.0679 33 17.9361 33H22.0637C22.9319 33 23.4361 33 23.8714 32.9619Z" fill="black"/>
<path opacity="0.3" d="M20 7.00002L19.8084 7.00001C17.2008 6.99981 15.6847 6.9997 14.4118 7.34076C10.9609 8.26543 8.26543 10.9609 7.34076 14.4118C6.9997 15.6847 6.99981 17.2008 7.00001 19.8084L7.00002 20C7.00002 20.5523 7.44773 21 8.00002 21H13C13.8631 21 14.5693 21.3797 15.1037 21.8488C15.6309 22.3118 16.0363 22.8987 16.3365 23.4353C16.8737 24.3958 18.1502 25 20 25C21.8499 25 23.1263 24.3958 23.6636 23.4353C23.9638 22.8987 24.3691 22.3118 24.8964 21.8488C25.4307 21.3797 26.1369 21 27 21H32C32.5523 21 33 20.5523 33 20L33 19.8084C33.0002 17.2008 33.0003 15.6847 32.6593 14.4118C31.7346 10.9609 29.0391 8.26543 25.5882 7.34076C24.3153 6.9997 22.7992 6.99981 20.1916 7.00001L20 7.00002Z" fill="black"/>
</svg>
