<svg width="24" height="24" viewBox="0 0 24 24" fill="none" xmlns="http://www.w3.org/2000/svg">
<path d="M6.99829 3C4.78919 3 2.99829 4.79101 2.99829 7.00001V17C2.99829 19.2091 4.78919 21.0001 6.99829 21.0001H16.9983C19.2073 21.0001 20.9983 19.2091 20.9983 17V7.00001C20.9983 4.79101 19.2073 3 16.9983 3H6.99829Z" fill="black" fill-opacity="0.4"/>
<path d="M12 7C11.448 7 11 7.448 11 8C11 8.55201 11.448 9.00001 12 9.00001C12.552 9.00001 13 8.55201 13 8C13 7.448 12.552 7 12 7ZM12 10C11.448 10 11 10.448 11 11V16C11 16.552 11.448 17 12 17C12.552 17 13 16.552 13 16V11C13 10.448 12.552 10 12 10Z" fill="black"/>
</svg>
