<svg width="24" height="24" viewBox="0 0 24 24" fill="none" xmlns="http://www.w3.org/2000/svg">
<path d="M7.99829 3C5.23729 3 2.99829 5.239 2.99829 8V16C2.99829 18.761 5.23729 21 7.99829 21H15.9983C18.7593 21 20.9983 18.761 20.9983 16V8C20.9983 5.239 18.7593 3 15.9983 3H7.99829ZM7.99829 5H15.9983C17.6553 5 18.9983 6.343 18.9983 8V16C18.9983 17.657 17.6553 19 15.9983 19H7.99829C6.34129 19 4.99829 17.657 4.99829 16V8C4.99829 6.343 6.34129 5 7.99829 5Z" fill="black" fill-opacity="0.4"/>
<path fill-rule="evenodd" clip-rule="evenodd" d="M16 9C16.5523 9 17 8.55228 17 8C17 7.44772 16.5523 7 16 7C15.4477 7 15 7.44772 15 8C15 8.55228 15.4477 9 16 9ZM10 12C10 10.8954 10.8954 10 12 10C13.1046 10 14 10.8954 14 12C14 13.1046 13.1046 14 12 14C10.8954 14 10 13.1046 10 12ZM12 8C9.79086 8 8 9.79086 8 12C8 14.2091 9.79086 16 12 16C14.2091 16 16 14.2091 16 12C16 9.79086 14.2091 8 12 8Z" fill="black"/>
</svg>
