<svg width="24" height="24" viewBox="0 0 24 24" fill="none" xmlns="http://www.w3.org/2000/svg">
<path fill-rule="evenodd" clip-rule="evenodd" d="M14.0002 6C14.0002 5.44765 13.5525 5 13.0003 5H6.00025C5.44797 5 5.00025 5.44772 5.00025 6V13C5.00025 13.5523 5.44797 14 6.00025 14H8.00016V16H10.0002V18C10.0002 18.5523 10.4478 19 11.0001 19H18.0001C18.5523 19 19.0001 18.5523 19.0001 18V11C19.0001 10.4477 18.5523 10 18.0001 10H16.0002V8H14.0002V6ZM16.0002 8H18.0001C19.6569 8 21.0001 9.34315 21.0001 11V18C21.0001 19.6569 19.6569 21 18.0001 21H11.0001C9.34314 21 8.00016 19.6568 8.00016 18V16H6.00025C4.3434 16 3.00025 14.6569 3.00025 13V6C3.00025 4.34315 4.3434 3 6.00025 3H13.0003C14.6572 3 16.0002 4.34321 16.0002 6V8Z" fill="black" fill-opacity="0.4"/>
<path d="M8.00006 9C8.00006 8.44772 8.44778 8 9.00006 8H16.0001V15C16.0001 15.5523 15.5523 16 15.0001 16H8.00006V9Z" fill="black"/>
</svg>
