<svg width="40" height="40" viewBox="0 0 40 40" fill="none" xmlns="http://www.w3.org/2000/svg">
<path opacity="0.3" d="M15.3979 11C12.6161 11 9.83112 12.2699 8.82671 15.1622C8.45328 16.2376 8.05416 17.5957 7.65753 19.3032C6.82846 22.8723 6.92099 25.2674 7.19256 26.7304C7.4803 28.2805 8.89708 29 10.1688 29C11.2948 29 12.3618 28.4916 13.0677 27.6149L14.9043 25.3342C15.4327 24.678 16.2345 24.2941 17.0845 24.2941H22.9155C23.7655 24.2941 24.5673 24.678 25.0957 25.3342L26.9323 27.6149C27.6382 28.4916 28.7052 29 29.8312 29C31.1029 29 32.5197 28.2805 32.8074 26.7304C33.079 25.2674 33.1716 22.8723 32.3425 19.3032C31.9459 17.5957 31.5468 16.2376 31.1733 15.1623C30.1689 12.2699 27.3839 11 24.6021 11H15.3979Z" fill="black"/>
<path d="M23.7895 19.247C23.7895 18.8831 24.0864 18.5881 24.4527 18.5881H25.0211C25.3873 18.5881 25.6842 18.8831 25.6842 19.247V19.8117C25.6842 20.1755 25.3873 20.4705 25.0211 20.4705H24.4527C24.0864 20.4705 23.7895 20.1755 23.7895 19.8117V19.247Z" fill="black"/>
<path d="M21.8948 17.3646C21.8948 17.0007 22.1917 16.7058 22.5579 16.7058H23.1263C23.4926 16.7058 23.7895 17.0007 23.7895 17.3646V17.9293C23.7895 18.2932 23.4926 18.5881 23.1263 18.5881H22.5579C22.1917 18.5881 21.8948 18.2932 21.8948 17.9293V17.3646Z" fill="black"/>
<path d="M23.7895 15.4823C23.7895 15.1184 24.0864 14.8234 24.4527 14.8234H25.0211C25.3873 14.8234 25.6842 15.1184 25.6842 15.4823V16.047C25.6842 16.4108 25.3873 16.7058 25.0211 16.7058H24.4527C24.0864 16.7058 23.7895 16.4108 23.7895 16.047V15.4823Z" fill="black"/>
<path d="M25.6842 17.3646C25.6842 17.0007 25.9811 16.7058 26.3474 16.7058H26.9158C27.2821 16.7058 27.579 17.0007 27.579 17.3646V17.9293C27.579 18.2932 27.2821 18.5881 26.9158 18.5881H26.3474C25.9811 18.5881 25.6842 18.2932 25.6842 17.9293V17.3646Z" fill="black"/>
<path d="M16.2631 15.7646C16.2631 15.2124 15.8154 14.7646 15.2631 14.7646C14.7109 14.7646 14.2631 15.2124 14.2631 15.7646V16.647H13.3684C12.8161 16.647 12.3684 17.0947 12.3684 17.647C12.3684 18.1993 12.8161 18.647 13.3684 18.647H14.2631V19.5294C14.2631 20.0816 14.7109 20.5294 15.2631 20.5294C15.8154 20.5294 16.2631 20.0816 16.2631 19.5294V18.647H17.1579C17.7102 18.647 18.1579 18.1993 18.1579 17.647C18.1579 17.0947 17.7102 16.647 17.1579 16.647H16.2631V15.7646Z" fill="black"/>
</svg>
