<svg width="24" height="24" viewBox="0 0 24 24" fill="none" xmlns="http://www.w3.org/2000/svg">
<path d="M14 12C14 12.7013 13.8797 13.3744 13.6586 14C14.2664 14 18 14 18 14L19.0001 16H22V12C22 12 15.0001 12 14 12Z" fill="black" fill-opacity="0.4"/>
<path fill-rule="evenodd" clip-rule="evenodd" d="M2 12C2 8.686 4.686 6 8 6C10.123 6 12.593 7.28001 13.667 9.99001L22 10V16H22V12L14 12C14 12.7013 13.8797 13.3744 13.6586 14V14.0331C12.5449 16.792 10.1125 18 8 18C4.686 18 2 15.314 2 12ZM8.71899 11.281C8.52299 11.086 8.256 11 8 11C7.744 11 7.47701 11.086 7.28101 11.281C6.89101 11.672 6.89101 12.328 7.28101 12.719C7.67201 13.109 8.32799 13.109 8.71899 12.719C9.10899 12.328 9.10899 11.672 8.71899 11.281Z" fill="black"/>
</svg>
