<svg width="24" height="24" viewBox="0 0 24 24" fill="none" xmlns="http://www.w3.org/2000/svg">
<path d="M6 8C5.448 8 5 8.448 5 9C5 9.552 5.448 10 6 10C6.552 10 7 9.552 7 9C7 8.448 6.552 8 6 8ZM9 8C8.448 8 8 8.448 8 9C8 9.552 8.448 10 9 10C9.552 10 10 9.552 10 9C10 8.448 9.552 8 9 8ZM12 8C11.448 8 11 8.448 11 9C11 9.552 11.448 10 12 10C12.552 10 13 9.552 13 9C13 8.448 12.552 8 12 8ZM15 8C14.448 8 14 8.448 14 9C14 9.552 14.448 10 15 10C15.552 10 16 9.552 16 9C16 8.448 15.552 8 15 8ZM18 8C17.448 8 17 8.448 17 9V11H15C14.448 11 14 11.448 14 12C14 12.552 14.448 13 15 13H18C18.552 13 19 12.552 19 12V9C19 8.448 18.552 8 18 8ZM6 11C5.448 11 5 11.448 5 12C5 12.552 5.448 13 6 13C6.552 13 7 12.552 7 12C7 11.448 6.552 11 6 11ZM9 11C8.448 11 8 11.448 8 12C8 12.552 8.448 13 9 13C9.552 13 10 12.552 10 12C10 11.448 9.552 11 9 11ZM12 11C11.448 11 11 11.448 11 12C11 12.552 11.448 13 12 13C12.552 13 13 12.552 13 12C13 11.448 12.552 11 12 11ZM6 14C5.448 14 5 14.448 5 15C5 15.552 5.448 16 6 16C6.552 16 7 15.552 7 15C7 14.448 6.552 14 6 14ZM9 14C8.448 14 8 14.448 8 15C8 15.552 8.448 16 9 16H15C15.552 16 16 15.552 16 15C16 14.448 15.552 14 15 14H9ZM18 14C17.448 14 17 14.448 17 15C17 15.552 17.448 16 18 16C18.552 16 19 15.552 19 15C19 14.448 18.552 14 18 14Z" fill="black"/>
<path d="M5 5C3.343 5 2 6.343 2 8V16C2 17.657 3.343 19 5 19H19C20.657 19 22 17.657 22 16V8C22 6.343 20.657 5 19 5H5ZM5 7H19C19.552 7 20 7.448 20 8V16C20 16.552 19.552 17 19 17H5C4.448 17 4 16.552 4 16V8C4 7.448 4.448 7 5 7Z" fill="black" fill-opacity="0.4"/>
</svg>
