<svg width="40" height="40" viewBox="0 0 40 40" fill="none" xmlns="http://www.w3.org/2000/svg">
<path opacity="0.3" fill-rule="evenodd" clip-rule="evenodd" d="M24.9964 14.6387L20.9585 15.8658V22.2259C20.3536 21.8104 19.6801 21.4875 18.9585 21.2776V12.9847C18.9585 10.943 20.0033 8.89208 21.8426 8.27906L25.3721 7.10267C26.6878 6.66417 28 7.66561 28 9.01682V10.5546C28 12.4289 26.7871 14.0945 24.9964 14.6387Z" fill="black"/>
<path d="M18.9585 24.7816H17.9723C15.1864 24.7816 13 27.126 13 29.9272C13 31.5835 14.2972 32.9999 15.9862 32.9999C18.6335 32.9999 20.7394 30.8831 20.9424 28.2689H20.9585V22.2259C20.3536 21.8104 19.6801 21.4875 18.9585 21.2776V24.7816Z" fill="black"/>
</svg>
