<svg width="40" height="40" viewBox="0 0 40 40" fill="none" xmlns="http://www.w3.org/2000/svg">
<path fill-rule="evenodd" clip-rule="evenodd" d="M22.7778 15.1724L16.5556 17.2164V28.5714H16.5409C16.3516 31.0272 14.3481 33 11.8519 33C10.2504 33 9 31.6727 9 30.0952C9 27.4657 11.0796 25.2857 13.7037 25.2857H14.5556V14.5259C14.5556 12.6191 15.5462 10.6979 17.2949 10.1235L22.7778 8.32239V15.1724Z" fill="black"/>
<path opacity="0.3" d="M29.6746 8.05744C28.8326 7.19369 27.6062 6.73634 26.3228 7.15794L22.7778 8.32242V15.1725L29.0001 13.1285V21.8571H28.1482C25.5241 21.8571 23.4445 24.0372 23.4445 26.6667C23.4445 28.2442 24.6949 29.5714 26.2964 29.5714C28.7926 29.5714 30.7961 27.5986 30.9854 25.1428H31.0001V11.5604C31.0001 10.1734 30.505 8.90941 29.6746 8.05744Z" fill="black"/>
</svg>
