<svg width="40" height="40" viewBox="0 0 40 40" fill="none" xmlns="http://www.w3.org/2000/svg">
<path opacity="0.3" fill-rule="evenodd" clip-rule="evenodd" d="M9.23868 15.9C9.23868 18.5111 10.4815 20.8414 12.4059 22.2827C10.4687 22.7816 9.14326 23.6668 8.28947 24.9367C7.60985 25.9475 7.29834 27.1094 7.1479 28.2928C6.99997 29.4566 6.99999 30.7197 7 31.9624L7 32C7 32.5523 7.44772 33 8 33H25.9095C26.4618 33 26.9095 32.5523 26.9095 32V31.9611C26.9095 30.7196 26.9095 29.4682 26.7613 28.3192C26.6104 27.1487 26.2976 26.0044 25.6161 25.0059C24.752 23.7399 23.4054 22.8549 21.428 22.3386C23.3954 20.9021 24.6708 18.5451 24.6708 15.9C24.6708 11.5626 21.2415 8 16.9547 8C12.668 8 9.23868 11.5626 9.23868 15.9Z" fill="black"/>
<path fill-rule="evenodd" clip-rule="evenodd" d="M28.4876 17.1733C28.098 16.7818 27.4649 16.7802 27.0734 17.1698C26.6819 17.5593 26.6803 18.1925 27.0698 18.584L28.4787 20L27.0698 21.416C26.6803 21.8075 26.6819 22.4407 27.0734 22.8302C27.4649 23.2197 28.098 23.2181 28.4876 22.8266L29.8893 21.4178L31.2911 22.8266C31.6806 23.2181 32.3138 23.2197 32.7053 22.8302C33.0968 22.4407 33.0984 21.8075 32.7089 21.416L31.3 20L32.7089 18.584C33.0984 18.1925 33.0968 17.5593 32.7053 17.1698C32.3138 16.7802 31.6806 16.7818 31.2911 17.1733L29.8893 18.5822L28.4876 17.1733Z" fill="black"/>
</svg>
