<svg width="24" height="24" viewBox="0 0 24 24" fill="none" xmlns="http://www.w3.org/2000/svg">
<path fill-rule="evenodd" clip-rule="evenodd" d="M11.0022 15.826L11 10H9L12 7L15 10H12.9823V15.826L19.0528 11.8719L21.5766 13.6532C21.8468 13.8439 22.0052 14.1557 21.9999 14.4863C21.9946 14.8168 21.8262 15.1234 21.5501 15.3053L13.6595 20.5031C12.6539 21.1656 11.3461 21.1656 10.3405 20.5031L2.44989 15.3053C2.17379 15.1234 2.00544 14.8168 2.00013 14.4863C1.99482 14.1557 2.15325 13.8439 2.42337 13.6532L4.9419 11.8757L11.0022 15.826Z" fill="black"/>
<path fill-rule="evenodd" clip-rule="evenodd" d="M11.4453 5.11644C11.7812 4.89783 12.2188 4.89783 12.5547 5.11644L19.1972 9.43958L12.9823 13.4844V15.826L19.0528 11.8719L19.0589 11.8762L21.5547 10.2519C21.8329 10.0708 22 9.76599 22 9.43958C22 9.11317 21.8329 8.80836 21.5547 8.6273L13.6641 3.49188C12.6564 2.83604 11.3436 2.83604 10.3359 3.49188L2.4453 8.6273C2.1671 8.80836 2 9.11317 2 9.43958C2 9.76599 2.1671 10.0708 2.4453 10.2519L4.94112 11.8762L4.9419 11.8757L5.98769 12.5573L11.0022 15.8209L11.0013 13.4737L4.80278 9.43958L11.4453 5.11644Z" fill="black" fill-opacity="0.4"/>
</svg>
