<svg width="24" height="24" viewBox="0 0 24 24" fill="none" xmlns="http://www.w3.org/2000/svg">
<path fill-rule="evenodd" clip-rule="evenodd" d="M12.5614 5.16657C12.2224 4.94448 11.7776 4.94448 11.4386 5.16657L4.82469 9.5L11.4386 13.8334C11.7776 14.0555 12.2224 14.0555 12.5614 13.8334L19.1753 9.5L12.5614 5.16657ZM10.3426 3.49367C11.3472 2.83544 12.6528 2.83544 13.6574 3.49367L21.548 8.66355C21.8301 8.84834 22 9.16282 22 9.5C22 9.83718 21.8301 10.1517 21.548 10.3365L13.6574 15.5063C12.6528 16.1646 11.3472 16.1646 10.3426 15.5063L2.45196 10.3365C2.16992 10.1517 2 9.83718 2 9.5C2 9.16282 2.16992 8.84834 2.45196 8.66355L10.3426 3.49367Z" fill="black" fill-opacity="0.4"/>
<path fill-rule="evenodd" clip-rule="evenodd" d="M4.99097 12L2.45196 13.6635C2.16992 13.8483 2 14.1628 2 14.5C2 14.8372 2.16992 15.1517 2.45196 15.3364L10.3426 20.5063C11.3472 21.1646 12.6528 21.1646 13.6574 20.5063L21.548 15.3364C21.8301 15.1517 22 14.8372 22 14.5C22 14.1628 21.8301 13.8483 21.548 13.6635L19 12C17.2304 13.1484 14.6962 14.8373 14.0025 15.2835C13.3981 15.7013 12.8135 16 12 16C11.1865 16 10.5425 15.6684 9.99595 15.2811C9.72319 15.0878 7.63909 13.7471 4.99097 12Z" fill="black"/>
</svg>
