<svg width="24" height="24" viewBox="0 0 24 24" fill="none" xmlns="http://www.w3.org/2000/svg">
<path d="M11.8694 3.00013C11.1124 3.00613 10.3394 3.20914 9.74437 3.62514L2.43237 8.68814C1.85538 9.08414 1.85638 9.91414 2.43237 10.3131C2.43237 10.3131 4.92236 12.0293 9.74437 15.3752C10.0974 15.6152 10.5764 15.7942 11.0094 15.8952L11.0014 18.0002H9.00137L12.0014 21.0002L15.0064 18.0102L13.0014 18.0002L13.0114 15.8572C13.2764 15.7842 13.7104 15.5942 13.9944 15.4062C18.1375 12.6182 18.1 12.6772 21.5574 10.3441C22.1474 9.94715 22.1484 9.05216 21.5574 8.65616L13.9634 3.59413C13.3664 3.18813 12.6264 2.99413 11.8694 3.00013Z" fill="black"/>
<path fill-rule="evenodd" clip-rule="evenodd" d="M2.43236 13.6881L4.86935 12.0001L6.61935 13.1881H6.58836L4.74435 14.5001L7.58836 16.4691C7.16136 17.1521 7.03936 17.8621 7.21336 18.6251L2.43236 15.3131C1.85736 14.9141 1.85636 14.0851 2.43236 13.6881ZM21.5676 13.6881L19.1306 12.0001L17.3806 13.1881H17.4116L19.2556 14.5001L16.4116 16.4691C16.8386 17.1521 16.9606 17.8621 16.7866 18.6251L21.5676 15.3131C22.1426 14.9141 22.1436 14.0851 21.5676 13.6881Z" fill="black" fill-opacity="0.4"/>
</svg>
