<svg width="24" height="24" viewBox="0 0 24 24" fill="none" xmlns="http://www.w3.org/2000/svg">
<path d="M21 16.8125C21 19.1067 19.222 21 17 21H9V9H21V16.8125Z" fill="black" fill-opacity="0.4"/>
<path fill-rule="evenodd" clip-rule="evenodd" d="M21 7H3C3 4.7058 4.778 3 7 3H17C19.222 3 21 4.7058 21 7ZM7 21C4.778 21 3 19.1067 3 16.8125V9H7V21ZM12 17C12 17.5523 12.4477 18 13 18H17C17.5523 18 18 17.5523 18 17C18 16.4477 17.5523 16 17 16H13C12.4477 16 12 16.4477 12 17ZM12 13C12 13.5523 12.4477 14 13 14H17C17.5523 14 18 13.5523 18 13C18 12.4477 17.5523 12 17 12H13C12.4477 12 12 12.4477 12 13Z" fill="black"/>
</svg>
