<svg width="24" height="24" viewBox="0 0 24 24" fill="none" xmlns="http://www.w3.org/2000/svg">
<path d="M5 3C3.895 3 3 3.895 3 5V11C3 12.105 3.895 13 5 13H8C9.105 13 10 12.105 10 11V5C10 3.895 9.105 3 8 3H5ZM5 5H8V11H5V5Z" fill="black"/>
<path d="M14 4C12.895 4 12 4.895 12 6V10C12 11.105 12.895 12 14 12H18C19.105 12 20 11.105 20 10V6C20 4.895 19.105 4 18 4H14ZM14 6H18V10H14V6ZM14 14C12.895 14 12 14.895 12 16V18C12 19.105 12.895 20 14 20H19C20.105 20 21 19.105 21 18V16C21 14.895 20.105 14 19 14H14ZM5.65601 15C4.73601 15 4 15.736 4 16.656V19.344C4 20.264 4.73601 21 5.65601 21H8.34399C9.26399 21 10 20.264 10 19.344V16.656C10 15.736 9.26399 15 8.34399 15H5.65601ZM14 16H19V18H14V16ZM6 17H8V19H6V17Z" fill="black" fill-opacity="0.4"/>
</svg>
