<svg width="40" height="40" viewBox="0 0 40 40" fill="none" xmlns="http://www.w3.org/2000/svg">
<path opacity="0.3" fill-rule="evenodd" clip-rule="evenodd" d="M18.8792 33C13.3399 32.3536 9 27.4101 9 21.3624C9 19.9134 9.63743 18.1594 10.7527 16.2489C11.8528 14.3645 13.3382 12.4614 14.8528 10.7464C16.0933 9.34176 17.3364 8.08212 18.372 7.08451C18.5635 6.90004 18.8792 7.03753 18.8792 7.30426V33Z" fill="black"/>
<path d="M21.4001 32.2733C21.3673 32.3071 21.349 32.3524 21.349 32.3995C21.349 32.7193 21.6267 32.9687 21.9399 32.9141C26.4399 32.1293 30.0451 28.4923 30.9873 23.8011C31.0986 23.2466 30.4515 22.9431 30.0588 23.3479L21.4001 32.2733Z" fill="black"/>
<path d="M22.3878 27.6547L30.5177 19.2744C30.6779 19.1092 30.7329 18.8667 30.6505 18.6513C30.3826 17.9504 30.0286 17.2197 29.603 16.4703C29.5443 16.3669 29.4842 16.2632 29.423 16.1595C29.2239 15.8219 28.7618 15.7743 28.4893 16.0552L21.5212 23.2379C21.4108 23.3517 21.349 23.5044 21.349 23.6634V27.2292C21.349 27.7755 22.0086 28.0457 22.3878 27.6547Z" fill="black"/>
<path d="M22.3878 18.7441L27.1979 13.7859C27.4075 13.5699 27.4286 13.2317 27.2438 12.9939L27.1605 12.8871C26.6622 12.2502 26.1445 11.6278 25.6229 11.0286C25.3922 10.7636 24.9864 10.7553 24.7418 11.0074L21.5212 14.3273C21.4108 14.4411 21.349 14.5938 21.349 14.7528V18.3186C21.349 18.8649 22.0086 19.1351 22.3878 18.7441Z" fill="black"/>
<path d="M21.8684 10.3689L23.2764 8.91758C23.3912 8.79925 23.3912 8.61031 23.2759 8.4925C22.7757 7.98152 22.2971 7.50922 21.8564 7.08467C21.6649 6.9002 21.349 7.03754 21.349 7.30427V10.1562C21.349 10.4293 21.6788 10.5644 21.8684 10.3689Z" fill="black"/>
</svg>
