<svg width="24" height="24" viewBox="0 0 24 24" fill="none" xmlns="http://www.w3.org/2000/svg">
<path fill-rule="evenodd" clip-rule="evenodd" d="M12 7C9.23858 7 7 9.23858 7 12C7 14.7614 9.23858 17 12 17C14.7614 17 17 14.7614 17 12C17 9.23858 14.7614 7 12 7ZM2 12C2 6.47715 6.47715 2 12 2C17.5228 2 22 6.47715 22 12C22 17.5228 17.5228 22 12 22C6.47715 22 2 17.5228 2 12Z" fill="black" fill-opacity="0.4"/>
<path d="M12 2C10.619 2 9.5 3.119 9.5 4.5C9.5 5.881 10.619 7 12 7C13.706 7 15.317 7.93399 16.062 9.09399C16.876 8.10099 18.762 6.95401 21.062 7.78101C19.474 4.36001 16.02 2 12 2ZM7.78101 2.90601C4.36001 4.49501 2 7.98 2 12C2 13.381 3.119 14.5 4.5 14.5C5.881 14.5 7 13.381 7 12C7 10.294 7.78699 8.89399 9.09399 7.93799C7.59899 6.73699 7.12801 4.54901 7.78101 2.90601ZM19.5 9.5C18.119 9.5 17 10.619 17 12C17 13.706 16.137 15.162 14.906 16.062C16.132 17.068 16.948 18.966 16.219 21.062C19.64 19.474 22 16.02 22 12C22 10.619 20.881 9.5 19.5 9.5ZM7.93701 14.938C6.84401 16.201 4.89001 16.954 2.90601 16.219C4.49501 19.64 7.98 22 12 22C13.381 22 14.5 20.881 14.5 19.5C14.5 18.119 13.381 17 12 17C10.294 17 8.90301 16.207 7.93701 14.938Z" fill="black"/>
</svg>
