<svg width="24" height="24" viewBox="0 0 24 24" fill="none" xmlns="http://www.w3.org/2000/svg">
<path fill-rule="evenodd" clip-rule="evenodd" d="M12 8C11.6547 8 11.3196 8.04375 11 8.12602V2.04938C11.3289 2.01672 11.6625 2 12 2C12.3375 2 12.6711 2.01672 13 2.04938V8.12602C12.6804 8.04375 12.3453 8 12 8ZM12 16C11.6547 16 11.3196 15.9562 11 15.874V21.9506C11.3289 21.9833 11.6625 22 12 22C12.3375 22 12.6711 21.9833 13 21.9506V15.874C12.6804 15.9562 12.3453 16 12 16ZM15.874 13C15.9562 12.6804 16 12.3453 16 12C16 11.6547 15.9562 11.3196 15.874 11H21.9506C21.9833 11.3289 22 11.6625 22 12C22 12.3375 21.9833 12.6711 21.9506 13H15.874ZM8 12C8 12.3453 8.04375 12.6804 8.12602 13H2.04938C2.01672 12.6711 2 12.3375 2 12C2 11.6625 2.01672 11.3289 2.04938 11H8.12602C8.04375 11.3196 8 11.6547 8 12Z" fill="black"/>
<path fill-rule="evenodd" clip-rule="evenodd" d="M4.06183 12.9999H2.04932C2.51839 17.7244 6.27553 21.4815 10.9999 21.9506V19.938C7.38122 19.4868 4.51308 16.6187 4.06183 12.9999ZM12.9999 19.938V21.9506C17.7244 21.4815 21.4815 17.7244 21.9506 12.9999H19.938C19.4868 16.6187 16.6187 19.4868 12.9999 19.938ZM17.917 12.9999C17.4955 15.5124 15.5124 17.4955 12.9999 17.917V15.8739C14.4055 15.5121 15.5121 14.4055 15.8739 12.9999H17.917ZM19.938 10.9999H21.9506C21.4815 6.27552 17.7244 2.51838 12.9999 2.04932V4.06183C16.6187 4.51308 19.4868 7.38122 19.938 10.9999ZM12.9999 6.0829C15.5124 6.50442 17.4955 8.48744 17.917 10.9999H15.8739C15.5121 9.59433 14.4055 8.48774 12.9999 8.12596V6.0829ZM10.9999 4.06183V2.04932C6.27552 2.51839 2.51838 6.27552 2.04932 10.9999H4.06183C4.51308 7.38122 7.38122 4.51308 10.9999 4.06183ZM6.0829 10.9999C6.50442 8.48744 8.48744 6.50442 10.9999 6.0829V8.12596C9.59433 8.48774 8.48774 9.59433 8.12596 10.9999H6.0829ZM6.0829 12.9999C6.50442 15.5124 8.48744 17.4955 10.9999 17.917V15.8739C9.59433 15.5121 8.48774 14.4055 8.12596 12.9999H6.0829Z" fill="black" fill-opacity="0.4"/>
</svg>
