<svg width="24" height="24" viewBox="0 0 24 24" fill="none" xmlns="http://www.w3.org/2000/svg">
<path fill-rule="evenodd" clip-rule="evenodd" d="M4 12C4 7.58172 7.58172 4 12 4C16.4183 4 20 7.58172 20 12C20 16.4183 16.4183 20 12 20C7.58172 20 4 16.4183 4 12ZM12 2C6.47715 2 2 6.47715 2 12C2 17.5228 6.47715 22 12 22C17.5228 22 22 17.5228 22 12C22 6.47715 17.5228 2 12 2ZM8 12C8 9.79086 9.79086 8 12 8C14.2091 8 16 9.79086 16 12C16 14.2091 14.2091 16 12 16C9.79086 16 8 14.2091 8 12ZM12 6C8.68629 6 6 8.68629 6 12C6 15.3137 8.68629 18 12 18C15.3137 18 18 15.3137 18 12C18 8.68629 15.3137 6 12 6Z" fill="black" fill-opacity="0.4"/>
<path fill-rule="evenodd" clip-rule="evenodd" d="M7.00003 5C7.00003 6.72406 7.87261 8.24431 9.20024 9.14321C9.92172 8.43604 10.91 8 12 8C10.3432 8 9.00003 6.65685 9.00003 5C9.00003 3.34315 10.3432 2 12 2C10.3241 2 8.74451 2.41226 7.35707 3.1409C7.12674 3.7156 7.00003 4.343 7.00003 5ZM17 19C17 17.276 16.1274 15.7557 14.7998 14.8568C14.0783 15.564 13.0901 16.0001 12 16.0001C13.6569 16.0001 15 17.3432 15 19C15 20.6569 13.6569 22 12 22C13.6759 22 15.2555 21.5878 16.643 20.8591C16.8733 20.2844 17 19.657 17 19ZM14.8568 9.20024C15.7557 7.87261 17.276 7.00003 19 7.00003C19.657 7.00003 20.2844 7.12674 20.8591 7.35707C21.5878 8.74451 22 10.3241 22 12C22 10.3432 20.6569 9.00003 19 9.00003C17.3432 9.00003 16.0001 10.3432 16.0001 12C16.0001 10.91 15.564 9.92172 14.8568 9.20024ZM5 17C6.72406 17 8.24431 16.1274 9.14321 14.7998C8.43604 14.0783 8 13.0901 8 12C8 13.6569 6.65685 15 5 15C3.34315 15 2 13.6569 2 12C2 13.6759 2.41226 15.2555 3.1409 16.643C3.7156 16.8733 4.343 17 5 17Z" fill="black"/>
</svg>
