<svg width="24" height="24" viewBox="0 0 24 24" fill="none" xmlns="http://www.w3.org/2000/svg">
<path fill-rule="evenodd" clip-rule="evenodd" d="M11 18V19C11 19.5523 11.4477 20 12 20C12.5523 20 13 19.5523 13 19V18H15V19C15 20.6569 13.6569 22 12 22C10.3431 22 9 20.6569 9 19V18H11Z" fill="black" fill-opacity="0.4"/>
<path d="M12 2C11.448 2 11 2.448 11 3C11 3.552 11.448 4 12 4C12.552 4 13 3.552 13 3C13 2.448 12.552 2 12 2ZM6 5C5.4477 5 5 5.448 5 6C5 6.552 5.4477 7 6 7C6.5523 7 7 6.552 7 6C7 5.448 6.5523 5 6 5ZM12 5C8.6863 5 6 7.686 6 11C6 12.309 6.4207 13.566 7.1875 14.594C7.2723 14.707 7.9993 15.486 8.2188 15.75C8.416 15.987 8.5558 16.207 8.6875 16.406C8.8891 16.711 9 16.935 9 17V18C10 18 14 18 15 18V17C15 16.933 15.082 16.708 15.281 16.406C15.414 16.205 15.611 15.992 15.812 15.75C16.014 15.509 16.715 14.724 16.812 14.594C17.577 13.567 18 12.307 18 11C18 7.686 15.314 5 12 5ZM18 5C17.448 5 17 5.448 17 6C17 6.552 17.448 7 18 7C18.552 7 19 6.552 19 6C19 5.448 18.552 5 18 5ZM12 7C14.209 7 16 8.791 16 11C16 11.873 15.729 12.69 15.219 13.375C15.191 13.412 14.506 14.162 14.25 14.469C14.004 14.763 13.804 15.042 13.625 15.312C13.463 15.557 13.36 15.761 13.258 15.991C12.407 15.991 11.602 15.991 10.751 15.991C10.649 15.761 10.538 15.558 10.375 15.312C10.198 15.046 9.9904 14.758 9.75 14.469C9.4745 14.138 8.7958 13.395 8.7812 13.375C8.27 12.69 8 11.874 8 11C8 8.791 9.7909 7 12 7ZM4 11C3.4477 11 3 11.448 3 12C3 12.552 3.4477 13 4 13C4.5523 13 5 12.552 5 12C5 11.448 4.5523 11 4 11ZM20 11C19.448 11 19 11.448 19 12C19 12.552 19.448 13 20 13C20.552 13 21 12.552 21 12C21 11.448 20.552 11 20 11Z" fill="black"/>
</svg>
