<svg width="40" height="40" viewBox="0 0 40 40" fill="none" xmlns="http://www.w3.org/2000/svg">
<path d="M17.3333 30.9999C16.7811 30.9999 16.3333 31.4477 16.3333 31.9999C16.3333 32.5522 16.7811 32.9999 17.3333 32.9999H22.6667C23.219 32.9999 23.6667 32.5522 23.6667 31.9999C23.6667 31.4477 23.219 30.9999 22.6667 30.9999H17.3333Z" fill="black"/>
<path d="M16.4445 28.2307C15.8922 28.2307 15.4445 28.6784 15.4445 29.2307C15.4445 29.783 15.8922 30.2307 16.4445 30.2307H23.5556C24.1079 30.2307 24.5556 29.783 24.5556 29.2307C24.5556 28.6784 24.1079 28.2307 23.5556 28.2307H16.4445Z" fill="black"/>
<path opacity="0.3" d="M20 7C14.9942 7 11 11.2031 11 16.3077C11 18.9072 12.032 21.2653 13.7026 22.9576C14.2426 23.5046 14.5556 24.1341 14.5556 24.7445C14.5556 26.2092 15.7083 27.4615 17.209 27.4615H22.791C24.2917 27.4615 25.4444 26.2092 25.4444 24.7445C25.4444 24.1341 25.7574 23.5046 26.2974 22.9576C27.968 21.2653 29 18.9072 29 16.3077C29 11.2031 25.0058 7 20 7Z" fill="black"/>
</svg>
