<svg width="24" height="24" viewBox="0 0 24 24" fill="none" xmlns="http://www.w3.org/2000/svg">
<path fill-rule="evenodd" clip-rule="evenodd" d="M10 17V18C10 19.1046 10.8954 20 12 20C13.1046 20 14 19.1046 14 18V17H16V18C16 20.2091 14.2091 22 12 22C9.79086 22 8 20.2091 8 18V17H10Z" fill="black" fill-opacity="0.4"/>
<path d="M12 2C8.134 2 5 5.12424 5 8.97819C5 10.9311 5.545 12.0945 6.75 13.4951C6.806 13.5609 7.01301 13.8111 7.06201 13.8689C7.77301 14.6953 8 15.1459 8 15.9564C8 16.3224 8.00269 17 8.00269 17C8.00269 17 16.0027 17 16 17C16 17 16 16.3236 16 15.9564C16 15.1459 16.227 14.6953 16.938 13.8689C16.987 13.8111 17.194 13.5609 17.25 13.4951C18.455 12.0945 19 10.9311 19 8.97819C19 5.12424 15.866 2 12 2ZM12 3.99377C14.761 3.99377 17 6.22579 17 8.97819C17 10.3898 16.67 11.1165 15.75 12.1872C15.698 12.247 15.46 12.4982 15.406 12.561C14.693 13.3904 14.278 14.1361 14.097 14.9655C12.829 14.9655 11.168 14.9705 9.89999 14.9705C9.71899 14.1401 9.30699 13.3904 8.59399 12.561C8.53999 12.4982 8.302 12.247 8.25 12.1872C7.33 11.1165 7 10.3898 7 8.97819C7 6.22579 9.239 3.99377 12 3.99377ZM12 5.98754C10.343 5.98754 9 7.32636 9 8.97819C9 9.52847 9.448 9.97508 10 9.97508C10.552 9.97508 11 9.52847 11 8.97819C11 8.42791 11.448 7.98131 12 7.98131C12.552 7.98131 13 7.5347 13 6.98442C13 6.43414 12.552 5.98754 12 5.98754Z" fill="black"/>
</svg>
