<svg width="24" height="24" viewBox="0 0 24 24" fill="none" xmlns="http://www.w3.org/2000/svg">
<path d="M16 21C19.552 21 22 18.552 22 15V14C22.006 12.98 21.78 12.04 21.406 11.219C21.18 10.721 20.959 10.372 20.781 10.156C20.43 9.73001 19.801 9.68001 19.375 10.031C18.949 10.383 18.867 11.011 19.219 11.437C19.291 11.525 19.445 11.736 19.594 12.062C19.853 12.632 20.004 13.281 20 14V15C20 17.448 18.448 19 16 19H12C9.55202 19 8.00002 17.448 8.00002 15V14C8.00002 11.552 9.55202 10 12 10H13C13.552 10 14 9.552 14 9C14 8.448 13.552 8 13 8H12C8.44802 8 6.00002 10.448 6.00002 14V15C6.00002 18.552 8.44802 21 12 21H16Z" fill="black" fill-opacity="0.4"/>
<path d="M8.00011 3C4.44811 3 2.00012 5.448 2.00012 9V10C1.99412 11.02 2.22011 11.96 2.59411 12.781C2.82011 13.279 3.04111 13.628 3.21911 13.844C3.57011 14.27 4.19911 14.32 4.62511 13.969C5.05111 13.617 5.13312 12.989 4.78112 12.563C4.70912 12.475 4.55512 12.264 4.40612 11.938C4.14712 11.368 3.99611 10.719 4.00011 10V9C4.00011 6.552 5.55211 5 8.00011 5H12.0001C14.4481 5 16.0001 6.552 16.0001 9V10C16.0001 12.448 14.4481 14 12.0001 14H11.0001C10.4481 14 10.0001 14.448 10.0001 15C10.0001 15.552 10.4481 16 11.0001 16H12.0001C15.5521 16 18.0001 13.552 18.0001 10V9C18.0001 5.448 15.5521 3 12.0001 3H8.00011Z" fill="black"/>
</svg>
