<svg width="24" height="24" viewBox="0 0 24 24" fill="none" xmlns="http://www.w3.org/2000/svg">
<path d="M17 20C19.761 20 22 17.761 22 15V14C22 12.9 21.67 11.706 20.719 10.687C20.342 10.284 19.716 10.248 19.312 10.625C18.909 11.002 18.873 11.659 19.25 12.062C19.79 12.641 20 13.359 20 14V15C20 16.657 18.657 18 17 18H11C9.343 18 8 16.657 8 15V14C8 12.343 9.343 11 11 11H13C13.552 11 14 10.552 14 10C14 9.448 13.552 9 13 9H11C8.239 9 6 11.239 6 14V15C6 17.761 8.239 20 11 20H17Z" fill="black" fill-opacity="0.4"/>
<path d="M7 4C4.239 4 2 6.239 2 9V10C2 11.1 2.33001 12.294 3.28101 13.313C3.65801 13.716 4.284 13.752 4.688 13.375C5.091 12.998 5.127 12.341 4.75 11.938C4.21 11.359 4 10.641 4 10V9C4 7.343 5.343 6 7 6H13C14.657 6 16 7.343 16 9V10C16 11.657 14.657 13 13 13H11C10.448 13 10 13.448 10 14C10 14.552 10.448 15 11 15H13C15.761 15 18 12.761 18 10V9C18 6.239 15.761 4 13 4H7Z" fill="black"/>
</svg>
