<svg width="24" height="24" viewBox="0 0 24 24" fill="none" xmlns="http://www.w3.org/2000/svg">
<path d="M7 3C4.791 3 3 4.791 3 7V17C3 19.209 4.791 21 7 21H17C19.209 21 21 19.209 21 17V7C21 4.791 19.209 3 17 3H7Z" fill="black" fill-opacity="0.4"/>
<path d="M8 7C7.448 7 7 7.448 7 8C7 8.552 7.448 9 8 9C8.552 9 9 8.552 9 8C9 7.448 8.552 7 8 7ZM11 7C10.448 7 10 7.448 10 8C10 8.552 10.448 9 11 9H16C16.552 9 17 8.552 17 8C17 7.448 16.552 7 16 7H11ZM8 11C7.448 11 7 11.448 7 12C7 12.552 7.448 13 8 13C8.552 13 9 12.552 9 12C9 11.448 8.552 11 8 11ZM11 11C10.448 11 10 11.448 10 12C10 12.552 10.448 13 11 13H16C16.552 13 17 12.552 17 12C17 11.448 16.552 11 16 11H11ZM8 15C7.448 15 7 15.448 7 16C7 16.552 7.448 17 8 17C8.552 17 9 16.552 9 16C9 15.448 8.552 15 8 15ZM11 15C10.448 15 10 15.448 10 16C10 16.552 10.448 17 11 17H16C16.552 17 17 16.552 17 16C17 15.448 16.552 15 16 15H11Z" fill="black"/>
</svg>
