<svg width="40" height="40" viewBox="0 0 40 40" fill="none" xmlns="http://www.w3.org/2000/svg">
<path opacity="0.3" d="M32.726 11.3766C33.2844 10.1179 32.9504 8.84632 32.1621 7.99998C31.3218 7.09769 29.9652 6.67871 28.6234 7.27399L9.16173 15.9073C6.07368 17.2773 6.36105 21.7505 9.59748 22.7162L9.89033 22.8037C11.6839 23.3386 13.278 24.3169 14.5481 25.6141C15.7646 26.8565 16.6838 28.3915 17.1961 30.1094L17.2836 30.4029C18.2491 33.6404 22.7221 33.9257 24.0919 30.838L32.726 11.3766Z" fill="black"/>
<path d="M9.16173 15.9073C6.07368 17.2773 6.36105 21.7505 9.59748 22.7162L9.89033 22.8037C11.6839 23.3386 13.278 24.3169 14.5481 25.6141L32.1621 7.99998C31.3218 7.09769 29.9652 6.67871 28.6234 7.27399L9.16173 15.9073Z" fill="black"/>
</svg>
