<svg width="40" height="40" viewBox="0 0 40 40" fill="none" xmlns="http://www.w3.org/2000/svg">
<path opacity="0.3" fill-rule="evenodd" clip-rule="evenodd" d="M20 5.99997L19.8624 5.99993C19.067 5.99949 18.4764 5.99917 17.9647 6.13627C16.5844 6.50614 15.5062 7.58433 15.1363 8.9647C14.9992 9.47635 14.9995 10.067 15 10.8624L15 11V11.1444C14.1867 11.2473 13.4776 11.4289 12.8221 11.7629C11.5049 12.434 10.4341 13.5049 9.76295 14.822C9.35217 15.6282 9.17186 16.5154 9.08507 17.5778C8.99999 18.6191 8.99999 19.913 9 21.5556V22.4444C8.99999 24.0869 8.99999 25.3809 9.08507 26.4222C9.17186 27.4845 9.35217 28.3717 9.76295 29.1779C10.4341 30.495 11.5049 31.5659 12.8221 32.237C13.6283 32.6478 14.5154 32.8281 15.5778 32.9149C16.6191 33 17.913 33 19.5556 33H20.4444C22.087 33 23.3809 33 24.4222 32.9149C25.4846 32.8281 26.3717 32.6478 27.1779 32.237C28.4951 31.5659 29.5659 30.495 30.237 29.1779C30.6478 28.3717 30.8281 27.4845 30.9149 26.4222C31 25.3809 31 24.0869 31 22.4444V21.5555C31 19.913 31 18.6191 30.9149 17.5778C30.8281 16.5154 30.6478 15.6282 30.237 14.822C29.5659 13.5049 28.4951 12.434 27.1779 11.7629C26.5224 11.4289 25.8133 11.2473 25 11.1444V11L25 10.8624C25.0005 10.067 25.0008 9.47635 24.8637 8.9647C24.4938 7.58433 23.4156 6.50614 22.0353 6.13627C21.5236 5.99917 20.933 5.99949 20.1376 5.99993L20 5.99997ZM19.5556 11H20.4444C21.4103 11 22.2557 11 23 11.0173V11C23 10.0056 22.9914 9.70461 22.9319 9.48234C22.7469 8.79215 22.2078 8.25306 21.5176 8.06812C21.2954 8.00856 20.9944 7.99997 20 7.99997C19.0056 7.99997 18.7046 8.00856 18.4824 8.06812C17.7922 8.25306 17.2531 8.79215 17.0681 9.48234C17.0086 9.70461 17 10.0056 17 11V11.0173C17.7443 11 18.5897 11 19.5556 11ZM16 20.8C16 18.6374 17.857 17 20 17C22.143 17 24 18.6374 24 20.8C24 21.648 23.7069 22.4281 23.2213 23.0538C23.1673 23.1233 23.1133 23.1785 23.0737 23.2164C23.0479 23.2412 23.0227 23.264 23 23.2838V24.3C23 25.2389 22.2389 26 21.3 26H18.7C17.7611 26 17 25.2389 17 24.3V23.2838C16.9773 23.264 16.9521 23.2412 16.9263 23.2164C16.8867 23.1785 16.8327 23.1233 16.7787 23.0538C16.2931 22.4281 16 21.648 16 20.8Z" fill="black"/>
<path d="M18 20.8C18 19.8698 18.8293 19 20 19C21.1707 19 22 19.8698 22 20.8C22 21.1617 21.8819 21.5015 21.6697 21.79L21.6635 21.7951C21.6376 21.8165 21.5555 21.8844 21.5155 21.9195C21.4525 21.9747 21.3437 22.0738 21.2467 22.2056C21.1535 22.3322 21 22.5841 21 22.9306V23.5C21 23.7761 20.7761 24 20.5 24H19.5C19.2239 24 19 23.7761 19 23.5V22.9306C19 22.5841 18.8465 22.3322 18.7533 22.2056C18.6563 22.0738 18.5475 21.9747 18.4845 21.9195C18.4445 21.8844 18.3623 21.8164 18.3364 21.795L18.3303 21.79C18.1181 21.5015 18 21.1617 18 20.8Z" fill="black"/>
<path fill-rule="evenodd" clip-rule="evenodd" d="M18 20.8C18 19.8698 18.8293 19 20 19C21.1707 19 22 19.8698 22 20.8C22 21.1617 21.8819 21.5015 21.6697 21.79L21.6635 21.7951C21.6376 21.8165 21.5555 21.8844 21.5155 21.9195C21.4525 21.9747 21.3437 22.0738 21.2467 22.2056C21.1535 22.3322 21 22.5841 21 22.9306V23.5C21 23.7761 20.7761 24 20.5 24H19.5C19.2239 24 19 23.7761 19 23.5V22.9306C19 22.5841 18.8465 22.3322 18.7533 22.2056C18.6563 22.0738 18.5475 21.9747 18.4845 21.9195C18.4445 21.8844 18.3623 21.8164 18.3364 21.795L18.3303 21.79C18.1181 21.5015 18 21.1617 18 20.8Z" fill="black"/>
</svg>
