<svg width="40" height="40" viewBox="0 0 40 40" fill="none" xmlns="http://www.w3.org/2000/svg">
<path d="M29.5547 16.3668C29.9048 15.9393 30.5353 15.8763 30.9631 16.2261L34.6329 19.2261C34.8653 19.416 35 19.7001 35 20C35 20.3 34.8653 20.5841 34.6329 20.774L30.9631 23.774C30.5353 24.1237 29.9048 24.0607 29.5547 23.6333C29.2047 23.2058 29.2678 22.5758 29.6956 22.2261L31.1954 21H29.0197C28.4669 21 28.0188 20.5523 28.0188 20C28.0188 19.4477 28.4669 19 29.0197 19H31.1954L29.6956 17.774C29.2678 17.4243 29.2047 16.7942 29.5547 16.3668Z" fill="black"/>
<path opacity="0.3" d="M21.4354 7.08507C20.3932 6.99999 19.0981 6.99999 17.4542 7H16.5646C14.9207 6.99999 13.6256 6.99999 12.5834 7.08507C11.5201 7.17186 10.6322 7.35217 9.82533 7.76295C8.50707 8.43407 7.43529 9.50493 6.76361 10.8221C6.35247 11.6283 6.17201 12.5154 6.08514 13.5778C5.99999 14.6191 5.99999 15.913 6 17.5556V22.4444C5.99999 24.087 5.99999 25.3809 6.08514 26.4222C6.17201 27.4846 6.35247 28.3717 6.76361 29.1779C7.43529 30.4951 8.50707 31.5659 9.82533 32.237C10.6322 32.6478 11.5201 32.8281 12.5834 32.9149C13.6256 33 14.9206 33 16.5646 33H17.4542C19.0981 33 20.3932 33 21.4354 32.9149C22.4986 32.8281 23.3866 32.6478 24.1935 32.237C25.5117 31.5659 26.5835 30.4951 27.2552 29.1779C27.6978 28.3099 27.8812 27.5181 27.9592 26.4128C28.0435 25.3731 28.0435 24.0821 28.0435 22.4445V21H22.0137C21.4609 21 21.0128 20.5523 21.0128 20C21.0128 19.4477 21.4609 19 22.0137 19H28.0435V17.5557C28.0435 15.919 28.0436 14.6284 27.9593 13.589C27.8814 12.4827 27.6981 11.6906 27.2552 10.8221C26.5835 9.50493 25.5117 8.43407 24.1935 7.76295C23.3866 7.35217 22.4986 7.17186 21.4354 7.08507Z" fill="black"/>
</svg>
