<svg width="24" height="24" viewBox="0 0 24 24" fill="none" xmlns="http://www.w3.org/2000/svg">
<path d="M5.84399 4C3.70899 4 2 5.803 2 8V16C2 18.197 3.70899 20 5.84399 20H18.156C20.291 20 22 18.197 22 16V8C22 5.803 20.291 4 18.156 4H5.84399ZM5.84399 6H18.156C19.161 6 20 6.884 20 8V16C20 17.116 19.161 18 18.156 18H5.84399C4.83899 18 4 17.116 4 16V8C4 6.884 4.83899 6 5.84399 6Z" fill="black" fill-opacity="0.4"/>
<path d="M17 8C16.527 8 16.156 8.37101 16.156 8.81201V13.562C15.85 13.454 15.496 13.333 15.25 13.562C14.915 13.875 14.915 14.375 15.25 14.688L16.406 15.781C16.505 15.873 16.733 15.999 17 16C17.267 16.001 17.495 15.873 17.594 15.781L18.75 14.688C19.085 14.375 19.085 13.875 18.75 13.562C18.504 13.333 18.15 13.454 17.844 13.562V8.81201C17.844 8.37101 17.473 8 17 8ZM6.59399 8.03101C6.27399 8.12001 6 8.37501 6 8.78101V15.188C6 15.63 6.33901 16 6.78101 16C7.22301 16 7.59399 15.63 7.59399 15.188V11.688L9.313 14.531C9.623 15.049 10.377 15.049 10.688 14.531L12.406 11.688V15.188C12.406 15.63 12.745 16 13.188 16C13.63 16 14 15.63 14 15.188V8.78101C14 7.96901 12.918 7.71001 12.5 8.40601L10 12.562L7.5 8.40601C7.291 8.05801 6.91299 7.94301 6.59399 8.03101Z" fill="black"/>
</svg>
