<svg width="24" height="24" viewBox="0 0 24 24" fill="none" xmlns="http://www.w3.org/2000/svg">
<path fill-rule="evenodd" clip-rule="evenodd" d="M9 21.5422C13.0571 20.2679 16 16.4776 16 12C16 7.52236 13.0571 3.73207 9 2.4578C9.94704 2.16035 10.9548 2 12 2C17.5228 2 22 6.47715 22 12C22 17.5228 17.5228 22 12 22C10.9548 22 9.94705 21.8396 9 21.5422Z" fill="black"/>
<path fill-rule="evenodd" clip-rule="evenodd" d="M9 2.45782C4.94289 3.73209 2 7.52238 2 12C2 16.4777 4.9429 20.268 9 21.5422C13.0571 20.268 16 16.4777 16 12C16 7.52238 13.0571 3.73209 9 2.45782Z" fill="black" fill-opacity="0.4"/>
</svg>
