<svg width="40" height="40" viewBox="0 0 40 40" fill="none" xmlns="http://www.w3.org/2000/svg">
<path opacity="0.3" d="M20.0375 7C21.8695 7 23.2956 6.99999 24.4453 7.07844C25.6119 7.15803 26.5669 7.32172 27.4442 7.68508C29.6494 8.59853 31.4015 10.3506 32.3149 12.5558C32.6783 13.4331 32.842 14.3881 32.9216 15.5547C33 16.7044 33 18.1304 33 19.9624V20.0376C33 21.8696 33 23.2956 32.9216 24.4453C32.842 25.6119 32.6783 26.5669 32.3149 27.4442C31.4015 29.6494 29.6494 31.4015 27.4442 32.3149C26.5669 32.6783 25.6119 32.842 24.4453 32.9216C23.2956 33 21.8696 33 20.0376 33H19.9624C18.1304 33 16.7044 33 15.5547 32.9216C14.3881 32.842 13.4331 32.6783 12.5558 32.3149C10.3506 31.4015 8.59853 29.6494 7.68508 27.4442C7.32172 26.5669 7.15803 25.6119 7.07844 24.4453C6.99999 23.2956 7 21.8695 7 20.0375V19.9625C7 18.1305 6.99999 16.7044 7.07844 15.5547C7.15803 14.3881 7.32172 13.4331 7.68508 12.5558C8.59853 10.3506 10.3506 8.59853 12.5558 7.68508C13.4331 7.32172 14.3881 7.15803 15.5547 7.07844C16.7044 6.99999 18.1305 7 19.9625 7H20.0375Z" fill="black"/>
<path fill-rule="evenodd" clip-rule="evenodd" d="M14 20C14 16.6863 16.6863 14 20 14C23.3137 14 26 16.6863 26 20C26 20.7119 25.7855 21.0164 25.6512 21.1453C25.4916 21.2985 25.3107 21.3333 25.25 21.3333C25.0975 21.3333 25.0116 21.2948 24.9527 21.2542C24.8838 21.2068 24.8055 21.1232 24.7299 20.9832C24.5683 20.684 24.5 20.2768 24.5 20C24.5 17.5147 22.4853 15.5 20 15.5C17.5147 15.5 15.5 17.5147 15.5 20C15.5 22.4853 17.5147 24.5 20 24.5C21.4637 24.5 22.7641 23.8012 23.586 22.719C23.9936 23.0795 24.5416 23.3333 25.25 23.3333C25.7726 23.3333 26.4667 23.1348 27.0363 22.5881C27.6312 22.017 28 21.1548 28 20C28 15.5817 24.4183 12 20 12C15.5817 12 12 15.5817 12 20C12 24.4183 15.5817 28 20 28C20.5523 28 21 27.5523 21 27C21 26.4477 20.5523 26 20 26C16.6863 26 14 23.3137 14 20ZM22.5 20C22.5 18.6193 21.3807 17.5 20 17.5C18.6193 17.5 17.5 18.6193 17.5 20C17.5 21.3807 18.6193 22.5 20 22.5C21.3807 22.5 22.5 21.3807 22.5 20Z" fill="black"/>
</svg>
