<svg width="40" height="40" viewBox="0 0 40 40" fill="none" xmlns="http://www.w3.org/2000/svg">
<g opacity="0.3">
<path d="M14.066 17.6C14.066 20.8077 16.6213 23.4 19.7636 23.4C20.3217 23.4 20.8612 23.3183 21.3711 23.1658L14.066 15.7003V17.6Z" fill="black"/>
<path d="M12.8362 20.5692C12.625 20.0609 12.0505 19.8237 11.5531 20.0395C11.0556 20.2553 10.8235 20.8424 11.0347 21.3508C12.3513 24.5203 15.2863 26.8238 18.7851 27.1892V32C18.7851 32.5523 19.2232 33 19.7636 33C20.3041 33 20.7422 32.5523 20.7422 32V27.1892C22.0038 27.0574 23.1921 26.6737 24.2577 26.0882L22.7949 24.5933C21.8677 25.0091 20.8422 25.24 19.7636 25.24C16.6483 25.24 13.9761 23.3136 12.8362 20.5692Z" fill="black"/>
<path d="M25.4613 12.8C25.4613 9.5923 22.906 7 19.7636 7C17.2238 7 15.0674 8.69353 14.3339 11.0367L24.1936 21.1728L25.5326 22.5118L26.9278 23.907C27.5727 23.1491 28.1033 22.2878 28.4926 21.3508C28.7037 20.8424 28.4717 20.2553 27.9742 20.0395C27.4767 19.8237 26.9023 20.0609 26.6911 20.5692C26.4008 21.2682 26.011 21.9141 25.5399 22.4887L24.2523 21.1728C25.0096 20.1887 25.4613 18.9487 25.4613 17.6V12.8Z" fill="black"/>
</g>
<path fill-rule="evenodd" clip-rule="evenodd" d="M26.9278 23.907L25.5326 22.5118L24.1936 21.1729L14.3339 11.0367L10.6747 7.29729L10.6708 7.29328C10.2883 6.90677 9.6717 6.9081 9.29088 7.29729C8.90874 7.68781 8.90874 8.32098 9.29088 8.7115L14.0659 13.5913L22.7948 22.5118L24.0974 23.8429L24.1462 23.8929L25.4976 25.2739L30.3295 30.2119C30.7117 30.6024 31.3312 30.6024 31.7134 30.2119C32.0955 29.8213 32.0955 29.1882 31.7134 28.7976L26.9278 23.907Z" fill="black"/>
</svg>
