<svg width="40" height="40" viewBox="0 0 40 40" fill="none" xmlns="http://www.w3.org/2000/svg">
<path fill-rule="evenodd" clip-rule="evenodd" d="M19.9998 7C16.7885 7 14.1771 9.5923 14.1771 12.8V17.6C14.1771 20.8077 16.7885 23.4 19.9998 23.4C23.2112 23.4 25.8225 20.8077 25.8225 17.6V12.8C25.8225 9.5923 23.2112 7 19.9998 7Z" fill="black"/>
<path opacity="0.3" d="M12.9203 20.5692C12.7045 20.0608 12.1175 19.8237 11.6091 20.0395C11.1007 20.2553 10.8635 20.8424 11.0793 21.3507C12.4248 24.5203 15.4242 26.8237 18.9998 27.1892V32C18.9998 32.5523 19.4475 33 19.9998 33C20.5521 33 20.9998 32.5523 20.9998 32V27.1892C24.5754 26.8237 27.5748 24.5203 28.9203 21.3507C29.1361 20.8424 28.899 20.2553 28.3906 20.0395C27.8822 19.8237 27.2951 20.0608 27.0793 20.5692C25.9143 23.3136 23.1836 25.24 19.9998 25.24C16.8161 25.24 14.0853 23.3136 12.9203 20.5692Z" fill="black"/>
</svg>
