<svg width="40" height="40" viewBox="0 0 40 40" fill="none" xmlns="http://www.w3.org/2000/svg">
<path fill-rule="evenodd" clip-rule="evenodd" d="M23.5925 10.0488C22.8529 9.99999 21.9425 9.99999 20.8009 10H15.6247C14.483 9.99999 13.5727 9.99999 12.833 10.0488C12.0541 10.1002 11.389 10.209 10.7677 10.4678C9.27061 11.0914 8.08289 12.2868 7.46407 13.7892C7.28904 14.2141 7.18354 14.6581 7.11774 15.1455C6.99993 16.018 6.99996 17.1281 7 18.6209V18.7845C6.99996 20.2774 6.99993 21.3874 7.11774 22.26C7.18354 22.7474 7.28904 23.1913 7.46407 23.6163C8.08289 25.1187 9.27061 26.3141 10.7677 26.9377C11.389 27.1965 12.0541 27.3053 12.833 27.3567C13.5727 27.4055 14.483 27.4055 15.6247 27.4055H20.8009C21.9426 27.4055 22.8529 27.4055 23.5925 27.3567C24.3715 27.3053 25.0366 27.1965 25.6578 26.9377C27.1549 26.3141 28.3427 25.1187 28.9615 23.6163C29.1365 23.1913 29.242 22.7474 29.3078 22.26C29.4256 21.3874 29.4256 20.2774 29.4256 18.7845V18.6209C29.4256 17.1281 29.4256 16.018 29.3078 15.1455C29.242 14.6581 29.1365 14.2141 28.9615 13.7892C28.3427 12.2868 27.1549 11.0914 25.6578 10.4678C25.0366 10.209 24.3715 10.1002 23.5925 10.0488ZM13.8085 18.7027C13.8085 16.265 15.7751 14.2793 18.2128 14.2793C20.6505 14.2793 22.617 16.265 22.617 18.7027C22.617 21.1404 20.6505 23.1262 18.2128 23.1262C15.7751 23.1262 13.8085 21.1404 13.8085 18.7027Z" fill="black"/>
<path d="M15.8085 18.7027C15.8085 17.359 16.8902 16.2793 18.2128 16.2793C19.5353 16.2793 20.617 17.359 20.617 18.7027C20.617 20.0465 19.5353 21.1262 18.2128 21.1262C16.8902 21.1262 15.8085 20.0465 15.8085 18.7027Z" fill="black"/>
<path opacity="0.3" fill-rule="evenodd" clip-rule="evenodd" d="M31.9999 15.6487C32.5522 15.6487 32.9999 16.0964 32.9999 16.6487V18.542C32.9999 20.5174 32.9999 22.0608 32.8992 23.3002C32.7968 24.5604 32.5854 25.5938 32.1128 26.5267C31.3323 28.0671 30.0863 29.3206 28.5525 30.1065C27.6229 30.5828 26.5933 30.7957 25.3389 30.8988C24.1058 31.0001 22.5705 31.0001 20.6069 31.0001H14.6382C14.0859 31.0001 13.6382 30.5524 13.6382 30.0001C13.6382 29.4478 14.0859 29.0001 14.6382 29.0001H20.5616C22.5801 29.0001 24.0335 28.9993 25.1751 28.9055C26.3049 28.8127 27.0408 28.6338 27.6405 28.3265C28.797 27.7339 29.7384 26.7878 30.3287 25.6227C30.6352 25.0178 30.8134 24.2756 30.9058 23.1382C30.9991 21.9893 30.9999 20.5269 30.9999 18.4973V16.6487C30.9999 16.0964 31.4476 15.6487 31.9999 15.6487Z" fill="black"/>
</svg>
