<svg width="40" height="40" viewBox="0 0 40 40" fill="none" xmlns="http://www.w3.org/2000/svg">
<path opacity="0.3" d="M12.9218 32.4572C14.4131 33 16.2754 33 20 33C23.7246 33 25.5869 33 27.0782 32.4572C29.5781 31.5473 31.5473 29.5781 32.4572 27.0782C33 25.5869 33 23.7246 33 20C33 16.2754 33 14.4131 32.4572 12.9218C31.5473 10.4219 29.5781 8.45265 27.0782 7.54277C25.5869 7 23.7246 7 20 7C16.2754 7 14.4131 7 12.9218 7.54277C10.4219 8.45265 8.45265 10.4219 7.54277 12.9218C7 14.4131 7 16.2754 7 20C7 23.7246 7 25.5869 7.54277 27.0782C8.45265 29.5781 10.4219 31.5473 12.9218 32.4572Z" fill="black"/>
<path d="M14.8571 14.963C14.5021 14.963 14.2143 15.2283 14.2143 15.5556C14.2143 15.8828 14.5021 16.1481 14.8571 16.1481H18.7143C19.0693 16.1481 19.3571 15.8828 19.3571 15.5556C19.3571 15.2283 19.0693 14.963 18.7143 14.963H14.8571Z" fill="black"/>
<path fill-rule="evenodd" clip-rule="evenodd" d="M22.1857 13.1852C23.2764 13.1852 24.0558 13.1856 24.6667 13.2317C25.2702 13.2771 25.6524 13.364 25.9593 13.5081C26.5641 13.7922 27.0558 14.2455 27.3639 14.803C27.5375 15.117 27.6307 15.5068 27.6758 16.1481H23.8571C22.0819 16.1481 20.6429 17.4747 20.6429 19.1111C20.6429 20.7475 22.0819 22.0741 23.8571 22.0741H26.6857C27.9639 22.0741 29 21.1189 29 19.9407V18.2756C29 17.6843 29 17.1717 28.9886 16.7267C28.9621 15.6978 28.8762 14.9283 28.5095 14.2649C28.0781 13.4844 27.3897 12.8498 26.543 12.4521C26.0247 12.2087 25.4544 12.1018 24.7714 12.0504C24.102 12 23.2702 12 22.2143 12H18.4398C17.3733 12 16.3853 12 15.5604 12.0497C14.7535 12.0983 13.9978 12.1981 13.457 12.4521C12.6103 12.8498 11.9219 13.4844 11.4905 14.2649C11.2264 14.7427 11.1105 15.2684 11.0547 15.8979C11 16.515 11 17.2818 11 18.2552V19.9671C11 20.9404 11 21.7072 11.0547 22.3243C11.1105 22.9538 11.2264 23.4795 11.4905 23.9573C11.9219 24.7378 12.6103 25.3724 13.457 25.7701C13.9978 26.0241 14.7535 26.1239 15.5604 26.1725C16.3853 26.2222 17.3733 26.2222 18.4399 26.2222H26.8051L25.974 26.9884C25.723 27.2198 25.723 27.595 25.974 27.8264C26.2251 28.0579 26.6321 28.0579 26.8831 27.8264L28.8117 26.0487C29.0628 25.8172 29.0628 25.442 28.8117 25.2106L26.8831 23.4328C26.6321 23.2014 26.2251 23.2014 25.974 23.4328C25.723 23.6642 25.723 24.0395 25.974 24.2709L26.8051 25.037H18.4571C17.3701 25.037 16.4227 25.0368 15.6443 24.9899C14.8434 24.9416 14.325 24.8476 14.0407 24.7141C13.4359 24.43 12.9442 23.9767 12.6361 23.4192C12.4797 23.1364 12.3854 22.784 12.3361 22.2278C12.2862 21.6646 12.2857 20.9462 12.2857 19.9407V18.2815C12.2857 17.2761 12.2862 16.5576 12.3361 15.9945C12.3854 15.4382 12.4797 15.0858 12.6361 14.803C12.9442 14.2455 13.4359 13.7922 14.0407 13.5081C14.325 13.3746 14.8434 13.2806 15.6443 13.2324C16.4227 13.1855 17.3701 13.1852 18.4571 13.1852H22.1857ZM27.7121 17.3333H23.8571C22.792 17.3333 21.9286 18.1293 21.9286 19.1111C21.9286 20.0929 22.792 20.8889 23.8571 20.8889H26.6857C27.2538 20.8889 27.7143 20.4644 27.7143 19.9407V18.2815C27.7143 17.9339 27.7143 17.6198 27.7121 17.3333ZM23.2143 19.1111C23.2143 18.7838 23.5021 18.5185 23.8571 18.5185H24.5C24.855 18.5185 25.1429 18.7838 25.1429 19.1111C25.1429 19.4384 24.855 19.7037 24.5 19.7037H23.8571C23.5021 19.7037 23.2143 19.4384 23.2143 19.1111Z" fill="black"/>
</svg>
