<svg width="40" height="40" viewBox="0 0 40 40" fill="none" xmlns="http://www.w3.org/2000/svg">
<path opacity="0.3" d="M12.9218 32.4572C14.4131 33 16.2754 33 20 33C23.7246 33 25.5869 33 27.0782 32.4572C29.5781 31.5473 31.5473 29.5781 32.4572 27.0782C33 25.5869 33 23.7246 33 20C33 16.2754 33 14.4131 32.4572 12.9218C31.5473 10.4219 29.5781 8.45265 27.0782 7.54277C25.5869 7 23.7246 7 20 7C16.2754 7 14.4131 7 12.9218 7.54277C10.4219 8.45265 8.45265 10.4219 7.54277 12.9218C7 14.4131 7 16.2754 7 20C7 23.7246 7 25.5869 7.54277 27.0782C8.45265 29.5781 10.4219 31.5473 12.9218 32.4572Z" fill="black"/>
<path d="M23.4615 19.6522C23.4615 19.268 23.7715 18.9565 24.1538 18.9565H25.5385C25.9208 18.9565 26.2308 19.268 26.2308 19.6522C26.2308 20.0364 25.9208 20.3478 25.5385 20.3478H24.1538C23.7715 20.3478 23.4615 20.0364 23.4615 19.6522Z" fill="black"/>
<path fill-rule="evenodd" clip-rule="evenodd" d="M26.0084 12.3707C25.5283 12.1709 25.0114 12.0835 24.3969 12.0413C23.8316 12.0026 23.1412 12.0002 22.2775 12L22.1024 12H17.8976L17.7225 12C16.8588 12.0002 16.1684 12.0026 15.6032 12.0413C14.9886 12.0835 14.4717 12.1709 13.9916 12.3707C12.8042 12.8649 11.8607 13.8129 11.3689 15.0061C11.1486 15.5404 11.065 16.1222 11.0288 16.834C11 17.3999 11 18.0877 11 18.9385V18.9822C11 19.9329 11 20.6818 11.0411 21.2877C11.0831 21.9052 11.17 22.4246 11.3689 22.907C11.8607 24.1002 12.8042 25.0481 13.9916 25.5424C14.4717 25.7422 14.9886 25.8296 15.6032 25.8717C16.1684 25.9105 16.8588 25.9129 17.7225 25.913L17.8976 25.913H26.6363L25.7412 26.8124C25.4709 27.0841 25.4709 27.5246 25.7412 27.7962C26.0116 28.0679 26.4499 28.0679 26.7203 27.7962L28.7972 25.7093C29.0676 25.4376 29.0676 24.9972 28.7972 24.7255L26.7203 22.6385C26.4499 22.3669 26.0116 22.3669 25.7412 22.6385C25.4709 22.9102 25.4709 23.3507 25.7412 23.6223L26.6363 24.5217H18.1604H17.9231C16.9459 24.5217 16.2477 24.5214 15.6974 24.4836C15.1534 24.4463 14.8047 24.3749 14.5215 24.257C13.6733 23.904 12.9994 23.2268 12.6481 22.3746C12.5308 22.0899 12.4597 21.7396 12.4225 21.1929C12.385 20.64 12.3846 19.9384 12.3846 18.9565C12.3846 18.4157 12.3847 17.9593 12.3911 17.5652H20.3504H27.6042C27.6152 18.4018 27.6154 19.6938 27.6154 20.3478C27.6154 20.732 27.9253 21.0435 28.3077 21.0435C28.69 21.0435 29 20.732 29 20.3478V20.3238C29 19.4581 29 17.4 28.9712 16.834C28.935 16.1222 28.8514 15.5404 28.6311 15.0061C28.1393 13.8129 27.1958 12.8649 26.0084 12.3707ZM27.5196 16.1739C27.4796 15.9167 27.4248 15.7153 27.3519 15.5385C27.0006 14.6862 26.3267 14.0091 25.4785 13.6561C25.1953 13.5382 24.8466 13.4667 24.3026 13.4294C23.7523 13.3917 23.0541 13.3913 22.0769 13.3913H21.6644H17.9231C16.9459 13.3913 16.2477 13.3917 15.6974 13.4294C15.1534 13.4667 14.8047 13.5382 14.5215 13.6561C13.6733 14.0091 12.9994 14.6862 12.6481 15.5385C12.5752 15.7153 12.5204 15.9167 12.4804 16.1739H20.7884H27.5196Z" fill="black"/>
</svg>
