<svg width="40" height="40" viewBox="0 0 40 40" fill="none" xmlns="http://www.w3.org/2000/svg">
<path opacity="0.3" fill-rule="evenodd" clip-rule="evenodd" d="M23.0351 10H16.9649C15.6184 10 14.5538 9.99999 13.6907 10.0566C12.7845 10.1161 12.0253 10.2412 11.3212 10.5328C9.60602 11.2433 8.2433 12.606 7.53285 14.3212L7.13687 15.8655C6.99994 16.8739 6.99997 18.1614 7 19.916V20.084C6.99997 21.8386 6.99994 23.1261 7.13687 24.1345C7.21284 24.6941 7.33391 25.1985 7.53285 25.6788C8.2433 27.394 9.60602 28.7567 11.3212 29.4672C12.0253 29.7588 12.7845 29.8839 13.6907 29.9434C14.5538 30 15.6185 30 16.965 30H23.035C24.3815 30 25.4462 30 26.3093 29.9434C27.2155 29.8839 27.9747 29.7588 28.6788 29.4672C30.394 28.7567 31.7567 27.394 32.4672 25.6788C32.6661 25.1985 32.7872 24.6941 32.8631 24.1345C33.0001 23.1261 33 21.8386 33 20.084V19.916C33 18.1614 33.0001 16.8739 32.8631 15.8655C32.7872 15.3059 32.6661 14.8015 32.4672 14.3212C31.7567 12.606 30.394 11.2433 28.6788 10.5328C27.9747 10.2412 27.2155 10.1161 26.3093 10.0566C25.4462 9.99999 24.3816 10 23.0351 10ZM15 20C15 17.2386 17.2386 15 20 15C22.7614 15 25 17.2386 25 20C25 22.7614 22.7614 25 20 25C17.2386 25 15 22.7614 15 20Z" fill="black"/>
<path d="M11 15H9.41742C9.9343 13.8156 10.8904 12.876 12.0866 12.3806C12.3401 12.2756 12.6296 12.1962 13 12.1383V13C13 14.1045 12.1046 15 11 15Z" fill="black"/>
<path d="M13 27V27.8616C12.6296 27.8037 12.3401 27.7244 12.0866 27.6194C10.8904 27.1239 9.9343 26.1844 9.41742 25H11C12.1046 25 13 25.8954 13 27Z" fill="black"/>
<path d="M27 13V12.1383C27.3703 12.1962 27.6599 12.2756 27.9134 12.3806C29.1096 12.876 30.0657 13.8156 30.5826 15H29C27.8954 15 27 14.1045 27 13Z" fill="black"/>
<path d="M29 25H30.5826C30.0657 26.1844 29.1096 27.1239 27.9134 27.6194C27.6599 27.7244 27.3703 27.8037 27 27.8616V27C27 25.8954 27.8954 25 29 25Z" fill="black"/>
<path d="M17 20C17 18.3431 18.3431 17 20 17C21.6569 17 23 18.3431 23 20C23 21.6569 21.6569 23 20 23C18.3431 23 17 21.6569 17 20Z" fill="black"/>
</svg>
