<svg width="24" height="24" viewBox="0 0 24 24" fill="none" xmlns="http://www.w3.org/2000/svg">
<path d="M15.0325 2.48972C14.1595 2.21472 13.4135 3.16871 13.8765 3.95871C14.6075 5.20471 15.0015 6.61072 15.0015 8.02072C15.0015 12.4387 11.4195 16.0207 7.00146 16.0207C6.16946 16.0207 5.32845 15.8867 4.56345 15.6457C3.69145 15.3707 2.91345 16.3247 3.37645 17.1147C5.15345 20.1467 8.40246 22.0207 12.0015 22.0207C17.5245 22.0207 22.0015 17.5437 22.0015 12.0207C22.0015 7.61972 19.1605 3.78772 15.0325 2.48972ZM16.6265 5.48972C18.6905 6.94871 20.0015 9.35371 20.0015 12.0207C20.0015 16.4387 16.4195 20.0207 12.0015 20.0207C9.97346 20.0207 8.11946 19.2407 6.68946 17.9587C6.79546 17.9617 6.89546 18.0207 7.00146 18.0207C12.5245 18.0207 17.0015 13.5437 17.0015 8.02072C17.0015 7.16372 16.8495 6.31571 16.6265 5.48972Z" fill="black" fill-opacity="0.4"/>
<path d="M9.01075 4C8.51075 4 8.01075 4.333 8.01075 5C8.01075 5.448 7.45875 6 7.01075 6C5.67775 6 5.67775 7.99999 7.01075 7.99999C7.45875 7.99999 8.01075 8.55199 8.01075 8.99999C8.01075 10.333 10.0107 10.333 10.0107 8.99999C10.0107 8.55199 10.5627 7.99999 11.0107 7.99999C12.3438 7.99999 12.3438 6 11.0107 6C10.5627 6 10.0107 5.448 10.0107 5C10.0107 4.333 9.51075 4 9.01075 4ZM5.01075 9.99999C4.67775 9.99999 4.35474 10.212 4.35474 10.656C4.35474 10.955 3.96575 11.344 3.66675 11.344C2.77775 11.344 2.77775 12.656 3.66675 12.656C3.96575 12.656 4.35474 13.045 4.35474 13.344C4.35474 14.233 5.66675 14.232 5.66675 13.344C5.66675 13.045 6.05574 12.656 6.35474 12.656C7.24374 12.656 7.24374 11.344 6.35474 11.344C6.05574 11.344 5.66675 10.955 5.66675 10.656C5.66675 10.212 5.34375 9.99999 5.01075 9.99999Z" fill="black"/>
</svg>
