<svg width="24" height="24" viewBox="0 0 24 24" fill="none" xmlns="http://www.w3.org/2000/svg">
<path d="M15.0325 2.48972C14.1595 2.21472 13.4135 3.16871 13.8765 3.95871C14.6075 5.20471 15.0015 6.61072 15.0015 8.02072C15.0015 12.4387 11.4195 16.0207 7.00146 16.0207C6.16946 16.0207 5.32845 15.8867 4.56345 15.6457C3.69145 15.3707 2.91345 16.3247 3.37645 17.1147C5.15345 20.1467 8.40246 22.0207 12.0015 22.0207C17.5245 22.0207 22.0015 17.5437 22.0015 12.0207C22.0015 7.61972 19.1605 3.78772 15.0325 2.48972Z" fill="black" fill-opacity="0.4"/>
<path d="M9.00374 4C8.50433 4 8.00491 4.33266 8.00491 4.99896C8.00491 5.4465 7.45355 5.99793 7.00607 5.99793C5.67463 5.99793 5.67463 7.99586 7.00607 7.99586C7.45355 7.99586 8.00491 8.54728 8.00491 8.99482C8.00491 10.3264 10.0026 10.3264 10.0026 8.99482C10.0026 8.54728 10.5539 7.99586 11.0014 7.99586C12.3329 7.99586 12.3329 5.99793 11.0014 5.99793C10.5539 5.99793 10.0026 5.4465 10.0026 4.99896C10.0026 4.33266 9.50316 4 9.00374 4ZM5.0084 9.99378C4.67579 9.99378 4.35316 10.2056 4.35316 10.6491C4.35316 10.9478 3.96463 11.3364 3.66597 11.3364C2.77801 11.3364 2.77801 12.647 3.66597 12.647C3.96463 12.647 4.35316 13.0356 4.35316 13.3343C4.35316 14.2224 5.66364 14.2214 5.66364 13.3343C5.66364 13.0356 6.05218 12.647 6.35083 12.647C7.2388 12.647 7.2388 11.3364 6.35083 11.3364C6.05218 11.3364 5.66364 10.9478 5.66364 10.6491C5.66364 10.2056 5.34101 9.99378 5.0084 9.99378Z" fill="black"/>
</svg>
