<svg width="40" height="40" viewBox="0 0 40 40" fill="none" xmlns="http://www.w3.org/2000/svg">
<path opacity="0.3" d="M7 20C7 12.8203 12.8203 7 20 7C27.1797 7 33 12.8203 33 20C33 27.1797 27.1797 33 20 33C12.8203 33 7 27.1797 7 20Z" fill="black"/>
<path d="M15 21.5C15.8284 21.5 16.5 20.8284 16.5 20C16.5 19.1716 15.8284 18.5 15 18.5C14.1716 18.5 13.5 19.1716 13.5 20C13.5 20.8284 14.1716 21.5 15 21.5Z" fill="black"/>
<path d="M20 21.5C20.8284 21.5 21.5 20.8284 21.5 20C21.5 19.1716 20.8284 18.5 20 18.5C19.1716 18.5 18.5 19.1716 18.5 20C18.5 20.8284 19.1716 21.5 20 21.5Z" fill="black"/>
<path d="M25 21.5C25.8284 21.5 26.5 20.8284 26.5 20C26.5 19.1716 25.8284 18.5 25 18.5C24.1716 18.5 23.5 19.1716 23.5 20C23.5 20.8284 24.1716 21.5 25 21.5Z" fill="black"/>
</svg>
