<svg width="40" height="40" viewBox="0 0 40 40" fill="none" xmlns="http://www.w3.org/2000/svg">
<path opacity="0.3" d="M33 20C33 12.8203 27.1797 7 20 7C12.8203 7 7 12.8203 7 20C7 27.1797 12.8203 33 20 33C27.1797 33 33 27.1797 33 20Z" fill="black"/>
<path d="M20 26.5C19.1716 26.5 18.5 25.8284 18.5 25C18.5 24.1716 19.1716 23.5 20 23.5C20.8284 23.5 21.5 24.1716 21.5 25C21.5 25.8284 20.8284 26.5 20 26.5Z" fill="black"/>
<path d="M20 21.5C19.1716 21.5 18.5 20.8284 18.5 20C18.5 19.1716 19.1716 18.5 20 18.5C20.8284 18.5 21.5 19.1716 21.5 20C21.5 20.8284 20.8284 21.5 20 21.5Z" fill="black"/>
<path d="M20 16.5C19.1716 16.5 18.5 15.8284 18.5 15C18.5 14.1716 19.1716 13.5 20 13.5C20.8284 13.5 21.5 14.1716 21.5 15C21.5 15.8284 20.8284 16.5 20 16.5Z" fill="black"/>
</svg>
