<svg width="40" height="40" viewBox="0 0 40 40" fill="none" xmlns="http://www.w3.org/2000/svg">
<path opacity="0.3" fill-rule="evenodd" clip-rule="evenodd" d="M23.3579 13.1287C23.292 13.1201 23.2078 13.1177 22.8238 13.1177H20.0642C19.4474 13.1177 18.9474 12.6436 18.9474 12.0589C18.9474 11.4741 19.4474 11 20.0642 11H22.8238L22.8836 11C23.1756 10.9999 23.4248 10.9998 23.6628 11.0309C24.6874 11.1647 25.5976 11.7252 26.137 12.5626C26.1532 12.5877 26.1689 12.6132 26.1843 12.639H28.0214C29.7025 12.639 31.0866 13.9199 31.0866 15.5247C31.0866 16.4301 30.6357 17.2796 29.8743 17.8235L28.8969 18.5217L29.2114 19.2098C31.8808 19.4047 34 21.5 34 24.0781C34 25.1797 33.6132 26.193 32.9619 27.0077C32.8343 26.1878 32.391 25.4104 31.6901 24.7034C31.74 24.5022 31.7664 24.2928 31.7664 24.0781C31.7664 22.5618 30.452 21.3126 28.8044 21.3126C28.0326 21.3126 27.3338 21.5868 26.8091 22.0342C26.0623 21.8022 25.265 21.6047 24.4267 21.4464C25.0174 20.5807 25.8906 19.903 26.9216 19.5259L24.4501 14.1189C24.2985 13.7872 24.2639 13.7178 24.2307 13.6663C24.0439 13.3763 23.7245 13.1766 23.3579 13.1287ZM19.8659 21.0023C19.8586 20.8349 19.8489 20.6765 19.8359 20.5268C19.7824 19.9138 19.6679 19.3528 19.3822 18.827C18.9383 18.0101 18.2311 17.3481 17.3641 16.9339C16.8076 16.668 16.214 16.5613 15.5629 16.5114C14.9347 16.4633 14.1626 16.4633 13.2227 16.4633L10.5772 16.4633C10.0647 16.4633 9.6254 16.4633 9.26245 16.4865C8.8813 16.5109 8.504 16.5643 8.13226 16.7087C7.28952 17.036 6.61611 17.6654 6.26412 18.4622C6.10842 18.8146 6.05098 19.1722 6.02483 19.5316C5.99997 19.8731 5.99999 20.286 6 20.7658V20.8345C5.99999 21.3143 5.99997 21.7272 6.02483 22.0687C6.05098 22.4281 6.10842 22.7857 6.26412 23.1381C6.51766 23.7121 6.93798 24.1991 7.46823 24.549C9.70138 22.4425 14.2508 21 19.5 21C19.6224 21 19.7443 21.0008 19.8659 21.0023Z" fill="black"/>
<path fill-rule="evenodd" clip-rule="evenodd" d="M23.7311 25.137C24.2466 27.3314 26.3307 28.9613 28.8044 28.9613C30.4997 28.9613 32.0121 28.1958 32.9619 27.0077C32.8344 26.1878 32.391 25.4104 31.6901 24.7034C31.3875 25.9232 30.2187 26.8436 28.8044 26.8436C27.1569 26.8436 25.8425 25.5944 25.8425 24.0781C25.8425 23.2722 26.2138 22.5417 26.8091 22.0342C26.0624 21.8022 25.265 21.6047 24.4268 21.4464C24.1033 21.9205 23.8646 22.451 23.7311 23.0193H19.8873V22.7226C19.8873 22.0656 19.8873 21.495 19.8659 21.0023C19.7444 21.0008 19.6224 21 19.5 21C14.2509 21 9.70142 22.4425 7.46826 24.549C7.57133 24.617 7.67855 24.6799 7.78951 24.7371C8.11421 27.1494 10.3078 29 12.9437 29C15.4319 29 17.526 27.3509 18.0259 25.137H23.7311ZM10.19 25.1365C10.6232 26.155 11.6864 26.8824 12.9437 26.8824C14.2007 26.8824 15.2638 26.1552 15.6972 25.137H10.5773H10.552C10.4269 25.137 10.3062 25.1369 10.19 25.1365Z" fill="black"/>
</svg>
