<svg width="24" height="24" viewBox="0 0 24 24" fill="none" xmlns="http://www.w3.org/2000/svg">
<path d="M17.8412 2.01362L11.8412 3.01277C11.3592 3.0927 10.9972 3.52333 10.9972 4.01192L10.9998 14.5674C11.2139 14.7046 11.8147 15.0456 12.3311 15.8181C12.7641 16.466 12.9983 17.2443 12.9972 18L13.0102 8.84581L18.1472 7.97656C18.2612 7.95857 18.5212 7.87562 18.7472 7.63383C18.9942 7.37805 18.9972 7.11527 18.9972 7.00936V3.01277C18.9972 2.39529 18.4502 1.9117 17.8412 2.01362ZM16.9822 4.18175L16.9872 6.1531L12.9972 6.82153L13.0012 4.84019L16.9822 4.18175Z" fill="black" fill-opacity="0.4"/>
<path fill-rule="evenodd" clip-rule="evenodd" d="M5 18C5 15.7909 6.79086 14 9 14C11.2091 14 13 15.7909 13 18C13 20.2091 11.2091 22 9 22C6.79086 22 5 20.2091 5 18Z" fill="black"/>
</svg>
