<svg width="24" height="24" viewBox="0 0 24 24" fill="none" xmlns="http://www.w3.org/2000/svg">
<path d="M11.8413 2.01322C11.3983 2.08523 10.9973 2.44625 10.9973 3.01225V14.5546C11.3477 14.7304 11.8281 15.1249 12.1484 15.5507C12.6758 16.2187 12.9973 17.082 12.9973 18.0032V11.0073H16.9973C17.5493 11.0073 17.9973 10.5602 17.9973 10.0082V7.01024C17.9973 6.55124 17.6923 6.15322 17.2473 6.04222C15.9753 5.72422 14.9583 5.1742 14.1843 4.4492C13.7553 4.0472 13.4303 3.62424 13.1843 3.20024C13.0453 2.95824 12.9593 2.77424 12.9343 2.70024C12.7553 2.16224 12.2833 1.94122 11.8413 2.01322ZM13.0053 6.06322C13.8193 6.78622 14.8273 7.3502 15.9963 7.7462L15.9973 9.0092H12.9973L13.0053 6.06322Z" fill="black" fill-opacity="0.4"/>
<path fill-rule="evenodd" clip-rule="evenodd" d="M5 18C5 15.7909 6.79086 14 9 14C11.2091 14 13 15.7909 13 18C13 20.2091 11.2091 22 9 22C6.79086 22 5 20.2091 5 18Z" fill="black"/>
</svg>
