<svg width="24" height="24" viewBox="0 0 24 24" fill="none" xmlns="http://www.w3.org/2000/svg">
<path d="M19.9062 3.00003L8.90625 4.00002C8.39125 4.04702 8.00015 4.48302 8.00005 5.00002V9.09401V14.3438C8.29297 14.4609 8.93257 14.8627 9.36719 15.4922C9.80984 16.1333 10.0013 16.8594 10.0001 17.5C10.0001 15.0644 10.0585 12.414 10.0001 9.90596L19.0001 9.09401V13.3359C19.332 13.4883 20.0781 13.9531 20.4922 14.6992C20.6205 14.9304 21 15.5352 21 16.5C21 12.3333 21 8.16668 21 4.00002C21 3.41202 20.4918 2.94703 19.9062 3.00003ZM19.0001 5.09402V7.09401L10.0001 7.90596V5.90597L19.0001 5.09402Z" fill="black" fill-opacity="0.4"/>
<path fill-rule="evenodd" clip-rule="evenodd" d="M16 16.5C16 15.6716 16.6716 15 17.5 15C18.3284 15 19 15.6716 19 16.5C19 17.3284 18.3284 18 17.5 18C16.6716 18 16 17.3284 16 16.5ZM17.5 13C15.567 13 14 14.567 14 16.5C14 18.433 15.567 20 17.5 20C19.433 20 21 18.433 21 16.5C21 14.567 19.433 13 17.5 13ZM5 17.5C5 16.6716 5.67157 16 6.5 16C7.32843 16 8 16.6716 8 17.5C8 18.3284 7.32843 19 6.5 19C5.67157 19 5 18.3284 5 17.5ZM6.5 14C4.567 14 3 15.567 3 17.5C3 19.433 4.567 21 6.5 21C8.433 21 10 19.433 10 17.5C10 15.567 8.433 14 6.5 14Z" fill="black"/>
</svg>
