<svg width="40" height="40" viewBox="0 0 40 40" fill="none" xmlns="http://www.w3.org/2000/svg">
<path fill-rule="evenodd" clip-rule="evenodd" d="M21 8C21 7.44772 20.5523 7 20 7C19.4477 7 19 7.44772 19 8V10.4802C15.8045 10.8119 13.076 12.7159 11.6016 15.4052C12.5222 15.1413 13.4946 15 14.5 15C20.299 15 25 19.701 25 25.5C25 26.5054 24.8587 27.4778 24.5949 28.3985C27.2841 26.924 29.1881 24.1955 29.5198 21H32C32.5523 21 33 20.5523 33 20C33 19.4477 32.5523 19 32 19H29.5198C29.054 14.5125 25.4875 10.9461 21 10.4802V8Z" fill="black"/>
<path opacity="0.3" d="M21 32V29.5198C22.292 29.3857 23.5076 28.9946 24.5948 28.3985C24.8587 27.4778 25 26.5054 25 25.5C25 19.701 20.299 15 14.5 15C13.4946 15 12.5222 15.1413 11.6015 15.4052C11.0054 16.4924 10.6143 17.708 10.4802 19H8C7.44772 19 7 19.4477 7 20C7 20.5523 7.44772 21 8 21H10.4802C10.9461 25.4875 14.5125 29.0539 19 29.5198V32C19 32.5523 19.4477 33 20 33C20.5523 33 21 32.5523 21 32Z" fill="black"/>
</svg>
