<svg width="40" height="40" viewBox="0 0 40 40" fill="none" xmlns="http://www.w3.org/2000/svg">
<path opacity="0.3" fill-rule="evenodd" clip-rule="evenodd" d="M19.8663 11.7494C20.533 11.0835 20.8664 10.7505 20.9151 10.4298C20.969 10.0757 20.8125 9.69838 20.5237 9.48602C20.2622 9.2937 19.7973 9.2937 18.8677 9.2937C16.1085 9.2937 14.7289 9.2937 13.5971 9.59662C10.5255 10.4186 8.12631 12.8149 7.30329 15.8827C7 17.0132 7 18.3911 7 21.1469C7 23.9026 7 25.2805 7.30329 26.411C8.12631 29.4788 10.5255 31.8751 13.5971 32.6971C14.7289 33 16.1085 33 18.8677 33C21.6268 33 23.0064 33 24.1383 32.6971C27.2098 31.8751 29.609 29.4788 30.432 26.411C30.7353 25.2805 30.7353 23.9026 30.7353 21.1469C30.7353 20.2186 30.7353 19.7545 30.5429 19.4934C30.3303 19.2047 29.9523 19.0484 29.5976 19.1023C29.2766 19.151 28.9434 19.4839 28.2769 20.1495L23.0883 25.3318L22.968 25.4522C22.3972 26.0242 21.8781 26.5445 21.1969 26.8209C20.5157 27.0973 19.7803 27.086 18.9716 27.0735L18.8016 27.071L16.5134 27.0397L16.4481 27.0388C15.9643 27.0323 15.4867 27.0259 15.0912 26.9678C14.6422 26.9019 14.1243 26.7486 13.6918 26.3166C13.2593 25.8846 13.1057 25.3673 13.0398 24.919C12.9816 24.5239 12.9752 24.0467 12.9687 23.5634L12.9678 23.4984L12.9364 21.2131L12.9339 21.0429C12.9215 20.2355 12.9101 19.501 13.1868 18.8207C13.4635 18.1403 13.9845 17.6218 14.5573 17.0516L14.6778 16.9316L19.8663 11.7494Z" fill="black"/>
<path d="M29.3228 15.0659C29.7295 15.4721 29.9328 15.6752 30.009 15.9094C30.0761 16.1154 30.076 16.3373 30.009 16.5434C29.9328 16.7776 29.7295 16.9807 29.3228 17.3869L22.0034 24.6973L21.9078 24.793C21.4537 25.2481 21.0407 25.662 20.4988 25.8818C19.9569 26.1017 19.3719 26.0927 18.7287 26.0828L18.5934 26.0808L16.7731 26.0559L16.7211 26.0552C16.3363 26.05 15.9564 26.0449 15.6417 25.9987C15.2846 25.9463 14.8726 25.8243 14.5285 25.4806C14.1845 25.137 14.0623 24.7255 14.0098 24.3688C13.9636 24.0545 13.9585 23.6749 13.9533 23.2905L13.9526 23.2388L13.9277 21.4208L13.9256 21.2854C13.9157 20.6431 13.9067 20.0589 14.1268 19.5177C14.347 18.9764 14.7614 18.5639 15.2171 18.1103L15.3129 18.0149L22.6322 10.7045C23.0389 10.2983 23.2423 10.0952 23.4768 10.0191C23.683 9.95211 23.9052 9.95211 24.1115 10.0191C24.346 10.0952 24.5493 10.2983 24.9561 10.7045L29.3228 15.0659Z" fill="black"/>
<path d="M25.6561 9.98079C25.2381 9.56326 25.029 9.35449 24.9561 9.09823C24.8966 8.88949 24.9134 8.61748 24.9981 8.41763C25.1021 8.17229 25.3027 8.0162 25.7037 7.70401C25.7186 7.6924 25.7335 7.68094 25.7483 7.66965C26.245 7.29116 26.8034 7 27.4941 7C28.1848 7 28.7432 7.29116 29.2398 7.66965C29.7018 8.02164 30.2092 8.52853 30.7939 9.11255L30.8849 9.20346C31.4696 9.78741 31.9771 10.2942 32.3296 10.7556C32.7085 11.2517 33 11.8094 33 12.4992C33 13.189 32.7085 13.7468 32.3296 14.2428C32.3183 14.2576 32.3068 14.2725 32.2952 14.2874C31.9826 14.688 31.8263 14.8882 31.5807 14.9921C31.3806 15.0767 31.1082 15.0935 30.8992 15.0342C30.6427 14.9613 30.4336 14.7525 30.0156 14.335L25.6561 9.98079Z" fill="black"/>
</svg>
