<svg width="40" height="40" viewBox="0 0 40 40" fill="none" xmlns="http://www.w3.org/2000/svg">
<path opacity="0.3" d="M7 14C7 11.2386 9.23858 9 12 9H15.3014C16.7065 9 18.0085 9.7372 18.7314 10.942L19.9836 13.029C20.345 13.6314 20.996 14 21.6986 14H28C30.7614 14 33 16.2386 33 19V26C33 28.7614 30.7614 31 28 31H12C9.23858 31 7 28.7614 7 26V14Z" fill="black"/>
<path d="M21 19C21 18.4477 20.5523 18 20 18C19.4477 18 19 18.4477 19 19V21H17C16.4477 21 16 21.4477 16 22C16 22.5523 16.4477 23 17 23H19V25C19 25.5523 19.4477 26 20 26C20.5523 26 21 25.5523 21 25V23H23C23.5523 23 24 22.5523 24 22C24 21.4477 23.5523 21 23 21H21V19Z" fill="black"/>
</svg>
