<svg width="40" height="40" viewBox="0 0 40 40" fill="none" xmlns="http://www.w3.org/2000/svg">
<path opacity="0.3" fill-rule="evenodd" clip-rule="evenodd" d="M10.7649 16.1544C10.7649 11.0811 14.9562 7 20.0843 7C21.732 7 23.2829 7.42129 24.6292 8.16144C24.2348 8.66927 24 9.30721 24 10C24 11.6569 25.3431 13 27 13C27.6045 13 28.1672 12.8212 28.6382 12.5137C29.1305 13.6282 29.4037 14.8588 29.4037 16.1542V16.5333C29.4037 17.0925 29.7232 17.9494 30.3181 18.9802L30.3416 19.021C30.8451 19.8934 31.2563 20.6058 31.5339 21.2041C31.8189 21.818 32.0167 22.4191 31.9989 23.062C31.9726 24.009 31.558 24.998 30.9044 25.6858C30.1326 26.4981 29.2031 26.7583 28.0043 27.0939L27.8442 27.1388C25.7475 27.7277 23.1198 28.2 20.0843 28.2C16.9055 28.2 14.1739 27.682 12.031 27.0546L11.8831 27.0114C10.7219 26.6724 9.81857 26.4088 9.0535 25.5783C8.42399 24.8949 8.0059 23.8432 8.00006 22.9153C7.99608 22.2823 8.1846 21.7132 8.4645 21.1346C8.73161 20.5825 9.12255 19.9434 9.59302 19.1743L9.61875 19.1322C9.96928 18.5591 10.2667 18.0132 10.4736 17.5358C10.6906 17.0349 10.7649 16.7051 10.7649 16.5333V16.1544Z" fill="black"/>
<path fill-rule="evenodd" clip-rule="evenodd" d="M16.8923 30.2766L16.8935 30.2777L16.8946 30.2788L16.8985 30.2823C16.9057 30.2889 16.9188 30.3008 16.9375 30.3173C16.9751 30.3503 17.0349 30.4012 17.1149 30.4641C17.2756 30.5905 17.5133 30.7621 17.8109 30.9338C18.4155 31.2827 19.2114 31.6 20.0843 31.6C20.9572 31.6 21.7531 31.2827 22.3577 30.9338C22.6553 30.7621 22.893 30.5905 23.0537 30.4641C23.1337 30.4012 23.1935 30.3503 23.2311 30.3173C23.2498 30.3008 23.2629 30.2889 23.2701 30.2823L23.274 30.2788H16.8946L23.2763 30.2766C23.6745 29.8964 24.3055 29.9097 24.6875 30.3069C25.0703 30.705 25.0579 31.338 24.6598 31.7208L23.9667 31C24.6598 31.7208 24.6588 31.7218 24.6588 31.7218L24.6576 31.7229L24.6548 31.7256L24.6473 31.7327L24.6248 31.7536C24.6065 31.7705 24.5817 31.7929 24.5506 31.8202C24.4885 31.8747 24.401 31.9488 24.2904 32.0359C24.0697 32.2095 23.7528 32.4379 23.3572 32.6662C22.5752 33.1173 21.4299 33.6 20.0843 33.6C18.7387 33.6 17.5934 33.1173 16.8114 32.6662C16.4158 32.4379 16.0988 32.2095 15.8782 32.0359C15.7675 31.9488 15.6801 31.8747 15.618 31.8202C15.5869 31.7929 15.5621 31.7705 15.5438 31.7536L15.5213 31.7327L15.5138 31.7256L15.511 31.7229L15.5098 31.7218L15.5088 31.7208C15.1107 31.338 15.0983 30.705 15.4811 30.3069C15.863 29.9097 16.4941 29.8964 16.8923 30.2766Z" fill="black"/>
<path d="M29 10C29 11.1046 28.1046 12 27 12C25.8954 12 25 11.1046 25 10C25 8.89543 25.8954 8 27 8C28.1046 8 29 8.89543 29 10Z" fill="black"/>
</svg>
