<svg width="40" height="40" viewBox="0 0 40 40" fill="none" xmlns="http://www.w3.org/2000/svg">
<g opacity="0.3">
<path d="M12.031 27.0546C14.1739 27.682 16.9055 28.2 20.0843 28.2C22.338 28.2 24.3669 27.9397 26.1205 27.5645L11.3945 12.8385C10.9881 13.8657 10.7649 14.9836 10.7649 16.1544V16.5333C10.7649 16.7051 10.6906 17.0349 10.4736 17.5358C10.2667 18.0132 9.96928 18.5591 9.61875 19.1322L9.59302 19.1743C9.12255 19.9434 8.73161 20.5825 8.4645 21.1346C8.1846 21.7132 7.99608 22.2823 8.00006 22.9153C8.0059 23.8432 8.42399 24.8949 9.0535 25.5783C9.81857 26.4088 10.7219 26.6724 11.8831 27.0114L12.031 27.0546Z" fill="black"/>
<path fill-rule="evenodd" clip-rule="evenodd" d="M20.0843 7C17.4224 7 15.0129 8.09966 13.311 9.86694L29.885 26.441C30.2554 26.2518 30.5928 26.0138 30.9044 25.6858C31.558 24.998 31.9726 24.009 31.9989 23.062C32.0167 22.4191 31.8189 21.818 31.5339 21.2041C31.2563 20.6058 30.8451 19.8934 30.3416 19.021L30.3181 18.9802C29.7232 17.9494 29.4037 17.0925 29.4037 16.5333V16.1542C29.4037 11.0808 25.2123 7 20.0843 7Z" fill="black"/>
</g>
<path fill-rule="evenodd" clip-rule="evenodd" d="M16.8923 29.6765L16.8935 29.6776L16.8946 29.6787L16.8985 29.6822C16.9057 29.6888 16.9188 29.7008 16.9375 29.7172C16.9751 29.7502 17.0349 29.8011 17.1149 29.864C17.2756 29.9904 17.5133 30.162 17.8109 30.3338C18.4155 30.6826 19.2114 30.9999 20.0843 30.9999C20.9572 30.9999 21.7531 30.6826 22.3577 30.3338C22.6553 30.162 22.893 29.9904 23.0537 29.864C23.1337 29.8011 23.1935 29.7502 23.2311 29.7172C23.2498 29.7008 23.2629 29.6888 23.2701 29.6822L23.274 29.6787H16.8946L23.2763 29.6765C23.6745 29.2964 24.3055 29.3096 24.6875 29.7068C25.0703 30.1049 25.0579 30.7379 24.6598 31.1207L23.9667 30.3999C24.6598 31.1207 24.6588 31.1217 24.6588 31.1217L24.6576 31.1228L24.6548 31.1255L24.6473 31.1327L24.6248 31.1536C24.6065 31.1704 24.5817 31.1929 24.5506 31.2201C24.4885 31.2747 24.401 31.3488 24.2904 31.4359C24.0697 31.6094 23.7528 31.8378 23.3572 32.0661C22.5752 32.5173 21.4299 32.9999 20.0843 32.9999C18.7387 32.9999 17.5934 32.5173 16.8114 32.0661C16.4158 31.8378 16.0988 31.6094 15.8782 31.4359C15.7675 31.3488 15.6801 31.2747 15.618 31.2201C15.5869 31.1929 15.5621 31.1704 15.5438 31.1536L15.5213 31.1327L15.5138 31.1255L15.511 31.1228L15.5088 31.1207C15.1107 30.7379 15.0983 30.1049 15.4811 29.7068C15.863 29.3096 16.4941 29.2964 16.8923 29.6765Z" fill="black"/>
<path d="M9.30358 8.74747L31.2569 30.7009C31.6557 31.0996 32.3022 31.0996 32.701 30.7009C33.0997 30.3021 33.0997 29.6556 32.701 29.2569L10.7476 7.30346L10.7435 7.29937C10.3444 6.90471 9.70097 6.90607 9.30358 7.30346C8.90483 7.70221 8.90483 8.34872 9.30358 8.74747Z" fill="black"/>
</svg>
