<svg width="40" height="40" viewBox="0 0 40 40" fill="none" xmlns="http://www.w3.org/2000/svg">
<path d="M31.1311 18.4272C31.1294 18.3235 31.1274 18.222 31.1252 18.1223L31.125 18.115C31.1273 18.2171 31.1293 18.3211 31.1311 18.4272Z" fill="black"/>
<path d="M27.4286 7.92857C27.4286 7.41574 27.8443 7 28.3571 7H32.0714C32.5843 7 33 7.41574 33 7.92857V11.6429C33 12.1557 32.5843 12.5714 32.0714 12.5714C31.5586 12.5714 31.1429 12.1557 31.1429 11.6429V10.1703L29.9717 11.3415C29.6091 11.7041 29.0212 11.7041 28.6585 11.3415C28.2959 10.9788 28.2959 10.3909 28.6585 10.0283L29.8297 8.85714H28.3571C27.8443 8.85714 27.4286 8.44141 27.4286 7.92857Z" fill="black"/>
<path opacity="0.3" d="M31.1429 20.9199V20.8933L31.1428 20.523C31.1427 19.8824 31.1416 19.2991 31.1357 18.7665C31.1344 18.651 31.1329 18.538 31.1311 18.4272C31.1293 18.3212 31.1273 18.2171 31.125 18.115C31.1144 17.6367 31.0973 17.2008 31.07 16.8008C30.9961 15.7175 30.8441 14.8307 30.5067 14.0162C30.2035 13.2843 29.8009 12.6061 29.3151 11.9981L25.2995 16.0138C24.9368 16.3764 24.3489 16.3764 23.9863 16.0138C23.6236 15.6511 23.6236 15.0632 23.9863 14.7006L28.0019 10.6849C27.3939 10.1991 26.7158 9.79647 25.9839 9.4933C25.1693 9.15589 24.2825 9.0039 23.1992 8.92999C22.7958 8.90246 22.3557 8.88534 21.8724 8.87469L21.7742 8.87262C21.0011 8.85718 20.1113 8.85718 19.0802 8.85718H19.0366C17.3354 8.85717 16.0113 8.85717 14.9436 8.93002C13.8604 9.00392 12.9736 9.15592 12.159 9.49333C10.1113 10.3415 8.48435 11.9684 7.63615 14.0162C7.29874 14.8308 7.14675 15.7176 7.07284 16.8008C6.99999 17.8684 7 19.1926 7 20.8938V20.9635C7 22.6646 6.99999 23.9888 7.07284 25.0564C7.14675 26.1396 7.29874 27.0264 7.63615 27.841C8.48435 29.8888 10.1113 31.5157 12.159 32.3639C12.9736 32.7013 13.8604 32.8533 14.9436 32.9272C16.0113 33 17.3354 33 19.0366 33H19.1063C20.8074 33 22.1316 33 23.1992 32.9272C24.2825 32.8533 25.1693 32.7013 25.9839 32.3639C28.0316 31.5157 29.6585 29.8888 30.5067 27.841C30.8441 27.0264 30.9961 26.1396 31.07 25.0564C31.1429 23.9888 31.1429 22.6646 31.1429 20.9635V20.9199Z" fill="black"/>
</svg>
