<svg width="40" height="40" viewBox="0 0 40 40" fill="none" xmlns="http://www.w3.org/2000/svg">
<path fill-rule="evenodd" clip-rule="evenodd" d="M17.2567 7.04038C16.6647 6.99999 15.9373 6.99999 15.0355 7H14.9645C14.0627 6.99999 13.3353 6.99999 12.7433 7.04038C12.1346 7.08191 11.5963 7.16948 11.0866 7.3806C9.86144 7.88807 8.88807 8.86144 8.3806 10.0866C8.16948 10.5963 8.08192 11.1346 8.04038 11.7433C7.99999 12.3353 7.99999 13.0627 8 13.9645L8 28.8385C7.99998 29.3657 7.99997 29.8205 8.03057 30.195C8.06287 30.5904 8.13419 30.9836 8.32698 31.362C8.6146 31.9265 9.07354 32.3854 9.63803 32.673C10.0164 32.8658 10.4096 32.9371 10.805 32.9694C11.1795 33 11.6343 33 12.1614 33H22V18V13.9645C22 13.0627 22 12.3353 21.9596 11.7433C21.9181 11.1346 21.8305 10.5963 21.6194 10.0866C21.1119 8.86144 20.1386 7.88807 18.9134 7.3806C18.4037 7.16948 17.8654 7.08191 17.2567 7.04038ZM13.3 12H12.7C12.3134 12 12 12.3134 12 12.7V13.3C12 13.6866 12.3134 14 12.7 14H13.3C13.6866 14 14 13.6866 14 13.3V12.7C14 12.3134 13.6866 12 13.3 12ZM17.3 24H16.7C16.3134 24 16 24.3134 16 24.7V25.3C16 25.6866 16.3134 26 16.7 26H17.3C17.6866 26 18 25.6866 18 25.3V24.7C18 24.3134 17.6866 24 17.3 24ZM12.4688 19.9607C12.5811 20 12.7207 20 13 20C13.2793 20 13.4189 20 13.5312 19.9607C13.7323 19.8904 13.8904 19.7323 13.9607 19.5312C14 19.4189 14 19.2793 14 19C14 18.7207 14 18.5811 13.9607 18.4688C13.8904 18.2677 13.7323 18.1096 13.5312 18.0393C13.4189 18 13.2793 18 13 18C12.7207 18 12.5811 18 12.4688 18.0393C12.2677 18.1096 12.1096 18.2677 12.0393 18.4688C12 18.5811 12 18.7207 12 19C12 19.2793 12 19.4189 12.0393 19.5312C12.1096 19.7323 12.2677 19.8904 12.4688 19.9607ZM12.4688 28.9607C12.5811 29 12.7207 29 13 29C13.2793 29 13.4189 29 13.5312 28.9607C13.7323 28.8904 13.8904 28.7323 13.9607 28.5312C14 28.4189 14 28.2793 14 28C14 27.7207 14 27.5811 13.9607 27.4688C13.8904 27.2677 13.7323 27.1096 13.5312 27.0393C13.4189 27 13.2793 27 13 27C12.7207 27 12.5811 27 12.4688 27.0393C12.2677 27.1096 12.1096 27.2677 12.0393 27.4688C12 27.5811 12 27.7207 12 28C12 28.2793 12 28.4189 12.0393 28.5312C12.1096 28.7323 12.2677 28.8904 12.4688 28.9607ZM12.4688 16.9607C12.5811 17 12.7207 17 13 17C13.2793 17 13.4189 17 13.5312 16.9607C13.7323 16.8904 13.8904 16.7323 13.9607 16.5312C14 16.4189 14 16.2793 14 16C14 15.7207 14 15.5811 13.9607 15.4688C13.8904 15.2677 13.7323 15.1096 13.5312 15.0393C13.4189 15 13.2793 15 13 15C12.7207 15 12.5811 15 12.4688 15.0393C12.2677 15.1096 12.1096 15.2677 12.0393 15.4688C12 15.5811 12 15.7207 12 16C12 16.2793 12 16.4189 12.0393 16.5312C12.1096 16.7323 12.2677 16.8904 12.4688 16.9607ZM12.4688 25.9607C12.5811 26 12.7207 26 13 26C13.2793 26 13.4189 26 13.5312 25.9607C13.7323 25.8904 13.8904 25.7323 13.9607 25.5312C14 25.4189 14 25.2793 14 25C14 24.7207 14 24.5811 13.9607 24.4688C13.8904 24.2677 13.7323 24.1096 13.5312 24.0393C13.4189 24 13.2793 24 13 24C12.7207 24 12.5811 24 12.4688 24.0393C12.2677 24.1096 12.1096 24.2677 12.0393 24.4688C12 24.5811 12 24.7207 12 25C12 25.2793 12 25.4189 12.0393 25.5312C12.1096 25.7323 12.2677 25.8904 12.4688 25.9607ZM12.4688 22.9607C12.5811 23 12.7207 23 13 23C13.2793 23 13.4189 23 13.5312 22.9607C13.7323 22.8904 13.8904 22.7323 13.9607 22.5312C14 22.4189 14 22.2793 14 22C14 21.7207 14 21.5811 13.9607 21.4688C13.8904 21.2677 13.7323 21.1096 13.5312 21.0393C13.4189 21 13.2793 21 13 21C12.7207 21 12.5811 21 12.4688 21.0393C12.2677 21.1096 12.1096 21.2677 12.0393 21.4688C12 21.5811 12 21.7207 12 22C12 22.2793 12 22.4189 12.0393 22.5312C12.1096 22.7323 12.2677 22.8904 12.4688 22.9607ZM16.4688 13.9607C16.5811 14 16.7207 14 17 14C17.2793 14 17.4189 14 17.5312 13.9607C17.7323 13.8904 17.8904 13.7323 17.9607 13.5312C18 13.4189 18 13.2793 18 13C18 12.7207 18 12.5811 17.9607 12.4688C17.8904 12.2677 17.7323 12.1096 17.5312 12.0393C17.4189 12 17.2793 12 17 12C16.7207 12 16.5811 12 16.4688 12.0393C16.2677 12.1096 16.1096 12.2677 16.0393 12.4688C16 12.5811 16 12.7207 16 13C16 13.2793 16 13.4189 16.0393 13.5312C16.1096 13.7323 16.2677 13.8904 16.4688 13.9607ZM16.4688 19.9607C16.5811 20 16.7207 20 17 20C17.2793 20 17.4189 20 17.5312 19.9607C17.7323 19.8904 17.8904 19.7323 17.9607 19.5312C18 19.4189 18 19.2793 18 19C18 18.7207 18 18.5811 17.9607 18.4688C17.8904 18.2677 17.7323 18.1096 17.5312 18.0393C17.4189 18 17.2793 18 17 18C16.7207 18 16.5811 18 16.4688 18.0393C16.2677 18.1096 16.1096 18.2677 16.0393 18.4688C16 18.5811 16 18.7207 16 19C16 19.2793 16 19.4189 16.0393 19.5312C16.1096 19.7323 16.2677 19.8904 16.4688 19.9607ZM16.4688 28.9607C16.5811 29 16.7207 29 17 29C17.2793 29 17.4189 29 17.5312 28.9607C17.7323 28.8904 17.8904 28.7323 17.9607 28.5312C18 28.4189 18 28.2793 18 28C18 27.7207 18 27.5811 17.9607 27.4688C17.8904 27.2677 17.7323 27.1096 17.5312 27.0393C17.4189 27 17.2793 27 17 27C16.7207 27 16.5811 27 16.4688 27.0393C16.2677 27.1096 16.1096 27.2677 16.0393 27.4688C16 27.5811 16 27.7207 16 28C16 28.2793 16 28.4189 16.0393 28.5312C16.1096 28.7323 16.2677 28.8904 16.4688 28.9607ZM16.4688 16.9607C16.5811 17 16.7207 17 17 17C17.2793 17 17.4189 17 17.5312 16.9607C17.7323 16.8904 17.8904 16.7323 17.9607 16.5312C18 16.4189 18 16.2793 18 16C18 15.7207 18 15.5811 17.9607 15.4688C17.8904 15.2677 17.7323 15.1096 17.5312 15.0393C17.4189 15 17.2793 15 17 15C16.7207 15 16.5811 15 16.4688 15.0393C16.2677 15.1096 16.1096 15.2677 16.0393 15.4688C16 15.5811 16 15.7207 16 16C16 16.2793 16 16.4189 16.0393 16.5312C16.1096 16.7323 16.2677 16.8904 16.4688 16.9607ZM16.4688 22.9607C16.5811 23 16.7207 23 17 23C17.2793 23 17.4189 23 17.5312 22.9607C17.7323 22.8904 17.8904 22.7323 17.9607 22.5312C18 22.4189 18 22.2793 18 22C18 21.7207 18 21.5811 17.9607 21.4688C17.8904 21.2677 17.7323 21.1096 17.5312 21.0393C17.4189 21 17.2793 21 17 21C16.7207 21 16.5811 21 16.4688 21.0393C16.2677 21.1096 16.1096 21.2677 16.0393 21.4688C16 21.5811 16 21.7207 16 22C16 22.2793 16 22.4189 16.0393 22.5312C16.1096 22.7323 16.2677 22.8904 16.4688 22.9607Z" fill="black"/>
<path opacity="0.3" fill-rule="evenodd" clip-rule="evenodd" d="M24.6428 18C25.7266 18 26.6007 18 27.3086 18.0578C28.0375 18.1174 28.6777 18.2432 29.27 18.545C30.2108 19.0243 30.9757 19.7892 31.455 20.73C31.7568 21.3223 31.8826 21.9625 31.9422 22.6914C32 23.3992 32 24.2734 32 25.3572V28.8386C32 29.3657 32 29.8205 31.9694 30.195C31.9371 30.5904 31.8658 30.9836 31.673 31.362C31.3854 31.9265 30.9265 32.3854 30.362 32.673C29.9836 32.8658 29.5904 32.9371 29.195 32.9694C28.8205 33 28.3657 33 27.8386 33H22V18H24.6428ZM27.2 27.5H27.8C28.1866 27.5 28.5 27.8134 28.5 28.2V28.8C28.5 29.1866 28.1866 29.5 27.8 29.5H27.2C26.8134 29.5 26.5 29.1866 26.5 28.8V28.2C26.5 27.8134 26.8134 27.5 27.2 27.5ZM24.8 27.5H24.2C23.8134 27.5 23.5 27.8134 23.5 28.2V28.8C23.5 29.1866 23.8134 29.5 24.2 29.5H24.8C25.1866 29.5 25.5 29.1866 25.5 28.8V28.2C25.5 27.8134 25.1866 27.5 24.8 27.5ZM24.2 24.5H24.8C25.1866 24.5 25.5 24.8134 25.5 25.2V25.8C25.5 26.1866 25.1866 26.5 24.8 26.5H24.2C23.8134 26.5 23.5 26.1866 23.5 25.8V25.2C23.5 24.8134 23.8134 24.5 24.2 24.5ZM27.8 24.5H27.2C26.8134 24.5 26.5 24.8134 26.5 25.2V25.8C26.5 26.1866 26.8134 26.5 27.2 26.5H27.8C28.1866 26.5 28.5 26.1866 28.5 25.8V25.2C28.5 24.8134 28.1866 24.5 27.8 24.5ZM27.2 21.5H27.8C28.1866 21.5 28.5 21.8134 28.5 22.2V22.8C28.5 23.1866 28.1866 23.5 27.8 23.5H27.2C26.8134 23.5 26.5 23.1866 26.5 22.8V22.2C26.5 21.8134 26.8134 21.5 27.2 21.5ZM24.8 21.5H24.2C23.8134 21.5 23.5 21.8134 23.5 22.2V22.8C23.5 23.1866 23.8134 23.5 24.2 23.5H24.8C25.1866 23.5 25.5 23.1866 25.5 22.8V22.2C25.5 21.8134 25.1866 21.5 24.8 21.5Z" fill="black"/>
</svg>
