<svg width="24" height="24" viewBox="0 0 24 24" fill="none" xmlns="http://www.w3.org/2000/svg">
<path d="M2 13C2.00009 13.8728 2.33034 14.7456 2.99075 15.406L8.58775 21C9.90975 22.321 12.0808 22.321 13.4028 21L20.7178 13.719C20.9021 13.5352 20.9891 13.2459 21 13C20 13 2.99075 13 2 13ZM19.9987 16C19.9987 16 17.9978 18.895 17.9978 20C17.9978 21.105 18.8937 22 19.9987 22C21.1038 22 21.9998 21.105 21.9998 20C21.9998 18.895 19.9987 16 19.9987 16Z" fill="black"/>
<path d="M9.99475 2C9.73875 2 9.47076 2.08601 9.27576 2.28101C8.88476 2.67201 8.88476 3.32799 9.27576 3.71899L9.55675 4L2.99075 10.594C2.33016 11.2541 1.99991 12.127 2 13C2.5 13 4 13 4 13C4 12.8911 4.00391 12.4102 4.43359 11.9961C4.43359 11.9961 10.2139 6.22362 10.9961 5.44141C11.9961 6.44141 18.5586 13.0039 18.5586 13.0039C19.0586 13.0039 20.5 13 21 13C20.9999 12.7383 20.9133 12.4765 20.7178 12.281C19.5928 11.156 12.8398 4.40601 11.7138 3.28101L10.7138 2.28101C10.5178 2.08601 10.2507 2 9.99475 2Z" fill="black" fill-opacity="0.4"/>
</svg>
