<svg width="40" height="40" viewBox="0 0 40 40" fill="none" xmlns="http://www.w3.org/2000/svg">
<path opacity="0.3" d="M20 7C12.8203 7 7 12.8203 7 20C7 27.1797 12.8203 33 20 33C20.9262 33 21.6444 32.9574 22.195 32.8812C22.7221 32.8082 23.1854 32.6934 23.5358 32.492C23.7175 32.3876 23.9291 32.2257 24.0786 31.9752C24.2424 31.7004 24.2903 31.3862 24.2262 31.0873C24.1178 30.5813 23.7344 30.2877 23.5547 30.1679L23.5029 30.1334L23.4472 30.1056C23.257 30.0105 22.984 29.7934 22.8355 29.5105C22.7163 29.2831 22.6402 28.9557 22.8944 28.4472C23.1411 27.9538 23.6371 27.5838 24.286 27.3326C24.9306 27.083 25.606 27 26 27C28.7259 27 30.5261 25.8418 31.6115 24.3343C32.6602 22.8778 33 21.16 33 20C33 12.8203 27.1797 7 20 7Z" fill="black"/>
<path d="M13.5 19C12.6716 19 12 18.3284 12 17.5C12 16.6716 12.6716 16 13.5 16C14.3284 16 15 16.6716 15 17.5C15 18.3284 14.3284 19 13.5 19Z" fill="black"/>
<path d="M26.5 19C27.3284 19 28 18.3284 28 17.5C28 16.6716 27.3284 16 26.5 16C25.6716 16 25 16.6716 25 17.5C25 18.3284 25.6716 19 26.5 19Z" fill="black"/>
<path d="M17.5 15C16.6716 15 16 14.3284 16 13.5C16 12.6716 16.6716 12 17.5 12C18.3284 12 19 12.6716 19 13.5C19 14.3284 18.3284 15 17.5 15Z" fill="black"/>
<path d="M22.5 15C23.3284 15 24 14.3284 24 13.5C24 12.6716 23.3284 12 22.5 12C21.6716 12 21 12.6716 21 13.5C21 14.3284 21.6716 15 22.5 15Z" fill="black"/>
</svg>
