<svg width="24" height="24" viewBox="0 0 24 24" fill="none" xmlns="http://www.w3.org/2000/svg">
<path d="M11.9989 2C6.4759 2 1.9989 6.47571 1.9989 11.9971C1.9989 17.5185 6.4759 21.9942 11.9989 21.9942C12.0799 21.9942 12.6949 22.0072 12.9049 21.9942C13.1849 21.9762 13.4369 21.9322 13.7179 21.8693C15.0499 21.5693 15.9409 20.6726 16.1869 19.4639C16.2789 19.0061 16.2299 18.7062 16.0929 17.8704C16.0369 17.5295 16.0089 17.3665 15.9989 17.1836C15.9769 16.7637 16.0639 16.5188 16.2799 16.3079C16.4719 16.1219 16.6509 16.0219 16.8739 15.996C17.1049 15.969 17.3409 16.02 17.8429 16.1209C18.4729 16.2479 18.6829 16.2559 19.0299 16.2459C20.5159 16.2039 21.7049 15.0882 21.9049 13.5587C21.9749 13.0278 21.9989 12.521 21.9989 11.9971C21.9989 6.47571 17.5219 2 11.9989 2ZM11.9989 3.99942C16.4169 3.99942 19.9989 7.58039 19.9989 11.9971C19.9989 12.432 19.9639 12.8619 19.9049 13.3087C19.8299 13.8866 19.4469 14.2325 18.9679 14.2465C18.8349 14.2505 18.7079 14.2455 18.2489 14.1525C17.5489 14.0115 17.1589 13.9685 16.6549 14.0275C16.0009 14.1045 15.3869 14.3714 14.8739 14.8713C14.1959 15.5311 13.9799 16.3289 14.0299 17.2766C14.0449 17.5555 14.0559 17.8034 14.1239 18.2143C14.2159 18.7702 14.2419 18.9401 14.2179 19.0571C14.1289 19.495 13.8439 19.7739 13.2799 19.9008C13.1059 19.9408 12.9569 19.9838 12.7799 19.9948C12.6289 20.0048 12.4889 19.9958 12.1549 19.9948C12.0749 19.9948 12.0839 19.9948 11.9989 19.9948C7.5809 19.9948 3.9989 16.4138 3.9989 11.9971C3.9989 7.58039 7.5809 3.99942 11.9989 3.99942Z" fill="black" fill-opacity="0.4"/>
<path d="M12.906 6C12.078 6 11.406 6.69553 11.406 7.55253C11.406 8.40952 12.078 9.10506 12.906 9.10506C13.734 9.10506 14.406 8.40952 14.406 7.55253C14.406 6.69553 13.734 6 12.906 6ZM8.71802 7.22858C7.89002 7.22961 7.21802 7.92411 7.21802 8.78111C7.21802 9.63914 7.89002 10.3336 8.71802 10.3336C9.54702 10.3336 10.218 9.63914 10.218 8.78111C10.219 7.92411 9.54702 7.22858 8.71802 7.22858ZM16.125 9.00777C15.296 9.00777 14.625 9.7033 14.625 10.5603C14.625 11.4183 15.296 12.1128 16.125 12.1128C16.953 12.1128 17.625 11.4183 17.625 10.5603C17.625 9.7033 16.953 9.00777 16.125 9.00777ZM7.5 11.5311C6.671 11.5311 6 12.2256 6 13.0837C6 13.9407 6.671 14.6362 7.5 14.6362C8.328 14.6362 9 13.9407 9 13.0837C9 12.2256 8.328 11.5311 7.5 11.5311ZM10.406 14.8949C9.57801 14.8949 8.90601 15.5894 8.90601 16.4475C8.90601 17.3045 9.57801 18 10.406 18C11.234 18 11.906 17.3045 11.906 16.4475C11.906 15.5894 11.234 14.8949 10.406 14.8949Z" fill="black"/>
</svg>
