<svg width="24" height="24" viewBox="0 0 24 24" fill="none" xmlns="http://www.w3.org/2000/svg">
<path d="M12 2C10.641 2 9.431 2.55801 8.5 3.53101C7.209 3.52701 5.85901 3.95301 4.90601 4.90601C3.95301 5.85901 3.47901 7.22199 3.53101 8.46899C2.55801 9.39999 2 10.641 2 12C2 13.359 2.589 14.6 3.562 15.531C3.532 16.886 3.95301 18.141 4.90601 19.094C5.85901 20.047 7.11399 20.456 8.46899 20.469C9.39999 21.442 10.641 22 12 22C13.359 22 14.569 21.442 15.5 20.469C16.813 20.464 18.141 20.047 19.094 19.094C20.047 18.141 20.508 16.815 20.469 15.531C21.442 14.6 22 13.359 22 12C22 10.641 21.442 9.431 20.469 8.5C20.499 7.146 20.047 5.85901 19.094 4.90601C18.141 3.95301 16.777 3.48401 15.531 3.53101C14.6 2.55801 13.359 2 12 2Z" fill="black" fill-opacity="0.4"/>
<path d="M12 7C11.448 7 11 7.448 11 8V13C11 13.552 11.448 14 12 14C12.552 14 13 13.552 13 13V8C13 7.448 12.552 7 12 7ZM12 15C11.448 15 11 15.448 11 16C11 16.552 11.448 17 12 17C12.552 17 13 16.552 13 16C13 15.448 12.552 15 12 15Z" fill="black"/>
</svg>
