<svg width="24" height="24" viewBox="0 0 24 24" fill="none" xmlns="http://www.w3.org/2000/svg">
<path d="M12 2C10.641 2 9.431 2.55801 8.5 3.53101C7.209 3.52701 5.85901 3.95301 4.90601 4.90601C3.95301 5.85901 3.47901 7.22199 3.53101 8.46899C2.55801 9.39999 2 10.641 2 12C2 13.359 2.58901 14.6 3.56201 15.531C3.53201 16.886 3.95301 18.141 4.90601 19.094C5.85901 20.047 7.11399 20.456 8.46899 20.469C9.39999 21.442 10.641 22 12 22C13.359 22 14.569 21.442 15.5 20.469C16.812 20.464 18.141 20.047 19.094 19.094C20.047 18.141 20.507 16.815 20.469 15.531C21.442 14.6 22 13.359 22 12C22 10.641 21.442 9.431 20.469 8.5C20.499 7.146 20.047 5.85901 19.094 4.90601C18.141 3.95301 16.777 3.48401 15.531 3.53101C14.6 2.55801 13.359 2 12 2Z" fill="black" fill-opacity="0.4"/>
<path d="M12 7C10.343 7 9 8.343 9 10C9 10.552 9.448 11 10 11C10.552 11 11 10.552 11 10C11 9.448 11.448 9 12 9C12.552 9 13 9.448 13 10C13 10.496 12.852 10.728 12.406 11.062C12.333 11.117 11.991 11.374 11.906 11.438C11.317 11.879 11 12.309 11 13C11 13.552 11.448 14 12 14C12.552 14 13 13.552 13 13C13 13.102 12.992 13.131 13.125 13.031C13.18 12.99 13.491 12.765 13.594 12.688C14.498 12.009 15 11.212 15 10C15 8.343 13.657 7 12 7ZM12 15C11.448 15 11 15.448 11 16C11 16.552 11.448 17 12 17C12.552 17 13 16.552 13 16C13 15.448 12.552 15 12 15Z" fill="black"/>
</svg>
