<svg width="24" height="24" viewBox="0 0 24 24" fill="none" xmlns="http://www.w3.org/2000/svg">
<path d="M12 2C10.6411 2 9.4622 2.652 8.5312 3.625C7.177 3.595 5.8592 3.95301 4.9062 4.90601C3.9533 5.85901 3.5945 7.17701 3.625 8.53101C2.6517 9.46201 2 10.641 2 12C2 13.359 2.6517 14.538 3.625 15.469C3.5945 16.823 3.9533 18.141 4.9062 19.094C5.8593 20.047 7.177 20.406 8.5312 20.375C9.4622 21.348 10.6411 22 12 22C13.3589 22 14.5378 21.348 15.4688 20.375C16.823 20.405 18.1408 20.047 19.0938 19.094C20.0467 18.141 20.4055 16.823 20.375 15.469C21.3483 14.538 22 13.359 22 12C22 10.641 21.3483 9.46201 20.375 8.53101C20.4055 7.17701 20.0467 5.85901 19.0938 4.90601C18.1407 3.95301 16.823 3.594 15.4688 3.625C14.5378 2.652 13.3589 2 12 2Z" fill="black" fill-opacity="0.4"/>
<path fill-rule="evenodd" clip-rule="evenodd" d="M15.7071 9.29289C16.0976 9.68342 16.0976 10.3166 15.7071 10.7071L11.7071 14.7071C11.3166 15.0976 10.6834 15.0976 10.2929 14.7071L8.29289 12.7071C7.90237 12.3166 7.90237 11.6834 8.29289 11.2929C8.68342 10.9024 9.31658 10.9024 9.70711 11.2929L11 12.5858L14.2929 9.29289C14.6834 8.90237 15.3166 8.90237 15.7071 9.29289Z" fill="black"/>
</svg>
