<svg width="24" height="24" viewBox="0 0 24 24" fill="none" xmlns="http://www.w3.org/2000/svg">
<path d="M12 2C10.6411 2 9.4337 2.55402 8.5028 3.52802C7.2116 3.52302 5.8592 3.95301 4.9062 4.90601C3.9533 5.85901 3.4865 7.23402 3.5392 8.48102C2.5658 9.41202 2 10.641 2 12C2 13.359 2.5742 14.603 3.5475 15.534C3.517 16.888 3.9533 18.141 4.9062 19.094C5.8593 20.047 7.1188 20.456 8.4739 20.469C9.4049 21.442 10.6411 22 12 22C13.3589 22 14.578 21.448 15.5089 20.475C16.8214 20.47 18.1408 20.047 19.0938 19.094C20.0467 18.141 20.4995 16.814 20.4608 15.53C21.4341 14.599 22 13.359 22 12C22 10.641 21.4319 9.423 20.4586 8.492C20.4891 7.138 20.0467 5.85901 19.0938 4.90601C18.1407 3.95301 16.7659 3.48797 15.5202 3.53497C14.5893 2.56197 13.3588 2 12 2ZM12 4C12.8983 4 13.7215 4.43599 14.3125 5.18799C14.5266 5.45999 14.8749 5.60101 15.2188 5.56201C16.1829 5.45401 17.0382 5.72599 17.6562 6.34399C18.2742 6.96199 18.5459 7.81701 18.4375 8.78101C18.3988 9.12501 18.5405 9.47299 18.8125 9.68799C19.5636 10.279 20 11.102 20 12C20 12.898 19.5636 13.721 18.8125 14.312C18.5405 14.527 18.3988 14.875 18.4375 15.219C18.5459 16.183 18.2742 17.038 17.6562 17.656C17.0383 18.274 16.1829 18.546 15.2188 18.438C14.8748 18.399 14.5265 18.54 14.3125 18.812C13.7215 19.564 12.8983 20 12 20C11.1017 20 10.2786 19.564 9.6875 18.812C9.4734 18.54 9.1251 18.399 8.7812 18.438C7.8171 18.546 6.9617 18.274 6.3438 17.656C5.7258 17.038 5.4542 16.183 5.5625 15.219C5.6012 14.875 5.4595 14.527 5.1875 14.312C4.4364 13.721 4 12.898 4 12C4 11.102 4.4364 10.279 5.1875 9.68799C5.4595 9.47299 5.6012 9.12501 5.5625 8.78101C5.4541 7.81701 5.7258 6.96199 6.3438 6.34399C6.9617 5.72599 7.8171 5.45401 8.7812 5.56201C9.1252 5.60101 9.4735 5.45999 9.6875 5.18799C10.2785 4.43599 11.1017 4 12 4Z" fill="black" fill-opacity="0.4"/>
<path fill-rule="evenodd" clip-rule="evenodd" d="M15.7071 9.29289C16.0976 9.68342 16.0976 10.3166 15.7071 10.7071L11.7071 14.7071C11.3166 15.0976 10.6834 15.0976 10.2929 14.7071L8.29289 12.7071C7.90237 12.3166 7.90237 11.6834 8.29289 11.2929C8.68342 10.9024 9.31658 10.9024 9.70711 11.2929L11 12.5858L14.2929 9.29289C14.6834 8.90237 15.3166 8.90237 15.7071 9.29289Z" fill="black"/>
</svg>
