<svg width="40" height="40" viewBox="0 0 40 40" fill="none" xmlns="http://www.w3.org/2000/svg">
<path fill-rule="evenodd" clip-rule="evenodd" d="M14.6986 8H14.6347C14.2479 7.99999 13.9071 7.99997 13.6238 8.01991C13.323 8.04107 13.0131 8.08819 12.7046 8.21994C12.0193 8.5127 11.4842 9.06985 11.2074 9.75903C11.0838 10.0667 11.0393 10.3761 11.0191 10.6809C11 10.9699 11 11.3184 11 11.7193V21.2521C12.9702 19.8348 15.3876 19 18 19C18.1115 19 18.2226 19.0015 18.3333 19.0045V11.7193C18.3333 11.3184 18.3334 10.9699 18.3142 10.6809C18.2941 10.3761 18.2495 10.0667 18.126 9.75903C17.8491 9.06985 17.3141 8.5127 16.6287 8.21994C16.3203 8.08819 16.0103 8.04107 15.7096 8.01991C15.4262 7.99997 15.0855 7.99999 14.6986 8ZM21.6667 19.5705C24.9571 20.6253 27.629 23.0615 29 26.1966V11.7193C29 11.3184 29 10.9699 28.9809 10.6809C28.9607 10.3761 28.9162 10.0667 28.7926 9.75903C28.5158 9.06984 27.9807 8.5127 27.2954 8.21994C26.9869 8.08819 26.677 8.04107 26.3762 8.01991C26.0929 7.99997 25.7521 7.99999 25.3653 8H25.3014C24.9145 7.99999 24.5738 7.99997 24.2904 8.01991C23.9897 8.04107 23.6797 8.08819 23.3713 8.21994C22.6859 8.5127 22.1509 9.06984 21.874 9.75903C21.7505 10.0667 21.7059 10.3761 21.6858 10.6809C21.6666 10.9699 21.6667 11.3184 21.6667 11.7193V19.5705Z" fill="black"/>
<g opacity="0.3">
<path d="M21.6667 28.2807C21.6667 28.6816 21.6666 29.0301 21.6858 29.3191C21.7059 29.6239 21.7505 29.9333 21.874 30.241C22.1509 30.9302 22.6859 31.4873 23.3713 31.7801C23.6797 31.9118 23.9897 31.9589 24.2904 31.9801C24.5738 32 24.9145 32 25.3014 32H25.3653C25.7521 32 26.0929 32 26.3762 31.9801C26.677 31.9589 26.9869 31.9118 27.2954 31.7801C27.9807 31.4873 28.5158 30.9302 28.7926 30.241C28.9162 29.9333 28.9607 29.6239 28.9809 29.3191C29 29.0301 29 28.6816 29 28.2807V26.1966C27.629 23.0615 24.9571 20.6253 21.6667 19.5705V28.2807Z" fill="black"/>
<path d="M11 28.2807C11 28.6816 11 29.0301 11.0191 29.3191C11.0393 29.6239 11.0838 29.9333 11.2074 30.241C11.4842 30.9302 12.0193 31.4873 12.7046 31.7801C13.0131 31.9118 13.323 31.9589 13.6238 31.9801C13.9071 32 14.2479 32 14.6347 32H14.6986C15.0855 32 15.4262 32 15.7096 31.9801C16.0103 31.9589 16.3203 31.9118 16.6287 31.7801C17.3141 31.4873 17.8491 30.9302 18.126 30.241C18.2495 29.9333 18.2941 29.6239 18.3142 29.3191C18.3334 29.0301 18.3333 28.6816 18.3333 28.2807V19.0045C18.2226 19.0015 18.1115 19 18 19C15.3876 19 12.9702 19.8348 11 21.2521V28.2807Z" fill="black"/>
</g>
</svg>
