<svg width="40" height="40" viewBox="0 0 40 40" fill="none" xmlns="http://www.w3.org/2000/svg">
<path opacity="0.3" d="M25.3324 18.6044L21.3956 14.6676L19.9814 13.2534L11.4056 21.8292L11.3087 21.9259C10.848 22.3851 10.4289 22.8027 10.2063 23.3507C9.98377 23.8986 9.99288 24.4901 10.0029 25.1403L10.0049 25.2774L10.0301 27.1179L10.0309 27.1702C10.0361 27.5594 10.0413 27.9437 10.088 28.2619C10.1411 28.623 10.2646 29.0396 10.6125 29.3875C10.9604 29.7354 11.377 29.8589 11.7381 29.912C12.0562 29.9587 12.4405 29.9639 12.8296 29.9692L12.8821 29.9699L14.7227 29.9951L14.8595 29.9971C15.5099 30.0071 16.1014 30.0163 16.6494 29.7937C17.1973 29.5711 17.6149 29.1521 18.074 28.6914L18.1708 28.5944L26.7466 20.0186L25.3324 18.6044Z" fill="black"/>
<path d="M21.421 27.9952C20.8687 27.9952 20.421 28.4429 20.421 28.9952C20.421 29.5474 20.8687 29.9952 21.421 29.9952L29 29.9952C29.5522 29.9952 30 29.5474 30 28.9952C30 28.4429 29.5522 27.9952 29 27.9952L21.421 27.9952Z" fill="black"/>
<path d="M22.8102 13.2538L26.7461 17.1897L28.1605 18.6041C28.6253 18.1367 29.0273 17.7189 29.322 17.3326C29.7052 16.8303 30 16.2657 30 15.5673C30 14.869 29.7052 14.3043 29.322 13.8021C28.9657 13.3351 28.4525 12.8219 27.8612 12.2308L27.7692 12.1387C27.178 11.5475 26.6649 11.0343 26.1979 10.6779C25.6956 10.2948 25.131 10 24.4326 10C23.7343 10 23.1696 10.2948 22.6674 10.6779C22.2811 10.9727 21.8633 11.3747 21.3959 11.8394L22.8102 13.2538Z" fill="black"/>
</svg>
