<svg width="24" height="24" viewBox="0 0 24 24" fill="none" xmlns="http://www.w3.org/2000/svg">
<path fill-rule="evenodd" clip-rule="evenodd" d="M17.4972 17.8122C19.0384 16.3539 20 14.2893 20 12C20 7.58172 16.4183 4 12 4C7.58172 4 4 7.58172 4 12C4 14.2893 4.96155 16.3539 6.50281 17.8122C6.18072 18.473 6 19.2154 6 20V20.0007C3.5711 18.1763 2 15.2716 2 12C2 6.47715 6.47715 2 12 2C17.5228 2 22 6.47715 22 12C22 15.2716 20.4289 18.1763 18 20.0007V20C18 19.2154 17.8193 18.473 17.4972 17.8122Z" fill="black" fill-opacity="0.4"/>
<path fill-rule="evenodd" clip-rule="evenodd" d="M15.5 9.5C15.5 11.433 13.933 13 12 13C10.067 13 8.5 11.433 8.5 9.5C8.5 7.567 10.067 6 12 6C13.933 6 15.5 7.567 15.5 9.5ZM12 22C14.2512 22 16.3287 21.2561 18 20.0007V20C18 17.2386 15.7614 15 13 15H11C8.23858 15 6 17.2386 6 20V20.0007C7.67132 21.2561 9.74879 22 12 22Z" fill="black"/>
</svg>
