<svg width="24" height="24" viewBox="0 0 24 24" fill="none" xmlns="http://www.w3.org/2000/svg">
<path fill-rule="evenodd" clip-rule="evenodd" d="M12 20C16.4183 20 20 16.4183 20 12C20 7.58172 16.4183 4 12 4C7.58172 4 4 7.58172 4 12C4 16.4183 7.58172 20 12 20ZM12 22C17.5228 22 22 17.5228 22 12C22 6.47715 17.5228 2 12 2C6.47715 2 2 6.47715 2 12C2 17.5228 6.47715 22 12 22Z" fill="black" fill-opacity="0.4"/>
<path fill-rule="evenodd" clip-rule="evenodd" d="M14 10C14 11.1046 13.1046 12 12 12C10.8954 12 10 11.1046 10 10C10 8.89543 10.8954 8 12 8C13.1046 8 14 8.89543 14 10ZM16 10C16 12.2091 14.2092 14 12 14C9.79087 14 8.00001 12.2091 8.00001 10C8.00001 7.79086 9.79087 6 12 6C14.2092 6 16 7.79086 16 10ZM10.8831 17C9.6214 17 8.49804 17.7888 8.06628 18.9677C7.46653 18.6283 6.91494 18.2138 6.42432 17.7369C7.26636 16.0764 8.98035 15 10.8831 15H13.117C15.0197 15 16.7337 16.0764 17.5757 17.7368C17.0851 18.2138 16.5335 18.6283 15.9338 18.9676C15.502 17.7888 14.3787 17 13.117 17H10.8831Z" fill="black"/>
</svg>
