<svg width="40" height="40" viewBox="0 0 40 40" fill="none" xmlns="http://www.w3.org/2000/svg">
<path opacity="0.3" fill-rule="evenodd" clip-rule="evenodd" d="M12.2011 15.1826C12.1235 14.6614 12.0936 13.4153 12.2965 12.1376C12.4064 11.4448 12.5922 10.6915 12.9052 10.0058C13.2172 9.3226 13.6835 8.64672 14.3854 8.20044C14.3969 8.19309 14.4086 8.186 14.4205 8.17915L14.4525 8.16062C14.773 7.97519 15.0041 7.84151 15.2248 7.74704C16.7979 7.07357 18.6451 7.50705 19.6933 8.88145C19.836 9.06856 19.9666 9.29514 20.1349 9.58719L20.5086 10.2343C20.8446 10.8166 21.1124 11.2806 21.2657 11.698C21.3869 12.0278 21.4037 12.3456 21.4049 12.5659C21.4077 13.0642 21.2596 13.5391 21.0942 13.936C20.9255 14.3406 20.7046 14.7425 20.4981 15.1029C20.4306 15.2207 20.3655 15.3326 20.3028 15.4405C20.1627 15.6816 20.0342 15.9026 19.9159 16.1248C19.7454 16.4454 19.6438 16.6832 19.5999 16.8572C19.5373 17.1057 19.3614 17.3193 19.1179 17.3832C18.315 17.594 17.5265 17.9184 16.7734 18.3623C16.19 18.7062 15.6567 19.1047 15.1763 19.5479C14.6503 20.0331 13.7773 19.9452 13.4802 19.2881C13.0639 18.3676 12.7829 17.6097 12.593 17.003C12.4061 16.4058 12.3073 15.954 12.2552 15.637C12.2291 15.4784 12.2147 15.3536 12.2068 15.2611C12.2043 15.2316 12.2024 15.2055 12.2011 15.1826Z" fill="black"/>
<path d="M18.6729 27.5547C17.7667 26.5181 16.522 24.8796 15.1072 22.4267C15.0607 22.3461 15.0149 22.2663 14.9699 22.1871C14.7785 21.8505 14.7983 21.4275 15.0434 21.1294C15.6523 20.3885 16.3961 19.7417 17.2641 19.2301C17.7716 18.931 18.297 18.6925 18.8324 18.5124C19.3124 18.351 19.804 18.6533 20.0226 19.1184C20.1096 19.3036 20.2119 19.5013 20.3319 19.7093C20.9368 20.758 21.5922 21.3727 21.8421 21.5851C21.8699 21.6088 21.9161 21.6407 21.9994 21.6853C22.0782 21.7275 22.1582 21.7641 22.2393 21.7949C22.3902 21.8523 22.6297 21.8953 22.9858 21.9138C23.3071 21.9306 23.6569 21.9254 24.0482 21.9195L24.1561 21.9179C24.5731 21.9119 25.0372 21.9074 25.4745 21.9434C25.9044 21.9789 26.3892 22.0584 26.8249 22.2663C27.1389 22.4161 27.5536 22.6563 27.8641 23.0754C28.0973 23.3902 28.3374 23.8065 28.6357 24.3238L28.985 24.9294C29.1563 25.2261 29.2881 25.4546 29.3797 25.6743C30.0507 27.2844 29.4953 29.1265 28.1168 30.1618C27.927 30.3044 27.6978 30.4369 27.3863 30.617L27.3399 30.6438C27.328 30.6507 27.3161 30.6573 27.304 30.6636C25.9301 31.383 24.3882 31.1508 23.1695 30.7209C21.9356 30.2858 20.8376 29.5818 20.1808 29.0502L20.1569 29.0316C20.1343 29.0138 20.1041 28.9894 20.0665 28.958C19.9913 28.8953 19.8869 28.8049 19.756 28.6834C19.494 28.4402 19.1259 28.0729 18.6729 27.5547Z" fill="black"/>
</svg>
