<svg width="40" height="40" viewBox="0 0 40 40" fill="none" xmlns="http://www.w3.org/2000/svg">
<path opacity="0.3" d="M19.8185 7.10365C20.2625 6.96545 20.7375 6.96545 21.1815 7.10365C21.6392 7.24607 21.9693 7.54315 22.2292 7.83139C22.4767 8.10572 22.7452 8.47123 23.0455 8.88014L23.0731 8.91774C23.4427 9.42075 23.5123 9.49864 23.5722 9.54408C23.6356 9.59226 23.6753 9.6145 23.7482 9.64329C23.8125 9.6687 23.9381 9.69025 24.6412 9.74932C25.562 9.8267 26.3417 9.97533 27.0667 10.2805C29.0295 11.1066 30.5839 12.689 31.3932 14.6743C31.7169 15.4685 31.8612 16.3295 31.9311 17.3714C32 18.3969 32 19.6676 32 21.2936V21.2936V21.3671L32 21.6679C31.9997 23.1511 31.9957 24.3279 31.9311 25.2893C31.8612 26.3312 31.7169 27.1922 31.3932 27.9864C30.5839 29.9718 29.0295 31.5541 27.0667 32.3802C26.7346 32.52 26.3908 32.627 26.027 32.7094C25.5289 32.8222 24.9934 32.8887 24.3993 32.9299C23.4313 32.997 22.2425 32.9999 20.7397 33C20.673 33 20.6057 33 20.5378 33H20.5378H20.4622H20.4622C18.8634 33 17.6116 33 16.6007 32.9299C16.0684 32.893 15.5831 32.8357 15.1297 32.7431C14.7074 32.6569 14.3127 32.5399 13.9333 32.3802C11.9705 31.5541 10.4161 29.9718 9.60682 27.9864C9.28308 27.1922 9.13881 26.3312 9.06885 25.2893C8.99999 24.2638 9 22.9932 9 21.3671V21.2936C9 19.6676 8.99999 18.3969 9.06885 17.3714C9.13881 16.3295 9.28308 15.4685 9.60682 14.6743C10.4161 12.689 11.9705 11.1066 13.9333 10.2805C14.6583 9.97533 15.438 9.8267 16.3588 9.74932C17.0619 9.69025 17.1875 9.6687 17.2518 9.64329C17.3247 9.6145 17.3644 9.59226 17.4279 9.54408C17.4877 9.49864 17.5573 9.42075 17.9269 8.91774L17.9545 8.88014L18.0104 8.80397C18.2883 8.42589 18.5388 8.08857 18.7708 7.83139C19.0307 7.54315 19.3608 7.24608 19.8185 7.10365Z" fill="black"/>
<path d="M20.5485 24.6779C22.8117 24.6779 24.7332 22.7834 24.7332 20.339C24.7332 17.8946 22.8117 16 20.5485 16C18.2853 16 16.3637 17.8946 16.3637 20.339C16.3637 22.7834 18.2853 24.6779 20.5485 24.6779Z" fill="black"/>
<path fill-rule="evenodd" clip-rule="evenodd" d="M26.027 32.7094C26.0723 32.6818 26.1162 32.6499 26.1597 32.6131C26.237 32.5476 26.3415 32.4264 26.3944 32.3407C26.5954 32.0154 26.5636 31.7002 26.5 31.0698C26.4903 30.9734 26.4794 30.8783 26.4671 30.7843C26.4193 30.4184 26.353 30.0868 26.2641 29.7864C26.1569 29.4238 26.0169 29.1066 25.8372 28.829C25.2376 27.9026 23.9309 27.0386 20.5352 26.9608C17.1544 26.963 15.8601 27.8288 15.2636 28.7634C14.9333 29.2811 14.736 29.9374 14.6301 30.76C14.617 30.8619 14.6054 30.9651 14.5952 31.0696C14.5333 31.7021 14.5023 32.0183 14.7036 32.3426C14.7567 32.4281 14.8608 32.5485 14.9381 32.6138C15.0002 32.6663 15.0631 32.7086 15.1297 32.7431C15.5831 32.8357 16.0684 32.893 16.6008 32.9299C17.6116 33 18.8634 33 20.4622 33H20.5378C22.1366 33 23.3884 33 24.3993 32.9299C24.9934 32.8887 25.5289 32.8222 26.027 32.7094ZM24.7332 20.339C24.7332 22.7834 22.8117 24.6779 20.5485 24.6779C18.2853 24.6779 16.3637 22.7834 16.3637 20.339C16.3637 17.8946 18.2853 16 20.5485 16C22.8117 16 24.7332 17.8946 24.7332 20.339Z" fill="black"/>
</svg>
