<svg width="40" height="40" viewBox="0 0 40 40" fill="none" xmlns="http://www.w3.org/2000/svg">
<path opacity="0.3" fill-rule="evenodd" clip-rule="evenodd" d="M27.3091 10.5638C25.1207 8.37544 21.5495 8.52851 19.3349 10.7431L18.2116 11.8664C16.897 13.181 15.2177 14.0525 13.4312 14.3553L10.6651 14.8242C9.20463 15.0718 8.38734 16.9353 9.55744 18.1054L15 23.548L15.0192 23.5672L16.4328 24.9808L21.8946 30.4426C23.0647 31.6127 24.9282 30.7954 25.1758 29.3349L25.6447 26.5688C25.9475 24.7823 26.819 23.103 28.1336 21.7884L29.2569 20.6651C31.4715 18.4505 31.6246 14.8793 29.4362 12.6909L27.3091 10.5638Z" fill="black"/>
<path d="M12.0338 29.3798L16.4328 24.9807L15.0192 23.5671L10.6202 27.9662C10.2298 28.3566 10.2298 28.9895 10.6202 29.3798C11.0105 29.7702 11.6434 29.7702 12.0338 29.3798Z" fill="black"/>
</svg>
