<svg width="24" height="24" viewBox="0 0 24 24" fill="none" xmlns="http://www.w3.org/2000/svg">
<path d="M9.60733 1.51737C10.3774 1.34229 11.1783 1.25 11.9998 1.25C17.9369 1.25 22.7498 6.06294 22.7498 12C22.7498 17.9371 17.9369 22.75 11.9998 22.75C11.1783 22.75 10.3774 22.6577 9.60733 22.4826C9.20343 22.3908 8.95044 21.9889 9.04226 21.585C9.13409 21.1811 9.53596 20.9281 9.93987 21.02C10.6016 21.1704 11.291 21.25 11.9998 21.25C17.1085 21.25 21.2498 17.1086 21.2498 12C21.2498 6.89137 17.1085 2.75 11.9998 2.75C11.291 2.75 10.6016 2.8296 9.93987 2.98004C9.53596 3.07187 9.13409 2.81888 9.04226 2.41497C8.95044 2.01106 9.20343 1.60919 9.60733 1.51737Z" fill="#1C274C"/>
<g opacity="0.5">
<path d="M7.31347 3.13173C7.53417 3.48225 7.42894 3.94531 7.07842 4.16602C5.90324 4.90597 4.90597 5.90324 4.16602 7.07842C3.94531 7.42894 3.48225 7.53417 3.13173 7.31347C2.78121 7.09277 2.67598 6.6297 2.89668 6.27918C3.7562 4.91411 4.91411 3.7562 6.27918 2.89668C6.6297 2.67598 7.09277 2.78121 7.31347 3.13173Z" fill="#1C274C"/>
<path d="M3.13173 16.686C3.48225 16.4653 3.94531 16.5706 4.16602 16.9211C4.90598 18.0963 5.90324 19.0935 7.07842 19.8335C7.42894 20.0542 7.53417 20.5172 7.31347 20.8678C7.09277 21.2183 6.6297 21.3235 6.27918 21.1028C4.91411 20.2433 3.7562 19.0854 2.89668 17.7203C2.67598 17.3698 2.78121 16.9067 3.13173 16.686Z" fill="#1C274C"/>
</g>
<path opacity="0.3" d="M2.98004 9.93987C3.07187 9.53596 2.81888 9.13409 2.41497 9.04226C2.01106 8.95044 1.60919 9.20343 1.51737 9.60733C1.34229 10.3774 1.25 11.1783 1.25 11.9998C1.25 12.8213 1.34229 13.6222 1.51737 14.3923C1.60919 14.7962 2.01106 15.0492 2.41497 14.9574C2.81888 14.8656 3.07187 14.4637 2.98004 14.0598C2.8296 13.398 2.75 12.7087 2.75 11.9998C2.75 11.291 2.8296 10.6016 2.98004 9.93987Z" fill="#1C274C"/>
<path d="M15.4137 10.941C16.1954 11.4026 16.1954 12.5974 15.4137 13.059L10.6935 15.8458C9.93371 16.2944 9 15.7105 9 14.7868L9 9.21316C9 8.28947 9.93371 7.70561 10.6935 8.15419L15.4137 10.941Z" fill="#1C274C"/>
</svg>
