<svg width="24" height="24" viewBox="0 0 24 24" fill="none" xmlns="http://www.w3.org/2000/svg">
<path fill-rule="evenodd" clip-rule="evenodd" d="M18 6H6C4.89543 6 4 6.89543 4 8V16C4 17.1046 4.89543 18 6 18H18C19.1046 18 20 17.1046 20 16V8C20 6.89543 19.1046 6 18 6ZM6 4C3.79086 4 2 5.79086 2 8V16C2 18.2091 3.79086 20 6 20H18C20.2091 20 22 18.2091 22 16V8C22 5.79086 20.2091 4 18 4H6Z" fill="black" fill-opacity="0.4"/>
<path d="M9.62645 8.15053C9.25659 8.34873 9 8.71983 9 9.24433V14.7443C9 15.7933 10.0464 16.2963 10.9104 15.8063L14.9828 13.4943C16.364 12.6393 16.3139 11.3193 14.9828 10.4943L10.9104 8.18183C10.4784 7.93693 9.9963 7.95243 9.62645 8.15053Z" fill="black"/>
</svg>
