<svg width="24" height="24" viewBox="0 0 24 24" fill="none" xmlns="http://www.w3.org/2000/svg">
<path fill-rule="evenodd" clip-rule="evenodd" d="M12 20C16.4183 20 20 16.4183 20 12C20 7.58172 16.4183 4 12 4C7.58172 4 4 7.58172 4 12C4 16.4183 7.58172 20 12 20ZM12 22C17.5228 22 22 17.5228 22 12C22 6.47715 17.5228 2 12 2C6.47715 2 2 6.47715 2 12C2 17.5228 6.47715 22 12 22Z" fill="black" fill-opacity="0.4"/>
<path d="M9.62645 8.15053C9.25659 8.34873 9 8.71983 9 9.24433V14.7443C9 15.7933 10.0464 16.2963 10.9104 15.8063L14.9828 13.4943C16.364 12.6393 16.3139 11.3193 14.9828 10.4943L10.9104 8.18183C10.4784 7.93693 9.9963 7.95243 9.62645 8.15053Z" fill="black"/>
</svg>
