<svg width="40" height="40" viewBox="0 0 40 40" fill="none" xmlns="http://www.w3.org/2000/svg">
<path opacity="0.3" d="M20.0375 7C21.8695 7 23.2956 6.99999 24.4453 7.07844C25.6119 7.15803 26.5669 7.32172 27.4442 7.68508C29.6494 8.59853 31.4015 10.3506 32.3149 12.5558C32.6783 13.4331 32.842 14.3881 32.9216 15.5547C33 16.7044 33 18.1304 33 19.9624V20.0376C33 21.8696 33 23.2956 32.9216 24.4453C32.842 25.6119 32.6783 26.5669 32.3149 27.4442C31.4015 29.6494 29.6494 31.4015 27.4442 32.3149C26.5669 32.6783 25.6119 32.842 24.4453 32.9216C23.2956 33 21.8696 33 20.0376 33H19.9624C18.1304 33 16.7044 33 15.5547 32.9216C14.3881 32.842 13.4331 32.6783 12.5558 32.3149C10.3506 31.4015 8.59853 29.6494 7.68508 27.4442C7.32172 26.5669 7.15803 25.6119 7.07844 24.4453C6.99999 23.2956 7 21.8695 7 20.0375V19.9625C7 18.1305 6.99999 16.7044 7.07844 15.5547C7.15803 14.3881 7.32172 13.4331 7.68508 12.5558C8.59853 10.3506 10.3506 8.59853 12.5558 7.68508C13.4331 7.32172 14.3881 7.15803 15.5547 7.07844C16.7044 6.99999 18.1305 7 19.9625 7H20.0375Z" fill="black"/>
<path d="M20 13C20.5523 13 21 13.4477 21 14V19H26C26.5523 19 27 19.4477 27 20C27 20.5523 26.5523 21 26 21H21V26C21 26.5523 20.5523 27 20 27C19.4477 27 19 26.5523 19 26V21H14C13.4477 21 13 20.5523 13 20C13 19.4477 13.4477 19 14 19H19V14C19 13.4477 19.4477 13 20 13Z" fill="black"/>
</svg>
