<svg width="40" height="40" viewBox="0 0 40 40" fill="none" xmlns="http://www.w3.org/2000/svg">
<path opacity="0.3" d="M7 20C7 12.8203 12.8203 7 20 7C27.1797 7 33 12.8203 33 20C33 27.1797 27.1797 33 20 33C12.8203 33 7 27.1797 7 20Z" fill="black"/>
<path d="M20 13C20.5523 13 21 13.4477 21 14V19H26C26.5523 19 27 19.4477 27 20C27 20.5523 26.5523 21 26 21H21V26C21 26.5523 20.5523 27 20 27C19.4477 27 19 26.5523 19 26V21H14C13.4477 21 13 20.5523 13 20C13 19.4477 13.4477 19 14 19H19V14C19 13.4477 19.4477 13 20 13Z" fill="black"/>
</svg>
