<svg width="40" height="40" viewBox="0 0 40 40" fill="none" xmlns="http://www.w3.org/2000/svg">
<path opacity="0.3" fill-rule="evenodd" clip-rule="evenodd" d="M12.4257 14.2561C11.5025 13.3328 9.94873 13.5358 9.55066 14.7794C9.19324 15.8959 9 17.0884 9 18.326C9 19.7718 9.53221 21.2673 10.2775 22.6718C11.0295 24.0888 12.0425 25.4945 13.1034 26.7813C15.2255 29.3551 17.6165 31.5444 18.7247 32.5164C19.4598 33.1612 20.5402 33.1612 21.2753 32.5164C22.0112 31.871 23.3127 30.6888 24.7255 29.2137C25.4565 28.4504 25.4174 27.2477 24.6701 26.5004L12.4257 14.2561Z" fill="black"/>
<path d="M31 18.326C31 12.0897 26.0936 7 20 7C17.1315 7 14.5261 8.12785 12.5717 9.97224C11.8398 10.663 11.9241 11.8088 12.6358 12.5204L25.3399 25.2245C26.1744 26.059 27.5544 25.9983 28.2403 25.0378C28.7919 24.2656 29.2986 23.4705 29.7225 22.6718C30.4678 21.2673 31 19.7718 31 18.326Z" fill="black"/>
</svg>
