<svg width="40" height="40" viewBox="0 0 40 40" fill="none" xmlns="http://www.w3.org/2000/svg">
<path opacity="0.3" d="M20 7.00002L19.8084 7.00001C17.2008 6.99981 15.6847 6.9997 14.4118 7.34076C10.9609 8.26543 8.26543 10.9609 7.34076 14.4118C6.9997 15.6847 6.99981 17.2008 7.00001 19.8084L7.00002 20L7.00001 20.1916C6.99981 22.7992 6.9997 24.3153 7.34076 25.5882C8.26543 29.0391 10.9609 31.7346 14.4118 32.6593C15.6847 33.0003 17.2008 33.0002 19.8084 33L20 33L20.1916 33C22.7992 33.0002 24.3153 33.0003 25.5882 32.6593C29.0391 31.7346 31.7346 29.0391 32.6593 25.5882C33.0003 24.3153 33.0002 22.7992 33 20.1916L33 20L33 19.8084C33.0002 17.2008 33.0003 15.6847 32.6593 14.4118C31.7346 10.9609 29.0391 8.26543 25.5882 7.34076C24.3153 6.9997 22.7992 6.99981 20.1916 7.00001L20 7.00002Z" fill="black"/>
<path d="M20 13C20.5523 13 21 13.4477 21 14V27C21 27.5523 20.5523 28 20 28C19.4477 28 19 27.5523 19 27V14C19 13.4477 19.4477 13 20 13Z" fill="black"/>
<path d="M25 17C25.5523 17 26 17.4477 26 18V27C26 27.5523 25.5523 28 25 28C24.4477 28 24 27.5523 24 27V18C24 17.4477 24.4477 17 25 17Z" fill="black"/>
<path d="M15 20C15.5523 20 16 20.4477 16 21V27C16 27.5523 15.5523 28 15 28C14.4477 28 14 27.5523 14 27V21C14 20.4477 14.4477 20 15 20Z" fill="black"/>
</svg>
