<svg width="40" height="40" viewBox="0 0 40 40" fill="none" xmlns="http://www.w3.org/2000/svg">
<g opacity="0.3">
<path fill-rule="evenodd" clip-rule="evenodd" d="M14.9796 20.9215C14.4685 20.8855 13.8428 20.8855 13.0811 20.8855H13.0071C12.2453 20.8855 11.6197 20.8855 11.1086 20.9215C10.5794 20.9588 10.095 21.0384 9.63195 21.2372C8.60581 21.6778 7.789 22.4972 7.3502 23.5246C7.15231 23.9879 7.07304 24.4726 7.03589 25.0027C6.99998 25.5149 6.99999 26.1419 7 26.9059V26.9797C6.99999 27.7436 6.99998 28.3706 7.03589 28.8828C7.07304 29.4129 7.15231 29.8977 7.3502 30.361C7.789 31.3884 8.60581 32.2078 9.63195 32.6483C10.095 32.8471 10.5794 32.9267 11.1086 32.964C11.6197 33 12.2453 33 13.007 33H13.0812C13.8429 33 14.4685 33 14.9796 32.964C15.5088 32.9267 15.9932 32.8471 16.4562 32.6483C17.4824 32.2078 18.2992 31.3884 18.738 30.361C18.9359 29.8977 19.0151 29.4129 19.0523 28.8828C19.0882 28.3706 19.0882 27.7436 19.0882 26.9797V26.9059C19.0882 26.1419 19.0882 25.5149 19.0523 25.0027C19.0151 24.4726 18.9359 23.9879 18.738 23.5246C18.2992 22.4972 17.4824 21.6778 16.4562 21.2372C15.9932 21.0384 15.5088 20.9588 14.9796 20.9215ZM12.524 24.984C11.6982 24.984 11.0288 25.6535 11.0288 26.4792V27.476C11.0288 28.3018 11.6982 28.9712 12.524 28.9712H13.5208C14.3465 28.9712 15.016 28.3018 15.016 27.476V26.4792C15.016 25.6535 14.3465 24.984 13.5208 24.984H12.524Z" fill="black"/>
<path fill-rule="evenodd" clip-rule="evenodd" d="M28.8914 7.036C28.3803 6.99998 27.7547 6.99999 26.993 7H26.9188C26.1571 6.99999 25.5315 6.99998 25.0204 7.036C24.4912 7.07329 24.0068 7.15287 23.5438 7.35167C22.5176 7.79225 21.7008 8.61162 21.262 9.63902C21.0641 10.1023 20.9849 10.5871 20.9477 11.1172C20.9118 11.6294 20.9118 12.2564 20.9118 13.0204V13.0941C20.9118 13.8581 20.9118 14.4851 20.9477 14.9973C20.9849 15.5274 21.0641 16.0121 21.262 16.4754C21.7008 17.5028 22.5176 18.3222 23.5438 18.7628C24.0068 18.9616 24.4912 19.0412 25.0204 19.0785C25.5315 19.1145 26.1572 19.1145 26.9189 19.1145H26.9929C27.7547 19.1145 28.3803 19.1145 28.8914 19.0785C29.4206 19.0412 29.905 18.9616 30.3681 18.7628C31.3942 18.3222 32.211 17.5028 32.6498 16.4754C32.8477 16.0121 32.927 15.5274 32.9641 14.9973C33 14.485 33 13.858 33 13.0941V13.0204C33 12.2564 33 11.6294 32.9641 11.1172C32.927 10.5871 32.8477 10.1023 32.6498 9.63902C32.211 8.61162 31.3942 7.79225 30.3681 7.35167C29.905 7.15287 29.4206 7.07329 28.8914 7.036ZM26.4792 11.0288C25.6535 11.0288 24.984 11.6982 24.984 12.524V13.5208C24.984 14.3465 25.6535 15.016 26.4792 15.016H27.476C28.3018 15.016 28.9712 14.3465 28.9712 13.5208V12.524C28.9712 11.6982 28.3018 11.0288 27.476 11.0288H26.4792Z" fill="black"/>
</g>
<path fill-rule="evenodd" clip-rule="evenodd" d="M14.9796 7.036C14.4685 6.99998 13.8429 6.99999 13.0812 7H13.007C12.2453 6.99999 11.6197 6.99998 11.1086 7.036C10.5794 7.07329 10.095 7.15287 9.63195 7.35167C8.60581 7.79224 7.789 8.61162 7.3502 9.63902C7.15231 10.1023 7.07304 10.5871 7.03589 11.1172C6.99998 11.6294 6.99999 12.2564 7 13.0203V13.0941C6.99999 13.8581 6.99998 14.4851 7.03589 14.9973C7.07304 15.5274 7.15231 16.0121 7.3502 16.4754C7.789 17.5028 8.60581 18.3222 9.63195 18.7628C10.095 18.9616 10.5794 19.0412 11.1086 19.0785C11.6197 19.1145 12.2453 19.1145 13.0071 19.1145H13.0811C13.8428 19.1145 14.4685 19.1145 14.9796 19.0785C15.5088 19.0412 15.9932 18.9616 16.4562 18.7628C17.4824 18.3222 18.2992 17.5028 18.738 16.4754C18.9359 16.0121 19.0151 15.5274 19.0523 14.9973C19.0882 14.4851 19.0882 13.8581 19.0882 13.0941V13.0204C19.0882 12.2564 19.0882 11.6294 19.0523 11.1172C19.0151 10.5871 18.9359 10.1023 18.738 9.63902C18.2992 8.61162 17.4824 7.79225 16.4562 7.35167C15.9932 7.15287 15.5088 7.07329 14.9796 7.036ZM12.524 11.0288C11.6982 11.0288 11.0288 11.6982 11.0288 12.524V13.5208C11.0288 14.3465 11.6982 15.016 12.524 15.016H13.5208C14.3465 15.016 15.016 14.3465 15.016 13.5208V12.524C15.016 11.6982 14.3465 11.0288 13.5208 11.0288H12.524Z" fill="black"/>
<path d="M20.9968 22.492C20.9968 21.6663 21.6663 20.9968 22.492 20.9968H23.4888C24.3146 20.9968 24.984 21.6663 24.984 22.492V23.4888C24.984 24.3146 24.3146 24.984 23.4888 24.984H22.492C21.6663 24.984 20.9968 24.3146 20.9968 23.4888V22.492Z" fill="black"/>
<path d="M32.9585 22.492C32.9585 21.6663 32.2891 20.9968 31.4633 20.9968H30.4665C29.6407 20.9968 28.9713 21.6663 28.9713 22.492V23.4888C28.9713 24.3146 29.6407 24.984 30.4665 24.984H31.4633C32.2891 24.984 32.9585 24.3146 32.9585 23.4888V22.492Z" fill="black"/>
<path d="M24.984 26.4793C24.984 25.6535 25.6535 24.984 26.4793 24.984H27.4761C28.3018 24.984 28.9713 25.6535 28.9713 26.4793V27.4761C28.9713 28.3018 28.3018 28.9713 27.4761 28.9713H26.4793C25.6535 28.9713 24.984 28.3018 24.984 27.4761V26.4793Z" fill="black"/>
<path d="M28.9713 30.4665C28.9713 29.6407 29.6407 28.9713 30.4665 28.9713H31.4633C32.2891 28.9713 32.9585 29.6407 32.9585 30.4665V31.4633C32.9585 32.2891 32.2891 32.9585 31.4633 32.9585H30.4665C29.6407 32.9585 28.9713 32.2891 28.9713 31.4633V30.4665Z" fill="black"/>
<path d="M24.984 30.4665C24.984 29.6407 24.3146 28.9713 23.4888 28.9713H22.492C21.6663 28.9713 20.9968 29.6407 20.9968 30.4665V31.4633C20.9968 32.2891 21.6663 32.9585 22.492 32.9585H23.4888C24.3146 32.9585 24.984 32.2891 24.984 31.4633V30.4665Z" fill="black"/>
</svg>
