<svg width="40" height="40" viewBox="0 0 40 40" fill="none" xmlns="http://www.w3.org/2000/svg">
<path opacity="0.3" d="M12.9218 32.4572C14.4131 33 16.2754 33 20 33C23.7246 33 25.5869 33 27.0782 32.4572C29.5781 31.5473 31.5473 29.5781 32.4572 27.0782C33 25.5869 33 23.7246 33 20C33 16.2754 33 14.4131 32.4572 12.9218C31.5473 10.4219 29.5781 8.45265 27.0782 7.54277C25.5869 7 23.7246 7 20 7C16.2754 7 14.4131 7 12.9218 7.54277C10.4219 8.45265 8.45265 10.4219 7.54277 12.9218C7 14.4131 7 16.2754 7 20C7 23.7246 7 25.5869 7.54277 27.0782C8.45265 29.5781 10.4219 31.5473 12.9218 32.4572Z" fill="black"/>
<path d="M15.3846 11.5385C13.2604 11.5385 11.5385 13.2604 11.5385 15.3846V16.9231C11.5385 17.3479 11.1941 17.6923 10.7692 17.6923C10.3444 17.6923 10 17.3479 10 16.9231V15.3846C10 12.4108 12.4108 10 15.3846 10H17.6923C18.1171 10 18.4615 10.3444 18.4615 10.7692C18.4615 11.1941 18.1171 11.5385 17.6923 11.5385H15.3846Z" fill="black"/>
<path d="M22.3077 10.7692C22.3077 10.3444 22.6521 10 23.0769 10H24.6154C27.5892 10 30 12.4108 30 15.3846V16.9231C30 17.3479 29.6556 17.6923 29.2308 17.6923C28.8059 17.6923 28.4615 17.3479 28.4615 16.9231V15.3846C28.4615 13.2604 26.7396 11.5385 24.6154 11.5385H23.0769C22.6521 11.5385 22.3077 11.1941 22.3077 10.7692Z" fill="black"/>
<path d="M10.7692 22.3077C11.1941 22.3077 11.5385 22.6521 11.5385 23.0769V24.6154C11.5385 26.7396 13.2604 28.4615 15.3846 28.4615H16.9231C17.3479 28.4615 17.6923 28.8059 17.6923 29.2308C17.6923 29.6556 17.3479 30 16.9231 30H15.3846C12.4108 30 10 27.5892 10 24.6154V23.0769C10 22.6521 10.3444 22.3077 10.7692 22.3077Z" fill="black"/>
<path d="M29.2308 22.3077C29.6556 22.3077 30 22.6521 30 23.0769V24.6154C30 27.5892 27.5892 30 24.6154 30H23.0769C22.6521 30 22.3077 29.6556 22.3077 29.2308C22.3077 28.8059 22.6521 28.4615 23.0769 28.4615H24.6154C26.7396 28.4615 28.4615 26.7396 28.4615 24.6154V23.0769C28.4615 22.6521 28.8059 22.3077 29.2308 22.3077Z" fill="black"/>
<path d="M22 21.5385C21.7451 21.5385 21.5385 21.7451 21.5385 22V22.6154C21.5385 22.8703 21.7451 23.0769 22 23.0769H22.6154C22.8703 23.0769 23.0769 22.8703 23.0769 22.6154V22C23.0769 21.7451 22.8703 21.5385 22.6154 21.5385H22Z" fill="black"/>
<path d="M23.5385 23.0769C23.2836 23.0769 23.0769 23.2836 23.0769 23.5385V24.1538C23.0769 24.4087 23.2836 24.6154 23.5385 24.6154H24.1538C24.4087 24.6154 24.6154 24.4087 24.6154 24.1538V23.5385C24.6154 23.2836 24.4087 23.0769 24.1538 23.0769H23.5385Z" fill="black"/>
<path d="M22 24.6154C21.7451 24.6154 21.5385 24.822 21.5385 25.0769V25.6923C21.5385 25.9472 21.7451 26.1538 22 26.1538H22.6154C22.8703 26.1538 23.0769 25.9472 23.0769 25.6923V25.0769C23.0769 24.822 22.8703 24.6154 22.6154 24.6154H22Z" fill="black"/>
<path d="M25.0769 24.6154C24.822 24.6154 24.6154 24.822 24.6154 25.0769V25.6923C24.6154 25.9472 24.822 26.1538 25.0769 26.1538H25.6923C25.9472 26.1538 26.1538 25.9472 26.1538 25.6923V25.0769C26.1538 24.822 25.9472 24.6154 25.6923 24.6154H25.0769Z" fill="black"/>
<path d="M25.0769 21.5385C24.822 21.5385 24.6154 21.7451 24.6154 22V22.6154C24.6154 22.8703 24.822 23.0769 25.0769 23.0769H25.6923C25.9472 23.0769 26.1538 22.8703 26.1538 22.6154V22C26.1538 21.7451 25.9472 21.5385 25.6923 21.5385H25.0769Z" fill="black"/>
<path fill-rule="evenodd" clip-rule="evenodd" d="M23.0769 13.0769C21.8024 13.0769 20.7692 14.1101 20.7692 15.3846V16.9231C20.7692 18.1976 21.8024 19.2308 23.0769 19.2308H24.6154C25.8899 19.2308 26.9231 18.1976 26.9231 16.9231V15.3846C26.9231 14.1101 25.8899 13.0769 24.6154 13.0769H23.0769ZM23.5385 15.3846C23.2836 15.3846 23.0769 15.5913 23.0769 15.8462V16.4615C23.0769 16.7164 23.2836 16.9231 23.5385 16.9231H24.1538C24.4087 16.9231 24.6154 16.7164 24.6154 16.4615V15.8462C24.6154 15.5913 24.4087 15.3846 24.1538 15.3846H23.5385Z" fill="black"/>
<path fill-rule="evenodd" clip-rule="evenodd" d="M15.3846 13.0769C14.1101 13.0769 13.0769 14.1101 13.0769 15.3846V16.9231C13.0769 18.1976 14.1101 19.2308 15.3846 19.2308H16.9231C18.1976 19.2308 19.2308 18.1976 19.2308 16.9231V15.3846C19.2308 14.1101 18.1976 13.0769 16.9231 13.0769H15.3846ZM15.8462 15.3846C15.5913 15.3846 15.3846 15.5913 15.3846 15.8462V16.4615C15.3846 16.7164 15.5913 16.9231 15.8462 16.9231H16.4615C16.7164 16.9231 16.9231 16.7164 16.9231 16.4615V15.8462C16.9231 15.5913 16.7164 15.3846 16.4615 15.3846H15.8462Z" fill="black"/>
<path fill-rule="evenodd" clip-rule="evenodd" d="M15.3846 20.7692C14.1101 20.7692 13.0769 21.8024 13.0769 23.0769V24.6154C13.0769 25.8899 14.1101 26.9231 15.3846 26.9231H16.9231C18.1976 26.9231 19.2308 25.8899 19.2308 24.6154V23.0769C19.2308 21.8024 18.1976 20.7692 16.9231 20.7692H15.3846ZM15.8462 23.0769C15.5913 23.0769 15.3846 23.2836 15.3846 23.5385V24.1538C15.3846 24.4087 15.5913 24.6154 15.8462 24.6154H16.4615C16.7164 24.6154 16.9231 24.4087 16.9231 24.1538V23.5385C16.9231 23.2836 16.7164 23.0769 16.4615 23.0769H15.8462Z" fill="black"/>
</svg>
