<svg width="40" height="40" viewBox="0 0 40 40" fill="none" xmlns="http://www.w3.org/2000/svg">
<path opacity="0.3" fill-rule="evenodd" clip-rule="evenodd" d="M14.8571 11C12.5884 11 10.7143 12.8833 10.7143 15.25V17H13.0263H26.9737H29.2857V15.25C29.2857 12.8833 27.4116 11 25.1429 11H23.4286C22.8763 11 22.4286 10.5523 22.4286 10C22.4286 9.44772 22.8763 9 23.4286 9H25.1429C28.5548 9 31.2857 11.8178 31.2857 15.25V17H32C32.5523 17 33 17.4477 33 18C33 18.5523 32.5523 19 32 19H8C7.44772 19 7 18.5523 7 18C7 17.4477 7.44772 17 8 17H8.71429V15.25C8.71429 11.8178 11.4452 9 14.8571 9H17.4286C17.9809 9 18.4286 9.44772 18.4286 10C18.4286 10.5523 17.9809 11 17.4286 11H14.8571ZM9.71429 23C10.2666 23 10.7143 23.4477 10.7143 24V25.75C10.7143 28.1167 12.5884 30 14.8571 30H16.5714C17.1237 30 17.5714 30.4477 17.5714 31C17.5714 31.5523 17.1237 32 16.5714 32H14.8571C11.4452 32 8.71429 29.1822 8.71429 25.75V24C8.71429 23.4477 9.162 23 9.71429 23ZM30.2857 23C30.838 23 31.2857 23.4477 31.2857 24V25.75C31.2857 29.1822 28.5548 32 25.1429 32H23.4286C22.8763 32 22.4286 31.5523 22.4286 31C22.4286 30.4477 22.8763 30 23.4286 30H25.1429C27.4116 30 29.2857 28.1167 29.2857 25.75V24C29.2857 23.4477 29.7334 23 30.2857 23Z" fill="black"/>
<path d="M15.2 20L15.1594 20L15.1052 19.9999C14.9757 20 14.8266 20.0025 14.6871 20.0246C13.8313 20.1602 13.1601 20.8313 13.0246 21.6871C12.9994 21.8465 12.9997 22.0185 12.9999 22.1594L13 22.2V22.2413C13 23.0463 13 23.7106 13.0442 24.2518C13.0901 24.8139 13.1887 25.3306 13.436 25.816C13.8194 26.5686 14.4314 27.1805 15.184 27.564C15.6694 27.8113 16.1861 27.9099 16.7482 27.9558C17.2893 28 17.9537 28 18.7587 28H21.2413C22.0463 28 22.7106 28 23.2518 27.9558C23.8139 27.9099 24.3306 27.8113 24.8159 27.564C25.5686 27.1805 26.1805 26.5686 26.564 25.816C26.8113 25.3306 26.9099 24.8139 26.9558 24.2518C27 23.7106 27 23.0463 27 22.2413V22.2L27 22.1594C27.0003 22.0185 27.0006 21.8465 26.9754 21.6871C26.8398 20.8313 26.1686 20.1602 25.3128 20.0246C25.1534 19.9994 24.9815 19.9997 24.8406 20L24.8 20H15.2Z" fill="black"/>
<path d="M13.436 15.184C13.1642 15.7175 13.0645 16.3147 13.0263 17H26.9737C26.9354 16.3147 26.8358 15.7175 26.564 15.184C26.1805 14.4314 25.5686 13.8195 24.8159 13.436C24.3306 13.1887 23.8139 13.0901 23.2518 13.0442C22.7106 13 22.0463 13 21.2413 13H18.7587C17.9537 13 17.2894 13 16.7482 13.0442C16.1861 13.0901 15.6694 13.1887 15.184 13.436C14.4314 13.8195 13.8194 14.4314 13.436 15.184Z" fill="black"/>
</svg>
