<svg width="40" height="40" viewBox="0 0 40 40" fill="none" xmlns="http://www.w3.org/2000/svg">
<path opacity="0.3" d="M11.9223 26.9035C9.12289 26.3958 7 23.9458 7 21C7 18.0934 9.0658 15.6715 11.8087 15.1185C11.9672 15.0865 12.0668 14.9577 12.0805 14.8618C12.6337 10.9823 15.9677 8 20 8C24.0323 8 27.3663 10.9823 27.9195 14.8618C27.9332 14.9577 28.0328 15.0865 28.1913 15.1185C30.9342 15.6715 33 18.0934 33 21C33 23.9458 30.8771 26.3958 28.0777 26.9035C28.0234 26.9133 27.9681 26.9177 27.9129 26.9177H12.0871C12.0319 26.9177 11.9766 26.9133 11.9223 26.9035Z" fill="black"/>
<path d="M14 24C14 23.4477 14.4477 23 15 23C15.5523 23 16 23.4477 16 24V28C16 28.5523 15.5523 29 15 29C14.4477 29 14 28.5523 14 28V24Z" fill="black"/>
<path d="M19 26C19 25.4477 19.4477 25 20 25C20.5523 25 21 25.4477 21 26V29C21 29.5523 20.5523 30 20 30C19.4477 30 19 29.5523 19 29V26Z" fill="black"/>
<path d="M24 25C24 24.4477 24.4477 24 25 24C25.5523 24 26 24.4477 26 25V27C26 27.5523 25.5523 28 25 28C24.4477 28 24 27.5523 24 27V25Z" fill="black"/>
</svg>
