<svg width="40" height="40" viewBox="0 0 40 40" fill="none" xmlns="http://www.w3.org/2000/svg">
<path opacity="0.3" fill-rule="evenodd" clip-rule="evenodd" d="M7 20C7 16.2754 7 14.4131 7.54277 12.9218C8.45265 10.4219 10.4219 8.45265 12.9218 7.54277C14.4131 7 16.2754 7 20 7C23.7246 7 25.5869 7 27.0782 7.54277C29.5781 8.45265 31.5473 10.4219 32.4572 12.9218C33 14.4131 33 16.2754 33 20C33 23.7246 33 25.5869 32.4572 27.0782C31.5473 29.5781 29.5781 31.5473 27.0782 32.4572C25.5869 33 23.7246 33 20 33C16.2754 33 14.4131 33 12.9218 32.4572C10.4219 31.5473 8.45265 29.5781 7.54277 27.0782C7 25.5869 7 23.7246 7 20Z" fill="black"/>
<path d="M25.3044 16.3109C25.5897 15.9882 25.5636 15.4914 25.2462 15.2013C24.9288 14.9113 24.4402 14.9378 24.1549 15.2605L16.396 24.0388L13.3475 20.5897C13.0622 20.267 12.5736 20.2405 12.2562 20.5305C11.9388 20.8206 11.9127 21.3174 12.198 21.6401L15.8213 25.7395C15.9679 25.9053 16.1768 26 16.396 26C16.6153 26 16.8242 25.9053 16.9708 25.7395L25.3044 16.3109Z" fill="black"/>
<path d="M28.7969 16.3166C29.0853 15.9968 29.064 15.4998 28.7494 15.2065C28.4348 14.9133 27.946 14.9349 27.6576 15.2548L19.1577 24.6834C18.8693 25.0032 18.8905 25.5003 19.2051 25.7935C19.5197 26.0867 20.0085 26.0651 20.2969 25.7452L28.7969 16.3166Z" fill="black"/>
</svg>
