<svg width="40" height="40" viewBox="0 0 40 40" fill="none" xmlns="http://www.w3.org/2000/svg">
<path opacity="0.3" d="M23.351 7.05941C22.4801 6.99999 21.4035 7 20.0368 7H19.9632C18.5965 7 17.5199 6.99999 16.649 7.05941C15.7613 7.11997 15.0147 7.2456 14.3212 7.53284C12.606 8.2433 11.2433 9.60602 10.5328 11.3212C10.2456 12.0147 10.12 12.7613 10.0594 13.649C9.99999 14.5199 10 15.5965 10 16.9632V23.0368C10 24.4035 9.99999 25.4801 10.0594 26.351C10.12 27.2387 10.2456 27.9853 10.5328 28.6788C11.2433 30.394 12.606 31.7567 14.3212 32.4672C15.0147 32.7544 15.7613 32.88 16.649 32.9406C17.5199 33 18.5965 33 19.9631 33H20.0369C21.4035 33 22.4801 33 23.351 32.9406C24.2387 32.88 24.9853 32.7544 25.6788 32.4672C27.394 31.7567 28.7567 30.394 29.4672 28.6788C29.7544 27.9853 29.88 27.2387 29.9406 26.351C30 25.4801 30 24.4035 30 23.0369V16.9631C30 15.5965 30 14.5199 29.9406 13.649C29.88 12.7613 29.7544 12.0147 29.4672 11.3212C28.7567 9.60602 27.394 8.2433 25.6788 7.53284C24.9853 7.2456 24.2387 7.11997 23.351 7.05941Z" fill="black"/>
<path d="M16 28C16 27.4477 16.4477 27 17 27H23C23.5523 27 24 27.4477 24 28C24 28.5523 23.5523 29 23 29H17C16.4477 29 16 28.5523 16 28Z" fill="black"/>
<path d="M15.75 13.75C16.4404 13.75 17 13.1904 17 12.5C17 11.8096 16.4404 11.25 15.75 11.25C15.0596 11.25 14.5 11.8096 14.5 12.5C14.5 13.1904 15.0596 13.75 15.75 13.75Z" fill="black"/>
</svg>
