<svg width="24" height="24" viewBox="0 0 24 24" fill="none" xmlns="http://www.w3.org/2000/svg">
<path fill-rule="evenodd" clip-rule="evenodd" d="M23 12L20 16L17 12C23.7705 12 17.2928 12 23 12ZM1 12L3.9999 8L6.99991 12C1.47745 12 7.39999 12 1 12Z" fill="black"/>
<path fill-rule="evenodd" clip-rule="evenodd" d="M12 5C10.7233 5 9.52931 5.34086 8.50073 5.93586C8.19358 6.11354 7.90105 6.31396 7.62547 6.53488C7.19455 6.88031 6.56519 6.81102 6.21975 6.3801C5.87431 5.94918 5.94361 5.31982 6.37453 4.97438C6.7284 4.69071 7.10428 4.43314 7.49927 4.20465C8.82407 3.4383 10.3624 3 12 3C16.9706 3 21 7.02944 21 12H19C19 8.13401 15.866 5 12 5ZM3 12H5C5 15.866 8.13401 19 12 19C13.6564 19 15.1759 18.4259 16.3745 17.4651C16.8054 17.1197 17.4348 17.189 17.7802 17.6199C18.1257 18.0508 18.0564 18.6802 17.6255 19.0256C16.0849 20.2606 14.1274 21 12 21C7.02944 21 3 16.9706 3 12Z" fill="black" fill-opacity="0.4"/>
</svg>
