<svg width="40" height="40" viewBox="0 0 40 40" fill="none" xmlns="http://www.w3.org/2000/svg">
<path opacity="0.3" fill-rule="evenodd" clip-rule="evenodd" d="M7 20C7 16.2754 7 14.4131 7.54277 12.9218C8.45265 10.4219 10.4219 8.45265 12.9218 7.54277C14.4131 7 16.2754 7 20 7C23.7246 7 25.5869 7 27.0782 7.54277C29.5781 8.45265 31.5473 10.4219 32.4572 12.9218C33 14.4131 33 16.2754 33 20C33 23.7246 33 25.5869 32.4572 27.0782C31.5473 29.5781 29.5781 31.5473 27.0782 32.4572C25.5869 33 23.7246 33 20 33C16.2754 33 14.4131 33 12.9218 32.4572C10.4219 31.5473 8.45265 29.5781 7.54277 27.0782C7 25.5869 7 23.7246 7 20Z" fill="black"/>
<path d="M22.0769 15.4783L23.1154 15.4783C25.6007 15.4783 27.6154 17.5027 27.6154 20C27.6154 22.4973 25.6007 24.5217 23.1154 24.5217L22.2176 24.5217L23.2198 23.6586C23.5101 23.4086 23.5437 22.9694 23.2949 22.6777C23.046 22.386 22.609 22.3522 22.3187 22.6022L19.8956 24.6892C19.7422 24.8214 19.6538 25.0143 19.6538 25.2174C19.6538 25.4205 19.7422 25.6134 19.8956 25.7456L22.3187 27.8325C22.609 28.0825 23.046 28.0488 23.2949 27.7571C23.5437 27.4654 23.5101 27.0262 23.2198 26.7762L22.2176 25.913L23.1154 25.913C26.3654 25.913 29 23.2657 29 20C29 16.7343 26.3654 14.087 23.1154 14.087L22.0769 14.087C21.6946 14.087 21.3846 14.3984 21.3846 14.7826C21.3846 15.1668 21.6946 15.4783 22.0769 15.4783Z" fill="black"/>
<path d="M16.989 12.1675C16.6987 11.9175 16.2617 11.9512 16.0128 12.2429C15.764 12.5346 15.7976 12.9738 16.0879 13.2238L17.09 14.087L16.8846 14.087C13.6346 14.087 11 16.7343 11 20C11 23.2657 13.6346 25.913 16.8846 25.913H17.9231C18.3054 25.913 18.6154 25.6016 18.6154 25.2174C18.6154 24.8332 18.3054 24.5217 17.9231 24.5217H16.8846C14.3993 24.5217 12.3846 22.4973 12.3846 20C12.3846 17.5027 14.3993 15.4783 16.8846 15.4783L17.0901 15.4783L16.0879 16.3414C15.7976 16.5914 15.764 17.0306 16.0128 17.3223C16.2617 17.614 16.6987 17.6478 16.989 17.3977L19.4121 15.3108C19.5655 15.1786 19.6538 14.9857 19.6538 14.7826C19.6538 14.5795 19.5655 14.3866 19.4121 14.2544L16.989 12.1675Z" fill="black"/>
</svg>
