<svg width="40" height="40" viewBox="0 0 40 40" fill="none" xmlns="http://www.w3.org/2000/svg">
<g opacity="0.3">
<path fill-rule="evenodd" clip-rule="evenodd" d="M20 7C12.8203 7 7 12.8203 7 20C7 27.1797 12.8203 33 20 33C27.1797 33 33 27.1797 33 20C33 12.8203 27.1797 7 20 7ZM12 20C12 19.4477 12.4477 19 13 19H27C27.5523 19 28 19.4477 28 20C28 20.5523 27.5523 21 27 21H13C12.4477 21 12 20.5523 12 20Z" fill="black"/>
<path d="M13 19C12.4477 19 12 19.4477 12 20C12 20.5523 12.4477 21 13 21H27C27.5523 21 28 20.5523 28 20C28 19.4477 27.5523 19 27 19H13Z" fill="black"/>
</g>
<path d="M12 20C12 19.4477 12.4477 19 13 19H27C27.5523 19 28 19.4477 28 20C28 20.5523 27.5523 21 27 21H13C12.4477 21 12 20.5523 12 20Z" fill="black"/>
</svg>
