<svg width="40" height="40" viewBox="0 0 40 40" fill="none" xmlns="http://www.w3.org/2000/svg">
<path opacity="0.3" d="M10.8787 27.6776C10.4664 28.0899 9.78707 28.0652 9.44622 27.5921C7.90737 25.4563 7 22.8335 7 20C7 12.8203 12.8203 7 20 7C22.8335 7 25.4563 7.90737 27.5921 9.44622C28.0652 9.78707 28.0899 10.4664 27.6776 10.8787L10.8787 27.6776Z" fill="black"/>
<path d="M29.0966 12.2882C29.508 11.8768 30.1855 11.9004 30.5273 12.3713C32.0822 14.5136 33 17.1502 33 20C33 27.1797 27.1797 33 20 33C17.1502 33 14.5136 32.0822 12.3713 30.5273C11.9004 30.1855 11.8768 29.508 12.2882 29.0966L29.0966 12.2882Z" fill="black"/>
</svg>
