<svg width="40" height="40" viewBox="0 0 40 40" fill="none" xmlns="http://www.w3.org/2000/svg">
<path d="M24.4453 7.07844C23.2956 6.99999 21.8695 7 20.0375 7H19.9625C18.1305 7 16.7044 6.99999 15.5547 7.07844C14.3881 7.15803 13.4331 7.32172 12.5558 7.68508C10.3506 8.59853 8.59853 10.3506 7.68508 12.5558C7.32172 13.4331 7.15803 14.3881 7.07844 15.5547C6.99999 16.7044 7 18.1305 7 19.9625V20.0375C7 21.8695 6.99999 23.2956 7.07844 24.4453C7.15803 25.6119 7.32172 26.5669 7.68508 27.4442C7.89741 27.9568 8.15505 28.4449 8.45315 28.9037C8.77293 29.3958 9.45924 29.4239 9.87425 29.0089L10.5234 28.3597L28.1944 10.3958L28.8296 9.76052C29.2511 9.33899 29.214 8.63999 28.7059 8.32828C28.3054 8.08259 27.8838 7.86718 27.4442 7.68508C26.5669 7.32172 25.6119 7.15803 24.4453 7.07844Z" fill="black"/>
<path opacity="0.3" d="M32.9215 15.5547C32.8419 14.3882 32.6783 13.4331 32.3149 12.5559C32.1337 12.1185 31.9195 11.6989 31.6754 11.3001C31.3639 10.7915 30.6645 10.7541 30.2428 11.1759L29.608 11.8107L11.9802 29.7308L11.3587 30.3522C10.9304 30.7805 10.9771 31.4926 11.5017 31.7953C11.8396 31.9903 12.1915 32.1641 12.5558 32.315C13.4331 32.6783 14.3881 32.842 15.5547 32.9216C16.7044 33 18.1304 33 19.9624 33H20.0375C21.8695 33 23.2956 33 24.4453 32.9216C25.6119 32.842 26.5669 32.6783 27.4441 32.315C29.6494 31.4015 31.4015 29.6494 32.3149 27.4442C32.6783 26.5669 32.8419 25.6119 32.9215 24.4454C33 23.2956 33 21.8696 33 20.0376V19.9625C33 18.1305 33 16.7045 32.9215 15.5547Z" fill="black"/>
</svg>
