<svg width="40" height="40" viewBox="0 0 40 40" fill="none" xmlns="http://www.w3.org/2000/svg">
<path opacity="0.3" d="M25.0746 8.10198C22.272 5.29934 17.728 5.29934 14.9254 8.10198L9.10198 13.9254C6.29934 16.728 6.29934 21.272 9.10198 24.0746L14.9254 29.898C17.728 32.7007 22.272 32.7007 25.0746 29.898L30.898 24.0746C33.7007 21.272 33.7007 16.728 30.898 13.9254L25.0746 8.10198Z" fill="black"/>
<path d="M21.6173 16.0761C21.991 15.9214 22.4211 16.0069 22.7071 16.2929L24.7071 18.2929C25.0976 18.6834 25.0976 19.3166 24.7071 19.7071L22.7071 21.7071C22.4211 21.9931 21.991 22.0787 21.6173 21.9239C21.2436 21.7691 21 21.4045 21 21V20H17V20.5C17 21.0523 16.5523 21.5 16 21.5C15.4477 21.5 15 21.0523 15 20.5V20C15 18.8955 15.8954 18 17 18H21V17C21 16.5956 21.2436 16.2309 21.6173 16.0761Z" fill="black"/>
</svg>
