<svg width="40" height="40" viewBox="0 0 40 40" fill="none" xmlns="http://www.w3.org/2000/svg">
<path opacity="0.3" d="M12.9218 32.4572C14.4131 33 16.2754 33 20 33C23.7246 33 25.5869 33 27.0782 32.4572C29.5781 31.5473 31.5473 29.5781 32.4572 27.0782C33 25.5869 33 23.7246 33 20C33 16.2754 33 14.4131 32.4572 12.9218C31.5473 10.4219 29.5781 8.45265 27.0782 7.54277C25.5869 7 23.7246 7 20 7C16.2754 7 14.4131 7 12.9218 7.54277C10.4219 8.45265 8.45265 10.4219 7.54277 12.9218C7 14.4131 7 16.2754 7 20C7 23.7246 7 25.5869 7.54277 27.0782C8.45265 29.5781 10.4219 31.5473 12.9218 32.4572Z" fill="black"/>
<path d="M16.4396 13.3913C14.8689 13.3913 13.5714 14.7014 13.5714 16.3478V17.5652H26.4286V16.3478C26.4286 14.7014 25.1311 13.3913 23.5604 13.3913H22.3736C21.9913 13.3913 21.6813 13.0799 21.6813 12.6957C21.6813 12.3115 21.9913 12 22.3736 12H23.5604C25.9226 12 27.8132 13.9602 27.8132 16.3478V17.5652H28.3077C28.69 17.5652 29 17.8767 29 18.2609C29 18.6451 28.69 18.9565 28.3077 18.9565H11.6923C11.31 18.9565 11 18.6451 11 18.2609C11 17.8767 11.31 17.5652 11.6923 17.5652H12.1868V16.3478C12.1868 13.9602 14.0774 12 16.4396 12H18.2198C18.6021 12 18.9121 12.3115 18.9121 12.6957C18.9121 13.0799 18.6021 13.3913 18.2198 13.3913H16.4396Z" fill="black"/>
<path d="M12.8791 21.7391C13.2615 21.7391 13.5714 22.0506 13.5714 22.4348V23.6522C13.5714 25.2986 14.8689 26.6087 16.4396 26.6087H17.6264C18.0087 26.6087 18.3187 26.9201 18.3187 27.3043C18.3187 27.6885 18.0087 28 17.6264 28H16.4396C14.0774 28 12.1868 26.0398 12.1868 23.6522V22.4348C12.1868 22.0506 12.4968 21.7391 12.8791 21.7391Z" fill="black"/>
<path d="M27.1209 21.7391C27.5032 21.7391 27.8132 22.0506 27.8132 22.4348V23.6522C27.8132 26.0398 25.9226 28 23.5604 28H22.3736C21.9913 28 21.6813 27.6885 21.6813 27.3043C21.6813 26.9201 21.9913 26.6087 22.3736 26.6087H23.5604C25.1311 26.6087 26.4286 25.2986 26.4286 23.6522V22.4348C26.4286 22.0506 26.7385 21.7391 27.1209 21.7391Z" fill="black"/>
</svg>
