<svg width="40" height="40" viewBox="0 0 40 40" fill="none" xmlns="http://www.w3.org/2000/svg">
<path opacity="0.3" d="M12.9218 32.4572C14.4131 33 16.2754 33 20 33C23.7246 33 25.5869 33 27.0782 32.4572C29.5781 31.5473 31.5473 29.5781 32.4572 27.0782C33 25.5869 33 23.7246 33 20C33 16.2754 33 14.4131 32.4572 12.9218C31.5473 10.4219 29.5781 8.45265 27.0782 7.54277C25.5869 7 23.7246 7 20 7C16.2754 7 14.4131 7 12.9218 7.54277C10.4219 8.45265 8.45265 10.4219 7.54277 12.9218C7 14.4131 7 16.2754 7 20C7 23.7246 7 25.5869 7.54277 27.0782C8.45265 29.5781 10.4219 31.5473 12.9218 32.4572Z" fill="black"/>
<path fill-rule="evenodd" clip-rule="evenodd" d="M20.5794 13.8463L20.5424 13.8462H19.4576L19.4206 13.8463C18.7932 13.8522 18.1925 14.1011 17.7446 14.5405L17.7185 14.5664L17.5714 14.7136C17.3311 14.9538 17.0053 15.0888 16.6656 15.0888C15.1085 15.0888 13.8462 16.3511 13.8462 17.9082L13.8462 21.4404L13.8462 21.5644C13.8463 22.1772 13.8484 22.6852 13.8826 23.1032C13.9203 23.5652 14.001 23.9846 14.2009 24.3769C14.5129 24.9893 15.0107 25.4871 15.6231 25.7991C16.0154 25.999 16.4348 26.0797 16.8968 26.1174C17.3427 26.1539 17.891 26.1539 18.5596 26.1538H21.4404C22.109 26.1539 22.6573 26.1539 23.1032 26.1174C23.5652 26.0797 23.9846 25.999 24.3769 25.7991C24.9893 25.4871 25.4871 24.9893 25.7991 24.3769C25.999 23.9846 26.0797 23.5652 26.1174 23.1032C26.1539 22.6573 26.1539 22.109 26.1538 21.4404V17.9082C26.1538 16.3511 24.8915 15.0888 23.3344 15.0888C22.9947 15.0888 22.6689 14.9538 22.4286 14.7136L22.2818 14.5667L22.2554 14.5405C21.8075 14.1011 21.2068 13.8522 20.5794 13.8463ZM19.4603 15.3846L19.4352 15.3847C19.2057 15.3868 18.9859 15.4779 18.8221 15.6386L18.8043 15.6564L18.6592 15.8014C18.1305 16.3302 17.4133 16.6272 16.6656 16.6272C15.9581 16.6272 15.3846 17.2007 15.3846 17.9082V21.4083C15.3846 22.1169 15.3852 22.6021 15.4159 22.9779C15.4459 23.3448 15.5007 23.5392 15.5716 23.6784C15.7362 24.0013 15.9987 24.2638 16.3216 24.4284C16.4608 24.4993 16.6552 24.5541 17.0221 24.5841C17.3979 24.6148 17.8831 24.6154 18.5917 24.6154H21.4083C22.1169 24.6154 22.6021 24.6148 22.9779 24.5841C23.3448 24.5541 23.5392 24.4993 23.6784 24.4284C24.0013 24.2638 24.2638 24.0013 24.4284 23.6784C24.4993 23.5392 24.5541 23.3448 24.5841 22.9779C24.6148 22.6021 24.6154 22.1169 24.6154 21.4083V17.9082C24.6154 17.2007 24.0419 16.6272 23.3344 16.6272C22.5867 16.6272 21.8695 16.3302 21.3408 15.8014L21.1957 15.6564L21.1779 15.6386C21.0141 15.4779 20.7943 15.3868 20.5648 15.3847L20.5397 15.3846H19.4603Z" fill="black"/>
<path fill-rule="evenodd" clip-rule="evenodd" d="M20 17.574C18.4314 17.574 17.1598 18.8456 17.1598 20.4142C17.1598 21.9828 18.4314 23.2544 20 23.2544C21.5686 23.2544 22.8402 21.9828 22.8402 20.4142C22.8402 18.8456 21.5686 17.574 20 17.574ZM20 19.1124C19.281 19.1124 18.6982 19.6952 18.6982 20.4142C18.6982 21.1332 19.281 21.716 20 21.716C20.719 21.716 21.3018 21.1332 21.3018 20.4142C21.3018 19.6952 20.719 19.1124 20 19.1124Z" fill="black"/>
<path d="M11.5385 15.3846C11.5385 13.2604 13.2604 11.5385 15.3846 11.5385H17.6923C18.1171 11.5385 18.4615 11.1941 18.4615 10.7692C18.4615 10.3444 18.1171 10 17.6923 10H15.3846C12.4108 10 10 12.4108 10 15.3846V16.9231C10 17.3479 10.3444 17.6923 10.7692 17.6923C11.1941 17.6923 11.5385 17.3479 11.5385 16.9231V15.3846Z" fill="black"/>
<path d="M11.5385 23.0769C11.5385 22.6521 11.1941 22.3077 10.7692 22.3077C10.3444 22.3077 10 22.6521 10 23.0769V24.6154C10 27.5892 12.4108 30 15.3846 30H16.9231C17.3479 30 17.6923 29.6556 17.6923 29.2308C17.6923 28.8059 17.3479 28.4615 16.9231 28.4615H15.3846C13.2604 28.4615 11.5385 26.7396 11.5385 24.6154V23.0769Z" fill="black"/>
<path d="M30 23.0769C30 22.6521 29.6556 22.3077 29.2308 22.3077C28.8059 22.3077 28.4615 22.6521 28.4615 23.0769V24.6154C28.4615 26.7396 26.7396 28.4615 24.6154 28.4615H23.0769C22.6521 28.4615 22.3077 28.8059 22.3077 29.2308C22.3077 29.6556 22.6521 30 23.0769 30H24.6154C27.5892 30 30 27.5892 30 24.6154V23.0769Z" fill="black"/>
<path d="M23.0769 10C22.6521 10 22.3077 10.3444 22.3077 10.7692C22.3077 11.1941 22.6521 11.5385 23.0769 11.5385H24.6154C26.7396 11.5385 28.4615 13.2604 28.4615 15.3846V16.9231C28.4615 17.3479 28.8059 17.6923 29.2308 17.6923C29.6556 17.6923 30 17.3479 30 16.9231V15.3846C30 12.4108 27.5892 10 24.6154 10H23.0769Z" fill="black"/>
</svg>
