<svg width="40" height="40" viewBox="0 0 40 40" fill="none" xmlns="http://www.w3.org/2000/svg">
<path opacity="0.3" d="M20 33C16.2754 33 14.4131 33 12.9218 32.4572C10.4219 31.5473 8.45265 29.5781 7.54277 27.0782C7 25.5869 7 23.7246 7 20C7 16.2754 7 14.4131 7.54277 12.9218C8.45265 10.4219 10.4219 8.45265 12.9218 7.54277C14.4131 7 16.2754 7 20 7C23.7246 7 25.5869 7 27.0782 7.54277C29.5781 8.45265 31.5473 10.4219 32.4572 12.9218C33 14.4131 33 16.2754 33 20C33 23.7246 33 25.5869 32.4572 27.0782C31.5473 29.5781 29.5781 31.5473 27.0782 32.4572C25.5869 33 23.7246 33 20 33Z" fill="black"/>
<path d="M16.9525 11.0708C17.2528 11.0097 17.5431 11 17.9 11C18.2866 11 18.6 11.3272 18.6 11.7308C18.6 12.1344 18.2866 12.4616 17.9 12.4616C17.5569 12.4616 17.3804 12.4728 17.2205 12.5054C17.0613 12.5378 16.8869 12.5979 16.5606 12.7391C15.703 13.1099 15.0217 13.8212 14.6664 14.7166C14.525 15.0731 14.4682 15.2755 14.4367 15.6135C14.4009 15.9978 14.4 16.5362 14.4 17.5765C14.4 17.9801 14.0866 18.3073 13.7 18.3073C13.3134 18.3073 13 17.9801 13 17.5765L13 17.5201C13 16.5501 13 15.9363 13.0433 15.472C13.0917 14.9524 13.1947 14.6065 13.373 14.1572C13.8703 12.9038 14.8242 11.9079 16.0249 11.3887C16.3723 11.2385 16.6516 11.1321 16.9525 11.0708Z" fill="black"/>
<path d="M21.4 11.7308C21.4 11.3272 21.7134 11 22.1 11C22.4569 11 22.7472 11.0097 23.0475 11.0708C23.3484 11.1321 23.6277 11.2385 23.9751 11.3887C25.1758 11.9079 26.1297 12.9038 26.627 14.1572C26.8053 14.6065 26.9083 14.9524 26.9567 15.472C27 15.9363 27 16.55 27 17.5201V17.5765C27 17.9801 26.6866 18.3073 26.3 18.3073C25.9134 18.3073 25.6 17.9801 25.6 17.5765C25.6 16.5362 25.5991 15.9978 25.5633 15.6135C25.5318 15.2755 25.475 15.0731 25.3336 14.7166C24.9783 13.8212 24.297 13.1099 23.4394 12.7391C23.1131 12.5979 22.9387 12.5378 22.7795 12.5054C22.6196 12.4728 22.4431 12.4616 22.1 12.4616C21.7134 12.4616 21.4 12.1344 21.4 11.7308Z" fill="black"/>
<path d="M22.45 16.8457C23.0299 16.8457 23.5 16.3549 23.5 15.7495C23.5 15.1441 23.0299 14.6533 22.45 14.6533C21.8701 14.6533 21.4 15.1441 21.4 15.7495C21.4 16.3549 21.8701 16.8457 22.45 16.8457Z" fill="black"/>
<path fill-rule="evenodd" clip-rule="evenodd" d="M27 23.4235C27 23.0199 26.6866 22.6927 26.3 22.6927C26.1815 22.6927 26.0698 22.7235 25.972 22.7777L24.9849 21.7472C24.1648 20.891 22.8352 20.891 22.0151 21.7472L21.4 22.3894L20.7849 21.7472C19.9648 20.891 18.6352 20.891 17.8151 21.7472L14.4281 25.2832C14.4007 24.9054 14.4 24.3739 14.4 23.4235C14.4 23.0199 14.0866 22.6927 13.7 22.6927C13.3134 22.6927 13 23.0199 13 23.4235L13 23.4799C13 24.4499 13 25.0637 13.0433 25.528C13.0917 26.0476 13.1947 26.3935 13.373 26.8428C13.8703 28.0962 14.8242 29.0921 16.0249 29.6113C16.3723 29.7615 16.6516 29.8679 16.9525 29.9292C17.2528 29.9903 17.5431 30 17.9 30C18.2866 30 18.6 29.6728 18.6 29.2692C18.6 28.8656 18.2866 28.5384 17.9 28.5384C17.5569 28.5384 17.3804 28.5272 17.2205 28.4946C17.0613 28.4622 16.8869 28.4021 16.5606 28.2609C15.8836 27.9682 15.3165 27.4633 14.9329 26.8232L18.805 22.7807C19.0784 22.4953 19.5216 22.4953 19.795 22.7807L24.426 27.6155C24.1366 27.8841 23.8039 28.1033 23.4394 28.2609C23.1131 28.4021 22.9387 28.4622 22.7795 28.4946C22.6196 28.5272 22.4431 28.5384 22.1 28.5384C21.7134 28.5384 21.4 28.8656 21.4 29.2692C21.4 29.6728 21.7134 30 22.1 30C22.4569 30 22.7472 29.9903 23.0475 29.9292C23.3484 29.8679 23.6277 29.7615 23.9751 29.6113C25.1758 29.0921 26.1297 28.0962 26.627 26.8428C26.8053 26.3935 26.9083 26.0476 26.9567 25.528C27 25.0637 27 24.45 27 23.4799V23.4235ZM25.3336 26.2834C25.475 25.9269 25.5318 25.7245 25.5633 25.3865C25.5848 25.156 25.5937 24.8701 25.5974 24.4537L23.995 22.7807C23.7216 22.4953 23.2784 22.4953 23.005 22.7807L22.3899 23.4229L25.2713 26.431C25.2931 26.3824 25.3138 26.3332 25.3336 26.2834Z" fill="black"/>
</svg>
