<svg width="40" height="40" viewBox="0 0 40 40" fill="none" xmlns="http://www.w3.org/2000/svg">
<path opacity="0.3" fill-rule="evenodd" clip-rule="evenodd" d="M8.12825 17.4591C8.28033 17.59 8.45258 17.7274 8.64329 17.873C10.12 13.8613 13.9758 11 18.5 11C24.299 11 29 15.701 29 21.5C29 26.0242 26.1387 29.88 22.1271 31.3567C22.2726 31.5473 22.4101 31.7195 22.5409 31.8715C22.9101 32.3006 23.3565 32.7308 23.9509 32.8979C24.7574 33.1246 25.6226 32.9692 26.2998 32.4775C26.7993 32.1148 27.069 31.5568 27.2668 31.0262C27.4679 30.4866 27.6627 29.7725 27.898 28.9094L32.4717 12.1396C32.6713 11.4076 32.8392 10.7922 32.9269 10.2947C33.0152 9.79372 33.0563 9.24795 32.8564 8.72419C32.5784 7.99629 32.0035 7.4214 31.2756 7.14347C30.7514 6.9433 30.2051 6.98503 29.7045 7.07361C29.21 7.16109 28.5986 7.32785 27.8722 7.52598L11.0855 12.1041C10.2246 12.3389 9.51215 12.5332 8.97369 12.7338C8.44321 12.9314 7.88525 13.201 7.52251 13.7005C7.03081 14.3777 6.87541 15.2429 7.10209 16.0494C7.26918 16.6438 7.69919 17.09 8.12825 17.4591Z" fill="black"/>
<path d="M22.2409 16.3451C22.6315 15.9546 23.2646 15.9546 23.6551 16.3452C24.0457 16.7357 24.0456 17.3689 23.6551 17.7594L18.8028 22.6115C18.1798 23.2345 18.0378 24.1917 18.4532 24.9687L21.1506 30.014L21.2195 30.1105C21.5566 30.5825 21.8559 31.0016 22.1271 31.3567C26.1388 29.88 29 26.0241 29 21.5C29 15.701 24.299 11 18.5 11C13.9759 11 10.12 13.8613 8.64331 17.873C8.99794 18.1438 9.41639 18.4427 9.88765 18.7793L9.98549 18.8491L15.0314 21.5468C15.8083 21.9622 16.7656 21.8203 17.3886 21.1973L22.2409 16.3451Z" fill="black"/>
</svg>
