<svg width="40" height="40" viewBox="0 0 40 40" fill="none" xmlns="http://www.w3.org/2000/svg">
<path opacity="0.3" fill-rule="evenodd" clip-rule="evenodd" d="M20 8C19.3126 8 18.6878 8.16986 18.0197 8.44611C17.3797 8.71079 16.6409 9.09945 15.7345 9.57626L12.6407 11.2038C11.6573 11.7211 10.8568 12.1422 10.2366 12.551C9.58953 12.9776 9.07363 13.4311 8.69629 14.0441C8.31905 14.657 8.15344 15.3105 8.07509 16.062C7.99997 16.7826 7.99998 17.6617 8 18.7423V21.2577C7.99998 22.3383 7.99997 23.2174 8.07509 23.938C8.15344 24.6895 8.31905 25.343 8.69629 25.9559C9.07363 26.5689 9.58953 27.0224 10.2366 27.449C10.8568 27.8578 11.6572 28.2789 12.6406 28.7962L15.7345 30.4237C16.6409 30.9005 17.3797 31.2892 18.0197 31.5539C18.6878 31.8301 19.3126 32 20 32C20.6874 32 21.3122 31.8301 21.9803 31.5539C22.6203 31.2892 23.3591 30.9005 24.2655 30.4237L27.3594 28.7961C28.3428 28.2788 29.1432 27.8578 29.7634 27.449C30.4105 27.0224 30.9264 26.5689 31.3037 25.9559C31.6809 25.343 31.8466 24.6895 31.9249 23.938C32 23.2174 32 22.3383 32 21.2577V18.7423C32 17.6617 32 16.7826 31.9249 16.062C31.8466 15.3105 31.6809 14.657 31.3037 14.0441C30.9264 13.4311 30.4105 12.9776 29.7634 12.551C29.1819 12.1678 28.4421 11.7737 27.5416 11.2997L27.3593 11.2038L24.2655 9.57626C23.3591 9.09944 22.6203 8.71079 21.9803 8.44611C21.3122 8.16986 20.6874 8 20 8ZM15.0255 20C15.0255 17.3545 17.2499 15.2051 20 15.2051C22.7501 15.2051 24.9745 17.3545 24.9745 20C24.9745 22.6455 22.7501 24.7949 20 24.7949C17.2499 24.7949 15.0255 22.6455 15.0255 20Z" fill="black"/>
<path fill-rule="evenodd" clip-rule="evenodd" d="M16.9454 20C16.9454 18.3688 18.3157 17.0513 20 17.0513C21.6842 17.0513 23.0545 18.3688 23.0545 20C23.0545 21.6312 21.6842 22.9487 20 22.9487C18.3157 22.9487 16.9454 21.6312 16.9454 20Z" fill="black"/>
</svg>
