<svg width="40" height="40" viewBox="0 0 40 40" fill="none" xmlns="http://www.w3.org/2000/svg">
<g opacity="0.3">
<path d="M15 17.6796L23.2306 12L24.3665 13.6461L16.1359 19.3257L15 17.6796Z" fill="black"/>
<path d="M15 22.6461L23.2306 28.3257L24.3665 26.6796L16.1359 21L15 22.6461Z" fill="black"/>
</g>
<path d="M9 20C9 22.377 10.9575 24.2727 13.3333 24.2727C14.4826 24.2727 15.5341 23.8291 16.3133 23.102C17.145 22.326 17.6667 21.2271 17.6667 20C17.6667 18.7729 17.145 17.674 16.3133 16.898C15.5341 16.1709 14.4826 15.7273 13.3333 15.7273C12.184 15.7273 11.1326 16.1709 10.3533 16.898C9.5217 17.674 9 18.7729 9 20Z" fill="black"/>
<path d="M26.6667 7C24.2908 7 22.3333 8.89575 22.3333 11.2727C22.3333 12.4998 22.855 13.5987 23.6867 14.3747C24.4659 15.1018 25.5174 15.5455 26.6667 15.5455C27.816 15.5455 28.8674 15.1018 29.6467 14.3747C30.4518 13.6235 30.9664 12.5696 30.9984 11.3897C30.9995 11.3508 31 11.3118 31 11.2727C31 8.89575 29.0425 7 26.6667 7Z" fill="black"/>
<path d="M31 28.7273C31 28.6901 30.9995 28.6531 30.9986 28.6162C30.9681 27.4339 30.4531 26.3778 29.6467 25.6253C28.8674 24.8982 27.816 24.4545 26.6667 24.4545C25.5174 24.4545 24.4659 24.8982 23.6867 25.6253C22.881 26.3771 22.3662 27.432 22.3349 28.6129C22.3338 28.6509 22.3333 28.689 22.3333 28.7273C22.3333 31.1043 24.2908 33 26.6667 33C29.0425 33 31 31.1043 31 28.7273Z" fill="black"/>
</svg>
