<svg width="40" height="40" viewBox="0 0 40 40" fill="none" xmlns="http://www.w3.org/2000/svg">
<g opacity="0.3">
<path d="M21.0168 12.2679C21.0168 12.7166 21.3012 13.1132 21.7188 13.2468L28 15.2571L29.3597 15.6646C29.6798 15.7606 30 15.5144 30 15.1725V12.1607C30 10.8289 29.1796 9.63825 27.9513 9.21272L21.6768 7.03897C21.3526 6.92668 21.0168 7.17389 21.0168 7.52474V12.2679Z" fill="black"/>
<path d="M19.0168 15.875C19.0168 15.5293 18.6899 15.2826 18.368 15.3855L12 17.4199L10.7687 17.7201C10.3181 17.83 10 18.2428 10 18.7178V18.8692C10 21.3018 10.5508 23.7007 11.6084 25.8719C13.0665 28.8653 15.4203 31.2884 18.3182 32.7757L18.7101 32.9769C18.8553 33.0514 19.0168 32.9362 19.0168 32.7697V15.875Z" fill="black"/>
</g>
<path d="M28 17.4139L21.6657 15.3866C21.3438 15.2836 21.0168 15.5303 21.0168 15.8761V32.7936C21.0168 32.9414 21.1609 33.043 21.2899 32.9769L21.6818 32.7757C24.5797 31.2884 26.9335 28.8653 28.3916 25.8719C29.4492 23.7007 30 21.3018 30 18.8692V18.7155C30 18.2415 29.6833 17.8294 29.234 17.7185L28 17.4139Z" fill="black"/>
<path d="M12 15.2635L18.3142 13.2462C18.7321 13.1127 19.0168 12.716 19.0168 12.2672V7.51314C19.0168 7.16229 18.6809 6.91508 18.3567 7.02737L12.0487 9.21273C10.8204 9.63826 10 10.8289 10 12.1608V15.1745C10 15.5159 10.3191 15.7619 10.6389 15.6671L12 15.2635Z" fill="black"/>
</svg>
