<svg width="40" height="40" viewBox="0 0 40 40" fill="none" xmlns="http://www.w3.org/2000/svg">
<path opacity="0.3" d="M20.0251 7.00011C19.6964 6.99732 19.3673 7.04925 19.0513 7.15592L12.0513 9.51905C10.8263 9.93261 10 11.0937 10 12.4015V18.9385C10 21.312 10.5516 23.6523 11.6101 25.7699C13.0695 28.6894 15.4244 31.0509 18.3215 32.4998L18.7134 32.6958C19.1267 32.9025 19.5766 33.0039 20.0255 32.9999C20.4575 32.996 20.889 32.8947 21.2866 32.6958L21.6785 32.4998C24.5756 31.0509 26.9305 28.6894 28.3899 25.7699C29.4484 23.6523 30 21.312 30 18.9385V12.4015C30 11.0937 29.1737 9.93261 27.9487 9.51905L20.9487 7.15592C20.6488 7.05469 20.3371 7.00275 20.0251 7.00011Z" fill="black"/>
<path d="M16.7929 16.302C17.1834 15.9065 17.8166 15.9065 18.2071 16.302L20 18.1178L21.7929 16.302C22.1834 15.9065 22.8166 15.9065 23.2071 16.302C23.5976 16.6975 23.5976 17.3388 23.2071 17.7343L21.4142 19.5501L23.2071 21.3659C23.5976 21.7614 23.5976 22.4026 23.2071 22.7981C22.8166 23.1937 22.1834 23.1937 21.7929 22.7981L20 20.9823L18.2071 22.7981C17.8166 23.1937 17.1834 23.1937 16.7929 22.7981C16.4024 22.4026 16.4024 21.7614 16.7929 21.3659L18.5858 19.5501L16.7929 17.7343C16.4024 17.3388 16.4024 16.6975 16.7929 16.302Z" fill="black"/>
</svg>
