<svg width="40" height="40" viewBox="0 0 40 40" fill="none" xmlns="http://www.w3.org/2000/svg">
<path fill-rule="evenodd" clip-rule="evenodd" d="M19.0513 7.15592C19.3673 7.04925 19.6964 6.99732 20.0251 7.00011L20.0255 32.9999C19.5767 33.0038 19.1266 32.9025 18.7134 32.6958L18.3215 32.4998C15.4244 31.0509 13.0695 28.6894 11.6101 25.7699C10.5516 23.6523 10 21.312 10 18.9385V12.4015C10 11.0937 10.8263 9.93261 12.0513 9.51905L19.0513 7.15592Z" fill="black"/>
<path opacity="0.3" d="M20.0251 7.00011C19.6964 6.99732 19.3673 7.04925 19.0513 7.15592L12.0513 9.51905C10.8263 9.93261 10 11.0937 10 12.4015V18.9385C10 21.312 10.5516 23.6523 11.6101 25.7699C13.0695 28.6894 15.4244 31.0509 18.3215 32.4998L18.7134 32.6958C19.1266 32.9025 19.5767 33.0038 20.0255 32.9999C20.0254 32.9999 20.0257 32.9999 20.0255 32.9999C20.4575 32.996 20.889 32.8947 21.2866 32.6958L21.6785 32.4998C24.5756 31.0509 26.9305 28.6894 28.3899 25.7699C29.4484 23.6523 30 21.312 30 18.9385V12.4015C30 11.0937 29.1737 9.93261 27.9487 9.51905L20.9487 7.15592C20.6488 7.05469 20.3371 7.00275 20.0251 7.00011Z" fill="black"/>
</svg>
