<svg width="40" height="40" viewBox="0 0 40 40" fill="none" xmlns="http://www.w3.org/2000/svg">
<path opacity="0.3" d="M19.0513 7.15592C19.3673 7.04925 19.6964 6.99732 20.0251 7.00011C20.3371 7.00275 20.6488 7.05469 20.9487 7.15592L27.9487 9.51905C29.1737 9.93261 30 11.0937 30 12.4015V18.9385C30 21.312 29.4484 23.6523 28.3899 25.7699C26.9305 28.6894 24.5756 31.0509 21.6785 32.4998L21.2866 32.6958C20.889 32.8947 20.4575 32.996 20.0255 32.9999C19.5766 33.0039 19.1267 32.9025 18.7134 32.6958L18.3215 32.4998C15.4244 31.0509 13.0695 28.6894 11.6101 25.7699C10.5516 23.6523 10 21.312 10 18.9385V12.4015C10 11.0937 10.8263 9.93261 12.0513 9.51905L19.0513 7.15592Z" fill="black"/>
<path d="M24.7071 16.302C25.0976 16.6975 25.0976 17.3388 24.7071 17.7343L19.7071 22.7981C19.3166 23.1937 18.6834 23.1937 18.2929 22.7981L16.2929 20.7726C15.9024 20.3771 15.9024 19.7358 16.2929 19.3403C16.6834 18.9448 17.3166 18.9448 17.7071 19.3403L19 20.6497L23.2929 16.302C23.6834 15.9065 24.3166 15.9065 24.7071 16.302Z" fill="black"/>
</svg>
