<svg width="40" height="40" viewBox="0 0 40 40" fill="none" xmlns="http://www.w3.org/2000/svg">
<path opacity="0.3" d="M29.1779 9.76295C28.0585 9.1926 26.76 9.059 25.0237 9.01781C24.7037 9.01022 24.3629 9.00587 24 9.00337C23.5113 9 22.9825 9 22.4099 9L17.5556 9C15.913 8.99999 14.6191 8.99999 13.5778 9.08507C12.5154 9.17186 11.6283 9.35217 10.8221 9.76295C9.50493 10.4341 8.43407 11.5049 7.76295 12.8221C7.35217 13.6283 7.17186 14.5154 7.08507 15.5778C6.99999 16.6191 6.99999 17.913 7 19.5556V20.4444C6.99999 22.087 6.99999 23.3809 7.08507 24.4222C7.17186 25.4846 7.35217 26.3717 7.76295 27.1779C8.43407 28.4951 9.50493 29.5659 10.8221 30.237C11.6283 30.6478 12.5154 30.8281 13.5778 30.9149C14.6191 31 15.913 31 17.5556 31H22.4099C23.4077 31 24.2727 31 25.0237 30.9822C26.76 30.941 28.0585 30.8074 29.1779 30.237C30.4951 29.5659 31.5659 28.4951 32.237 27.1779C32.6478 26.3717 32.8281 25.4846 32.9149 24.4222C33 23.3809 33 22.087 33 20.4444V19.5556C33 17.913 33 16.6191 32.9149 15.5778C32.8281 14.5154 32.6478 13.6283 32.237 12.8221C31.5659 11.5049 30.4951 10.4341 29.1779 9.76295Z" fill="black"/>
<path d="M28.27 11.545C27.7927 11.3018 27.198 11.1551 26.2594 11.0784C25.309 11.0008 27.0967 11 25.4 11H23.6C23.0399 11 22.7599 11 22.546 11.109C22.3587 11.2044 22.2044 11.3587 22.109 11.546C22 11.7599 22 12.0374 22 12.5922V27.4078C22 27.9626 22 28.2401 22.109 28.454C22.2044 28.6413 22.3587 28.7956 22.546 28.891C22.7599 29 23.0399 29 23.6 29H25.4C27.0967 29 25.309 28.9992 26.2594 28.9216C27.198 28.8449 27.7927 28.6982 28.27 28.455C29.2108 27.9757 29.9757 27.2108 30.455 26.27C30.6982 25.7927 30.8449 25.198 30.9216 24.2594C30.9992 23.309 31 22.0967 31 20.4V19.6C31 17.9033 30.9992 16.691 30.9216 15.7406C30.8449 14.802 30.6982 14.2073 30.455 13.73C29.9757 12.7892 29.2108 12.0243 28.27 11.545Z" fill="black"/>
</svg>
