<svg width="40" height="40" viewBox="0 0 40 40" fill="none" xmlns="http://www.w3.org/2000/svg">
<path opacity="0.3" d="M7 20C7 12.8203 12.8203 7 20 7C27.1797 7 33 12.8203 33 20C33 27.1797 27.1797 33 20 33C12.8203 33 7 27.1797 7 20Z" fill="black"/>
<path d="M24.4369 18.1779C25.3002 18.1779 26 17.4665 26 16.589C26 15.7114 25.3002 15 24.4369 15C23.5737 15 22.8739 15.7114 22.8739 16.589C22.8739 17.4665 23.5737 18.1779 24.4369 18.1779Z" fill="black"/>
<path d="M15.6447 18.1779C16.5079 18.1779 17.2077 17.4665 17.2077 16.589C17.2077 15.7114 16.5079 15 15.6447 15C14.7814 15 14.0816 15.7114 14.0816 16.589C14.0816 17.4665 14.7814 18.1779 15.6447 18.1779Z" fill="black"/>
<path d="M14.5439 22.0047C15.0546 21.7158 15.6991 21.9025 15.9833 22.4217C16.7863 23.8885 18.2693 24.8483 19.9431 24.8483C21.6169 24.8483 23.0999 23.8885 23.9029 22.4217C24.1872 21.9025 24.8316 21.7158 25.3423 22.0047C25.8531 22.2937 26.0367 22.9488 25.7525 23.468C24.6054 25.5633 22.4438 27 19.9431 27C17.4424 27 15.2808 25.5633 14.1337 23.468C13.8495 22.9488 14.0331 22.2937 14.5439 22.0047Z" fill="black"/>
</svg>
