<svg width="24" height="24" viewBox="0 0 24 24" fill="none" xmlns="http://www.w3.org/2000/svg">
<path d="M12 2.44141C12.5704 2.44121 13.1528 2.79641 13.4978 3.50341L15.6196 7.87611L20.4562 8.56321C22.0116 8.77981 22.5156 10.3072 21.3923 11.4052L17.8976 14.8102L18.7088 19.5892C18.9759 21.1362 17.6941 22.0712 16.3061 21.3382C15.7698 21.0542 13.0123 19.6242 12 19.0892V2.44141Z" fill="black" fill-opacity="0.4"/>
<path d="M12 2.44141C11.4296 2.44121 10.8472 2.79641 10.5022 3.50341L8.38036 7.87611L3.54378 8.56321C1.98837 8.77981 1.48445 10.3072 2.60767 11.4052L6.10243 14.8102L5.29121 19.5892C5.02406 21.1362 6.30594 22.0712 7.69392 21.3382C8.2302 21.0542 10.9877 19.6242 12 19.0892V2.44141Z" fill="black"/>
</svg>
