<svg width="24" height="24" viewBox="0 0 24 24" fill="none" xmlns="http://www.w3.org/2000/svg">
<path d="M17.0054 3C16.6501 3 16.2827 3.19422 16.0985 3.56315C15.6611 4.43686 15.527 4.72429 15.3478 5.00231C15.0565 5.45284 14.8173 5.63244 14.1907 5.87833C14.0486 5.93389 13.8814 6.00227 13.6902 6.06604C12.8434 6.34807 12.7673 7.51301 13.5651 7.91187C14.4099 8.33446 14.6421 8.47383 14.8784 8.63151C15.1026 8.78068 15.2297 8.90833 15.3788 9.13209C15.537 9.36856 15.6761 9.60113 16.0985 10.4466C16.4669 11.1845 17.5439 11.1845 17.9123 10.4466C18.3347 9.60113 18.4748 9.36866 18.632 9.13209C18.7811 8.90833 18.9092 8.78068 19.1325 8.63151C19.3687 8.47383 19.6019 8.33436 20.4467 7.91187C21.1844 7.54295 21.1844 6.46631 20.4467 6.09738C19.6019 5.6748 19.3687 5.53543 19.1325 5.37775C18.9092 5.22858 18.7811 5.10093 18.632 4.87717C18.4748 4.6407 18.3347 4.40813 17.9123 3.56315C17.7281 3.19422 17.3608 3 17.0054 3ZM6.9958 5.00231C6.64046 5.00231 6.27312 5.19654 6.08894 5.56547C5.80366 6.13512 5.72958 6.30212 5.61948 6.47282C5.46433 6.71209 5.34922 6.8027 4.99388 6.94206C4.90479 6.9768 4.8037 7.02635 4.68158 7.0672C3.83477 7.34923 3.7587 8.51417 4.55646 8.91303C5.10399 9.18725 5.25914 9.25704 5.40027 9.35114C5.51338 9.42613 5.57544 9.4889 5.65051 9.60143C5.7446 9.7425 5.81468 9.89778 6.08894 10.4466C6.45729 11.1845 7.53432 11.1845 7.90268 10.4466C8.17694 9.89778 8.24701 9.7425 8.3411 9.60143C8.41617 9.4889 8.47823 9.42613 8.59134 9.35114C8.73248 9.25704 8.88762 9.18725 9.43615 8.91303C10.1739 8.5441 10.1739 7.46747 9.43615 7.09854C8.88762 6.82432 8.73248 6.75454 8.59134 6.66043C8.47823 6.58544 8.41617 6.52267 8.3411 6.41014C8.24701 6.26908 8.17694 6.1138 7.90268 5.56547C7.7185 5.19654 7.35114 5.00231 6.9958 5.00231Z" fill="black" fill-opacity="0.4"/>
<path d="M12.0007 11C11.6023 11 11.2149 11.232 11.0628 11.688C10.3611 13.789 9.78755 14.362 7.68454 15.062C6.77166 15.366 6.77166 16.634 7.68454 16.938C9.78755 17.638 10.3611 18.211 11.0628 20.312C11.3661 21.224 12.6353 21.224 12.9396 20.312C13.6403 18.211 14.2138 17.638 16.3178 16.938C17.2297 16.634 17.2297 15.366 16.3178 15.062C14.2138 14.362 13.6403 13.789 12.9396 11.688C12.7874 11.232 12.3991 11 12.0007 11Z" fill="black"/>
</svg>
