<svg width="40" height="40" viewBox="0 0 40 40" fill="none" xmlns="http://www.w3.org/2000/svg">
<path opacity="0.3" d="M30.1672 24.2366C30.1766 24.2044 30.1869 24.1724 30.1983 24.1408C30.2068 24.117 30.2161 24.0934 30.2266 24.0692C28.4562 25.2871 26.3113 25.9999 24 25.9999C17.9249 25.9999 13 21.0751 13 14.9999C13 14.4202 13.0448 13.851 13.1313 13.2955L13.0619 13.3198C11.549 13.7538 10.3141 14.108 9.40211 14.5094C8.46207 14.9232 7.66197 15.4712 7.26659 16.4125C7.18686 16.6023 7.12318 16.7985 7.07623 16.9989C6.84345 17.9928 7.16878 18.9065 7.6862 19.7941C8.18827 20.6553 8.97924 21.6684 9.94839 22.9097L9.99499 22.9694C10.5777 23.7158 10.723 23.921 10.8017 24.1408C10.8131 24.1724 10.8234 24.2043 10.8329 24.2366C10.8983 24.4608 10.9011 24.7125 10.868 25.6591L10.8654 25.7347C10.8102 27.3092 10.7652 28.5942 10.8647 29.5863C10.9673 30.6085 11.2406 31.5394 12.0129 32.2068C12.1686 32.3414 12.3354 32.4627 12.5115 32.5694C13.3846 33.0986 14.3542 33.0711 15.3576 32.8527C16.3311 32.6409 17.5382 32.2009 19.017 31.6619L19.0882 31.636C19.9775 31.3118 20.2171 31.237 20.4498 31.23C20.4832 31.229 20.5168 31.229 20.5503 31.23C20.783 31.237 21.0225 31.3118 21.9118 31.636L21.983 31.6619C23.4618 32.2009 24.6689 32.6409 25.6424 32.8527C26.6458 33.0711 27.6154 33.0986 28.4885 32.5694C28.6646 32.4627 28.8314 32.3414 28.9871 32.2068C29.7594 31.5394 30.0327 30.6085 30.1353 29.5863C30.2348 28.5942 30.1898 27.3093 30.1347 25.7348L30.132 25.6591C30.0989 24.7125 30.1017 24.4608 30.1672 24.2366Z" fill="black"/>
<path d="M20.8082 7.01295C20.6031 6.99568 20.3969 6.99568 20.1918 7.01295C19.1745 7.09855 18.4064 7.69122 17.7231 8.45798C17.0599 9.20209 16.3418 10.2682 15.4619 11.5744L15.4196 11.6372C14.8905 12.4226 14.7405 12.6243 14.5561 12.767C14.5296 12.7875 14.5025 12.8073 14.4748 12.8262L13.1312 13.2956C13.0448 13.8511 13 14.4203 13 15C13 21.0751 17.9249 26 24 26C26.3113 26 28.4561 25.2871 30.2266 24.0693C30.3135 23.8703 30.4854 23.6351 31.005 22.9695L31.0516 22.9098C32.0208 21.6685 32.8117 20.6554 33.3138 19.7942C33.8312 18.9066 34.1566 17.9928 33.9238 16.999C33.8768 16.7985 33.8131 16.6024 33.7334 16.4125C33.338 15.4713 32.5379 14.9232 31.5979 14.5095C30.6859 14.1081 29.451 13.7538 27.9381 13.3198L27.8652 13.2989C26.9555 13.0379 26.7177 12.9575 26.5252 12.8262C26.4975 12.8073 26.4704 12.7876 26.4439 12.767C26.2595 12.6243 26.1095 12.4226 25.5804 11.6372L25.5381 11.5744C24.6582 10.2682 23.9401 9.2021 23.2769 8.45798C22.5936 7.69122 21.8255 7.09855 20.8082 7.01295Z" fill="black"/>
</svg>
