<svg width="40" height="40" viewBox="0 0 40 40" fill="none" xmlns="http://www.w3.org/2000/svg">
<path opacity="0.3" fill-rule="evenodd" clip-rule="evenodd" d="M7.54277 12.9218C7 14.4131 7 16.2754 7 20C7 23.7246 7 25.5869 7.54277 27.0782C8.45265 29.5781 10.4219 31.5473 12.9218 32.4572C14.4131 33 16.2754 33 20 33C23.7246 33 25.5869 33 27.0782 32.4572C29.5781 31.5473 31.5473 29.5781 32.4572 27.0782C33 25.5869 33 23.7246 33 20C33 16.2754 33 14.4131 32.4572 12.9218C31.5473 10.4219 29.5781 8.45265 27.0782 7.54277C25.5869 7 23.7246 7 20 7C16.2754 7 14.4131 7 12.9218 7.54277C10.4219 8.45265 8.45265 10.4219 7.54277 12.9218Z" fill="black"/>
<path d="M23.5023 15C22.8796 15 22.3748 15.5531 22.3748 16.2353C22.3748 16.9175 22.8796 17.4706 23.5023 17.4706H24.1175L21.2555 20.5534L18.6759 17.7746C18.2376 17.3025 17.5351 17.3019 17.0961 17.7733L12.3383 22.8825C11.8936 23.3601 11.8864 24.1422 12.3223 24.6294C12.7582 25.1166 13.4721 25.1245 13.9168 24.6469L17.8842 20.3865L20.4651 23.1666C20.9038 23.6392 21.6073 23.6392 22.046 23.1666L25.745 19.1822V19.8655C25.745 20.5478 26.2498 21.1008 26.8725 21.1008C27.4952 21.1008 28 20.5478 28 19.8655V16.2353C28 15.5531 27.4952 15 26.8725 15H23.5023Z" fill="black"/>
</svg>
