<svg width="24" height="24" viewBox="0 0 24 24" fill="none" xmlns="http://www.w3.org/2000/svg">
<path fill-rule="evenodd" clip-rule="evenodd" d="M7 19C5.89543 19 5 18.1046 5 17V7C5 5.89543 5.89543 5 7 5H17C18.1046 5 19 5.89543 19 7V12H21V7C21 4.79086 19.2091 3 17 3H7C4.79086 3 3 4.79086 3 7V17C3 19.2091 4.79086 21 7 21H12V19H7Z" fill="black" fill-opacity="0.4"/>
<path fill-rule="evenodd" clip-rule="evenodd" d="M16 14C14.8954 14 14 14.8954 14 16V18.917C16.5125 18.4955 18.4955 16.5125 18.917 14H16ZM21 12H16C13.7909 12 12 13.7909 12 16V21H13C17.4183 21 21 17.4183 21 13V12Z" fill="black"/>
</svg>
