<svg width="24" height="24" viewBox="0 0 24 24" fill="none" xmlns="http://www.w3.org/2000/svg">
<path fill-rule="evenodd" clip-rule="evenodd" d="M8 18C8 19.1046 8.89543 20 10 20H13V17C13 14.7909 14.7909 13 17 13H20V10C20 8.89543 19.1046 8 18 8H10C8.89543 8 8 8.89543 8 10V18ZM22 13V14C22 18.4183 18.4183 22 14 22H13H10C7.79086 22 6 20.2091 6 18V10C6 7.79086 7.79086 6 10 6H18C20.2091 6 22 7.79086 22 10V13ZM15 17C15 15.8954 15.8954 15 17 15H19.917C19.4955 17.5125 17.5125 19.4955 15 19.917V17Z" fill="black"/>
<path fill-rule="evenodd" clip-rule="evenodd" d="M6 16C4.89543 16 4 15.1046 4 14V6C4 4.89543 4.89543 4 6 4H14C15.1046 4 16 4.89543 16 6H18C18 3.79086 16.2091 2 14 2H6C3.79086 2 2 3.79086 2 6V14C2 16.2091 3.79086 18 6 18V16Z" fill="black" fill-opacity="0.4"/>
</svg>
