<svg width="24" height="24" viewBox="0 0 24 24" fill="none" xmlns="http://www.w3.org/2000/svg">
<path fill-rule="evenodd" clip-rule="evenodd" d="M22 13V10C22 7.79086 20.2091 6 18 6H10C7.79086 6 6 7.79086 6 10V18C6 20.2091 7.79086 22 10 22H13H14C18.4183 22 22 18.4183 22 14V13ZM14 16.4995C14 15.1188 15.1193 14 16.5 14H20L19.917 15C19.4955 17.5125 17.5125 19.4955 15 19.917L14 20C14 19.4847 14 17.9075 14 16.4995Z" fill="black"/>
<path fill-rule="evenodd" clip-rule="evenodd" d="M6 16C4.89543 16 4 15.1046 4 14V6C4 4.89543 4.89543 4 6 4H14C15.1046 4 16 4.89543 16 6H18C18 3.79086 16.2091 2 14 2H6C3.79086 2 2 3.79086 2 6V14C2 16.2091 3.79086 18 6 18V16Z" fill="black" fill-opacity="0.4"/>
</svg>
