<svg width="40" height="40" viewBox="0 0 40 40" fill="none" xmlns="http://www.w3.org/2000/svg">
<path opacity="0.3" d="M7 16C7 11.0294 11.0294 7 16 7H24C28.9706 7 33 11.0294 33 16V24C33 28.9706 28.9706 33 24 33H16C11.0294 33 7 28.9706 7 24V16Z" fill="black"/>
<path d="M20.0002 26.0002C17.473 26.0002 15.287 24.5719 14.1264 22.4865C13.8578 22.0039 14.0313 21.3949 14.5139 21.1264C14.9965 20.8578 15.6054 21.0313 15.874 21.5139C16.7095 23.0152 18.2543 24.0002 20.0002 24.0002C20.875 24.0002 21.6994 23.7529 22.4093 23.3172C23.1161 22.8834 23.7095 22.2629 24.1264 21.5139C24.3949 21.0313 25.0039 20.8578 25.4865 21.1264C25.7053 21.2482 25.8606 21.4399 25.9399 21.6582C26.0355 21.9212 26.0208 22.2227 25.874 22.4865C25.171 23.7497 24.0917 24.7718 22.7883 25.3814C21.9766 25.761 21.078 25.9807 20.1291 25.9989C20.0862 25.9998 20.0432 26.0002 20.0002 26.0002Z" fill="black"/>
<path d="M26 15.6879C26 16.6202 25.264 17.3759 24.356 17.3759C23.4481 17.3759 22.7121 16.6202 22.7121 15.6879C22.7121 14.7557 23.4481 14 24.356 14C25.264 14 26 14.7557 26 15.6879Z" fill="black"/>
<path d="M17.2879 15.6879C17.2879 16.6202 16.5519 17.3759 15.644 17.3759C14.736 17.3759 14 16.6202 14 15.6879C14 14.7557 14.736 14 15.644 14C16.5519 14 17.2879 14.7557 17.2879 15.6879Z" fill="black"/>
<path d="M23 28C23 25.7909 24.7909 24 27 24H33C33 28.9706 28.9706 33 24 33H23V28Z" fill="black"/>
</svg>
