<svg width="40" height="40" viewBox="0 0 40 40" fill="none" xmlns="http://www.w3.org/2000/svg">
<path d="M11.945 9C10.5399 9 9.28266 9.86245 8.76485 11.1679L7.47046 14.4311C7.29075 14.8842 7.09189 15.4504 7.02439 16.0415C6.95544 16.6453 7.01611 17.3452 7.43374 17.9899C8.04157 18.9282 9.09811 19.5556 10.3039 19.5556C11.2533 19.5556 12.1093 19.1681 12.7279 18.5438C13.3466 19.1681 14.2025 19.5556 15.1519 19.5556C16.1014 19.5556 16.9573 19.1681 17.576 18.5438C18.1946 19.1681 19.0506 19.5556 20 19.5556C20.9494 19.5556 21.8054 19.1681 22.424 18.5438C23.0426 19.1681 23.8986 19.5556 24.848 19.5556C25.7975 19.5556 26.6534 19.1681 27.2721 18.5438C27.8907 19.1681 28.7467 19.5556 29.6961 19.5556C30.9019 19.5556 31.9584 18.9282 32.5662 17.9899C32.9839 17.3452 33.0445 16.6453 32.9756 16.0415C32.9081 15.4504 32.7092 14.8842 32.5295 14.4311L31.2351 11.1679C30.7173 9.86245 29.46 9 28.0549 9H11.945Z" fill="black"/>
<path opacity="0.3" d="M13.728 22.8889C13.728 22.3366 13.2802 21.8889 12.728 21.8889C12.1757 21.8889 11.728 22.3366 11.728 22.8889V29H9.09192C8.53963 29 8.09192 29.4477 8.09192 30C8.09192 30.5523 8.53963 31 9.09192 31H30.9081C31.4604 31 31.9081 30.5523 31.9081 30C31.9081 29.4477 31.4604 29 30.9081 29H28.2721V22.8889C28.2721 22.3366 27.8244 21.8889 27.2721 21.8889C26.7198 21.8889 26.2721 22.3366 26.2721 22.8889V29H13.728V22.8889Z" fill="black"/>
</svg>
