<svg width="40" height="40" viewBox="0 0 40 40" fill="none" xmlns="http://www.w3.org/2000/svg">
<path opacity="0.3" d="M16.1599 10.0001L15.9458 10C13.9175 9.99961 12.649 9.99936 11.5927 10.3509C9.60752 11.0116 8.03986 12.5431 7.36067 14.5047C6.99916 15.5488 6.99945 16.8016 6.99991 18.7823L6.99994 19.0001V19.015C6.99994 20.099 6.99994 21.1875 7.03904 22.1164C7.07667 23.0105 7.1532 23.8962 7.36067 24.4954C8.03986 26.457 9.60752 27.9885 11.5927 28.6492C12.649 29.0008 13.9175 29.0005 15.9459 29.0001L16.1599 29.0001H23.8399L24.054 29.0001C26.0824 29.0005 27.3508 29.0008 28.4072 28.6492C30.3924 27.9885 31.96 26.457 32.6392 24.4954C32.8467 23.8962 32.9232 23.0105 32.9608 22.1164C32.9999 21.1875 32.9999 20.099 32.9999 19.015V19.0001L33 18.7823C33.0004 16.8016 33.0007 15.5488 32.6392 14.5047C31.96 12.5431 30.3924 11.0116 28.4072 10.3509C27.3508 9.99936 26.0824 9.99961 24.054 10L23.8399 10.0001H16.1599Z" fill="black"/>
<path d="M18 22C17.4477 22 17 22.4477 17 23C17 23.5523 17.4477 24 18 24H27C27.5523 24 28 23.5523 28 23C28 22.4477 27.5523 22 27 22H18Z" fill="black"/>
<path d="M13 22C12.4477 22 12 22.4477 12 23C12 23.5523 12.4477 24 13 24H15C15.5523 24 16 23.5523 16 23C16 22.4477 15.5523 22 15 22H13Z" fill="black"/>
<path d="M13 18C12.4477 18 12 18.4477 12 19C12 19.5523 12.4477 20 13 20H22C22.5523 20 23 19.5523 23 19C23 18.4477 22.5523 18 22 18H13Z" fill="black"/>
<path d="M25.08 18C24.5277 18 24.08 18.4477 24.08 19C24.08 19.5523 24.5277 20 25.08 20H27C27.5523 20 28 19.5523 28 19C28 18.4477 27.5523 18 27 18H25.08Z" fill="black"/>
</svg>
