<svg width="40" height="40" viewBox="0 0 40 40" fill="none" xmlns="http://www.w3.org/2000/svg">
<path opacity="0.3" d="M13.76 10C9.98847 10 7 13.1729 7 17V24C7 27.8271 9.98847 31 13.76 31H26.24C30.0115 31 33 27.8271 33 24V17C33 13.1729 30.011 10 26.2395 10H21H19H13.76Z" fill="black"/>
<path fill-rule="evenodd" clip-rule="evenodd" d="M13 18.5C13 17.9477 13.4477 17.5 14 17.5H25.52C26.0723 17.5 26.52 17.9477 26.52 18.5C26.52 19.0523 26.0723 19.5 25.52 19.5H14C13.4477 19.5 13 19.0523 13 18.5ZM13 22.5C13 21.9477 13.4477 21.5 14 21.5H21.68C22.2323 21.5 22.68 21.9477 22.68 22.5C22.68 23.0523 22.2323 23.5 21.68 23.5H14C13.4477 23.5 13 23.0523 13 22.5Z" fill="black"/>
<path d="M19.24 9C19.24 8.44772 19.6877 8 20.24 8C20.7923 8 21.24 8.44772 21.24 9V10H19.24V9Z" fill="black"/>
</svg>
