<svg width="40" height="40" viewBox="0 0 40 40" fill="none" xmlns="http://www.w3.org/2000/svg">
<path opacity="0.3" fill-rule="evenodd" clip-rule="evenodd" d="M18.8333 33C11.7457 33 6 27.1797 6 20C6 12.8203 11.7457 7 18.8333 7C25.921 7 31.6667 12.8203 31.6667 20C31.6667 24.3967 29.512 28.2837 26.2139 30.6364H32.8333C33.4777 30.6364 34 31.1655 34 31.8182C34 32.4709 33.4777 33 32.8333 33H18.8333Z" fill="black"/>
<path d="M24.5369 22.3637C25.8166 22.3637 26.8541 21.3054 26.8541 20C26.8541 18.6946 25.8166 17.6364 24.5369 17.6364C23.2572 17.6364 22.2198 18.6946 22.2198 20C22.2198 21.3054 23.2572 22.3637 24.5369 22.3637Z" fill="black"/>
<path d="M18.7441 28.2727C20.0238 28.2727 21.0612 27.2145 21.0612 25.9091C21.0612 24.6037 20.0238 23.5455 18.7441 23.5455C17.4644 23.5455 16.427 24.6037 16.427 25.9091C16.427 27.2145 17.4644 28.2727 18.7441 28.2727Z" fill="black"/>
<path d="M18.7441 16.4546C20.0238 16.4546 21.0612 15.3963 21.0612 14.0909C21.0612 12.7855 20.0238 11.7273 18.7441 11.7273C17.4644 11.7273 16.427 12.7855 16.427 14.0909C16.427 15.3963 17.4644 16.4546 18.7441 16.4546Z" fill="black"/>
<path d="M12.9513 22.3637C14.231 22.3637 15.2684 21.3054 15.2684 20C15.2684 18.6946 14.231 17.6364 12.9513 17.6364C11.6716 17.6364 10.6342 18.6946 10.6342 20C10.6342 21.3054 11.6716 22.3637 12.9513 22.3637Z" fill="black"/>
</svg>
