<svg width="24" height="24" viewBox="0 0 24 24" fill="none" xmlns="http://www.w3.org/2000/svg">
<path d="M21.6419 3.23523C21.9069 3.45323 21.9909 3.72222 21.9979 4.01022C22.0049 4.27422 21.9479 4.55522 21.9059 4.82922C21.7399 5.92122 20.1559 18.2142 20.0259 19.0312C19.8729 19.9972 19.2239 21.0172 18.0279 20.9982C17.4199 20.9882 16.9549 20.8482 16.2159 20.1162C15.0949 19.0052 12.6819 16.4442 11.5889 15.2222C11.0459 14.6142 11.0909 13.7712 11.5129 13.2872C11.7869 12.9732 13.9259 10.8822 14.9159 9.83224C15.1329 9.60224 15.0039 9.25323 14.8849 9.13223L21.6419 3.23523Z" fill="black"/>
<path d="M4.01601 8.67315C5.34601 8.21115 19.469 3.38916 20.189 3.14016C20.469 3.04316 20.75 2.98816 21.008 3.00216C21.244 3.01516 21.461 3.08616 21.642 3.23516L14.885 9.13216C14.77 9.01516 14.446 8.93715 14.252 9.09215C12.874 10.1932 10.092 12.2711 9.72301 12.5181C9.27701 12.8171 8.58701 12.9382 8.01101 12.8252C7.43501 12.7122 3.16201 11.9762 3.16201 11.9762C2.72701 11.8962 2.00602 11.4201 2.00002 10.4711C1.99502 9.47815 2.90501 9.05915 4.01601 8.67315Z" fill="black" fill-opacity="0.4"/>
</svg>
