<svg width="24" height="24" viewBox="0 0 24 24" fill="none" xmlns="http://www.w3.org/2000/svg">
<path d="M3.06024 9.55604C2.40984 9.82904 2.00614 10.315 2.00004 11.003C1.99584 11.484 2.32044 12.1301 2.97084 12.3941C3.23874 12.5031 7.00024 13.009 7.00024 13.009C7.00024 13.009 7.99584 16.156 8.35464 17.262C8.45854 17.582 8.51774 17.739 8.74574 17.948C9.13254 18.302 9.78644 18.1911 10.0692 17.9071C10.8174 17.1571 12 16 12 16L12.4977 16.405C12.4977 16.405 14.7078 18.168 15.9159 18.998C16.6272 19.487 17.1209 19.997 17.9215 20C18.3293 20.002 18.9834 19.799 19.4158 19.304C19.7015 18.977 19.8848 18.454 19.9557 17.985C20.1169 16.92 22.008 5.40404 22 5.00104C21.9872 4.35804 21.4463 3.99603 20.9967 4.00003C20.7143 4.00303 20.4816 4.08504 19.9638 4.24304C15.9584 5.46605 3.32554 9.44504 3.06024 9.55604ZM18 7.00004C18 7.00004 12.722 11.594 10.6129 13.708C9.93724 14.385 9.88954 15.547 9.88954 15.547L8.79934 12.059L18 7.00004Z" fill="black" fill-opacity="0.4"/>
<path d="M18 7C18 7 12.722 11.594 10.6129 13.708C9.93721 14.385 9.88951 15.547 9.88951 15.547L8.79932 12.059L18 7Z" fill="black"/>
</svg>
