<svg width="40" height="40" viewBox="0 0 40 40" fill="none" xmlns="http://www.w3.org/2000/svg">
<path opacity="0.3" d="M13 28C9.68629 28 7 25.3137 7 22C7 19.0934 9.0658 16.6715 11.8087 16.1185C11.9672 16.0865 12.0668 15.9577 12.0805 15.8618C12.6337 11.9823 15.9677 9 20 9C24.0323 9 27.3663 11.9823 27.9195 15.8618C27.9332 15.9577 28.0328 16.0865 28.1913 16.1185C30.9342 16.6715 33 19.0934 33 22C33 25.3137 30.3137 28 27 28H24.2321H15.2679H13Z" fill="black"/>
<path d="M20.6 22.2001C21.0418 22.5314 21.1314 23.1582 20.8 23.6001L19 26.0001H22.5C22.8788 26.0001 23.225 26.2141 23.3944 26.5528C23.5638 26.8916 23.5273 27.297 23.3 27.6001L20.3 31.6001C19.9686 32.0419 19.3418 32.1314 18.9 31.8001C18.4582 31.4687 18.3686 30.8419 18.7 30.4001L20.5 28.0001H17C16.6212 28.0001 16.275 27.7861 16.1056 27.4473C15.9362 27.1085 15.9727 26.7031 16.2 26.4001L19.2 22.4001C19.5314 21.9582 20.1582 21.8687 20.6 22.2001Z" fill="black"/>
</svg>
