<svg width="40" height="40" viewBox="0 0 40 40" fill="none" xmlns="http://www.w3.org/2000/svg">
<path opacity="0.3" d="M20 10.52C13.9026 10.52 9 15.5748 9 21.76C9 27.9452 13.9026 33 20 33C26.0974 33 31 27.9452 31 21.76C31 15.5748 26.0974 10.52 20 10.52Z" fill="black"/>
<path fill-rule="evenodd" clip-rule="evenodd" d="M16.6666 7C16.1143 7 15.6666 7.44772 15.6666 8C15.6666 8.55228 16.1143 9 16.6666 9H23.3333C23.8856 9 24.3333 8.55228 24.3333 8C24.3333 7.44772 23.8856 7 23.3333 7H16.6666Z" fill="black"/>
<path d="M21 15.5241C21 14.9718 20.5522 14.5241 20 14.5241C19.4477 14.5241 19 14.9718 19 15.5241V21.0028C19 21.7761 19.343 22.5145 19.9436 23.0066L23.2124 25.6843C23.6396 26.0343 24.2697 25.9717 24.6197 25.5445C24.9697 25.1172 24.9071 24.4872 24.4798 24.1372L21.2111 21.4594C21.0818 21.3536 21 21.1867 21 21.0028V15.5241Z" fill="black"/>
</svg>
