<svg width="40" height="40" viewBox="0 0 40 40" fill="none" xmlns="http://www.w3.org/2000/svg">
<path opacity="0.3" fill-rule="evenodd" clip-rule="evenodd" d="M20.5 7.0001L20.3649 7.00005C19.6097 6.9996 19.0392 6.99926 18.5441 7.13268C17.2088 7.49251 16.1693 8.54029 15.8131 9.87725C15.681 10.3731 15.6813 10.9446 15.6818 11.7054L15.6818 11.8401V12.2801H10C9.44772 12.2801 9 12.7278 9 13.2801C9 13.8324 9.44772 14.2801 10 14.2801H11.0513L12.2769 26.6062C12.3707 27.5496 12.4468 28.315 12.5574 28.9343C12.6717 29.5744 12.8346 30.1356 13.1422 30.6505C13.6317 31.4699 14.3523 32.1261 15.2135 32.5353C15.7552 32.7927 16.3285 32.9002 16.9744 32.9509C17.5988 33 18.3641 33 19.3065 33H21.6935C22.6359 33 23.4012 33 24.0256 32.9509C24.6715 32.9002 25.2448 32.7927 25.7865 32.5353C26.6477 32.1261 27.3683 31.4699 27.8578 30.6505C28.1654 30.1356 28.3283 29.5744 28.4426 28.9343C28.5463 28.3537 28.6196 27.6447 28.7057 26.781L28.7231 26.6061L29.9487 14.2801H31C31.5523 14.2801 32 13.8324 32 13.2801C32 12.7278 31.5523 12.2801 31 12.2801H25.3182V11.8401L25.3182 11.7054C25.3187 10.9446 25.319 10.3731 25.1869 9.87725C24.8307 8.54029 23.7912 7.49251 22.4559 7.13268C21.9608 6.99926 21.3903 6.9996 20.6351 7.00005L20.5 7.0001ZM17.6818 11.8401V12.2801H23.3182V11.8401C23.3182 10.8833 23.3097 10.6 23.2543 10.3921C23.0809 9.74137 22.5767 9.23656 21.9355 9.06378C21.7314 9.00878 21.4524 9.0001 20.5 9.0001C19.5476 9.0001 19.2686 9.00878 19.0645 9.06378C18.4233 9.23656 17.9191 9.74137 17.7457 10.3921C17.6903 10.6 17.6818 10.8833 17.6818 11.8401Z" fill="black"/>
<path d="M24.836 17.699C24.8907 17.1494 24.4895 16.6596 23.9399 16.605C23.3903 16.5503 22.9005 16.9515 22.8459 17.5011L21.8913 27.1011C21.8367 27.6506 22.2379 28.1405 22.7875 28.1951C23.337 28.2497 23.8269 27.8485 23.8815 27.299L24.836 17.699Z" fill="black"/>
<path d="M18.1542 17.5011C18.0996 16.9515 17.6098 16.5503 17.0602 16.605C16.5106 16.6596 16.1094 17.1494 16.164 17.699L17.1186 27.299C17.1732 27.8485 17.663 28.2497 18.2126 28.1951C18.7622 28.1405 19.1634 27.6506 19.1088 27.1011L18.1542 17.5011Z" fill="black"/>
</svg>
