<svg width="40" height="40" viewBox="0 0 40 40" fill="none" xmlns="http://www.w3.org/2000/svg">
<path opacity="0.3" d="M26.6573 9.08092C25.658 8.99999 24.4169 8.99999 22.8439 9H18.1561C16.5831 8.99999 15.342 8.99999 14.3427 9.08092C13.3227 9.16353 12.4674 9.33535 11.6887 9.72866C10.4193 10.3698 9.38566 11.3937 8.73731 12.6551C8.26123 13.5814 8.07235 14.4516 8.01028 15.7344C7.9766 16.4305 8.53422 17 9.2172 17C15.7239 17 21 22.282 21 28.7902C21 29.4606 21.5444 30 22.2103 30C23.7583 29.9998 25.1578 29.9969 26.3227 29.9146C27.4611 29.8342 28.5187 29.6717 29.3113 29.2713C30.5807 28.6302 31.6143 27.6063 32.2627 26.3449C32.661 25.57 32.8348 24.7189 32.9183 23.7059C33 22.7142 33 21.483 33 19.9246V19.0754C33 17.517 33 16.2858 32.9183 15.2941C32.8348 14.2811 32.661 13.43 32.2627 12.6551C31.6143 11.3937 30.5807 10.3698 29.3113 9.72866C28.5326 9.33535 27.6773 9.16353 26.6573 9.08092Z" fill="black"/>
<path d="M9.01614 19.0001C8.46393 18.9912 8.00903 19.4316 8.00011 19.9838C7.99119 20.5361 8.43161 20.9909 8.98382 20.9999C9.994 21.0162 11.5444 21.2289 12.3701 21.5709C13.7405 22.1386 14.9119 23.0999 15.736 24.3332C16.5325 25.5252 17 27.4602 17 29C17 29.5523 17.4477 30 18 30C18.5523 30 19 29.5523 19 29C19 27.1775 18.4705 24.8257 17.3989 23.2221C16.3551 21.6598 14.8714 20.4422 13.1355 19.7231C11.974 19.2421 10.1351 19.0182 9.01614 19.0001Z" fill="black"/>
<path d="M9.01614 23.0001C8.46393 22.9912 8.00903 23.4316 8.00011 23.9838C7.99119 24.5361 8.43161 24.9909 8.98382 24.9999C9.52086 25.0086 10.3181 25.1242 10.7022 25.2833C11.3823 25.5651 11.9637 26.0421 12.3727 26.6543C12.754 27.225 13 28.2074 13 29C13 29.5523 13.4477 30 14 30C14.5523 30 15 29.5523 15 29C15 27.9247 14.692 26.5255 14.0356 25.5431C13.4068 24.6021 12.5132 23.8687 11.4676 23.4356C10.7477 23.1374 9.66198 23.0106 9.01614 23.0001Z" fill="black"/>
<path d="M11.168 28.4286C11.168 29.2965 10.4588 30 9.58398 30C8.70916 30 7.99998 29.2965 7.99998 28.4286C7.99998 27.5607 8.70916 26.8572 9.58398 26.8572C10.4588 26.8572 11.168 27.5607 11.168 28.4286Z" fill="black"/>
</svg>
