<svg width="40" height="40" viewBox="0 0 40 40" fill="none" xmlns="http://www.w3.org/2000/svg">
<path opacity="0.3" fill-rule="evenodd" clip-rule="evenodd" d="M11.0222 9C9.35284 9.00001 8 10.3433 8 12C8 12.5523 8.4477 13 8.99996 13H12.0357C13.1545 13 14 13.93 14 15C14 16.07 13.1545 17 12.0357 17H9C8.44772 17 8 17.4477 8 18C8 18.5523 8.44772 19 9 19H13.0061C14.1131 19 15 19.9012 15 21C15 22.0988 14.1131 23 13.0061 23H9C8.44772 23 8 23.4477 8 24V25.6739C8 27.0467 8.91887 28.1844 10.1494 28.5922C10.5116 29.9843 11.7993 31 13.3107 31C14.7481 31 15.9831 30.0814 16.4122 28.7941H28.8164C29.2455 30.0814 30.4805 31 31.9179 31C33.3552 31 34.5902 30.0814 35.0193 28.7941L35.2213 28.7941C35.5085 28.7941 35.7806 28.7942 36.0097 28.7759C36.2589 28.756 36.5438 28.7096 36.8288 28.5676C37.2294 28.368 37.5578 28.0481 37.7645 27.6512C37.9123 27.3675 37.9606 27.0834 37.9812 26.8365C38.0001 26.6106 38 26.3428 38 26.0627V24.5145C38 23.1622 38 22.0854 37.9274 21.2163C37.853 20.3257 37.6972 19.5649 37.3343 18.8683C36.7492 17.7451 35.8169 16.8346 34.6737 16.2649C33.9666 15.9125 33.1943 15.761 32.2869 15.6885C31.4002 15.6176 30.3007 15.6176 28.9166 15.6176H27.8458C27.8391 15.0366 27.8232 14.5269 27.7858 14.0786C27.719 13.2799 27.5786 12.5872 27.2464 11.9495C26.7153 10.9301 25.8694 10.104 24.8323 9.58716C24.1854 9.26482 23.4828 9.12832 22.6694 9.06333C21.8767 8.99998 20.8956 8.99999 19.6689 9L11.0222 9ZM13.3107 26.5882C12.6159 26.5882 12.0754 27.1293 12.063 27.7709L12.0628 27.7941C12.0628 28.4462 12.6075 29 13.3107 29C14.014 29 14.5587 28.4462 14.5587 27.7941C14.5587 27.142 14.014 26.5882 13.3107 26.5882ZM31.9179 26.5882C31.2146 26.5882 30.6699 27.142 30.6699 27.7941C30.6699 28.4462 31.2146 29 31.9179 29C32.6211 29 33.1658 28.4462 33.1658 27.7941C33.1658 27.142 32.6212 26.5882 31.9179 26.5882Z" fill="black"/>
<path d="M5 15C5 14.4477 5.44772 14 6 14H12.2963C12.8486 14 13.2963 14.4477 13.2963 15C13.2963 15.5523 12.8486 16 12.2963 16H6C5.44772 16 5 15.5523 5 15Z" fill="black"/>
<path d="M2 21C2 20.4477 2.44772 20 3 20H13.0741C13.6264 20 14.0741 20.4477 14.0741 21C14.0741 21.5523 13.6264 22 13.0741 22H3C2.44772 22 2 21.5523 2 21Z" fill="black"/>
</svg>
