<svg width="40" height="40" viewBox="0 0 40 40" fill="none" xmlns="http://www.w3.org/2000/svg">
<path fill-rule="evenodd" clip-rule="evenodd" d="M18.3604 9C19.611 8.99999 20.6081 8.99999 21.4132 9.06317C22.2378 9.12789 22.9466 9.26351 23.5987 9.58267C24.6475 10.0961 25.5078 10.919 26.0495 11.9403C26.3889 12.5801 26.5324 13.2757 26.6005 14.0764C26.6387 14.5256 26.6549 15.0361 26.6617 15.6176V17.1554C26.6617 23.5833 21.4508 28.7941 15.0229 28.7941C14.5868 30.0925 13.3249 31 11.8889 31C10.4096 31 9.1151 30.037 8.71773 28.6758C8.11401 28.5963 7.57317 28.4587 7.06797 28.2114C6.01912 27.6981 5.15884 26.8751 4.61714 25.8538C4.27778 25.214 4.13428 24.5185 4.06617 23.7177C3.99998 22.9395 3.99999 21.9775 4 20.7801V17.014C3.99999 15.8166 3.99998 14.8546 4.06617 14.0764C4.13428 13.2757 4.27778 12.5801 4.61714 11.9403C5.15884 10.919 6.01911 10.0961 7.06797 9.58267C7.72004 9.26351 8.42891 9.12789 9.2535 9.06317C10.0586 8.99999 11.0557 8.99999 12.3063 9H18.3604ZM10.5928 27.7714C10.6049 27.1526 11.144 26.5882 11.8889 26.5882C12.6431 26.5882 13.1852 27.1656 13.1852 27.7941C13.1852 28.4226 12.6431 29 11.8889 29C11.1347 29 10.5926 28.4226 10.5926 27.7941L10.5928 27.7714Z" fill="black"/>
<path opacity="0.3" fill-rule="evenodd" clip-rule="evenodd" d="M27.6993 28.7941C28.1353 30.0925 29.3972 31 30.8333 31C32.2693 31 33.5312 30.0925 33.9673 28.7941H34.1955C34.4889 28.7942 34.7641 28.7942 34.9953 28.7761C35.2455 28.7564 35.529 28.711 35.8127 28.5721C36.2134 28.376 36.5468 28.0592 36.7582 27.6605C36.9099 27.3746 36.9595 27.0876 36.9807 26.8386C37 26.6116 37 26.3429 36.9999 26.0633L36.9999 24.2632C36.9997 23.0281 36.9953 22.03 36.926 21.2143C36.85 20.3215 36.6909 19.5579 36.3202 18.8591C35.7235 17.734 34.7754 16.8267 33.6185 16.2605C32.9051 15.9112 32.1253 15.7606 31.205 15.6884C30.3042 15.6177 29.1866 15.6177 27.7756 15.6177H14.6616V28.7941H27.6993ZM29.537 27.7941C29.537 27.1656 30.0791 26.5883 30.8333 26.5883C31.5874 26.5883 32.1296 27.1656 32.1296 27.7941C32.1296 28.4227 31.5874 29 30.8333 29C30.0791 29 29.537 28.4227 29.537 27.7941Z" fill="black"/>
</svg>
