<svg width="40" height="40" viewBox="0 0 40 40" fill="none" xmlns="http://www.w3.org/2000/svg">
<g opacity="0.3">
<path d="M7 15C7 11.134 10.134 8 14 8H26C29.866 8 33 11.134 33 15V19C33 22.866 29.866 26 26 26H24H22H18H16H14C10.134 26 7 22.866 7 19V15Z" fill="black"/>
<path d="M24 27H25C26.1046 27 27 27.8954 27 29V30C27 31.1046 26.1046 32 25 32H15C13.8954 32 13 31.1046 13 30V29C13 27.8954 13.8954 27 15 27H16H18H22H24Z" fill="black"/>
</g>
<path d="M24 26V27H22V26H24Z" fill="black"/>
<path d="M16 27V26H18V27H16Z" fill="black"/>
</svg>
