<svg width="24" height="24" viewBox="0 0 24 24" fill="none" xmlns="http://www.w3.org/2000/svg">
<path d="M14.999 3C12.099 2.996 9.99902 5.424 9.99902 8C9.99902 8 7.34902 7.56098 4.84401 5.34198C4.44801 4.99098 4.04601 5 3.99901 5C3.47401 5 2.99801 5.432 2.99901 6C3.00001 6.406 2.99901 8.141 2.99901 8.599C2.99901 9.743 3.366 10.721 3.954 11.526C3.954 11.534 3.954 11.523 3.954 12.382C3.954 13.913 4.54101 15.079 5.63601 15.691C5.34401 16.121 4.62602 16.505 3.99602 16.743C3.57802 16.902 3.19801 16.997 3.00801 16.999C2.44501 17.007 2.00302 17.477 2.00002 18.002C1.99702 18.526 2.36401 18.784 2.60201 18.943C2.99001 19.203 3.50302 19.359 3.99602 19.502C5.14702 19.835 6.39 20 7.678 20C14.033 20 19.274 15.241 19.934 9.04602C19.934 9.04602 20.152 8.36899 20.679 7.76099C21.207 7.15299 21.999 6.69098 21.999 6.69098L20.084 6.64801L21.335 4.896C21.335 4.896 19.28 5.327 18.999 5C18.07 3.731 16.438 3.002 14.999 3ZM16.999 6C17.551 6 17.999 6.44699 17.999 6.99799C17.999 7.54999 17.551 7.99701 16.999 7.99701C16.447 7.99701 15.999 7.54999 15.999 6.99799C15.999 6.44699 16.447 6 16.999 6Z" fill="black" fill-opacity="0.4"/>
<circle cx="17" cy="7" r="1" fill="black"/>
</svg>
