<svg width="24" height="24" viewBox="0 0 24 24" fill="none" xmlns="http://www.w3.org/2000/svg">
<path d="M15.9868 3C13.2538 3 10.9868 5.21799 10.9868 7.93799C10.9868 8.29099 11.0038 8.39402 11.0038 8.62402C8.64575 8.50802 7.13474 7.72303 4.94175 5.54303C4.74575 5.34903 4.49276 5.254 4.23676 5.25C4.19076 5.249 4.03676 5.25 3.98676 5.25C3.43476 5.25 2.98676 5.698 2.98676 6.25C2.98676 6.679 2.98676 8.517 2.98676 9C2.98676 10.208 3.38874 11.347 4.00974 12.197C4.00974 12.205 3.98676 12.094 3.98676 13C3.98676 14.55 4.61676 15.71 5.66376 16.4C5.31876 16.938 4.38574 17.326 3.64374 17.656C3.13977 17.8796 2.3381 18.0425 2.08076 18.594C1.98429 18.8083 1.96933 19.0918 2.04975 19.313C2.12933 19.5424 2.35539 19.8094 2.58075 19.906C4.18175 20.627 6.04776 21 7.98676 21C14.6848 21 20.2377 16.162 20.9897 9.26001L21.8937 7.43799C22.2257 6.77299 21.7307 6 20.9867 6C21.0087 6 20.9807 6.00099 20.8937 5.96899C20.6987 5.89599 20.4797 5.737 20.2687 5.5C20.1767 5.397 20.0737 5.29201 19.9867 5.15601C19.0407 3.79401 17.6137 3 15.9868 3ZM15.9868 5C16.9417 5 17.7717 5.446 18.3307 6.25C18.4517 6.442 18.6037 6.65999 18.7687 6.84399C19.0437 7.15299 19.9687 7.49298 19.9687 7.49298C19.9687 7.49298 19.4157 8.53101 18.9967 9.01501C18.4677 14.648 13.7778 19 7.98676 19C7.29576 19 6.33676 18.986 5.43976 18.821C7.30576 18.263 8.98676 16.276 8.98676 16C6.99876 16 6.25975 14.598 6.06775 13.688C6.65275 13.91 8.21076 14.074 9.00476 13.496C6.06776 12.305 4.98676 10.806 4.98676 9C4.98676 8.874 4.98676 8.54301 4.98676 8.28101C7.16376 10.1 8.93775 10.642 11.9908 10.62C12.3598 10.618 12.9898 10.348 12.9868 9.625C12.9858 9.347 12.9868 9.21199 12.9868 7.93799C12.9868 6.33299 14.3478 5 15.9868 5Z" fill="black" fill-opacity="0.4"/>
<path d="M16 8C16 7.44772 16.4477 7 17 7V7C17.5523 7 18 7.44772 18 8V8C18 8.55228 17.5523 9 17 9V9C16.4477 9 16 8.55228 16 8V8Z" fill="black"/>
</svg>
