<svg width="24" height="24" viewBox="0 0 24 24" fill="none" xmlns="http://www.w3.org/2000/svg">
<path d="M10 3C9.268 3 8.67201 3.00901 7.68701 3.78139C7.08201 4.25663 5.993 5.4042 4.625 6.78289C3.068 8.35267 3 8.72184 3 9.97246C3 11.2231 3 15.006 3 15.006C3 17.2161 4.791 19.008 7 19.008V21.009C7 21.8374 7.93499 22.2926 8.59399 21.7904L12.25 19.008H15C15.265 19.008 15.531 18.9139 15.719 18.7268L20.719 13.7243C20.909 13.5332 21.003 13.2741 21 13.005L20.937 7.00199C20.938 4.8039 19.147 3 16.937 3H10ZM10 5.001H16.937C18.042 5.001 18.938 5.89644 18.937 7.00199L19 12.5668L16.562 15.006H14C11 17.007 11 17.007 11 17.007V15.006C11 15.006 10.552 15.006 10 15.006C8.895 15.006 8 14.1105 8 13.005C8 13.005 8 8.43971 8 7.00199C8 5.89644 8.895 5.001 10 5.001Z" fill="black" fill-opacity="0.4"/>
<path fill-rule="evenodd" clip-rule="evenodd" d="M16.937 5.00098H10C8.895 5.00098 8 5.89598 8 7.00098V13.001C8 14.106 8.895 15.001 10 15.001H11V17.001L14 15.001H16.562L19 12.563L18.937 7.00098C18.938 5.89598 18.042 5.00098 16.937 5.00098ZM11 7.99901C11 7.44701 11.448 6.99901 12 6.99901C12.552 6.99901 13 7.44701 13 7.99901V9.99901C13 10.551 12.552 10.999 12 10.999C11.448 10.999 11 10.551 11 9.99901V7.99901ZM15 7.99901C15 7.44701 15.448 6.99901 16 6.99901C16.552 6.99901 17 7.44701 17 7.99901V9.99901C17 10.551 16.552 10.999 16 10.999C15.448 10.999 15 10.551 15 9.99901V7.99901Z" fill="black"/>
</svg>
