<svg width="40" height="40" viewBox="0 0 40 40" fill="none" xmlns="http://www.w3.org/2000/svg">
<path opacity="0.3" d="M20 33C16.2754 33 14.4131 33 12.9218 32.4572C10.4219 31.5473 8.45265 29.5781 7.54277 27.0782C7 25.5869 7 23.7246 7 20C7 16.2754 7 14.4131 7.54277 12.9218C8.45265 10.4219 10.4219 8.45265 12.9218 7.54277C14.4131 7 16.2754 7 20 7C23.7246 7 25.5869 7 27.0782 7.54277C29.5781 8.45265 31.5473 10.4219 32.4572 12.9218C33 14.4131 33 16.2754 33 20C33 23.7246 33 25.5869 32.4572 27.0782C31.5473 29.5781 29.5781 31.5473 27.0782 32.4572C25.5869 33 23.7246 33 20 33Z" fill="black"/>
<path d="M15.2905 15.2118C15.5645 14.9399 15.5705 14.493 15.3039 14.2136C15.0373 13.9342 14.5989 13.9281 14.3249 14.2L11.2095 17.2906C11.0756 17.4235 11 17.6059 11 17.7965C11 17.9871 11.0756 18.1695 11.2095 18.3024L14.3249 21.393C14.5989 21.6649 15.0373 21.6588 15.3039 21.3794C15.5705 21.1 15.5645 20.6531 15.2905 20.3812L13.3966 18.5024H24.631C26.2792 18.5024 27.6154 19.8647 27.6154 21.5453C27.6154 23.2259 26.2792 24.5882 24.631 24.5882H13.0769C12.6946 24.5882 12.3846 24.9043 12.3846 25.2941C12.3846 25.684 12.6946 26 13.0769 26H24.631C27.0439 26 29 24.0056 29 21.5453C29 19.0851 27.0439 17.0906 24.631 17.0906H13.3966L15.2905 15.2118Z" fill="black"/>
</svg>
