<svg width="40" height="40" viewBox="0 0 40 40" fill="none" xmlns="http://www.w3.org/2000/svg">
<path opacity="0.3" fill-rule="evenodd" clip-rule="evenodd" d="M26.1905 6.99998L26.0554 6.99993C25.3022 6.99948 24.7324 6.99914 24.2379 7.13271C22.904 7.49297 21.8671 8.54152 21.5119 9.87768C21.3801 10.3732 21.3805 10.9445 21.3809 11.7054L21.3809 11.8028C20.9368 11.8 20.4607 11.8 19.9493 11.8H19.0983C17.5359 11.8 16.3016 11.8 15.3076 11.8818C14.2923 11.9655 13.4395 12.1395 12.6632 12.5382C11.3992 13.1874 10.373 14.2225 9.73036 15.4939C9.33617 16.2737 9.16394 17.1303 9.08112 18.152C8.99999 19.153 8.99999 20.3963 9 21.972V22.8279C8.99999 24.4037 8.99999 25.647 9.08112 26.6479C9.16394 27.6696 9.33617 28.5263 9.73036 29.3061C10.373 30.5774 11.3992 31.6125 12.6632 32.2617C13.4395 32.6604 14.2923 32.8345 15.3076 32.9181C16.3017 33 17.5359 33 19.0983 33H19.9493C21.5117 33 22.746 33 23.74 32.9181C24.7553 32.8345 25.6081 32.6604 26.3844 32.2617C27.6484 31.6125 28.6746 30.5774 29.3173 29.3061C29.7114 28.5263 29.8837 27.6696 29.9665 26.6479C30.0476 25.6469 30.0476 24.4036 30.0476 22.8279V21.9721C30.0476 20.3963 30.0476 19.153 29.9665 18.152C29.8837 17.1303 29.7114 16.2737 29.3173 15.4939C28.6746 14.2225 27.6484 13.1874 26.3844 12.5382C25.6081 12.1395 24.7553 11.9655 23.74 11.8818C23.6236 11.8723 23.504 11.8638 23.381 11.8563V11.84C23.381 10.8833 23.3894 10.5996 23.4447 10.3915C23.6179 9.73992 24.1212 9.23587 24.7594 9.06352C24.9623 9.0087 25.2399 8.99998 26.1905 8.99998C27.141 8.99998 27.4186 9.0087 27.6216 9.06352C28.2597 9.23587 28.763 9.73992 28.9362 10.3915C28.9915 10.5996 29 10.8833 29 11.84C29 12.3923 29.4477 12.84 30 12.84C30.5523 12.84 31 12.3923 31 11.84L31 11.7054C31.0005 10.9445 31.0008 10.3732 30.8691 9.87768C30.5139 8.54152 29.4769 7.49297 28.1431 7.13271C27.6485 6.99914 27.0787 6.99948 26.3256 6.99993L26.1905 6.99998ZM15.6667 21.248C15.6667 19.1545 17.4519 17.56 19.5238 17.56C21.5957 17.56 23.381 19.1545 23.381 21.248C23.381 22.0694 23.0993 22.8257 22.6317 23.4331C22.5942 23.4818 22.5577 23.523 22.5293 23.5537C22.5194 23.5645 22.5095 23.575 22.5 23.5849V24.608C22.5 25.5239 21.7613 26.28 20.8333 26.28H18.1667C17.2387 26.28 16.5 25.5239 16.5 24.608V23.5358L16.489 23.523C16.4686 23.4989 16.4427 23.4679 16.4159 23.4331C15.9483 22.8257 15.6667 22.0694 15.6667 21.248Z" fill="black"/>
<path d="M17.6667 21.2479C17.6667 20.3723 18.4398 19.5599 19.5238 19.5599C20.6079 19.5599 21.381 20.3723 21.381 21.2479C21.381 21.5978 21.2644 21.9252 21.0564 22.2006C21.0523 22.2049 21.0445 22.213 21.032 22.2257L21.0188 22.2388C20.9897 22.268 20.9367 22.3211 20.8897 22.373C20.8328 22.4357 20.7452 22.5385 20.6693 22.6718C20.5929 22.8059 20.5 23.0204 20.5 23.2934V23.7799C20.5 24.0561 20.2762 24.2799 20 24.2799H19C18.7239 24.2799 18.5 24.0561 18.5 23.7799V23.2934C18.5 22.8617 18.275 22.5526 18.1909 22.4415C18.1384 22.372 18.0848 22.3104 18.0536 22.2746L18.0522 22.273L18.0449 22.2646C18.0308 22.2484 18.0215 22.2378 18.0126 22.2273L18.004 22.217L18.0007 22.213C17.7868 21.9351 17.6667 21.6031 17.6667 21.2479Z" fill="black"/>
</svg>
