<svg width="40" height="40" viewBox="0 0 40 40" fill="none" xmlns="http://www.w3.org/2000/svg">
<path opacity="0.3" fill-rule="evenodd" clip-rule="evenodd" d="M16 7C12.134 7 9 10.134 9 14V26C9 29.866 12.134 33 16 33H24C27.866 33 31 29.866 31 26V14.2426C31 13.1818 30.5786 12.1644 29.8284 11.4142L26.5858 8.17157C25.8356 7.42143 24.8182 7 23.7574 7H16Z" fill="black"/>
<path d="M20.7071 17.2929C20.3166 16.9024 19.6834 16.9024 19.2929 17.2929L16.7929 19.7929C16.4024 20.1834 16.4024 20.8166 16.7929 21.2071C17.1834 21.5976 17.8166 21.5976 18.2071 21.2071L19 20.4142V25C19 25.5523 19.4477 26 20 26C20.5523 26 21 25.5523 21 25V20.4142L21.7929 21.2071C22.1834 21.5976 22.8166 21.5976 23.2071 21.2071C23.5976 20.8166 23.5976 20.1834 23.2071 19.7929L20.7071 17.2929Z" fill="black"/>
<path d="M24 12V9.01477C24.441 9.06866 24.8541 9.26837 25.1716 9.58579L28.4142 12.8284C28.7316 13.1459 28.9313 13.559 28.9852 14H26C24.8954 14 24 13.1046 24 12Z" fill="black"/>
</svg>
