<svg width="40" height="40" viewBox="0 0 40 40" fill="none" xmlns="http://www.w3.org/2000/svg">
<path opacity="0.3" d="M24.4453 7.07844C23.2956 6.99999 21.8695 7 20.0375 7H19.9625C18.1305 7 16.7044 6.99999 15.5547 7.07844C14.3881 7.15803 13.4331 7.32172 12.5558 7.68508C10.3506 8.59853 8.59853 10.3506 7.68508 12.5558C7.32172 13.4331 7.15803 14.3881 7.07844 15.5547C6.99999 16.7044 7 18.1305 7 19.9625V20.0375C7 21.8695 6.99999 23.2956 7.07844 24.4453C7.15803 25.6119 7.32172 26.5669 7.68508 27.4442C8.59853 29.6494 10.3506 31.4015 12.5558 32.3149C12.8327 32.4296 13.1173 32.5244 13.4139 32.6029C14.057 32.7732 14.7563 32.8671 15.5547 32.9216C15.9938 32.9515 16.4731 32.97 17 32.9815C17.8528 33 18.8301 33 19.9624 33H20.0376C21.1699 33 22.1472 33 23 32.9815C23.5269 32.97 24.0062 32.9515 24.4453 32.9216C25.243 32.8671 25.9417 32.7734 26.5844 32.6034C26.8816 32.5248 27.1667 32.4298 27.4442 32.3149C29.6494 31.4015 31.4015 29.6494 32.3149 27.4442C32.6783 26.5669 32.842 25.6119 32.9216 24.4453C33 23.2956 33 21.8696 33 20.0376V19.9624C33 18.1304 33 16.7044 32.9216 15.5547C32.842 14.3881 32.6783 13.4331 32.3149 12.5558C31.4015 10.3506 29.6494 8.59853 27.4442 7.68508C26.5669 7.32172 25.6119 7.15803 24.4453 7.07844Z" fill="black"/>
<path d="M19.9624 33H20.0375C21.1699 33 22.1472 33 23 32.9815C23.5269 32.97 24.0062 32.9515 24.4453 32.9216C25.243 32.8671 25.9417 32.7734 26.5844 32.6034C26.8512 32.3995 27.0113 32.0635 26.9986 31.6999C26.9812 31.1981 26.9494 30.7219 26.8914 30.2686C26.7704 29.3226 26.5437 28.559 26.1553 27.9469C25.4331 26.8089 23.8773 25.7964 19.9865 25.7059C16.1101 25.7081 14.5665 26.7226 13.8476 27.8715C13.4572 28.4954 13.2293 29.2775 13.1078 30.2406C13.0493 30.7041 13.0174 31.1899 13 31.6999C12.9876 32.0633 13.1474 32.399 13.4139 32.6029C14.057 32.7732 14.7563 32.8671 15.5547 32.9216C15.9938 32.9515 16.4731 32.97 17 32.9815C17.8528 33 18.8301 33 19.9624 33Z" fill="black"/>
<path d="M24.9216 18.1765C24.9216 21.0668 22.6873 23.3529 19.9995 23.3529C17.3116 23.3529 15.0773 21.0668 15.0773 18.1765C15.0773 15.2861 17.3116 13 19.9995 13C22.6873 13 24.9216 15.2861 24.9216 18.1765Z" fill="black"/>
</svg>
