<svg width="40" height="40" viewBox="0 0 40 40" fill="none" xmlns="http://www.w3.org/2000/svg">
<path opacity="0.3" fill-rule="evenodd" clip-rule="evenodd" d="M22.9366 8.13914C21.2907 6.62029 18.7094 6.62029 17.0635 8.13914C16.5667 8.59756 15.8707 8.81937 15.1729 8.72782C12.9445 8.43545 10.8203 9.88442 10.4058 12.0941C10.2873 12.726 9.87318 13.2863 9.26082 13.6035C7.25295 14.6434 6.41754 17.0551 7.43068 19.0798C7.72215 19.6623 7.72215 20.3377 7.43068 20.9202C6.41754 22.9449 7.25295 25.3566 9.26082 26.3965C9.87318 26.7137 10.2873 27.274 10.4058 27.9059C10.8203 30.1156 12.9445 31.5645 15.1729 31.2722C15.8707 31.1806 16.5667 31.4024 17.0635 31.8609C18.7094 33.3797 21.2907 33.3797 22.9366 31.8609C23.4334 31.4024 24.1294 31.1806 24.8272 31.2722C27.0556 31.5645 29.1798 30.1156 29.5942 27.9059C29.7128 27.274 30.1269 26.7137 30.7393 26.3965C32.7471 25.3566 33.5825 22.9449 32.5694 20.9202C32.2779 20.3377 32.2779 19.6623 32.5694 19.0798C33.5825 17.0551 32.7471 14.6434 30.7393 13.6035C30.1269 13.2863 29.7128 12.726 29.5942 12.0941C29.1798 9.88442 27.0556 8.43545 24.8272 8.72782C24.1294 8.81937 23.4334 8.59756 22.9366 8.13914Z" fill="black"/>
<path d="M25.3032 17.3754C25.6776 16.9694 25.652 16.3368 25.246 15.9624C24.84 15.588 24.2073 15.6136 23.8329 16.0196L18.4774 21.8274L16.1672 19.3221C15.7928 18.9161 15.1601 18.8905 14.7541 19.2649C14.3481 19.6393 14.3225 20.2719 14.6969 20.6779L17.7422 23.9804C17.9315 24.1857 18.1981 24.3025 18.4774 24.3025C18.7566 24.3025 19.0232 24.1857 19.2125 23.9804L25.3032 17.3754Z" fill="black"/>
</svg>
