<svg width="40" height="40" viewBox="0 0 40 40" fill="none" xmlns="http://www.w3.org/2000/svg">
<path opacity="0.3" d="M18.351 10.0594C17.4801 9.99999 17.4035 10 16.0368 10H14.9632C13.5965 10 12.5199 9.99999 11.649 10.0594C10.7613 10.12 10.0147 10.2456 9.32122 10.5328C7.60602 11.2433 6.2433 12.606 5.53284 14.3212C5.2456 15.0147 5.11997 15.7613 5.05941 16.649C4.99999 17.5199 5 18.5965 5 19.9632V20.0368C5 21.4035 4.99999 22.4801 5.05941 23.351C5.11997 24.2387 5.2456 24.9853 5.53284 25.6788C6.2433 27.394 7.60602 28.7567 9.32122 29.4672C10.0147 29.7544 10.7613 29.88 11.649 29.9406C12.5199 30 13.5965 30 14.9631 30H16.0369C17.4035 30 17.4801 30 18.351 29.9406C19.2387 29.88 19.9853 29.7544 20.6788 29.4672C22.394 28.7567 23.7567 27.394 24.4672 25.6788C24.7544 24.9853 24.88 24.2387 24.9406 23.351C25 22.4801 25 21.4035 25 20.0369V19.9631C25 18.5965 25 17.5199 24.9406 16.649C24.88 15.7613 24.7544 15.0147 24.4672 14.3212C23.7567 12.606 22.394 11.2433 20.6788 10.5328C19.9853 10.2456 19.2387 10.12 18.351 10.0594Z" fill="black"/>
<path d="M32.4505 13.6628C32.1315 13.645 31.8303 13.705 31.5521 13.7795C31.2821 13.8518 30.9577 13.96 30.5809 14.0856L30.5534 14.0948L30.4412 14.1321C29.7674 14.3564 29.2621 14.5245 28.8384 14.7966C27.9861 15.344 27.3732 16.1943 27.1235 17.1759C26.9993 17.664 26.9996 18.1965 26.9999 18.9066L27 19.0249V20.9751L26.9999 21.0934C26.9996 21.8035 26.9993 22.336 27.1235 22.8241C27.3732 23.8057 27.9861 24.656 28.8384 25.2034C29.2621 25.4755 29.7674 25.6437 30.4412 25.8679L30.5534 25.9053L30.5809 25.9144C30.9577 26.04 31.2821 26.1482 31.5521 26.2205C31.8303 26.295 32.1315 26.355 32.4505 26.3372C33.5011 26.2785 34.4219 25.6148 34.8098 24.6367C34.9276 24.3397 34.9659 24.035 34.9832 23.7475C35 23.4685 35 23.1265 35 22.7293V17.2705C35 16.8734 35 16.5315 34.9832 16.2525C34.9659 15.965 34.9276 15.6603 34.8098 15.3634C34.4219 14.3852 33.5011 13.7215 32.4505 13.6628Z" fill="black"/>
</svg>
