<svg width="40" height="40" viewBox="0 0 40 40" fill="none" xmlns="http://www.w3.org/2000/svg">
<path opacity="0.3" d="M20 32C23.1826 32 26.2348 30.7357 28.4853 28.4853C30.7357 26.2348 32 23.1826 32 20C32 16.8174 30.7357 13.7652 28.4853 11.5147C26.2348 9.26428 23.1826 8 20 8" stroke="black" stroke-width="2"/>
<path d="M20 32C13.3726 32 8 26.6274 8 20C8 13.3726 13.3726 8 20 8" stroke="black" stroke-width="2" stroke-linecap="round" stroke-dasharray="5 3"/>
<path fill-rule="evenodd" clip-rule="evenodd" d="M19.3931 24.7293L21.6026 23.2022C20.6296 22.4726 20 21.3098 20 20C20 18.6902 20.6296 17.5274 21.6026 16.7978L19.3931 15.2707C18.3702 14.5637 17 15.3239 17 16.5985L17 23.4015C17 24.6761 18.3702 25.4363 19.3931 24.7293Z" fill="black"/>
<path opacity="0.3" d="M24.3146 21.3279C25.2285 20.6962 25.2285 19.3039 24.3146 18.6723L21.6026 16.7979C20.6296 17.5275 20 18.6903 20 20.0001C20 21.3099 20.6296 22.4727 21.6026 23.2023L24.3146 21.3279Z" fill="black"/>
</svg>
