<svg width="40" height="40" viewBox="0 0 40 40" fill="none" xmlns="http://www.w3.org/2000/svg">
<g opacity="0.3">
<path d="M19.351 29.9406C20.2387 29.88 20.9853 29.7544 21.6788 29.4672C23.1087 28.8749 24.2937 27.8292 25.0599 26.5039L9.15862 10.6026C7.51999 11.3303 6.2207 12.6606 5.53284 14.3212C5.2456 15.0147 5.11997 15.7613 5.05941 16.649C4.99999 17.5199 5 18.5965 5 19.9632V20.0368C5 21.4035 4.99999 22.4801 5.05941 23.351C5.11997 24.2387 5.2456 24.9853 5.53284 25.6788C6.2433 27.394 7.60602 28.7567 9.32122 29.4672C10.0147 29.7544 10.7613 29.88 11.649 29.9406C12.5199 30 13.5965 30 14.9631 30H16.0369C17.4035 30 18.4801 30 19.351 29.9406Z" fill="black"/>
<path fill-rule="evenodd" clip-rule="evenodd" d="M14.9632 10C14.4129 10 13.9096 10 13.4479 10.0039L25.9789 22.5349C26 21.8278 26 21.0051 26 20.0369V19.9631C26 18.5965 26 17.5199 25.9406 16.649C25.88 15.7613 25.7544 15.0147 25.4672 14.3212C24.7567 12.606 23.394 11.2433 21.6788 10.5328C20.9853 10.2456 20.2387 10.12 19.351 10.0594C18.4801 9.99999 17.4035 10 16.0368 10H14.9632Z" fill="black"/>
</g>
<path d="M9.30358 8.74759L31.2569 30.701C31.6557 31.0997 32.3022 31.0997 32.701 30.701C33.0997 30.3022 33.0997 29.6557 32.701 29.257L13.4479 10.0039L13.444 10L10.7476 7.30358L10.7435 7.29949C10.3444 6.90483 9.70097 6.9062 9.30358 7.30358C8.90483 7.70233 8.90483 8.34884 9.30358 8.74759Z" fill="black"/>
<path d="M32.4505 13.6629C32.1315 13.6451 31.8303 13.7051 31.5521 13.7796C31.2821 13.8519 30.9577 13.96 30.5809 14.0856L30.5534 14.0948L30.4412 14.1322C29.7674 14.3564 29.2621 14.5245 28.8384 14.7967C27.9861 15.3441 27.3732 16.1944 27.1235 17.176C26.9993 17.6641 26.9996 18.1965 26.9999 18.9067L27 19.025V20.9751L26.9999 21.0934C26.9996 21.8036 26.9993 22.336 27.1235 22.8241C27.3732 23.8058 27.9861 24.6561 28.8384 25.2034C29.2621 25.4756 29.7674 25.6437 30.4412 25.8679L30.5534 25.9053L30.5809 25.9145C30.9577 26.0401 31.2821 26.1482 31.5521 26.2205C31.8303 26.295 32.1315 26.355 32.4505 26.3372C33.5011 26.2786 34.4219 25.6149 34.8098 24.6367C34.9276 24.3398 34.9659 24.035 34.9832 23.7476C35 23.4685 35 23.1266 35 22.7294V17.2706C35 16.8735 35 16.5316 34.9832 16.2526C34.9659 15.9651 34.9276 15.6603 34.8098 15.3634C34.4219 14.3852 33.5011 13.7215 32.4505 13.6629Z" fill="black"/>
</svg>
