<svg width="24" height="24" viewBox="0 0 24 24" fill="none" xmlns="http://www.w3.org/2000/svg">
<path d="M12 2C6.477 2 2 6.47699 2 12C2 17.523 6.477 21.9999 12 21.9999C17.523 21.9999 22 17.523 22 12C22 6.47699 17.523 2 12 2ZM12 4.49999C16.142 4.49999 19.5 7.85798 19.5 12C19.5 12.276 19.276 12.5 19 12.5C18.724 12.5 18.5 12.276 18.5 12C18.5 8.40998 15.59 5.49999 12 5.49999C10.256 5.49999 8.61701 6.19999 7.40601 7.40599C7.21101 7.60099 6.91399 7.60199 6.71899 7.40599C6.52399 7.21099 6.52299 6.882 6.71899 6.687C8.11499 5.296 9.989 4.49999 12 4.49999ZM12 6.49999C15.038 6.49999 17.5 8.96198 17.5 12C17.5 12.276 17.276 12.5 17 12.5C16.724 12.5 16.5 12.276 16.5 12C16.5 9.51498 14.485 7.49998 12 7.49998C10.798 7.49998 9.68099 7.98299 8.84399 8.81199C8.64799 9.00699 8.319 9.00899 8.125 8.81199C7.931 8.61599 7.929 8.28797 8.125 8.09398C9.148 7.08098 10.532 6.49999 12 6.49999ZM12 11C12.552 11 13 11.448 13 12C13 12.552 12.552 13 12 13C11.448 13 11 12.552 11 12C11 11.448 11.448 11 12 11ZM5 11.5C5.276 11.5 5.5 11.724 5.5 12C5.5 15.59 8.41 18.5 12 18.5C13.742 18.5 15.383 17.7979 16.594 16.5939C16.789 16.399 17.086 16.398 17.281 16.5939C17.476 16.7899 17.477 17.118 17.281 17.312C15.885 18.702 14.009 19.4999 12 19.4999C7.858 19.4999 4.5 16.142 4.5 12C4.5 11.724 4.724 11.5 5 11.5ZM7 11.5C7.276 11.5 7.5 11.724 7.5 12C7.5 14.485 9.515 16.5 12 16.5C13.208 16.5 14.349 16.024 15.187 15.187C15.383 14.993 15.68 14.992 15.875 15.187C16.07 15.383 16.071 15.711 15.875 15.906C14.851 16.928 13.475 17.5 12 17.5C8.962 17.5 6.5 15.038 6.5 12C6.5 11.724 6.724 11.5 7 11.5Z" fill="black" fill-opacity="0.4"/>
<path d="M12 4.50004C16.142 4.50004 19.5 7.85803 19.5 12C19.5 12.276 19.276 12.5 19 12.5C18.724 12.5 18.5 12.276 18.5 12C18.5 8.41003 15.59 5.50004 12 5.50004C10.256 5.50004 8.61701 6.20005 7.40601 7.40604C7.21101 7.60104 6.91399 7.60204 6.71899 7.40604C6.52399 7.21104 6.52299 6.88205 6.71899 6.68705C8.11499 5.29605 9.989 4.50004 12 4.50004ZM12 6.50004C15.038 6.50004 17.5 8.96203 17.5 12C17.5 12.276 17.276 12.5 17 12.5C16.724 12.5 16.5 12.276 16.5 12C16.5 9.51503 14.485 7.50004 12 7.50004C10.798 7.50004 9.68099 7.98305 8.84399 8.81204C8.64799 9.00704 8.319 9.00904 8.125 8.81204C7.931 8.61604 7.929 8.28803 8.125 8.09403C9.148 7.08103 10.532 6.50004 12 6.50004ZM12 11C12.552 11 13 11.448 13 12C13 12.552 12.552 13 12 13C11.448 13 11 12.552 11 12C11 11.448 11.448 11 12 11ZM5 11.5C5.276 11.5 5.5 11.724 5.5 12C5.5 15.59 8.41 18.5 12 18.5C13.742 18.5 15.383 17.798 16.594 16.594C16.789 16.399 17.086 16.398 17.281 16.594C17.476 16.79 17.477 17.118 17.281 17.312C15.885 18.702 14.009 19.5 12 19.5C7.858 19.5 4.5 16.142 4.5 12C4.5 11.724 4.724 11.5 5 11.5ZM7 11.5C7.276 11.5 7.5 11.724 7.5 12C7.5 14.485 9.515 16.5 12 16.5C13.208 16.5 14.349 16.024 15.187 15.187C15.383 14.993 15.68 14.992 15.875 15.187C16.07 15.383 16.071 15.711 15.875 15.906C14.851 16.928 13.475 17.5 12 17.5C8.962 17.5 6.5 15.038 6.5 12C6.5 11.724 6.724 11.5 7 11.5Z" fill="black"/>
</svg>
