<svg width="40" height="40" viewBox="0 0 40 40" fill="none" xmlns="http://www.w3.org/2000/svg">
<path opacity="0.3" d="M12.9218 32.4572C14.4131 33 16.2754 33 20 33C23.7246 33 25.5869 33 27.0782 32.4572C29.5781 31.5473 31.5473 29.5781 32.4572 27.0782C33 25.5869 33 23.7246 33 20C33 16.2754 33 14.4131 32.4572 12.9218C31.5473 10.4219 29.5781 8.45265 27.0782 7.54277C25.5869 7 23.7246 7 20 7C16.2754 7 14.4131 7 12.9218 7.54277C10.4219 8.45265 8.45265 10.4219 7.54277 12.9218C7 14.4131 7 16.2754 7 20C7 23.7246 7 25.5869 7.54277 27.0782C8.45265 29.5781 10.4219 31.5473 12.9218 32.4572Z" fill="black"/>
<path d="M20 12C20.4017 12 20.7273 12.3256 20.7273 12.7273V27.2727C20.7273 27.6744 20.4017 28 20 28C19.5983 28 19.2727 27.6744 19.2727 27.2727V12.7273C19.2727 12.3256 19.5983 12 20 12Z" fill="black"/>
<path d="M16.3636 15.6364C16.7653 15.6364 17.0909 15.962 17.0909 16.3636V23.6364C17.0909 24.038 16.7653 24.3636 16.3636 24.3636C15.962 24.3636 15.6364 24.038 15.6364 23.6364V16.3636C15.6364 15.962 15.962 15.6364 16.3636 15.6364Z" fill="black"/>
<path d="M23.6364 15.6364C24.038 15.6364 24.3636 15.962 24.3636 16.3636V23.6364C24.3636 24.038 24.038 24.3636 23.6364 24.3636C23.2347 24.3636 22.9091 24.038 22.9091 23.6364V16.3636C22.9091 15.962 23.2347 15.6364 23.6364 15.6364Z" fill="black"/>
<path d="M12.7273 18.3636C13.1289 18.3636 13.4545 18.6892 13.4545 19.0909V20.9091C13.4545 21.3108 13.1289 21.6364 12.7273 21.6364C12.3256 21.6364 12 21.3108 12 20.9091V19.0909C12 18.6892 12.3256 18.3636 12.7273 18.3636Z" fill="black"/>
<path d="M27.2727 18.3636C27.6744 18.3636 28 18.6892 28 19.0909V20.9091C28 21.3108 27.6744 21.6364 27.2727 21.6364C26.8711 21.6364 26.5455 21.3108 26.5455 20.9091V19.0909C26.5455 18.6892 26.8711 18.3636 27.2727 18.3636Z" fill="black"/>
</svg>
