<svg width="40" height="40" viewBox="0 0 40 40" fill="none" xmlns="http://www.w3.org/2000/svg">
<path opacity="0.3" d="M17 7C11.4772 7 7 11.4772 7 17V23C7 28.5228 11.4772 33 17 33H23C28.5228 33 33 28.5228 33 23V17C33 11.4772 28.5228 7 23 7H17Z" fill="black"/>
<path d="M20 12C20.5523 12 21 12.4477 21 13V27C21 27.5523 20.5523 28 20 28C19.4477 28 19 27.5523 19 27V13C19 12.4477 19.4477 12 20 12Z" fill="black"/>
<path d="M16 15C16.5523 15 17 15.4477 17 16V24C17 24.5523 16.5523 25 16 25C15.4477 25 15 24.5523 15 24V16C15 15.4477 15.4477 15 16 15Z" fill="black"/>
<path d="M24 15C24.5523 15 25 15.4477 25 16V24C25 24.5523 24.5523 25 24 25C23.4477 25 23 24.5523 23 24V16C23 15.4477 23.4477 15 24 15Z" fill="black"/>
<path d="M12 17C12.5523 17 13 17.4477 13 18V22C13 22.5523 12.5523 23 12 23C11.4477 23 11 22.5523 11 22V18C11 17.4477 11.4477 17 12 17Z" fill="black"/>
<path d="M28 17C28.5523 17 29 17.4477 29 18V22C29 22.5523 28.5523 23 28 23C27.4477 23 27 22.5523 27 22V18C27 17.4477 27.4477 17 28 17Z" fill="black"/>
</svg>
