<svg width="40" height="40" viewBox="0 0 40 40" fill="none" xmlns="http://www.w3.org/2000/svg">
<path opacity="0.3" d="M26.3923 11.3398C25.6118 9.6227 23.7543 8.67243 21.9176 9.10243C21.3999 9.22365 20.9092 9.51687 20.4119 9.86741C19.9089 10.222 19.2924 10.7149 18.5191 11.3333L18.4922 11.3548C17.8518 11.8668 17.6001 12.0656 17.3385 12.2237C16.7695 12.5677 16.1403 12.7893 15.4885 12.8766C15.1895 12.9166 14.8742 12.9186 14.0624 12.9186H13.8721L13.7615 12.9186C12.9753 12.9185 12.4961 12.9185 12.1446 12.9629C11.7456 13.0134 11.4748 13.1266 11.1963 13.2431C11.1627 13.2571 11.129 13.2712 11.095 13.2852C9.83708 13.8037 8.8493 14.8244 8.35155 16.1008C8.15622 16.6017 8.0757 17.134 8.0374 17.7388C7.99999 18.3295 7.99999 19.0583 8 19.9665V20.0333C7.99999 20.9415 7.99999 21.6702 8.0374 22.261C8.0757 22.8658 8.15622 23.3981 8.35155 23.8989C8.8493 25.1753 9.83708 26.1961 11.095 26.7145C11.129 26.7286 11.1627 26.7426 11.1963 26.7567C11.4748 26.8732 11.7456 26.9864 12.1446 27.0368C12.4961 27.0813 12.9753 27.0812 13.7615 27.0811L13.8721 27.0811H14.0624C14.8742 27.0811 15.1895 27.0832 15.4885 27.1232C16.1403 27.2104 16.7695 27.4321 17.3385 27.7761C17.6001 27.9342 17.8518 28.133 18.4922 28.6449L18.5192 28.6665C19.2924 29.2849 19.9089 29.7778 20.4119 30.1323C20.9092 30.4829 21.3999 30.7761 21.9176 30.8973C23.7543 31.3273 25.6118 30.3771 26.3923 28.6599C26.6116 28.1773 26.6874 27.6094 26.7235 26.9914C26.76 26.3673 26.76 25.5657 26.76 24.5571V15.4427L26.76 15.2559C26.7598 14.3346 26.7577 13.5935 26.7235 13.0083C26.6874 12.3903 26.6116 11.8225 26.3923 11.3398Z" fill="black"/>
<path fill-rule="evenodd" clip-rule="evenodd" d="M29.2669 15.11C28.8053 14.8067 28.1853 14.9349 27.882 15.3964C27.5786 15.858 27.7069 16.478 28.1684 16.7813C28.7148 17.1405 29.1695 17.6345 29.4899 18.2218C29.8104 18.8093 29.9859 19.4707 29.9992 20.1474C30.0125 20.824 29.8632 21.4925 29.5659 22.0932C29.2687 22.6938 28.8335 23.2068 28.3012 23.5887C27.8525 23.9106 27.7497 24.5354 28.0716 24.9841C28.3936 25.4329 29.0183 25.5356 29.4671 25.2137C30.2691 24.6383 30.9179 23.8705 31.3584 22.9803C31.7989 22.0902 32.0184 21.1037 31.9988 20.108C31.9792 19.1123 31.7211 18.1355 31.2457 17.264C30.7702 16.3924 30.0913 15.6519 29.2669 15.11Z" fill="black"/>
</svg>
