<svg width="40" height="40" viewBox="0 0 40 40" fill="none" xmlns="http://www.w3.org/2000/svg">
<path opacity="0.3" d="M18.5283 7.00004L18.411 7.00002C17.4563 6.99978 16.8107 6.99962 16.1917 7.14824C15.6444 7.27963 15.1212 7.49634 14.6413 7.79042C14.0985 8.12305 13.6421 8.57968 12.9673 9.25486L12.8843 9.33786L9.3378 12.8844L9.2548 12.9673C8.57962 13.6422 8.12299 14.0986 7.79036 14.6414C7.49628 15.1213 7.27957 15.6445 7.14817 16.1918C6.99956 16.8108 6.99972 17.4564 6.99996 18.411L6.99998 18.5284V21.4717L6.99996 21.5891C6.99972 22.5437 6.99956 23.1893 7.14817 23.8083C7.27957 24.3556 7.49628 24.8788 7.79036 25.3587C8.12299 25.9015 8.57963 26.3579 9.25482 27.0328L9.3378 27.1157L12.8843 30.6622L12.9672 30.7452C13.6421 31.4204 14.0985 31.877 14.6413 32.2097C15.1212 32.5037 15.6444 32.7204 16.1917 32.8518C16.8107 33.0005 17.4563 33.0003 18.4109 33.0001L18.5283 33H21.4717L21.589 33.0001C22.5436 33.0003 23.1892 33.0005 23.8083 32.8518C24.3555 32.7204 24.8787 32.5037 25.3586 32.2097C25.9014 31.877 26.3578 31.4204 27.0327 30.7452L27.1157 30.6622L30.6622 27.1157L30.7451 27.0327C31.4203 26.3579 31.877 25.9015 32.2096 25.3587C32.5037 24.8788 32.7204 24.3556 32.8518 23.8083C33.0004 23.1893 33.0002 22.5437 33 21.5891L33 21.4717V18.5284L33 18.411C33.0002 17.4564 33.0004 16.8108 32.8518 16.1918C32.7204 15.6445 32.5037 15.1213 32.2096 14.6414C31.877 14.0986 31.4203 13.6422 30.7452 12.9673L30.6622 12.8844L27.1156 9.33786L27.0327 9.25488C26.3578 8.5797 25.9014 8.12305 25.3586 7.79042C24.8787 7.49634 24.3555 7.27963 23.8083 7.14824C23.1892 6.99962 22.5436 6.99978 21.589 7.00002L21.4717 7.00004H18.5283Z" fill="black"/>
<path d="M20 13C20.5523 13 21 13.4477 21 14V22C21 22.5523 20.5523 23 20 23C19.4477 23 19 22.5523 19 22V14C19 13.4477 19.4477 13 20 13Z" fill="black"/>
<path d="M20 27C20.5523 27 21 26.5523 21 26C21 25.4477 20.5523 25 20 25C19.4477 25 19 25.4477 19 26C19 26.5523 19.4477 27 20 27Z" fill="black"/>
</svg>
