<svg width="40" height="40" viewBox="0 0 40 40" fill="none" xmlns="http://www.w3.org/2000/svg">
<g clip-path="url(#clip0_2922_2588)">
<g opacity="0.3">
<path d="M17.375 7C15.1659 7 13.375 8.79086 13.375 11V11.0117L15.5 11H24.4524H26.625C26.625 8.79086 24.8341 7 22.625 7H17.375Z" fill="black"/>
<path d="M17.375 33.0117C15.1659 33.0117 13.375 31.2208 13.375 29.0117V29L15.5 29.0117H24.4524H26.625C26.625 31.2208 24.8341 33.0117 22.625 33.0117H17.375Z" fill="black"/>
</g>
<path fill-rule="evenodd" clip-rule="evenodd" d="M10.3928 14.688C10 15.8107 10 17.2071 10 20C10 22.7929 10 24.1893 10.3928 25.312C11.0964 27.3227 12.6773 28.9036 14.688 29.6072C15.8107 30 17.2071 30 20 30C22.7929 30 24.1893 30 25.312 29.6072C27.3227 28.9036 28.9036 27.3227 29.6072 25.312C30 24.1893 30 22.7929 30 20C30 17.2071 30 15.8107 29.6072 14.688C28.9036 12.6773 27.3227 11.0964 25.312 10.3928C24.1893 10 22.7929 10 20 10C17.2071 10 15.8107 10 14.688 10.3928C12.6773 11.0964 11.0964 12.6773 10.3928 14.688ZM20 13.5193C20.5523 13.5193 21 13.967 21 14.5193V19.3346C21 19.4514 21.0531 19.5619 21.1443 19.6349L24.0862 21.9884C24.5175 22.3334 24.5874 22.9627 24.2424 23.394C23.8974 23.8252 23.2681 23.8952 22.8368 23.5502L19.895 21.1966C19.3293 20.7441 19 20.059 19 19.3346V14.5193C19 13.967 19.4477 13.5193 20 13.5193Z" fill="black"/>
</g>
<defs>
<clipPath id="clip0_2922_2588">
<rect width="40" height="40" fill="white"/>
</clipPath>
</defs>
</svg>
