<svg width="40" height="40" viewBox="0 0 40 40" fill="none" xmlns="http://www.w3.org/2000/svg">
<path opacity="0.3" fill-rule="evenodd" clip-rule="evenodd" d="M20.4013 7.65621C20.8441 8.34507 20.6317 9.17858 20.2035 9.73963C19.5391 10.6104 18.9901 11.4926 18.7966 12.1124C18.3747 13.4642 18.3417 14.7334 18.5628 15.675C18.7931 16.6556 19.2293 17.0666 19.5574 17.1666C19.8655 17.2604 20.4303 17.1675 21.1632 16.4573C21.8649 15.7773 22.5425 14.6787 22.9693 13.3112C23.0592 13.0232 23.1334 12.7377 23.1927 12.4571C23.3401 11.7584 23.8164 11.1851 24.4461 10.9378C25.1196 10.6734 25.9278 10.8103 26.4778 11.4629C27.5465 12.7309 28.6638 14.5373 29.5158 16.3969C30.3586 18.2365 31 20.2534 31 21.924C31 21.9565 30.9999 21.989 30.9996 22.0215C29.9894 21.3749 28.7885 21 27.5 21C24.8805 21 22.6229 22.5495 21.5938 24.782C20.6739 24.2832 19.62 24 18.5 24C17.9375 24 17.3917 24.0714 16.8712 24.2057C16.2711 21.236 13.6467 19 10.5 19C10.1493 19 9.80512 19.0277 9.46948 19.0812C10.0214 17.2656 11.0077 15.3807 12.1462 13.6753C13.9144 11.0265 16.1917 8.59933 18.2044 7.30966C18.5231 7.10544 18.9163 6.96429 19.3421 7.00777C19.7895 7.05345 20.1696 7.29583 20.4013 7.65621Z" fill="black"/>
<path d="M9 21.924C9 28.034 13.9177 33 20 33C26.0499 33 30.9476 28.0867 30.9996 22.0216C29.9894 21.3749 28.7885 21 27.5 21C24.8805 21 22.6228 22.5496 21.5938 24.7821C20.6738 24.2833 19.62 24 18.5 24C17.9375 24 17.3917 24.0715 16.8711 24.2058C16.2711 21.236 13.6467 19 10.5 19C10.1493 19 9.80511 19.0278 9.46948 19.0812C9.17133 20.0621 9 21.0228 9 21.924Z" fill="black"/>
</svg>
