<svg width="24" height="24" viewBox="0 0 24 24" fill="none" xmlns="http://www.w3.org/2000/svg">
<path d="M12 2C6.477 2 2 6.4772 2 12C2 13.434 2.31999 14.8622 2.93799 16.1875C2.11799 20.4225 2.03101 20.8125 2.03101 20.8125C1.89701 21.5061 2.49299 22.1001 3.18799 21.9688C3.18799 21.9688 3.56699 21.9032 7.84399 21.0938C9.13499 21.7074 10.566 22 12 22C17.523 22 22 17.5228 22 12C22 6.4772 17.523 2 12 2ZM12 4C16.418 4 20 7.5817 20 12C20 16.4183 16.418 20 12 20C10.743 20 9.53599 19.7048 8.43799 19.1562C8.24199 19.0586 8.02701 19.0218 7.81201 19.0625C4.26201 19.7345 4.544 19.6944 4.25 19.75C4.308 19.4524 4.25799 19.7613 4.93799 16.25C4.97999 16.0326 4.94299 15.7915 4.84399 15.5938C4.28599 14.4881 4 13.2676 4 12C4 7.5817 7.582 4 12 4Z" fill="black" fill-opacity="0.4"/>
<path d="M9.18799 7C8.24999 7 7 8.25 7 9.1875C7 10.3957 8.25 12.625 9.5 13.875C9.635 14.0095 9.99 14.3655 10.125 14.5C11.375 15.75 13.604 17 14.812 17C15.75 17 17 15.75 17 14.8125C17 13.875 15.75 12.625 14.812 12.625C14.5 12.625 13.369 13.2715 13.25 13.25C12.254 13.0702 10.958 11.7428 10.75 10.75C10.721 10.6114 11.375 9.5 11.375 9.1875C11.375 8.25 10.125 7 9.18799 7Z" fill="black"/>
</svg>
