<svg width="40" height="40" viewBox="0 0 40 40" fill="none" xmlns="http://www.w3.org/2000/svg">
<path opacity="0.3" d="M20 33C16.2754 33 14.4131 33 12.9218 32.4572C10.4219 31.5473 8.45265 29.5781 7.54277 27.0782C7 25.5869 7 23.7246 7 20C7 16.2754 7 14.4131 7.54277 12.9218C8.45265 10.4219 10.4219 8.45265 12.9218 7.54277C14.4131 7 16.2754 7 20 7C23.7246 7 25.5869 7 27.0782 7.54277C29.5781 8.45265 31.5473 10.4219 32.4572 12.9218C33 14.4131 33 16.2754 33 20C33 23.7246 33 25.5869 32.4572 27.0782C31.5473 29.5781 29.5781 31.5473 27.0782 32.4572C25.5869 33 23.7246 33 20 33Z" fill="black"/>
<path fill-rule="evenodd" clip-rule="evenodd" d="M16.6203 24.5911C16.6203 24.5911 16.6227 24.5888 16.6276 24.5858C16.6228 24.5898 16.6203 24.5911 16.6203 24.5911Z" fill="black"/>
<path d="M19.473 12.3846H23.1608C23.8496 12.3846 24.6947 12.9746 25.4105 14.4207C26.0995 15.8128 26.5454 17.7846 26.5454 20C26.5454 22.2155 26.0995 24.1873 25.4105 25.5794C24.6947 27.0255 23.8496 27.6154 23.1608 27.6154H19.473C19.8319 27.192 20.1433 26.6974 20.4046 26.1695C21.2038 24.5548 21.6783 22.3728 21.6783 20C21.6783 17.6272 21.2038 15.4452 20.4046 13.8305C20.1433 13.3027 19.8319 12.8081 19.473 12.3846Z" fill="black"/>
<path fill-rule="evenodd" clip-rule="evenodd" d="M19.0888 25.5794C18.373 27.0255 17.5279 27.6154 16.8391 27.6154C16.1504 27.6154 15.3053 27.0255 14.5895 25.5794C13.9005 24.1873 13.4545 22.2155 13.4545 20C13.4545 17.7846 13.9005 15.8128 14.5895 14.4207C15.3053 12.9746 16.1504 12.3846 16.8391 12.3846C17.5279 12.3846 18.373 12.9746 19.0888 14.4207C19.7778 15.8128 20.2238 17.7846 20.2238 20C20.2238 22.2155 19.7778 24.1873 19.0888 25.5794ZM15.6133 14.7276C15.835 14.4338 16.2183 14.0608 16.77 14.0608C17.331 14.0608 17.7083 14.4443 17.9211 14.7416C18.1569 15.0711 18.3488 15.5084 18.5022 16.0035C18.8116 17.0028 19.0082 18.3836 19.0082 20C19.0082 21.6164 18.8116 22.9973 18.5022 23.9965C18.3488 24.4917 18.1569 24.929 17.9211 25.2584C17.7083 25.5558 17.331 25.9393 16.77 25.9393C16.2183 25.9393 15.835 25.5663 15.6133 25.2725C15.3666 24.9456 15.1598 24.5098 14.992 24.0125C14.6537 23.0099 14.4297 21.6241 14.4297 20C14.4297 18.3759 14.6537 16.9901 14.992 15.9876C15.1598 15.4903 15.3666 15.0545 15.6133 14.7276Z" fill="black"/>
<path d="M15.8843 20C15.8843 18.4848 16.0947 17.2471 16.3769 16.411C16.5065 16.0267 16.6424 15.7541 16.7605 15.5828C16.8684 15.7529 16.9908 16.0198 17.107 16.3951C17.3264 17.1034 17.4936 18.099 17.5405 19.3077H17.4545C17.0529 19.3077 16.7273 19.6177 16.7273 20C16.7273 20.3824 17.0529 20.6923 17.4545 20.6923H17.5405C17.4936 21.9011 17.3264 22.8966 17.107 23.605C16.9908 23.9802 16.8684 24.2472 16.7605 24.4172C16.6424 24.2459 16.5065 23.9734 16.3769 23.589C16.0947 22.7529 15.8843 21.5152 15.8843 20Z" fill="black"/>
</svg>
