<svg width="24" height="24" viewBox="0 0 24 24" fill="none" xmlns="http://www.w3.org/2000/svg">
<path fill-rule="evenodd" clip-rule="evenodd" d="M17.5 2.75C17.9142 2.75 18.25 3.08579 18.25 3.5V5.75H20.5C20.9142 5.75 21.25 6.08579 21.25 6.5C21.25 6.91421 20.9142 7.25 20.5 7.25H18.25V9.5C18.25 9.91421 17.9142 10.25 17.5 10.25C17.0858 10.25 16.75 9.91421 16.75 9.5V7.25H14.5C14.0858 7.25 13.75 6.91421 13.75 6.5C13.75 6.08579 14.0858 5.75 14.5 5.75H16.75V3.5C16.75 3.08579 17.0858 2.75 17.5 2.75Z" fill="#1C274C"/>
</svg>
