<svg width="40" height="40" viewBox="0 0 40 40" fill="none" xmlns="http://www.w3.org/2000/svg">
<path fill-rule="evenodd" clip-rule="evenodd" d="M20 7.00002L19.8084 7.00001C17.2008 6.99981 15.6847 6.9997 14.4118 7.34076C11.2989 8.17486 8.80067 10.4499 7.66245 13.4205C7.54698 13.7218 7.48925 13.8725 7.52116 14.0186C7.54753 14.1393 7.63192 14.262 7.7352 14.3298C7.86015 14.4118 8.03454 14.4118 8.38331 14.4118H31.6167C31.9654 14.4118 32.1398 14.4118 32.2648 14.3298C32.3681 14.262 32.4524 14.1393 32.4788 14.0186C32.5107 13.8725 32.453 13.7218 32.3375 13.4205C31.1993 10.4499 28.7011 8.17486 25.5882 7.34076C24.3153 6.9997 22.7992 6.99981 20.1916 7.00001L20 7.00002ZM14 13C14.5523 13 15 12.5523 15 12C15 11.4477 14.5523 11 14 11C13.4477 11 13 11.4477 13 12C13 12.5523 13.4477 13 14 13ZM17 13C17.5523 13 18 12.5523 18 12C18 11.4477 17.5523 11 17 11C16.4477 11 16 11.4477 16 12C16 12.5523 16.4477 13 17 13ZM20 13C20.5523 13 21 12.5523 21 12C21 11.4477 20.5523 11 20 11C19.4477 11 19 11.4477 19 12C19 12.5523 19.4477 13 20 13Z" fill="black"/>
<g opacity="0.3">
<path d="M33 20V19.9037C33 19.2 33 18.5758 32.9941 18.0157C32.9887 17.5059 32.986 17.251 32.8762 17.0394C32.7823 16.8585 32.6217 16.6995 32.4397 16.6076C32.227 16.5 31.9632 16.5 31.4355 16.5H17.6C17.04 16.5 16.7599 16.5 16.546 16.609C16.3579 16.7049 16.2049 16.8578 16.109 17.046C16 17.2599 16 17.5399 16 18.1V31.4459C16 31.9573 16 32.213 16.1062 32.4247C16.1958 32.6032 16.3565 32.7673 16.5333 32.8605C16.7427 32.9711 16.9851 32.9761 17.47 32.986C18.1526 33.0001 18.9338 33 19.8493 33L20 33L20.1916 33C22.7992 33.0002 24.3153 33.0003 25.5882 32.6593C29.0391 31.7346 31.7346 29.0391 32.6593 25.5882C33.0003 24.3153 33.0002 22.7992 33 20.1916L33 20Z" fill="black"/>
<path d="M7.00001 20.1916C6.99981 22.7992 6.9997 24.3153 7.34076 25.5882C8.04202 28.2053 9.76174 30.3879 12.0571 31.6932C12.5299 31.9621 12.7664 32.0966 13.0656 32.0769C13.3452 32.0585 13.6808 31.8633 13.835 31.6293C14 31.3789 14 31.058 14 30.4163V18.1C14 17.5399 14 17.2599 13.891 17.046C13.7952 16.8578 13.6422 16.7049 13.454 16.609C13.2401 16.5 12.9601 16.5 12.4 16.5H8.56455C8.03688 16.5 7.77305 16.5 7.56029 16.6076C7.37836 16.6995 7.21772 16.8585 7.12383 17.0394C7.01403 17.251 7.01133 17.5059 7.00593 18.0157C6.99999 18.5758 7.00001 19.2 7.00002 19.9036L7.00002 20L7.00001 20.1916Z" fill="black"/>
</g>
</svg>
