<svg width="40" height="40" viewBox="0 0 40 40" fill="none" xmlns="http://www.w3.org/2000/svg">
<g opacity="0.3">
<path d="M19.5 22.2917C16.9259 22.2917 14.7118 20.3574 14.2031 17.8025L14.7015 17.8524C17.8925 18.1722 21.1075 18.1722 24.2985 17.8524L24.79 17.8032C24.2826 20.3588 22.0731 22.2917 19.5 22.2917Z" fill="black"/>
<path fill-rule="evenodd" clip-rule="evenodd" d="M19.5 22.2917C16.9259 22.2917 14.7118 20.3574 14.2031 17.8025L14.7015 17.8524C17.8925 18.1722 21.1075 18.1722 24.2985 17.8524L24.79 17.8032C24.2826 20.3588 22.0731 22.2917 19.5 22.2917Z" fill="black"/>
<path fill-rule="evenodd" clip-rule="evenodd" d="M20.5 8C20.5 7.44772 20.0523 7 19.5 7C18.9477 7 18.5 7.44772 18.5 8V8.00447C14.6179 8.4572 11.5309 11.5134 11.0191 15.3819C10.5221 15.3717 10.0838 15.7332 10.0104 16.2379C9.93093 16.7844 10.3095 17.2919 10.8561 17.3714L12.1429 17.5585C12.3833 19.6671 13.4829 21.5413 15.0809 22.7735C13.2816 23.252 12.0395 24.0875 11.2334 25.2832C10.5817 26.2497 10.2843 27.3589 10.1408 28.4838C9.99998 29.5889 9.99999 30.7876 10 31.9624L10 32C10 32.5522 10.4477 33 11 33H28C28.5523 33 29 32.5522 29 32V31.9612C29 30.7875 29 29.5999 28.8589 28.5087C28.715 27.3959 28.4163 26.3033 27.7627 25.3484C26.9466 24.1561 25.6843 23.3207 23.8473 22.8266C25.4811 21.5956 26.6066 19.6978 26.8499 17.5594L28.1438 17.3714C28.6903 17.292 29.069 16.7846 28.9896 16.238C28.9163 15.7333 28.478 15.3718 27.9809 15.3819C27.4691 11.5134 24.3822 8.45721 20.5 8.00447V8ZM18.5082 10.0213C15.6374 10.4582 13.3761 12.7623 12.9996 15.6621L13.2153 15.6934L14.9009 15.8624C17.9594 16.1689 21.0407 16.1689 24.0991 15.8624L25.7775 15.6942L26.0003 15.6618C25.6237 12.7621 23.3625 10.4582 20.4919 10.0213C20.4289 10.5131 20.0089 10.8931 19.5 10.8931C18.9912 10.8931 18.5711 10.5131 18.5082 10.0213ZM14.2031 17.8025C14.7118 20.3574 16.9259 22.2917 19.5 22.2917C22.0731 22.2917 24.2826 20.3588 24.79 17.8032L24.2985 17.8524C21.1075 18.1722 17.8925 18.1722 14.7015 17.8524L14.2031 17.8025Z" fill="black"/>
</g>
<path fill-rule="evenodd" clip-rule="evenodd" d="M26.8499 17.5594C24.3286 17.9119 17.8573 18.4054 12.1429 17.5585C12.3833 19.6671 13.4829 21.5413 15.0809 22.7735C13.2816 23.252 12.0395 24.0875 11.2334 25.2832C10.5817 26.2497 10.2843 27.3589 10.1408 28.4838C9.99998 29.5889 9.99999 30.7876 10 31.9624L10 32C10 32.5522 10.4477 33 11 33H28C28.5523 33 29 32.5522 29 32V31.9612C29 30.7875 29 29.5999 28.8589 28.5087C28.715 27.3959 28.4163 26.3033 27.7627 25.3484C26.9466 24.1561 25.6843 23.3207 23.8473 22.8266C25.4811 21.5956 26.6066 19.6978 26.8499 17.5594Z" fill="black"/>
<path d="M12.9996 15.6621C13.3761 12.7623 15.6374 10.4582 18.5082 10.0213C18.5711 10.5131 18.9912 10.8931 19.5 10.8931C20.0089 10.8931 20.4289 10.5131 20.4919 10.0213C23.3625 10.4582 25.6237 12.7621 26.0003 15.6618L25.7775 15.6942L24.0991 15.8624C21.0407 16.1689 17.9594 16.1689 14.9009 15.8624L13.2153 15.6934L12.9996 15.6621Z" fill="black"/>
</svg>
