<svg width="24" height="24" viewBox="0 0 24 24" fill="none" xmlns="http://www.w3.org/2000/svg">
<path d="M6 5C3.7909 5 2 6.791 2 9V15C2 17.209 3.7909 19 6 19H18C20.2091 19 22 17.209 22 15V9C22 6.791 20.2091 5 18 5H6ZM10.7143 9C10.8386 9 10.9473 9.03499 11.0491 9.09399C11.107 9.12699 14.6699 11.326 14.7991 11.461C14.9288 11.597 15 11.792 15 12C15 12.132 14.9674 12.244 14.9107 12.352C14.8645 12.439 14.8065 12.524 14.7321 12.586C14.6105 12.687 11.0266 14.921 10.9375 14.953C10.8647 14.979 10.7955 15 10.7143 15C10.5358 15 10.3707 14.926 10.2455 14.812C10.094 14.675 10 14.477 10 14.25C10 14.045 10 9.954 10 9.75C10 9.336 10.3198 9 10.7143 9Z" fill="black" fill-opacity="0.4"/>
<path d="M10.7143 9C10.8386 9 10.9473 9.03499 11.0491 9.09399C11.107 9.12699 14.6699 11.326 14.7991 11.461C14.9288 11.597 15 11.792 15 12C15 12.132 14.9674 12.244 14.9107 12.352C14.8645 12.439 14.8065 12.524 14.7321 12.586C14.6105 12.687 11.0266 14.921 10.9375 14.953C10.8647 14.979 10.7955 15 10.7143 15C10.5358 15 10.3707 14.926 10.2455 14.812C10.094 14.675 10 14.477 10 14.25C10 14.045 10 9.954 10 9.75C10 9.336 10.3198 9 10.7143 9Z" fill="black"/>
</svg>
