<svg version="1.1" id="Layer_1" xmlns="http://www.w3.org/2000/svg" xmlns:xlink="http://www.w3.org/1999/xlink" x="0px" y="0px"
	 width="100%" viewBox="0 0 1765 505" enable-background="new 0 0 1765 505" xml:space="preserve">
<path fill="#32B24A" opacity="1.000000" stroke="none" 
	d="
M1766.000000,166.599976 
	C1764.962158,168.097900 1763.429932,169.017807 1762.960815,170.320587 
	C1755.906494,189.909332 1749.095215,209.585587 1742.024292,229.168167 
	C1726.325928,272.645142 1710.988647,316.261566 1694.566406,359.464691 
	C1685.053101,384.492554 1673.671387,408.847626 1658.830444,431.280273 
	C1641.341309,457.716003 1618.323242,477.587830 1587.886719,487.855133 
	C1581.243042,490.096344 1574.265869,491.378967 1567.402344,492.925385 
	C1564.374390,493.607574 1562.709839,492.419525 1561.917725,489.041748 
	C1557.508423,470.239410 1552.831055,451.499969 1548.237061,432.704712 
	C1567.382812,427.800049 1584.771606,419.629791 1598.394897,404.951111 
	C1602.608643,400.411011 1606.043823,395.098511 1609.488403,389.909210 
	C1612.616943,385.195831 1612.503418,380.069977 1610.398071,374.843628 
	C1589.749390,323.583893 1569.136353,272.309723 1548.528320,221.033569 
	C1541.067749,202.470047 1533.644653,183.891449 1526.230713,165.309250 
	C1526.062866,164.888687 1526.209473,164.342728 1526.209473,163.334488 
	C1527.738525,163.224380 1529.294067,163.016159 1530.849731,163.014755 
	C1554.011230,162.993866 1577.173584,163.096741 1600.333496,162.905655 
	C1604.201904,162.873734 1605.885254,164.211426 1606.938477,167.769791 
	C1613.540527,190.075790 1620.388184,212.309082 1626.991455,234.614716 
	C1634.740112,260.788788 1642.322144,287.012115 1650.890015,313.712555 
	C1663.395752,263.566956 1675.901489,213.421371 1688.409790,163.265717 
	C1714.162720,163.265717 1739.628662,163.265717 1765.547241,163.132858 
	C1766.000000,164.066666 1766.000000,165.133347 1766.000000,166.599976 
z"/>
<path fill="#32B24A" opacity="1.000000" stroke="none" 
	d="
M1052.000000,341.000000 
	C1052.000000,254.205704 1052.000000,167.911407 1052.000000,80.966370 
	C1059.395874,79.951530 1066.474854,78.477943 1073.612549,78.093208 
	C1096.758301,76.845589 1119.921875,75.893990 1143.085938,75.023300 
	C1167.514282,74.105110 1191.645020,75.729340 1214.986938,83.904671 
	C1245.995728,94.765266 1266.846436,115.505524 1274.601318,147.609070 
	C1281.946045,178.014832 1277.683472,207.126968 1260.091919,233.529663 
	C1248.611694,250.759827 1232.006592,261.579742 1213.008179,268.875305 
	C1196.479614,275.222443 1179.318115,278.800903 1161.552368,278.980988 
	C1150.334595,279.094727 1139.114624,278.992218 1127.895630,279.011475 
	C1126.440796,279.013977 1124.986084,279.165161 1123.066895,279.273712 
	C1123.066895,316.139435 1123.066895,352.720825 1123.066895,389.649261 
	C1099.337891,389.649261 1076.090942,389.649261 1052.000000,389.649261 
	C1052.000000,373.657288 1052.000000,357.578644 1052.000000,341.000000 
M1164.525391,129.992401 
	C1162.918091,129.666992 1161.302979,129.027390 1159.704956,129.067596 
	C1149.930176,129.313629 1140.130493,129.364853 1130.396851,130.175949 
	C1122.963135,130.795425 1123.000366,131.252335 1123.000122,139.111252 
	C1122.999756,165.102310 1123.000000,191.093353 1123.000000,217.084412 
	C1123.000000,218.879700 1123.000000,220.675003 1123.000000,222.732147 
	C1138.506714,224.854996 1153.586426,225.708694 1168.390259,221.885849 
	C1197.656860,214.328217 1210.973267,190.572632 1205.010132,162.840866 
	C1200.605103,142.355026 1185.473633,133.173477 1164.525391,129.992401 
z"/>
<path fill="#32B24A" opacity="1.000000" stroke="none" 
	d="
M1418.586792,214.265076 
	C1410.852783,211.720093 1403.560913,207.947998 1395.992432,207.271713 
	C1373.857544,205.293839 1352.874146,210.690598 1332.873657,220.067245 
	C1330.518433,221.171432 1328.344482,222.662140 1325.224609,224.474289 
	C1320.692627,208.754135 1316.282349,193.455856 1311.615356,177.267059 
	C1319.703613,173.872742 1327.428223,169.735168 1335.663086,167.386826 
	C1347.758057,163.937637 1360.104980,160.435852 1372.549927,159.381958 
	C1388.811768,158.004852 1405.290405,158.534927 1421.644897,159.114304 
	C1434.561279,159.571869 1446.756714,163.617508 1458.245117,169.646820 
	C1480.556030,181.355942 1492.415527,200.580063 1498.027832,224.437744 
	C1501.011719,237.122025 1501.090088,249.973450 1501.030884,262.883392 
	C1500.922363,286.538208 1500.891602,310.194641 1501.044922,333.848969 
	C1501.123535,345.955505 1501.487427,358.068024 1502.081055,370.160217 
	C1502.393677,376.532196 1503.476685,382.866425 1504.302490,389.999603 
	C1502.105347,389.999603 1500.505737,389.999603 1498.906128,389.999603 
	C1480.914673,389.999634 1462.922607,389.912689 1444.932495,390.069916 
	C1441.135864,390.103119 1439.283813,389.275085 1438.856079,385.051117 
	C1438.317993,379.738159 1436.831055,374.521301 1435.662354,368.817566 
	C1430.348877,373.087280 1425.643555,377.410126 1420.415405,380.963928 
	C1406.906250,390.146667 1391.968872,394.925323 1375.491089,395.073181 
	C1363.792236,395.178131 1352.100952,395.373383 1341.074097,390.886810 
	C1316.827515,381.021362 1301.178467,363.844147 1296.970215,337.422546 
	C1292.901978,311.879730 1299.370728,289.200439 1317.417114,270.685699 
	C1326.268921,261.604156 1337.723999,255.659637 1349.615723,250.999771 
	C1366.093750,244.542786 1383.204346,240.960083 1400.865723,239.982193 
	C1409.953369,239.479004 1419.042603,239.003860 1428.728516,238.483963 
	C1430.082397,228.722549 1426.425415,220.851624 1418.586792,214.265076 
M1366.995117,314.453522 
	C1365.314209,324.918518 1368.804565,334.348785 1377.290771,340.134827 
	C1392.208374,350.306152 1415.122314,342.775604 1425.003052,329.025696 
	C1429.279907,323.074097 1431.150391,316.533295 1431.180542,309.168427 
	C1431.215576,300.619934 1431.942139,292.074249 1432.404297,282.810181 
	C1428.179810,283.282684 1424.974487,283.622589 1421.774048,284.002747 
	C1413.301880,285.009064 1404.657715,285.287048 1396.399414,287.214600 
	C1382.035522,290.567200 1369.967041,297.215393 1366.995117,314.453522 
z"/>
<path fill="#166634" opacity="1.000000" stroke="none" 
	d="
M251.543030,382.678345 
	C234.528305,389.251923 217.272263,393.145538 199.447525,393.972351 
	C184.750397,394.654053 169.936844,395.822510 155.325516,394.740753 
	C123.763214,392.403961 94.570274,382.510040 69.846909,362.119049 
	C44.038795,340.833405 29.215204,312.902557 21.901388,280.494965 
	C17.342646,260.295105 16.864870,239.822311 18.275723,219.508911 
	C20.783318,183.404633 32.818230,150.746567 57.234837,123.146469 
	C82.121727,95.014778 113.702904,79.833771 150.200851,74.031189 
	C160.472397,72.398178 170.969681,71.032433 181.320602,71.286812 
	C204.181946,71.848656 227.004654,73.551048 248.677719,82.028954 
	C256.583221,85.121368 256.759064,85.390625 254.250549,93.554199 
	C251.678894,101.923203 249.156708,110.307419 246.479538,119.124115 
	C240.094910,116.937958 234.325256,114.243683 228.259613,113.036369 
	C215.966309,110.589508 203.563858,108.500488 191.113403,107.077972 
	C171.871399,104.879494 153.139313,108.029549 135.012848,114.536446 
	C104.858978,125.360863 84.209671,146.185074 72.014900,175.571182 
	C65.796753,190.555206 63.167690,206.270264 61.770081,222.436081 
	C59.953396,243.449234 62.183296,263.893585 68.527252,283.765320 
	C80.148956,320.168976 104.010719,344.769958 141.259491,354.979370 
	C151.538712,357.796722 162.375671,358.896667 173.039597,359.926666 
	C195.132507,362.060516 216.552902,358.258484 237.487915,351.279327 
	C238.117447,351.069458 238.785431,350.966949 239.402481,350.728882 
	C247.725372,347.517242 247.718018,347.514923 249.850449,356.015533 
	C251.502274,362.600372 252.860474,369.281830 254.952164,375.724579 
	C256.155029,379.429657 255.334946,381.342590 251.543030,382.678345 
z"/>
<path fill="#166634" opacity="1.000000" stroke="none" 
	d="
M684.250366,190.286377 
	C704.513489,170.176559 728.237305,159.570953 756.815247,159.860947 
	C770.424438,159.999054 783.567810,161.244583 796.252441,166.530045 
	C812.623840,173.351700 825.175598,184.464905 834.195129,199.564285 
	C845.786560,218.969193 851.216187,240.087433 851.006531,262.676483 
	C850.958557,267.842590 851.070007,273.010986 850.968750,278.175568 
	C850.849548,284.257690 850.065186,284.990295 843.936035,284.991821 
	C796.270691,285.003754 748.605286,284.998108 700.939941,285.001587 
	C692.898804,285.002167 692.494263,285.038940 693.074036,293.265076 
	C695.705505,330.598785 718.140991,357.376526 756.071411,361.990112 
	C781.112854,365.036011 805.309998,361.358368 828.718750,352.120941 
	C829.463318,351.827118 830.240356,351.615479 831.431641,351.224670 
	C833.644958,360.330719 835.986572,369.093933 837.723877,377.975342 
	C838.011353,379.444824 835.988586,382.549072 834.468628,383.001953 
	C822.436096,386.587097 810.437439,390.924438 798.094849,392.663391 
	C783.697510,394.691833 768.940918,395.189056 754.379272,394.817841 
	C725.324829,394.077209 699.827271,383.967560 679.885132,362.238037 
	C666.422058,347.568298 658.336426,329.844360 655.215820,310.332306 
	C649.774536,276.311218 651.917603,243.032883 669.078430,212.170578 
	C673.315308,204.551025 678.993164,197.732742 684.250366,190.286377 
M739.500000,255.000000 
	C761.639709,254.997498 783.779907,254.919357 805.918640,255.063034 
	C809.849243,255.088547 811.571899,253.758072 810.971497,249.892456 
	C810.008484,243.692856 809.411316,237.383133 807.806641,231.346680 
	C803.338623,214.538376 794.402405,200.804810 777.674194,194.157440 
	C751.761108,183.860245 726.438049,191.079132 709.408630,213.180237 
	C700.120483,225.234665 695.335083,239.175552 693.211365,255.000000 
	C708.633789,255.000000 723.566895,255.000000 739.500000,255.000000 
z"/>
<path fill="#166634" opacity="1.000000" stroke="none" 
	d="
M513.190796,160.008240 
	C526.449524,159.187408 539.077942,159.695175 551.315552,164.181946 
	C575.401917,173.012848 590.331116,190.350479 597.861145,214.402039 
	C602.005798,227.640472 603.186584,241.276550 603.098389,255.178375 
	C602.827698,297.834198 603.002991,340.492859 602.995300,383.150421 
	C602.994080,389.971619 602.971130,389.985809 596.137878,389.995575 
	C586.806519,390.008942 577.466919,389.764038 568.147278,390.094788 
	C563.369141,390.264374 561.882996,388.792450 561.903015,383.931488 
	C562.075195,342.107788 562.214478,300.281372 561.882263,258.459595 
	C561.767212,243.971527 559.352539,229.731049 551.938049,216.826340 
	C544.223511,203.399445 532.449707,196.685944 517.244080,194.924240 
	C502.093323,193.168915 488.555054,197.091492 476.757629,206.240601 
	C463.782745,216.302841 455.669678,229.684952 454.092072,246.236542 
	C453.132751,256.301392 453.077545,266.475220 453.044739,276.601471 
	C452.929169,312.260132 452.911316,347.919861 453.099487,383.577911 
	C453.125549,388.518707 451.885223,390.339386 446.704681,390.111023 
	C437.557770,389.707825 428.380249,390.006622 419.215546,389.996887 
	C412.015869,389.989258 412.003052,389.979431 412.002472,382.504089 
	C411.998413,331.015076 412.076752,279.525909 411.952911,228.037186 
	C411.916138,212.744003 411.364166,197.450867 410.943909,182.160568 
	C410.825714,177.860291 410.342041,173.569794 410.016510,169.275543 
	C409.802246,166.448746 410.784363,164.951523 413.935608,164.986008 
	C423.598938,165.091797 433.265625,165.117676 442.927917,164.972305 
	C446.445618,164.919373 446.901276,166.720963 447.048401,169.632874 
	C447.506348,178.699188 448.226990,187.752228 449.669952,197.280884 
	C458.539612,188.277802 466.346100,178.554443 477.235168,172.106003 
	C488.283722,165.563126 500.063171,161.587982 513.190796,160.008240 
z"/>
<path fill="#166634" opacity="1.000000" stroke="none" 
	d="
M1007.049438,389.835571 
	C1000.670654,391.499176 994.359985,394.179626 987.898743,394.612427 
	C974.901917,395.482941 961.757874,396.434326 948.944092,392.480194 
	C929.890259,386.600494 918.593994,373.437714 914.219177,354.444794 
	C912.301392,346.118958 911.201660,337.421600 911.138977,328.882568 
	C910.831665,287.072235 910.926208,245.258179 911.095764,203.446320 
	C911.115601,198.550644 909.956909,196.605637 904.731140,196.890747 
	C896.925171,197.316666 889.075439,196.869492 881.250244,197.049011 
	C877.548340,197.133942 875.777893,196.172440 875.930664,192.036179 
	C876.207214,184.550079 876.137634,177.043549 875.958313,169.551636 
	C875.873962,166.028656 877.269348,164.901901 880.661011,164.960693 
	C889.154175,165.107895 897.654602,164.865646 906.146118,165.052124 
	C909.833313,165.133087 911.086792,163.819244 911.052002,160.141800 
	C910.910156,145.150650 910.922058,130.156311 911.112427,115.166122 
	C911.134460,113.434273 912.274597,110.541801 913.488037,110.181747 
	C925.524475,106.610641 937.685608,103.459885 950.546326,99.992081 
	C950.728333,102.537483 950.977600,104.429497 950.981018,106.321953 
	C951.011963,123.646622 950.991638,140.971359 951.005371,158.296082 
	C951.010620,164.960266 951.033081,164.986115 957.504456,164.993362 
	C972.996765,165.010681 988.492432,165.183090 1003.979431,164.896759 
	C1008.908752,164.805649 1010.321716,166.476242 1010.086975,171.194717 
	C1009.739624,178.174057 1009.842346,185.187805 1010.051331,192.177994 
	C1010.162781,195.903534 1008.750671,197.080795 1005.109497,197.050720 
	C988.952026,196.917236 972.791077,197.129196 956.635254,196.917801 
	C952.294617,196.861023 950.899109,198.152771 950.917114,202.575623 
	C951.070251,240.222961 950.698547,277.875275 951.203308,315.516479 
	C951.345642,326.129333 951.686096,337.028381 956.913147,347.025848 
	C961.744507,356.266571 969.376099,360.750519 979.301514,360.843048 
	C987.208984,360.916748 995.128845,359.656342 1003.789673,358.981201 
	C1004.968872,358.982513 1005.401611,358.990723 1005.834412,358.998932 
	C1006.521667,368.735138 1007.208862,378.471375 1007.729553,388.756958 
	C1007.384399,389.475555 1007.213196,389.651978 1007.049438,389.835571 
z"/>
<path fill="#166634" opacity="1.000000" stroke="none" 
	d="
M303.000061,174.076904 
	C303.001465,172.589432 303.118927,171.574112 302.984222,170.593445 
	C302.379456,166.191284 304.248993,164.792099 308.619934,164.917587 
	C318.272491,165.194763 327.947784,165.253540 337.595245,164.898178 
	C342.581818,164.714493 344.127625,166.182495 344.108582,171.306534 
	C343.924896,220.774460 343.999725,270.243347 343.999817,319.711975 
	C343.999847,341.198334 343.881165,362.685852 344.089874,384.170166 
	C344.134705,388.781311 342.662628,390.218201 338.118652,390.085327 
	C328.299957,389.798218 318.461975,389.811951 308.642273,390.080841 
	C304.305450,390.199585 302.886230,388.864624 302.915131,384.431335 
	C303.091919,357.283051 303.000641,330.133057 303.000183,302.983612 
	C302.999481,260.177429 303.000000,217.371216 303.000061,174.076904 
z"/>
<path fill="#166634" opacity="1.000000" stroke="none" 
	d="
M307.689087,122.314331 
	C299.230316,116.266098 295.618408,104.494759 298.826202,94.265869 
	C302.312897,83.147781 310.319580,77.144890 321.546234,76.984413 
	C342.437683,76.685791 349.474823,92.770271 347.718201,109.262436 
	C346.053314,124.893578 325.618256,130.982040 314.056854,126.723274 
	C311.823730,125.900673 310.010254,123.938705 307.689087,122.314331 
z"/>
<path fill="#166634" opacity="1.000000" stroke="none" 
	d="
M1005.728149,358.766541 
	C1005.401611,358.990723 1004.968872,358.982513 1004.211182,358.966309 
	C1004.464783,358.816956 1005.043335,358.675568 1005.728149,358.766541 
z"/>
<path fill="#166634" opacity="1.000000" stroke="none" 
	d="
M1007.248047,389.788361 
	C1007.213196,389.651978 1007.384399,389.475555 1007.699341,389.182434 
	C1007.834656,389.359406 1007.705017,389.586914 1007.248047,389.788361 
z"/>
</svg>