<?xml version="1.0" encoding="UTF-8"?>
<!DOCTYPE svg PUBLIC "-//W3C//DTD SVG 1.1//EN" "http://www.w3.org/Graphics/SVG/1.1/DTD/svg11.dtd">
<!-- Creator: CorelDRAW 2021 (64-Bit) -->
<svg xmlns="http://www.w3.org/2000/svg" xml:space="preserve" width="10.578in" height="1.66998in" version="1.1" style="shape-rendering:geometricPrecision; text-rendering:geometricPrecision; image-rendering:optimizeQuality; fill-rule:evenodd; clip-rule:evenodd"
viewBox="0 0 10578.04 1669.98"
 xmlns:xlink="http://www.w3.org/1999/xlink"
 xmlns:xodm="http://www.corel.com/coreldraw/odm/2003">
 <defs>
  <style type="text/css">
   <![CDATA[
    .fil1 {fill:#009A46;fill-rule:nonzero}
    .fil0 {fill:#2A3362;fill-rule:nonzero}
    .fil3 {fill:#F5AFCB;fill-rule:nonzero}
    .fil2 {fill:#FF5805;fill-rule:nonzero}
    .fil4 {fill:#FF9B00;fill-rule:nonzero}
   ]]>
  </style>
 </defs>
 <g id="Layer_x0020_1">
  <metadata id="CorelCorpID_0Corel-Layer"/>
  <g id="_2464828059600">
   <polygon class="fil0" points="3237.39,390.24 3423.28,390.24 3423.28,1346.75 3237.39,1346.75 "/>
   <path class="fil0" d="M4142.75 1007.37c0,132.04 -84.93,191.35 -198.03,191.35 -113.05,0 -188.66,-59.31 -188.66,-184.63l0 -340.89 -185.89 0 0 384.05c0,191.18 119.9,303.02 319.32,303.02 125.3,0 195.32,-46.16 242.33,-98.33l10.81 0 16.17 84.93 170.98 0 0 -673.67 -187.03 0 0 334.17z"/>
   <path class="fil0" d="M5966.32 1213.45c-136.07,0 -212.81,-61.96 -224.89,-152.17l590.02 0c2.7,-18.75 4.02,-37.69 4.02,-56.68 -1.26,-242.33 -184.63,-344.92 -380.8,-344.92 -227.66,0 -398.83,136.2 -398.83,355.8 0,208.72 164.44,344.8 410.97,344.8 206.22,0 343.48,-91.53 371.9,-231.74l-183.72 0c-22.95,55.28 -88.94,84.92 -188.66,84.92zm-11.54 -406.82c118.64,0 187.28,52.47 198.09,126.93l-407.42 0c17.42,-71.34 86.17,-126.93 208.72,-126.93l0.6 0z"/>
   <path class="fil0" d="M6651.3 769.91l-11.54 0 -17.56 -97.07 -168.94 0 0 674.04 185.89 0 0 -289.62c0,-130.78 75.36,-203.45 215.57,-203.45 25.5,-0.35 50.91,1.86 75.91,6.68l0 -187.28 -25.97 0c-123.92,0 -200.85,25.6 -253.38,96.7z"/>
   <polygon class="fil0" points="7843.39,1136.64 7832.71,1136.64 7673.67,714.98 7482.37,714.98 7326.11,1135.38 7314.03,1135.38 7165.82,673.2 6981.19,673.2 7208.86,1346.87 7411.04,1346.87 7572.7,917.02 7583.47,917.02 7742.43,1346.87 7945.86,1346.87 8173.59,673.2 7988.96,673.2 "/>
   <path class="fil0" d="M8913.49 1150.7l0 -225.49c0,-183.25 -155,-265.41 -347.69,-265.41 -204.69,0 -332.72,97.06 -350.26,242.33l185.96 0c13.46,-63.34 67.36,-98.33 164.3,-98.33 96.89,0 161.56,36.36 161.56,110.47l0 17.19 -303.15 23.07c-140.09,10.82 -242.33,72.84 -242.33,204.82 0,136.07 117.26,200.68 289.62,200.68 139.2,0 224,-38.76 275.93,-97.3l9.2 0c29.2,65.82 88.41,83.9 152.76,83.9l78.13 0 0 -137.21 -17.54 0c-39.07,0 -56.5,-18.8 -56.5,-58.71zm-186.01 -71.41c0,106.5 -126.93,141.43 -235.78,141.43 -74.11,0 -122.54,-18.82 -122.54,-70.02 0,-46.16 41.77,-68.64 103.85,-74.1l254.59 -18.82 -0.12 21.51z"/>
   <polygon class="fil0" points="9600.75,673.2 9383.84,1160.98 9371.7,1160.98 9152.1,673.2 8951.3,673.2 9265.2,1346.87 9487.57,1346.87 9800.04,673.2 "/>
   <path class="fil0" d="M10394.32 1128.53c-23.07,55.28 -88.94,84.92 -188.66,84.92 -136.06,0 -212.81,-61.96 -224.9,-152.17l590.02 0c2.71,-18.75 4.02,-37.69 4.02,-56.68 -1.26,-242.33 -184.63,-344.92 -380.8,-344.92 -227.65,0 -398.71,136.2 -398.71,355.8 0,208.72 164.32,344.8 410.8,344.8 206.26,0 343.54,-91.53 371.95,-231.74l-183.72 0zm-200.8 -321.9c118.64,0 187.28,52.47 198.16,126.93l-407.36 0c17.66,-71.34 86.17,-126.93 208.78,-126.93l0.42 0z"/>
   <path class="fil0" d="M2935.26 623.55c0,-59.25 41.77,-84.79 95.69,-84.79 25.06,0.23 50.01,3.85 74.1,10.75l31.02 -134.81c-45.02,-15.93 -92.37,-24.09 -140.08,-24.22 -137.46,0 -247.87,72.84 -247.87,223.63l0 59.08 -160.41 0 0 147.61 160.41 0 0 526.05 187.15 0 0 -526.18 209.57 0 0 -147.49 -209.57 0 0 -49.65z"/>
   <path class="fil0" d="M4740.03 483.28l-173.09 0 -9.67 189.92 -146.35 0 0 147.61 142.87 0 0 332.05c0,113.1 57.7,207.71 230.79,207.71 44.88,0 89.61,-4.94 133.41,-14.72l0 -141.84c-25.23,5.65 -51.02,8.83 -76.87,9.43 -92.91,0 -100.96,-52.47 -100.96,-92.98l0 -300.02 184.63 0 0 -147.24 -184.76 0 0 -189.92z"/>
   <path class="fil0" d="M5323.78 483.28l-172.49 0 -9.66 189.92 -146.72 0 0 147.61 142.87 0 0 332.05c0,113.1 57.7,207.71 230.79,207.71 44.78,-0.12 89.42,-5.17 133.06,-15.09l0 -141.47c-25.25,5.65 -50.96,8.83 -76.87,9.43 -92.85,0 -100.98,-52.47 -100.98,-92.98l0 -300.02 185.23 0 0 -147.24 -185.23 0 0 -189.92z"/>
   <path class="fil1" d="M-0 364.77c0,-108.12 31.62,-200.43 97.96,-266.79l115.39 115.39c-128.44,127.97 -16.24,525.83 349.43,891.9 365.66,366.01 763.77,478.04 892.13,349.85l115.39 115.39c-216.48,216.48 -709.61,62.87 -1122.31,-349.96 -286.32,-286.44 -447.99,-611.4 -447.99,-855.77z"/>
   <path class="fil2" d="M727.7 1669.98c-108.13,0 -200.44,-31.62 -266.91,-97.96l115.39 -115.4c128.19,128.2 526.05,16.05 892.08,-349.9 366.01,-365.91 477.98,-763.77 349.78,-891.96l115.39 -115.39c216.6,216.48 62.86,709.55 -350.03,1122.31 -286.38,286.74 -611.34,448.3 -855.71,448.3z"/>
   <path class="fil3" d="M1621.63 1056.53c-70.07,-201.7 -213.11,-417.22 -402.97,-606.95 -412.77,-412.9 -905.84,-566.59 -1122.32,-349.97 -15.32,15.45 -2.05,53.67 29.81,85.45 31.85,31.86 70.02,45.02 85.4,29.7 128.32,-128.2 526.18,-16.05 892.07,349.96 173.09,173.09 302.13,366.38 364.27,545.24 54.51,156.86 49.16,283.32 -14.3,346.78 -15.44,15.32 -2.04,53.67 29.69,85.39 31.74,31.74 70.02,45.08 85.53,29.63 110.89,-110.89 129.69,-294.13 52.82,-515.24z"/>
   <path class="fil4" d="M1933.2 99.61c-111.11,-111.13 -294.13,-129.95 -515.48,-53.02 -201.57,69.96 -417.22,213.18 -606.95,402.87 -412.78,412.77 -566.44,905.83 -349.97,1122.44 15.45,15.32 53.67,2.11 85.46,-29.64 31.85,-31.72 45.13,-70.06 29.69,-85.51 -128.55,-128.2 -16.05,-526.07 349.98,-892.15 173.09,-173.09 366.36,-302.07 545.23,-364.27 156.85,-54.33 283.31,-49.16 346.9,14.31 15.32,15.32 53.66,2.11 85.41,-29.74 31.73,-31.87 45.07,-69.96 29.74,-85.28z"/>
  </g>
 </g>
</svg>
