<svg xmlns="http://www.w3.org/2000/svg" xmlns:xlink="http://www.w3.org/1999/xlink" width="184" height="80" viewBox="0 0 184 80">
    <defs>
        <path id="uwtj7m37aa" d="M0 0.07L10.176 0.07 10.176 10.188 0 10.188z"/>
        <path id="gm7ejcreqc" d="M0.215 0.07L10.398 0.07 10.398 10.188 0.215 10.188z"/>
    </defs>
    <g fill="none" fill-rule="evenodd">
        <path fill="#060809" d="M53.995 74.258c-1.278 0-2.773-.972-2.773-3.052 0-2.056 1.495-3.056 2.773-3.056 1.235 0 2.692.904 2.692 3.056 0 2.112-1.457 3.052-2.692 3.052m3.278-7.188c-.348 0-.65.295-.65.66v.948c-.492-1.057-1.614-1.657-2.814-1.657-1.763 0-3.895 1.388-3.895 4.185 0 2.827 2.132 4.206 3.895 4.206 1.405 0 2.497-.856 2.814-1.813v1.132c0 .344.302.659.65.659.359 0 .664-.315.664-.66v-7c0-.365-.283-.66-.664-.66M69.693 69.59h-1.835v-3.498h1.835c1.192 0 2.074.472 2.074 1.764 0 1.305-.882 1.734-2.074 1.734m.098-5.305h-2.898c-.683 0-1.173.486-1.173 1.162v8.893c0 .583.477 1.072 1.076 1.072.589 0 1.062-.49 1.062-1.072v-2.947h1.933c2.465 0 4.048-1.52 4.048-3.537 0-1.983-1.583-3.571-4.048-3.571M78.85 73.623c-1.045 0-2.135-.796-2.135-2.418 0-1.604 1.09-2.42 2.135-2.42.886 0 2.06.643 2.06 2.42 0 1.776-1.174 2.418-2.06 2.418m3.007-6.553c-.566 0-1.047.47-1.047 1.017v.275c-.313-.742-1.214-1.34-2.342-1.34-1.728 0-3.829 1.387-3.829 4.183 0 2.863 2.09 4.207 3.83 4.207 1.378 0 2.22-.857 2.341-1.344v.3c0 .569.481 1.022 1.047 1.022.555 0 1.059-.453 1.059-1.021v-6.282c0-.547-.504-1.017-1.06-1.017M91.569 67.07c-.396 0-.764.218-.98.724l-2.172 4.873-2.118-4.873c-.226-.506-.603-.724-.998-.724-.541 0-.951.426-.951.92 0 .194.064.355.111.482l2.943 6.45-.902 2.045c-.042.124-.106.278-.106.475 0 .495.379.92.912.92.401 0 .782-.216 1-.719l4.104-9.171c.058-.127.127-.288.127-.481 0-.495-.417-.92-.97-.92M102.24 64.233c-.606 0-1.112.469-1.112 1.032v6.053c0 1.651-1.04 2.305-2.278 2.305-1.214 0-2.28-.654-2.28-2.305v-6.053c0-.563-.504-1.032-1.093-1.032-.586 0-1.042.469-1.042 1.032v6.086c0 2.545 1.95 4.061 4.415 4.061 2.455 0 4.418-1.516 4.418-4.061v-6.086c0-.563-.448-1.032-1.029-1.032M113.847 68.172c.7 0 1.487.284 1.96.91.13.159.32.302.555.302.302 0 .556-.222.556-.539 0-.249-.175-.423-.301-.577-.697-.84-1.69-1.247-2.834-1.247-1.869 0-4.118 1.374-4.118 4.184 0 2.8 2.25 4.174 4.118 4.174 1.144 0 2.137-.428 2.834-1.258.126-.149.301-.316.301-.566 0-.316-.254-.54-.556-.54-.234 0-.425.138-.555.303-.473.627-1.26.91-1.96.91-1.408 0-2.878-1.006-2.878-3.023 0-2.027 1.47-3.033 2.878-3.033M122.11 74.258c-1.314 0-2.815-1.02-2.815-3.035 0-2.029 1.501-3.05 2.815-3.05 1.329 0 2.82 1.021 2.82 3.05 0 2.016-1.491 3.035-2.82 3.035m0-7.237c-1.82 0-4.12 1.401-4.12 4.202 0 2.81 2.3 4.19 4.12 4.19 1.84 0 4.13-1.38 4.13-4.19 0-2.8-2.29-4.202-4.13-4.202M138.135 67.032c-1.662 0-2.712 1.094-3.151 2.05-.482-1.495-1.714-2.05-2.884-2.05-1.882 0-2.864 1.44-2.957 1.973v-1.276c0-.364-.3-.659-.653-.659-.363 0-.663.295-.663.66v6.99c0 .337.3.659.663.659.354 0 .653-.322.653-.66v-4.282c.14-.899.964-2.254 2.576-2.254 1.108 0 2.152.648 2.152 2.36v4.177c0 .337.284.659.65.659.366 0 .664-.322.664-.66v-4.282c.147-.899.968-2.254 2.585-2.254 1.108 0 2.135.648 2.135 2.36v4.177c0 .337.3.659.669.659.358 0 .644-.322.644-.66v-4.176c0-2.613-1.583-3.51-3.083-3.51M147.109 74.258c-1.236 0-2.69-.94-2.69-3.052 0-2.152 1.454-3.056 2.69-3.056 1.285 0 2.767 1 2.767 3.056 0 2.08-1.482 3.052-2.767 3.052m.187-7.237c-1.206 0-2.325.6-2.817 1.657v-.948c0-.365-.298-.66-.646-.66-.382 0-.661.295-.661.66v9.976c0 .358.298.657.66.657.35 0 .66-.3.66-.657v-4.061c.338.937 1.411 1.767 2.804 1.767 1.758 0 3.897-1.38 3.897-4.206 0-2.797-2.139-4.185-3.897-4.185M156.42 74.258c-1.287 0-2.774-.972-2.774-3.052 0-2.056 1.487-3.056 2.775-3.056 1.228 0 2.688.904 2.688 3.056 0 2.112-1.46 3.052-2.688 3.052m3.271-7.188c-.343 0-.65.295-.65.66v.948c-.489-1.057-1.615-1.657-2.814-1.657-1.755 0-3.892 1.388-3.892 4.185 0 2.827 2.137 4.206 3.892 4.206 1.407 0 2.5-.856 2.815-1.813v1.132c0 .344.306.659.65.659.367 0 .66-.315.66-.66v-7c0-.365-.28-.66-.66-.66M166.531 67.032c-1.885 0-2.87 1.44-2.96 1.973v-1.276c0-.364-.3-.659-.648-.659-.362 0-.666.295-.666.66v6.99c0 .337.304.659.666.659.348 0 .647-.322.647-.66v-4.282c.144-.899.97-2.254 2.583-2.254 1.104 0 2.155.648 2.155 2.36v4.177c0 .337.283.659.65.659.36 0 .66-.322.66-.66v-4.176c0-2.613-1.597-3.51-3.087-3.51M177.602 67.07c-.256 0-.495.138-.624.44l-2.59 6.011-2.583-6.01c-.124-.303-.367-.44-.62-.44-.344 0-.618.283-.618.598 0 .125.033.204.066.294l3.105 7.05-1.061 2.457c-.036.096-.07.173-.07.3 0 .31.24.592.59.592.254 0 .492-.139.618-.436l4.34-9.963c.03-.09.06-.17.06-.294 0-.315-.268-.599-.613-.599" transform="translate(0 .914)"/>
        <path fill="#1E64FF" d="M5.087 14.81C2.543 14.81.48 16.86.48 19.382v26.773c0 2.531 2.062 4.576 4.606 4.576 2.542 0 4.605-2.045 4.605-4.576V19.382c0-2.523-2.063-4.572-4.605-4.572" transform="translate(0 .914)"/>
        <g transform="translate(0 .914) translate(0 .162)">
            <mask id="6r16igxdyb" fill="#fff">
                <use xlink:href="#uwtj7m37aa"/>
            </mask>
            <path fill="#1E64FF" d="M5.087.07C2.277.07 0 2.335 0 5.13c0 2.789 2.278 5.058 5.087 5.058 2.808 0 5.089-2.27 5.089-5.058 0-2.795-2.281-5.06-5.09-5.06" mask="url(#6r16igxdyb)"/>
        </g>
        <path fill="#1E64FF" d="M87.526 46.155c0-2.524-2.064-4.58-4.611-4.58H70.194l16.258-19.25c1.631-1.935 1.377-4.827-.57-6.444-.907-.76-2.018-1.109-3.119-1.071-.051-.006-20.343 0-20.343 0-2.546 0-4.606 2.05-4.606 4.571 0 2.531 2.06 4.587 4.606 4.587h10.626L56.792 43.213c-1.637 1.94-1.38 4.825.566 6.446.863.726 1.916 1.072 2.962 1.072h22.595c2.547 0 4.611-2.045 4.611-4.576M128.12 23.358c2.523 0 4.887.972 6.672 2.748 1.798 1.783 4.715 1.783 6.516 0 1.792-1.79 1.792-4.688 0-6.476-3.524-3.504-8.208-5.431-13.189-5.431-4.975 0-9.657 1.927-13.177 5.43-3.522 3.503-5.463 8.15-5.463 13.102 0 4.948 1.94 9.605 5.463 13.098 3.52 3.503 8.202 5.435 13.177 5.435 4.981 0 9.665-1.932 13.19-5.435 1.791-1.781 1.791-4.68 0-6.468-1.802-1.792-4.72-1.792-6.517 0-1.785 1.764-4.149 2.75-6.673 2.75-2.517 0-4.885-.986-6.664-2.75-1.783-1.773-2.763-4.126-2.763-6.63 0-2.504.98-4.862 2.763-6.625 1.78-1.776 4.147-2.748 6.664-2.748M165.356 42.111c-5.197 0-9.424-4.21-9.424-9.38 0-5.17 4.227-9.373 9.424-9.373 5.202 0 9.435 4.203 9.435 9.373 0 5.17-4.233 9.38-9.435 9.38m0-27.912c-10.275 0-18.638 8.313-18.638 18.532 0 10.218 8.363 18.533 18.638 18.533 10.28 0 18.644-8.315 18.644-18.533 0-10.22-8.363-18.532-18.644-18.532M98.839 14.81c-2.54 0-4.6 2.05-4.6 4.572v26.773c0 2.531 2.06 4.576 4.6 4.576 2.548 0 4.606-2.045 4.606-4.576V19.382c0-2.523-2.058-4.572-4.606-4.572" transform="translate(0 .914)"/>
        <g transform="translate(0 .914) translate(93.533 .162)">
            <mask id="63pm8sc9gd" fill="#fff">
                <use xlink:href="#gm7ejcreqc"/>
            </mask>
            <path fill="#1E64FF" d="M5.305.07C2.495.07.215 2.335.215 5.13c0 2.789 2.28 5.058 5.09 5.058 2.815 0 5.093-2.27 5.093-5.058 0-2.795-2.278-5.06-5.093-5.06" mask="url(#63pm8sc9gd)"/>
        </g>
        <path fill="#1E64FF" d="M49.812 15.325c-2.259-1.167-5.037-.293-6.21 1.948l-9.879 18.93-9.88-18.93c-1.17-2.24-3.953-3.115-6.21-1.948-2.255 1.169-3.136 3.933-1.963 6.178l12.861 24.644-5.938 11.4c-1.174 2.245-.299 5.01 1.96 6.174.741.39 1.54.55 2.322.512 1.59-.066 3.105-.951 3.895-2.457l21-40.273c1.177-2.245.3-5.01-1.958-6.178" transform="translate(0 .914)"/>
    </g>
</svg>
