<svg width="40" height="40" viewBox="0 0 40 40" fill="none" xmlns="http://www.w3.org/2000/svg">
<path opacity="0.3" d="M20 7C12.8203 7 7 12.8203 7 20C7 27.1797 12.8203 33 20 33H28.6176C29.2464 33 29.7888 33 30.2325 32.957C30.7025 32.9114 31.1662 32.8103 31.5961 32.5402C31.9777 32.3004 32.3004 31.9777 32.5402 31.5961C32.8103 31.1662 32.9114 30.7025 32.957 30.2325C33 29.7888 33 29.2464 33 28.6176V20C33 12.8203 27.1797 7 20 7Z" fill="black"/>
<path d="M16.5 22C17.3284 22 18 21.3284 18 20.5C18 19.6716 17.3284 19 16.5 19C15.6716 19 15 19.6716 15 20.5C15 21.3284 15.6716 22 16.5 22Z" fill="black"/>
<path d="M23.5 22C24.3284 22 25 21.3284 25 20.5C25 19.6716 24.3284 19 23.5 19C22.6716 19 22 19.6716 22 20.5C22 21.3284 22.6716 22 23.5 22Z" fill="black"/>
</svg>
