<svg width="24" height="24" viewBox="0 0 24 24" fill="none" xmlns="http://www.w3.org/2000/svg">
<path d="M12.0276 2C6.48938 2 2 6.47699 2 12C2 17.523 6.48938 22 12.0276 22C17.1217 22 21.3975 18.192 21.9931 13.188C22.0573 12.639 21.6652 12.128 21.1147 12.062C20.5652 11.998 20.0518 12.389 19.9876 12.938C19.5113 16.938 16.1029 20 12.0276 20C7.59743 20 4.00553 16.418 4.00553 12C4.00553 7.58199 7.59743 4 12.0276 4C12.9532 4 13.8697 4.16699 14.7231 4.46899C15.2445 4.65299 15.791 4.36399 15.9765 3.84399C16.161 3.32299 15.9023 2.74701 15.3809 2.56201C14.3139 2.18501 13.1818 2 12.0276 2Z" fill="black" fill-opacity="0.4"/>
<path d="M20.9906 3.9989C20.735 3.9989 20.4674 4.08891 20.2727 4.27991L11.5672 12.8739C11.3107 13.1269 11.0521 13.0779 10.8504 12.7799L9.85192 11.3109C9.5464 10.8599 8.90541 10.7289 8.44812 11.0299C7.98983 11.3309 7.86103 11.9539 8.16656 12.4049L9.165 13.8739C10.0646 15.2029 11.8248 15.3789 12.9721 14.2489L21.7084 5.68689C22.0978 5.30289 22.0978 4.66391 21.7084 4.27991C21.5137 4.08791 21.2462 3.9989 20.9906 3.9989Z" fill="black"/>
</svg>
