<svg width="24" height="24" viewBox="0 0 24 24" fill="none" xmlns="http://www.w3.org/2000/svg">
<path d="M12 1.9989C6.4772 1.9989 2 6.47589 2 11.9989C2 17.5219 6.4772 21.9989 12 21.9989C17.5228 21.9989 22 17.5219 22 11.9989C22 6.47589 17.5228 1.9989 12 1.9989ZM12 3.9989C16.4183 3.9989 20 7.58089 20 11.9989C20 16.4169 16.4183 19.9989 12 19.9989C7.5817 19.9989 4 16.4169 4 11.9989C4 7.58089 7.5817 3.9989 12 3.9989Z" fill="black" fill-opacity="0.4"/>
<path d="M15.9909 9C15.7359 9 15.4689 9.08601 15.2739 9.281L11.5639 13.031C11.3069 13.289 11.0489 13.241 10.8469 12.938L9.84995 11.438C9.54395 10.978 8.90494 10.85 8.44694 11.156C7.98894 11.463 7.86094 12.103 8.16594 12.562L9.16395 14.062C10.0639 15.416 11.82 15.588 12.967 14.438L16.7079 10.719C17.0969 10.328 17.0969 9.672 16.7079 9.281C16.5129 9.08601 16.2459 9 15.9909 9Z" fill="black"/>
</svg>
