<svg width="24" height="24" viewBox="0 0 24 24" fill="none" xmlns="http://www.w3.org/2000/svg">
<path d="M15 2.99841C13.895 2.99841 13 3.89341 13 4.99841V10.9984C13 12.1034 13.895 12.9984 15 12.9984H19C20.105 12.9984 21 12.1034 21 10.9984V4.99841C21 3.89341 20.105 2.99841 19 2.99841H15ZM5 10.9984C3.895 10.9984 3 11.8934 3 12.9984V18.9984C3 20.1034 3.895 20.9984 5 20.9984H9C10.105 20.9984 11 20.1034 11 18.9984V12.9984C11 11.8934 10.105 10.9984 9 10.9984H5Z" fill="black"/>
<path d="M4.84399 3C3.83299 3 3 3.80201 3 4.81201V7.18799C3 8.19799 3.83299 9 4.84399 9H9.15601C10.167 9 11 8.19799 11 7.18799V4.81201C11 3.80201 10.167 3 9.15601 3H4.84399ZM14.844 15C13.833 15 13 15.802 13 16.812V19.188C13 20.198 13.833 21 14.844 21H19.156C20.167 21 21 20.198 21 19.188V16.812C21 15.802 20.167 15 19.156 15H14.844Z" fill="black" fill-opacity="0.4"/>
</svg>
