<svg width="24" height="24" viewBox="0 0 24 24" fill="none" xmlns="http://www.w3.org/2000/svg">
<path fill-rule="evenodd" clip-rule="evenodd" d="M6.5 5C5.67157 5 5 5.67157 5 6.5C5 7.32843 5.67157 8 6.5 8H8V10H6.5C4.567 10 3 8.433 3 6.5C3 4.567 4.567 3 6.5 3C8.433 3 10 4.567 10 6.5V8H8V6.5C8 5.67157 7.32843 5 6.5 5ZM14 8H16V10H17.5C19.433 10 21 8.433 21 6.5C21 4.567 19.433 3 17.5 3C15.567 3 14 4.567 14 6.5V8ZM16 14V16H14V17.5C14 19.433 15.567 21 17.5 21C19.433 21 21 19.433 21 17.5C21 15.567 19.433 14 17.5 14H16ZM10 16H8V14H6.5C4.567 14 3 15.567 3 17.5C3 19.433 4.567 21 6.5 21C8.433 21 10 19.433 10 17.5V16ZM8 16V17.5C8 18.3284 7.32843 19 6.5 19C5.67157 19 5 18.3284 5 17.5C5 16.6716 5.67157 16 6.5 16H8ZM16 16H17.5C18.3284 16 19 16.6716 19 17.5C19 18.3284 18.3284 19 17.5 19C16.6716 19 16 18.3284 16 17.5V16ZM16 8V6.5C16 5.67157 16.6716 5 17.5 5C18.3284 5 19 5.67157 19 6.5C19 7.32843 18.3284 8 17.5 8H16Z" fill="black" fill-opacity="0.4"/>
<path fill-rule="evenodd" clip-rule="evenodd" d="M8 8H16V16H8V8ZM10 10V14H14V10H10Z" fill="black"/>
</svg>
