<svg width="24" height="24" viewBox="0 0 24 24" fill="none" xmlns="http://www.w3.org/2000/svg">
<path fill-rule="evenodd" clip-rule="evenodd" d="M12 4C7.58172 4 4 7.58172 4 12C4 16.4183 7.58172 20 12 20C16.4183 20 20 16.4183 20 12C20 7.58172 16.4183 4 12 4ZM2 12C2 6.47715 6.47715 2 12 2C17.5228 2 22 6.47715 22 12C22 17.5228 17.5228 22 12 22C6.47715 22 2 17.5228 2 12Z" fill="black" fill-opacity="0.4"/>
<path d="M12 6.9989C11.448 6.9989 11 7.4469 11 7.9989V12.9989C11 13.5509 11.448 13.9989 12 13.9989C12.552 13.9989 13 13.5509 13 12.9989V7.9989C13 7.4469 12.552 6.9989 12 6.9989ZM12 14.9989C11.448 14.9989 11 15.4469 11 15.9989C11 16.5509 11.448 16.9989 12 16.9989C12.552 16.9989 13 16.5509 13 15.9989C13 15.4469 12.552 14.9989 12 14.9989Z" fill="black"/>
</svg>
