<svg width="40" height="40" viewBox="0 0 40 40" fill="none" xmlns="http://www.w3.org/2000/svg">
<g opacity="0.3">
<path d="M13.2935 27.8597C15.3186 29.3116 17.7866 30.4846 20.5 30.4846C22.9696 30.4846 25.2358 29.513 27.1499 28.2437L22.9063 24.0712C22.2069 24.4961 21.382 24.7411 20.5 24.7411C17.9844 24.7411 15.9332 22.7475 15.9332 20.2739C15.9332 19.4007 16.1889 18.5873 16.6303 17.9003L12.1923 13.5366C10.6543 14.8042 9.37498 16.2061 8.44445 17.3435L8.33549 17.4764C7.62815 18.3379 7 19.103 7 20.2739C7 21.4448 7.62815 22.2099 8.33549 23.0715L8.44445 23.2044C9.58901 24.6034 11.2613 26.4026 13.2935 27.8597Z" fill="black"/>
<path fill-rule="evenodd" clip-rule="evenodd" d="M22.5327 21.6744L19.0812 18.2807C19.4829 18.0087 19.9715 17.8489 20.5 17.8489C21.8816 17.8489 22.9898 18.941 22.9898 20.2739C22.9898 20.7943 22.8209 21.2781 22.5327 21.6744Z" fill="black"/>
<path fill-rule="evenodd" clip-rule="evenodd" d="M20.5 22.699C19.1184 22.699 18.0102 21.6068 18.0102 20.2739C18.0102 19.972 18.067 19.6825 18.171 19.4152L21.3599 22.5507C21.0922 22.6466 20.8027 22.699 20.5 22.699Z" fill="black"/>
<path fill-rule="evenodd" clip-rule="evenodd" d="M20.5 10.0632C23.2134 10.0632 25.6814 11.2362 27.7065 12.6882C29.7387 14.1453 31.411 15.9445 32.5556 17.3435L32.6645 17.4764C33.3719 18.3379 34 19.103 34 20.2739C34 21.4448 33.3718 22.2099 32.6645 23.0715L32.5556 23.2044C31.8577 24.0574 30.9636 25.0592 29.9114 26.0415L24.9719 21.1847C25.0341 20.8908 25.0668 20.5862 25.0668 20.2739C25.0668 17.8003 23.0156 15.8067 20.5 15.8067C20.1893 15.8067 19.8857 15.8371 19.5922 15.8951L15.1476 11.525C16.7597 10.6581 18.5676 10.0632 20.5 10.0632Z" fill="black"/>
</g>
<path d="M20.5 17.8488C21.8817 17.8488 22.9899 18.941 22.9899 20.2739C22.9899 20.7943 22.8209 21.278 22.5327 21.6743L24.0124 23.1292L28.3409 27.3852L31.713 30.7009C32.1185 31.0996 32.7761 31.0996 33.1816 30.7009C33.5871 30.3021 33.5871 29.6556 33.1816 29.2569L29.9114 26.0414L24.9719 21.1847L19.5922 15.895L15.1477 11.5249L10.8543 7.30346L10.8501 7.29937C10.4443 6.90471 9.78986 6.90607 9.3857 7.30346C8.98016 7.70221 8.98016 8.34872 9.3857 8.74747L13.3514 12.6468L17.5993 16.8235L19.0812 18.2806C19.0927 18.2728 19.1043 18.2651 19.1159 18.2575C19.511 17.9996 19.9866 17.8488 20.5 17.8488Z" fill="black"/>
<path d="M22.9899 20.2739C22.9899 18.941 21.8817 17.8488 20.5 17.8488C19.9866 17.8488 19.511 17.9996 19.1159 18.2575L22.5327 21.6743C22.8209 21.278 22.9899 20.7943 22.9899 20.2739Z" fill="black"/>
</svg>
