<svg width="40" height="40" viewBox="0 0 40 40" fill="none" xmlns="http://www.w3.org/2000/svg">
<path opacity="0.3" d="M32.8203 17.8345C32.9386 18.5394 33 19.2629 33 20C33 24.3504 30.8621 28.2015 27.584 30.5597C27.5363 30.594 27.4885 30.6279 27.4403 30.6615C25.3322 32.1353 22.7657 33 20 33C13.5003 33 8.11547 28.2306 7.15302 22C7.10627 21.6974 7.06996 21.3913 7.04446 21.0822C7.015 20.7252 7 20.3642 7 20C7 15.6496 9.13792 11.7985 12.416 9.44032C12.4713 9.40059 12.5268 9.36128 12.5827 9.32241C14.6865 7.85847 17.2444 7 20 7C26.1477 7 31.2972 11.2665 32.6519 17C32.7169 17.2749 32.7731 17.5532 32.8203 17.8345Z" fill="black"/>
<path d="M16 12.3478C14.9646 12.3478 14.1686 11.6319 14.0237 10.7634L14 8.5C14 8.5 13.2989 8.80519 12.416 9.44033C9.13792 11.7985 7 15.6496 7 20C7 20.3642 7.015 20.7252 7.04446 21.0822C7.06996 21.3914 7.10627 21.6974 7.15302 22H9.18123H11C12.4934 22 13.8132 21.2052 14.5012 20.0031C14.8612 19.3741 15.2435 19.1304 15.5 19.1304H16.5C18.3906 19.1304 20 17.6535 20 15.7391C20 13.8248 18.3906 12.3478 16.5 12.3478H16Z" fill="black"/>
<path d="M26 29V29.2212V31.5C26 31.5 26.9307 31.0296 27.584 30.5597C30.8621 28.2015 33 24.3504 33 20C33 19.2629 32.9386 18.5394 32.8203 17.8346C32.7731 17.5532 32.7169 17.2749 32.6519 17H30.5862H29C27.4845 17 26.1673 17.8432 25.4895 19.0814C25.3279 19.3767 25.1378 19.6279 24.9438 19.7942C24.755 19.9562 24.61 20 24.5 20H23.5C21.567 20 20 21.567 20 23.5C20 25.433 21.567 27 23.5 27H24C25.1046 27 26 27.8954 26 29Z" fill="black"/>
</svg>
