<svg width="24" height="24" viewBox="0 0 24 24" fill="none" xmlns="http://www.w3.org/2000/svg">
<path fill-rule="evenodd" clip-rule="evenodd" d="M5 7C5 5.89543 5.89543 5 7 5H17C18.1046 5 19 5.89543 19 7V14.1771C20.1205 15.3571 21 17 21 17V7C21 4.79086 19.2091 3 17 3H7C4.79086 3 3 4.79086 3 7V17C3.36728 15.9984 4.10554 14.2743 5 12.7878V7Z" fill="black" fill-opacity="0.4"/>
<path fill-rule="evenodd" clip-rule="evenodd" d="M15.5 10C16.3284 10 17 9.32843 17 8.5C17 7.67157 16.3284 7 15.5 7C14.6716 7 14 7.67157 14 8.5C14 9.32843 14.6716 10 15.5 10ZM8 10C6 10 3.74232 14.9756 3 17C3 19.2091 4.78963 21 6.99877 21H17.0015C19.2107 21 21 19.2091 21 17C21 17 18.8587 13 17.0015 13C15.8232 13 14.6864 14.2136 14.0704 15.1545C14.031 15.2148 13.994 15.2759 13.9575 15.3364C13.7501 15.6797 13.5565 16 13.0001 16C12.3456 16 12.1497 15.5255 11.9565 15.0216C11.0022 12.5332 9.5 10 8 10Z" fill="black"/>
</svg>
