<svg width="24" height="24" viewBox="0 0 24 24" fill="none" xmlns="http://www.w3.org/2000/svg">
<path d="M5.99829 7.00002C4.34139 7.00002 2.99829 8.34302 2.99829 10V18C2.99829 19.657 4.34139 21 5.99829 21H13.9983C15.6552 21 16.9983 19.657 16.9983 18C16.9983 16.8133 16.9983 12.8307 16.9983 9.99961C16.9983 8.34276 15.6568 7 13.9999 7C10.8469 7.00001 6.29839 7.00002 5.99829 7.00002ZM12.4983 10C13.3267 10 13.9983 10.672 13.9983 11.5C13.9983 12.328 13.3267 13 12.4983 13C11.6699 13 10.9983 12.328 10.9983 11.5C10.9983 10.672 11.6699 10 12.4983 10ZM7.49829 15C8.53449 15.017 9.79679 16.971 10.1233 17.5C10.5191 18.141 11.443 18.17 11.8421 17.531C11.8687 17.489 12.8629 16.006 13.4358 16C14.0088 15.994 15.0044 17.02 14.9983 18C14.9949 18.532 14.5506 19 13.9983 19H5.99829C5.44599 19 4.98669 18.525 4.99829 18C5.02009 17.016 6.46209 14.983 7.49829 15Z" fill="black"/>
<path fill-rule="evenodd" clip-rule="evenodd" d="M9.9999 5C9.44768 5 9 5.44765 9 6V7H7V6C7 4.34321 8.34299 3 9.9999 3H17.9999C19.6568 3 20.9999 4.34315 20.9999 6V14C20.9999 15.6569 19.6568 17 17.9999 17H17V15H17.9999C18.5522 15 18.9999 14.5523 18.9999 14V6C18.9999 5.44772 18.5522 5 17.9999 5H9.9999Z" fill="black" fill-opacity="0.4"/>
</svg>
