<svg width="24" height="24" viewBox="0 0 24 24" fill="none" xmlns="http://www.w3.org/2000/svg">
<path fill-rule="evenodd" clip-rule="evenodd" d="M10.6569 19H19C19.5523 19 20 18.5523 20 18V16C20 15.4477 19.5523 15 19 15H14.6569L10.6569 19ZM16.6569 13H19C20.6569 13 22 14.3431 22 16V18C22 19.6569 20.6569 21 19 21H7V20.9531C8.10463 20.9531 9.10469 20.5054 9.82855 19.7814L10.1695 19.4405C10.6903 18.7652 11 17.9187 11 17V7.34315L12.6569 5.68629C13.8284 4.51472 15.7279 4.51472 16.8995 5.68629L18.3137 7.10051C19.4853 8.27208 19.4853 10.1716 18.3137 11.3432L16.6569 13Z" fill="black" fill-opacity="0.4"/>
<path fill-rule="evenodd" clip-rule="evenodd" d="M6 2C4.34314 2 3 3.34315 3 5V17C3 19.2091 4.79086 21 7 21C9.20914 21 11 19.2091 11 17V5C11 3.34315 9.65686 2 8 2H6ZM7 19C8.10457 19 9 18.1046 9 17C9 15.8954 8.10457 15 7 15C5.89543 15 5 15.8954 5 17C5 18.1046 5.89543 19 7 19Z" fill="black"/>
</svg>
