<svg width="40" height="40" viewBox="0 0 40 40" fill="none" xmlns="http://www.w3.org/2000/svg">
<path opacity="0.3" fill-rule="evenodd" clip-rule="evenodd" d="M12.2239 15.6C12.2239 18.0887 13.421 20.2975 15.2708 21.6837C13.4125 22.1649 12.1322 23.0056 11.3003 24.2087C10.6255 25.1846 10.3167 26.3063 10.1678 27.445C10.0217 28.5626 10.0217 29.7747 10.0217 30.9616V31C10.0217 31.5523 10.4694 32 11.0217 32H28.6394C29.1917 32 29.6394 31.5523 29.6394 31V30.9603C29.6394 29.7747 29.6394 28.5737 29.4931 27.4701C29.3437 26.3436 29.0335 25.2387 28.3568 24.2747C27.5149 23.0753 26.2141 22.2348 24.3173 21.7377C26.2086 20.3553 27.4372 18.1213 27.4372 15.6C27.4372 11.4017 24.0306 8 19.8306 8C15.6305 8 12.2239 11.4017 12.2239 15.6Z" fill="black"/>
<path fill-rule="evenodd" clip-rule="evenodd" d="M9.02656 14.6957C5.76804 14.6957 3.63155 17.2728 3.63155 20.287C3.63155 21.7047 3.98143 23.0905 4.79942 24.1461C4.85596 24.219 4.91441 24.29 4.97477 24.3589C3.79621 24.7365 2.98978 25.3501 2.51262 26.2546C2.11542 27.0076 2.02167 27.8426 2.00349 28.6123C1.99426 29.003 2.00462 29.4072 2.01617 29.8011L2.01992 29.9274C2.03056 30.2852 2.04106 30.6381 2.04106 31C2.04106 31.5523 2.48878 32 3.04106 32C3.59335 32 4.04106 31.5523 4.04106 31C4.04106 30.6064 4.02963 30.223 4.01906 29.8685L4.01531 29.7424C4.00368 29.346 3.99511 28.9907 4.00294 28.6595C4.01886 27.9852 4.10313 27.526 4.28157 27.1878C4.57714 26.6275 5.40425 25.9438 8.5455 25.8781C9.09358 25.8666 9.53026 25.416 9.52453 24.8678C9.51879 24.3197 9.07279 23.8783 8.52458 23.8783C7.49843 23.8783 6.82414 23.4937 6.38031 22.921C5.91059 22.3148 5.63155 21.405 5.63155 20.287C5.63155 18.2297 7.01468 16.6957 9.02656 16.6957C9.57885 16.6957 10.0266 16.248 10.0266 15.6957C10.0266 15.1434 9.57885 14.6957 9.02656 14.6957ZM30.9734 14.6957C30.4211 14.6957 29.9734 15.1434 29.9734 15.6957C29.9734 16.248 30.4211 16.6957 30.9734 16.6957C32.9852 16.6957 34.3684 18.2297 34.3684 20.287C34.3684 21.4049 34.0893 22.3148 33.6195 22.9209C33.1756 23.4937 32.5012 23.8783 31.475 23.8783C30.9268 23.8783 30.4808 24.3197 30.4751 24.8678C30.4693 25.416 30.906 25.8666 31.4541 25.8781C34.5953 25.9438 35.4226 26.6275 35.7182 27.1879C35.8967 27.5261 35.981 27.9853 35.997 28.6595C36.0048 28.9908 35.9962 29.346 35.9846 29.7424L35.9809 29.8688C35.9703 30.2232 35.9589 30.6065 35.9589 31C35.9589 31.5523 36.4066 32 36.9589 32C37.5112 32 37.9589 31.5523 37.9589 31C37.9589 30.6382 37.9694 30.2854 37.98 29.9277L37.9838 29.801C37.9953 29.4072 38.0056 29.003 37.9964 28.6122C37.9782 27.8425 37.8844 27.0075 37.4871 26.2546C37.0099 25.3501 36.2035 24.7365 35.025 24.3589C35.0853 24.29 35.1438 24.2191 35.2003 24.1461C36.0184 23.0905 36.3684 21.7048 36.3684 20.287C36.3684 17.2728 34.2319 14.6957 30.9734 14.6957Z" fill="black"/>
</svg>
